G04*
G04 #@! TF.GenerationSoftware,Altium Limited,Altium Designer,18.1.7 (191)*
G04*
G04 Layer_Color=8388736*
%FSLAX25Y25*%
%MOIN*%
G70*
G01*
G75*
%ADD11C,0.01000*%
%ADD14C,0.00787*%
%ADD52R,0.14567X0.07874*%
%ADD53O,0.17748X0.09323*%
%ADD54O,0.17748X0.09087*%
%ADD55R,0.06724X0.06724*%
%ADD56R,0.06724X0.06724*%
%ADD57P,0.09510X4X270.0*%
%ADD58P,0.09510X4X180.0*%
%ADD59R,0.06000X0.08000*%
G04:AMPARAMS|DCode=60|XSize=60mil|YSize=80mil|CornerRadius=0mil|HoleSize=0mil|Usage=FLASHONLY|Rotation=315.000|XOffset=0mil|YOffset=0mil|HoleType=Round|Shape=Rectangle|*
%AMROTATEDRECTD60*
4,1,4,-0.04950,-0.00707,0.00707,0.04950,0.04950,0.00707,-0.00707,-0.04950,-0.04950,-0.00707,0.0*
%
%ADD60ROTATEDRECTD60*%

%ADD61R,0.04756X0.10661*%
%ADD62R,0.10268X0.13811*%
%ADD63R,0.05150X0.08299*%
%ADD64R,0.13811X0.10268*%
%ADD65R,0.08299X0.05150*%
G04:AMPARAMS|DCode=66|XSize=60mil|YSize=80mil|CornerRadius=0mil|HoleSize=0mil|Usage=FLASHONLY|Rotation=225.000|XOffset=0mil|YOffset=0mil|HoleType=Round|Shape=Rectangle|*
%AMROTATEDRECTD66*
4,1,4,-0.00707,0.04950,0.04950,-0.00707,0.00707,-0.04950,-0.04950,0.00707,-0.00707,0.04950,0.0*
%
%ADD66ROTATEDRECTD66*%

%ADD67C,0.09843*%
%ADD68R,0.08000X0.06000*%
%ADD69R,0.05937X0.05937*%
G04:AMPARAMS|DCode=70|XSize=59.37mil|YSize=71.18mil|CornerRadius=0mil|HoleSize=0mil|Usage=FLASHONLY|Rotation=315.000|XOffset=0mil|YOffset=0mil|HoleType=Round|Shape=Rectangle|*
%AMROTATEDRECTD70*
4,1,4,-0.04616,-0.00418,0.00418,0.04616,0.04616,0.00418,-0.00418,-0.04616,-0.04616,-0.00418,0.0*
%
%ADD70ROTATEDRECTD70*%

G04:AMPARAMS|DCode=71|XSize=15.81mil|YSize=72.9mil|CornerRadius=0mil|HoleSize=0mil|Usage=FLASHONLY|Rotation=45.000|XOffset=0mil|YOffset=0mil|HoleType=Round|Shape=Round|*
%AMOVALD71*
21,1,0.05709,0.01581,0.00000,0.00000,135.0*
1,1,0.01581,0.02018,-0.02018*
1,1,0.01581,-0.02018,0.02018*
%
%ADD71OVALD71*%

G04:AMPARAMS|DCode=72|XSize=15.81mil|YSize=72.9mil|CornerRadius=0mil|HoleSize=0mil|Usage=FLASHONLY|Rotation=135.000|XOffset=0mil|YOffset=0mil|HoleType=Round|Shape=Round|*
%AMOVALD72*
21,1,0.05709,0.01581,0.00000,0.00000,225.0*
1,1,0.01581,0.02018,0.02018*
1,1,0.01581,-0.02018,-0.02018*
%
%ADD72OVALD72*%

%ADD73R,0.05150X0.06134*%
G04:AMPARAMS|DCode=74|XSize=61.34mil|YSize=67.24mil|CornerRadius=0mil|HoleSize=0mil|Usage=FLASHONLY|Rotation=135.000|XOffset=0mil|YOffset=0mil|HoleType=Round|Shape=Rectangle|*
%AMROTATEDRECTD74*
4,1,4,0.04546,0.00209,-0.00209,-0.04546,-0.04546,-0.00209,0.00209,0.04546,0.04546,0.00209,0.0*
%
%ADD74ROTATEDRECTD74*%

%ADD75R,0.06724X0.06134*%
%ADD76R,0.06134X0.06724*%
G04:AMPARAMS|DCode=77|XSize=61.34mil|YSize=67.24mil|CornerRadius=0mil|HoleSize=0mil|Usage=FLASHONLY|Rotation=45.000|XOffset=0mil|YOffset=0mil|HoleType=Round|Shape=Rectangle|*
%AMROTATEDRECTD77*
4,1,4,0.00209,-0.04546,-0.04546,0.00209,-0.00209,0.04546,0.04546,-0.00209,0.00209,-0.04546,0.0*
%
%ADD77ROTATEDRECTD77*%

%ADD78P,0.07839X4X360.0*%
%ADD79R,0.05543X0.05543*%
%ADD80R,0.06724X0.08000*%
G04:AMPARAMS|DCode=81|XSize=67.24mil|YSize=80mil|CornerRadius=0mil|HoleSize=0mil|Usage=FLASHONLY|Rotation=135.000|XOffset=0mil|YOffset=0mil|HoleType=Round|Shape=Rectangle|*
%AMROTATEDRECTD81*
4,1,4,0.05206,0.00451,-0.00451,-0.05206,-0.05206,-0.00451,0.00451,0.05206,0.05206,0.00451,0.0*
%
%ADD81ROTATEDRECTD81*%

%ADD82R,0.08000X0.06724*%
%ADD83C,0.06000*%
%ADD84C,0.09331*%
%ADD85C,0.07323*%
%ADD86C,0.07906*%
%ADD87R,0.07906X0.07906*%
%ADD88R,0.07906X0.07906*%
%ADD89C,0.25622*%
%ADD90C,0.05150*%
G36*
X647473Y-118548D02*
X647537D01*
X647710Y-118567D01*
X647901Y-118594D01*
X648102Y-118640D01*
X648320Y-118694D01*
X648521Y-118767D01*
X648530D01*
X648548Y-118776D01*
X648575Y-118794D01*
X648612Y-118813D01*
X648703Y-118858D01*
X648821Y-118940D01*
X648958Y-119031D01*
X649094Y-119150D01*
X649222Y-119286D01*
X649340Y-119441D01*
Y-119450D01*
X649349Y-119459D01*
X649368Y-119487D01*
X649386Y-119514D01*
X649432Y-119605D01*
X649486Y-119724D01*
X649550Y-119869D01*
X649595Y-120043D01*
X649641Y-120225D01*
X649659Y-120425D01*
X648858Y-120489D01*
Y-120480D01*
Y-120461D01*
X648848Y-120434D01*
X648839Y-120389D01*
X648812Y-120288D01*
X648776Y-120152D01*
X648721Y-120006D01*
X648639Y-119860D01*
X648539Y-119724D01*
X648411Y-119596D01*
X648393Y-119587D01*
X648347Y-119551D01*
X648256Y-119496D01*
X648138Y-119441D01*
X647983Y-119387D01*
X647801Y-119332D01*
X647573Y-119296D01*
X647318Y-119286D01*
X647190D01*
X647136Y-119296D01*
X647063Y-119305D01*
X646899Y-119323D01*
X646717Y-119359D01*
X646534Y-119405D01*
X646361Y-119478D01*
X646289Y-119523D01*
X646216Y-119569D01*
X646198Y-119578D01*
X646161Y-119614D01*
X646106Y-119678D01*
X646052Y-119751D01*
X645988Y-119851D01*
X645933Y-119960D01*
X645897Y-120088D01*
X645879Y-120234D01*
Y-120252D01*
Y-120288D01*
X645888Y-120352D01*
X645906Y-120425D01*
X645933Y-120516D01*
X645979Y-120607D01*
X646033Y-120698D01*
X646115Y-120790D01*
X646125Y-120799D01*
X646170Y-120826D01*
X646207Y-120853D01*
X646243Y-120871D01*
X646298Y-120899D01*
X646361Y-120935D01*
X646443Y-120963D01*
X646534Y-120999D01*
X646635Y-121036D01*
X646753Y-121081D01*
X646881Y-121117D01*
X647026Y-121163D01*
X647190Y-121200D01*
X647373Y-121245D01*
X647382D01*
X647418Y-121254D01*
X647473Y-121263D01*
X647537Y-121281D01*
X647619Y-121300D01*
X647719Y-121327D01*
X647819Y-121354D01*
X647928Y-121382D01*
X648165Y-121445D01*
X648393Y-121509D01*
X648502Y-121546D01*
X648602Y-121582D01*
X648694Y-121609D01*
X648767Y-121646D01*
X648776D01*
X648794Y-121655D01*
X648821Y-121673D01*
X648858Y-121691D01*
X648958Y-121746D01*
X649076Y-121819D01*
X649213Y-121919D01*
X649349Y-122029D01*
X649477Y-122156D01*
X649586Y-122293D01*
X649595Y-122311D01*
X649632Y-122356D01*
X649668Y-122438D01*
X649723Y-122548D01*
X649769Y-122675D01*
X649814Y-122830D01*
X649841Y-123003D01*
X649851Y-123185D01*
Y-123195D01*
Y-123204D01*
Y-123231D01*
Y-123267D01*
X649832Y-123368D01*
X649814Y-123495D01*
X649778Y-123641D01*
X649732Y-123796D01*
X649659Y-123960D01*
X649559Y-124133D01*
Y-124142D01*
X649550Y-124151D01*
X649504Y-124206D01*
X649441Y-124288D01*
X649349Y-124379D01*
X649231Y-124488D01*
X649085Y-124607D01*
X648921Y-124716D01*
X648730Y-124816D01*
X648721D01*
X648703Y-124825D01*
X648675Y-124834D01*
X648639Y-124853D01*
X648584Y-124871D01*
X648521Y-124898D01*
X648375Y-124934D01*
X648202Y-124980D01*
X647992Y-125026D01*
X647764Y-125053D01*
X647518Y-125062D01*
X647373D01*
X647300Y-125053D01*
X647218D01*
X647127Y-125044D01*
X647017Y-125035D01*
X646790Y-124998D01*
X646553Y-124962D01*
X646316Y-124898D01*
X646088Y-124816D01*
X646079D01*
X646061Y-124807D01*
X646033Y-124789D01*
X645997Y-124771D01*
X645888Y-124716D01*
X645760Y-124634D01*
X645614Y-124525D01*
X645460Y-124397D01*
X645314Y-124242D01*
X645177Y-124069D01*
Y-124060D01*
X645159Y-124042D01*
X645150Y-124014D01*
X645122Y-123978D01*
X645104Y-123932D01*
X645077Y-123878D01*
X645013Y-123741D01*
X644949Y-123568D01*
X644895Y-123377D01*
X644858Y-123158D01*
X644840Y-122930D01*
X645623Y-122857D01*
Y-122867D01*
Y-122876D01*
X645633Y-122903D01*
Y-122940D01*
X645651Y-123021D01*
X645678Y-123140D01*
X645715Y-123258D01*
X645751Y-123395D01*
X645815Y-123522D01*
X645879Y-123641D01*
X645888Y-123650D01*
X645915Y-123687D01*
X645961Y-123750D01*
X646033Y-123814D01*
X646125Y-123896D01*
X646225Y-123978D01*
X646361Y-124060D01*
X646507Y-124133D01*
X646516D01*
X646525Y-124142D01*
X646553Y-124151D01*
X646580Y-124160D01*
X646671Y-124188D01*
X646790Y-124224D01*
X646935Y-124260D01*
X647099Y-124288D01*
X647282Y-124306D01*
X647482Y-124315D01*
X647564D01*
X647655Y-124306D01*
X647764Y-124297D01*
X647892Y-124279D01*
X648038Y-124260D01*
X648183Y-124224D01*
X648320Y-124178D01*
X648338Y-124169D01*
X648384Y-124151D01*
X648448Y-124115D01*
X648530Y-124078D01*
X648612Y-124014D01*
X648703Y-123951D01*
X648794Y-123878D01*
X648867Y-123787D01*
X648876Y-123778D01*
X648894Y-123741D01*
X648921Y-123696D01*
X648958Y-123623D01*
X648994Y-123550D01*
X649022Y-123459D01*
X649040Y-123359D01*
X649049Y-123249D01*
Y-123240D01*
Y-123195D01*
X649040Y-123140D01*
X649031Y-123067D01*
X649003Y-122994D01*
X648976Y-122903D01*
X648931Y-122812D01*
X648867Y-122730D01*
X648858Y-122721D01*
X648830Y-122694D01*
X648794Y-122657D01*
X648730Y-122602D01*
X648657Y-122548D01*
X648557Y-122484D01*
X648439Y-122420D01*
X648302Y-122365D01*
X648293Y-122356D01*
X648247Y-122347D01*
X648174Y-122320D01*
X648129Y-122311D01*
X648065Y-122293D01*
X648001Y-122265D01*
X647919Y-122247D01*
X647828Y-122220D01*
X647719Y-122192D01*
X647610Y-122165D01*
X647482Y-122129D01*
X647336Y-122092D01*
X647181Y-122056D01*
X647172D01*
X647145Y-122047D01*
X647099Y-122038D01*
X647045Y-122019D01*
X646972Y-122001D01*
X646890Y-121983D01*
X646708Y-121928D01*
X646507Y-121864D01*
X646298Y-121801D01*
X646115Y-121737D01*
X646033Y-121701D01*
X645961Y-121664D01*
X645952D01*
X645942Y-121655D01*
X645888Y-121618D01*
X645806Y-121573D01*
X645715Y-121500D01*
X645605Y-121418D01*
X645496Y-121318D01*
X645387Y-121200D01*
X645296Y-121072D01*
X645287Y-121054D01*
X645259Y-121008D01*
X645223Y-120935D01*
X645186Y-120844D01*
X645150Y-120726D01*
X645113Y-120589D01*
X645086Y-120443D01*
X645077Y-120288D01*
Y-120279D01*
Y-120270D01*
Y-120243D01*
Y-120206D01*
X645095Y-120115D01*
X645113Y-119997D01*
X645141Y-119860D01*
X645186Y-119705D01*
X645250Y-119551D01*
X645341Y-119396D01*
Y-119387D01*
X645350Y-119377D01*
X645396Y-119323D01*
X645460Y-119250D01*
X645541Y-119159D01*
X645651Y-119059D01*
X645787Y-118949D01*
X645952Y-118849D01*
X646134Y-118758D01*
X646143D01*
X646161Y-118749D01*
X646188Y-118740D01*
X646225Y-118721D01*
X646270Y-118703D01*
X646334Y-118685D01*
X646471Y-118649D01*
X646644Y-118612D01*
X646844Y-118576D01*
X647054Y-118548D01*
X647291Y-118539D01*
X647409D01*
X647473Y-118548D01*
D02*
G37*
G36*
X661429Y-124953D02*
X660710D01*
Y-124379D01*
X660701Y-124388D01*
X660691Y-124406D01*
X660664Y-124443D01*
X660628Y-124488D01*
X660582Y-124534D01*
X660528Y-124588D01*
X660464Y-124652D01*
X660382Y-124716D01*
X660300Y-124780D01*
X660209Y-124844D01*
X660099Y-124898D01*
X659981Y-124944D01*
X659863Y-124989D01*
X659726Y-125026D01*
X659580Y-125044D01*
X659425Y-125053D01*
X659371D01*
X659334Y-125044D01*
X659225Y-125035D01*
X659097Y-125016D01*
X658942Y-124980D01*
X658769Y-124925D01*
X658596Y-124853D01*
X658423Y-124752D01*
X658414D01*
X658405Y-124734D01*
X658350Y-124698D01*
X658268Y-124625D01*
X658168Y-124534D01*
X658050Y-124415D01*
X657931Y-124269D01*
X657813Y-124106D01*
X657713Y-123914D01*
Y-123905D01*
X657703Y-123887D01*
X657694Y-123860D01*
X657676Y-123823D01*
X657658Y-123768D01*
X657630Y-123705D01*
X657612Y-123641D01*
X657594Y-123559D01*
X657549Y-123377D01*
X657503Y-123167D01*
X657476Y-122930D01*
X657467Y-122675D01*
Y-122666D01*
Y-122648D01*
Y-122611D01*
Y-122557D01*
X657476Y-122502D01*
Y-122429D01*
X657494Y-122265D01*
X657521Y-122074D01*
X657567Y-121864D01*
X657621Y-121646D01*
X657694Y-121436D01*
Y-121427D01*
X657703Y-121409D01*
X657722Y-121382D01*
X657740Y-121345D01*
X657795Y-121245D01*
X657867Y-121117D01*
X657959Y-120981D01*
X658077Y-120844D01*
X658214Y-120698D01*
X658378Y-120580D01*
X658387D01*
X658396Y-120571D01*
X658423Y-120553D01*
X658460Y-120534D01*
X658551Y-120489D01*
X658678Y-120425D01*
X658824Y-120370D01*
X658997Y-120325D01*
X659188Y-120288D01*
X659389Y-120279D01*
X659462D01*
X659535Y-120288D01*
X659635Y-120298D01*
X659753Y-120325D01*
X659881Y-120352D01*
X660008Y-120398D01*
X660127Y-120461D01*
X660145Y-120471D01*
X660181Y-120489D01*
X660236Y-120534D01*
X660309Y-120580D01*
X660400Y-120644D01*
X660482Y-120726D01*
X660573Y-120808D01*
X660655Y-120908D01*
Y-118649D01*
X661429D01*
Y-124953D01*
D02*
G37*
G36*
X639839Y-120288D02*
X639902Y-120298D01*
X640039Y-120316D01*
X640203Y-120352D01*
X640376Y-120407D01*
X640549Y-120489D01*
X640722Y-120589D01*
X640731D01*
X640741Y-120607D01*
X640795Y-120644D01*
X640877Y-120717D01*
X640977Y-120808D01*
X641087Y-120926D01*
X641196Y-121072D01*
X641305Y-121245D01*
X641397Y-121436D01*
Y-121445D01*
X641406Y-121464D01*
X641415Y-121491D01*
X641433Y-121527D01*
X641451Y-121582D01*
X641469Y-121646D01*
X641515Y-121792D01*
X641561Y-121974D01*
X641597Y-122174D01*
X641624Y-122402D01*
X641633Y-122639D01*
Y-122648D01*
Y-122666D01*
Y-122703D01*
Y-122757D01*
X641624Y-122821D01*
Y-122894D01*
X641606Y-123058D01*
X641570Y-123258D01*
X641524Y-123468D01*
X641460Y-123687D01*
X641378Y-123905D01*
Y-123914D01*
X641369Y-123932D01*
X641351Y-123960D01*
X641333Y-123996D01*
X641269Y-124096D01*
X641187Y-124224D01*
X641087Y-124361D01*
X640959Y-124497D01*
X640813Y-124634D01*
X640640Y-124761D01*
X640631D01*
X640622Y-124771D01*
X640595Y-124789D01*
X640558Y-124807D01*
X640467Y-124853D01*
X640340Y-124907D01*
X640185Y-124962D01*
X640021Y-125007D01*
X639830Y-125044D01*
X639638Y-125053D01*
X639574D01*
X639502Y-125044D01*
X639410Y-125035D01*
X639301Y-125016D01*
X639183Y-124989D01*
X639064Y-124953D01*
X638946Y-124898D01*
X638937Y-124889D01*
X638891Y-124871D01*
X638837Y-124834D01*
X638764Y-124780D01*
X638691Y-124725D01*
X638600Y-124652D01*
X638518Y-124570D01*
X638445Y-124479D01*
Y-126702D01*
X637671D01*
Y-120379D01*
X638372D01*
Y-120981D01*
X638381Y-120963D01*
X638417Y-120926D01*
X638463Y-120862D01*
X638536Y-120790D01*
X638618Y-120698D01*
X638709Y-120616D01*
X638818Y-120534D01*
X638928Y-120461D01*
X638946Y-120452D01*
X638982Y-120434D01*
X639055Y-120407D01*
X639146Y-120370D01*
X639256Y-120334D01*
X639383Y-120307D01*
X639529Y-120288D01*
X639693Y-120279D01*
X639793D01*
X639839Y-120288D01*
D02*
G37*
G36*
X669382D02*
X669483Y-120307D01*
X669601Y-120343D01*
X669729Y-120389D01*
X669874Y-120452D01*
X670029Y-120534D01*
X669747Y-121245D01*
X669738Y-121236D01*
X669701Y-121218D01*
X669647Y-121190D01*
X669574Y-121163D01*
X669492Y-121136D01*
X669391Y-121108D01*
X669291Y-121090D01*
X669191Y-121081D01*
X669146D01*
X669100Y-121090D01*
X669036Y-121099D01*
X668972Y-121117D01*
X668890Y-121145D01*
X668809Y-121181D01*
X668736Y-121236D01*
X668726Y-121245D01*
X668699Y-121263D01*
X668672Y-121300D01*
X668626Y-121345D01*
X668581Y-121409D01*
X668535Y-121482D01*
X668490Y-121564D01*
X668453Y-121664D01*
X668444Y-121682D01*
X668435Y-121737D01*
X668417Y-121819D01*
X668389Y-121928D01*
X668362Y-122065D01*
X668344Y-122220D01*
X668335Y-122384D01*
X668326Y-122566D01*
Y-124953D01*
X667551D01*
Y-120379D01*
X668253D01*
Y-121072D01*
X668262Y-121063D01*
X668298Y-120999D01*
X668344Y-120917D01*
X668417Y-120817D01*
X668490Y-120717D01*
X668572Y-120607D01*
X668654Y-120516D01*
X668736Y-120443D01*
X668745Y-120434D01*
X668772Y-120416D01*
X668827Y-120389D01*
X668881Y-120361D01*
X668954Y-120334D01*
X669045Y-120307D01*
X669136Y-120288D01*
X669237Y-120279D01*
X669300D01*
X669382Y-120288D01*
D02*
G37*
G36*
X656556Y-124953D02*
X655781D01*
Y-118649D01*
X656556D01*
Y-124953D01*
D02*
G37*
G36*
X632004Y-119396D02*
X629927D01*
Y-124953D01*
X629089D01*
Y-119396D01*
X627012D01*
Y-118649D01*
X632004D01*
Y-119396D01*
D02*
G37*
G36*
X664682Y-120288D02*
X664754Y-120298D01*
X664846Y-120316D01*
X664946Y-120334D01*
X665064Y-120361D01*
X665174Y-120389D01*
X665301Y-120434D01*
X665420Y-120480D01*
X665547Y-120544D01*
X665675Y-120616D01*
X665802Y-120698D01*
X665921Y-120799D01*
X666030Y-120908D01*
X666039Y-120917D01*
X666057Y-120935D01*
X666085Y-120972D01*
X666121Y-121026D01*
X666167Y-121090D01*
X666212Y-121163D01*
X666267Y-121254D01*
X666322Y-121363D01*
X666376Y-121482D01*
X666431Y-121609D01*
X666476Y-121755D01*
X666522Y-121910D01*
X666558Y-122083D01*
X666586Y-122265D01*
X666604Y-122457D01*
X666613Y-122666D01*
Y-122675D01*
Y-122712D01*
Y-122775D01*
X666604Y-122867D01*
X663188D01*
Y-122876D01*
Y-122903D01*
X663197Y-122940D01*
Y-122994D01*
X663206Y-123058D01*
X663224Y-123131D01*
X663251Y-123295D01*
X663306Y-123477D01*
X663379Y-123677D01*
X663479Y-123860D01*
X663607Y-124024D01*
X663616D01*
X663625Y-124042D01*
X663680Y-124087D01*
X663762Y-124151D01*
X663871Y-124215D01*
X664017Y-124288D01*
X664181Y-124352D01*
X664363Y-124397D01*
X664463Y-124406D01*
X664572Y-124415D01*
X664645D01*
X664727Y-124406D01*
X664827Y-124388D01*
X664937Y-124361D01*
X665064Y-124324D01*
X665183Y-124269D01*
X665301Y-124197D01*
X665310Y-124188D01*
X665356Y-124151D01*
X665411Y-124096D01*
X665474Y-124024D01*
X665547Y-123923D01*
X665629Y-123796D01*
X665711Y-123650D01*
X665784Y-123477D01*
X666586Y-123577D01*
Y-123586D01*
X666576Y-123605D01*
X666567Y-123641D01*
X666549Y-123696D01*
X666522Y-123750D01*
X666495Y-123823D01*
X666422Y-123978D01*
X666331Y-124151D01*
X666203Y-124333D01*
X666057Y-124506D01*
X665875Y-124670D01*
X665866D01*
X665848Y-124689D01*
X665820Y-124707D01*
X665784Y-124734D01*
X665729Y-124761D01*
X665675Y-124789D01*
X665602Y-124825D01*
X665520Y-124862D01*
X665429Y-124898D01*
X665338Y-124934D01*
X665110Y-124989D01*
X664855Y-125035D01*
X664572Y-125053D01*
X664472D01*
X664408Y-125044D01*
X664326Y-125035D01*
X664226Y-125016D01*
X664117Y-124998D01*
X663998Y-124980D01*
X663743Y-124907D01*
X663607Y-124853D01*
X663479Y-124798D01*
X663343Y-124725D01*
X663215Y-124643D01*
X663097Y-124552D01*
X662978Y-124443D01*
X662969Y-124434D01*
X662951Y-124415D01*
X662923Y-124379D01*
X662887Y-124324D01*
X662841Y-124260D01*
X662796Y-124188D01*
X662741Y-124096D01*
X662687Y-123996D01*
X662632Y-123878D01*
X662577Y-123750D01*
X662532Y-123605D01*
X662486Y-123450D01*
X662450Y-123286D01*
X662422Y-123103D01*
X662404Y-122912D01*
X662395Y-122712D01*
Y-122703D01*
Y-122657D01*
Y-122602D01*
X662404Y-122520D01*
X662413Y-122420D01*
X662422Y-122311D01*
X662441Y-122183D01*
X662468Y-122056D01*
X662541Y-121764D01*
X662586Y-121618D01*
X662641Y-121464D01*
X662714Y-121318D01*
X662796Y-121181D01*
X662887Y-121045D01*
X662987Y-120917D01*
X662996Y-120908D01*
X663015Y-120890D01*
X663051Y-120862D01*
X663097Y-120817D01*
X663151Y-120771D01*
X663224Y-120717D01*
X663306Y-120653D01*
X663406Y-120598D01*
X663507Y-120534D01*
X663625Y-120480D01*
X663752Y-120425D01*
X663889Y-120379D01*
X664035Y-120334D01*
X664190Y-120307D01*
X664354Y-120288D01*
X664527Y-120279D01*
X664618D01*
X664682Y-120288D01*
D02*
G37*
G36*
X652902D02*
X652984Y-120298D01*
X653076Y-120316D01*
X653176Y-120334D01*
X653294Y-120352D01*
X653540Y-120434D01*
X653668Y-120480D01*
X653795Y-120544D01*
X653923Y-120607D01*
X654050Y-120698D01*
X654169Y-120790D01*
X654287Y-120899D01*
X654296Y-120908D01*
X654315Y-120926D01*
X654342Y-120963D01*
X654378Y-121008D01*
X654424Y-121072D01*
X654478Y-121154D01*
X654533Y-121245D01*
X654588Y-121345D01*
X654642Y-121455D01*
X654697Y-121591D01*
X654752Y-121728D01*
X654797Y-121883D01*
X654834Y-122047D01*
X654861Y-122220D01*
X654879Y-122402D01*
X654888Y-122602D01*
Y-122611D01*
Y-122639D01*
Y-122684D01*
Y-122748D01*
X654879Y-122821D01*
X654870Y-122912D01*
Y-123003D01*
X654852Y-123103D01*
X654825Y-123331D01*
X654770Y-123559D01*
X654706Y-123787D01*
X654615Y-123996D01*
Y-124005D01*
X654606Y-124014D01*
X654588Y-124042D01*
X654569Y-124078D01*
X654506Y-124169D01*
X654424Y-124279D01*
X654315Y-124406D01*
X654178Y-124534D01*
X654023Y-124661D01*
X653841Y-124780D01*
X653832D01*
X653823Y-124789D01*
X653795Y-124807D01*
X653750Y-124825D01*
X653704Y-124844D01*
X653649Y-124862D01*
X653513Y-124916D01*
X653358Y-124962D01*
X653167Y-125007D01*
X652966Y-125044D01*
X652747Y-125053D01*
X652657D01*
X652584Y-125044D01*
X652502Y-125035D01*
X652411Y-125016D01*
X652301Y-124998D01*
X652192Y-124980D01*
X651946Y-124907D01*
X651809Y-124853D01*
X651682Y-124798D01*
X651554Y-124725D01*
X651427Y-124643D01*
X651308Y-124552D01*
X651190Y-124443D01*
X651181Y-124434D01*
X651162Y-124415D01*
X651135Y-124379D01*
X651099Y-124324D01*
X651053Y-124260D01*
X651008Y-124188D01*
X650953Y-124096D01*
X650898Y-123987D01*
X650844Y-123869D01*
X650789Y-123732D01*
X650743Y-123586D01*
X650698Y-123431D01*
X650661Y-123258D01*
X650634Y-123076D01*
X650616Y-122876D01*
X650607Y-122666D01*
Y-122648D01*
Y-122611D01*
X650616Y-122548D01*
Y-122457D01*
X650625Y-122356D01*
X650643Y-122229D01*
X650661Y-122101D01*
X650698Y-121956D01*
X650734Y-121810D01*
X650780Y-121655D01*
X650835Y-121491D01*
X650907Y-121336D01*
X650980Y-121190D01*
X651080Y-121045D01*
X651181Y-120908D01*
X651308Y-120790D01*
X651317Y-120780D01*
X651335Y-120771D01*
X651372Y-120744D01*
X651417Y-120707D01*
X651472Y-120671D01*
X651545Y-120625D01*
X651618Y-120580D01*
X651709Y-120534D01*
X651809Y-120489D01*
X651919Y-120443D01*
X652165Y-120361D01*
X652447Y-120298D01*
X652593Y-120288D01*
X652747Y-120279D01*
X652839D01*
X652902Y-120288D01*
D02*
G37*
G36*
X634773D02*
X634856Y-120298D01*
X634947Y-120316D01*
X635047Y-120334D01*
X635165Y-120352D01*
X635411Y-120434D01*
X635539Y-120480D01*
X635666Y-120544D01*
X635794Y-120607D01*
X635921Y-120698D01*
X636040Y-120790D01*
X636158Y-120899D01*
X636167Y-120908D01*
X636186Y-120926D01*
X636213Y-120963D01*
X636249Y-121008D01*
X636295Y-121072D01*
X636349Y-121154D01*
X636404Y-121245D01*
X636459Y-121345D01*
X636514Y-121455D01*
X636568Y-121591D01*
X636623Y-121728D01*
X636668Y-121883D01*
X636705Y-122047D01*
X636732Y-122220D01*
X636750Y-122402D01*
X636760Y-122602D01*
Y-122611D01*
Y-122639D01*
Y-122684D01*
Y-122748D01*
X636750Y-122821D01*
X636741Y-122912D01*
Y-123003D01*
X636723Y-123103D01*
X636696Y-123331D01*
X636641Y-123559D01*
X636577Y-123787D01*
X636486Y-123996D01*
Y-124005D01*
X636477Y-124014D01*
X636459Y-124042D01*
X636441Y-124078D01*
X636377Y-124169D01*
X636295Y-124279D01*
X636186Y-124406D01*
X636049Y-124534D01*
X635894Y-124661D01*
X635712Y-124780D01*
X635703D01*
X635694Y-124789D01*
X635666Y-124807D01*
X635621Y-124825D01*
X635575Y-124844D01*
X635521Y-124862D01*
X635384Y-124916D01*
X635229Y-124962D01*
X635038Y-125007D01*
X634837Y-125044D01*
X634619Y-125053D01*
X634527D01*
X634455Y-125044D01*
X634373Y-125035D01*
X634282Y-125016D01*
X634172Y-124998D01*
X634063Y-124980D01*
X633817Y-124907D01*
X633680Y-124853D01*
X633553Y-124798D01*
X633425Y-124725D01*
X633298Y-124643D01*
X633179Y-124552D01*
X633061Y-124443D01*
X633052Y-124434D01*
X633034Y-124415D01*
X633006Y-124379D01*
X632970Y-124324D01*
X632924Y-124260D01*
X632879Y-124188D01*
X632824Y-124096D01*
X632769Y-123987D01*
X632715Y-123869D01*
X632660Y-123732D01*
X632615Y-123586D01*
X632569Y-123431D01*
X632533Y-123258D01*
X632505Y-123076D01*
X632487Y-122876D01*
X632478Y-122666D01*
Y-122648D01*
Y-122611D01*
X632487Y-122548D01*
Y-122457D01*
X632496Y-122356D01*
X632514Y-122229D01*
X632533Y-122101D01*
X632569Y-121956D01*
X632605Y-121810D01*
X632651Y-121655D01*
X632706Y-121491D01*
X632778Y-121336D01*
X632851Y-121190D01*
X632951Y-121045D01*
X633052Y-120908D01*
X633179Y-120790D01*
X633188Y-120780D01*
X633207Y-120771D01*
X633243Y-120744D01*
X633289Y-120707D01*
X633343Y-120671D01*
X633416Y-120625D01*
X633489Y-120580D01*
X633580Y-120534D01*
X633680Y-120489D01*
X633790Y-120443D01*
X634036Y-120361D01*
X634318Y-120298D01*
X634464Y-120288D01*
X634619Y-120279D01*
X634710D01*
X634773Y-120288D01*
D02*
G37*
%LPC*%
G36*
X659471Y-120917D02*
X659425D01*
X659389Y-120926D01*
X659289Y-120935D01*
X659170Y-120972D01*
X659033Y-121017D01*
X658888Y-121099D01*
X658742Y-121200D01*
X658669Y-121272D01*
X658605Y-121345D01*
Y-121354D01*
X658587Y-121363D01*
X658578Y-121391D01*
X658551Y-121427D01*
X658523Y-121473D01*
X658496Y-121527D01*
X658469Y-121591D01*
X658432Y-121664D01*
X658396Y-121755D01*
X658368Y-121855D01*
X658341Y-121965D01*
X658314Y-122083D01*
X658295Y-122211D01*
X658277Y-122356D01*
X658259Y-122511D01*
Y-122675D01*
Y-122684D01*
Y-122712D01*
Y-122757D01*
X658268Y-122821D01*
Y-122894D01*
X658277Y-122976D01*
X658305Y-123167D01*
X658350Y-123377D01*
X658414Y-123595D01*
X658505Y-123805D01*
X658560Y-123896D01*
X658624Y-123987D01*
X658633D01*
X658642Y-124005D01*
X658687Y-124051D01*
X658769Y-124124D01*
X658870Y-124197D01*
X658997Y-124279D01*
X659152Y-124352D01*
X659316Y-124397D01*
X659407Y-124406D01*
X659498Y-124415D01*
X659544D01*
X659580Y-124406D01*
X659680Y-124397D01*
X659799Y-124361D01*
X659935Y-124315D01*
X660081Y-124242D01*
X660227Y-124142D01*
X660300Y-124078D01*
X660363Y-124005D01*
Y-123996D01*
X660382Y-123987D01*
X660400Y-123960D01*
X660418Y-123923D01*
X660445Y-123878D01*
X660482Y-123832D01*
X660509Y-123759D01*
X660546Y-123687D01*
X660582Y-123605D01*
X660609Y-123513D01*
X660646Y-123404D01*
X660673Y-123295D01*
X660691Y-123167D01*
X660710Y-123040D01*
X660728Y-122894D01*
Y-122739D01*
Y-122730D01*
Y-122694D01*
Y-122648D01*
X660719Y-122584D01*
Y-122511D01*
X660710Y-122420D01*
X660701Y-122320D01*
X660682Y-122211D01*
X660637Y-121992D01*
X660573Y-121764D01*
X660482Y-121546D01*
X660427Y-121455D01*
X660363Y-121363D01*
Y-121354D01*
X660345Y-121345D01*
X660300Y-121291D01*
X660218Y-121218D01*
X660117Y-121136D01*
X659990Y-121054D01*
X659835Y-120990D01*
X659662Y-120935D01*
X659571Y-120926D01*
X659471Y-120917D01*
D02*
G37*
G36*
X639620Y-120890D02*
X639574D01*
X639538Y-120899D01*
X639447Y-120917D01*
X639328Y-120944D01*
X639192Y-120999D01*
X639046Y-121081D01*
X638964Y-121136D01*
X638891Y-121200D01*
X638818Y-121272D01*
X638745Y-121354D01*
Y-121363D01*
X638727Y-121372D01*
X638709Y-121400D01*
X638691Y-121436D01*
X638663Y-121491D01*
X638627Y-121546D01*
X638591Y-121618D01*
X638563Y-121691D01*
X638527Y-121783D01*
X638490Y-121883D01*
X638463Y-121992D01*
X638427Y-122110D01*
X638408Y-122247D01*
X638390Y-122384D01*
X638372Y-122529D01*
Y-122694D01*
Y-122703D01*
Y-122730D01*
Y-122775D01*
X638381Y-122839D01*
Y-122912D01*
X638390Y-122994D01*
X638417Y-123185D01*
X638463Y-123404D01*
X638518Y-123614D01*
X638609Y-123823D01*
X638663Y-123914D01*
X638727Y-123996D01*
X638745Y-124014D01*
X638791Y-124060D01*
X638864Y-124133D01*
X638964Y-124206D01*
X639092Y-124279D01*
X639237Y-124352D01*
X639401Y-124397D01*
X639493Y-124406D01*
X639584Y-124415D01*
X639638D01*
X639675Y-124406D01*
X639766Y-124388D01*
X639893Y-124361D01*
X640030Y-124306D01*
X640176Y-124233D01*
X640321Y-124124D01*
X640394Y-124060D01*
X640467Y-123987D01*
Y-123978D01*
X640485Y-123969D01*
X640504Y-123942D01*
X640522Y-123905D01*
X640558Y-123860D01*
X640586Y-123796D01*
X640622Y-123732D01*
X640659Y-123650D01*
X640686Y-123568D01*
X640722Y-123459D01*
X640759Y-123349D01*
X640786Y-123231D01*
X640804Y-123094D01*
X640823Y-122949D01*
X640841Y-122794D01*
Y-122630D01*
Y-122621D01*
Y-122593D01*
Y-122548D01*
X640832Y-122484D01*
Y-122411D01*
X640823Y-122329D01*
X640795Y-122138D01*
X640750Y-121928D01*
X640686Y-121719D01*
X640595Y-121509D01*
X640540Y-121409D01*
X640476Y-121327D01*
Y-121318D01*
X640458Y-121309D01*
X640413Y-121254D01*
X640340Y-121190D01*
X640239Y-121108D01*
X640112Y-121026D01*
X639966Y-120954D01*
X639802Y-120908D01*
X639711Y-120899D01*
X639620Y-120890D01*
D02*
G37*
G36*
X664536Y-120917D02*
X664481D01*
X664445Y-120926D01*
X664345Y-120935D01*
X664226Y-120963D01*
X664080Y-121008D01*
X663926Y-121072D01*
X663780Y-121163D01*
X663634Y-121281D01*
X663616Y-121300D01*
X663579Y-121345D01*
X663516Y-121427D01*
X663452Y-121537D01*
X663379Y-121664D01*
X663315Y-121828D01*
X663261Y-122019D01*
X663233Y-122229D01*
X665793D01*
Y-122220D01*
Y-122202D01*
X665784Y-122174D01*
Y-122138D01*
X665766Y-122029D01*
X665738Y-121910D01*
X665693Y-121764D01*
X665647Y-121628D01*
X665574Y-121491D01*
X665492Y-121372D01*
Y-121363D01*
X665474Y-121354D01*
X665429Y-121300D01*
X665347Y-121227D01*
X665237Y-121145D01*
X665101Y-121063D01*
X664937Y-120990D01*
X664745Y-120935D01*
X664645Y-120926D01*
X664536Y-120917D01*
D02*
G37*
G36*
X652747D02*
X652693D01*
X652647Y-120926D01*
X652547Y-120935D01*
X652411Y-120972D01*
X652256Y-121026D01*
X652092Y-121099D01*
X651937Y-121209D01*
X651855Y-121281D01*
X651782Y-121354D01*
Y-121363D01*
X651764Y-121372D01*
X651745Y-121400D01*
X651718Y-121436D01*
X651691Y-121482D01*
X651663Y-121537D01*
X651627Y-121609D01*
X651591Y-121682D01*
X651554Y-121773D01*
X651518Y-121864D01*
X651490Y-121974D01*
X651463Y-122092D01*
X651436Y-122220D01*
X651417Y-122356D01*
X651408Y-122511D01*
X651399Y-122666D01*
Y-122675D01*
Y-122703D01*
Y-122748D01*
X651408Y-122812D01*
Y-122885D01*
X651417Y-122967D01*
X651445Y-123158D01*
X651490Y-123377D01*
X651563Y-123595D01*
X651654Y-123805D01*
X651718Y-123896D01*
X651782Y-123987D01*
X651791D01*
X651800Y-124005D01*
X651855Y-124051D01*
X651937Y-124124D01*
X652046Y-124197D01*
X652183Y-124279D01*
X652347Y-124352D01*
X652538Y-124397D01*
X652638Y-124406D01*
X652747Y-124415D01*
X652802D01*
X652848Y-124406D01*
X652948Y-124388D01*
X653085Y-124361D01*
X653230Y-124306D01*
X653394Y-124233D01*
X653549Y-124124D01*
X653631Y-124051D01*
X653704Y-123978D01*
X653713Y-123969D01*
X653722Y-123960D01*
X653741Y-123932D01*
X653768Y-123896D01*
X653795Y-123851D01*
X653832Y-123796D01*
X653868Y-123723D01*
X653904Y-123650D01*
X653941Y-123559D01*
X653968Y-123459D01*
X654005Y-123349D01*
X654032Y-123231D01*
X654059Y-123094D01*
X654078Y-122958D01*
X654096Y-122803D01*
Y-122639D01*
Y-122630D01*
Y-122602D01*
Y-122557D01*
X654087Y-122502D01*
Y-122429D01*
X654078Y-122347D01*
X654050Y-122156D01*
X654005Y-121956D01*
X653932Y-121737D01*
X653832Y-121537D01*
X653777Y-121436D01*
X653704Y-121354D01*
Y-121345D01*
X653686Y-121336D01*
X653631Y-121281D01*
X653549Y-121218D01*
X653440Y-121136D01*
X653303Y-121054D01*
X653139Y-120981D01*
X652957Y-120935D01*
X652857Y-120926D01*
X652747Y-120917D01*
D02*
G37*
G36*
X634619D02*
X634564D01*
X634518Y-120926D01*
X634418Y-120935D01*
X634282Y-120972D01*
X634127Y-121026D01*
X633963Y-121099D01*
X633808Y-121209D01*
X633726Y-121281D01*
X633653Y-121354D01*
Y-121363D01*
X633635Y-121372D01*
X633617Y-121400D01*
X633589Y-121436D01*
X633562Y-121482D01*
X633535Y-121537D01*
X633498Y-121609D01*
X633462Y-121682D01*
X633425Y-121773D01*
X633389Y-121864D01*
X633361Y-121974D01*
X633334Y-122092D01*
X633307Y-122220D01*
X633289Y-122356D01*
X633280Y-122511D01*
X633270Y-122666D01*
Y-122675D01*
Y-122703D01*
Y-122748D01*
X633280Y-122812D01*
Y-122885D01*
X633289Y-122967D01*
X633316Y-123158D01*
X633361Y-123377D01*
X633434Y-123595D01*
X633526Y-123805D01*
X633589Y-123896D01*
X633653Y-123987D01*
X633662D01*
X633671Y-124005D01*
X633726Y-124051D01*
X633808Y-124124D01*
X633917Y-124197D01*
X634054Y-124279D01*
X634218Y-124352D01*
X634409Y-124397D01*
X634509Y-124406D01*
X634619Y-124415D01*
X634673D01*
X634719Y-124406D01*
X634819Y-124388D01*
X634956Y-124361D01*
X635102Y-124306D01*
X635265Y-124233D01*
X635420Y-124124D01*
X635502Y-124051D01*
X635575Y-123978D01*
X635584Y-123969D01*
X635593Y-123960D01*
X635612Y-123932D01*
X635639Y-123896D01*
X635666Y-123851D01*
X635703Y-123796D01*
X635739Y-123723D01*
X635776Y-123650D01*
X635812Y-123559D01*
X635839Y-123459D01*
X635876Y-123349D01*
X635903Y-123231D01*
X635930Y-123094D01*
X635949Y-122958D01*
X635967Y-122803D01*
Y-122639D01*
Y-122630D01*
Y-122602D01*
Y-122557D01*
X635958Y-122502D01*
Y-122429D01*
X635949Y-122347D01*
X635921Y-122156D01*
X635876Y-121956D01*
X635803Y-121737D01*
X635703Y-121537D01*
X635648Y-121436D01*
X635575Y-121354D01*
Y-121345D01*
X635557Y-121336D01*
X635502Y-121281D01*
X635420Y-121218D01*
X635311Y-121136D01*
X635174Y-121054D01*
X635010Y-120981D01*
X634828Y-120935D01*
X634728Y-120926D01*
X634619Y-120917D01*
D02*
G37*
%LPD*%
D11*
X348727Y15143D02*
G03*
X362231Y28721I28J13476D01*
G01*
X313897Y453D02*
G03*
X327865Y8398I-430J17007D01*
G01*
X340101Y15143D02*
G03*
X327800Y8303I31J-14537D01*
G01*
X327073Y341609D02*
G03*
X340443Y332359I13542J5287D01*
G01*
X326634Y342790D02*
G03*
X315457Y350371I-11018J-4215D01*
G01*
X429Y19709D02*
G03*
X13080Y7370I12282J-63D01*
G01*
X29169Y3404D02*
G03*
X20591Y7370I-8805J-7785D01*
G01*
X29072Y3478D02*
G03*
X35354Y453I6097J4625D01*
G01*
X362262Y319425D02*
G03*
X349823Y332359I-12687J247D01*
G01*
X15524Y350371D02*
G03*
X429Y333981I435J-15546D01*
G01*
X340101Y15143D02*
X348756D01*
X340443Y332359D02*
X349823D01*
X326634Y342790D02*
X327141Y341464D01*
X429Y333981D02*
X429Y19709D01*
X13080Y7370D02*
X20591D01*
X35354Y453D02*
X313467D01*
X362262Y28721D02*
X362262Y319425D01*
X15524Y350371D02*
X315457D01*
D14*
X3642Y311221D02*
G03*
X4429Y310433I787J0D01*
G01*
X17421D02*
G03*
X18209Y311221I0J787D01*
G01*
Y317520D02*
G03*
X17421Y318307I-787J-0D01*
G01*
X4429D02*
G03*
X3642Y317520I-0J-787D01*
G01*
X3642Y311221D02*
Y317520D01*
X4429Y310433D02*
X17421D01*
X4429Y318307D02*
X17421D01*
X18209Y311221D02*
Y317520D01*
D52*
X10925Y314370D02*
D03*
D53*
X62165Y152008D02*
D03*
X208346D02*
D03*
D54*
X62165Y136260D02*
D03*
Y120512D02*
D03*
Y104764D02*
D03*
Y89016D02*
D03*
Y73268D02*
D03*
Y57520D02*
D03*
Y41772D02*
D03*
X144843Y152008D02*
D03*
Y136260D02*
D03*
Y120512D02*
D03*
Y104764D02*
D03*
Y89016D02*
D03*
Y73268D02*
D03*
Y57520D02*
D03*
Y41772D02*
D03*
X291023D02*
D03*
Y57520D02*
D03*
Y73268D02*
D03*
Y89016D02*
D03*
Y104764D02*
D03*
Y120512D02*
D03*
Y136260D02*
D03*
Y152008D02*
D03*
X208346Y41772D02*
D03*
Y57520D02*
D03*
Y73268D02*
D03*
Y89016D02*
D03*
Y104764D02*
D03*
Y120512D02*
D03*
Y136260D02*
D03*
D55*
X251717Y201603D02*
D03*
Y194280D02*
D03*
X104528Y200807D02*
D03*
Y193484D02*
D03*
D56*
X202539Y227165D02*
D03*
X209862D02*
D03*
D57*
X207414Y262209D02*
D03*
X212592Y267387D02*
D03*
D58*
X59025Y224439D02*
D03*
X64203Y219261D02*
D03*
D59*
X197567Y292815D02*
D03*
X189567D02*
D03*
X197567Y283760D02*
D03*
X189567D02*
D03*
X140130D02*
D03*
X148130D02*
D03*
X140130Y292815D02*
D03*
X148130D02*
D03*
D60*
X191091Y267472D02*
D03*
X185434Y273129D02*
D03*
X184646Y261122D02*
D03*
X178989Y266779D02*
D03*
D61*
X34291Y259833D02*
D03*
X39291D02*
D03*
X44291D02*
D03*
X49291D02*
D03*
X34291Y284262D02*
D03*
X39291D02*
D03*
X44291D02*
D03*
X49291D02*
D03*
X49291Y229909D02*
D03*
X44291D02*
D03*
X39291D02*
D03*
X34291D02*
D03*
X49291Y205480D02*
D03*
X44291D02*
D03*
X39291D02*
D03*
X34291D02*
D03*
D62*
X115354Y338386D02*
D03*
X160039D02*
D03*
X174409D02*
D03*
X219094D02*
D03*
D63*
X125394Y326969D02*
D03*
X135236D02*
D03*
X140157D02*
D03*
X145079D02*
D03*
X150000D02*
D03*
X130315D02*
D03*
X184449D02*
D03*
X194291D02*
D03*
X199213D02*
D03*
X204134D02*
D03*
X209055D02*
D03*
X189370D02*
D03*
D64*
X10433Y192913D02*
D03*
Y237598D02*
D03*
Y252372D02*
D03*
Y297057D02*
D03*
D65*
X21850Y202953D02*
D03*
Y212795D02*
D03*
Y217717D02*
D03*
Y222638D02*
D03*
Y227559D02*
D03*
Y207874D02*
D03*
Y262411D02*
D03*
Y272254D02*
D03*
Y277175D02*
D03*
Y282097D02*
D03*
Y287018D02*
D03*
Y267333D02*
D03*
D66*
X146409Y267669D02*
D03*
X152066Y273326D02*
D03*
X152610Y261173D02*
D03*
X158267Y266830D02*
D03*
D67*
X326279Y23524D02*
D03*
X325787Y328937D02*
D03*
X57087Y191339D02*
D03*
D68*
X51378Y318996D02*
D03*
Y310996D02*
D03*
X248130Y310898D02*
D03*
Y318898D02*
D03*
D69*
X81441Y287008D02*
D03*
X73567Y280118D02*
D03*
X81441D02*
D03*
X73567Y286811D02*
D03*
X227319Y287008D02*
D03*
X219444Y280118D02*
D03*
X227319D02*
D03*
X219444Y286811D02*
D03*
D70*
X73637Y218040D02*
D03*
X79205Y212472D02*
D03*
X213511Y218138D02*
D03*
X219079Y212570D02*
D03*
D71*
X213425Y250895D02*
D03*
X214817Y252287D02*
D03*
X216209Y253679D02*
D03*
X217601Y255071D02*
D03*
X218993Y256463D02*
D03*
X220385Y257855D02*
D03*
X221777Y259247D02*
D03*
X223168Y260639D02*
D03*
X224560Y262031D02*
D03*
X225952Y263423D02*
D03*
X227344Y264815D02*
D03*
X228736Y266207D02*
D03*
X230128Y267599D02*
D03*
X231520Y268990D02*
D03*
X232912Y270382D02*
D03*
X234304Y271774D02*
D03*
X235696Y273166D02*
D03*
X237088Y274558D02*
D03*
X238480Y275950D02*
D03*
X239872Y277342D02*
D03*
X241264Y278734D02*
D03*
X242656Y280126D02*
D03*
X244048Y281518D02*
D03*
X245440Y282910D02*
D03*
X246831Y284302D02*
D03*
X289007Y242126D02*
D03*
X287615Y240734D02*
D03*
X286224Y239342D02*
D03*
X284832Y237950D02*
D03*
X283440Y236558D02*
D03*
X282048Y235166D02*
D03*
X280656Y233774D02*
D03*
X279264Y232382D02*
D03*
X277872Y230990D02*
D03*
X276480Y229598D02*
D03*
X275088Y228207D02*
D03*
X273696Y226815D02*
D03*
X272304Y225423D02*
D03*
X270912Y224031D02*
D03*
X269520Y222639D02*
D03*
X268128Y221247D02*
D03*
X266736Y219855D02*
D03*
X265344Y218463D02*
D03*
X263952Y217071D02*
D03*
X262561Y215679D02*
D03*
X261169Y214287D02*
D03*
X259777Y212895D02*
D03*
X258385Y211503D02*
D03*
X256993Y210111D02*
D03*
X255601Y208719D02*
D03*
X67366Y250895D02*
D03*
X68758Y252287D02*
D03*
X70150Y253679D02*
D03*
X71542Y255071D02*
D03*
X72934Y256463D02*
D03*
X74326Y257855D02*
D03*
X75718Y259247D02*
D03*
X77109Y260639D02*
D03*
X78501Y262031D02*
D03*
X79893Y263423D02*
D03*
X81285Y264815D02*
D03*
X82677Y266207D02*
D03*
X84069Y267599D02*
D03*
X85461Y268990D02*
D03*
X86853Y270382D02*
D03*
X88245Y271774D02*
D03*
X89637Y273166D02*
D03*
X91029Y274558D02*
D03*
X92421Y275950D02*
D03*
X93813Y277342D02*
D03*
X95205Y278734D02*
D03*
X96597Y280126D02*
D03*
X97989Y281518D02*
D03*
X99380Y282910D02*
D03*
X100773Y284302D02*
D03*
X142948Y242126D02*
D03*
X141556Y240734D02*
D03*
X140164Y239342D02*
D03*
X138772Y237950D02*
D03*
X137381Y236558D02*
D03*
X135989Y235166D02*
D03*
X134597Y233774D02*
D03*
X133205Y232382D02*
D03*
X131813Y230990D02*
D03*
X130421Y229598D02*
D03*
X129029Y228207D02*
D03*
X127637Y226815D02*
D03*
X126245Y225423D02*
D03*
X124853Y224031D02*
D03*
X123461Y222639D02*
D03*
X122069Y221247D02*
D03*
X120677Y219855D02*
D03*
X119285Y218463D02*
D03*
X117893Y217071D02*
D03*
X116501Y215679D02*
D03*
X115110Y214287D02*
D03*
X113717Y212895D02*
D03*
X112326Y211503D02*
D03*
X110934Y210111D02*
D03*
X109542Y208719D02*
D03*
D72*
X255601Y284302D02*
D03*
X256993Y282910D02*
D03*
X258385Y281518D02*
D03*
X259777Y280126D02*
D03*
X261169Y278734D02*
D03*
X262561Y277342D02*
D03*
X263952Y275950D02*
D03*
X265344Y274558D02*
D03*
X266736Y273166D02*
D03*
X268128Y271774D02*
D03*
X269520Y270382D02*
D03*
X270912Y268990D02*
D03*
X272304Y267599D02*
D03*
X273696Y266207D02*
D03*
X275088Y264815D02*
D03*
X276480Y263423D02*
D03*
X277872Y262031D02*
D03*
X279264Y260639D02*
D03*
X280656Y259247D02*
D03*
X282048Y257855D02*
D03*
X283440Y256463D02*
D03*
X284832Y255071D02*
D03*
X286224Y253679D02*
D03*
X287615Y252287D02*
D03*
X289007Y250895D02*
D03*
X246831Y208719D02*
D03*
X245440Y210111D02*
D03*
X244048Y211503D02*
D03*
X242656Y212895D02*
D03*
X241264Y214287D02*
D03*
X239872Y215679D02*
D03*
X238480Y217071D02*
D03*
X237088Y218463D02*
D03*
X235696Y219855D02*
D03*
X234304Y221247D02*
D03*
X232912Y222639D02*
D03*
X231520Y224031D02*
D03*
X230128Y225423D02*
D03*
X228736Y226815D02*
D03*
X227344Y228207D02*
D03*
X225952Y229598D02*
D03*
X224560Y230990D02*
D03*
X223168Y232382D02*
D03*
X221777Y233774D02*
D03*
X220385Y235166D02*
D03*
X218993Y236558D02*
D03*
X217601Y237950D02*
D03*
X216209Y239342D02*
D03*
X214817Y240734D02*
D03*
X213425Y242126D02*
D03*
X109542Y284302D02*
D03*
X110934Y282910D02*
D03*
X112326Y281518D02*
D03*
X113717Y280126D02*
D03*
X115110Y278734D02*
D03*
X116501Y277342D02*
D03*
X117893Y275950D02*
D03*
X119285Y274558D02*
D03*
X120677Y273166D02*
D03*
X122069Y271774D02*
D03*
X123461Y270382D02*
D03*
X124853Y268990D02*
D03*
X126245Y267599D02*
D03*
X127637Y266207D02*
D03*
X129029Y264815D02*
D03*
X130421Y263423D02*
D03*
X131813Y262031D02*
D03*
X133205Y260639D02*
D03*
X134597Y259247D02*
D03*
X135989Y257855D02*
D03*
X137381Y256463D02*
D03*
X138772Y255071D02*
D03*
X140164Y253679D02*
D03*
X141556Y252287D02*
D03*
X142948Y250895D02*
D03*
X100773Y208719D02*
D03*
X99380Y210111D02*
D03*
X97989Y211503D02*
D03*
X96597Y212895D02*
D03*
X95205Y214287D02*
D03*
X93813Y215679D02*
D03*
X92421Y217071D02*
D03*
X91029Y218463D02*
D03*
X89637Y219855D02*
D03*
X88245Y221247D02*
D03*
X86853Y222639D02*
D03*
X85461Y224031D02*
D03*
X84069Y225423D02*
D03*
X82677Y226815D02*
D03*
X81285Y228207D02*
D03*
X79893Y229598D02*
D03*
X78501Y230990D02*
D03*
X77109Y232382D02*
D03*
X75718Y233774D02*
D03*
X74326Y235166D02*
D03*
X72934Y236558D02*
D03*
X71542Y237950D02*
D03*
X70150Y239342D02*
D03*
X68758Y240734D02*
D03*
X67366Y242126D02*
D03*
D73*
X316339Y14764D02*
D03*
X309055D02*
D03*
D74*
X121768Y195161D02*
D03*
X116618Y200311D02*
D03*
X69415Y224144D02*
D03*
X64265Y229294D02*
D03*
D75*
X66283Y279823D02*
D03*
Y287106D02*
D03*
X97736Y200984D02*
D03*
Y193701D02*
D03*
X212161Y279823D02*
D03*
Y287106D02*
D03*
D76*
X34941Y295571D02*
D03*
X42224D02*
D03*
X227220Y293898D02*
D03*
X219937D02*
D03*
X244783Y201682D02*
D03*
X237500D02*
D03*
X209845Y233481D02*
D03*
X202561D02*
D03*
X34941Y241043D02*
D03*
X42224D02*
D03*
X81047Y294094D02*
D03*
X73764D02*
D03*
D77*
X203877Y208055D02*
D03*
X209028Y213205D02*
D03*
X209236Y202937D02*
D03*
X214386Y208087D02*
D03*
X207657Y272395D02*
D03*
X202507Y267245D02*
D03*
X69039Y202445D02*
D03*
X74189Y207595D02*
D03*
X63625Y207661D02*
D03*
X68775Y212811D02*
D03*
D78*
X61496Y261339D02*
D03*
X57599Y265236D02*
D03*
D79*
X205217Y246161D02*
D03*
X199705D02*
D03*
D80*
X321787Y318110D02*
D03*
X329787D02*
D03*
X309020Y223819D02*
D03*
X301020D02*
D03*
X309020Y213976D02*
D03*
X301020D02*
D03*
X297673Y254724D02*
D03*
X305673D02*
D03*
X297673Y245374D02*
D03*
X305673D02*
D03*
X297673Y236024D02*
D03*
X305673D02*
D03*
X144327Y305398D02*
D03*
X152327D02*
D03*
X43272Y319980D02*
D03*
X35272D02*
D03*
X255941D02*
D03*
X263941D02*
D03*
X186957Y204035D02*
D03*
X194957D02*
D03*
X165909Y214059D02*
D03*
X157909D02*
D03*
D81*
X125928Y299746D02*
D03*
X120271Y305403D02*
D03*
X119235Y293250D02*
D03*
X113578Y298907D02*
D03*
D82*
X235539Y318744D02*
D03*
Y310744D02*
D03*
X173622Y304760D02*
D03*
Y312760D02*
D03*
X184252Y312957D02*
D03*
Y304957D02*
D03*
X281791Y293835D02*
D03*
Y301835D02*
D03*
X272933Y293736D02*
D03*
Y301736D02*
D03*
X186319Y221421D02*
D03*
Y213421D02*
D03*
X175394Y221421D02*
D03*
Y213421D02*
D03*
D83*
X271850Y288583D02*
D03*
X280512D02*
D03*
X225000Y273031D02*
D03*
X124114Y288583D02*
D03*
X128347Y280512D02*
D03*
X71949Y274016D02*
D03*
X101969Y296358D02*
D03*
X215551Y302658D02*
D03*
X149114Y163681D02*
D03*
X294783D02*
D03*
X165551Y56890D02*
D03*
X56299Y24902D02*
D03*
X48917Y73032D02*
D03*
Y57579D02*
D03*
X264824Y18110D02*
D03*
X191240Y73327D02*
D03*
Y56398D02*
D03*
Y41772D02*
D03*
X166312Y34213D02*
D03*
D84*
X170551Y162047D02*
D03*
Y142047D02*
D03*
X190551D02*
D03*
Y162047D02*
D03*
X43583D02*
D03*
Y142047D02*
D03*
X23583D02*
D03*
Y162047D02*
D03*
D85*
X180551Y152047D02*
D03*
X33583D02*
D03*
D86*
X36831Y341595D02*
D03*
X46831D02*
D03*
X56831D02*
D03*
X66831D02*
D03*
X76831D02*
D03*
X86831D02*
D03*
X96831D02*
D03*
Y331594D02*
D03*
X86831D02*
D03*
X76831D02*
D03*
X66831D02*
D03*
X56831D02*
D03*
X46831D02*
D03*
X86831Y318110D02*
D03*
X76831D02*
D03*
X235492Y341595D02*
D03*
X245492D02*
D03*
X255492D02*
D03*
X265492D02*
D03*
X275492D02*
D03*
X285492D02*
D03*
X295492D02*
D03*
Y331594D02*
D03*
X285492D02*
D03*
X275492D02*
D03*
X265492D02*
D03*
X255492D02*
D03*
X245492D02*
D03*
X312697Y341595D02*
D03*
X285551Y318110D02*
D03*
X275551D02*
D03*
X330079Y59291D02*
D03*
X320079D02*
D03*
X330079Y69291D02*
D03*
X320079D02*
D03*
X330079Y79291D02*
D03*
X320079D02*
D03*
X330079Y89291D02*
D03*
X320079D02*
D03*
X330079Y99291D02*
D03*
X320079D02*
D03*
X330079Y109291D02*
D03*
X320079D02*
D03*
X330079Y119291D02*
D03*
X320079D02*
D03*
X330079Y129291D02*
D03*
X320079D02*
D03*
X330079Y139291D02*
D03*
X320079D02*
D03*
X330079Y149291D02*
D03*
X320079D02*
D03*
X330079Y159291D02*
D03*
X320079D02*
D03*
X330079Y169291D02*
D03*
X320079D02*
D03*
X330079Y179291D02*
D03*
X320079D02*
D03*
X330079Y189291D02*
D03*
X320079D02*
D03*
X330079Y199291D02*
D03*
X320079D02*
D03*
X330079Y209291D02*
D03*
X320079D02*
D03*
X330079Y219291D02*
D03*
X320079Y219193D02*
D03*
X330079Y229291D02*
D03*
X320079D02*
D03*
X330079Y239291D02*
D03*
X320079D02*
D03*
X330079Y249291D02*
D03*
X320079D02*
D03*
X330079Y259291D02*
D03*
X320079D02*
D03*
X330079Y269291D02*
D03*
X320079D02*
D03*
X330079Y279291D02*
D03*
X320079D02*
D03*
X330079Y289291D02*
D03*
X320079D02*
D03*
X330079Y299291D02*
D03*
X320079Y49291D02*
D03*
X330079D02*
D03*
X350079D02*
D03*
X340079D02*
D03*
X350079Y299291D02*
D03*
X340079Y289291D02*
D03*
X350079D02*
D03*
X340079Y279291D02*
D03*
X350079D02*
D03*
X340079Y269291D02*
D03*
X350079D02*
D03*
X340059Y259291D02*
D03*
X350079D02*
D03*
X340059Y249291D02*
D03*
X350079D02*
D03*
X340079Y239291D02*
D03*
X350079D02*
D03*
X340079Y229291D02*
D03*
X350079D02*
D03*
X340079Y219193D02*
D03*
X350079Y219291D02*
D03*
X340079Y209291D02*
D03*
X350079D02*
D03*
X340079Y199291D02*
D03*
X350079D02*
D03*
X340079Y189291D02*
D03*
X350079D02*
D03*
X340079Y179291D02*
D03*
X350079D02*
D03*
X340079Y169291D02*
D03*
X350079D02*
D03*
X340079Y159291D02*
D03*
X350079D02*
D03*
X340079Y149291D02*
D03*
X350079D02*
D03*
X340079Y139291D02*
D03*
X350079D02*
D03*
X340079Y129291D02*
D03*
X350079D02*
D03*
X340079Y119291D02*
D03*
X350079D02*
D03*
X340079Y109291D02*
D03*
X350079D02*
D03*
X340079Y99291D02*
D03*
X350079D02*
D03*
X340079Y89291D02*
D03*
X350079D02*
D03*
X340079Y79291D02*
D03*
X350079D02*
D03*
X340079Y69291D02*
D03*
X350079D02*
D03*
X340079Y59291D02*
D03*
X350079D02*
D03*
D87*
X36831Y331594D02*
D03*
X96831Y318110D02*
D03*
X235492Y331594D02*
D03*
X295551Y318110D02*
D03*
D88*
X312697Y331594D02*
D03*
X320079Y299291D02*
D03*
X340059D02*
D03*
D89*
X12831Y19500D02*
D03*
X350134Y29342D02*
D03*
X12831Y334559D02*
D03*
X350098Y319416D02*
D03*
D90*
X316240Y32185D02*
D03*
X66240Y299114D02*
D03*
X75689Y198130D02*
D03*
X31352Y11673D02*
D03*
X302362Y11319D02*
D03*
M02*
