G04*
G04 #@! TF.GenerationSoftware,Altium Limited,Altium Designer,18.1.7 (191)*
G04*
G04 Layer_Color=128*
%FSLAX25Y25*%
%MOIN*%
G70*
G01*
G75*
%ADD11C,0.01000*%
%ADD24R,0.04724X0.04724*%
%ADD26P,0.06681X4X270.0*%
%ADD27P,0.06681X4X180.0*%
%ADD36C,0.05118*%
G04:AMPARAMS|DCode=43|XSize=41.34mil|YSize=47.24mil|CornerRadius=0mil|HoleSize=0mil|Usage=FLASHONLY|Rotation=135.000|XOffset=0mil|YOffset=0mil|HoleType=Round|Shape=Rectangle|*
%AMROTATEDRECTD43*
4,1,4,0.03132,0.00209,-0.00209,-0.03132,-0.03132,-0.00209,0.00209,0.03132,0.03132,0.00209,0.0*
%
%ADD43ROTATEDRECTD43*%

%ADD44R,0.04724X0.04134*%
%ADD45R,0.04134X0.04724*%
G04:AMPARAMS|DCode=46|XSize=41.34mil|YSize=47.24mil|CornerRadius=0mil|HoleSize=0mil|Usage=FLASHONLY|Rotation=45.000|XOffset=0mil|YOffset=0mil|HoleType=Round|Shape=Rectangle|*
%AMROTATEDRECTD46*
4,1,4,0.00209,-0.03132,-0.03132,0.00209,-0.00209,0.03132,0.03132,-0.00209,0.00209,-0.03132,0.0*
%
%ADD46ROTATEDRECTD46*%

%ADD49R,0.04724X0.06000*%
G04:AMPARAMS|DCode=50|XSize=47.24mil|YSize=60mil|CornerRadius=0mil|HoleSize=0mil|Usage=FLASHONLY|Rotation=135.000|XOffset=0mil|YOffset=0mil|HoleType=Round|Shape=Rectangle|*
%AMROTATEDRECTD50*
4,1,4,0.03792,0.00451,-0.00451,-0.03792,-0.03792,-0.00451,0.00451,0.03792,0.03792,0.00451,0.0*
%
%ADD50ROTATEDRECTD50*%

%ADD51R,0.06000X0.04724*%
G04:AMPARAMS|DCode=106|XSize=47.24mil|YSize=60mil|CornerRadius=0mil|HoleSize=0mil|Usage=FLASHONLY|Rotation=225.000|XOffset=0mil|YOffset=0mil|HoleType=Round|Shape=Rectangle|*
%AMROTATEDRECTD106*
4,1,4,-0.00451,0.03792,0.03792,-0.00451,0.00451,-0.03792,-0.03792,0.00451,-0.00451,0.03792,0.0*
%
%ADD106ROTATEDRECTD106*%

G04:AMPARAMS|DCode=107|XSize=23.62mil|YSize=39.37mil|CornerRadius=2.01mil|HoleSize=0mil|Usage=FLASHONLY|Rotation=0.000|XOffset=0mil|YOffset=0mil|HoleType=Round|Shape=RoundedRectangle|*
%AMROUNDEDRECTD107*
21,1,0.02362,0.03535,0,0,0.0*
21,1,0.01961,0.03937,0,0,0.0*
1,1,0.00402,0.00980,-0.01768*
1,1,0.00402,-0.00980,-0.01768*
1,1,0.00402,-0.00980,0.01768*
1,1,0.00402,0.00980,0.01768*
%
%ADD107ROUNDEDRECTD107*%
%ADD108R,0.01100X0.05228*%
%ADD109R,0.05228X0.01100*%
G36*
X652420Y-120288D02*
X652483D01*
X652547Y-120298D01*
X652702Y-120325D01*
X652866Y-120370D01*
X653039Y-120443D01*
X653212Y-120534D01*
X653358Y-120662D01*
X653376Y-120680D01*
X653413Y-120735D01*
X653476Y-120817D01*
X653504Y-120881D01*
X653540Y-120944D01*
X653577Y-121026D01*
X653604Y-121108D01*
X653640Y-121200D01*
X653668Y-121309D01*
X653686Y-121418D01*
X653704Y-121546D01*
X653722Y-121673D01*
Y-121819D01*
Y-124953D01*
X652948D01*
Y-122083D01*
Y-122074D01*
Y-122065D01*
Y-122010D01*
Y-121928D01*
X652939Y-121828D01*
X652930Y-121719D01*
X652921Y-121609D01*
X652902Y-121500D01*
X652875Y-121418D01*
Y-121409D01*
X652857Y-121382D01*
X652839Y-121345D01*
X652811Y-121300D01*
X652775Y-121245D01*
X652729Y-121190D01*
X652675Y-121136D01*
X652602Y-121081D01*
X652593Y-121072D01*
X652565Y-121063D01*
X652529Y-121045D01*
X652465Y-121017D01*
X652401Y-120990D01*
X652319Y-120972D01*
X652237Y-120963D01*
X652137Y-120954D01*
X652092D01*
X652055Y-120963D01*
X651964Y-120972D01*
X651855Y-120990D01*
X651727Y-121036D01*
X651591Y-121090D01*
X651454Y-121172D01*
X651326Y-121281D01*
X651317Y-121300D01*
X651281Y-121345D01*
X651226Y-121418D01*
X651171Y-121527D01*
X651108Y-121673D01*
X651062Y-121846D01*
X651026Y-122056D01*
X651008Y-122302D01*
Y-124953D01*
X650233D01*
Y-121992D01*
Y-121983D01*
Y-121965D01*
Y-121947D01*
Y-121910D01*
X650224Y-121810D01*
X650206Y-121701D01*
X650188Y-121573D01*
X650151Y-121445D01*
X650106Y-121327D01*
X650042Y-121218D01*
X650033Y-121209D01*
X650005Y-121172D01*
X649960Y-121136D01*
X649896Y-121081D01*
X649814Y-121036D01*
X649705Y-120990D01*
X649577Y-120963D01*
X649422Y-120954D01*
X649368D01*
X649304Y-120963D01*
X649231Y-120972D01*
X649140Y-120999D01*
X649031Y-121026D01*
X648931Y-121072D01*
X648821Y-121127D01*
X648812Y-121136D01*
X648776Y-121163D01*
X648730Y-121200D01*
X648666Y-121254D01*
X648602Y-121327D01*
X648539Y-121418D01*
X648475Y-121518D01*
X648420Y-121637D01*
X648411Y-121655D01*
X648402Y-121701D01*
X648384Y-121773D01*
X648356Y-121874D01*
X648329Y-122010D01*
X648311Y-122174D01*
X648302Y-122365D01*
X648293Y-122584D01*
Y-124953D01*
X647518D01*
Y-120379D01*
X648211D01*
Y-121036D01*
X648220Y-121017D01*
X648247Y-120981D01*
X648302Y-120917D01*
X648366Y-120844D01*
X648448Y-120753D01*
X648548Y-120662D01*
X648657Y-120571D01*
X648785Y-120489D01*
X648803Y-120480D01*
X648848Y-120452D01*
X648921Y-120425D01*
X649022Y-120379D01*
X649140Y-120343D01*
X649277Y-120316D01*
X649432Y-120288D01*
X649595Y-120279D01*
X649678D01*
X649778Y-120288D01*
X649887Y-120307D01*
X650024Y-120334D01*
X650160Y-120370D01*
X650297Y-120425D01*
X650424Y-120498D01*
X650443Y-120507D01*
X650479Y-120534D01*
X650534Y-120580D01*
X650607Y-120653D01*
X650680Y-120735D01*
X650762Y-120835D01*
X650835Y-120954D01*
X650889Y-121090D01*
X650898Y-121081D01*
X650916Y-121054D01*
X650944Y-121017D01*
X650989Y-120963D01*
X651044Y-120899D01*
X651108Y-120835D01*
X651181Y-120762D01*
X651272Y-120680D01*
X651372Y-120607D01*
X651472Y-120534D01*
X651591Y-120471D01*
X651718Y-120407D01*
X651855Y-120352D01*
X652001Y-120316D01*
X652146Y-120288D01*
X652310Y-120279D01*
X652374D01*
X652420Y-120288D01*
D02*
G37*
G36*
X669783D02*
X669920Y-120298D01*
X670066Y-120316D01*
X670221Y-120352D01*
X670385Y-120389D01*
X670539Y-120443D01*
X670548D01*
X670558Y-120452D01*
X670603Y-120471D01*
X670676Y-120507D01*
X670767Y-120553D01*
X670867Y-120616D01*
X670968Y-120689D01*
X671059Y-120771D01*
X671141Y-120862D01*
X671150Y-120871D01*
X671168Y-120908D01*
X671204Y-120972D01*
X671250Y-121045D01*
X671295Y-121154D01*
X671341Y-121272D01*
X671378Y-121409D01*
X671414Y-121564D01*
X670658Y-121664D01*
Y-121646D01*
X670649Y-121609D01*
X670631Y-121546D01*
X670603Y-121464D01*
X670558Y-121382D01*
X670503Y-121291D01*
X670439Y-121200D01*
X670348Y-121117D01*
X670339Y-121108D01*
X670302Y-121090D01*
X670248Y-121054D01*
X670166Y-121017D01*
X670075Y-120981D01*
X669956Y-120944D01*
X669811Y-120926D01*
X669656Y-120917D01*
X669565D01*
X669474Y-120926D01*
X669355Y-120935D01*
X669237Y-120963D01*
X669109Y-120990D01*
X668991Y-121036D01*
X668890Y-121099D01*
X668881Y-121108D01*
X668854Y-121127D01*
X668818Y-121163D01*
X668781Y-121218D01*
X668736Y-121272D01*
X668699Y-121345D01*
X668672Y-121427D01*
X668663Y-121509D01*
Y-121518D01*
Y-121537D01*
X668672Y-121564D01*
Y-121600D01*
X668699Y-121691D01*
X668754Y-121783D01*
X668763Y-121792D01*
X668772Y-121801D01*
X668790Y-121828D01*
X668827Y-121855D01*
X668863Y-121883D01*
X668918Y-121919D01*
X668982Y-121947D01*
X669054Y-121983D01*
X669064D01*
X669082Y-121992D01*
X669118Y-122001D01*
X669182Y-122029D01*
X669273Y-122056D01*
X669391Y-122083D01*
X669464Y-122110D01*
X669546Y-122129D01*
X669637Y-122156D01*
X669738Y-122183D01*
X669747D01*
X669774Y-122192D01*
X669820Y-122202D01*
X669874Y-122220D01*
X669938Y-122238D01*
X670020Y-122256D01*
X670193Y-122311D01*
X670385Y-122365D01*
X670576Y-122429D01*
X670749Y-122493D01*
X670822Y-122520D01*
X670886Y-122548D01*
X670904Y-122557D01*
X670940Y-122575D01*
X670995Y-122602D01*
X671077Y-122648D01*
X671159Y-122703D01*
X671241Y-122775D01*
X671323Y-122857D01*
X671396Y-122949D01*
X671405Y-122958D01*
X671423Y-122994D01*
X671459Y-123049D01*
X671496Y-123131D01*
X671523Y-123231D01*
X671560Y-123340D01*
X671578Y-123468D01*
X671587Y-123614D01*
Y-123632D01*
Y-123677D01*
X671578Y-123750D01*
X671560Y-123851D01*
X671532Y-123960D01*
X671487Y-124078D01*
X671432Y-124215D01*
X671359Y-124342D01*
X671350Y-124361D01*
X671314Y-124397D01*
X671268Y-124461D01*
X671195Y-124534D01*
X671095Y-124616D01*
X670986Y-124707D01*
X670858Y-124789D01*
X670703Y-124871D01*
X670694D01*
X670685Y-124880D01*
X670631Y-124898D01*
X670539Y-124925D01*
X670421Y-124962D01*
X670275Y-124998D01*
X670111Y-125026D01*
X669938Y-125044D01*
X669738Y-125053D01*
X669656D01*
X669592Y-125044D01*
X669519D01*
X669428Y-125035D01*
X669337Y-125026D01*
X669237Y-125007D01*
X669018Y-124962D01*
X668790Y-124898D01*
X668572Y-124807D01*
X668471Y-124752D01*
X668380Y-124689D01*
X668371Y-124680D01*
X668362Y-124670D01*
X668307Y-124616D01*
X668225Y-124534D01*
X668134Y-124406D01*
X668034Y-124251D01*
X667934Y-124069D01*
X667852Y-123841D01*
X667788Y-123586D01*
X668553Y-123468D01*
Y-123477D01*
Y-123486D01*
X668572Y-123541D01*
X668590Y-123632D01*
X668626Y-123732D01*
X668672Y-123841D01*
X668726Y-123960D01*
X668809Y-124078D01*
X668909Y-124178D01*
X668927Y-124188D01*
X668963Y-124215D01*
X669036Y-124251D01*
X669127Y-124297D01*
X669246Y-124342D01*
X669382Y-124379D01*
X669546Y-124406D01*
X669738Y-124415D01*
X669829D01*
X669920Y-124406D01*
X670038Y-124388D01*
X670166Y-124361D01*
X670302Y-124324D01*
X670421Y-124279D01*
X670530Y-124206D01*
X670539Y-124197D01*
X670576Y-124169D01*
X670612Y-124124D01*
X670667Y-124060D01*
X670713Y-123987D01*
X670758Y-123896D01*
X670785Y-123805D01*
X670794Y-123696D01*
Y-123687D01*
Y-123650D01*
X670785Y-123605D01*
X670767Y-123541D01*
X670740Y-123477D01*
X670694Y-123413D01*
X670640Y-123340D01*
X670558Y-123286D01*
X670548Y-123276D01*
X670521Y-123267D01*
X670476Y-123240D01*
X670403Y-123213D01*
X670293Y-123176D01*
X670230Y-123149D01*
X670157Y-123131D01*
X670075Y-123103D01*
X669984Y-123076D01*
X669883Y-123049D01*
X669765Y-123021D01*
X669756D01*
X669729Y-123012D01*
X669683Y-123003D01*
X669628Y-122985D01*
X669556Y-122967D01*
X669474Y-122940D01*
X669300Y-122894D01*
X669100Y-122830D01*
X668909Y-122775D01*
X668726Y-122712D01*
X668645Y-122675D01*
X668581Y-122648D01*
X668563Y-122639D01*
X668526Y-122621D01*
X668471Y-122584D01*
X668399Y-122539D01*
X668317Y-122475D01*
X668235Y-122402D01*
X668153Y-122320D01*
X668080Y-122220D01*
X668071Y-122211D01*
X668052Y-122174D01*
X668025Y-122110D01*
X667998Y-122038D01*
X667970Y-121947D01*
X667943Y-121837D01*
X667925Y-121728D01*
X667916Y-121600D01*
Y-121582D01*
Y-121546D01*
X667925Y-121491D01*
X667934Y-121409D01*
X667952Y-121327D01*
X667970Y-121227D01*
X668007Y-121136D01*
X668052Y-121036D01*
X668061Y-121026D01*
X668080Y-120990D01*
X668107Y-120944D01*
X668153Y-120881D01*
X668207Y-120817D01*
X668271Y-120735D01*
X668344Y-120662D01*
X668435Y-120598D01*
X668444Y-120589D01*
X668471Y-120580D01*
X668508Y-120553D01*
X668563Y-120525D01*
X668635Y-120489D01*
X668717Y-120452D01*
X668818Y-120416D01*
X668927Y-120379D01*
X668945Y-120370D01*
X668982Y-120361D01*
X669045Y-120343D01*
X669127Y-120325D01*
X669228Y-120307D01*
X669337Y-120298D01*
X669464Y-120279D01*
X669683D01*
X669783Y-120288D01*
D02*
G37*
G36*
X665329D02*
X665465Y-120298D01*
X665620Y-120316D01*
X665775Y-120343D01*
X665930Y-120379D01*
X666076Y-120425D01*
X666094Y-120434D01*
X666139Y-120452D01*
X666203Y-120480D01*
X666285Y-120516D01*
X666376Y-120571D01*
X666467Y-120625D01*
X666549Y-120698D01*
X666622Y-120771D01*
X666631Y-120780D01*
X666649Y-120808D01*
X666677Y-120853D01*
X666713Y-120908D01*
X666759Y-120990D01*
X666795Y-121072D01*
X666832Y-121172D01*
X666859Y-121291D01*
Y-121300D01*
X666868Y-121327D01*
X666877Y-121382D01*
X666886Y-121455D01*
Y-121555D01*
X666895Y-121673D01*
X666904Y-121828D01*
Y-122001D01*
Y-123040D01*
Y-123049D01*
Y-123085D01*
Y-123140D01*
Y-123213D01*
Y-123295D01*
Y-123395D01*
X666914Y-123614D01*
Y-123841D01*
X666923Y-124069D01*
X666932Y-124169D01*
Y-124260D01*
X666941Y-124342D01*
X666950Y-124406D01*
Y-124415D01*
X666959Y-124452D01*
X666968Y-124506D01*
X666996Y-124579D01*
X667014Y-124661D01*
X667050Y-124752D01*
X667096Y-124853D01*
X667141Y-124953D01*
X666331D01*
X666322Y-124944D01*
X666312Y-124907D01*
X666294Y-124862D01*
X666267Y-124789D01*
X666240Y-124707D01*
X666221Y-124607D01*
X666203Y-124497D01*
X666185Y-124379D01*
X666176D01*
X666167Y-124397D01*
X666112Y-124443D01*
X666030Y-124506D01*
X665921Y-124588D01*
X665784Y-124670D01*
X665647Y-124761D01*
X665502Y-124844D01*
X665347Y-124907D01*
X665329Y-124916D01*
X665274Y-124925D01*
X665192Y-124953D01*
X665092Y-124980D01*
X664964Y-125007D01*
X664818Y-125026D01*
X664654Y-125044D01*
X664490Y-125053D01*
X664418D01*
X664363Y-125044D01*
X664299D01*
X664226Y-125035D01*
X664062Y-125007D01*
X663880Y-124962D01*
X663680Y-124898D01*
X663497Y-124807D01*
X663333Y-124689D01*
X663315Y-124670D01*
X663270Y-124625D01*
X663206Y-124543D01*
X663133Y-124434D01*
X663060Y-124297D01*
X662996Y-124142D01*
X662951Y-123951D01*
X662942Y-123860D01*
X662932Y-123750D01*
Y-123732D01*
Y-123696D01*
X662942Y-123632D01*
X662951Y-123550D01*
X662969Y-123450D01*
X662996Y-123349D01*
X663033Y-123240D01*
X663078Y-123140D01*
X663087Y-123131D01*
X663106Y-123094D01*
X663142Y-123040D01*
X663188Y-122976D01*
X663242Y-122903D01*
X663315Y-122830D01*
X663388Y-122757D01*
X663479Y-122694D01*
X663488Y-122684D01*
X663525Y-122666D01*
X663570Y-122630D01*
X663643Y-122593D01*
X663725Y-122557D01*
X663825Y-122511D01*
X663926Y-122475D01*
X664044Y-122438D01*
X664053D01*
X664089Y-122429D01*
X664144Y-122411D01*
X664217Y-122402D01*
X664308Y-122384D01*
X664427Y-122365D01*
X664563Y-122338D01*
X664727Y-122320D01*
X664736D01*
X664773Y-122311D01*
X664818D01*
X664882Y-122302D01*
X664955Y-122293D01*
X665046Y-122274D01*
X665146Y-122265D01*
X665256Y-122247D01*
X665474Y-122202D01*
X665711Y-122156D01*
X665921Y-122101D01*
X666021Y-122074D01*
X666112Y-122047D01*
Y-122038D01*
Y-122019D01*
X666121Y-121965D01*
Y-121901D01*
Y-121864D01*
Y-121846D01*
Y-121837D01*
Y-121828D01*
Y-121773D01*
X666112Y-121682D01*
X666094Y-121582D01*
X666066Y-121473D01*
X666021Y-121363D01*
X665966Y-121263D01*
X665893Y-121181D01*
X665884Y-121172D01*
X665839Y-121136D01*
X665766Y-121099D01*
X665675Y-121045D01*
X665547Y-120999D01*
X665401Y-120954D01*
X665219Y-120926D01*
X665010Y-120917D01*
X664919D01*
X664827Y-120926D01*
X664700Y-120944D01*
X664572Y-120963D01*
X664436Y-120999D01*
X664308Y-121045D01*
X664199Y-121108D01*
X664190Y-121117D01*
X664153Y-121145D01*
X664108Y-121190D01*
X664053Y-121263D01*
X663998Y-121354D01*
X663935Y-121473D01*
X663880Y-121618D01*
X663825Y-121783D01*
X663069Y-121682D01*
Y-121673D01*
X663078Y-121664D01*
Y-121637D01*
X663087Y-121600D01*
X663115Y-121518D01*
X663151Y-121400D01*
X663197Y-121281D01*
X663251Y-121154D01*
X663324Y-121026D01*
X663406Y-120908D01*
X663415Y-120899D01*
X663452Y-120862D01*
X663507Y-120808D01*
X663579Y-120735D01*
X663680Y-120662D01*
X663798Y-120589D01*
X663935Y-120507D01*
X664089Y-120443D01*
X664099D01*
X664108Y-120434D01*
X664135Y-120425D01*
X664172Y-120416D01*
X664263Y-120389D01*
X664390Y-120361D01*
X664536Y-120334D01*
X664718Y-120307D01*
X664909Y-120288D01*
X665128Y-120279D01*
X665228D01*
X665329Y-120288D01*
D02*
G37*
G36*
X660145Y-118658D02*
X660300Y-118667D01*
X660464Y-118676D01*
X660619Y-118694D01*
X660755Y-118712D01*
X660774D01*
X660837Y-118731D01*
X660919Y-118749D01*
X661028Y-118776D01*
X661147Y-118822D01*
X661274Y-118876D01*
X661411Y-118940D01*
X661530Y-119013D01*
X661548Y-119022D01*
X661584Y-119050D01*
X661639Y-119104D01*
X661712Y-119168D01*
X661794Y-119250D01*
X661876Y-119359D01*
X661967Y-119478D01*
X662040Y-119614D01*
X662049Y-119632D01*
X662067Y-119678D01*
X662104Y-119760D01*
X662140Y-119869D01*
X662167Y-119997D01*
X662204Y-120143D01*
X662222Y-120307D01*
X662231Y-120480D01*
Y-120489D01*
Y-120516D01*
Y-120553D01*
X662222Y-120616D01*
X662213Y-120680D01*
X662204Y-120762D01*
X662185Y-120853D01*
X662167Y-120954D01*
X662104Y-121163D01*
X662067Y-121272D01*
X662012Y-121391D01*
X661949Y-121509D01*
X661885Y-121618D01*
X661803Y-121728D01*
X661712Y-121837D01*
X661703Y-121846D01*
X661685Y-121864D01*
X661657Y-121892D01*
X661612Y-121919D01*
X661557Y-121965D01*
X661484Y-122010D01*
X661393Y-122065D01*
X661293Y-122110D01*
X661174Y-122165D01*
X661038Y-122220D01*
X660892Y-122265D01*
X660719Y-122302D01*
X660537Y-122338D01*
X660336Y-122365D01*
X660108Y-122384D01*
X659872Y-122393D01*
X658259D01*
Y-124953D01*
X657421D01*
Y-118649D01*
X660008D01*
X660145Y-118658D01*
D02*
G37*
G36*
X629554D02*
X629626D01*
X629790Y-118676D01*
X629973Y-118694D01*
X630164Y-118731D01*
X630355Y-118776D01*
X630528Y-118840D01*
X630537D01*
X630547Y-118849D01*
X630601Y-118876D01*
X630683Y-118922D01*
X630774Y-118986D01*
X630884Y-119068D01*
X631002Y-119168D01*
X631111Y-119296D01*
X631212Y-119432D01*
X631221Y-119450D01*
X631248Y-119505D01*
X631293Y-119578D01*
X631339Y-119687D01*
X631385Y-119815D01*
X631430Y-119951D01*
X631458Y-120106D01*
X631467Y-120261D01*
Y-120279D01*
Y-120325D01*
X631458Y-120407D01*
X631439Y-120507D01*
X631412Y-120625D01*
X631366Y-120753D01*
X631312Y-120881D01*
X631239Y-121017D01*
X631230Y-121036D01*
X631202Y-121072D01*
X631148Y-121145D01*
X631075Y-121218D01*
X630984Y-121309D01*
X630874Y-121409D01*
X630738Y-121500D01*
X630583Y-121591D01*
X630592D01*
X630610Y-121600D01*
X630638Y-121609D01*
X630674Y-121628D01*
X630783Y-121664D01*
X630911Y-121728D01*
X631047Y-121810D01*
X631202Y-121910D01*
X631339Y-122029D01*
X631467Y-122174D01*
X631476Y-122192D01*
X631512Y-122247D01*
X631567Y-122329D01*
X631622Y-122438D01*
X631676Y-122584D01*
X631731Y-122739D01*
X631767Y-122921D01*
X631776Y-123122D01*
Y-123131D01*
Y-123140D01*
Y-123195D01*
X631767Y-123286D01*
X631749Y-123395D01*
X631731Y-123522D01*
X631694Y-123659D01*
X631649Y-123805D01*
X631585Y-123951D01*
X631576Y-123969D01*
X631549Y-124014D01*
X631512Y-124078D01*
X631458Y-124169D01*
X631385Y-124260D01*
X631312Y-124361D01*
X631221Y-124461D01*
X631120Y-124543D01*
X631111Y-124552D01*
X631075Y-124579D01*
X631011Y-124616D01*
X630929Y-124652D01*
X630829Y-124707D01*
X630711Y-124761D01*
X630583Y-124807D01*
X630428Y-124853D01*
X630410D01*
X630355Y-124871D01*
X630264Y-124880D01*
X630146Y-124898D01*
X630000Y-124916D01*
X629827Y-124934D01*
X629635Y-124944D01*
X629417Y-124953D01*
X627012D01*
Y-118649D01*
X629490D01*
X629554Y-118658D01*
D02*
G37*
G36*
X673409Y-120379D02*
X674192D01*
Y-120981D01*
X673409D01*
Y-123668D01*
Y-123687D01*
Y-123723D01*
Y-123778D01*
X673418Y-123841D01*
X673427Y-123987D01*
X673436Y-124051D01*
X673446Y-124096D01*
X673455Y-124115D01*
X673482Y-124151D01*
X673518Y-124197D01*
X673582Y-124242D01*
X673600Y-124251D01*
X673646Y-124269D01*
X673728Y-124288D01*
X673846Y-124297D01*
X673937D01*
X673983Y-124288D01*
X674047D01*
X674120Y-124279D01*
X674192Y-124269D01*
X674293Y-124953D01*
X674274D01*
X674238Y-124962D01*
X674174Y-124971D01*
X674092Y-124980D01*
X674001Y-124998D01*
X673901Y-125007D01*
X673701Y-125016D01*
X673628D01*
X673555Y-125007D01*
X673464Y-124998D01*
X673354Y-124989D01*
X673245Y-124962D01*
X673145Y-124934D01*
X673045Y-124889D01*
X673035Y-124880D01*
X673008Y-124862D01*
X672972Y-124834D01*
X672917Y-124789D01*
X672871Y-124743D01*
X672817Y-124680D01*
X672762Y-124616D01*
X672726Y-124534D01*
Y-124525D01*
X672708Y-124488D01*
X672698Y-124424D01*
X672680Y-124333D01*
X672662Y-124215D01*
X672653Y-124142D01*
Y-124060D01*
X672644Y-123960D01*
X672635Y-123860D01*
Y-123750D01*
Y-123623D01*
Y-120981D01*
X672061D01*
Y-120379D01*
X672635D01*
Y-119250D01*
X673409Y-118785D01*
Y-120379D01*
D02*
G37*
G36*
X641078D02*
X641861D01*
Y-120981D01*
X641078D01*
Y-123668D01*
Y-123687D01*
Y-123723D01*
Y-123778D01*
X641087Y-123841D01*
X641096Y-123987D01*
X641105Y-124051D01*
X641114Y-124096D01*
X641123Y-124115D01*
X641151Y-124151D01*
X641187Y-124197D01*
X641251Y-124242D01*
X641269Y-124251D01*
X641315Y-124269D01*
X641397Y-124288D01*
X641515Y-124297D01*
X641606D01*
X641652Y-124288D01*
X641715D01*
X641788Y-124279D01*
X641861Y-124269D01*
X641961Y-124953D01*
X641943D01*
X641907Y-124962D01*
X641843Y-124971D01*
X641761Y-124980D01*
X641670Y-124998D01*
X641570Y-125007D01*
X641369Y-125016D01*
X641296D01*
X641223Y-125007D01*
X641132Y-124998D01*
X641023Y-124989D01*
X640914Y-124962D01*
X640813Y-124934D01*
X640713Y-124889D01*
X640704Y-124880D01*
X640677Y-124862D01*
X640640Y-124834D01*
X640586Y-124789D01*
X640540Y-124743D01*
X640485Y-124680D01*
X640431Y-124616D01*
X640394Y-124534D01*
Y-124525D01*
X640376Y-124488D01*
X640367Y-124424D01*
X640349Y-124333D01*
X640331Y-124215D01*
X640321Y-124142D01*
Y-124060D01*
X640312Y-123960D01*
X640303Y-123860D01*
Y-123750D01*
Y-123623D01*
Y-120981D01*
X639729D01*
Y-120379D01*
X640303D01*
Y-119250D01*
X641078Y-118785D01*
Y-120379D01*
D02*
G37*
G36*
X638627D02*
X639410D01*
Y-120981D01*
X638627D01*
Y-123668D01*
Y-123687D01*
Y-123723D01*
Y-123778D01*
X638636Y-123841D01*
X638645Y-123987D01*
X638654Y-124051D01*
X638663Y-124096D01*
X638673Y-124115D01*
X638700Y-124151D01*
X638736Y-124197D01*
X638800Y-124242D01*
X638818Y-124251D01*
X638864Y-124269D01*
X638946Y-124288D01*
X639064Y-124297D01*
X639155D01*
X639201Y-124288D01*
X639265D01*
X639338Y-124279D01*
X639410Y-124269D01*
X639511Y-124953D01*
X639493D01*
X639456Y-124962D01*
X639392Y-124971D01*
X639310Y-124980D01*
X639219Y-124998D01*
X639119Y-125007D01*
X638919Y-125016D01*
X638846D01*
X638773Y-125007D01*
X638682Y-124998D01*
X638572Y-124989D01*
X638463Y-124962D01*
X638363Y-124934D01*
X638263Y-124889D01*
X638253Y-124880D01*
X638226Y-124862D01*
X638190Y-124834D01*
X638135Y-124789D01*
X638090Y-124743D01*
X638035Y-124680D01*
X637980Y-124616D01*
X637944Y-124534D01*
Y-124525D01*
X637926Y-124488D01*
X637917Y-124424D01*
X637898Y-124333D01*
X637880Y-124215D01*
X637871Y-124142D01*
Y-124060D01*
X637862Y-123960D01*
X637853Y-123860D01*
Y-123750D01*
Y-123623D01*
Y-120981D01*
X637279D01*
Y-120379D01*
X637853D01*
Y-119250D01*
X638627Y-118785D01*
Y-120379D01*
D02*
G37*
G36*
X676980Y-120288D02*
X677053Y-120298D01*
X677144Y-120316D01*
X677244Y-120334D01*
X677363Y-120361D01*
X677472Y-120389D01*
X677600Y-120434D01*
X677718Y-120480D01*
X677846Y-120544D01*
X677973Y-120616D01*
X678101Y-120698D01*
X678219Y-120799D01*
X678328Y-120908D01*
X678337Y-120917D01*
X678356Y-120935D01*
X678383Y-120972D01*
X678419Y-121026D01*
X678465Y-121090D01*
X678511Y-121163D01*
X678565Y-121254D01*
X678620Y-121363D01*
X678675Y-121482D01*
X678729Y-121609D01*
X678775Y-121755D01*
X678820Y-121910D01*
X678857Y-122083D01*
X678884Y-122265D01*
X678902Y-122457D01*
X678911Y-122666D01*
Y-122675D01*
Y-122712D01*
Y-122775D01*
X678902Y-122867D01*
X675486D01*
Y-122876D01*
Y-122903D01*
X675495Y-122940D01*
Y-122994D01*
X675504Y-123058D01*
X675523Y-123131D01*
X675550Y-123295D01*
X675604Y-123477D01*
X675677Y-123677D01*
X675778Y-123860D01*
X675905Y-124024D01*
X675914D01*
X675923Y-124042D01*
X675978Y-124087D01*
X676060Y-124151D01*
X676169Y-124215D01*
X676315Y-124288D01*
X676479Y-124352D01*
X676661Y-124397D01*
X676761Y-124406D01*
X676871Y-124415D01*
X676944D01*
X677026Y-124406D01*
X677126Y-124388D01*
X677235Y-124361D01*
X677363Y-124324D01*
X677481Y-124269D01*
X677600Y-124197D01*
X677609Y-124188D01*
X677654Y-124151D01*
X677709Y-124096D01*
X677773Y-124024D01*
X677846Y-123923D01*
X677928Y-123796D01*
X678010Y-123650D01*
X678083Y-123477D01*
X678884Y-123577D01*
Y-123586D01*
X678875Y-123605D01*
X678866Y-123641D01*
X678848Y-123696D01*
X678820Y-123750D01*
X678793Y-123823D01*
X678720Y-123978D01*
X678629Y-124151D01*
X678502Y-124333D01*
X678356Y-124506D01*
X678174Y-124670D01*
X678164D01*
X678146Y-124689D01*
X678119Y-124707D01*
X678083Y-124734D01*
X678028Y-124761D01*
X677973Y-124789D01*
X677900Y-124825D01*
X677818Y-124862D01*
X677727Y-124898D01*
X677636Y-124934D01*
X677408Y-124989D01*
X677153Y-125035D01*
X676871Y-125053D01*
X676771D01*
X676707Y-125044D01*
X676625Y-125035D01*
X676525Y-125016D01*
X676415Y-124998D01*
X676297Y-124980D01*
X676042Y-124907D01*
X675905Y-124853D01*
X675778Y-124798D01*
X675641Y-124725D01*
X675513Y-124643D01*
X675395Y-124552D01*
X675277Y-124443D01*
X675268Y-124434D01*
X675249Y-124415D01*
X675222Y-124379D01*
X675185Y-124324D01*
X675140Y-124260D01*
X675094Y-124188D01*
X675040Y-124096D01*
X674985Y-123996D01*
X674930Y-123878D01*
X674876Y-123750D01*
X674830Y-123605D01*
X674785Y-123450D01*
X674748Y-123286D01*
X674721Y-123103D01*
X674703Y-122912D01*
X674693Y-122712D01*
Y-122703D01*
Y-122657D01*
Y-122602D01*
X674703Y-122520D01*
X674712Y-122420D01*
X674721Y-122311D01*
X674739Y-122183D01*
X674766Y-122056D01*
X674839Y-121764D01*
X674885Y-121618D01*
X674939Y-121464D01*
X675012Y-121318D01*
X675094Y-121181D01*
X675185Y-121045D01*
X675286Y-120917D01*
X675295Y-120908D01*
X675313Y-120890D01*
X675350Y-120862D01*
X675395Y-120817D01*
X675450Y-120771D01*
X675523Y-120717D01*
X675604Y-120653D01*
X675705Y-120598D01*
X675805Y-120534D01*
X675923Y-120480D01*
X676051Y-120425D01*
X676188Y-120379D01*
X676333Y-120334D01*
X676488Y-120307D01*
X676652Y-120288D01*
X676825Y-120279D01*
X676916D01*
X676980Y-120288D01*
D02*
G37*
G36*
X644630D02*
X644712Y-120298D01*
X644804Y-120316D01*
X644904Y-120334D01*
X645022Y-120352D01*
X645268Y-120434D01*
X645396Y-120480D01*
X645523Y-120544D01*
X645651Y-120607D01*
X645778Y-120698D01*
X645897Y-120790D01*
X646015Y-120899D01*
X646024Y-120908D01*
X646043Y-120926D01*
X646070Y-120963D01*
X646106Y-121008D01*
X646152Y-121072D01*
X646207Y-121154D01*
X646261Y-121245D01*
X646316Y-121345D01*
X646371Y-121455D01*
X646425Y-121591D01*
X646480Y-121728D01*
X646525Y-121883D01*
X646562Y-122047D01*
X646589Y-122220D01*
X646607Y-122402D01*
X646617Y-122602D01*
Y-122611D01*
Y-122639D01*
Y-122684D01*
Y-122748D01*
X646607Y-122821D01*
X646598Y-122912D01*
Y-123003D01*
X646580Y-123103D01*
X646553Y-123331D01*
X646498Y-123559D01*
X646434Y-123787D01*
X646343Y-123996D01*
Y-124005D01*
X646334Y-124014D01*
X646316Y-124042D01*
X646298Y-124078D01*
X646234Y-124169D01*
X646152Y-124279D01*
X646043Y-124406D01*
X645906Y-124534D01*
X645751Y-124661D01*
X645569Y-124780D01*
X645560D01*
X645551Y-124789D01*
X645523Y-124807D01*
X645478Y-124825D01*
X645432Y-124844D01*
X645378Y-124862D01*
X645241Y-124916D01*
X645086Y-124962D01*
X644895Y-125007D01*
X644694Y-125044D01*
X644476Y-125053D01*
X644385D01*
X644312Y-125044D01*
X644230Y-125035D01*
X644139Y-125016D01*
X644029Y-124998D01*
X643920Y-124980D01*
X643674Y-124907D01*
X643537Y-124853D01*
X643410Y-124798D01*
X643282Y-124725D01*
X643155Y-124643D01*
X643036Y-124552D01*
X642918Y-124443D01*
X642909Y-124434D01*
X642891Y-124415D01*
X642863Y-124379D01*
X642827Y-124324D01*
X642781Y-124260D01*
X642736Y-124188D01*
X642681Y-124096D01*
X642626Y-123987D01*
X642572Y-123869D01*
X642517Y-123732D01*
X642472Y-123586D01*
X642426Y-123431D01*
X642389Y-123258D01*
X642362Y-123076D01*
X642344Y-122876D01*
X642335Y-122666D01*
Y-122648D01*
Y-122611D01*
X642344Y-122548D01*
Y-122457D01*
X642353Y-122356D01*
X642371Y-122229D01*
X642389Y-122101D01*
X642426Y-121956D01*
X642462Y-121810D01*
X642508Y-121655D01*
X642563Y-121491D01*
X642635Y-121336D01*
X642708Y-121190D01*
X642808Y-121045D01*
X642909Y-120908D01*
X643036Y-120790D01*
X643045Y-120780D01*
X643064Y-120771D01*
X643100Y-120744D01*
X643146Y-120707D01*
X643200Y-120671D01*
X643273Y-120625D01*
X643346Y-120580D01*
X643437Y-120534D01*
X643537Y-120489D01*
X643647Y-120443D01*
X643893Y-120361D01*
X644175Y-120298D01*
X644321Y-120288D01*
X644476Y-120279D01*
X644567D01*
X644630Y-120288D01*
D02*
G37*
G36*
X634828D02*
X634910Y-120298D01*
X635001Y-120316D01*
X635102Y-120334D01*
X635220Y-120352D01*
X635466Y-120434D01*
X635593Y-120480D01*
X635721Y-120544D01*
X635849Y-120607D01*
X635976Y-120698D01*
X636095Y-120790D01*
X636213Y-120899D01*
X636222Y-120908D01*
X636240Y-120926D01*
X636268Y-120963D01*
X636304Y-121008D01*
X636349Y-121072D01*
X636404Y-121154D01*
X636459Y-121245D01*
X636514Y-121345D01*
X636568Y-121455D01*
X636623Y-121591D01*
X636678Y-121728D01*
X636723Y-121883D01*
X636760Y-122047D01*
X636787Y-122220D01*
X636805Y-122402D01*
X636814Y-122602D01*
Y-122611D01*
Y-122639D01*
Y-122684D01*
Y-122748D01*
X636805Y-122821D01*
X636796Y-122912D01*
Y-123003D01*
X636778Y-123103D01*
X636750Y-123331D01*
X636696Y-123559D01*
X636632Y-123787D01*
X636541Y-123996D01*
Y-124005D01*
X636532Y-124014D01*
X636514Y-124042D01*
X636495Y-124078D01*
X636432Y-124169D01*
X636349Y-124279D01*
X636240Y-124406D01*
X636104Y-124534D01*
X635949Y-124661D01*
X635767Y-124780D01*
X635757D01*
X635748Y-124789D01*
X635721Y-124807D01*
X635675Y-124825D01*
X635630Y-124844D01*
X635575Y-124862D01*
X635439Y-124916D01*
X635284Y-124962D01*
X635092Y-125007D01*
X634892Y-125044D01*
X634673Y-125053D01*
X634582D01*
X634509Y-125044D01*
X634427Y-125035D01*
X634336Y-125016D01*
X634227Y-124998D01*
X634118Y-124980D01*
X633872Y-124907D01*
X633735Y-124853D01*
X633607Y-124798D01*
X633480Y-124725D01*
X633352Y-124643D01*
X633234Y-124552D01*
X633115Y-124443D01*
X633106Y-124434D01*
X633088Y-124415D01*
X633061Y-124379D01*
X633024Y-124324D01*
X632979Y-124260D01*
X632933Y-124188D01*
X632879Y-124096D01*
X632824Y-123987D01*
X632769Y-123869D01*
X632715Y-123732D01*
X632669Y-123586D01*
X632624Y-123431D01*
X632587Y-123258D01*
X632560Y-123076D01*
X632542Y-122876D01*
X632533Y-122666D01*
Y-122648D01*
Y-122611D01*
X632542Y-122548D01*
Y-122457D01*
X632551Y-122356D01*
X632569Y-122229D01*
X632587Y-122101D01*
X632624Y-121956D01*
X632660Y-121810D01*
X632706Y-121655D01*
X632760Y-121491D01*
X632833Y-121336D01*
X632906Y-121190D01*
X633006Y-121045D01*
X633106Y-120908D01*
X633234Y-120790D01*
X633243Y-120780D01*
X633261Y-120771D01*
X633298Y-120744D01*
X633343Y-120707D01*
X633398Y-120671D01*
X633471Y-120625D01*
X633544Y-120580D01*
X633635Y-120534D01*
X633735Y-120489D01*
X633844Y-120443D01*
X634090Y-120361D01*
X634373Y-120298D01*
X634518Y-120288D01*
X634673Y-120279D01*
X634764D01*
X634828Y-120288D01*
D02*
G37*
%LPC*%
G36*
X666121Y-122657D02*
X666112D01*
X666103Y-122666D01*
X666076Y-122675D01*
X666039Y-122684D01*
X665993Y-122703D01*
X665939Y-122721D01*
X665875Y-122739D01*
X665802Y-122757D01*
X665720Y-122785D01*
X665620Y-122803D01*
X665520Y-122830D01*
X665401Y-122857D01*
X665274Y-122885D01*
X665146Y-122912D01*
X665000Y-122930D01*
X664846Y-122958D01*
X664827D01*
X664773Y-122967D01*
X664682Y-122985D01*
X664581Y-123003D01*
X664472Y-123021D01*
X664363Y-123049D01*
X664263Y-123076D01*
X664172Y-123113D01*
X664162D01*
X664135Y-123131D01*
X664099Y-123149D01*
X664062Y-123176D01*
X663953Y-123249D01*
X663862Y-123359D01*
Y-123368D01*
X663843Y-123386D01*
X663834Y-123422D01*
X663816Y-123468D01*
X663798Y-123522D01*
X663780Y-123577D01*
X663771Y-123650D01*
X663762Y-123723D01*
Y-123732D01*
Y-123778D01*
X663771Y-123832D01*
X663789Y-123905D01*
X663816Y-123987D01*
X663862Y-124069D01*
X663916Y-124160D01*
X663989Y-124242D01*
X663998Y-124251D01*
X664035Y-124269D01*
X664089Y-124306D01*
X664162Y-124342D01*
X664263Y-124379D01*
X664381Y-124415D01*
X664518Y-124434D01*
X664682Y-124443D01*
X664754D01*
X664846Y-124434D01*
X664946Y-124415D01*
X665073Y-124397D01*
X665201Y-124361D01*
X665338Y-124315D01*
X665474Y-124251D01*
X665492Y-124242D01*
X665529Y-124215D01*
X665593Y-124169D01*
X665665Y-124106D01*
X665747Y-124033D01*
X665839Y-123942D01*
X665911Y-123832D01*
X665984Y-123714D01*
X665993Y-123705D01*
X666003Y-123668D01*
X666021Y-123605D01*
X666048Y-123522D01*
X666076Y-123413D01*
X666094Y-123286D01*
X666103Y-123131D01*
X666112Y-122949D01*
X666121Y-122657D01*
D02*
G37*
G36*
X660063Y-119396D02*
X658259D01*
Y-121646D01*
X659954D01*
X660017Y-121637D01*
X660081D01*
X660154Y-121628D01*
X660327Y-121609D01*
X660518Y-121573D01*
X660710Y-121518D01*
X660883Y-121445D01*
X660965Y-121400D01*
X661028Y-121345D01*
X661047Y-121327D01*
X661083Y-121291D01*
X661138Y-121218D01*
X661202Y-121127D01*
X661265Y-121008D01*
X661320Y-120862D01*
X661356Y-120698D01*
X661375Y-120507D01*
Y-120498D01*
Y-120489D01*
Y-120443D01*
X661366Y-120361D01*
X661347Y-120270D01*
X661329Y-120170D01*
X661293Y-120052D01*
X661238Y-119942D01*
X661174Y-119833D01*
X661165Y-119824D01*
X661138Y-119787D01*
X661092Y-119742D01*
X661038Y-119678D01*
X660956Y-119614D01*
X660865Y-119560D01*
X660764Y-119505D01*
X660646Y-119459D01*
X660637D01*
X660600Y-119450D01*
X660546Y-119441D01*
X660473Y-119423D01*
X660363Y-119414D01*
X660227Y-119405D01*
X660063Y-119396D01*
D02*
G37*
G36*
X629344D02*
X627850D01*
Y-121291D01*
X629399D01*
X629517Y-121281D01*
X629645Y-121272D01*
X629772Y-121263D01*
X629900Y-121245D01*
X630000Y-121227D01*
X630018Y-121218D01*
X630055Y-121209D01*
X630109Y-121181D01*
X630182Y-121145D01*
X630255Y-121108D01*
X630337Y-121054D01*
X630419Y-120981D01*
X630483Y-120908D01*
X630492Y-120899D01*
X630510Y-120871D01*
X630537Y-120817D01*
X630565Y-120753D01*
X630592Y-120680D01*
X630619Y-120589D01*
X630638Y-120480D01*
X630647Y-120361D01*
Y-120343D01*
Y-120307D01*
X630638Y-120252D01*
X630628Y-120179D01*
X630610Y-120088D01*
X630583Y-119997D01*
X630547Y-119906D01*
X630492Y-119815D01*
X630483Y-119806D01*
X630465Y-119778D01*
X630428Y-119733D01*
X630382Y-119687D01*
X630319Y-119632D01*
X630246Y-119578D01*
X630155Y-119523D01*
X630055Y-119487D01*
X630045D01*
X630000Y-119469D01*
X629936Y-119459D01*
X629836Y-119441D01*
X629699Y-119423D01*
X629544Y-119414D01*
X629344Y-119396D01*
D02*
G37*
G36*
X629508Y-122038D02*
X627850D01*
Y-124206D01*
X629645D01*
X629836Y-124197D01*
X629918Y-124188D01*
X629991Y-124178D01*
X630000D01*
X630036Y-124169D01*
X630091Y-124160D01*
X630155Y-124142D01*
X630310Y-124087D01*
X630465Y-124014D01*
X630474Y-124005D01*
X630501Y-123987D01*
X630537Y-123960D01*
X630583Y-123923D01*
X630628Y-123869D01*
X630692Y-123814D01*
X630738Y-123741D01*
X630793Y-123659D01*
X630802Y-123650D01*
X630811Y-123623D01*
X630829Y-123568D01*
X630856Y-123504D01*
X630884Y-123431D01*
X630902Y-123340D01*
X630911Y-123231D01*
X630920Y-123122D01*
Y-123103D01*
Y-123067D01*
X630911Y-122994D01*
X630893Y-122912D01*
X630874Y-122821D01*
X630838Y-122721D01*
X630793Y-122621D01*
X630729Y-122520D01*
X630720Y-122511D01*
X630692Y-122475D01*
X630656Y-122429D01*
X630601Y-122375D01*
X630528Y-122311D01*
X630437Y-122247D01*
X630337Y-122192D01*
X630219Y-122147D01*
X630200Y-122138D01*
X630164Y-122129D01*
X630082Y-122110D01*
X629982Y-122092D01*
X629854Y-122074D01*
X629699Y-122056D01*
X629508Y-122038D01*
D02*
G37*
G36*
X676834Y-120917D02*
X676780D01*
X676743Y-120926D01*
X676643Y-120935D01*
X676525Y-120963D01*
X676379Y-121008D01*
X676224Y-121072D01*
X676078Y-121163D01*
X675933Y-121281D01*
X675914Y-121300D01*
X675878Y-121345D01*
X675814Y-121427D01*
X675750Y-121537D01*
X675677Y-121664D01*
X675614Y-121828D01*
X675559Y-122019D01*
X675532Y-122229D01*
X678092D01*
Y-122220D01*
Y-122202D01*
X678083Y-122174D01*
Y-122138D01*
X678064Y-122029D01*
X678037Y-121910D01*
X677991Y-121764D01*
X677946Y-121628D01*
X677873Y-121491D01*
X677791Y-121372D01*
Y-121363D01*
X677773Y-121354D01*
X677727Y-121300D01*
X677645Y-121227D01*
X677536Y-121145D01*
X677399Y-121063D01*
X677235Y-120990D01*
X677044Y-120935D01*
X676944Y-120926D01*
X676834Y-120917D01*
D02*
G37*
G36*
X644476D02*
X644421D01*
X644376Y-120926D01*
X644275Y-120935D01*
X644139Y-120972D01*
X643984Y-121026D01*
X643820Y-121099D01*
X643665Y-121209D01*
X643583Y-121281D01*
X643510Y-121354D01*
Y-121363D01*
X643492Y-121372D01*
X643474Y-121400D01*
X643446Y-121436D01*
X643419Y-121482D01*
X643392Y-121537D01*
X643355Y-121609D01*
X643319Y-121682D01*
X643282Y-121773D01*
X643246Y-121864D01*
X643219Y-121974D01*
X643191Y-122092D01*
X643164Y-122220D01*
X643146Y-122356D01*
X643137Y-122511D01*
X643127Y-122666D01*
Y-122675D01*
Y-122703D01*
Y-122748D01*
X643137Y-122812D01*
Y-122885D01*
X643146Y-122967D01*
X643173Y-123158D01*
X643219Y-123377D01*
X643291Y-123595D01*
X643383Y-123805D01*
X643446Y-123896D01*
X643510Y-123987D01*
X643519D01*
X643528Y-124005D01*
X643583Y-124051D01*
X643665Y-124124D01*
X643774Y-124197D01*
X643911Y-124279D01*
X644075Y-124352D01*
X644266Y-124397D01*
X644366Y-124406D01*
X644476Y-124415D01*
X644530D01*
X644576Y-124406D01*
X644676Y-124388D01*
X644813Y-124361D01*
X644958Y-124306D01*
X645122Y-124233D01*
X645277Y-124124D01*
X645359Y-124051D01*
X645432Y-123978D01*
X645441Y-123969D01*
X645450Y-123960D01*
X645469Y-123932D01*
X645496Y-123896D01*
X645523Y-123851D01*
X645560Y-123796D01*
X645596Y-123723D01*
X645633Y-123650D01*
X645669Y-123559D01*
X645696Y-123459D01*
X645733Y-123349D01*
X645760Y-123231D01*
X645787Y-123094D01*
X645806Y-122958D01*
X645824Y-122803D01*
Y-122639D01*
Y-122630D01*
Y-122602D01*
Y-122557D01*
X645815Y-122502D01*
Y-122429D01*
X645806Y-122347D01*
X645778Y-122156D01*
X645733Y-121956D01*
X645660Y-121737D01*
X645560Y-121537D01*
X645505Y-121436D01*
X645432Y-121354D01*
Y-121345D01*
X645414Y-121336D01*
X645359Y-121281D01*
X645277Y-121218D01*
X645168Y-121136D01*
X645031Y-121054D01*
X644867Y-120981D01*
X644685Y-120935D01*
X644585Y-120926D01*
X644476Y-120917D01*
D02*
G37*
G36*
X634673D02*
X634619D01*
X634573Y-120926D01*
X634473Y-120935D01*
X634336Y-120972D01*
X634181Y-121026D01*
X634017Y-121099D01*
X633862Y-121209D01*
X633780Y-121281D01*
X633708Y-121354D01*
Y-121363D01*
X633689Y-121372D01*
X633671Y-121400D01*
X633644Y-121436D01*
X633617Y-121482D01*
X633589Y-121537D01*
X633553Y-121609D01*
X633516Y-121682D01*
X633480Y-121773D01*
X633443Y-121864D01*
X633416Y-121974D01*
X633389Y-122092D01*
X633361Y-122220D01*
X633343Y-122356D01*
X633334Y-122511D01*
X633325Y-122666D01*
Y-122675D01*
Y-122703D01*
Y-122748D01*
X633334Y-122812D01*
Y-122885D01*
X633343Y-122967D01*
X633371Y-123158D01*
X633416Y-123377D01*
X633489Y-123595D01*
X633580Y-123805D01*
X633644Y-123896D01*
X633708Y-123987D01*
X633717D01*
X633726Y-124005D01*
X633780Y-124051D01*
X633862Y-124124D01*
X633972Y-124197D01*
X634108Y-124279D01*
X634272Y-124352D01*
X634464Y-124397D01*
X634564Y-124406D01*
X634673Y-124415D01*
X634728D01*
X634773Y-124406D01*
X634874Y-124388D01*
X635010Y-124361D01*
X635156Y-124306D01*
X635320Y-124233D01*
X635475Y-124124D01*
X635557Y-124051D01*
X635630Y-123978D01*
X635639Y-123969D01*
X635648Y-123960D01*
X635666Y-123932D01*
X635694Y-123896D01*
X635721Y-123851D01*
X635757Y-123796D01*
X635794Y-123723D01*
X635830Y-123650D01*
X635867Y-123559D01*
X635894Y-123459D01*
X635930Y-123349D01*
X635958Y-123231D01*
X635985Y-123094D01*
X636003Y-122958D01*
X636022Y-122803D01*
Y-122639D01*
Y-122630D01*
Y-122602D01*
Y-122557D01*
X636013Y-122502D01*
Y-122429D01*
X636003Y-122347D01*
X635976Y-122156D01*
X635930Y-121956D01*
X635858Y-121737D01*
X635757Y-121537D01*
X635703Y-121436D01*
X635630Y-121354D01*
Y-121345D01*
X635612Y-121336D01*
X635557Y-121281D01*
X635475Y-121218D01*
X635366Y-121136D01*
X635229Y-121054D01*
X635065Y-120981D01*
X634883Y-120935D01*
X634783Y-120926D01*
X634673Y-120917D01*
D02*
G37*
%LPD*%
D11*
X348727Y15143D02*
G03*
X362231Y28721I28J13476D01*
G01*
X313897Y453D02*
G03*
X327865Y8398I-430J17007D01*
G01*
X340101Y15143D02*
G03*
X327800Y8303I31J-14537D01*
G01*
X327073Y341609D02*
G03*
X340443Y332359I13542J5287D01*
G01*
X326634Y342790D02*
G03*
X315457Y350371I-11018J-4215D01*
G01*
X429Y19709D02*
G03*
X13080Y7370I12282J-63D01*
G01*
X29169Y3404D02*
G03*
X20591Y7370I-8805J-7785D01*
G01*
X29072Y3478D02*
G03*
X35354Y453I6097J4625D01*
G01*
X362262Y319425D02*
G03*
X349823Y332359I-12687J247D01*
G01*
X15524Y350371D02*
G03*
X429Y333981I435J-15546D01*
G01*
X340101Y15143D02*
X348756D01*
X340443Y332359D02*
X349823D01*
X326634Y342790D02*
X327141Y341464D01*
X429Y333981D02*
X429Y19709D01*
X13080Y7370D02*
X20591D01*
X35354Y453D02*
X313467D01*
X362262Y28721D02*
X362262Y319425D01*
X15524Y350371D02*
X315457D01*
D24*
X221752Y216555D02*
D03*
Y209232D02*
D03*
X199508Y253031D02*
D03*
Y260354D02*
D03*
D26*
X62924Y274932D02*
D03*
X57746Y269754D02*
D03*
X51999Y264400D02*
D03*
X46820Y259222D02*
D03*
X130837Y267845D02*
D03*
X125659Y262667D02*
D03*
D27*
X59911Y222668D02*
D03*
X65089Y217490D02*
D03*
X272313Y267254D02*
D03*
X277491Y262076D02*
D03*
D36*
X328051Y325295D02*
D03*
X57185Y191339D02*
D03*
X326476Y23622D02*
D03*
D43*
X70292Y222425D02*
D03*
X65141Y227575D02*
D03*
X267307Y262319D02*
D03*
X272457Y257169D02*
D03*
D44*
X240650Y211713D02*
D03*
Y218996D02*
D03*
X131693Y300689D02*
D03*
Y293406D02*
D03*
X214173Y216535D02*
D03*
Y209252D02*
D03*
X205315Y260433D02*
D03*
Y253150D02*
D03*
D45*
X117126Y194193D02*
D03*
X124409D02*
D03*
X190945Y299606D02*
D03*
X183661D02*
D03*
X287242Y194882D02*
D03*
X294526D02*
D03*
D46*
X68132Y269838D02*
D03*
X62982Y264688D02*
D03*
X125705Y272949D02*
D03*
X120555Y267799D02*
D03*
X52149Y253921D02*
D03*
X57300Y259071D02*
D03*
D49*
X99232Y231693D02*
D03*
X107232D02*
D03*
X297575Y263976D02*
D03*
X305575D02*
D03*
X297575Y243110D02*
D03*
X305575D02*
D03*
X297575Y233760D02*
D03*
X305575D02*
D03*
X297575Y252461D02*
D03*
X305575D02*
D03*
X297575Y224409D02*
D03*
X305575D02*
D03*
X123890Y311221D02*
D03*
X131890D02*
D03*
X182650Y310039D02*
D03*
X190650D02*
D03*
X165516Y277658D02*
D03*
X157516D02*
D03*
X165516Y286221D02*
D03*
X157516D02*
D03*
X20114Y241732D02*
D03*
X28114D02*
D03*
X60693D02*
D03*
X52693D02*
D03*
X28114Y257677D02*
D03*
X20114D02*
D03*
X45339Y282283D02*
D03*
X37339D02*
D03*
X20114Y267126D02*
D03*
X28114D02*
D03*
X45339Y290551D02*
D03*
X37339D02*
D03*
X20114Y276673D02*
D03*
X28114D02*
D03*
X166276Y242913D02*
D03*
X174276D02*
D03*
X207740D02*
D03*
X199740D02*
D03*
X20114Y204624D02*
D03*
X28114D02*
D03*
X45402D02*
D03*
X37402D02*
D03*
X20114Y214173D02*
D03*
X28114D02*
D03*
X45402Y223718D02*
D03*
X37402D02*
D03*
X20114D02*
D03*
X28114D02*
D03*
X141964Y311221D02*
D03*
X149964D02*
D03*
X201020Y310039D02*
D03*
X209020D02*
D03*
D50*
X126943Y176994D02*
D03*
X121286Y182651D02*
D03*
X284067Y182506D02*
D03*
X278410Y188163D02*
D03*
D51*
X167421Y264138D02*
D03*
Y256138D02*
D03*
X158153Y264138D02*
D03*
Y256138D02*
D03*
X106595Y204957D02*
D03*
Y212957D02*
D03*
X272933Y204957D02*
D03*
Y212957D02*
D03*
D106*
X254554Y210557D02*
D03*
X260210Y216214D02*
D03*
X185951Y262427D02*
D03*
X191608Y268084D02*
D03*
X179455Y268727D02*
D03*
X185112Y274383D02*
D03*
D107*
X43799Y240846D02*
D03*
X40059D02*
D03*
X36319D02*
D03*
Y251673D02*
D03*
X43799D02*
D03*
X190650Y242028D02*
D03*
X186909D02*
D03*
X183169D02*
D03*
Y252854D02*
D03*
X190650D02*
D03*
D108*
X146752Y301135D02*
D03*
X144783D02*
D03*
X142815D02*
D03*
X140846D02*
D03*
X138878D02*
D03*
Y283707D02*
D03*
X140846D02*
D03*
X142815D02*
D03*
X144783D02*
D03*
X146752D02*
D03*
X205709Y299954D02*
D03*
X203740D02*
D03*
X201772D02*
D03*
X199803D02*
D03*
X197835D02*
D03*
Y282526D02*
D03*
X199803D02*
D03*
X201772D02*
D03*
X203740D02*
D03*
X205709D02*
D03*
D109*
X115400Y210039D02*
D03*
Y208071D02*
D03*
Y206102D02*
D03*
Y204134D02*
D03*
Y202165D02*
D03*
X132828D02*
D03*
Y204134D02*
D03*
Y206102D02*
D03*
Y208071D02*
D03*
Y210039D02*
D03*
X281718Y210195D02*
D03*
Y208227D02*
D03*
Y206259D02*
D03*
Y204290D02*
D03*
Y202322D02*
D03*
X299146D02*
D03*
Y204290D02*
D03*
Y206259D02*
D03*
Y208227D02*
D03*
Y210195D02*
D03*
M02*
