G04*
G04 #@! TF.GenerationSoftware,Altium Limited,Altium Designer,18.1.7 (191)*
G04*
G04 Layer_Color=8388736*
%FSLAX25Y25*%
%MOIN*%
G70*
G01*
G75*
%ADD11C,0.01000*%
%ADD15C,0.00787*%
%ADD52R,0.14567X0.07874*%
%ADD53R,0.05937X0.05937*%
%ADD54R,0.04756X0.10661*%
%ADD55O,0.17748X0.09323*%
%ADD56O,0.17748X0.09087*%
%ADD57R,0.08299X0.05150*%
%ADD58R,0.13811X0.10268*%
G04:AMPARAMS|DCode=59|XSize=15.81mil|YSize=72.9mil|CornerRadius=0mil|HoleSize=0mil|Usage=FLASHONLY|Rotation=135.000|XOffset=0mil|YOffset=0mil|HoleType=Round|Shape=Round|*
%AMOVALD59*
21,1,0.05709,0.01581,0.00000,0.00000,225.0*
1,1,0.01581,0.02018,0.02018*
1,1,0.01581,-0.02018,-0.02018*
%
%ADD59OVALD59*%

G04:AMPARAMS|DCode=60|XSize=15.81mil|YSize=72.9mil|CornerRadius=0mil|HoleSize=0mil|Usage=FLASHONLY|Rotation=45.000|XOffset=0mil|YOffset=0mil|HoleType=Round|Shape=Round|*
%AMOVALD60*
21,1,0.05709,0.01581,0.00000,0.00000,135.0*
1,1,0.01581,0.02018,-0.02018*
1,1,0.01581,-0.02018,0.02018*
%
%ADD60OVALD60*%

%ADD61R,0.05150X0.06134*%
%ADD62C,0.09843*%
%ADD63R,0.06134X0.06724*%
%ADD64R,0.05543X0.05543*%
G04:AMPARAMS|DCode=65|XSize=59.37mil|YSize=71.18mil|CornerRadius=0mil|HoleSize=0mil|Usage=FLASHONLY|Rotation=315.000|XOffset=0mil|YOffset=0mil|HoleType=Round|Shape=Rectangle|*
%AMROTATEDRECTD65*
4,1,4,-0.04616,-0.00418,0.00418,0.04616,0.04616,0.00418,-0.00418,-0.04616,-0.04616,-0.00418,0.0*
%
%ADD65ROTATEDRECTD65*%

%ADD66R,0.06000X0.08000*%
%ADD67R,0.08000X0.06000*%
G04:AMPARAMS|DCode=68|XSize=61.34mil|YSize=67.24mil|CornerRadius=0mil|HoleSize=0mil|Usage=FLASHONLY|Rotation=135.000|XOffset=0mil|YOffset=0mil|HoleType=Round|Shape=Rectangle|*
%AMROTATEDRECTD68*
4,1,4,0.04546,0.00209,-0.00209,-0.04546,-0.04546,-0.00209,0.00209,0.04546,0.04546,0.00209,0.0*
%
%ADD68ROTATEDRECTD68*%

%ADD69R,0.06724X0.06134*%
%ADD70P,0.07839X4X360.0*%
G04:AMPARAMS|DCode=71|XSize=61.34mil|YSize=67.24mil|CornerRadius=0mil|HoleSize=0mil|Usage=FLASHONLY|Rotation=45.000|XOffset=0mil|YOffset=0mil|HoleType=Round|Shape=Rectangle|*
%AMROTATEDRECTD71*
4,1,4,0.00209,-0.04546,-0.04546,0.00209,-0.00209,0.04546,0.04546,-0.00209,0.00209,-0.04546,0.0*
%
%ADD71ROTATEDRECTD71*%

%ADD72R,0.06724X0.06724*%
%ADD73R,0.06724X0.06724*%
%ADD74P,0.09510X4X270.0*%
%ADD75R,0.05150X0.08299*%
%ADD76R,0.10268X0.13811*%
G04:AMPARAMS|DCode=77|XSize=60mil|YSize=80mil|CornerRadius=0mil|HoleSize=0mil|Usage=FLASHONLY|Rotation=225.000|XOffset=0mil|YOffset=0mil|HoleType=Round|Shape=Rectangle|*
%AMROTATEDRECTD77*
4,1,4,-0.00707,0.04950,0.04950,-0.00707,0.00707,-0.04950,-0.04950,0.00707,-0.00707,0.04950,0.0*
%
%ADD77ROTATEDRECTD77*%

G04:AMPARAMS|DCode=78|XSize=60mil|YSize=80mil|CornerRadius=0mil|HoleSize=0mil|Usage=FLASHONLY|Rotation=315.000|XOffset=0mil|YOffset=0mil|HoleType=Round|Shape=Rectangle|*
%AMROTATEDRECTD78*
4,1,4,-0.04950,-0.00707,0.00707,0.04950,0.04950,0.00707,-0.00707,-0.04950,-0.04950,-0.00707,0.0*
%
%ADD78ROTATEDRECTD78*%

%ADD79R,0.06724X0.08000*%
G04:AMPARAMS|DCode=80|XSize=67.24mil|YSize=80mil|CornerRadius=0mil|HoleSize=0mil|Usage=FLASHONLY|Rotation=135.000|XOffset=0mil|YOffset=0mil|HoleType=Round|Shape=Rectangle|*
%AMROTATEDRECTD80*
4,1,4,0.05206,0.00451,-0.00451,-0.05206,-0.05206,-0.00451,0.00451,0.05206,0.05206,0.00451,0.0*
%
%ADD80ROTATEDRECTD80*%

%ADD81R,0.08000X0.06724*%
%ADD82P,0.09510X4X180.0*%
%ADD83C,0.06000*%
%ADD84C,0.07906*%
%ADD85R,0.07906X0.07906*%
%ADD86C,0.25622*%
%ADD87R,0.07906X0.07906*%
%ADD88C,0.07323*%
%ADD89C,0.09331*%
%ADD90C,0.05150*%
G36*
X647472Y-118543D02*
X647539D01*
X647702Y-118562D01*
X647894Y-118591D01*
X648106Y-118629D01*
X648317Y-118687D01*
X648519Y-118764D01*
X648529D01*
X648538Y-118773D01*
X648567Y-118783D01*
X648605Y-118802D01*
X648702Y-118860D01*
X648827Y-118927D01*
X648961Y-119023D01*
X649096Y-119139D01*
X649230Y-119273D01*
X649345Y-119427D01*
X649355Y-119446D01*
X649394Y-119504D01*
X649441Y-119600D01*
X649490Y-119715D01*
X649547Y-119860D01*
X649605Y-120032D01*
X649643Y-120215D01*
X649663Y-120417D01*
X648865Y-120475D01*
Y-120465D01*
Y-120446D01*
X648855Y-120417D01*
X648846Y-120378D01*
X648827Y-120273D01*
X648788Y-120138D01*
X648730Y-119994D01*
X648654Y-119850D01*
X648548Y-119706D01*
X648423Y-119581D01*
X648404Y-119571D01*
X648356Y-119533D01*
X648269Y-119485D01*
X648154Y-119427D01*
X648000Y-119369D01*
X647808Y-119321D01*
X647587Y-119283D01*
X647327Y-119273D01*
X647202D01*
X647145Y-119283D01*
X647068D01*
X646905Y-119312D01*
X646722Y-119341D01*
X646539Y-119389D01*
X646366Y-119456D01*
X646289Y-119504D01*
X646222Y-119552D01*
X646213Y-119562D01*
X646174Y-119600D01*
X646116Y-119658D01*
X646059Y-119744D01*
X645992Y-119840D01*
X645943Y-119956D01*
X645905Y-120080D01*
X645886Y-120225D01*
Y-120244D01*
Y-120282D01*
X645895Y-120350D01*
X645915Y-120426D01*
X645943Y-120513D01*
X645992Y-120609D01*
X646049Y-120695D01*
X646126Y-120782D01*
X646136Y-120792D01*
X646184Y-120820D01*
X646213Y-120840D01*
X646251Y-120869D01*
X646309Y-120888D01*
X646376Y-120917D01*
X646453Y-120955D01*
X646539Y-120993D01*
X646635Y-121022D01*
X646751Y-121061D01*
X646885Y-121109D01*
X647029Y-121147D01*
X647193Y-121186D01*
X647375Y-121234D01*
X647385D01*
X647423Y-121243D01*
X647472Y-121253D01*
X647539Y-121272D01*
X647625Y-121291D01*
X647721Y-121320D01*
X647933Y-121368D01*
X648163Y-121435D01*
X648394Y-121503D01*
X648509Y-121532D01*
X648605Y-121570D01*
X648702Y-121608D01*
X648778Y-121637D01*
X648788D01*
X648807Y-121647D01*
X648827Y-121666D01*
X648865Y-121685D01*
X648961Y-121743D01*
X649086Y-121810D01*
X649221Y-121906D01*
X649355Y-122022D01*
X649480Y-122147D01*
X649586Y-122281D01*
X649595Y-122300D01*
X649624Y-122348D01*
X649672Y-122425D01*
X649720Y-122541D01*
X649768Y-122666D01*
X649816Y-122819D01*
X649845Y-122992D01*
X649855Y-123175D01*
Y-123185D01*
Y-123194D01*
Y-123223D01*
Y-123261D01*
X649835Y-123357D01*
X649816Y-123482D01*
X649788Y-123627D01*
X649730Y-123790D01*
X649663Y-123963D01*
X649567Y-124126D01*
X649557Y-124145D01*
X649509Y-124203D01*
X649451Y-124280D01*
X649355Y-124376D01*
X649240Y-124492D01*
X649096Y-124607D01*
X648923Y-124713D01*
X648730Y-124818D01*
X648721D01*
X648702Y-124828D01*
X648673Y-124837D01*
X648634Y-124857D01*
X648586Y-124876D01*
X648529Y-124895D01*
X648375Y-124934D01*
X648202Y-124982D01*
X647990Y-125020D01*
X647769Y-125049D01*
X647519Y-125058D01*
X647375D01*
X647308Y-125049D01*
X647222D01*
X647125Y-125039D01*
X647020Y-125030D01*
X646799Y-125001D01*
X646559Y-124953D01*
X646318Y-124895D01*
X646088Y-124818D01*
X646078D01*
X646059Y-124809D01*
X646030Y-124789D01*
X645992Y-124770D01*
X645886Y-124713D01*
X645761Y-124626D01*
X645607Y-124520D01*
X645463Y-124395D01*
X645309Y-124242D01*
X645175Y-124069D01*
Y-124059D01*
X645165Y-124049D01*
X645146Y-124021D01*
X645127Y-123982D01*
X645098Y-123934D01*
X645069Y-123876D01*
X645011Y-123732D01*
X644954Y-123569D01*
X644896Y-123367D01*
X644858Y-123156D01*
X644838Y-122925D01*
X645626Y-122858D01*
Y-122867D01*
Y-122877D01*
X645636Y-122935D01*
X645655Y-123021D01*
X645674Y-123136D01*
X645713Y-123261D01*
X645751Y-123396D01*
X645809Y-123521D01*
X645876Y-123646D01*
X645886Y-123655D01*
X645915Y-123694D01*
X645963Y-123751D01*
X646040Y-123819D01*
X646126Y-123896D01*
X646232Y-123982D01*
X646366Y-124059D01*
X646511Y-124136D01*
X646520D01*
X646530Y-124145D01*
X646587Y-124165D01*
X646674Y-124194D01*
X646799Y-124222D01*
X646933Y-124261D01*
X647106Y-124290D01*
X647289Y-124309D01*
X647481Y-124319D01*
X647558D01*
X647654Y-124309D01*
X647760Y-124299D01*
X647894Y-124290D01*
X648029Y-124261D01*
X648173Y-124232D01*
X648317Y-124184D01*
X648336Y-124174D01*
X648375Y-124155D01*
X648442Y-124126D01*
X648519Y-124078D01*
X648615Y-124021D01*
X648702Y-123953D01*
X648788Y-123876D01*
X648865Y-123790D01*
X648875Y-123780D01*
X648894Y-123742D01*
X648923Y-123694D01*
X648961Y-123627D01*
X648990Y-123550D01*
X649019Y-123454D01*
X649038Y-123357D01*
X649048Y-123252D01*
Y-123242D01*
Y-123204D01*
X649038Y-123146D01*
X649028Y-123079D01*
X649009Y-122992D01*
X648971Y-122906D01*
X648932Y-122819D01*
X648875Y-122733D01*
X648865Y-122723D01*
X648846Y-122694D01*
X648798Y-122656D01*
X648740Y-122598D01*
X648663Y-122541D01*
X648567Y-122483D01*
X648442Y-122416D01*
X648308Y-122358D01*
X648298Y-122348D01*
X648259Y-122339D01*
X648183Y-122320D01*
X648135Y-122300D01*
X648077Y-122281D01*
X648000Y-122262D01*
X647923Y-122243D01*
X647827Y-122214D01*
X647731Y-122185D01*
X647616Y-122156D01*
X647481Y-122127D01*
X647337Y-122089D01*
X647183Y-122050D01*
X647174D01*
X647145Y-122041D01*
X647097Y-122031D01*
X647039Y-122012D01*
X646972Y-121993D01*
X646895Y-121974D01*
X646712Y-121926D01*
X646511Y-121858D01*
X646309Y-121791D01*
X646126Y-121724D01*
X646040Y-121695D01*
X645972Y-121657D01*
X645963D01*
X645953Y-121647D01*
X645895Y-121608D01*
X645819Y-121560D01*
X645722Y-121493D01*
X645607Y-121407D01*
X645501Y-121311D01*
X645396Y-121195D01*
X645300Y-121070D01*
X645290Y-121051D01*
X645261Y-121003D01*
X645232Y-120936D01*
X645194Y-120840D01*
X645146Y-120724D01*
X645117Y-120590D01*
X645088Y-120436D01*
X645079Y-120282D01*
Y-120273D01*
Y-120263D01*
Y-120234D01*
Y-120196D01*
X645098Y-120109D01*
X645117Y-119994D01*
X645146Y-119850D01*
X645194Y-119706D01*
X645261Y-119542D01*
X645348Y-119389D01*
Y-119379D01*
X645357Y-119369D01*
X645396Y-119321D01*
X645463Y-119244D01*
X645549Y-119148D01*
X645655Y-119052D01*
X645790Y-118947D01*
X645953Y-118841D01*
X646136Y-118754D01*
X646145D01*
X646155Y-118745D01*
X646184Y-118735D01*
X646232Y-118716D01*
X646280Y-118706D01*
X646338Y-118687D01*
X646472Y-118639D01*
X646645Y-118601D01*
X646837Y-118572D01*
X647058Y-118543D01*
X647289Y-118533D01*
X647404D01*
X647472Y-118543D01*
D02*
G37*
G36*
X661435Y-124953D02*
X660714D01*
Y-124386D01*
X660705Y-124395D01*
X660695Y-124415D01*
X660666Y-124443D01*
X660628Y-124492D01*
X660589Y-124539D01*
X660532Y-124597D01*
X660464Y-124655D01*
X660387Y-124722D01*
X660301Y-124780D01*
X660205Y-124847D01*
X660099Y-124905D01*
X659993Y-124953D01*
X659868Y-125001D01*
X659734Y-125030D01*
X659590Y-125049D01*
X659436Y-125058D01*
X659378D01*
X659340Y-125049D01*
X659234Y-125039D01*
X659109Y-125020D01*
X658946Y-124982D01*
X658782Y-124934D01*
X658600Y-124857D01*
X658427Y-124761D01*
X658417D01*
X658408Y-124751D01*
X658350Y-124703D01*
X658273Y-124636D01*
X658167Y-124539D01*
X658062Y-124424D01*
X657937Y-124280D01*
X657831Y-124117D01*
X657725Y-123925D01*
Y-123915D01*
X657716Y-123896D01*
X657706Y-123867D01*
X657687Y-123828D01*
X657668Y-123780D01*
X657649Y-123713D01*
X657600Y-123559D01*
X657552Y-123377D01*
X657514Y-123165D01*
X657485Y-122935D01*
X657476Y-122675D01*
Y-122666D01*
Y-122646D01*
Y-122608D01*
Y-122560D01*
X657485Y-122502D01*
Y-122425D01*
X657504Y-122262D01*
X657533Y-122070D01*
X657572Y-121868D01*
X657620Y-121647D01*
X657696Y-121435D01*
Y-121426D01*
X657706Y-121407D01*
X657725Y-121378D01*
X657745Y-121339D01*
X657793Y-121243D01*
X657869Y-121118D01*
X657966Y-120974D01*
X658081Y-120830D01*
X658216Y-120695D01*
X658379Y-120571D01*
X658389D01*
X658398Y-120561D01*
X658456Y-120523D01*
X658552Y-120475D01*
X658677Y-120417D01*
X658830Y-120369D01*
X659003Y-120321D01*
X659196Y-120282D01*
X659398Y-120273D01*
X659465D01*
X659542Y-120282D01*
X659647Y-120292D01*
X659753Y-120321D01*
X659878Y-120350D01*
X660003Y-120398D01*
X660128Y-120455D01*
X660147Y-120465D01*
X660185Y-120484D01*
X660243Y-120523D01*
X660320Y-120580D01*
X660397Y-120638D01*
X660493Y-120715D01*
X660579Y-120811D01*
X660656Y-120907D01*
Y-118639D01*
X661435D01*
Y-124953D01*
D02*
G37*
G36*
X639899Y-120292D02*
X640033Y-120311D01*
X640197Y-120350D01*
X640370Y-120398D01*
X640543Y-120475D01*
X640716Y-120580D01*
X640725D01*
X640735Y-120590D01*
X640793Y-120638D01*
X640869Y-120705D01*
X640975Y-120801D01*
X641081Y-120917D01*
X641196Y-121070D01*
X641302Y-121234D01*
X641398Y-121435D01*
Y-121445D01*
X641408Y-121464D01*
X641417Y-121493D01*
X641436Y-121532D01*
X641456Y-121580D01*
X641475Y-121647D01*
X641513Y-121791D01*
X641552Y-121974D01*
X641590Y-122176D01*
X641619Y-122397D01*
X641629Y-122637D01*
Y-122646D01*
Y-122666D01*
Y-122704D01*
Y-122752D01*
X641619Y-122819D01*
Y-122887D01*
X641600Y-123060D01*
X641561Y-123252D01*
X641523Y-123463D01*
X641456Y-123684D01*
X641369Y-123905D01*
Y-123915D01*
X641360Y-123934D01*
X641340Y-123963D01*
X641321Y-124001D01*
X641263Y-124098D01*
X641187Y-124222D01*
X641081Y-124357D01*
X640956Y-124501D01*
X640812Y-124636D01*
X640639Y-124761D01*
X640629D01*
X640620Y-124770D01*
X640591Y-124789D01*
X640552Y-124809D01*
X640456Y-124857D01*
X640331Y-124905D01*
X640177Y-124962D01*
X640014Y-125010D01*
X639822Y-125049D01*
X639630Y-125058D01*
X639563D01*
X639495Y-125049D01*
X639399Y-125039D01*
X639293Y-125020D01*
X639178Y-124991D01*
X639053Y-124953D01*
X638938Y-124905D01*
X638928Y-124895D01*
X638890Y-124876D01*
X638832Y-124837D01*
X638765Y-124789D01*
X638678Y-124732D01*
X638601Y-124664D01*
X638515Y-124578D01*
X638438Y-124492D01*
Y-126702D01*
X637660D01*
Y-120378D01*
X638371D01*
Y-120974D01*
X638380Y-120955D01*
X638409Y-120917D01*
X638467Y-120859D01*
X638534Y-120782D01*
X638611Y-120695D01*
X638707Y-120609D01*
X638813Y-120523D01*
X638928Y-120455D01*
X638947Y-120446D01*
X638986Y-120426D01*
X639053Y-120398D01*
X639140Y-120359D01*
X639255Y-120330D01*
X639380Y-120301D01*
X639524Y-120282D01*
X639687Y-120273D01*
X639783D01*
X639899Y-120292D01*
D02*
G37*
G36*
X669382Y-120282D02*
X669488Y-120301D01*
X669603Y-120340D01*
X669738Y-120378D01*
X669882Y-120446D01*
X670036Y-120532D01*
X669757Y-121243D01*
X669747Y-121234D01*
X669709Y-121214D01*
X669651Y-121186D01*
X669584Y-121157D01*
X669498Y-121128D01*
X669402Y-121099D01*
X669296Y-121080D01*
X669190Y-121070D01*
X669152D01*
X669104Y-121080D01*
X669036Y-121090D01*
X668969Y-121109D01*
X668892Y-121138D01*
X668815Y-121176D01*
X668738Y-121224D01*
X668729Y-121234D01*
X668710Y-121253D01*
X668671Y-121291D01*
X668633Y-121339D01*
X668585Y-121397D01*
X668537Y-121474D01*
X668498Y-121560D01*
X668460Y-121657D01*
X668450Y-121676D01*
X668440Y-121724D01*
X668421Y-121810D01*
X668402Y-121926D01*
X668373Y-122060D01*
X668354Y-122214D01*
X668344Y-122377D01*
X668335Y-122560D01*
Y-124953D01*
X667556D01*
Y-120378D01*
X668258D01*
Y-121061D01*
X668267Y-121051D01*
X668306Y-120993D01*
X668354Y-120907D01*
X668412Y-120811D01*
X668489Y-120705D01*
X668575Y-120599D01*
X668652Y-120503D01*
X668738Y-120436D01*
X668748Y-120426D01*
X668777Y-120407D01*
X668825Y-120388D01*
X668892Y-120350D01*
X668960Y-120321D01*
X669046Y-120301D01*
X669142Y-120282D01*
X669238Y-120273D01*
X669305D01*
X669382Y-120282D01*
D02*
G37*
G36*
X726111Y-125394D02*
X725390D01*
Y-124827D01*
X725380Y-124836D01*
X725371Y-124855D01*
X725342Y-124884D01*
X725303Y-124932D01*
X725265Y-124980D01*
X725207Y-125038D01*
X725140Y-125096D01*
X725063Y-125163D01*
X724976Y-125221D01*
X724880Y-125288D01*
X724775Y-125346D01*
X724669Y-125394D01*
X724544Y-125442D01*
X724409Y-125471D01*
X724265Y-125490D01*
X724112Y-125499D01*
X724054D01*
X724016Y-125490D01*
X723910Y-125480D01*
X723785Y-125461D01*
X723622Y-125423D01*
X723458Y-125374D01*
X723276Y-125298D01*
X723103Y-125201D01*
X723093D01*
X723083Y-125192D01*
X723026Y-125144D01*
X722949Y-125077D01*
X722843Y-124980D01*
X722737Y-124865D01*
X722612Y-124721D01*
X722507Y-124558D01*
X722401Y-124365D01*
Y-124356D01*
X722391Y-124337D01*
X722382Y-124308D01*
X722363Y-124269D01*
X722343Y-124221D01*
X722324Y-124154D01*
X722276Y-124000D01*
X722228Y-123818D01*
X722190Y-123606D01*
X722161Y-123376D01*
X722151Y-123116D01*
Y-123107D01*
Y-123087D01*
Y-123049D01*
Y-123001D01*
X722161Y-122943D01*
Y-122866D01*
X722180Y-122703D01*
X722209Y-122511D01*
X722247Y-122309D01*
X722295Y-122088D01*
X722372Y-121876D01*
Y-121867D01*
X722382Y-121848D01*
X722401Y-121819D01*
X722420Y-121780D01*
X722468Y-121684D01*
X722545Y-121559D01*
X722641Y-121415D01*
X722757Y-121271D01*
X722891Y-121136D01*
X723055Y-121011D01*
X723064D01*
X723074Y-121002D01*
X723131Y-120964D01*
X723228Y-120915D01*
X723352Y-120858D01*
X723506Y-120810D01*
X723679Y-120762D01*
X723871Y-120723D01*
X724073Y-120714D01*
X724141D01*
X724217Y-120723D01*
X724323Y-120733D01*
X724429Y-120762D01*
X724554Y-120791D01*
X724679Y-120839D01*
X724803Y-120896D01*
X724823Y-120906D01*
X724861Y-120925D01*
X724919Y-120964D01*
X724996Y-121021D01*
X725073Y-121079D01*
X725169Y-121156D01*
X725255Y-121252D01*
X725332Y-121348D01*
Y-119080D01*
X726111D01*
Y-125394D01*
D02*
G37*
G36*
X712878Y-125394D02*
X712157D01*
Y-124827D01*
X712147Y-124836D01*
X712138Y-124855D01*
X712109Y-124884D01*
X712070Y-124932D01*
X712032Y-124980D01*
X711974Y-125038D01*
X711907Y-125096D01*
X711830Y-125163D01*
X711744Y-125221D01*
X711648Y-125288D01*
X711542Y-125346D01*
X711436Y-125394D01*
X711311Y-125442D01*
X711177Y-125471D01*
X711032Y-125490D01*
X710879Y-125499D01*
X710821D01*
X710783Y-125490D01*
X710677Y-125480D01*
X710552Y-125461D01*
X710389Y-125423D01*
X710225Y-125374D01*
X710043Y-125298D01*
X709870Y-125201D01*
X709860D01*
X709850Y-125192D01*
X709793Y-125144D01*
X709716Y-125077D01*
X709610Y-124980D01*
X709504Y-124865D01*
X709379Y-124721D01*
X709274Y-124558D01*
X709168Y-124365D01*
Y-124356D01*
X709159Y-124337D01*
X709149Y-124308D01*
X709130Y-124269D01*
X709110Y-124221D01*
X709091Y-124154D01*
X709043Y-124000D01*
X708995Y-123818D01*
X708957Y-123606D01*
X708928Y-123376D01*
X708918Y-123116D01*
Y-123107D01*
Y-123087D01*
Y-123049D01*
Y-123001D01*
X708928Y-122943D01*
Y-122866D01*
X708947Y-122703D01*
X708976Y-122511D01*
X709014Y-122309D01*
X709062Y-122088D01*
X709139Y-121876D01*
Y-121867D01*
X709149Y-121848D01*
X709168Y-121819D01*
X709187Y-121780D01*
X709235Y-121684D01*
X709312Y-121559D01*
X709408Y-121415D01*
X709524Y-121271D01*
X709658Y-121136D01*
X709822Y-121011D01*
X709831D01*
X709841Y-121002D01*
X709898Y-120964D01*
X709995Y-120915D01*
X710119Y-120858D01*
X710273Y-120810D01*
X710446Y-120762D01*
X710638Y-120723D01*
X710840Y-120714D01*
X710908D01*
X710984Y-120723D01*
X711090Y-120733D01*
X711196Y-120762D01*
X711321Y-120791D01*
X711446Y-120839D01*
X711571Y-120896D01*
X711590Y-120906D01*
X711628Y-120925D01*
X711686Y-120964D01*
X711763Y-121021D01*
X711840Y-121079D01*
X711936Y-121156D01*
X712022Y-121252D01*
X712099Y-121348D01*
Y-119080D01*
X712878D01*
Y-125394D01*
D02*
G37*
G36*
X708092Y-120723D02*
X708197Y-120742D01*
X708313Y-120781D01*
X708447Y-120819D01*
X708592Y-120887D01*
X708745Y-120973D01*
X708467Y-121684D01*
X708457Y-121675D01*
X708419Y-121655D01*
X708361Y-121627D01*
X708294Y-121598D01*
X708207Y-121569D01*
X708111Y-121540D01*
X708005Y-121521D01*
X707900Y-121511D01*
X707861D01*
X707813Y-121521D01*
X707746Y-121530D01*
X707679Y-121550D01*
X707602Y-121579D01*
X707525Y-121617D01*
X707448Y-121665D01*
X707438Y-121675D01*
X707419Y-121694D01*
X707381Y-121732D01*
X707342Y-121780D01*
X707294Y-121838D01*
X707246Y-121915D01*
X707208Y-122001D01*
X707169Y-122098D01*
X707160Y-122117D01*
X707150Y-122165D01*
X707131Y-122251D01*
X707112Y-122367D01*
X707083Y-122501D01*
X707063Y-122655D01*
X707054Y-122818D01*
X707044Y-123001D01*
Y-125394D01*
X706266D01*
Y-120819D01*
X706967D01*
Y-121502D01*
X706977Y-121492D01*
X707015Y-121434D01*
X707063Y-121348D01*
X707121Y-121252D01*
X707198Y-121146D01*
X707284Y-121040D01*
X707361Y-120944D01*
X707448Y-120877D01*
X707457Y-120867D01*
X707486Y-120848D01*
X707534Y-120829D01*
X707602Y-120791D01*
X707669Y-120762D01*
X707755Y-120742D01*
X707852Y-120723D01*
X707948Y-120714D01*
X708015D01*
X708092Y-120723D01*
D02*
G37*
G36*
X656563Y-124953D02*
X655784D01*
Y-118639D01*
X656563D01*
Y-124953D01*
D02*
G37*
G36*
X631999Y-119379D02*
X629924D01*
Y-124953D01*
X629088D01*
Y-119379D01*
X627012D01*
Y-118639D01*
X631999D01*
Y-119379D01*
D02*
G37*
G36*
X664683Y-120282D02*
X664760Y-120292D01*
X664856Y-120301D01*
X664952Y-120321D01*
X665067Y-120350D01*
X665298Y-120426D01*
X665423Y-120475D01*
X665548Y-120542D01*
X665673Y-120609D01*
X665798Y-120695D01*
X665913Y-120792D01*
X666028Y-120907D01*
X666038Y-120917D01*
X666057Y-120936D01*
X666086Y-120974D01*
X666124Y-121022D01*
X666163Y-121090D01*
X666211Y-121166D01*
X666269Y-121253D01*
X666326Y-121359D01*
X666374Y-121484D01*
X666432Y-121608D01*
X666480Y-121753D01*
X666528Y-121916D01*
X666557Y-122079D01*
X666586Y-122262D01*
X666605Y-122454D01*
X666615Y-122666D01*
Y-122675D01*
Y-122714D01*
Y-122781D01*
X666605Y-122867D01*
X663203D01*
Y-122877D01*
Y-122896D01*
X663213Y-122944D01*
Y-122992D01*
X663222Y-123060D01*
X663232Y-123127D01*
X663270Y-123300D01*
X663328Y-123482D01*
X663395Y-123675D01*
X663501Y-123867D01*
X663626Y-124030D01*
X663645Y-124049D01*
X663693Y-124088D01*
X663780Y-124155D01*
X663885Y-124222D01*
X664030Y-124299D01*
X664193Y-124367D01*
X664375Y-124405D01*
X664577Y-124424D01*
X664654D01*
X664731Y-124415D01*
X664827Y-124395D01*
X664943Y-124367D01*
X665067Y-124328D01*
X665192Y-124280D01*
X665308Y-124203D01*
X665317Y-124194D01*
X665356Y-124155D01*
X665413Y-124107D01*
X665481Y-124021D01*
X665557Y-123925D01*
X665634Y-123800D01*
X665711Y-123646D01*
X665788Y-123473D01*
X666586Y-123579D01*
Y-123588D01*
X666576Y-123607D01*
X666567Y-123646D01*
X666547Y-123694D01*
X666528Y-123751D01*
X666499Y-123819D01*
X666422Y-123982D01*
X666326Y-124155D01*
X666211Y-124338D01*
X666057Y-124520D01*
X665884Y-124674D01*
X665875D01*
X665865Y-124693D01*
X665836Y-124713D01*
X665788Y-124732D01*
X665740Y-124761D01*
X665682Y-124799D01*
X665615Y-124828D01*
X665529Y-124866D01*
X665346Y-124934D01*
X665115Y-125001D01*
X664866Y-125039D01*
X664577Y-125058D01*
X664481D01*
X664414Y-125049D01*
X664327Y-125039D01*
X664231Y-125030D01*
X664126Y-125010D01*
X664001Y-124982D01*
X663751Y-124905D01*
X663616Y-124857D01*
X663491Y-124799D01*
X663357Y-124732D01*
X663232Y-124645D01*
X663107Y-124549D01*
X662992Y-124443D01*
X662982Y-124434D01*
X662963Y-124415D01*
X662934Y-124376D01*
X662905Y-124328D01*
X662857Y-124270D01*
X662809Y-124194D01*
X662751Y-124098D01*
X662703Y-123992D01*
X662646Y-123876D01*
X662588Y-123751D01*
X662540Y-123607D01*
X662501Y-123454D01*
X662463Y-123290D01*
X662434Y-123108D01*
X662415Y-122915D01*
X662405Y-122714D01*
Y-122704D01*
Y-122666D01*
Y-122598D01*
X662415Y-122521D01*
X662425Y-122425D01*
X662434Y-122310D01*
X662454Y-122185D01*
X662482Y-122050D01*
X662550Y-121762D01*
X662598Y-121618D01*
X662655Y-121464D01*
X662723Y-121320D01*
X662799Y-121176D01*
X662886Y-121042D01*
X662992Y-120917D01*
X663001Y-120907D01*
X663021Y-120888D01*
X663049Y-120859D01*
X663097Y-120811D01*
X663155Y-120763D01*
X663232Y-120715D01*
X663309Y-120657D01*
X663405Y-120590D01*
X663511Y-120532D01*
X663626Y-120475D01*
X663751Y-120426D01*
X663895Y-120369D01*
X664039Y-120330D01*
X664193Y-120301D01*
X664356Y-120282D01*
X664529Y-120273D01*
X664616D01*
X664683Y-120282D01*
D02*
G37*
G36*
X652901D02*
X652988Y-120292D01*
X653074Y-120301D01*
X653180Y-120321D01*
X653295Y-120350D01*
X653535Y-120426D01*
X653660Y-120475D01*
X653795Y-120532D01*
X653920Y-120609D01*
X654045Y-120695D01*
X654170Y-120792D01*
X654285Y-120897D01*
X654295Y-120907D01*
X654314Y-120926D01*
X654343Y-120965D01*
X654381Y-121013D01*
X654429Y-121070D01*
X654477Y-121147D01*
X654535Y-121243D01*
X654593Y-121339D01*
X654640Y-121455D01*
X654698Y-121589D01*
X654746Y-121724D01*
X654794Y-121878D01*
X654833Y-122041D01*
X654862Y-122223D01*
X654881Y-122406D01*
X654890Y-122608D01*
Y-122617D01*
Y-122646D01*
Y-122694D01*
Y-122752D01*
X654881Y-122829D01*
Y-122915D01*
X654871Y-123012D01*
X654862Y-123117D01*
X654823Y-123338D01*
X654775Y-123569D01*
X654708Y-123800D01*
X654621Y-124001D01*
Y-124011D01*
X654612Y-124021D01*
X654573Y-124088D01*
X654506Y-124174D01*
X654420Y-124290D01*
X654314Y-124415D01*
X654179Y-124539D01*
X654026Y-124664D01*
X653843Y-124780D01*
X653833D01*
X653824Y-124789D01*
X653795Y-124809D01*
X653756Y-124818D01*
X653651Y-124866D01*
X653516Y-124914D01*
X653353Y-124972D01*
X653170Y-125010D01*
X652968Y-125049D01*
X652747Y-125058D01*
X652651D01*
X652584Y-125049D01*
X652507Y-125039D01*
X652411Y-125030D01*
X652305Y-125010D01*
X652190Y-124982D01*
X651950Y-124905D01*
X651815Y-124857D01*
X651690Y-124799D01*
X651556Y-124732D01*
X651431Y-124645D01*
X651306Y-124549D01*
X651191Y-124443D01*
X651181Y-124434D01*
X651162Y-124415D01*
X651133Y-124376D01*
X651104Y-124328D01*
X651056Y-124261D01*
X651008Y-124184D01*
X650950Y-124098D01*
X650902Y-123992D01*
X650845Y-123867D01*
X650787Y-123742D01*
X650739Y-123588D01*
X650701Y-123434D01*
X650662Y-123261D01*
X650633Y-123079D01*
X650614Y-122877D01*
X650604Y-122666D01*
Y-122646D01*
Y-122608D01*
X650614Y-122541D01*
Y-122454D01*
X650624Y-122348D01*
X650643Y-122233D01*
X650662Y-122099D01*
X650691Y-121954D01*
X650729Y-121801D01*
X650777Y-121647D01*
X650835Y-121493D01*
X650902Y-121339D01*
X650979Y-121186D01*
X651075Y-121042D01*
X651181Y-120907D01*
X651306Y-120782D01*
X651315Y-120772D01*
X651335Y-120763D01*
X651364Y-120734D01*
X651412Y-120705D01*
X651469Y-120667D01*
X651537Y-120619D01*
X651613Y-120571D01*
X651710Y-120523D01*
X651806Y-120484D01*
X651911Y-120436D01*
X652161Y-120350D01*
X652440Y-120292D01*
X652594Y-120282D01*
X652747Y-120273D01*
X652834D01*
X652901Y-120282D01*
D02*
G37*
G36*
X634767D02*
X634854Y-120292D01*
X634940Y-120301D01*
X635046Y-120321D01*
X635161Y-120350D01*
X635401Y-120426D01*
X635526Y-120475D01*
X635661Y-120532D01*
X635786Y-120609D01*
X635911Y-120695D01*
X636036Y-120792D01*
X636151Y-120897D01*
X636161Y-120907D01*
X636180Y-120926D01*
X636209Y-120965D01*
X636247Y-121013D01*
X636295Y-121070D01*
X636343Y-121147D01*
X636401Y-121243D01*
X636458Y-121339D01*
X636507Y-121455D01*
X636564Y-121589D01*
X636612Y-121724D01*
X636660Y-121878D01*
X636699Y-122041D01*
X636728Y-122223D01*
X636747Y-122406D01*
X636756Y-122608D01*
Y-122617D01*
Y-122646D01*
Y-122694D01*
Y-122752D01*
X636747Y-122829D01*
Y-122915D01*
X636737Y-123012D01*
X636728Y-123117D01*
X636689Y-123338D01*
X636641Y-123569D01*
X636574Y-123800D01*
X636487Y-124001D01*
Y-124011D01*
X636478Y-124021D01*
X636439Y-124088D01*
X636372Y-124174D01*
X636285Y-124290D01*
X636180Y-124415D01*
X636045Y-124539D01*
X635891Y-124664D01*
X635709Y-124780D01*
X635699D01*
X635690Y-124789D01*
X635661Y-124809D01*
X635622Y-124818D01*
X635517Y-124866D01*
X635382Y-124914D01*
X635219Y-124972D01*
X635036Y-125010D01*
X634834Y-125049D01*
X634613Y-125058D01*
X634517D01*
X634450Y-125049D01*
X634373Y-125039D01*
X634277Y-125030D01*
X634171Y-125010D01*
X634056Y-124982D01*
X633816Y-124905D01*
X633681Y-124857D01*
X633556Y-124799D01*
X633422Y-124732D01*
X633297Y-124645D01*
X633172Y-124549D01*
X633056Y-124443D01*
X633047Y-124434D01*
X633028Y-124415D01*
X632999Y-124376D01*
X632970Y-124328D01*
X632922Y-124261D01*
X632874Y-124184D01*
X632816Y-124098D01*
X632768Y-123992D01*
X632711Y-123867D01*
X632653Y-123742D01*
X632605Y-123588D01*
X632566Y-123434D01*
X632528Y-123261D01*
X632499Y-123079D01*
X632480Y-122877D01*
X632470Y-122666D01*
Y-122646D01*
Y-122608D01*
X632480Y-122541D01*
Y-122454D01*
X632489Y-122348D01*
X632509Y-122233D01*
X632528Y-122099D01*
X632557Y-121954D01*
X632595Y-121801D01*
X632643Y-121647D01*
X632701Y-121493D01*
X632768Y-121339D01*
X632845Y-121186D01*
X632941Y-121042D01*
X633047Y-120907D01*
X633172Y-120782D01*
X633181Y-120772D01*
X633201Y-120763D01*
X633229Y-120734D01*
X633278Y-120705D01*
X633335Y-120667D01*
X633402Y-120619D01*
X633479Y-120571D01*
X633575Y-120523D01*
X633672Y-120484D01*
X633777Y-120436D01*
X634027Y-120350D01*
X634306Y-120292D01*
X634460Y-120282D01*
X634613Y-120273D01*
X634700D01*
X634767Y-120282D01*
D02*
G37*
G36*
X721238Y-119820D02*
X717510Y-119820D01*
Y-121761D01*
X720998Y-121761D01*
Y-122501D01*
X717510Y-122501D01*
Y-124654D01*
X721382Y-124654D01*
Y-125394D01*
X716674Y-125394D01*
Y-119080D01*
X721238Y-119080D01*
Y-119820D01*
D02*
G37*
G36*
X703498Y-120723D02*
X703633Y-120733D01*
X703787Y-120752D01*
X703950Y-120771D01*
X704104Y-120810D01*
X704248Y-120858D01*
X704267Y-120867D01*
X704305Y-120877D01*
X704373Y-120915D01*
X704450Y-120954D01*
X704536Y-121002D01*
X704632Y-121060D01*
X704709Y-121127D01*
X704786Y-121204D01*
X704796Y-121213D01*
X704815Y-121242D01*
X704844Y-121281D01*
X704882Y-121348D01*
X704920Y-121425D01*
X704959Y-121511D01*
X704997Y-121617D01*
X705026Y-121732D01*
Y-121742D01*
X705036Y-121771D01*
X705045Y-121819D01*
X705055Y-121896D01*
Y-121992D01*
X705065Y-122117D01*
X705074Y-122261D01*
Y-122443D01*
Y-123481D01*
Y-123491D01*
Y-123529D01*
Y-123587D01*
Y-123654D01*
Y-123741D01*
Y-123837D01*
X705084Y-124058D01*
Y-124298D01*
X705093Y-124519D01*
X705103Y-124625D01*
Y-124711D01*
X705113Y-124788D01*
X705122Y-124855D01*
Y-124865D01*
X705132Y-124904D01*
X705141Y-124961D01*
X705161Y-125029D01*
X705190Y-125105D01*
X705228Y-125201D01*
X705314Y-125394D01*
X704507D01*
X704498Y-125384D01*
X704488Y-125355D01*
X704469Y-125298D01*
X704440Y-125230D01*
X704411Y-125144D01*
X704392Y-125048D01*
X704373Y-124942D01*
X704354Y-124817D01*
X704334Y-124836D01*
X704277Y-124875D01*
X704200Y-124942D01*
X704084Y-125019D01*
X703960Y-125115D01*
X703815Y-125201D01*
X703671Y-125278D01*
X703517Y-125346D01*
X703498Y-125355D01*
X703450Y-125365D01*
X703373Y-125394D01*
X703267Y-125423D01*
X703133Y-125451D01*
X702989Y-125471D01*
X702835Y-125490D01*
X702662Y-125499D01*
X702595D01*
X702537Y-125490D01*
X702480D01*
X702403Y-125480D01*
X702239Y-125451D01*
X702047Y-125413D01*
X701864Y-125346D01*
X701672Y-125259D01*
X701509Y-125134D01*
X701490Y-125115D01*
X701442Y-125067D01*
X701384Y-124990D01*
X701307Y-124875D01*
X701230Y-124740D01*
X701173Y-124586D01*
X701124Y-124394D01*
X701105Y-124193D01*
Y-124173D01*
Y-124135D01*
X701115Y-124067D01*
X701124Y-123991D01*
X701144Y-123895D01*
X701163Y-123789D01*
X701201Y-123683D01*
X701249Y-123577D01*
X701259Y-123568D01*
X701278Y-123529D01*
X701307Y-123481D01*
X701355Y-123414D01*
X701413Y-123347D01*
X701490Y-123270D01*
X701567Y-123203D01*
X701653Y-123135D01*
X701663Y-123126D01*
X701701Y-123107D01*
X701749Y-123078D01*
X701816Y-123039D01*
X701903Y-122991D01*
X701989Y-122953D01*
X702095Y-122914D01*
X702210Y-122876D01*
X702220D01*
X702258Y-122866D01*
X702307Y-122857D01*
X702383Y-122837D01*
X702480Y-122818D01*
X702604Y-122799D01*
X702739Y-122780D01*
X702902Y-122761D01*
X702912D01*
X702941Y-122751D01*
X702989D01*
X703056Y-122741D01*
X703133Y-122732D01*
X703220Y-122722D01*
X703431Y-122684D01*
X703652Y-122645D01*
X703883Y-122607D01*
X704104Y-122549D01*
X704200Y-122520D01*
X704286Y-122492D01*
Y-122482D01*
Y-122463D01*
X704296Y-122405D01*
Y-122338D01*
Y-122309D01*
Y-122290D01*
Y-122280D01*
Y-122271D01*
Y-122213D01*
X704286Y-122126D01*
X704267Y-122030D01*
X704238Y-121924D01*
X704200Y-121809D01*
X704152Y-121713D01*
X704075Y-121627D01*
X704065Y-121617D01*
X704017Y-121588D01*
X703950Y-121540D01*
X703854Y-121492D01*
X703729Y-121444D01*
X703575Y-121396D01*
X703393Y-121367D01*
X703191Y-121358D01*
X703104D01*
X703008Y-121367D01*
X702883Y-121377D01*
X702749Y-121405D01*
X702624Y-121434D01*
X702489Y-121482D01*
X702383Y-121550D01*
X702374Y-121559D01*
X702345Y-121588D01*
X702297Y-121636D01*
X702239Y-121704D01*
X702172Y-121800D01*
X702114Y-121915D01*
X702047Y-122059D01*
X701999Y-122222D01*
X701240Y-122117D01*
Y-122107D01*
X701249Y-122098D01*
X701259Y-122040D01*
X701288Y-121953D01*
X701317Y-121838D01*
X701365Y-121713D01*
X701422Y-121588D01*
X701490Y-121454D01*
X701576Y-121338D01*
X701586Y-121329D01*
X701624Y-121290D01*
X701672Y-121233D01*
X701749Y-121165D01*
X701845Y-121098D01*
X701970Y-121021D01*
X702105Y-120944D01*
X702258Y-120877D01*
X702268D01*
X702278Y-120867D01*
X702307Y-120858D01*
X702335Y-120848D01*
X702431Y-120829D01*
X702556Y-120791D01*
X702710Y-120762D01*
X702883Y-120742D01*
X703085Y-120723D01*
X703296Y-120714D01*
X703393D01*
X703498Y-120723D01*
D02*
G37*
G36*
X693196Y-119089D02*
X693263D01*
X693427Y-119099D01*
X693610Y-119128D01*
X693802Y-119157D01*
X693994Y-119205D01*
X694167Y-119272D01*
X694176D01*
X694186Y-119282D01*
X694244Y-119311D01*
X694321Y-119359D01*
X694417Y-119416D01*
X694532Y-119503D01*
X694647Y-119608D01*
X694753Y-119724D01*
X694859Y-119868D01*
X694868Y-119887D01*
X694897Y-119935D01*
X694936Y-120022D01*
X694984Y-120127D01*
X695032Y-120252D01*
X695070Y-120387D01*
X695099Y-120541D01*
X695109Y-120704D01*
Y-120723D01*
Y-120771D01*
X695099Y-120848D01*
X695080Y-120954D01*
X695051Y-121069D01*
X695013Y-121194D01*
X694965Y-121338D01*
X694888Y-121473D01*
X694878Y-121492D01*
X694849Y-121530D01*
X694792Y-121598D01*
X694724Y-121675D01*
X694628Y-121771D01*
X694513Y-121857D01*
X694378Y-121953D01*
X694215Y-122040D01*
X694225D01*
X694244Y-122049D01*
X694273Y-122059D01*
X694311Y-122069D01*
X694417Y-122117D01*
X694542Y-122174D01*
X694686Y-122261D01*
X694830Y-122357D01*
X694974Y-122472D01*
X695099Y-122616D01*
X695109Y-122636D01*
X695147Y-122684D01*
X695195Y-122770D01*
X695262Y-122886D01*
X695320Y-123030D01*
X695368Y-123183D01*
X695407Y-123366D01*
X695416Y-123568D01*
Y-123587D01*
Y-123645D01*
X695407Y-123731D01*
X695397Y-123837D01*
X695368Y-123962D01*
X695339Y-124106D01*
X695291Y-124250D01*
X695224Y-124394D01*
X695214Y-124414D01*
X695195Y-124461D01*
X695147Y-124529D01*
X695099Y-124615D01*
X695032Y-124711D01*
X694955Y-124808D01*
X694859Y-124904D01*
X694763Y-124990D01*
X694753Y-125000D01*
X694715Y-125019D01*
X694657Y-125057D01*
X694570Y-125105D01*
X694474Y-125153D01*
X694349Y-125201D01*
X694215Y-125250D01*
X694071Y-125298D01*
X694052D01*
X693994Y-125317D01*
X693907Y-125326D01*
X693792Y-125346D01*
X693638Y-125365D01*
X693465Y-125374D01*
X693273Y-125394D01*
X690650D01*
Y-119080D01*
X693129D01*
X693196Y-119089D01*
D02*
G37*
G36*
X734260Y-120723D02*
X734337Y-120733D01*
X734433Y-120742D01*
X734529Y-120762D01*
X734644Y-120791D01*
X734875Y-120867D01*
X735000Y-120915D01*
X735125Y-120983D01*
X735250Y-121050D01*
X735374Y-121136D01*
X735490Y-121233D01*
X735605Y-121348D01*
X735615Y-121358D01*
X735634Y-121377D01*
X735663Y-121415D01*
X735701Y-121463D01*
X735740Y-121530D01*
X735788Y-121607D01*
X735845Y-121694D01*
X735903Y-121800D01*
X735951Y-121924D01*
X736009Y-122049D01*
X736057Y-122194D01*
X736105Y-122357D01*
X736134Y-122520D01*
X736163Y-122703D01*
X736182Y-122895D01*
X736191Y-123107D01*
Y-123116D01*
Y-123155D01*
Y-123222D01*
X736182Y-123308D01*
X732780D01*
Y-123318D01*
Y-123337D01*
X732790Y-123385D01*
Y-123433D01*
X732799Y-123501D01*
X732809Y-123568D01*
X732847Y-123741D01*
X732905Y-123923D01*
X732972Y-124116D01*
X733078Y-124308D01*
X733203Y-124471D01*
X733222Y-124490D01*
X733270Y-124529D01*
X733357Y-124596D01*
X733462Y-124663D01*
X733606Y-124740D01*
X733770Y-124808D01*
X733952Y-124846D01*
X734154Y-124865D01*
X734231D01*
X734308Y-124855D01*
X734404Y-124836D01*
X734519Y-124808D01*
X734644Y-124769D01*
X734769Y-124721D01*
X734884Y-124644D01*
X734894Y-124635D01*
X734933Y-124596D01*
X734990Y-124548D01*
X735057Y-124461D01*
X735134Y-124365D01*
X735211Y-124241D01*
X735288Y-124087D01*
X735365Y-123914D01*
X736163Y-124020D01*
Y-124029D01*
X736153Y-124048D01*
X736143Y-124087D01*
X736124Y-124135D01*
X736105Y-124192D01*
X736076Y-124260D01*
X735999Y-124423D01*
X735903Y-124596D01*
X735788Y-124779D01*
X735634Y-124961D01*
X735461Y-125115D01*
X735451D01*
X735442Y-125134D01*
X735413Y-125153D01*
X735365Y-125173D01*
X735317Y-125201D01*
X735259Y-125240D01*
X735192Y-125269D01*
X735106Y-125307D01*
X734923Y-125374D01*
X734692Y-125442D01*
X734442Y-125480D01*
X734154Y-125499D01*
X734058D01*
X733991Y-125490D01*
X733904Y-125480D01*
X733808Y-125471D01*
X733702Y-125451D01*
X733577Y-125423D01*
X733328Y-125346D01*
X733193Y-125298D01*
X733068Y-125240D01*
X732934Y-125173D01*
X732809Y-125086D01*
X732684Y-124990D01*
X732568Y-124884D01*
X732559Y-124875D01*
X732540Y-124855D01*
X732511Y-124817D01*
X732482Y-124769D01*
X732434Y-124711D01*
X732386Y-124635D01*
X732328Y-124538D01*
X732280Y-124433D01*
X732223Y-124317D01*
X732165Y-124192D01*
X732117Y-124048D01*
X732078Y-123895D01*
X732040Y-123731D01*
X732011Y-123549D01*
X731992Y-123356D01*
X731982Y-123155D01*
Y-123145D01*
Y-123107D01*
Y-123039D01*
X731992Y-122962D01*
X732001Y-122866D01*
X732011Y-122751D01*
X732030Y-122626D01*
X732059Y-122492D01*
X732126Y-122203D01*
X732174Y-122059D01*
X732232Y-121905D01*
X732299Y-121761D01*
X732376Y-121617D01*
X732463Y-121482D01*
X732568Y-121358D01*
X732578Y-121348D01*
X732597Y-121329D01*
X732626Y-121300D01*
X732674Y-121252D01*
X732732Y-121204D01*
X732809Y-121156D01*
X732886Y-121098D01*
X732982Y-121031D01*
X733087Y-120973D01*
X733203Y-120915D01*
X733328Y-120867D01*
X733472Y-120810D01*
X733616Y-120771D01*
X733770Y-120742D01*
X733933Y-120723D01*
X734106Y-120714D01*
X734193D01*
X734260Y-120723D01*
D02*
G37*
G36*
X698472Y-120723D02*
X698559Y-120733D01*
X698645Y-120742D01*
X698751Y-120762D01*
X698866Y-120791D01*
X699106Y-120867D01*
X699231Y-120915D01*
X699366Y-120973D01*
X699491Y-121050D01*
X699616Y-121136D01*
X699741Y-121233D01*
X699856Y-121338D01*
X699866Y-121348D01*
X699885Y-121367D01*
X699914Y-121405D01*
X699952Y-121454D01*
X700000Y-121511D01*
X700048Y-121588D01*
X700106Y-121684D01*
X700164Y-121780D01*
X700212Y-121896D01*
X700269Y-122030D01*
X700317Y-122165D01*
X700365Y-122318D01*
X700404Y-122482D01*
X700433Y-122664D01*
X700452Y-122847D01*
X700461Y-123049D01*
Y-123058D01*
Y-123087D01*
Y-123135D01*
Y-123193D01*
X700452Y-123270D01*
Y-123356D01*
X700442Y-123452D01*
X700433Y-123558D01*
X700394Y-123779D01*
X700346Y-124010D01*
X700279Y-124241D01*
X700192Y-124442D01*
Y-124452D01*
X700183Y-124461D01*
X700144Y-124529D01*
X700077Y-124615D01*
X699991Y-124731D01*
X699885Y-124855D01*
X699750Y-124980D01*
X699597Y-125105D01*
X699414Y-125221D01*
X699404D01*
X699395Y-125230D01*
X699366Y-125250D01*
X699327Y-125259D01*
X699222Y-125307D01*
X699087Y-125355D01*
X698924Y-125413D01*
X698741Y-125451D01*
X698539Y-125490D01*
X698318Y-125499D01*
X698222D01*
X698155Y-125490D01*
X698078Y-125480D01*
X697982Y-125471D01*
X697876Y-125451D01*
X697761Y-125423D01*
X697521Y-125346D01*
X697386Y-125298D01*
X697261Y-125240D01*
X697127Y-125173D01*
X697002Y-125086D01*
X696877Y-124990D01*
X696762Y-124884D01*
X696752Y-124875D01*
X696733Y-124855D01*
X696704Y-124817D01*
X696675Y-124769D01*
X696627Y-124702D01*
X696579Y-124625D01*
X696521Y-124538D01*
X696473Y-124433D01*
X696416Y-124308D01*
X696358Y-124183D01*
X696310Y-124029D01*
X696272Y-123875D01*
X696233Y-123702D01*
X696204Y-123520D01*
X696185Y-123318D01*
X696175Y-123107D01*
Y-123087D01*
Y-123049D01*
X696185Y-122982D01*
Y-122895D01*
X696195Y-122789D01*
X696214Y-122674D01*
X696233Y-122539D01*
X696262Y-122395D01*
X696300Y-122242D01*
X696348Y-122088D01*
X696406Y-121934D01*
X696473Y-121780D01*
X696550Y-121627D01*
X696646Y-121482D01*
X696752Y-121348D01*
X696877Y-121223D01*
X696886Y-121213D01*
X696906Y-121204D01*
X696935Y-121175D01*
X696983Y-121146D01*
X697040Y-121108D01*
X697108Y-121060D01*
X697184Y-121011D01*
X697281Y-120964D01*
X697377Y-120925D01*
X697482Y-120877D01*
X697732Y-120791D01*
X698011Y-120733D01*
X698165Y-120723D01*
X698318Y-120714D01*
X698405D01*
X698472Y-120723D01*
D02*
G37*
G36*
X729147Y-120723D02*
X729214Y-120733D01*
X729301Y-120752D01*
X729484Y-120800D01*
X729589Y-120829D01*
X729695Y-120877D01*
X729810Y-120925D01*
X729926Y-120992D01*
X730031Y-121069D01*
X730147Y-121156D01*
X730252Y-121261D01*
X730348Y-121377D01*
Y-120819D01*
X731060D01*
Y-124779D01*
Y-124788D01*
Y-124827D01*
Y-124875D01*
Y-124952D01*
X731050Y-125038D01*
Y-125134D01*
X731040Y-125250D01*
X731031Y-125365D01*
X731002Y-125605D01*
X730964Y-125855D01*
X730915Y-126086D01*
X730877Y-126191D01*
X730839Y-126278D01*
Y-126287D01*
X730829Y-126297D01*
X730800Y-126355D01*
X730743Y-126432D01*
X730675Y-126537D01*
X730579Y-126653D01*
X730464Y-126768D01*
X730320Y-126883D01*
X730156Y-126989D01*
X730147D01*
X730137Y-126999D01*
X730108Y-127008D01*
X730070Y-127027D01*
X729974Y-127075D01*
X729839Y-127114D01*
X729666Y-127162D01*
X729464Y-127210D01*
X729243Y-127239D01*
X728994Y-127248D01*
X728917D01*
X728859Y-127239D01*
X728792D01*
X728705Y-127229D01*
X728523Y-127200D01*
X728311Y-127152D01*
X728090Y-127095D01*
X727869Y-126999D01*
X727667Y-126874D01*
X727658D01*
X727648Y-126854D01*
X727590Y-126806D01*
X727514Y-126720D01*
X727418Y-126595D01*
X727331Y-126441D01*
X727254Y-126249D01*
X727206Y-126028D01*
X727187Y-125903D01*
Y-125768D01*
X727936Y-125874D01*
Y-125893D01*
X727946Y-125932D01*
X727965Y-125989D01*
X727985Y-126066D01*
X728023Y-126153D01*
X728071Y-126239D01*
X728129Y-126316D01*
X728205Y-126383D01*
X728215Y-126393D01*
X728263Y-126422D01*
X728321Y-126451D01*
X728417Y-126489D01*
X728523Y-126537D01*
X728657Y-126566D01*
X728821Y-126595D01*
X728994Y-126604D01*
X729080D01*
X729176Y-126595D01*
X729301Y-126576D01*
X729436Y-126547D01*
X729570Y-126508D01*
X729705Y-126460D01*
X729820Y-126383D01*
X729830Y-126374D01*
X729868Y-126345D01*
X729916Y-126297D01*
X729983Y-126230D01*
X730051Y-126143D01*
X730108Y-126047D01*
X730166Y-125922D01*
X730214Y-125788D01*
Y-125778D01*
X730224Y-125740D01*
X730233Y-125672D01*
X730243Y-125576D01*
X730262Y-125442D01*
Y-125355D01*
X730272Y-125269D01*
Y-125163D01*
Y-125057D01*
Y-124932D01*
Y-124798D01*
X730262Y-124808D01*
X730252Y-124827D01*
X730224Y-124855D01*
X730185Y-124894D01*
X730127Y-124932D01*
X730070Y-124990D01*
X729926Y-125096D01*
X729743Y-125201D01*
X729522Y-125298D01*
X729407Y-125336D01*
X729282Y-125365D01*
X729147Y-125384D01*
X729013Y-125394D01*
X728926D01*
X728859Y-125384D01*
X728782Y-125374D01*
X728686Y-125355D01*
X728590Y-125336D01*
X728475Y-125307D01*
X728359Y-125278D01*
X728244Y-125230D01*
X728119Y-125173D01*
X728004Y-125105D01*
X727879Y-125029D01*
X727763Y-124942D01*
X727658Y-124836D01*
X727552Y-124721D01*
X727542Y-124711D01*
X727533Y-124692D01*
X727504Y-124654D01*
X727475Y-124596D01*
X727437Y-124529D01*
X727389Y-124452D01*
X727341Y-124365D01*
X727292Y-124260D01*
X727245Y-124144D01*
X727196Y-124020D01*
X727158Y-123885D01*
X727110Y-123741D01*
X727052Y-123433D01*
X727043Y-123260D01*
X727033Y-123087D01*
Y-123078D01*
Y-123058D01*
Y-123020D01*
Y-122972D01*
X727043Y-122914D01*
Y-122847D01*
X727062Y-122693D01*
X727091Y-122501D01*
X727129Y-122299D01*
X727187Y-122088D01*
X727264Y-121876D01*
Y-121867D01*
X727273Y-121848D01*
X727292Y-121819D01*
X727312Y-121780D01*
X727360Y-121684D01*
X727437Y-121559D01*
X727542Y-121425D01*
X727658Y-121281D01*
X727792Y-121146D01*
X727956Y-121021D01*
X727965D01*
X727975Y-121011D01*
X728004Y-120992D01*
X728032Y-120973D01*
X728129Y-120925D01*
X728254Y-120867D01*
X728417Y-120810D01*
X728590Y-120762D01*
X728792Y-120723D01*
X729013Y-120714D01*
X729090D01*
X729147Y-120723D01*
D02*
G37*
%LPC*%
G36*
X659571Y-120917D02*
X659426D01*
X659388Y-120926D01*
X659292Y-120936D01*
X659176Y-120965D01*
X659042Y-121022D01*
X658898Y-121099D01*
X658754Y-121195D01*
X658686Y-121263D01*
X658619Y-121339D01*
X658600Y-121359D01*
X658590Y-121388D01*
X658561Y-121416D01*
X658542Y-121464D01*
X658513Y-121522D01*
X658475Y-121589D01*
X658446Y-121666D01*
X658417Y-121753D01*
X658379Y-121849D01*
X658350Y-121964D01*
X658331Y-122079D01*
X658302Y-122214D01*
X658292Y-122358D01*
X658273Y-122512D01*
Y-122675D01*
Y-122685D01*
Y-122714D01*
Y-122762D01*
X658283Y-122819D01*
Y-122896D01*
X658292Y-122973D01*
X658321Y-123175D01*
X658360Y-123386D01*
X658427Y-123607D01*
X658513Y-123809D01*
X658571Y-123905D01*
X658638Y-123992D01*
X658658Y-124011D01*
X658706Y-124059D01*
X658782Y-124126D01*
X658888Y-124203D01*
X659013Y-124290D01*
X659157Y-124357D01*
X659330Y-124405D01*
X659417Y-124415D01*
X659513Y-124424D01*
X659561D01*
X659599Y-124415D01*
X659695Y-124405D01*
X659811Y-124376D01*
X659945Y-124319D01*
X660089Y-124251D01*
X660243Y-124145D01*
X660311Y-124088D01*
X660378Y-124011D01*
Y-124001D01*
X660397Y-123992D01*
X660406Y-123963D01*
X660435Y-123934D01*
X660464Y-123886D01*
X660493Y-123838D01*
X660522Y-123771D01*
X660560Y-123694D01*
X660589Y-123617D01*
X660618Y-123521D01*
X660647Y-123415D01*
X660676Y-123300D01*
X660705Y-123175D01*
X660714Y-123040D01*
X660733Y-122896D01*
Y-122742D01*
Y-122733D01*
Y-122704D01*
Y-122656D01*
X660724Y-122589D01*
Y-122512D01*
X660714Y-122425D01*
X660685Y-122214D01*
X660647Y-121993D01*
X660579Y-121762D01*
X660493Y-121541D01*
X660435Y-121445D01*
X660368Y-121359D01*
Y-121349D01*
X660349Y-121339D01*
X660301Y-121291D01*
X660224Y-121214D01*
X660118Y-121138D01*
X659993Y-121061D01*
X659840Y-120984D01*
X659667Y-120936D01*
X659571Y-120917D01*
D02*
G37*
G36*
X639707Y-120878D02*
X639572D01*
X639534Y-120888D01*
X639447Y-120907D01*
X639322Y-120936D01*
X639188Y-120993D01*
X639044Y-121080D01*
X638967Y-121128D01*
X638890Y-121195D01*
X638813Y-121263D01*
X638746Y-121349D01*
Y-121359D01*
X638726Y-121368D01*
X638707Y-121397D01*
X638688Y-121435D01*
X638659Y-121484D01*
X638630Y-121541D01*
X638592Y-121608D01*
X638563Y-121685D01*
X638525Y-121782D01*
X638486Y-121878D01*
X638457Y-121993D01*
X638428Y-122108D01*
X638409Y-122243D01*
X638390Y-122387D01*
X638371Y-122531D01*
Y-122694D01*
Y-122704D01*
Y-122733D01*
Y-122781D01*
X638380Y-122839D01*
Y-122915D01*
X638390Y-122992D01*
X638419Y-123185D01*
X638457Y-123406D01*
X638515Y-123617D01*
X638601Y-123819D01*
X638659Y-123915D01*
X638717Y-124001D01*
X638736Y-124021D01*
X638784Y-124069D01*
X638861Y-124136D01*
X638957Y-124213D01*
X639082Y-124290D01*
X639236Y-124357D01*
X639399Y-124405D01*
X639486Y-124415D01*
X639582Y-124424D01*
X639630D01*
X639668Y-124415D01*
X639764Y-124405D01*
X639880Y-124367D01*
X640024Y-124319D01*
X640168Y-124242D01*
X640312Y-124136D01*
X640389Y-124069D01*
X640456Y-123992D01*
Y-123982D01*
X640475Y-123973D01*
X640495Y-123944D01*
X640514Y-123905D01*
X640543Y-123857D01*
X640571Y-123800D01*
X640610Y-123732D01*
X640648Y-123655D01*
X640677Y-123569D01*
X640716Y-123463D01*
X640744Y-123357D01*
X640773Y-123233D01*
X640793Y-123098D01*
X640812Y-122954D01*
X640831Y-122800D01*
Y-122637D01*
Y-122627D01*
Y-122598D01*
Y-122550D01*
X640821Y-122493D01*
Y-122416D01*
X640812Y-122329D01*
X640783Y-122137D01*
X640744Y-121926D01*
X640677Y-121705D01*
X640591Y-121503D01*
X640533Y-121407D01*
X640466Y-121320D01*
Y-121311D01*
X640447Y-121301D01*
X640399Y-121253D01*
X640331Y-121176D01*
X640226Y-121099D01*
X640101Y-121022D01*
X639957Y-120945D01*
X639793Y-120897D01*
X639707Y-120878D01*
D02*
G37*
G36*
X724246Y-121358D02*
X724102D01*
X724064Y-121367D01*
X723968Y-121377D01*
X723852Y-121405D01*
X723718Y-121463D01*
X723573Y-121540D01*
X723429Y-121636D01*
X723362Y-121703D01*
X723295Y-121780D01*
X723276Y-121800D01*
X723266Y-121828D01*
X723237Y-121857D01*
X723218Y-121905D01*
X723189Y-121963D01*
X723151Y-122030D01*
X723122Y-122107D01*
X723093Y-122194D01*
X723055Y-122290D01*
X723026Y-122405D01*
X723006Y-122520D01*
X722978Y-122655D01*
X722968Y-122799D01*
X722949Y-122953D01*
Y-123116D01*
Y-123126D01*
Y-123155D01*
Y-123203D01*
X722958Y-123260D01*
Y-123337D01*
X722968Y-123414D01*
X722997Y-123616D01*
X723035Y-123827D01*
X723103Y-124048D01*
X723189Y-124250D01*
X723247Y-124346D01*
X723314Y-124433D01*
X723333Y-124452D01*
X723381Y-124500D01*
X723458Y-124567D01*
X723564Y-124644D01*
X723689Y-124731D01*
X723833Y-124798D01*
X724006Y-124846D01*
X724092Y-124855D01*
X724189Y-124865D01*
X724237D01*
X724275Y-124855D01*
X724371Y-124846D01*
X724486Y-124817D01*
X724621Y-124759D01*
X724765Y-124692D01*
X724919Y-124586D01*
X724986Y-124529D01*
X725053Y-124452D01*
Y-124442D01*
X725073Y-124433D01*
X725082Y-124404D01*
X725111Y-124375D01*
X725140Y-124327D01*
X725169Y-124279D01*
X725198Y-124212D01*
X725236Y-124135D01*
X725265Y-124058D01*
X725294Y-123962D01*
X725322Y-123856D01*
X725351Y-123741D01*
X725380Y-123616D01*
X725390Y-123481D01*
X725409Y-123337D01*
Y-123183D01*
Y-123174D01*
Y-123145D01*
Y-123097D01*
X725399Y-123030D01*
Y-122953D01*
X725390Y-122866D01*
X725361Y-122655D01*
X725322Y-122434D01*
X725255Y-122203D01*
X725169Y-121982D01*
X725111Y-121886D01*
X725044Y-121800D01*
Y-121790D01*
X725025Y-121780D01*
X724976Y-121732D01*
X724900Y-121655D01*
X724794Y-121579D01*
X724669Y-121502D01*
X724515Y-121425D01*
X724342Y-121377D01*
X724246Y-121358D01*
D02*
G37*
G36*
X711013Y-121358D02*
X710869D01*
X710831Y-121367D01*
X710735Y-121377D01*
X710619Y-121405D01*
X710485Y-121463D01*
X710340Y-121540D01*
X710196Y-121636D01*
X710129Y-121704D01*
X710062Y-121780D01*
X710043Y-121800D01*
X710033Y-121828D01*
X710004Y-121857D01*
X709985Y-121905D01*
X709956Y-121963D01*
X709918Y-122030D01*
X709889Y-122107D01*
X709860Y-122194D01*
X709822Y-122290D01*
X709793Y-122405D01*
X709773Y-122520D01*
X709745Y-122655D01*
X709735Y-122799D01*
X709716Y-122953D01*
Y-123116D01*
Y-123126D01*
Y-123155D01*
Y-123203D01*
X709726Y-123260D01*
Y-123337D01*
X709735Y-123414D01*
X709764Y-123616D01*
X709802Y-123827D01*
X709870Y-124048D01*
X709956Y-124250D01*
X710014Y-124346D01*
X710081Y-124433D01*
X710100Y-124452D01*
X710148Y-124500D01*
X710225Y-124567D01*
X710331Y-124644D01*
X710456Y-124731D01*
X710600Y-124798D01*
X710773Y-124846D01*
X710859Y-124855D01*
X710955Y-124865D01*
X711004D01*
X711042Y-124855D01*
X711138Y-124846D01*
X711253Y-124817D01*
X711388Y-124759D01*
X711532Y-124692D01*
X711686Y-124586D01*
X711753Y-124529D01*
X711820Y-124452D01*
Y-124442D01*
X711840Y-124433D01*
X711849Y-124404D01*
X711878Y-124375D01*
X711907Y-124327D01*
X711936Y-124279D01*
X711965Y-124212D01*
X712003Y-124135D01*
X712032Y-124058D01*
X712061Y-123962D01*
X712089Y-123856D01*
X712118Y-123741D01*
X712147Y-123616D01*
X712157Y-123481D01*
X712176Y-123337D01*
Y-123183D01*
Y-123174D01*
Y-123145D01*
Y-123097D01*
X712166Y-123030D01*
Y-122953D01*
X712157Y-122866D01*
X712128Y-122655D01*
X712089Y-122434D01*
X712022Y-122203D01*
X711936Y-121982D01*
X711878Y-121886D01*
X711811Y-121800D01*
Y-121790D01*
X711792Y-121780D01*
X711744Y-121732D01*
X711667Y-121655D01*
X711561Y-121579D01*
X711436Y-121502D01*
X711282Y-121425D01*
X711109Y-121377D01*
X711013Y-121358D01*
D02*
G37*
G36*
X664539Y-120907D02*
X664491D01*
X664452Y-120917D01*
X664347Y-120926D01*
X664222Y-120955D01*
X664078Y-120993D01*
X663933Y-121061D01*
X663780Y-121147D01*
X663635Y-121272D01*
X663616Y-121291D01*
X663578Y-121339D01*
X663520Y-121416D01*
X663453Y-121532D01*
X663386Y-121666D01*
X663318Y-121829D01*
X663270Y-122022D01*
X663241Y-122233D01*
X665798D01*
Y-122223D01*
Y-122204D01*
X665788Y-122176D01*
Y-122137D01*
X665769Y-122031D01*
X665740Y-121906D01*
X665702Y-121772D01*
X665644Y-121628D01*
X665586Y-121484D01*
X665500Y-121368D01*
Y-121359D01*
X665481Y-121349D01*
X665433Y-121291D01*
X665346Y-121224D01*
X665240Y-121138D01*
X665096Y-121051D01*
X664933Y-120974D01*
X664750Y-120926D01*
X664645Y-120917D01*
X664539Y-120907D01*
D02*
G37*
G36*
X652853Y-120917D02*
X652690D01*
X652651Y-120926D01*
X652546Y-120936D01*
X652411Y-120974D01*
X652257Y-121022D01*
X652094Y-121099D01*
X651931Y-121214D01*
X651854Y-121282D01*
X651777Y-121359D01*
X651757Y-121378D01*
X651738Y-121407D01*
X651719Y-121435D01*
X651690Y-121484D01*
X651661Y-121541D01*
X651623Y-121608D01*
X651594Y-121685D01*
X651556Y-121772D01*
X651517Y-121868D01*
X651488Y-121974D01*
X651460Y-122099D01*
X651440Y-122223D01*
X651421Y-122368D01*
X651402Y-122512D01*
Y-122675D01*
Y-122685D01*
Y-122714D01*
Y-122762D01*
X651412Y-122819D01*
Y-122887D01*
X651421Y-122973D01*
X651450Y-123165D01*
X651498Y-123377D01*
X651556Y-123598D01*
X651652Y-123809D01*
X651710Y-123905D01*
X651777Y-123992D01*
X651796Y-124011D01*
X651844Y-124059D01*
X651931Y-124126D01*
X652046Y-124203D01*
X652180Y-124290D01*
X652353Y-124357D01*
X652536Y-124405D01*
X652642Y-124415D01*
X652747Y-124424D01*
X652805D01*
X652844Y-124415D01*
X652949Y-124405D01*
X653084Y-124367D01*
X653237Y-124319D01*
X653401Y-124242D01*
X653555Y-124136D01*
X653631Y-124069D01*
X653708Y-123992D01*
Y-123982D01*
X653728Y-123973D01*
X653747Y-123944D01*
X653766Y-123905D01*
X653795Y-123857D01*
X653833Y-123800D01*
X653862Y-123732D01*
X653901Y-123655D01*
X653939Y-123569D01*
X653968Y-123473D01*
X654006Y-123357D01*
X654035Y-123233D01*
X654054Y-123108D01*
X654074Y-122964D01*
X654093Y-122810D01*
Y-122646D01*
Y-122637D01*
Y-122608D01*
Y-122570D01*
X654083Y-122502D01*
Y-122435D01*
X654074Y-122358D01*
X654045Y-122166D01*
X653997Y-121964D01*
X653929Y-121743D01*
X653833Y-121541D01*
X653699Y-121359D01*
Y-121349D01*
X653680Y-121339D01*
X653631Y-121291D01*
X653545Y-121214D01*
X653439Y-121138D01*
X653295Y-121061D01*
X653132Y-120984D01*
X652949Y-120936D01*
X652853Y-120917D01*
D02*
G37*
G36*
X634719D02*
X634556D01*
X634517Y-120926D01*
X634411Y-120936D01*
X634277Y-120974D01*
X634123Y-121022D01*
X633960Y-121099D01*
X633797Y-121214D01*
X633720Y-121282D01*
X633643Y-121359D01*
X633624Y-121378D01*
X633604Y-121407D01*
X633585Y-121435D01*
X633556Y-121484D01*
X633527Y-121541D01*
X633489Y-121608D01*
X633460Y-121685D01*
X633422Y-121772D01*
X633383Y-121868D01*
X633354Y-121974D01*
X633326Y-122099D01*
X633306Y-122223D01*
X633287Y-122368D01*
X633268Y-122512D01*
Y-122675D01*
Y-122685D01*
Y-122714D01*
Y-122762D01*
X633278Y-122819D01*
Y-122887D01*
X633287Y-122973D01*
X633316Y-123165D01*
X633364Y-123377D01*
X633422Y-123598D01*
X633518Y-123809D01*
X633575Y-123905D01*
X633643Y-123992D01*
X633662Y-124011D01*
X633710Y-124059D01*
X633797Y-124126D01*
X633912Y-124203D01*
X634046Y-124290D01*
X634219Y-124357D01*
X634402Y-124405D01*
X634508Y-124415D01*
X634613Y-124424D01*
X634671D01*
X634709Y-124415D01*
X634815Y-124405D01*
X634950Y-124367D01*
X635103Y-124319D01*
X635267Y-124242D01*
X635421Y-124136D01*
X635497Y-124069D01*
X635574Y-123992D01*
Y-123982D01*
X635594Y-123973D01*
X635613Y-123944D01*
X635632Y-123905D01*
X635661Y-123857D01*
X635699Y-123800D01*
X635728Y-123732D01*
X635767Y-123655D01*
X635805Y-123569D01*
X635834Y-123473D01*
X635872Y-123357D01*
X635901Y-123233D01*
X635920Y-123108D01*
X635940Y-122964D01*
X635959Y-122810D01*
Y-122646D01*
Y-122637D01*
Y-122608D01*
Y-122570D01*
X635949Y-122502D01*
Y-122435D01*
X635940Y-122358D01*
X635911Y-122166D01*
X635863Y-121964D01*
X635795Y-121743D01*
X635699Y-121541D01*
X635565Y-121359D01*
Y-121349D01*
X635545Y-121339D01*
X635497Y-121291D01*
X635411Y-121214D01*
X635305Y-121138D01*
X635161Y-121061D01*
X634998Y-120984D01*
X634815Y-120936D01*
X634719Y-120917D01*
D02*
G37*
G36*
X704286Y-123097D02*
X704267Y-123107D01*
X704238Y-123116D01*
X704209Y-123126D01*
X704161Y-123145D01*
X704104Y-123155D01*
X704046Y-123174D01*
X703969Y-123203D01*
X703883Y-123222D01*
X703787Y-123241D01*
X703690Y-123270D01*
X703575Y-123299D01*
X703450Y-123318D01*
X703316Y-123347D01*
X703171Y-123366D01*
X703018Y-123395D01*
X702998D01*
X702941Y-123404D01*
X702854Y-123424D01*
X702749Y-123443D01*
X702528Y-123491D01*
X702422Y-123520D01*
X702335Y-123549D01*
X702326D01*
X702307Y-123568D01*
X702268Y-123587D01*
X702230Y-123616D01*
X702134Y-123693D01*
X702037Y-123808D01*
Y-123818D01*
X702018Y-123837D01*
X702009Y-123866D01*
X701989Y-123914D01*
X701951Y-124029D01*
X701941Y-124096D01*
X701932Y-124173D01*
Y-124183D01*
Y-124221D01*
X701941Y-124279D01*
X701961Y-124356D01*
X701989Y-124433D01*
X702028Y-124519D01*
X702085Y-124606D01*
X702162Y-124692D01*
X702172Y-124702D01*
X702210Y-124721D01*
X702258Y-124759D01*
X702335Y-124788D01*
X702431Y-124827D01*
X702556Y-124865D01*
X702691Y-124884D01*
X702854Y-124894D01*
X702931D01*
X703008Y-124884D01*
X703123Y-124865D01*
X703239Y-124846D01*
X703373Y-124817D01*
X703508Y-124769D01*
X703642Y-124702D01*
X703661Y-124692D01*
X703700Y-124663D01*
X703767Y-124625D01*
X703844Y-124558D01*
X703921Y-124490D01*
X704007Y-124394D01*
X704094Y-124289D01*
X704161Y-124164D01*
X704171Y-124154D01*
X704180Y-124116D01*
X704200Y-124058D01*
X704228Y-123971D01*
X704248Y-123856D01*
X704267Y-123722D01*
X704277Y-123568D01*
X704286Y-123385D01*
Y-123097D01*
D02*
G37*
G36*
X692975Y-119820D02*
X691486D01*
Y-121742D01*
X693033D01*
X693148Y-121732D01*
X693283Y-121723D01*
X693417Y-121713D01*
X693533Y-121694D01*
X693638Y-121675D01*
X693648Y-121665D01*
X693686Y-121655D01*
X693744Y-121636D01*
X693821Y-121598D01*
X693898Y-121559D01*
X693975Y-121502D01*
X694052Y-121434D01*
X694119Y-121358D01*
X694128Y-121348D01*
X694148Y-121319D01*
X694167Y-121271D01*
X694205Y-121204D01*
X694234Y-121127D01*
X694253Y-121031D01*
X694273Y-120925D01*
X694282Y-120800D01*
Y-120791D01*
Y-120742D01*
X694273Y-120685D01*
X694263Y-120608D01*
X694244Y-120521D01*
X694215Y-120435D01*
X694176Y-120339D01*
X694128Y-120243D01*
X694119Y-120233D01*
X694100Y-120204D01*
X694061Y-120166D01*
X694013Y-120108D01*
X693956Y-120060D01*
X693879Y-120002D01*
X693792Y-119954D01*
X693696Y-119916D01*
X693686D01*
X693638Y-119897D01*
X693571Y-119887D01*
X693475Y-119868D01*
X693340Y-119849D01*
X693177Y-119839D01*
X692975Y-119820D01*
D02*
G37*
G36*
X693148Y-122482D02*
X691486D01*
Y-124654D01*
X693273D01*
X693465Y-124644D01*
X693552Y-124635D01*
X693619Y-124625D01*
X693629D01*
X693667Y-124615D01*
X693725Y-124606D01*
X693792Y-124586D01*
X693946Y-124538D01*
X694100Y-124461D01*
X694109Y-124452D01*
X694138Y-124442D01*
X694167Y-124414D01*
X694215Y-124365D01*
X694273Y-124317D01*
X694321Y-124260D01*
X694378Y-124183D01*
X694426Y-124106D01*
X694436Y-124096D01*
X694446Y-124067D01*
X694465Y-124020D01*
X694494Y-123952D01*
X694513Y-123875D01*
X694532Y-123779D01*
X694542Y-123683D01*
X694551Y-123568D01*
Y-123549D01*
Y-123510D01*
X694542Y-123443D01*
X694532Y-123366D01*
X694503Y-123270D01*
X694474Y-123164D01*
X694426Y-123058D01*
X694359Y-122962D01*
X694349Y-122953D01*
X694330Y-122914D01*
X694282Y-122876D01*
X694225Y-122818D01*
X694157Y-122751D01*
X694071Y-122693D01*
X693975Y-122636D01*
X693859Y-122588D01*
X693840Y-122578D01*
X693802Y-122568D01*
X693725Y-122549D01*
X693629Y-122530D01*
X693494Y-122511D01*
X693340Y-122501D01*
X693148Y-122482D01*
D02*
G37*
G36*
X734116Y-121348D02*
X734068D01*
X734029Y-121358D01*
X733923Y-121367D01*
X733799Y-121396D01*
X733654Y-121434D01*
X733510Y-121502D01*
X733357Y-121588D01*
X733212Y-121713D01*
X733193Y-121732D01*
X733155Y-121780D01*
X733097Y-121857D01*
X733030Y-121973D01*
X732962Y-122107D01*
X732895Y-122270D01*
X732847Y-122463D01*
X732818Y-122674D01*
X735374D01*
Y-122664D01*
Y-122645D01*
X735365Y-122616D01*
Y-122578D01*
X735346Y-122472D01*
X735317Y-122347D01*
X735278Y-122213D01*
X735221Y-122069D01*
X735163Y-121924D01*
X735077Y-121809D01*
Y-121800D01*
X735057Y-121790D01*
X735009Y-121732D01*
X734923Y-121665D01*
X734817Y-121579D01*
X734673Y-121492D01*
X734510Y-121415D01*
X734327Y-121367D01*
X734221Y-121358D01*
X734116Y-121348D01*
D02*
G37*
G36*
X698424Y-121358D02*
X698261D01*
X698222Y-121367D01*
X698117Y-121377D01*
X697982Y-121415D01*
X697828Y-121463D01*
X697665Y-121540D01*
X697502Y-121655D01*
X697425Y-121723D01*
X697348Y-121800D01*
X697329Y-121819D01*
X697309Y-121848D01*
X697290Y-121876D01*
X697261Y-121924D01*
X697232Y-121982D01*
X697194Y-122049D01*
X697165Y-122126D01*
X697127Y-122213D01*
X697088Y-122309D01*
X697059Y-122415D01*
X697031Y-122539D01*
X697011Y-122664D01*
X696992Y-122809D01*
X696973Y-122953D01*
Y-123116D01*
Y-123126D01*
Y-123155D01*
Y-123203D01*
X696983Y-123260D01*
Y-123328D01*
X696992Y-123414D01*
X697021Y-123606D01*
X697069Y-123818D01*
X697127Y-124039D01*
X697223Y-124250D01*
X697281Y-124346D01*
X697348Y-124433D01*
X697367Y-124452D01*
X697415Y-124500D01*
X697502Y-124567D01*
X697617Y-124644D01*
X697751Y-124731D01*
X697924Y-124798D01*
X698107Y-124846D01*
X698213Y-124855D01*
X698318Y-124865D01*
X698376D01*
X698415Y-124855D01*
X698520Y-124846D01*
X698655Y-124808D01*
X698808Y-124759D01*
X698972Y-124683D01*
X699126Y-124577D01*
X699202Y-124510D01*
X699279Y-124433D01*
Y-124423D01*
X699299Y-124414D01*
X699318Y-124385D01*
X699337Y-124346D01*
X699366Y-124298D01*
X699404Y-124241D01*
X699433Y-124173D01*
X699472Y-124096D01*
X699510Y-124010D01*
X699539Y-123914D01*
X699577Y-123798D01*
X699606Y-123673D01*
X699625Y-123549D01*
X699645Y-123404D01*
X699664Y-123251D01*
Y-123087D01*
Y-123078D01*
Y-123049D01*
Y-123010D01*
X699654Y-122943D01*
Y-122876D01*
X699645Y-122799D01*
X699616Y-122607D01*
X699568Y-122405D01*
X699500Y-122184D01*
X699404Y-121982D01*
X699270Y-121800D01*
Y-121790D01*
X699251Y-121780D01*
X699202Y-121732D01*
X699116Y-121655D01*
X699010Y-121579D01*
X698866Y-121502D01*
X698703Y-121425D01*
X698520Y-121377D01*
X698424Y-121358D01*
D02*
G37*
G36*
X729167Y-121358D02*
X729022D01*
X728984Y-121367D01*
X728888Y-121377D01*
X728763Y-121405D01*
X728628Y-121463D01*
X728475Y-121540D01*
X728330Y-121636D01*
X728254Y-121703D01*
X728186Y-121780D01*
X728167Y-121800D01*
X728157Y-121828D01*
X728129Y-121857D01*
X728100Y-121905D01*
X728071Y-121953D01*
X728042Y-122021D01*
X728013Y-122098D01*
X727975Y-122174D01*
X727946Y-122270D01*
X727917Y-122376D01*
X727888Y-122482D01*
X727850Y-122741D01*
X727831Y-123030D01*
Y-123039D01*
Y-123068D01*
Y-123116D01*
X727840Y-123174D01*
Y-123251D01*
X727850Y-123337D01*
X727879Y-123529D01*
X727917Y-123741D01*
X727985Y-123962D01*
X728071Y-124164D01*
X728129Y-124250D01*
X728186Y-124337D01*
X728205Y-124356D01*
X728254Y-124404D01*
X728330Y-124471D01*
X728436Y-124538D01*
X728561Y-124615D01*
X728715Y-124682D01*
X728888Y-124731D01*
X728984Y-124740D01*
X729080Y-124750D01*
X729128D01*
X729167Y-124740D01*
X729272Y-124731D01*
X729397Y-124702D01*
X729532Y-124654D01*
X729685Y-124577D01*
X729830Y-124481D01*
X729974Y-124346D01*
Y-124337D01*
X729993Y-124327D01*
X730012Y-124298D01*
X730031Y-124269D01*
X730060Y-124221D01*
X730089Y-124173D01*
X730118Y-124106D01*
X730156Y-124029D01*
X730195Y-123943D01*
X730224Y-123846D01*
X730252Y-123741D01*
X730281Y-123626D01*
X730310Y-123501D01*
X730320Y-123366D01*
X730339Y-123212D01*
Y-123058D01*
Y-123049D01*
Y-123020D01*
Y-122982D01*
X730329Y-122924D01*
Y-122847D01*
X730320Y-122770D01*
X730291Y-122578D01*
X730252Y-122376D01*
X730185Y-122165D01*
X730089Y-121963D01*
X730031Y-121876D01*
X729964Y-121790D01*
Y-121780D01*
X729945Y-121771D01*
X729897Y-121723D01*
X729820Y-121655D01*
X729714Y-121569D01*
X729589Y-121492D01*
X729436Y-121425D01*
X729263Y-121377D01*
X729167Y-121358D01*
D02*
G37*
%LPD*%
D11*
X348727Y15143D02*
G03*
X362231Y28721I28J13476D01*
G01*
X313897Y453D02*
G03*
X327865Y8398I-430J17007D01*
G01*
X340101Y15143D02*
G03*
X327800Y8303I31J-14537D01*
G01*
X327073Y341609D02*
G03*
X340443Y332359I13542J5287D01*
G01*
X326634Y342790D02*
G03*
X315457Y350371I-11018J-4215D01*
G01*
X429Y19709D02*
G03*
X13080Y7370I12282J-63D01*
G01*
X29169Y3404D02*
G03*
X20591Y7370I-8805J-7785D01*
G01*
X29072Y3478D02*
G03*
X35354Y453I6097J4625D01*
G01*
X362262Y319425D02*
G03*
X349823Y332359I-12687J247D01*
G01*
X15524Y350371D02*
G03*
X429Y333981I435J-15546D01*
G01*
X340101Y15143D02*
X348756D01*
X340443Y332359D02*
X349823D01*
X326634Y342790D02*
X327141Y341464D01*
X429Y333981D02*
X429Y19709D01*
X13080Y7370D02*
X20591D01*
X35354Y453D02*
X313467D01*
X362262Y28721D02*
X362262Y319425D01*
X15524Y350371D02*
X315457D01*
D15*
X3642Y311221D02*
G03*
X4429Y310433I787J0D01*
G01*
X17421D02*
G03*
X18209Y311221I0J787D01*
G01*
Y317520D02*
G03*
X17421Y318307I-787J-0D01*
G01*
X4429D02*
G03*
X3642Y317520I-0J-787D01*
G01*
X3642Y311221D02*
Y317520D01*
X4429Y310433D02*
X17421D01*
X4429Y318307D02*
X17421D01*
X18209Y311221D02*
Y317520D01*
D52*
X10925Y314370D02*
D03*
D53*
X219444Y286811D02*
D03*
X227319Y280118D02*
D03*
X219444D02*
D03*
X227319Y287008D02*
D03*
X73567Y286811D02*
D03*
X81441Y280118D02*
D03*
X73567D02*
D03*
X81441Y287008D02*
D03*
D54*
X34291Y205480D02*
D03*
X39291D02*
D03*
X44291D02*
D03*
X49291D02*
D03*
X34291Y229909D02*
D03*
X39291D02*
D03*
X44291D02*
D03*
X49291D02*
D03*
X49291Y284262D02*
D03*
X44291D02*
D03*
X39291D02*
D03*
X34291D02*
D03*
X49291Y259833D02*
D03*
X44291D02*
D03*
X39291D02*
D03*
X34291D02*
D03*
D55*
X208346Y152008D02*
D03*
X62165D02*
D03*
D56*
X208346Y136260D02*
D03*
Y120512D02*
D03*
Y104764D02*
D03*
Y89016D02*
D03*
Y73268D02*
D03*
Y57520D02*
D03*
Y41772D02*
D03*
X291023Y152008D02*
D03*
Y136260D02*
D03*
Y120512D02*
D03*
Y104764D02*
D03*
Y89016D02*
D03*
Y73268D02*
D03*
Y57520D02*
D03*
Y41772D02*
D03*
X144843D02*
D03*
Y57520D02*
D03*
Y73268D02*
D03*
Y89016D02*
D03*
Y104764D02*
D03*
Y120512D02*
D03*
Y136260D02*
D03*
Y152008D02*
D03*
X62165Y41772D02*
D03*
Y57520D02*
D03*
Y73268D02*
D03*
Y89016D02*
D03*
Y104764D02*
D03*
Y120512D02*
D03*
Y136260D02*
D03*
D57*
X21850Y267333D02*
D03*
Y287018D02*
D03*
Y282097D02*
D03*
Y277175D02*
D03*
Y272254D02*
D03*
Y262411D02*
D03*
Y207874D02*
D03*
Y227559D02*
D03*
Y222638D02*
D03*
Y217717D02*
D03*
Y212795D02*
D03*
Y202953D02*
D03*
D58*
X10433Y297057D02*
D03*
Y252372D02*
D03*
Y237598D02*
D03*
Y192913D02*
D03*
D59*
X67366Y242126D02*
D03*
X68758Y240734D02*
D03*
X70150Y239342D02*
D03*
X71542Y237950D02*
D03*
X72934Y236558D02*
D03*
X74326Y235166D02*
D03*
X75718Y233774D02*
D03*
X77109Y232382D02*
D03*
X78501Y230990D02*
D03*
X79893Y229598D02*
D03*
X81285Y228207D02*
D03*
X82677Y226815D02*
D03*
X84069Y225423D02*
D03*
X85461Y224031D02*
D03*
X86853Y222639D02*
D03*
X88245Y221247D02*
D03*
X89637Y219855D02*
D03*
X91029Y218463D02*
D03*
X92421Y217071D02*
D03*
X93813Y215679D02*
D03*
X95205Y214287D02*
D03*
X96597Y212895D02*
D03*
X97989Y211503D02*
D03*
X99380Y210111D02*
D03*
X100773Y208719D02*
D03*
X142948Y250895D02*
D03*
X141556Y252287D02*
D03*
X140164Y253679D02*
D03*
X138772Y255071D02*
D03*
X137381Y256463D02*
D03*
X135989Y257855D02*
D03*
X134597Y259247D02*
D03*
X133205Y260639D02*
D03*
X131813Y262031D02*
D03*
X130421Y263423D02*
D03*
X129029Y264815D02*
D03*
X127637Y266207D02*
D03*
X126245Y267599D02*
D03*
X124853Y268990D02*
D03*
X123461Y270382D02*
D03*
X122069Y271774D02*
D03*
X120677Y273166D02*
D03*
X119285Y274558D02*
D03*
X117893Y275950D02*
D03*
X116501Y277342D02*
D03*
X115110Y278734D02*
D03*
X113717Y280126D02*
D03*
X112326Y281518D02*
D03*
X110934Y282910D02*
D03*
X109542Y284302D02*
D03*
X213425Y242126D02*
D03*
X214817Y240734D02*
D03*
X216209Y239342D02*
D03*
X217601Y237950D02*
D03*
X218993Y236558D02*
D03*
X220385Y235166D02*
D03*
X221777Y233774D02*
D03*
X223168Y232382D02*
D03*
X224560Y230990D02*
D03*
X225952Y229598D02*
D03*
X227344Y228207D02*
D03*
X228736Y226815D02*
D03*
X230128Y225423D02*
D03*
X231520Y224031D02*
D03*
X232912Y222639D02*
D03*
X234304Y221247D02*
D03*
X235696Y219855D02*
D03*
X237088Y218463D02*
D03*
X238480Y217071D02*
D03*
X239872Y215679D02*
D03*
X241264Y214287D02*
D03*
X242656Y212895D02*
D03*
X244048Y211503D02*
D03*
X245440Y210111D02*
D03*
X246831Y208719D02*
D03*
X289007Y250895D02*
D03*
X287615Y252287D02*
D03*
X286224Y253679D02*
D03*
X284832Y255071D02*
D03*
X283440Y256463D02*
D03*
X282048Y257855D02*
D03*
X280656Y259247D02*
D03*
X279264Y260639D02*
D03*
X277872Y262031D02*
D03*
X276480Y263423D02*
D03*
X275088Y264815D02*
D03*
X273696Y266207D02*
D03*
X272304Y267599D02*
D03*
X270912Y268990D02*
D03*
X269520Y270382D02*
D03*
X268128Y271774D02*
D03*
X266736Y273166D02*
D03*
X265344Y274558D02*
D03*
X263952Y275950D02*
D03*
X262561Y277342D02*
D03*
X261169Y278734D02*
D03*
X259777Y280126D02*
D03*
X258385Y281518D02*
D03*
X256993Y282910D02*
D03*
X255601Y284302D02*
D03*
D60*
X109542Y208719D02*
D03*
X110934Y210111D02*
D03*
X112326Y211503D02*
D03*
X113717Y212895D02*
D03*
X115110Y214287D02*
D03*
X116501Y215679D02*
D03*
X117893Y217071D02*
D03*
X119285Y218463D02*
D03*
X120677Y219855D02*
D03*
X122069Y221247D02*
D03*
X123461Y222639D02*
D03*
X124853Y224031D02*
D03*
X126245Y225423D02*
D03*
X127637Y226815D02*
D03*
X129029Y228207D02*
D03*
X130421Y229598D02*
D03*
X131813Y230990D02*
D03*
X133205Y232382D02*
D03*
X134597Y233774D02*
D03*
X135989Y235166D02*
D03*
X137381Y236558D02*
D03*
X138772Y237950D02*
D03*
X140164Y239342D02*
D03*
X141556Y240734D02*
D03*
X142948Y242126D02*
D03*
X100773Y284302D02*
D03*
X99380Y282910D02*
D03*
X97989Y281518D02*
D03*
X96597Y280126D02*
D03*
X95205Y278734D02*
D03*
X93813Y277342D02*
D03*
X92421Y275950D02*
D03*
X91029Y274558D02*
D03*
X89637Y273166D02*
D03*
X88245Y271774D02*
D03*
X86853Y270382D02*
D03*
X85461Y268990D02*
D03*
X84069Y267599D02*
D03*
X82677Y266207D02*
D03*
X81285Y264815D02*
D03*
X79893Y263423D02*
D03*
X78501Y262031D02*
D03*
X77109Y260639D02*
D03*
X75718Y259247D02*
D03*
X74326Y257855D02*
D03*
X72934Y256463D02*
D03*
X71542Y255071D02*
D03*
X70150Y253679D02*
D03*
X68758Y252287D02*
D03*
X67366Y250895D02*
D03*
X255601Y208719D02*
D03*
X256993Y210111D02*
D03*
X258385Y211503D02*
D03*
X259777Y212895D02*
D03*
X261169Y214287D02*
D03*
X262561Y215679D02*
D03*
X263952Y217071D02*
D03*
X265344Y218463D02*
D03*
X266736Y219855D02*
D03*
X268128Y221247D02*
D03*
X269520Y222639D02*
D03*
X270912Y224031D02*
D03*
X272304Y225423D02*
D03*
X273696Y226815D02*
D03*
X275088Y228207D02*
D03*
X276480Y229598D02*
D03*
X277872Y230990D02*
D03*
X279264Y232382D02*
D03*
X280656Y233774D02*
D03*
X282048Y235166D02*
D03*
X283440Y236558D02*
D03*
X284832Y237950D02*
D03*
X286224Y239342D02*
D03*
X287615Y240734D02*
D03*
X289007Y242126D02*
D03*
X246831Y284302D02*
D03*
X245440Y282910D02*
D03*
X244048Y281518D02*
D03*
X242656Y280126D02*
D03*
X241264Y278734D02*
D03*
X239872Y277342D02*
D03*
X238480Y275950D02*
D03*
X237088Y274558D02*
D03*
X235696Y273166D02*
D03*
X234304Y271774D02*
D03*
X232912Y270382D02*
D03*
X231520Y268990D02*
D03*
X230128Y267599D02*
D03*
X228736Y266207D02*
D03*
X227344Y264815D02*
D03*
X225952Y263423D02*
D03*
X224560Y262031D02*
D03*
X223168Y260639D02*
D03*
X221777Y259247D02*
D03*
X220385Y257855D02*
D03*
X218993Y256463D02*
D03*
X217601Y255071D02*
D03*
X216209Y253679D02*
D03*
X214817Y252287D02*
D03*
X213425Y250895D02*
D03*
D61*
X309055Y14764D02*
D03*
X316339D02*
D03*
D62*
X57087Y191339D02*
D03*
X326279Y23524D02*
D03*
X325787Y328937D02*
D03*
D63*
X73764Y294094D02*
D03*
X81047D02*
D03*
X42224Y295571D02*
D03*
X34941D02*
D03*
X219937Y293898D02*
D03*
X227220D02*
D03*
X237500Y201682D02*
D03*
X244783D02*
D03*
X202561Y233481D02*
D03*
X209845D02*
D03*
X42224Y241043D02*
D03*
X34941D02*
D03*
D64*
X199705Y246161D02*
D03*
X205217D02*
D03*
D65*
X219079Y212570D02*
D03*
X213511Y218138D02*
D03*
X79205Y212472D02*
D03*
X73637Y218040D02*
D03*
D66*
X189567Y292815D02*
D03*
X197567D02*
D03*
X148130D02*
D03*
X140130D02*
D03*
X148130Y283760D02*
D03*
X140130D02*
D03*
X189567D02*
D03*
X197567D02*
D03*
D67*
X248130Y318898D02*
D03*
Y310898D02*
D03*
X51378Y310996D02*
D03*
Y318996D02*
D03*
D68*
X116618Y200311D02*
D03*
X121768Y195161D02*
D03*
X64265Y229294D02*
D03*
X69415Y224144D02*
D03*
D69*
X66283Y287106D02*
D03*
Y279823D02*
D03*
X97736Y193701D02*
D03*
Y200984D02*
D03*
X212161Y287106D02*
D03*
Y279823D02*
D03*
D70*
X57599Y265236D02*
D03*
X61496Y261339D02*
D03*
D71*
X209028Y213205D02*
D03*
X203877Y208055D02*
D03*
X214386Y208087D02*
D03*
X209236Y202937D02*
D03*
X202507Y267245D02*
D03*
X207657Y272395D02*
D03*
X74189Y207595D02*
D03*
X69039Y202445D02*
D03*
X68775Y212811D02*
D03*
X63625Y207661D02*
D03*
D72*
X251717Y194280D02*
D03*
Y201603D02*
D03*
X104528Y193484D02*
D03*
Y200807D02*
D03*
D73*
X209862Y227165D02*
D03*
X202539D02*
D03*
D74*
X212592Y267387D02*
D03*
X207414Y262209D02*
D03*
D75*
X130315Y326969D02*
D03*
X150000D02*
D03*
X145079D02*
D03*
X140157D02*
D03*
X135236D02*
D03*
X125394D02*
D03*
X189370D02*
D03*
X209055D02*
D03*
X204134D02*
D03*
X199213D02*
D03*
X194291D02*
D03*
X184449D02*
D03*
D76*
X160039Y338386D02*
D03*
X115354D02*
D03*
X219094D02*
D03*
X174409D02*
D03*
D77*
X152066Y273326D02*
D03*
X146409Y267669D02*
D03*
X158267Y266830D02*
D03*
X152610Y261173D02*
D03*
D78*
X178989Y266779D02*
D03*
X184646Y261122D02*
D03*
X185434Y273129D02*
D03*
X191091Y267472D02*
D03*
D79*
X329787Y318110D02*
D03*
X321787D02*
D03*
X301020Y223819D02*
D03*
X309020D02*
D03*
X301020Y213976D02*
D03*
X309020D02*
D03*
X305673Y254724D02*
D03*
X297673D02*
D03*
X305673Y245374D02*
D03*
X297673D02*
D03*
X305673Y236024D02*
D03*
X297673D02*
D03*
X152327Y305398D02*
D03*
X144327D02*
D03*
X35272Y319980D02*
D03*
X43272D02*
D03*
X263941D02*
D03*
X255941D02*
D03*
X194957Y204035D02*
D03*
X186957D02*
D03*
X157909Y214059D02*
D03*
X165909D02*
D03*
D80*
X120271Y305403D02*
D03*
X125928Y299746D02*
D03*
X113578Y298907D02*
D03*
X119235Y293250D02*
D03*
D81*
X235539Y310744D02*
D03*
Y318744D02*
D03*
X173622Y312760D02*
D03*
Y304760D02*
D03*
X184252Y304957D02*
D03*
Y312957D02*
D03*
X281791Y301835D02*
D03*
Y293835D02*
D03*
X272933Y301736D02*
D03*
Y293736D02*
D03*
X186319Y213421D02*
D03*
Y221421D02*
D03*
X175394Y213421D02*
D03*
Y221421D02*
D03*
D82*
X64203Y219261D02*
D03*
X59025Y224439D02*
D03*
D83*
X124114Y288583D02*
D03*
X225000Y273031D02*
D03*
X215551Y302658D02*
D03*
X280512Y288583D02*
D03*
X271850D02*
D03*
X48917Y73032D02*
D03*
Y57579D02*
D03*
X56299Y24902D02*
D03*
X165551Y56890D02*
D03*
X149114Y163681D02*
D03*
X191240Y73327D02*
D03*
Y56398D02*
D03*
Y41772D02*
D03*
X264824Y18110D02*
D03*
X294783Y163681D02*
D03*
X71949Y274016D02*
D03*
X101969Y296358D02*
D03*
X128347Y280512D02*
D03*
X166312Y34213D02*
D03*
D84*
X350079Y59291D02*
D03*
X340079D02*
D03*
X350079Y69291D02*
D03*
X340079D02*
D03*
X350079Y79291D02*
D03*
X340079D02*
D03*
X350079Y89291D02*
D03*
X340079D02*
D03*
X350079Y99291D02*
D03*
X340079D02*
D03*
X350079Y109291D02*
D03*
X340079D02*
D03*
X350079Y119291D02*
D03*
X340079D02*
D03*
X350079Y129291D02*
D03*
X340079D02*
D03*
X350079Y139291D02*
D03*
X340079D02*
D03*
X350079Y149291D02*
D03*
X340079D02*
D03*
X350079Y159291D02*
D03*
X340079D02*
D03*
X350079Y169291D02*
D03*
X340079D02*
D03*
X350079Y179291D02*
D03*
X340079D02*
D03*
X350079Y189291D02*
D03*
X340079D02*
D03*
X350079Y199291D02*
D03*
X340079D02*
D03*
X350079Y209291D02*
D03*
X340079D02*
D03*
X350079Y219291D02*
D03*
X340079Y219193D02*
D03*
X350079Y229291D02*
D03*
X340079D02*
D03*
X350079Y239291D02*
D03*
X340079D02*
D03*
X350079Y249291D02*
D03*
X340059D02*
D03*
X350079Y259291D02*
D03*
X340059D02*
D03*
X350079Y269291D02*
D03*
X340079D02*
D03*
X350079Y279291D02*
D03*
X340079D02*
D03*
X350079Y289291D02*
D03*
X340079D02*
D03*
X350079Y299291D02*
D03*
X340079Y49291D02*
D03*
X350079D02*
D03*
X330079D02*
D03*
X320079D02*
D03*
X330079Y299291D02*
D03*
X320079Y289291D02*
D03*
X330079D02*
D03*
X320079Y279291D02*
D03*
X330079D02*
D03*
X320079Y269291D02*
D03*
X330079D02*
D03*
X320079Y259291D02*
D03*
X330079D02*
D03*
X320079Y249291D02*
D03*
X330079D02*
D03*
X320079Y239291D02*
D03*
X330079D02*
D03*
X320079Y229291D02*
D03*
X330079D02*
D03*
X320079Y219193D02*
D03*
X330079Y219291D02*
D03*
X320079Y209291D02*
D03*
X330079D02*
D03*
X320079Y199291D02*
D03*
X330079D02*
D03*
X320079Y189291D02*
D03*
X330079D02*
D03*
X320079Y179291D02*
D03*
X330079D02*
D03*
X320079Y169291D02*
D03*
X330079D02*
D03*
X320079Y159291D02*
D03*
X330079D02*
D03*
X320079Y149291D02*
D03*
X330079D02*
D03*
X320079Y139291D02*
D03*
X330079D02*
D03*
X320079Y129291D02*
D03*
X330079D02*
D03*
X320079Y119291D02*
D03*
X330079D02*
D03*
X320079Y109291D02*
D03*
X330079D02*
D03*
X320079Y99291D02*
D03*
X330079D02*
D03*
X320079Y89291D02*
D03*
X330079D02*
D03*
X320079Y79291D02*
D03*
X330079D02*
D03*
X320079Y69291D02*
D03*
X330079D02*
D03*
X320079Y59291D02*
D03*
X330079D02*
D03*
X76831Y318110D02*
D03*
X86831D02*
D03*
X312697Y341595D02*
D03*
X245492Y331594D02*
D03*
X255492D02*
D03*
X265492D02*
D03*
X275492D02*
D03*
X285492D02*
D03*
X295492D02*
D03*
Y341595D02*
D03*
X285492D02*
D03*
X275492D02*
D03*
X265492D02*
D03*
X255492D02*
D03*
X245492D02*
D03*
X235492D02*
D03*
X46831Y331594D02*
D03*
X56831D02*
D03*
X66831D02*
D03*
X76831D02*
D03*
X86831D02*
D03*
X96831D02*
D03*
Y341595D02*
D03*
X86831D02*
D03*
X76831D02*
D03*
X66831D02*
D03*
X56831D02*
D03*
X46831D02*
D03*
X36831D02*
D03*
X275551Y318110D02*
D03*
X285551D02*
D03*
D85*
X340059Y299291D02*
D03*
X320079D02*
D03*
X312697Y331594D02*
D03*
D86*
X350098Y319416D02*
D03*
X12831Y19500D02*
D03*
X350134Y29342D02*
D03*
X12831Y334559D02*
D03*
D87*
X96831Y318110D02*
D03*
X235492Y331594D02*
D03*
X36831D02*
D03*
X295551Y318110D02*
D03*
D88*
X180551Y152047D02*
D03*
X33583D02*
D03*
D89*
X190551Y162047D02*
D03*
Y142047D02*
D03*
X170551D02*
D03*
Y162047D02*
D03*
X23583D02*
D03*
Y142047D02*
D03*
X43583D02*
D03*
Y162047D02*
D03*
D90*
X316240Y32185D02*
D03*
X66240Y299114D02*
D03*
X75689Y198130D02*
D03*
X31352Y11673D02*
D03*
X302362Y11319D02*
D03*
M02*
