G04*
G04 #@! TF.GenerationSoftware,Altium Limited,Altium Designer,18.1.7 (191)*
G04*
G04 Layer_Color=16711935*
%FSLAX25Y25*%
%MOIN*%
G70*
G01*
G75*
%ADD11C,0.01000*%
%ADD14C,0.00787*%
D11*
X15495Y350206D02*
G03*
X544Y334648I303J-15254D01*
G01*
X29788Y2571D02*
G03*
X22083Y7197I-9648J-7340D01*
G01*
X528Y19402D02*
G03*
X12929Y7197I12303J98D01*
G01*
X312643Y405D02*
G03*
X327398Y7787I1233J15972D01*
G01*
X338913Y14677D02*
G03*
X327398Y7787I1070J-14856D01*
G01*
X350331Y14677D02*
G03*
X362153Y30700I-2100J13923D01*
G01*
X327102Y341449D02*
G03*
X338864Y332197I13607J5196D01*
G01*
X327102Y341449D02*
G03*
X314405Y350209I-12487J-4517D01*
G01*
X362240Y319421D02*
G03*
X350035Y332197I-12490J285D01*
G01*
X29788Y2571D02*
G03*
X34878Y291I5012J4367D01*
G01*
X15587Y350209D02*
X314405D01*
X528Y19402D02*
Y334951D01*
X12929Y7197D02*
X22083D01*
X338913Y14677D02*
X350331D01*
X338864Y332197D02*
X350035D01*
X362153Y30700D02*
Y319707D01*
X34878Y291D02*
X312528D01*
X348727Y15143D02*
G03*
X362231Y28721I28J13476D01*
G01*
X313897Y453D02*
G03*
X327865Y8398I-430J17007D01*
G01*
X340101Y15143D02*
G03*
X327800Y8303I31J-14537D01*
G01*
X327073Y341609D02*
G03*
X340443Y332359I13542J5287D01*
G01*
X326634Y342790D02*
G03*
X315457Y350371I-11018J-4215D01*
G01*
X429Y19709D02*
G03*
X13080Y7370I12282J-63D01*
G01*
X29169Y3404D02*
G03*
X20591Y7370I-8805J-7785D01*
G01*
X29072Y3478D02*
G03*
X35354Y453I6097J4625D01*
G01*
X362262Y319425D02*
G03*
X349823Y332359I-12687J247D01*
G01*
X15524Y350371D02*
G03*
X429Y333981I435J-15546D01*
G01*
X340101Y15143D02*
X348756D01*
X340443Y332359D02*
X349823D01*
X326634Y342790D02*
X327141Y341464D01*
X429Y333981D02*
X429Y19709D01*
X13080Y7370D02*
X20591D01*
X35354Y453D02*
X313467D01*
X362262Y28721D02*
X362262Y319425D01*
X15524Y350371D02*
X315457D01*
D14*
X4429Y311221D02*
X17421D01*
X4429Y317520D02*
X17421D01*
X4429Y311221D02*
Y317520D01*
X17421Y311221D02*
Y317520D01*
M02*
