G04*
G04 #@! TF.GenerationSoftware,Altium Limited,Altium Designer,18.1.7 (191)*
G04*
G04 Layer_Color=16711935*
%FSLAX25Y25*%
%MOIN*%
G70*
G01*
G75*
%ADD11C,0.01000*%
G36*
X726111Y-125394D02*
X725390D01*
Y-124827D01*
X725380Y-124836D01*
X725371Y-124855D01*
X725342Y-124884D01*
X725303Y-124932D01*
X725265Y-124980D01*
X725207Y-125038D01*
X725140Y-125096D01*
X725063Y-125163D01*
X724976Y-125221D01*
X724880Y-125288D01*
X724775Y-125346D01*
X724669Y-125394D01*
X724544Y-125442D01*
X724409Y-125471D01*
X724265Y-125490D01*
X724112Y-125499D01*
X724054D01*
X724016Y-125490D01*
X723910Y-125480D01*
X723785Y-125461D01*
X723622Y-125423D01*
X723458Y-125374D01*
X723276Y-125298D01*
X723103Y-125201D01*
X723093D01*
X723083Y-125192D01*
X723026Y-125144D01*
X722949Y-125077D01*
X722843Y-124980D01*
X722737Y-124865D01*
X722612Y-124721D01*
X722507Y-124558D01*
X722401Y-124365D01*
Y-124356D01*
X722391Y-124337D01*
X722382Y-124308D01*
X722363Y-124269D01*
X722343Y-124221D01*
X722324Y-124154D01*
X722276Y-124000D01*
X722228Y-123818D01*
X722190Y-123606D01*
X722161Y-123376D01*
X722151Y-123116D01*
Y-123107D01*
Y-123087D01*
Y-123049D01*
Y-123001D01*
X722161Y-122943D01*
Y-122866D01*
X722180Y-122703D01*
X722209Y-122511D01*
X722247Y-122309D01*
X722295Y-122088D01*
X722372Y-121876D01*
Y-121867D01*
X722382Y-121848D01*
X722401Y-121819D01*
X722420Y-121780D01*
X722468Y-121684D01*
X722545Y-121559D01*
X722641Y-121415D01*
X722757Y-121271D01*
X722891Y-121136D01*
X723055Y-121011D01*
X723064D01*
X723074Y-121002D01*
X723131Y-120964D01*
X723228Y-120915D01*
X723352Y-120858D01*
X723506Y-120810D01*
X723679Y-120762D01*
X723871Y-120723D01*
X724073Y-120714D01*
X724141D01*
X724217Y-120723D01*
X724323Y-120733D01*
X724429Y-120762D01*
X724554Y-120791D01*
X724679Y-120839D01*
X724803Y-120896D01*
X724823Y-120906D01*
X724861Y-120925D01*
X724919Y-120964D01*
X724996Y-121021D01*
X725073Y-121079D01*
X725169Y-121156D01*
X725255Y-121252D01*
X725332Y-121348D01*
Y-119080D01*
X726111D01*
Y-125394D01*
D02*
G37*
G36*
X712878Y-125394D02*
X712157D01*
Y-124827D01*
X712147Y-124836D01*
X712138Y-124855D01*
X712109Y-124884D01*
X712070Y-124932D01*
X712032Y-124980D01*
X711974Y-125038D01*
X711907Y-125096D01*
X711830Y-125163D01*
X711744Y-125221D01*
X711648Y-125288D01*
X711542Y-125346D01*
X711436Y-125394D01*
X711311Y-125442D01*
X711177Y-125471D01*
X711032Y-125490D01*
X710879Y-125499D01*
X710821D01*
X710783Y-125490D01*
X710677Y-125480D01*
X710552Y-125461D01*
X710389Y-125423D01*
X710225Y-125374D01*
X710043Y-125298D01*
X709870Y-125201D01*
X709860D01*
X709850Y-125192D01*
X709793Y-125144D01*
X709716Y-125077D01*
X709610Y-124980D01*
X709504Y-124865D01*
X709379Y-124721D01*
X709274Y-124558D01*
X709168Y-124365D01*
Y-124356D01*
X709159Y-124337D01*
X709149Y-124308D01*
X709130Y-124269D01*
X709110Y-124221D01*
X709091Y-124154D01*
X709043Y-124000D01*
X708995Y-123818D01*
X708957Y-123606D01*
X708928Y-123376D01*
X708918Y-123116D01*
Y-123107D01*
Y-123087D01*
Y-123049D01*
Y-123001D01*
X708928Y-122943D01*
Y-122866D01*
X708947Y-122703D01*
X708976Y-122511D01*
X709014Y-122309D01*
X709062Y-122088D01*
X709139Y-121876D01*
Y-121867D01*
X709149Y-121848D01*
X709168Y-121819D01*
X709187Y-121780D01*
X709235Y-121684D01*
X709312Y-121559D01*
X709408Y-121415D01*
X709524Y-121271D01*
X709658Y-121136D01*
X709822Y-121011D01*
X709831D01*
X709841Y-121002D01*
X709898Y-120964D01*
X709995Y-120915D01*
X710119Y-120858D01*
X710273Y-120810D01*
X710446Y-120762D01*
X710638Y-120723D01*
X710840Y-120714D01*
X710908D01*
X710984Y-120723D01*
X711090Y-120733D01*
X711196Y-120762D01*
X711321Y-120791D01*
X711446Y-120839D01*
X711571Y-120896D01*
X711590Y-120906D01*
X711628Y-120925D01*
X711686Y-120964D01*
X711763Y-121021D01*
X711840Y-121079D01*
X711936Y-121156D01*
X712022Y-121252D01*
X712099Y-121348D01*
Y-119080D01*
X712878D01*
Y-125394D01*
D02*
G37*
G36*
X708092Y-120723D02*
X708197Y-120742D01*
X708313Y-120781D01*
X708447Y-120819D01*
X708592Y-120887D01*
X708745Y-120973D01*
X708467Y-121684D01*
X708457Y-121675D01*
X708419Y-121655D01*
X708361Y-121627D01*
X708294Y-121598D01*
X708207Y-121569D01*
X708111Y-121540D01*
X708005Y-121521D01*
X707900Y-121511D01*
X707861D01*
X707813Y-121521D01*
X707746Y-121530D01*
X707679Y-121550D01*
X707602Y-121579D01*
X707525Y-121617D01*
X707448Y-121665D01*
X707438Y-121675D01*
X707419Y-121694D01*
X707381Y-121732D01*
X707342Y-121780D01*
X707294Y-121838D01*
X707246Y-121915D01*
X707208Y-122001D01*
X707169Y-122098D01*
X707160Y-122117D01*
X707150Y-122165D01*
X707131Y-122251D01*
X707112Y-122367D01*
X707083Y-122501D01*
X707063Y-122655D01*
X707054Y-122818D01*
X707044Y-123001D01*
Y-125394D01*
X706266D01*
Y-120819D01*
X706967D01*
Y-121502D01*
X706977Y-121492D01*
X707015Y-121434D01*
X707063Y-121348D01*
X707121Y-121252D01*
X707198Y-121146D01*
X707284Y-121040D01*
X707361Y-120944D01*
X707448Y-120877D01*
X707457Y-120867D01*
X707486Y-120848D01*
X707534Y-120829D01*
X707602Y-120791D01*
X707669Y-120762D01*
X707755Y-120742D01*
X707852Y-120723D01*
X707948Y-120714D01*
X708015D01*
X708092Y-120723D01*
D02*
G37*
G36*
X721238Y-119820D02*
X717510Y-119820D01*
Y-121761D01*
X720998Y-121761D01*
Y-122501D01*
X717510Y-122501D01*
Y-124654D01*
X721382Y-124654D01*
Y-125394D01*
X716674Y-125394D01*
Y-119080D01*
X721238Y-119080D01*
Y-119820D01*
D02*
G37*
G36*
X703498Y-120723D02*
X703633Y-120733D01*
X703787Y-120752D01*
X703950Y-120771D01*
X704104Y-120810D01*
X704248Y-120858D01*
X704267Y-120867D01*
X704305Y-120877D01*
X704373Y-120915D01*
X704450Y-120954D01*
X704536Y-121002D01*
X704632Y-121060D01*
X704709Y-121127D01*
X704786Y-121204D01*
X704796Y-121213D01*
X704815Y-121242D01*
X704844Y-121281D01*
X704882Y-121348D01*
X704920Y-121425D01*
X704959Y-121511D01*
X704997Y-121617D01*
X705026Y-121732D01*
Y-121742D01*
X705036Y-121771D01*
X705045Y-121819D01*
X705055Y-121896D01*
Y-121992D01*
X705065Y-122117D01*
X705074Y-122261D01*
Y-122443D01*
Y-123481D01*
Y-123491D01*
Y-123529D01*
Y-123587D01*
Y-123654D01*
Y-123741D01*
Y-123837D01*
X705084Y-124058D01*
Y-124298D01*
X705093Y-124519D01*
X705103Y-124625D01*
Y-124711D01*
X705113Y-124788D01*
X705122Y-124855D01*
Y-124865D01*
X705132Y-124904D01*
X705141Y-124961D01*
X705161Y-125029D01*
X705190Y-125105D01*
X705228Y-125201D01*
X705314Y-125394D01*
X704507D01*
X704498Y-125384D01*
X704488Y-125355D01*
X704469Y-125298D01*
X704440Y-125230D01*
X704411Y-125144D01*
X704392Y-125048D01*
X704373Y-124942D01*
X704354Y-124817D01*
X704334Y-124836D01*
X704277Y-124875D01*
X704200Y-124942D01*
X704084Y-125019D01*
X703960Y-125115D01*
X703815Y-125201D01*
X703671Y-125278D01*
X703517Y-125346D01*
X703498Y-125355D01*
X703450Y-125365D01*
X703373Y-125394D01*
X703267Y-125423D01*
X703133Y-125451D01*
X702989Y-125471D01*
X702835Y-125490D01*
X702662Y-125499D01*
X702595D01*
X702537Y-125490D01*
X702480D01*
X702403Y-125480D01*
X702239Y-125451D01*
X702047Y-125413D01*
X701864Y-125346D01*
X701672Y-125259D01*
X701509Y-125134D01*
X701490Y-125115D01*
X701442Y-125067D01*
X701384Y-124990D01*
X701307Y-124875D01*
X701230Y-124740D01*
X701173Y-124586D01*
X701124Y-124394D01*
X701105Y-124193D01*
Y-124173D01*
Y-124135D01*
X701115Y-124067D01*
X701124Y-123991D01*
X701144Y-123895D01*
X701163Y-123789D01*
X701201Y-123683D01*
X701249Y-123577D01*
X701259Y-123568D01*
X701278Y-123529D01*
X701307Y-123481D01*
X701355Y-123414D01*
X701413Y-123347D01*
X701490Y-123270D01*
X701567Y-123203D01*
X701653Y-123135D01*
X701663Y-123126D01*
X701701Y-123107D01*
X701749Y-123078D01*
X701816Y-123039D01*
X701903Y-122991D01*
X701989Y-122953D01*
X702095Y-122914D01*
X702210Y-122876D01*
X702220D01*
X702258Y-122866D01*
X702307Y-122857D01*
X702383Y-122837D01*
X702480Y-122818D01*
X702604Y-122799D01*
X702739Y-122780D01*
X702902Y-122761D01*
X702912D01*
X702941Y-122751D01*
X702989D01*
X703056Y-122741D01*
X703133Y-122732D01*
X703220Y-122722D01*
X703431Y-122684D01*
X703652Y-122645D01*
X703883Y-122607D01*
X704104Y-122549D01*
X704200Y-122520D01*
X704286Y-122492D01*
Y-122482D01*
Y-122463D01*
X704296Y-122405D01*
Y-122338D01*
Y-122309D01*
Y-122290D01*
Y-122280D01*
Y-122271D01*
Y-122213D01*
X704286Y-122126D01*
X704267Y-122030D01*
X704238Y-121924D01*
X704200Y-121809D01*
X704152Y-121713D01*
X704075Y-121627D01*
X704065Y-121617D01*
X704017Y-121588D01*
X703950Y-121540D01*
X703854Y-121492D01*
X703729Y-121444D01*
X703575Y-121396D01*
X703393Y-121367D01*
X703191Y-121358D01*
X703104D01*
X703008Y-121367D01*
X702883Y-121377D01*
X702749Y-121405D01*
X702624Y-121434D01*
X702489Y-121482D01*
X702383Y-121550D01*
X702374Y-121559D01*
X702345Y-121588D01*
X702297Y-121636D01*
X702239Y-121704D01*
X702172Y-121800D01*
X702114Y-121915D01*
X702047Y-122059D01*
X701999Y-122222D01*
X701240Y-122117D01*
Y-122107D01*
X701249Y-122098D01*
X701259Y-122040D01*
X701288Y-121953D01*
X701317Y-121838D01*
X701365Y-121713D01*
X701422Y-121588D01*
X701490Y-121454D01*
X701576Y-121338D01*
X701586Y-121329D01*
X701624Y-121290D01*
X701672Y-121233D01*
X701749Y-121165D01*
X701845Y-121098D01*
X701970Y-121021D01*
X702105Y-120944D01*
X702258Y-120877D01*
X702268D01*
X702278Y-120867D01*
X702307Y-120858D01*
X702335Y-120848D01*
X702431Y-120829D01*
X702556Y-120791D01*
X702710Y-120762D01*
X702883Y-120742D01*
X703085Y-120723D01*
X703296Y-120714D01*
X703393D01*
X703498Y-120723D01*
D02*
G37*
G36*
X693196Y-119089D02*
X693263D01*
X693427Y-119099D01*
X693610Y-119128D01*
X693802Y-119157D01*
X693994Y-119205D01*
X694167Y-119272D01*
X694176D01*
X694186Y-119282D01*
X694244Y-119311D01*
X694321Y-119359D01*
X694417Y-119416D01*
X694532Y-119503D01*
X694647Y-119608D01*
X694753Y-119724D01*
X694859Y-119868D01*
X694868Y-119887D01*
X694897Y-119935D01*
X694936Y-120022D01*
X694984Y-120127D01*
X695032Y-120252D01*
X695070Y-120387D01*
X695099Y-120541D01*
X695109Y-120704D01*
Y-120723D01*
Y-120771D01*
X695099Y-120848D01*
X695080Y-120954D01*
X695051Y-121069D01*
X695013Y-121194D01*
X694965Y-121338D01*
X694888Y-121473D01*
X694878Y-121492D01*
X694849Y-121530D01*
X694792Y-121598D01*
X694724Y-121675D01*
X694628Y-121771D01*
X694513Y-121857D01*
X694378Y-121953D01*
X694215Y-122040D01*
X694225D01*
X694244Y-122049D01*
X694273Y-122059D01*
X694311Y-122069D01*
X694417Y-122117D01*
X694542Y-122174D01*
X694686Y-122261D01*
X694830Y-122357D01*
X694974Y-122472D01*
X695099Y-122616D01*
X695109Y-122636D01*
X695147Y-122684D01*
X695195Y-122770D01*
X695262Y-122886D01*
X695320Y-123030D01*
X695368Y-123183D01*
X695407Y-123366D01*
X695416Y-123568D01*
Y-123587D01*
Y-123645D01*
X695407Y-123731D01*
X695397Y-123837D01*
X695368Y-123962D01*
X695339Y-124106D01*
X695291Y-124250D01*
X695224Y-124394D01*
X695214Y-124414D01*
X695195Y-124461D01*
X695147Y-124529D01*
X695099Y-124615D01*
X695032Y-124711D01*
X694955Y-124808D01*
X694859Y-124904D01*
X694763Y-124990D01*
X694753Y-125000D01*
X694715Y-125019D01*
X694657Y-125057D01*
X694570Y-125105D01*
X694474Y-125153D01*
X694349Y-125201D01*
X694215Y-125250D01*
X694071Y-125298D01*
X694052D01*
X693994Y-125317D01*
X693907Y-125326D01*
X693792Y-125346D01*
X693638Y-125365D01*
X693465Y-125374D01*
X693273Y-125394D01*
X690650D01*
Y-119080D01*
X693129D01*
X693196Y-119089D01*
D02*
G37*
G36*
X734260Y-120723D02*
X734337Y-120733D01*
X734433Y-120742D01*
X734529Y-120762D01*
X734644Y-120791D01*
X734875Y-120867D01*
X735000Y-120915D01*
X735125Y-120983D01*
X735250Y-121050D01*
X735374Y-121136D01*
X735490Y-121233D01*
X735605Y-121348D01*
X735615Y-121358D01*
X735634Y-121377D01*
X735663Y-121415D01*
X735701Y-121463D01*
X735740Y-121530D01*
X735788Y-121607D01*
X735845Y-121694D01*
X735903Y-121800D01*
X735951Y-121924D01*
X736009Y-122049D01*
X736057Y-122194D01*
X736105Y-122357D01*
X736134Y-122520D01*
X736163Y-122703D01*
X736182Y-122895D01*
X736191Y-123107D01*
Y-123116D01*
Y-123155D01*
Y-123222D01*
X736182Y-123308D01*
X732780D01*
Y-123318D01*
Y-123337D01*
X732790Y-123385D01*
Y-123433D01*
X732799Y-123501D01*
X732809Y-123568D01*
X732847Y-123741D01*
X732905Y-123923D01*
X732972Y-124116D01*
X733078Y-124308D01*
X733203Y-124471D01*
X733222Y-124490D01*
X733270Y-124529D01*
X733357Y-124596D01*
X733462Y-124663D01*
X733606Y-124740D01*
X733770Y-124808D01*
X733952Y-124846D01*
X734154Y-124865D01*
X734231D01*
X734308Y-124855D01*
X734404Y-124836D01*
X734519Y-124808D01*
X734644Y-124769D01*
X734769Y-124721D01*
X734884Y-124644D01*
X734894Y-124635D01*
X734933Y-124596D01*
X734990Y-124548D01*
X735057Y-124461D01*
X735134Y-124365D01*
X735211Y-124241D01*
X735288Y-124087D01*
X735365Y-123914D01*
X736163Y-124020D01*
Y-124029D01*
X736153Y-124048D01*
X736143Y-124087D01*
X736124Y-124135D01*
X736105Y-124192D01*
X736076Y-124260D01*
X735999Y-124423D01*
X735903Y-124596D01*
X735788Y-124779D01*
X735634Y-124961D01*
X735461Y-125115D01*
X735451D01*
X735442Y-125134D01*
X735413Y-125153D01*
X735365Y-125173D01*
X735317Y-125201D01*
X735259Y-125240D01*
X735192Y-125269D01*
X735106Y-125307D01*
X734923Y-125374D01*
X734692Y-125442D01*
X734442Y-125480D01*
X734154Y-125499D01*
X734058D01*
X733991Y-125490D01*
X733904Y-125480D01*
X733808Y-125471D01*
X733702Y-125451D01*
X733577Y-125423D01*
X733328Y-125346D01*
X733193Y-125298D01*
X733068Y-125240D01*
X732934Y-125173D01*
X732809Y-125086D01*
X732684Y-124990D01*
X732568Y-124884D01*
X732559Y-124875D01*
X732540Y-124855D01*
X732511Y-124817D01*
X732482Y-124769D01*
X732434Y-124711D01*
X732386Y-124635D01*
X732328Y-124538D01*
X732280Y-124433D01*
X732223Y-124317D01*
X732165Y-124192D01*
X732117Y-124048D01*
X732078Y-123895D01*
X732040Y-123731D01*
X732011Y-123549D01*
X731992Y-123356D01*
X731982Y-123155D01*
Y-123145D01*
Y-123107D01*
Y-123039D01*
X731992Y-122962D01*
X732001Y-122866D01*
X732011Y-122751D01*
X732030Y-122626D01*
X732059Y-122492D01*
X732126Y-122203D01*
X732174Y-122059D01*
X732232Y-121905D01*
X732299Y-121761D01*
X732376Y-121617D01*
X732463Y-121482D01*
X732568Y-121358D01*
X732578Y-121348D01*
X732597Y-121329D01*
X732626Y-121300D01*
X732674Y-121252D01*
X732732Y-121204D01*
X732809Y-121156D01*
X732886Y-121098D01*
X732982Y-121031D01*
X733087Y-120973D01*
X733203Y-120915D01*
X733328Y-120867D01*
X733472Y-120810D01*
X733616Y-120771D01*
X733770Y-120742D01*
X733933Y-120723D01*
X734106Y-120714D01*
X734193D01*
X734260Y-120723D01*
D02*
G37*
G36*
X698472Y-120723D02*
X698559Y-120733D01*
X698645Y-120742D01*
X698751Y-120762D01*
X698866Y-120791D01*
X699106Y-120867D01*
X699231Y-120915D01*
X699366Y-120973D01*
X699491Y-121050D01*
X699616Y-121136D01*
X699741Y-121233D01*
X699856Y-121338D01*
X699866Y-121348D01*
X699885Y-121367D01*
X699914Y-121405D01*
X699952Y-121454D01*
X700000Y-121511D01*
X700048Y-121588D01*
X700106Y-121684D01*
X700164Y-121780D01*
X700212Y-121896D01*
X700269Y-122030D01*
X700317Y-122165D01*
X700365Y-122318D01*
X700404Y-122482D01*
X700433Y-122664D01*
X700452Y-122847D01*
X700461Y-123049D01*
Y-123058D01*
Y-123087D01*
Y-123135D01*
Y-123193D01*
X700452Y-123270D01*
Y-123356D01*
X700442Y-123452D01*
X700433Y-123558D01*
X700394Y-123779D01*
X700346Y-124010D01*
X700279Y-124241D01*
X700192Y-124442D01*
Y-124452D01*
X700183Y-124461D01*
X700144Y-124529D01*
X700077Y-124615D01*
X699991Y-124731D01*
X699885Y-124855D01*
X699750Y-124980D01*
X699597Y-125105D01*
X699414Y-125221D01*
X699404D01*
X699395Y-125230D01*
X699366Y-125250D01*
X699327Y-125259D01*
X699222Y-125307D01*
X699087Y-125355D01*
X698924Y-125413D01*
X698741Y-125451D01*
X698539Y-125490D01*
X698318Y-125499D01*
X698222D01*
X698155Y-125490D01*
X698078Y-125480D01*
X697982Y-125471D01*
X697876Y-125451D01*
X697761Y-125423D01*
X697521Y-125346D01*
X697386Y-125298D01*
X697261Y-125240D01*
X697127Y-125173D01*
X697002Y-125086D01*
X696877Y-124990D01*
X696762Y-124884D01*
X696752Y-124875D01*
X696733Y-124855D01*
X696704Y-124817D01*
X696675Y-124769D01*
X696627Y-124702D01*
X696579Y-124625D01*
X696521Y-124538D01*
X696473Y-124433D01*
X696416Y-124308D01*
X696358Y-124183D01*
X696310Y-124029D01*
X696272Y-123875D01*
X696233Y-123702D01*
X696204Y-123520D01*
X696185Y-123318D01*
X696175Y-123107D01*
Y-123087D01*
Y-123049D01*
X696185Y-122982D01*
Y-122895D01*
X696195Y-122789D01*
X696214Y-122674D01*
X696233Y-122539D01*
X696262Y-122395D01*
X696300Y-122242D01*
X696348Y-122088D01*
X696406Y-121934D01*
X696473Y-121780D01*
X696550Y-121627D01*
X696646Y-121482D01*
X696752Y-121348D01*
X696877Y-121223D01*
X696886Y-121213D01*
X696906Y-121204D01*
X696935Y-121175D01*
X696983Y-121146D01*
X697040Y-121108D01*
X697108Y-121060D01*
X697184Y-121011D01*
X697281Y-120964D01*
X697377Y-120925D01*
X697482Y-120877D01*
X697732Y-120791D01*
X698011Y-120733D01*
X698165Y-120723D01*
X698318Y-120714D01*
X698405D01*
X698472Y-120723D01*
D02*
G37*
G36*
X729147Y-120723D02*
X729214Y-120733D01*
X729301Y-120752D01*
X729484Y-120800D01*
X729589Y-120829D01*
X729695Y-120877D01*
X729810Y-120925D01*
X729926Y-120992D01*
X730031Y-121069D01*
X730147Y-121156D01*
X730252Y-121261D01*
X730348Y-121377D01*
Y-120819D01*
X731060D01*
Y-124779D01*
Y-124788D01*
Y-124827D01*
Y-124875D01*
Y-124952D01*
X731050Y-125038D01*
Y-125134D01*
X731040Y-125250D01*
X731031Y-125365D01*
X731002Y-125605D01*
X730964Y-125855D01*
X730915Y-126086D01*
X730877Y-126191D01*
X730839Y-126278D01*
Y-126287D01*
X730829Y-126297D01*
X730800Y-126355D01*
X730743Y-126432D01*
X730675Y-126537D01*
X730579Y-126653D01*
X730464Y-126768D01*
X730320Y-126883D01*
X730156Y-126989D01*
X730147D01*
X730137Y-126999D01*
X730108Y-127008D01*
X730070Y-127027D01*
X729974Y-127075D01*
X729839Y-127114D01*
X729666Y-127162D01*
X729464Y-127210D01*
X729243Y-127239D01*
X728994Y-127248D01*
X728917D01*
X728859Y-127239D01*
X728792D01*
X728705Y-127229D01*
X728523Y-127200D01*
X728311Y-127152D01*
X728090Y-127095D01*
X727869Y-126999D01*
X727667Y-126874D01*
X727658D01*
X727648Y-126854D01*
X727590Y-126806D01*
X727514Y-126720D01*
X727418Y-126595D01*
X727331Y-126441D01*
X727254Y-126249D01*
X727206Y-126028D01*
X727187Y-125903D01*
Y-125768D01*
X727936Y-125874D01*
Y-125893D01*
X727946Y-125932D01*
X727965Y-125989D01*
X727985Y-126066D01*
X728023Y-126153D01*
X728071Y-126239D01*
X728129Y-126316D01*
X728205Y-126383D01*
X728215Y-126393D01*
X728263Y-126422D01*
X728321Y-126451D01*
X728417Y-126489D01*
X728523Y-126537D01*
X728657Y-126566D01*
X728821Y-126595D01*
X728994Y-126604D01*
X729080D01*
X729176Y-126595D01*
X729301Y-126576D01*
X729436Y-126547D01*
X729570Y-126508D01*
X729705Y-126460D01*
X729820Y-126383D01*
X729830Y-126374D01*
X729868Y-126345D01*
X729916Y-126297D01*
X729983Y-126230D01*
X730051Y-126143D01*
X730108Y-126047D01*
X730166Y-125922D01*
X730214Y-125788D01*
Y-125778D01*
X730224Y-125740D01*
X730233Y-125672D01*
X730243Y-125576D01*
X730262Y-125442D01*
Y-125355D01*
X730272Y-125269D01*
Y-125163D01*
Y-125057D01*
Y-124932D01*
Y-124798D01*
X730262Y-124808D01*
X730252Y-124827D01*
X730224Y-124855D01*
X730185Y-124894D01*
X730127Y-124932D01*
X730070Y-124990D01*
X729926Y-125096D01*
X729743Y-125201D01*
X729522Y-125298D01*
X729407Y-125336D01*
X729282Y-125365D01*
X729147Y-125384D01*
X729013Y-125394D01*
X728926D01*
X728859Y-125384D01*
X728782Y-125374D01*
X728686Y-125355D01*
X728590Y-125336D01*
X728475Y-125307D01*
X728359Y-125278D01*
X728244Y-125230D01*
X728119Y-125173D01*
X728004Y-125105D01*
X727879Y-125029D01*
X727763Y-124942D01*
X727658Y-124836D01*
X727552Y-124721D01*
X727542Y-124711D01*
X727533Y-124692D01*
X727504Y-124654D01*
X727475Y-124596D01*
X727437Y-124529D01*
X727389Y-124452D01*
X727341Y-124365D01*
X727292Y-124260D01*
X727245Y-124144D01*
X727196Y-124020D01*
X727158Y-123885D01*
X727110Y-123741D01*
X727052Y-123433D01*
X727043Y-123260D01*
X727033Y-123087D01*
Y-123078D01*
Y-123058D01*
Y-123020D01*
Y-122972D01*
X727043Y-122914D01*
Y-122847D01*
X727062Y-122693D01*
X727091Y-122501D01*
X727129Y-122299D01*
X727187Y-122088D01*
X727264Y-121876D01*
Y-121867D01*
X727273Y-121848D01*
X727292Y-121819D01*
X727312Y-121780D01*
X727360Y-121684D01*
X727437Y-121559D01*
X727542Y-121425D01*
X727658Y-121281D01*
X727792Y-121146D01*
X727956Y-121021D01*
X727965D01*
X727975Y-121011D01*
X728004Y-120992D01*
X728032Y-120973D01*
X728129Y-120925D01*
X728254Y-120867D01*
X728417Y-120810D01*
X728590Y-120762D01*
X728792Y-120723D01*
X729013Y-120714D01*
X729090D01*
X729147Y-120723D01*
D02*
G37*
%LPC*%
G36*
X724246Y-121358D02*
X724102D01*
X724064Y-121367D01*
X723968Y-121377D01*
X723852Y-121405D01*
X723718Y-121463D01*
X723573Y-121540D01*
X723429Y-121636D01*
X723362Y-121703D01*
X723295Y-121780D01*
X723276Y-121800D01*
X723266Y-121828D01*
X723237Y-121857D01*
X723218Y-121905D01*
X723189Y-121963D01*
X723151Y-122030D01*
X723122Y-122107D01*
X723093Y-122194D01*
X723055Y-122290D01*
X723026Y-122405D01*
X723006Y-122520D01*
X722978Y-122655D01*
X722968Y-122799D01*
X722949Y-122953D01*
Y-123116D01*
Y-123126D01*
Y-123155D01*
Y-123203D01*
X722958Y-123260D01*
Y-123337D01*
X722968Y-123414D01*
X722997Y-123616D01*
X723035Y-123827D01*
X723103Y-124048D01*
X723189Y-124250D01*
X723247Y-124346D01*
X723314Y-124433D01*
X723333Y-124452D01*
X723381Y-124500D01*
X723458Y-124567D01*
X723564Y-124644D01*
X723689Y-124731D01*
X723833Y-124798D01*
X724006Y-124846D01*
X724092Y-124855D01*
X724189Y-124865D01*
X724237D01*
X724275Y-124855D01*
X724371Y-124846D01*
X724486Y-124817D01*
X724621Y-124759D01*
X724765Y-124692D01*
X724919Y-124586D01*
X724986Y-124529D01*
X725053Y-124452D01*
Y-124442D01*
X725073Y-124433D01*
X725082Y-124404D01*
X725111Y-124375D01*
X725140Y-124327D01*
X725169Y-124279D01*
X725198Y-124212D01*
X725236Y-124135D01*
X725265Y-124058D01*
X725294Y-123962D01*
X725322Y-123856D01*
X725351Y-123741D01*
X725380Y-123616D01*
X725390Y-123481D01*
X725409Y-123337D01*
Y-123183D01*
Y-123174D01*
Y-123145D01*
Y-123097D01*
X725399Y-123030D01*
Y-122953D01*
X725390Y-122866D01*
X725361Y-122655D01*
X725322Y-122434D01*
X725255Y-122203D01*
X725169Y-121982D01*
X725111Y-121886D01*
X725044Y-121800D01*
Y-121790D01*
X725025Y-121780D01*
X724976Y-121732D01*
X724900Y-121655D01*
X724794Y-121579D01*
X724669Y-121502D01*
X724515Y-121425D01*
X724342Y-121377D01*
X724246Y-121358D01*
D02*
G37*
G36*
X711013Y-121358D02*
X710869D01*
X710831Y-121367D01*
X710735Y-121377D01*
X710619Y-121405D01*
X710485Y-121463D01*
X710340Y-121540D01*
X710196Y-121636D01*
X710129Y-121704D01*
X710062Y-121780D01*
X710043Y-121800D01*
X710033Y-121828D01*
X710004Y-121857D01*
X709985Y-121905D01*
X709956Y-121963D01*
X709918Y-122030D01*
X709889Y-122107D01*
X709860Y-122194D01*
X709822Y-122290D01*
X709793Y-122405D01*
X709773Y-122520D01*
X709745Y-122655D01*
X709735Y-122799D01*
X709716Y-122953D01*
Y-123116D01*
Y-123126D01*
Y-123155D01*
Y-123203D01*
X709726Y-123260D01*
Y-123337D01*
X709735Y-123414D01*
X709764Y-123616D01*
X709802Y-123827D01*
X709870Y-124048D01*
X709956Y-124250D01*
X710014Y-124346D01*
X710081Y-124433D01*
X710100Y-124452D01*
X710148Y-124500D01*
X710225Y-124567D01*
X710331Y-124644D01*
X710456Y-124731D01*
X710600Y-124798D01*
X710773Y-124846D01*
X710859Y-124855D01*
X710955Y-124865D01*
X711004D01*
X711042Y-124855D01*
X711138Y-124846D01*
X711253Y-124817D01*
X711388Y-124759D01*
X711532Y-124692D01*
X711686Y-124586D01*
X711753Y-124529D01*
X711820Y-124452D01*
Y-124442D01*
X711840Y-124433D01*
X711849Y-124404D01*
X711878Y-124375D01*
X711907Y-124327D01*
X711936Y-124279D01*
X711965Y-124212D01*
X712003Y-124135D01*
X712032Y-124058D01*
X712061Y-123962D01*
X712089Y-123856D01*
X712118Y-123741D01*
X712147Y-123616D01*
X712157Y-123481D01*
X712176Y-123337D01*
Y-123183D01*
Y-123174D01*
Y-123145D01*
Y-123097D01*
X712166Y-123030D01*
Y-122953D01*
X712157Y-122866D01*
X712128Y-122655D01*
X712089Y-122434D01*
X712022Y-122203D01*
X711936Y-121982D01*
X711878Y-121886D01*
X711811Y-121800D01*
Y-121790D01*
X711792Y-121780D01*
X711744Y-121732D01*
X711667Y-121655D01*
X711561Y-121579D01*
X711436Y-121502D01*
X711282Y-121425D01*
X711109Y-121377D01*
X711013Y-121358D01*
D02*
G37*
G36*
X704286Y-123097D02*
X704267Y-123107D01*
X704238Y-123116D01*
X704209Y-123126D01*
X704161Y-123145D01*
X704104Y-123155D01*
X704046Y-123174D01*
X703969Y-123203D01*
X703883Y-123222D01*
X703787Y-123241D01*
X703690Y-123270D01*
X703575Y-123299D01*
X703450Y-123318D01*
X703316Y-123347D01*
X703171Y-123366D01*
X703018Y-123395D01*
X702998D01*
X702941Y-123404D01*
X702854Y-123424D01*
X702749Y-123443D01*
X702528Y-123491D01*
X702422Y-123520D01*
X702335Y-123549D01*
X702326D01*
X702307Y-123568D01*
X702268Y-123587D01*
X702230Y-123616D01*
X702134Y-123693D01*
X702037Y-123808D01*
Y-123818D01*
X702018Y-123837D01*
X702009Y-123866D01*
X701989Y-123914D01*
X701951Y-124029D01*
X701941Y-124096D01*
X701932Y-124173D01*
Y-124183D01*
Y-124221D01*
X701941Y-124279D01*
X701961Y-124356D01*
X701989Y-124433D01*
X702028Y-124519D01*
X702085Y-124606D01*
X702162Y-124692D01*
X702172Y-124702D01*
X702210Y-124721D01*
X702258Y-124759D01*
X702335Y-124788D01*
X702431Y-124827D01*
X702556Y-124865D01*
X702691Y-124884D01*
X702854Y-124894D01*
X702931D01*
X703008Y-124884D01*
X703123Y-124865D01*
X703239Y-124846D01*
X703373Y-124817D01*
X703508Y-124769D01*
X703642Y-124702D01*
X703661Y-124692D01*
X703700Y-124663D01*
X703767Y-124625D01*
X703844Y-124558D01*
X703921Y-124490D01*
X704007Y-124394D01*
X704094Y-124289D01*
X704161Y-124164D01*
X704171Y-124154D01*
X704180Y-124116D01*
X704200Y-124058D01*
X704228Y-123971D01*
X704248Y-123856D01*
X704267Y-123722D01*
X704277Y-123568D01*
X704286Y-123385D01*
Y-123097D01*
D02*
G37*
G36*
X692975Y-119820D02*
X691486D01*
Y-121742D01*
X693033D01*
X693148Y-121732D01*
X693283Y-121723D01*
X693417Y-121713D01*
X693533Y-121694D01*
X693638Y-121675D01*
X693648Y-121665D01*
X693686Y-121655D01*
X693744Y-121636D01*
X693821Y-121598D01*
X693898Y-121559D01*
X693975Y-121502D01*
X694052Y-121434D01*
X694119Y-121358D01*
X694128Y-121348D01*
X694148Y-121319D01*
X694167Y-121271D01*
X694205Y-121204D01*
X694234Y-121127D01*
X694253Y-121031D01*
X694273Y-120925D01*
X694282Y-120800D01*
Y-120791D01*
Y-120742D01*
X694273Y-120685D01*
X694263Y-120608D01*
X694244Y-120521D01*
X694215Y-120435D01*
X694176Y-120339D01*
X694128Y-120243D01*
X694119Y-120233D01*
X694100Y-120204D01*
X694061Y-120166D01*
X694013Y-120108D01*
X693956Y-120060D01*
X693879Y-120002D01*
X693792Y-119954D01*
X693696Y-119916D01*
X693686D01*
X693638Y-119897D01*
X693571Y-119887D01*
X693475Y-119868D01*
X693340Y-119849D01*
X693177Y-119839D01*
X692975Y-119820D01*
D02*
G37*
G36*
X693148Y-122482D02*
X691486D01*
Y-124654D01*
X693273D01*
X693465Y-124644D01*
X693552Y-124635D01*
X693619Y-124625D01*
X693629D01*
X693667Y-124615D01*
X693725Y-124606D01*
X693792Y-124586D01*
X693946Y-124538D01*
X694100Y-124461D01*
X694109Y-124452D01*
X694138Y-124442D01*
X694167Y-124414D01*
X694215Y-124365D01*
X694273Y-124317D01*
X694321Y-124260D01*
X694378Y-124183D01*
X694426Y-124106D01*
X694436Y-124096D01*
X694446Y-124067D01*
X694465Y-124020D01*
X694494Y-123952D01*
X694513Y-123875D01*
X694532Y-123779D01*
X694542Y-123683D01*
X694551Y-123568D01*
Y-123549D01*
Y-123510D01*
X694542Y-123443D01*
X694532Y-123366D01*
X694503Y-123270D01*
X694474Y-123164D01*
X694426Y-123058D01*
X694359Y-122962D01*
X694349Y-122953D01*
X694330Y-122914D01*
X694282Y-122876D01*
X694225Y-122818D01*
X694157Y-122751D01*
X694071Y-122693D01*
X693975Y-122636D01*
X693859Y-122588D01*
X693840Y-122578D01*
X693802Y-122568D01*
X693725Y-122549D01*
X693629Y-122530D01*
X693494Y-122511D01*
X693340Y-122501D01*
X693148Y-122482D01*
D02*
G37*
G36*
X734116Y-121348D02*
X734068D01*
X734029Y-121358D01*
X733923Y-121367D01*
X733799Y-121396D01*
X733654Y-121434D01*
X733510Y-121502D01*
X733357Y-121588D01*
X733212Y-121713D01*
X733193Y-121732D01*
X733155Y-121780D01*
X733097Y-121857D01*
X733030Y-121973D01*
X732962Y-122107D01*
X732895Y-122270D01*
X732847Y-122463D01*
X732818Y-122674D01*
X735374D01*
Y-122664D01*
Y-122645D01*
X735365Y-122616D01*
Y-122578D01*
X735346Y-122472D01*
X735317Y-122347D01*
X735278Y-122213D01*
X735221Y-122069D01*
X735163Y-121924D01*
X735077Y-121809D01*
Y-121800D01*
X735057Y-121790D01*
X735009Y-121732D01*
X734923Y-121665D01*
X734817Y-121579D01*
X734673Y-121492D01*
X734510Y-121415D01*
X734327Y-121367D01*
X734221Y-121358D01*
X734116Y-121348D01*
D02*
G37*
G36*
X698424Y-121358D02*
X698261D01*
X698222Y-121367D01*
X698117Y-121377D01*
X697982Y-121415D01*
X697828Y-121463D01*
X697665Y-121540D01*
X697502Y-121655D01*
X697425Y-121723D01*
X697348Y-121800D01*
X697329Y-121819D01*
X697309Y-121848D01*
X697290Y-121876D01*
X697261Y-121924D01*
X697232Y-121982D01*
X697194Y-122049D01*
X697165Y-122126D01*
X697127Y-122213D01*
X697088Y-122309D01*
X697059Y-122415D01*
X697031Y-122539D01*
X697011Y-122664D01*
X696992Y-122809D01*
X696973Y-122953D01*
Y-123116D01*
Y-123126D01*
Y-123155D01*
Y-123203D01*
X696983Y-123260D01*
Y-123328D01*
X696992Y-123414D01*
X697021Y-123606D01*
X697069Y-123818D01*
X697127Y-124039D01*
X697223Y-124250D01*
X697281Y-124346D01*
X697348Y-124433D01*
X697367Y-124452D01*
X697415Y-124500D01*
X697502Y-124567D01*
X697617Y-124644D01*
X697751Y-124731D01*
X697924Y-124798D01*
X698107Y-124846D01*
X698213Y-124855D01*
X698318Y-124865D01*
X698376D01*
X698415Y-124855D01*
X698520Y-124846D01*
X698655Y-124808D01*
X698808Y-124759D01*
X698972Y-124683D01*
X699126Y-124577D01*
X699202Y-124510D01*
X699279Y-124433D01*
Y-124423D01*
X699299Y-124414D01*
X699318Y-124385D01*
X699337Y-124346D01*
X699366Y-124298D01*
X699404Y-124241D01*
X699433Y-124173D01*
X699472Y-124096D01*
X699510Y-124010D01*
X699539Y-123914D01*
X699577Y-123798D01*
X699606Y-123673D01*
X699625Y-123549D01*
X699645Y-123404D01*
X699664Y-123251D01*
Y-123087D01*
Y-123078D01*
Y-123049D01*
Y-123010D01*
X699654Y-122943D01*
Y-122876D01*
X699645Y-122799D01*
X699616Y-122607D01*
X699568Y-122405D01*
X699500Y-122184D01*
X699404Y-121982D01*
X699270Y-121800D01*
Y-121790D01*
X699251Y-121780D01*
X699202Y-121732D01*
X699116Y-121655D01*
X699010Y-121579D01*
X698866Y-121502D01*
X698703Y-121425D01*
X698520Y-121377D01*
X698424Y-121358D01*
D02*
G37*
G36*
X729167Y-121358D02*
X729022D01*
X728984Y-121367D01*
X728888Y-121377D01*
X728763Y-121405D01*
X728628Y-121463D01*
X728475Y-121540D01*
X728330Y-121636D01*
X728254Y-121703D01*
X728186Y-121780D01*
X728167Y-121800D01*
X728157Y-121828D01*
X728129Y-121857D01*
X728100Y-121905D01*
X728071Y-121953D01*
X728042Y-122021D01*
X728013Y-122098D01*
X727975Y-122174D01*
X727946Y-122270D01*
X727917Y-122376D01*
X727888Y-122482D01*
X727850Y-122741D01*
X727831Y-123030D01*
Y-123039D01*
Y-123068D01*
Y-123116D01*
X727840Y-123174D01*
Y-123251D01*
X727850Y-123337D01*
X727879Y-123529D01*
X727917Y-123741D01*
X727985Y-123962D01*
X728071Y-124164D01*
X728129Y-124250D01*
X728186Y-124337D01*
X728205Y-124356D01*
X728254Y-124404D01*
X728330Y-124471D01*
X728436Y-124538D01*
X728561Y-124615D01*
X728715Y-124682D01*
X728888Y-124731D01*
X728984Y-124740D01*
X729080Y-124750D01*
X729128D01*
X729167Y-124740D01*
X729272Y-124731D01*
X729397Y-124702D01*
X729532Y-124654D01*
X729685Y-124577D01*
X729830Y-124481D01*
X729974Y-124346D01*
Y-124337D01*
X729993Y-124327D01*
X730012Y-124298D01*
X730031Y-124269D01*
X730060Y-124221D01*
X730089Y-124173D01*
X730118Y-124106D01*
X730156Y-124029D01*
X730195Y-123943D01*
X730224Y-123846D01*
X730252Y-123741D01*
X730281Y-123626D01*
X730310Y-123501D01*
X730320Y-123366D01*
X730339Y-123212D01*
Y-123058D01*
Y-123049D01*
Y-123020D01*
Y-122982D01*
X730329Y-122924D01*
Y-122847D01*
X730320Y-122770D01*
X730291Y-122578D01*
X730252Y-122376D01*
X730185Y-122165D01*
X730089Y-121963D01*
X730031Y-121876D01*
X729964Y-121790D01*
Y-121780D01*
X729945Y-121771D01*
X729897Y-121723D01*
X729820Y-121655D01*
X729714Y-121569D01*
X729589Y-121492D01*
X729436Y-121425D01*
X729263Y-121377D01*
X729167Y-121358D01*
D02*
G37*
%LPD*%
D11*
X348727Y15143D02*
G03*
X362231Y28721I28J13476D01*
G01*
X313897Y453D02*
G03*
X327865Y8398I-430J17007D01*
G01*
X340101Y15143D02*
G03*
X327800Y8303I31J-14537D01*
G01*
X327073Y341609D02*
G03*
X340443Y332359I13542J5287D01*
G01*
X326634Y342790D02*
G03*
X315457Y350371I-11018J-4215D01*
G01*
X429Y19709D02*
G03*
X13080Y7370I12282J-63D01*
G01*
X29169Y3404D02*
G03*
X20591Y7370I-8805J-7785D01*
G01*
X29072Y3478D02*
G03*
X35354Y453I6097J4625D01*
G01*
X362262Y319425D02*
G03*
X349823Y332359I-12687J247D01*
G01*
X15524Y350371D02*
G03*
X429Y333981I435J-15546D01*
G01*
X340101Y15143D02*
X348756D01*
X340443Y332359D02*
X349823D01*
X326634Y342790D02*
X327141Y341464D01*
X429Y333981D02*
X429Y19709D01*
X13080Y7370D02*
X20591D01*
X35354Y453D02*
X313467D01*
X362262Y28721D02*
X362262Y319425D01*
X15524Y350371D02*
X315457D01*
X348727Y15143D02*
G03*
X362231Y28721I28J13476D01*
G01*
X313897Y453D02*
G03*
X327865Y8398I-430J17007D01*
G01*
X340101Y15143D02*
G03*
X327800Y8303I31J-14537D01*
G01*
X327073Y341609D02*
G03*
X340443Y332359I13542J5287D01*
G01*
X326634Y342790D02*
G03*
X315457Y350371I-11018J-4215D01*
G01*
X429Y19709D02*
G03*
X13080Y7370I12282J-63D01*
G01*
X29169Y3404D02*
G03*
X20591Y7370I-8805J-7785D01*
G01*
X29072Y3478D02*
G03*
X35354Y453I6097J4625D01*
G01*
X362262Y319425D02*
G03*
X349823Y332359I-12687J247D01*
G01*
X15524Y350371D02*
G03*
X429Y333981I435J-15546D01*
G01*
X340101Y15143D02*
X348756D01*
X340443Y332359D02*
X349823D01*
X326634Y342790D02*
X327141Y341464D01*
X429Y333981D02*
X429Y19709D01*
X13080Y7370D02*
X20591D01*
X35354Y453D02*
X313467D01*
X362262Y28721D02*
X362262Y319425D01*
X15524Y350371D02*
X315457D01*
M02*
