G04*
G04 #@! TF.GenerationSoftware,Altium Limited,Altium Designer,18.1.7 (191)*
G04*
G04 Layer_Color=16711935*
%FSLAX25Y25*%
%MOIN*%
G70*
G01*
G75*
%ADD11C,0.01000*%
%ADD115C,0.00236*%
G36*
X655498Y-125130D02*
X654779D01*
Y-124556D01*
X654770Y-124565D01*
X654761Y-124583D01*
X654733Y-124620D01*
X654697Y-124665D01*
X654651Y-124711D01*
X654597Y-124766D01*
X654533Y-124829D01*
X654451Y-124893D01*
X654369Y-124957D01*
X654278Y-125021D01*
X654168Y-125075D01*
X654050Y-125121D01*
X653932Y-125166D01*
X653795Y-125203D01*
X653649Y-125221D01*
X653494Y-125230D01*
X653440D01*
X653403Y-125221D01*
X653294Y-125212D01*
X653166Y-125194D01*
X653011Y-125157D01*
X652838Y-125103D01*
X652665Y-125030D01*
X652492Y-124929D01*
X652483D01*
X652474Y-124911D01*
X652419Y-124875D01*
X652337Y-124802D01*
X652237Y-124711D01*
X652119Y-124592D01*
X652000Y-124447D01*
X651882Y-124283D01*
X651782Y-124091D01*
Y-124082D01*
X651772Y-124064D01*
X651763Y-124037D01*
X651745Y-124000D01*
X651727Y-123946D01*
X651700Y-123882D01*
X651681Y-123818D01*
X651663Y-123736D01*
X651618Y-123554D01*
X651572Y-123344D01*
X651545Y-123108D01*
X651536Y-122852D01*
Y-122843D01*
Y-122825D01*
Y-122789D01*
Y-122734D01*
X651545Y-122679D01*
Y-122607D01*
X651563Y-122442D01*
X651590Y-122251D01*
X651636Y-122042D01*
X651690Y-121823D01*
X651763Y-121614D01*
Y-121604D01*
X651772Y-121586D01*
X651791Y-121559D01*
X651809Y-121522D01*
X651864Y-121422D01*
X651936Y-121295D01*
X652028Y-121158D01*
X652146Y-121021D01*
X652283Y-120876D01*
X652447Y-120757D01*
X652456D01*
X652465Y-120748D01*
X652492Y-120730D01*
X652529Y-120712D01*
X652620Y-120666D01*
X652747Y-120602D01*
X652893Y-120548D01*
X653066Y-120502D01*
X653257Y-120466D01*
X653458Y-120457D01*
X653531D01*
X653604Y-120466D01*
X653704Y-120475D01*
X653822Y-120502D01*
X653950Y-120529D01*
X654077Y-120575D01*
X654196Y-120639D01*
X654214Y-120648D01*
X654250Y-120666D01*
X654305Y-120712D01*
X654378Y-120757D01*
X654469Y-120821D01*
X654551Y-120903D01*
X654642Y-120985D01*
X654724Y-121085D01*
Y-118826D01*
X655498D01*
Y-125130D01*
D02*
G37*
G36*
X629289Y-118808D02*
X629407Y-118826D01*
X629553Y-118853D01*
X629717Y-118899D01*
X629881Y-118953D01*
X630045Y-119026D01*
X630054D01*
X630063Y-119035D01*
X630118Y-119063D01*
X630200Y-119117D01*
X630291Y-119181D01*
X630400Y-119272D01*
X630510Y-119372D01*
X630619Y-119491D01*
X630710Y-119627D01*
X630719Y-119646D01*
X630747Y-119691D01*
X630783Y-119773D01*
X630829Y-119873D01*
X630874Y-119992D01*
X630911Y-120129D01*
X630938Y-120283D01*
X630947Y-120438D01*
Y-120457D01*
Y-120511D01*
X630938Y-120584D01*
X630920Y-120684D01*
X630892Y-120803D01*
X630847Y-120930D01*
X630792Y-121058D01*
X630719Y-121185D01*
X630710Y-121203D01*
X630683Y-121240D01*
X630628Y-121304D01*
X630555Y-121377D01*
X630464Y-121459D01*
X630355Y-121550D01*
X630227Y-121632D01*
X630072Y-121714D01*
X630082D01*
X630100Y-121723D01*
X630127Y-121732D01*
X630163Y-121741D01*
X630264Y-121777D01*
X630391Y-121832D01*
X630537Y-121905D01*
X630683Y-121996D01*
X630820Y-122115D01*
X630947Y-122251D01*
X630956Y-122269D01*
X630993Y-122324D01*
X631047Y-122415D01*
X631102Y-122534D01*
X631156Y-122679D01*
X631211Y-122852D01*
X631248Y-123053D01*
X631257Y-123272D01*
Y-123281D01*
Y-123308D01*
Y-123354D01*
X631248Y-123408D01*
X631239Y-123481D01*
X631220Y-123563D01*
X631202Y-123654D01*
X631184Y-123754D01*
X631111Y-123973D01*
X631056Y-124091D01*
X631002Y-124201D01*
X630929Y-124319D01*
X630847Y-124438D01*
X630756Y-124556D01*
X630646Y-124665D01*
X630637Y-124674D01*
X630619Y-124693D01*
X630583Y-124720D01*
X630537Y-124756D01*
X630482Y-124802D01*
X630409Y-124847D01*
X630328Y-124902D01*
X630227Y-124948D01*
X630127Y-125002D01*
X630009Y-125057D01*
X629890Y-125103D01*
X629754Y-125148D01*
X629608Y-125185D01*
X629453Y-125212D01*
X629298Y-125230D01*
X629125Y-125239D01*
X629043D01*
X628988Y-125230D01*
X628916Y-125221D01*
X628833Y-125212D01*
X628742Y-125194D01*
X628642Y-125175D01*
X628424Y-125121D01*
X628196Y-125030D01*
X628077Y-124975D01*
X627968Y-124911D01*
X627859Y-124829D01*
X627749Y-124747D01*
X627740Y-124738D01*
X627722Y-124720D01*
X627695Y-124693D01*
X627667Y-124656D01*
X627622Y-124611D01*
X627576Y-124547D01*
X627522Y-124483D01*
X627467Y-124401D01*
X627412Y-124310D01*
X627358Y-124219D01*
X627257Y-124000D01*
X627176Y-123745D01*
X627148Y-123609D01*
X627130Y-123463D01*
X627904Y-123363D01*
Y-123372D01*
X627913Y-123390D01*
X627922Y-123426D01*
X627932Y-123472D01*
X627941Y-123527D01*
X627959Y-123590D01*
X628005Y-123727D01*
X628068Y-123891D01*
X628150Y-124046D01*
X628241Y-124192D01*
X628351Y-124319D01*
X628369Y-124328D01*
X628405Y-124365D01*
X628478Y-124410D01*
X628569Y-124456D01*
X628679Y-124510D01*
X628815Y-124556D01*
X628970Y-124592D01*
X629134Y-124601D01*
X629189D01*
X629225Y-124592D01*
X629325Y-124583D01*
X629453Y-124556D01*
X629599Y-124510D01*
X629754Y-124447D01*
X629909Y-124356D01*
X630054Y-124228D01*
X630072Y-124210D01*
X630118Y-124155D01*
X630173Y-124073D01*
X630245Y-123964D01*
X630318Y-123827D01*
X630373Y-123672D01*
X630419Y-123490D01*
X630437Y-123290D01*
Y-123281D01*
Y-123262D01*
Y-123235D01*
X630428Y-123199D01*
X630419Y-123098D01*
X630391Y-122980D01*
X630355Y-122834D01*
X630291Y-122688D01*
X630200Y-122543D01*
X630082Y-122406D01*
X630063Y-122388D01*
X630018Y-122351D01*
X629945Y-122297D01*
X629845Y-122233D01*
X629717Y-122169D01*
X629562Y-122115D01*
X629389Y-122078D01*
X629198Y-122060D01*
X629116D01*
X629052Y-122069D01*
X628970Y-122078D01*
X628879Y-122096D01*
X628770Y-122115D01*
X628651Y-122142D01*
X628742Y-121459D01*
X628788D01*
X628824Y-121468D01*
X628943D01*
X629043Y-121449D01*
X629161Y-121431D01*
X629298Y-121404D01*
X629453Y-121358D01*
X629599Y-121295D01*
X629754Y-121213D01*
X629763D01*
X629772Y-121203D01*
X629817Y-121167D01*
X629881Y-121103D01*
X629954Y-121021D01*
X630027Y-120903D01*
X630091Y-120766D01*
X630136Y-120611D01*
X630154Y-120520D01*
Y-120420D01*
Y-120411D01*
Y-120402D01*
Y-120347D01*
X630136Y-120274D01*
X630118Y-120174D01*
X630082Y-120065D01*
X630036Y-119946D01*
X629963Y-119828D01*
X629863Y-119719D01*
X629854Y-119710D01*
X629808Y-119673D01*
X629744Y-119627D01*
X629663Y-119573D01*
X629553Y-119527D01*
X629426Y-119482D01*
X629280Y-119445D01*
X629116Y-119436D01*
X629043D01*
X628961Y-119454D01*
X628852Y-119473D01*
X628733Y-119509D01*
X628615Y-119555D01*
X628487Y-119627D01*
X628369Y-119719D01*
X628360Y-119728D01*
X628323Y-119773D01*
X628269Y-119837D01*
X628205Y-119928D01*
X628141Y-120047D01*
X628077Y-120192D01*
X628023Y-120365D01*
X627986Y-120566D01*
X627212Y-120429D01*
Y-120420D01*
X627221Y-120393D01*
X627230Y-120356D01*
X627239Y-120302D01*
X627257Y-120238D01*
X627285Y-120165D01*
X627339Y-119992D01*
X627430Y-119791D01*
X627540Y-119591D01*
X627676Y-119400D01*
X627850Y-119227D01*
X627859Y-119218D01*
X627877Y-119208D01*
X627904Y-119190D01*
X627941Y-119163D01*
X627986Y-119126D01*
X628050Y-119090D01*
X628114Y-119054D01*
X628196Y-119008D01*
X628378Y-118935D01*
X628587Y-118862D01*
X628833Y-118817D01*
X628961Y-118798D01*
X629189D01*
X629289Y-118808D01*
D02*
G37*
G36*
X658733Y-125203D02*
Y-125212D01*
X658723Y-125239D01*
X658705Y-125276D01*
X658687Y-125321D01*
X658660Y-125385D01*
X658632Y-125458D01*
X658568Y-125613D01*
X658505Y-125786D01*
X658432Y-125959D01*
X658359Y-126114D01*
X658322Y-126178D01*
X658295Y-126241D01*
X658286Y-126260D01*
X658259Y-126305D01*
X658213Y-126369D01*
X658159Y-126451D01*
X658086Y-126542D01*
X658004Y-126633D01*
X657922Y-126724D01*
X657822Y-126797D01*
X657812Y-126806D01*
X657776Y-126824D01*
X657721Y-126852D01*
X657639Y-126888D01*
X657548Y-126925D01*
X657439Y-126952D01*
X657320Y-126970D01*
X657184Y-126979D01*
X657147D01*
X657102Y-126970D01*
X657038D01*
X656965Y-126952D01*
X656883Y-126934D01*
X656792Y-126916D01*
X656692Y-126879D01*
X656610Y-126159D01*
X656619D01*
X656655Y-126169D01*
X656701Y-126178D01*
X656756Y-126196D01*
X656901Y-126223D01*
X657047Y-126232D01*
X657093D01*
X657138Y-126223D01*
X657193D01*
X657330Y-126196D01*
X657393Y-126169D01*
X657457Y-126141D01*
X657466D01*
X657484Y-126123D01*
X657512Y-126105D01*
X657548Y-126077D01*
X657630Y-126005D01*
X657703Y-125904D01*
Y-125895D01*
X657721Y-125877D01*
X657739Y-125840D01*
X657758Y-125786D01*
X657794Y-125713D01*
X657831Y-125604D01*
X657885Y-125476D01*
X657940Y-125321D01*
Y-125312D01*
X657958Y-125276D01*
X657976Y-125212D01*
X658013Y-125130D01*
X656282Y-120557D01*
X657102D01*
X658058Y-123208D01*
Y-123217D01*
X658068Y-123226D01*
X658077Y-123253D01*
X658086Y-123299D01*
X658104Y-123344D01*
X658122Y-123399D01*
X658168Y-123527D01*
X658222Y-123681D01*
X658277Y-123864D01*
X658332Y-124055D01*
X658386Y-124265D01*
Y-124255D01*
X658395Y-124237D01*
X658404Y-124210D01*
X658414Y-124173D01*
X658423Y-124128D01*
X658441Y-124073D01*
X658477Y-123936D01*
X658523Y-123782D01*
X658587Y-123600D01*
X658641Y-123417D01*
X658714Y-123226D01*
X659698Y-120557D01*
X660472D01*
X658733Y-125203D01*
D02*
G37*
G36*
X643655Y-118835D02*
X643728D01*
X643892Y-118853D01*
X644074Y-118871D01*
X644266Y-118908D01*
X644457Y-118953D01*
X644630Y-119017D01*
X644639D01*
X644648Y-119026D01*
X644703Y-119054D01*
X644785Y-119099D01*
X644876Y-119163D01*
X644985Y-119245D01*
X645104Y-119345D01*
X645213Y-119473D01*
X645314Y-119609D01*
X645323Y-119627D01*
X645350Y-119682D01*
X645396Y-119755D01*
X645441Y-119864D01*
X645487Y-119992D01*
X645532Y-120129D01*
X645559Y-120283D01*
X645569Y-120438D01*
Y-120457D01*
Y-120502D01*
X645559Y-120584D01*
X645541Y-120684D01*
X645514Y-120803D01*
X645468Y-120930D01*
X645414Y-121058D01*
X645341Y-121194D01*
X645332Y-121213D01*
X645304Y-121249D01*
X645250Y-121322D01*
X645177Y-121395D01*
X645086Y-121486D01*
X644976Y-121586D01*
X644840Y-121677D01*
X644685Y-121768D01*
X644694D01*
X644712Y-121777D01*
X644739Y-121787D01*
X644776Y-121805D01*
X644885Y-121841D01*
X645013Y-121905D01*
X645150Y-121987D01*
X645304Y-122087D01*
X645441Y-122206D01*
X645569Y-122351D01*
X645578Y-122370D01*
X645614Y-122424D01*
X645669Y-122506D01*
X645723Y-122616D01*
X645778Y-122761D01*
X645833Y-122916D01*
X645869Y-123098D01*
X645878Y-123299D01*
Y-123308D01*
Y-123317D01*
Y-123372D01*
X645869Y-123463D01*
X645851Y-123572D01*
X645833Y-123700D01*
X645796Y-123836D01*
X645751Y-123982D01*
X645687Y-124128D01*
X645678Y-124146D01*
X645650Y-124192D01*
X645614Y-124255D01*
X645559Y-124346D01*
X645487Y-124438D01*
X645414Y-124538D01*
X645323Y-124638D01*
X645222Y-124720D01*
X645213Y-124729D01*
X645177Y-124756D01*
X645113Y-124793D01*
X645031Y-124829D01*
X644931Y-124884D01*
X644812Y-124939D01*
X644685Y-124984D01*
X644530Y-125030D01*
X644512D01*
X644457Y-125048D01*
X644366Y-125057D01*
X644248Y-125075D01*
X644102Y-125093D01*
X643929Y-125112D01*
X643737Y-125121D01*
X643519Y-125130D01*
X641114D01*
Y-118826D01*
X643592D01*
X643655Y-118835D01*
D02*
G37*
G36*
X634928D02*
X635110Y-118844D01*
X635292Y-118862D01*
X635475Y-118890D01*
X635630Y-118917D01*
X635639D01*
X635657Y-118926D01*
X635684D01*
X635721Y-118944D01*
X635821Y-118972D01*
X635948Y-119017D01*
X636094Y-119081D01*
X636249Y-119163D01*
X636404Y-119254D01*
X636550Y-119372D01*
X636559Y-119381D01*
X636568Y-119391D01*
X636595Y-119418D01*
X636632Y-119445D01*
X636723Y-119536D01*
X636832Y-119664D01*
X636950Y-119819D01*
X637078Y-120001D01*
X637196Y-120211D01*
X637297Y-120447D01*
Y-120457D01*
X637306Y-120475D01*
X637324Y-120511D01*
X637333Y-120566D01*
X637360Y-120630D01*
X637379Y-120703D01*
X637397Y-120784D01*
X637424Y-120885D01*
X637452Y-120985D01*
X637470Y-121103D01*
X637515Y-121358D01*
X637543Y-121641D01*
X637552Y-121950D01*
Y-121960D01*
Y-121978D01*
Y-122023D01*
Y-122069D01*
X637543Y-122133D01*
Y-122206D01*
X637534Y-122379D01*
X637506Y-122579D01*
X637479Y-122789D01*
X637433Y-123007D01*
X637379Y-123226D01*
Y-123235D01*
X637369Y-123253D01*
X637360Y-123281D01*
X637351Y-123317D01*
X637315Y-123417D01*
X637260Y-123545D01*
X637206Y-123691D01*
X637133Y-123836D01*
X637042Y-123991D01*
X636950Y-124137D01*
X636941Y-124155D01*
X636905Y-124201D01*
X636850Y-124265D01*
X636777Y-124346D01*
X636695Y-124438D01*
X636595Y-124529D01*
X636495Y-124629D01*
X636377Y-124711D01*
X636358Y-124720D01*
X636322Y-124747D01*
X636258Y-124784D01*
X636167Y-124829D01*
X636058Y-124884D01*
X635930Y-124929D01*
X635784Y-124984D01*
X635620Y-125030D01*
X635602D01*
X635575Y-125039D01*
X635547Y-125048D01*
X635457Y-125057D01*
X635329Y-125075D01*
X635183Y-125093D01*
X635010Y-125112D01*
X634819Y-125121D01*
X634609Y-125130D01*
X632341D01*
Y-118826D01*
X634764D01*
X634928Y-118835D01*
D02*
G37*
G36*
X648930Y-120466D02*
X649012Y-120475D01*
X649103Y-120493D01*
X649203Y-120511D01*
X649322Y-120529D01*
X649568Y-120611D01*
X649695Y-120657D01*
X649823Y-120721D01*
X649951Y-120784D01*
X650078Y-120876D01*
X650196Y-120967D01*
X650315Y-121076D01*
X650324Y-121085D01*
X650342Y-121103D01*
X650370Y-121140D01*
X650406Y-121185D01*
X650452Y-121249D01*
X650506Y-121331D01*
X650561Y-121422D01*
X650616Y-121522D01*
X650670Y-121632D01*
X650725Y-121768D01*
X650779Y-121905D01*
X650825Y-122060D01*
X650862Y-122224D01*
X650889Y-122397D01*
X650907Y-122579D01*
X650916Y-122780D01*
Y-122789D01*
Y-122816D01*
Y-122862D01*
Y-122925D01*
X650907Y-122998D01*
X650898Y-123089D01*
Y-123180D01*
X650880Y-123281D01*
X650852Y-123508D01*
X650798Y-123736D01*
X650734Y-123964D01*
X650643Y-124173D01*
Y-124182D01*
X650634Y-124192D01*
X650616Y-124219D01*
X650597Y-124255D01*
X650533Y-124346D01*
X650452Y-124456D01*
X650342Y-124583D01*
X650206Y-124711D01*
X650051Y-124838D01*
X649868Y-124957D01*
X649859D01*
X649850Y-124966D01*
X649823Y-124984D01*
X649777Y-125002D01*
X649732Y-125021D01*
X649677Y-125039D01*
X649541Y-125093D01*
X649386Y-125139D01*
X649194Y-125185D01*
X648994Y-125221D01*
X648775Y-125230D01*
X648684D01*
X648611Y-125221D01*
X648529Y-125212D01*
X648438Y-125194D01*
X648329Y-125175D01*
X648220Y-125157D01*
X647974Y-125084D01*
X647837Y-125030D01*
X647709Y-124975D01*
X647582Y-124902D01*
X647454Y-124820D01*
X647336Y-124729D01*
X647218Y-124620D01*
X647208Y-124611D01*
X647190Y-124592D01*
X647163Y-124556D01*
X647126Y-124501D01*
X647081Y-124438D01*
X647035Y-124365D01*
X646981Y-124274D01*
X646926Y-124164D01*
X646871Y-124046D01*
X646817Y-123909D01*
X646771Y-123763D01*
X646726Y-123609D01*
X646689Y-123435D01*
X646662Y-123253D01*
X646643Y-123053D01*
X646634Y-122843D01*
Y-122825D01*
Y-122789D01*
X646643Y-122725D01*
Y-122634D01*
X646653Y-122534D01*
X646671Y-122406D01*
X646689Y-122278D01*
X646726Y-122133D01*
X646762Y-121987D01*
X646807Y-121832D01*
X646862Y-121668D01*
X646935Y-121513D01*
X647008Y-121368D01*
X647108Y-121222D01*
X647208Y-121085D01*
X647336Y-120967D01*
X647345Y-120958D01*
X647363Y-120948D01*
X647400Y-120921D01*
X647445Y-120885D01*
X647500Y-120848D01*
X647573Y-120803D01*
X647646Y-120757D01*
X647737Y-120712D01*
X647837Y-120666D01*
X647946Y-120621D01*
X648192Y-120538D01*
X648475Y-120475D01*
X648620Y-120466D01*
X648775Y-120457D01*
X648866D01*
X648930Y-120466D01*
D02*
G37*
%LPC*%
G36*
X653540Y-121094D02*
X653494D01*
X653458Y-121103D01*
X653358Y-121112D01*
X653239Y-121149D01*
X653102Y-121194D01*
X652957Y-121276D01*
X652811Y-121377D01*
X652738Y-121449D01*
X652674Y-121522D01*
Y-121531D01*
X652656Y-121541D01*
X652647Y-121568D01*
X652620Y-121604D01*
X652592Y-121650D01*
X652565Y-121705D01*
X652538Y-121768D01*
X652501Y-121841D01*
X652465Y-121932D01*
X652437Y-122032D01*
X652410Y-122142D01*
X652383Y-122260D01*
X652365Y-122388D01*
X652346Y-122534D01*
X652328Y-122688D01*
Y-122852D01*
Y-122862D01*
Y-122889D01*
Y-122934D01*
X652337Y-122998D01*
Y-123071D01*
X652346Y-123153D01*
X652374Y-123344D01*
X652419Y-123554D01*
X652483Y-123773D01*
X652574Y-123982D01*
X652629Y-124073D01*
X652693Y-124164D01*
X652702D01*
X652711Y-124182D01*
X652756Y-124228D01*
X652838Y-124301D01*
X652939Y-124374D01*
X653066Y-124456D01*
X653221Y-124529D01*
X653385Y-124574D01*
X653476Y-124583D01*
X653567Y-124592D01*
X653613D01*
X653649Y-124583D01*
X653749Y-124574D01*
X653868Y-124538D01*
X654004Y-124492D01*
X654150Y-124419D01*
X654296Y-124319D01*
X654369Y-124255D01*
X654433Y-124182D01*
Y-124173D01*
X654451Y-124164D01*
X654469Y-124137D01*
X654487Y-124100D01*
X654515Y-124055D01*
X654551Y-124009D01*
X654578Y-123936D01*
X654615Y-123864D01*
X654651Y-123782D01*
X654678Y-123691D01*
X654715Y-123581D01*
X654742Y-123472D01*
X654761Y-123344D01*
X654779Y-123217D01*
X654797Y-123071D01*
Y-122916D01*
Y-122907D01*
Y-122871D01*
Y-122825D01*
X654788Y-122761D01*
Y-122688D01*
X654779Y-122597D01*
X654770Y-122497D01*
X654751Y-122388D01*
X654706Y-122169D01*
X654642Y-121941D01*
X654551Y-121723D01*
X654496Y-121632D01*
X654433Y-121541D01*
Y-121531D01*
X654414Y-121522D01*
X654369Y-121468D01*
X654287Y-121395D01*
X654187Y-121313D01*
X654059Y-121231D01*
X653904Y-121167D01*
X653731Y-121112D01*
X653640Y-121103D01*
X653540Y-121094D01*
D02*
G37*
G36*
X643446Y-119573D02*
X641952D01*
Y-121468D01*
X643501D01*
X643619Y-121459D01*
X643747Y-121449D01*
X643874Y-121440D01*
X644002Y-121422D01*
X644102Y-121404D01*
X644120Y-121395D01*
X644157Y-121386D01*
X644211Y-121358D01*
X644284Y-121322D01*
X644357Y-121285D01*
X644439Y-121231D01*
X644521Y-121158D01*
X644585Y-121085D01*
X644594Y-121076D01*
X644612Y-121049D01*
X644639Y-120994D01*
X644667Y-120930D01*
X644694Y-120857D01*
X644721Y-120766D01*
X644739Y-120657D01*
X644749Y-120538D01*
Y-120520D01*
Y-120484D01*
X644739Y-120429D01*
X644730Y-120356D01*
X644712Y-120265D01*
X644685Y-120174D01*
X644648Y-120083D01*
X644594Y-119992D01*
X644585Y-119983D01*
X644566Y-119955D01*
X644530Y-119910D01*
X644485Y-119864D01*
X644421Y-119810D01*
X644348Y-119755D01*
X644257Y-119700D01*
X644157Y-119664D01*
X644147D01*
X644102Y-119646D01*
X644038Y-119637D01*
X643938Y-119618D01*
X643801Y-119600D01*
X643646Y-119591D01*
X643446Y-119573D01*
D02*
G37*
G36*
X643610Y-122215D02*
X641952D01*
Y-124383D01*
X643747D01*
X643938Y-124374D01*
X644020Y-124365D01*
X644093Y-124356D01*
X644102D01*
X644138Y-124346D01*
X644193Y-124337D01*
X644257Y-124319D01*
X644412Y-124265D01*
X644566Y-124192D01*
X644576Y-124182D01*
X644603Y-124164D01*
X644639Y-124137D01*
X644685Y-124100D01*
X644730Y-124046D01*
X644794Y-123991D01*
X644840Y-123918D01*
X644894Y-123836D01*
X644904Y-123827D01*
X644913Y-123800D01*
X644931Y-123745D01*
X644958Y-123681D01*
X644985Y-123609D01*
X645004Y-123518D01*
X645013Y-123408D01*
X645022Y-123299D01*
Y-123281D01*
Y-123244D01*
X645013Y-123171D01*
X644995Y-123089D01*
X644976Y-122998D01*
X644940Y-122898D01*
X644894Y-122798D01*
X644831Y-122698D01*
X644822Y-122688D01*
X644794Y-122652D01*
X644758Y-122607D01*
X644703Y-122552D01*
X644630Y-122488D01*
X644539Y-122424D01*
X644439Y-122370D01*
X644320Y-122324D01*
X644302Y-122315D01*
X644266Y-122306D01*
X644184Y-122288D01*
X644084Y-122269D01*
X643956Y-122251D01*
X643801Y-122233D01*
X643610Y-122215D01*
D02*
G37*
G36*
X634636Y-119573D02*
X633179D01*
Y-124383D01*
X634673D01*
X634737Y-124374D01*
X634873Y-124365D01*
X635028Y-124356D01*
X635192Y-124337D01*
X635356Y-124310D01*
X635493Y-124274D01*
X635511Y-124265D01*
X635557Y-124255D01*
X635620Y-124228D01*
X635702Y-124192D01*
X635793Y-124137D01*
X635885Y-124082D01*
X635976Y-124019D01*
X636067Y-123946D01*
X636076Y-123927D01*
X636112Y-123891D01*
X636167Y-123827D01*
X636231Y-123736D01*
X636304Y-123618D01*
X636386Y-123481D01*
X636459Y-123326D01*
X636522Y-123153D01*
Y-123144D01*
X636531Y-123126D01*
X636541Y-123098D01*
X636550Y-123062D01*
X636559Y-123016D01*
X636577Y-122953D01*
X636595Y-122889D01*
X636613Y-122816D01*
X636641Y-122634D01*
X636668Y-122424D01*
X636686Y-122187D01*
X636695Y-121932D01*
Y-121923D01*
Y-121887D01*
Y-121841D01*
X636686Y-121768D01*
Y-121686D01*
X636677Y-121595D01*
X636668Y-121486D01*
X636659Y-121377D01*
X636613Y-121131D01*
X636559Y-120876D01*
X636477Y-120639D01*
X636422Y-120520D01*
X636368Y-120420D01*
Y-120411D01*
X636349Y-120393D01*
X636331Y-120365D01*
X636313Y-120329D01*
X636240Y-120238D01*
X636149Y-120129D01*
X636030Y-120010D01*
X635894Y-119892D01*
X635739Y-119791D01*
X635575Y-119710D01*
X635557Y-119700D01*
X635511Y-119691D01*
X635429Y-119664D01*
X635311Y-119637D01*
X635165Y-119618D01*
X634983Y-119591D01*
X634873Y-119582D01*
X634755D01*
X634636Y-119573D01*
D02*
G37*
G36*
X648775Y-121094D02*
X648721D01*
X648675Y-121103D01*
X648575Y-121112D01*
X648438Y-121149D01*
X648283Y-121203D01*
X648119Y-121276D01*
X647964Y-121386D01*
X647883Y-121459D01*
X647810Y-121531D01*
Y-121541D01*
X647791Y-121550D01*
X647773Y-121577D01*
X647746Y-121614D01*
X647718Y-121659D01*
X647691Y-121714D01*
X647655Y-121787D01*
X647618Y-121859D01*
X647582Y-121950D01*
X647545Y-122042D01*
X647518Y-122151D01*
X647491Y-122269D01*
X647463Y-122397D01*
X647445Y-122534D01*
X647436Y-122688D01*
X647427Y-122843D01*
Y-122852D01*
Y-122880D01*
Y-122925D01*
X647436Y-122989D01*
Y-123062D01*
X647445Y-123144D01*
X647472Y-123335D01*
X647518Y-123554D01*
X647591Y-123773D01*
X647682Y-123982D01*
X647746Y-124073D01*
X647810Y-124164D01*
X647819D01*
X647828Y-124182D01*
X647883Y-124228D01*
X647964Y-124301D01*
X648074Y-124374D01*
X648210Y-124456D01*
X648374Y-124529D01*
X648566Y-124574D01*
X648666Y-124583D01*
X648775Y-124592D01*
X648830D01*
X648876Y-124583D01*
X648976Y-124565D01*
X649112Y-124538D01*
X649258Y-124483D01*
X649422Y-124410D01*
X649577Y-124301D01*
X649659Y-124228D01*
X649732Y-124155D01*
X649741Y-124146D01*
X649750Y-124137D01*
X649768Y-124110D01*
X649796Y-124073D01*
X649823Y-124028D01*
X649859Y-123973D01*
X649896Y-123900D01*
X649932Y-123827D01*
X649969Y-123736D01*
X649996Y-123636D01*
X650032Y-123527D01*
X650060Y-123408D01*
X650087Y-123272D01*
X650105Y-123135D01*
X650124Y-122980D01*
Y-122816D01*
Y-122807D01*
Y-122780D01*
Y-122734D01*
X650114Y-122679D01*
Y-122607D01*
X650105Y-122524D01*
X650078Y-122333D01*
X650032Y-122133D01*
X649960Y-121914D01*
X649859Y-121714D01*
X649805Y-121614D01*
X649732Y-121531D01*
Y-121522D01*
X649714Y-121513D01*
X649659Y-121459D01*
X649577Y-121395D01*
X649468Y-121313D01*
X649331Y-121231D01*
X649167Y-121158D01*
X648985Y-121112D01*
X648885Y-121103D01*
X648775Y-121094D01*
D02*
G37*
%LPD*%
D11*
X348727Y15143D02*
G03*
X362231Y28721I28J13476D01*
G01*
X313897Y453D02*
G03*
X327865Y8398I-430J17007D01*
G01*
X340101Y15143D02*
G03*
X327800Y8303I31J-14537D01*
G01*
X327073Y341609D02*
G03*
X340443Y332359I13542J5287D01*
G01*
X326634Y342790D02*
G03*
X315457Y350371I-11018J-4215D01*
G01*
X429Y19709D02*
G03*
X13080Y7370I12282J-63D01*
G01*
X29169Y3404D02*
G03*
X20591Y7370I-8805J-7785D01*
G01*
X29072Y3478D02*
G03*
X35354Y453I6097J4625D01*
G01*
X362262Y319425D02*
G03*
X349823Y332359I-12687J247D01*
G01*
X15524Y350371D02*
G03*
X429Y333981I435J-15546D01*
G01*
X340101Y15143D02*
X348756D01*
X340443Y332359D02*
X349823D01*
X326634Y342790D02*
X327141Y341464D01*
X429Y333981D02*
X429Y19709D01*
X13080Y7370D02*
X20591D01*
X35354Y453D02*
X313467D01*
X362262Y28721D02*
X362262Y319425D01*
X15524Y350371D02*
X315457D01*
D115*
X40633Y243760D02*
X39321D01*
X39059Y244022D01*
Y244547D01*
X39321Y244809D01*
X40633D01*
X40371Y245334D02*
X40633Y245597D01*
Y246121D01*
X40371Y246384D01*
X40109D01*
X39846Y246121D01*
Y245859D01*
Y246121D01*
X39584Y246384D01*
X39321D01*
X39059Y246121D01*
Y245597D01*
X39321Y245334D01*
X187484Y244941D02*
X186172D01*
X185909Y245203D01*
Y245728D01*
X186172Y245990D01*
X187484D01*
X187221Y246515D02*
X187484Y246778D01*
Y247302D01*
X187221Y247565D01*
X186959D01*
X186697Y247302D01*
X186434Y247565D01*
X186172D01*
X185909Y247302D01*
Y246778D01*
X186172Y246515D01*
X186434D01*
X186697Y246778D01*
X186959Y246515D01*
X187221D01*
X186697Y246778D02*
Y247302D01*
M02*
