G04*
G04 #@! TF.GenerationSoftware,Altium Limited,Altium Designer,18.1.7 (191)*
G04*
G04 Layer_Color=16711935*
%FSLAX25Y25*%
%MOIN*%
G70*
G01*
G75*
%ADD11C,0.01000*%
%ADD15C,0.00787*%
%ADD52R,0.14567X0.07874*%
%ADD62C,0.09843*%
%ADD63R,0.06134X0.06724*%
G04:AMPARAMS|DCode=68|XSize=61.34mil|YSize=67.24mil|CornerRadius=0mil|HoleSize=0mil|Usage=FLASHONLY|Rotation=135.000|XOffset=0mil|YOffset=0mil|HoleType=Round|Shape=Rectangle|*
%AMROTATEDRECTD68*
4,1,4,0.04546,0.00209,-0.00209,-0.04546,-0.04546,-0.00209,0.00209,0.04546,0.04546,0.00209,0.0*
%
%ADD68ROTATEDRECTD68*%

%ADD69R,0.06724X0.06134*%
G04:AMPARAMS|DCode=71|XSize=61.34mil|YSize=67.24mil|CornerRadius=0mil|HoleSize=0mil|Usage=FLASHONLY|Rotation=45.000|XOffset=0mil|YOffset=0mil|HoleType=Round|Shape=Rectangle|*
%AMROTATEDRECTD71*
4,1,4,0.00209,-0.04546,-0.04546,0.00209,-0.00209,0.04546,0.04546,-0.00209,0.00209,-0.04546,0.0*
%
%ADD71ROTATEDRECTD71*%

%ADD72R,0.06724X0.06724*%
%ADD74P,0.09510X4X270.0*%
%ADD79R,0.06724X0.08000*%
G04:AMPARAMS|DCode=80|XSize=67.24mil|YSize=80mil|CornerRadius=0mil|HoleSize=0mil|Usage=FLASHONLY|Rotation=135.000|XOffset=0mil|YOffset=0mil|HoleType=Round|Shape=Rectangle|*
%AMROTATEDRECTD80*
4,1,4,0.05206,0.00451,-0.00451,-0.05206,-0.05206,-0.00451,0.00451,0.05206,0.05206,0.00451,0.0*
%
%ADD80ROTATEDRECTD80*%

%ADD81R,0.08000X0.06724*%
%ADD82P,0.09510X4X180.0*%
%ADD83C,0.06000*%
%ADD84C,0.07906*%
%ADD85R,0.07906X0.07906*%
%ADD86C,0.25622*%
%ADD87R,0.07906X0.07906*%
%ADD88C,0.07323*%
%ADD89C,0.09331*%
%ADD90C,0.05150*%
%ADD106R,0.05228X0.01100*%
%ADD109R,0.01100X0.05228*%
G04:AMPARAMS|DCode=111|XSize=43.62mil|YSize=59.37mil|CornerRadius=12.01mil|HoleSize=0mil|Usage=FLASHONLY|Rotation=0.000|XOffset=0mil|YOffset=0mil|HoleType=Round|Shape=RoundedRectangle|*
%AMROUNDEDRECTD111*
21,1,0.04362,0.03535,0,0,0.0*
21,1,0.01961,0.05937,0,0,0.0*
1,1,0.02402,0.00980,-0.01768*
1,1,0.02402,-0.00980,-0.01768*
1,1,0.02402,-0.00980,0.01768*
1,1,0.02402,0.00980,0.01768*
%
%ADD111ROUNDEDRECTD111*%
G04:AMPARAMS|DCode=112|XSize=67.24mil|YSize=80mil|CornerRadius=0mil|HoleSize=0mil|Usage=FLASHONLY|Rotation=225.000|XOffset=0mil|YOffset=0mil|HoleType=Round|Shape=Rectangle|*
%AMROTATEDRECTD112*
4,1,4,-0.00451,0.05206,0.05206,-0.00451,0.00451,-0.05206,-0.05206,0.00451,-0.00451,0.05206,0.0*
%
%ADD112ROTATEDRECTD112*%

G36*
X659782Y-118543D02*
X659849D01*
X660012Y-118562D01*
X660205Y-118591D01*
X660416Y-118629D01*
X660628Y-118687D01*
X660829Y-118764D01*
X660839D01*
X660849Y-118773D01*
X660877Y-118783D01*
X660916Y-118802D01*
X661012Y-118860D01*
X661137Y-118927D01*
X661271Y-119023D01*
X661406Y-119139D01*
X661541Y-119273D01*
X661656Y-119427D01*
X661665Y-119446D01*
X661704Y-119504D01*
X661752Y-119600D01*
X661800Y-119715D01*
X661858Y-119860D01*
X661915Y-120032D01*
X661954Y-120215D01*
X661973Y-120417D01*
X661175Y-120475D01*
Y-120465D01*
Y-120446D01*
X661166Y-120417D01*
X661156Y-120378D01*
X661137Y-120273D01*
X661098Y-120138D01*
X661041Y-119994D01*
X660964Y-119850D01*
X660858Y-119706D01*
X660733Y-119581D01*
X660714Y-119571D01*
X660666Y-119533D01*
X660579Y-119485D01*
X660464Y-119427D01*
X660311Y-119369D01*
X660118Y-119321D01*
X659897Y-119283D01*
X659638Y-119273D01*
X659513D01*
X659455Y-119283D01*
X659378D01*
X659215Y-119312D01*
X659032Y-119341D01*
X658850Y-119389D01*
X658677Y-119456D01*
X658600Y-119504D01*
X658533Y-119552D01*
X658523Y-119562D01*
X658485Y-119600D01*
X658427Y-119658D01*
X658369Y-119744D01*
X658302Y-119840D01*
X658254Y-119956D01*
X658216Y-120080D01*
X658196Y-120225D01*
Y-120244D01*
Y-120282D01*
X658206Y-120350D01*
X658225Y-120426D01*
X658254Y-120513D01*
X658302Y-120609D01*
X658360Y-120695D01*
X658436Y-120782D01*
X658446Y-120792D01*
X658494Y-120820D01*
X658523Y-120840D01*
X658561Y-120869D01*
X658619Y-120888D01*
X658686Y-120917D01*
X658763Y-120955D01*
X658850Y-120993D01*
X658946Y-121022D01*
X659061Y-121061D01*
X659196Y-121109D01*
X659340Y-121147D01*
X659503Y-121186D01*
X659686Y-121234D01*
X659695D01*
X659734Y-121243D01*
X659782Y-121253D01*
X659849Y-121272D01*
X659936Y-121291D01*
X660032Y-121320D01*
X660243Y-121368D01*
X660474Y-121435D01*
X660705Y-121503D01*
X660820Y-121532D01*
X660916Y-121570D01*
X661012Y-121608D01*
X661089Y-121637D01*
X661098D01*
X661118Y-121647D01*
X661137Y-121666D01*
X661175Y-121685D01*
X661271Y-121743D01*
X661396Y-121810D01*
X661531Y-121906D01*
X661665Y-122022D01*
X661790Y-122147D01*
X661896Y-122281D01*
X661906Y-122300D01*
X661935Y-122348D01*
X661983Y-122425D01*
X662031Y-122541D01*
X662079Y-122666D01*
X662127Y-122819D01*
X662156Y-122992D01*
X662165Y-123175D01*
Y-123185D01*
Y-123194D01*
Y-123223D01*
Y-123261D01*
X662146Y-123357D01*
X662127Y-123482D01*
X662098Y-123627D01*
X662040Y-123790D01*
X661973Y-123963D01*
X661877Y-124126D01*
X661867Y-124145D01*
X661819Y-124203D01*
X661762Y-124280D01*
X661665Y-124376D01*
X661550Y-124492D01*
X661406Y-124607D01*
X661233Y-124713D01*
X661041Y-124818D01*
X661031D01*
X661012Y-124828D01*
X660983Y-124837D01*
X660945Y-124857D01*
X660897Y-124876D01*
X660839Y-124895D01*
X660685Y-124934D01*
X660512Y-124982D01*
X660301Y-125020D01*
X660080Y-125049D01*
X659830Y-125058D01*
X659686D01*
X659619Y-125049D01*
X659532D01*
X659436Y-125039D01*
X659330Y-125030D01*
X659109Y-125001D01*
X658869Y-124953D01*
X658629Y-124895D01*
X658398Y-124818D01*
X658389D01*
X658369Y-124809D01*
X658340Y-124789D01*
X658302Y-124770D01*
X658196Y-124713D01*
X658071Y-124626D01*
X657918Y-124520D01*
X657773Y-124395D01*
X657620Y-124242D01*
X657485Y-124069D01*
Y-124059D01*
X657476Y-124049D01*
X657456Y-124021D01*
X657437Y-123982D01*
X657408Y-123934D01*
X657379Y-123876D01*
X657322Y-123732D01*
X657264Y-123569D01*
X657206Y-123367D01*
X657168Y-123156D01*
X657149Y-122925D01*
X657937Y-122858D01*
Y-122867D01*
Y-122877D01*
X657946Y-122935D01*
X657966Y-123021D01*
X657985Y-123136D01*
X658023Y-123261D01*
X658062Y-123396D01*
X658119Y-123521D01*
X658187Y-123646D01*
X658196Y-123655D01*
X658225Y-123694D01*
X658273Y-123751D01*
X658350Y-123819D01*
X658436Y-123896D01*
X658542Y-123982D01*
X658677Y-124059D01*
X658821Y-124136D01*
X658830D01*
X658840Y-124145D01*
X658898Y-124165D01*
X658984Y-124194D01*
X659109Y-124222D01*
X659244Y-124261D01*
X659417Y-124290D01*
X659599Y-124309D01*
X659792Y-124319D01*
X659868D01*
X659965Y-124309D01*
X660070Y-124299D01*
X660205Y-124290D01*
X660339Y-124261D01*
X660483Y-124232D01*
X660628Y-124184D01*
X660647Y-124174D01*
X660685Y-124155D01*
X660752Y-124126D01*
X660829Y-124078D01*
X660925Y-124021D01*
X661012Y-123953D01*
X661098Y-123876D01*
X661175Y-123790D01*
X661185Y-123780D01*
X661204Y-123742D01*
X661233Y-123694D01*
X661271Y-123627D01*
X661300Y-123550D01*
X661329Y-123454D01*
X661348Y-123357D01*
X661358Y-123252D01*
Y-123242D01*
Y-123204D01*
X661348Y-123146D01*
X661339Y-123079D01*
X661319Y-122992D01*
X661281Y-122906D01*
X661243Y-122819D01*
X661185Y-122733D01*
X661175Y-122723D01*
X661156Y-122694D01*
X661108Y-122656D01*
X661050Y-122598D01*
X660974Y-122541D01*
X660877Y-122483D01*
X660752Y-122416D01*
X660618Y-122358D01*
X660608Y-122348D01*
X660570Y-122339D01*
X660493Y-122320D01*
X660445Y-122300D01*
X660387Y-122281D01*
X660311Y-122262D01*
X660234Y-122243D01*
X660138Y-122214D01*
X660041Y-122185D01*
X659926Y-122156D01*
X659792Y-122127D01*
X659647Y-122089D01*
X659494Y-122050D01*
X659484D01*
X659455Y-122041D01*
X659407Y-122031D01*
X659349Y-122012D01*
X659282Y-121993D01*
X659205Y-121974D01*
X659023Y-121926D01*
X658821Y-121858D01*
X658619Y-121791D01*
X658436Y-121724D01*
X658350Y-121695D01*
X658283Y-121657D01*
X658273D01*
X658263Y-121647D01*
X658206Y-121608D01*
X658129Y-121560D01*
X658033Y-121493D01*
X657918Y-121407D01*
X657812Y-121311D01*
X657706Y-121195D01*
X657610Y-121070D01*
X657600Y-121051D01*
X657572Y-121003D01*
X657543Y-120936D01*
X657504Y-120840D01*
X657456Y-120724D01*
X657428Y-120590D01*
X657399Y-120436D01*
X657389Y-120282D01*
Y-120273D01*
Y-120263D01*
Y-120234D01*
Y-120196D01*
X657408Y-120109D01*
X657428Y-119994D01*
X657456Y-119850D01*
X657504Y-119706D01*
X657572Y-119542D01*
X657658Y-119389D01*
Y-119379D01*
X657668Y-119369D01*
X657706Y-119321D01*
X657773Y-119244D01*
X657860Y-119148D01*
X657966Y-119052D01*
X658100Y-118947D01*
X658263Y-118841D01*
X658446Y-118754D01*
X658456D01*
X658465Y-118745D01*
X658494Y-118735D01*
X658542Y-118716D01*
X658590Y-118706D01*
X658648Y-118687D01*
X658782Y-118639D01*
X658955Y-118601D01*
X659148Y-118572D01*
X659369Y-118543D01*
X659599Y-118533D01*
X659715D01*
X659782Y-118543D01*
D02*
G37*
G36*
X673745Y-124953D02*
X673025D01*
Y-124386D01*
X673015Y-124395D01*
X673005Y-124415D01*
X672976Y-124443D01*
X672938Y-124492D01*
X672899Y-124539D01*
X672842Y-124597D01*
X672775Y-124655D01*
X672698Y-124722D01*
X672611Y-124780D01*
X672515Y-124847D01*
X672409Y-124905D01*
X672304Y-124953D01*
X672179Y-125001D01*
X672044Y-125030D01*
X671900Y-125049D01*
X671746Y-125058D01*
X671689D01*
X671650Y-125049D01*
X671545Y-125039D01*
X671420Y-125020D01*
X671256Y-124982D01*
X671093Y-124934D01*
X670910Y-124857D01*
X670737Y-124761D01*
X670728D01*
X670718Y-124751D01*
X670660Y-124703D01*
X670583Y-124636D01*
X670478Y-124539D01*
X670372Y-124424D01*
X670247Y-124280D01*
X670142Y-124117D01*
X670036Y-123925D01*
Y-123915D01*
X670026Y-123896D01*
X670017Y-123867D01*
X669997Y-123828D01*
X669978Y-123780D01*
X669959Y-123713D01*
X669911Y-123559D01*
X669863Y-123377D01*
X669824Y-123165D01*
X669796Y-122935D01*
X669786Y-122675D01*
Y-122666D01*
Y-122646D01*
Y-122608D01*
Y-122560D01*
X669796Y-122502D01*
Y-122425D01*
X669815Y-122262D01*
X669844Y-122070D01*
X669882Y-121868D01*
X669930Y-121647D01*
X670007Y-121435D01*
Y-121426D01*
X670017Y-121407D01*
X670036Y-121378D01*
X670055Y-121339D01*
X670103Y-121243D01*
X670180Y-121118D01*
X670276Y-120974D01*
X670391Y-120830D01*
X670526Y-120695D01*
X670689Y-120571D01*
X670699D01*
X670709Y-120561D01*
X670766Y-120523D01*
X670862Y-120475D01*
X670987Y-120417D01*
X671141Y-120369D01*
X671314Y-120321D01*
X671506Y-120282D01*
X671708Y-120273D01*
X671775D01*
X671852Y-120282D01*
X671958Y-120292D01*
X672063Y-120321D01*
X672188Y-120350D01*
X672313Y-120398D01*
X672438Y-120455D01*
X672458Y-120465D01*
X672496Y-120484D01*
X672554Y-120523D01*
X672631Y-120580D01*
X672707Y-120638D01*
X672803Y-120715D01*
X672890Y-120811D01*
X672967Y-120907D01*
Y-118639D01*
X673745D01*
Y-124953D01*
D02*
G37*
G36*
X681693Y-120282D02*
X681798Y-120301D01*
X681914Y-120340D01*
X682048Y-120378D01*
X682192Y-120446D01*
X682346Y-120532D01*
X682067Y-121243D01*
X682058Y-121234D01*
X682019Y-121214D01*
X681962Y-121186D01*
X681894Y-121157D01*
X681808Y-121128D01*
X681712Y-121099D01*
X681606Y-121080D01*
X681500Y-121070D01*
X681462D01*
X681414Y-121080D01*
X681347Y-121090D01*
X681280Y-121109D01*
X681203Y-121138D01*
X681126Y-121176D01*
X681049Y-121224D01*
X681039Y-121234D01*
X681020Y-121253D01*
X680982Y-121291D01*
X680943Y-121339D01*
X680895Y-121397D01*
X680847Y-121474D01*
X680809Y-121560D01*
X680770Y-121657D01*
X680760Y-121676D01*
X680751Y-121724D01*
X680732Y-121810D01*
X680713Y-121926D01*
X680684Y-122060D01*
X680664Y-122214D01*
X680655Y-122377D01*
X680645Y-122560D01*
Y-124953D01*
X679867D01*
Y-120378D01*
X680568D01*
Y-121061D01*
X680578Y-121051D01*
X680616Y-120993D01*
X680664Y-120907D01*
X680722Y-120811D01*
X680799Y-120705D01*
X680886Y-120599D01*
X680962Y-120503D01*
X681049Y-120436D01*
X681058Y-120426D01*
X681087Y-120407D01*
X681135Y-120388D01*
X681203Y-120350D01*
X681270Y-120321D01*
X681356Y-120301D01*
X681453Y-120282D01*
X681549Y-120273D01*
X681616D01*
X681693Y-120282D01*
D02*
G37*
G36*
X652440D02*
X652497D01*
X652565Y-120292D01*
X652709Y-120321D01*
X652882Y-120369D01*
X653055Y-120436D01*
X653218Y-120532D01*
X653372Y-120657D01*
X653391Y-120676D01*
X653430Y-120724D01*
X653487Y-120820D01*
X653564Y-120945D01*
X653631Y-121109D01*
X653689Y-121301D01*
X653728Y-121541D01*
X653747Y-121676D01*
Y-121820D01*
Y-124953D01*
X652968D01*
Y-122079D01*
Y-122070D01*
Y-122060D01*
Y-122002D01*
Y-121916D01*
X652959Y-121820D01*
X652940Y-121599D01*
X652920Y-121493D01*
X652891Y-121407D01*
Y-121397D01*
X652872Y-121368D01*
X652853Y-121330D01*
X652824Y-121282D01*
X652786Y-121234D01*
X652738Y-121176D01*
X652680Y-121118D01*
X652613Y-121070D01*
X652603Y-121061D01*
X652574Y-121051D01*
X652536Y-121032D01*
X652488Y-121003D01*
X652421Y-120984D01*
X652334Y-120965D01*
X652248Y-120955D01*
X652152Y-120945D01*
X652075D01*
X651979Y-120965D01*
X651873Y-120984D01*
X651748Y-121022D01*
X651613Y-121080D01*
X651469Y-121166D01*
X651344Y-121272D01*
X651335Y-121291D01*
X651296Y-121330D01*
X651248Y-121407D01*
X651191Y-121522D01*
X651123Y-121666D01*
X651075Y-121839D01*
X651037Y-122050D01*
X651027Y-122300D01*
Y-124953D01*
X650249D01*
Y-121983D01*
Y-121974D01*
Y-121964D01*
Y-121935D01*
Y-121897D01*
X650239Y-121801D01*
X650230Y-121695D01*
X650201Y-121560D01*
X650172Y-121435D01*
X650124Y-121311D01*
X650057Y-121205D01*
X650047Y-121195D01*
X650018Y-121166D01*
X649980Y-121118D01*
X649912Y-121070D01*
X649826Y-121032D01*
X649720Y-120984D01*
X649595Y-120955D01*
X649441Y-120945D01*
X649384D01*
X649326Y-120955D01*
X649240Y-120965D01*
X649153Y-120984D01*
X649048Y-121022D01*
X648942Y-121061D01*
X648836Y-121118D01*
X648827Y-121128D01*
X648788Y-121147D01*
X648740Y-121195D01*
X648682Y-121243D01*
X648615Y-121320D01*
X648548Y-121407D01*
X648490Y-121512D01*
X648432Y-121628D01*
X648423Y-121647D01*
X648413Y-121685D01*
X648394Y-121762D01*
X648375Y-121868D01*
X648346Y-122002D01*
X648327Y-122166D01*
X648317Y-122358D01*
X648308Y-122579D01*
Y-124953D01*
X647529D01*
Y-120378D01*
X648221D01*
Y-121022D01*
X648231Y-121003D01*
X648259Y-120965D01*
X648308Y-120907D01*
X648375Y-120830D01*
X648452Y-120744D01*
X648548Y-120657D01*
X648663Y-120561D01*
X648788Y-120484D01*
X648807Y-120475D01*
X648855Y-120455D01*
X648932Y-120417D01*
X649028Y-120378D01*
X649153Y-120340D01*
X649288Y-120301D01*
X649451Y-120282D01*
X649614Y-120273D01*
X649701D01*
X649797Y-120282D01*
X649912Y-120301D01*
X650037Y-120321D01*
X650181Y-120359D01*
X650316Y-120417D01*
X650441Y-120484D01*
X650460Y-120494D01*
X650499Y-120523D01*
X650556Y-120571D01*
X650624Y-120638D01*
X650701Y-120724D01*
X650777Y-120820D01*
X650845Y-120945D01*
X650902Y-121080D01*
X650912Y-121070D01*
X650931Y-121042D01*
X650960Y-121003D01*
X650998Y-120955D01*
X651056Y-120888D01*
X651123Y-120820D01*
X651200Y-120753D01*
X651287Y-120676D01*
X651383Y-120599D01*
X651488Y-120532D01*
X651738Y-120398D01*
X651873Y-120350D01*
X652017Y-120311D01*
X652161Y-120282D01*
X652324Y-120273D01*
X652392D01*
X652440Y-120282D01*
D02*
G37*
G36*
X726111Y-125394D02*
X725390D01*
Y-124827D01*
X725380Y-124836D01*
X725371Y-124855D01*
X725342Y-124884D01*
X725303Y-124932D01*
X725265Y-124980D01*
X725207Y-125038D01*
X725140Y-125096D01*
X725063Y-125163D01*
X724976Y-125221D01*
X724880Y-125288D01*
X724775Y-125346D01*
X724669Y-125394D01*
X724544Y-125442D01*
X724409Y-125471D01*
X724265Y-125490D01*
X724112Y-125499D01*
X724054D01*
X724016Y-125490D01*
X723910Y-125480D01*
X723785Y-125461D01*
X723622Y-125423D01*
X723458Y-125374D01*
X723276Y-125298D01*
X723103Y-125201D01*
X723093D01*
X723083Y-125192D01*
X723026Y-125144D01*
X722949Y-125077D01*
X722843Y-124980D01*
X722737Y-124865D01*
X722612Y-124721D01*
X722507Y-124558D01*
X722401Y-124365D01*
Y-124356D01*
X722391Y-124337D01*
X722382Y-124308D01*
X722363Y-124269D01*
X722343Y-124221D01*
X722324Y-124154D01*
X722276Y-124000D01*
X722228Y-123818D01*
X722190Y-123606D01*
X722161Y-123376D01*
X722151Y-123116D01*
Y-123107D01*
Y-123087D01*
Y-123049D01*
Y-123001D01*
X722161Y-122943D01*
Y-122866D01*
X722180Y-122703D01*
X722209Y-122511D01*
X722247Y-122309D01*
X722295Y-122088D01*
X722372Y-121876D01*
Y-121867D01*
X722382Y-121848D01*
X722401Y-121819D01*
X722420Y-121780D01*
X722468Y-121684D01*
X722545Y-121559D01*
X722641Y-121415D01*
X722757Y-121271D01*
X722891Y-121136D01*
X723055Y-121011D01*
X723064D01*
X723074Y-121002D01*
X723131Y-120964D01*
X723228Y-120915D01*
X723352Y-120858D01*
X723506Y-120810D01*
X723679Y-120762D01*
X723871Y-120723D01*
X724073Y-120714D01*
X724141D01*
X724217Y-120723D01*
X724323Y-120733D01*
X724429Y-120762D01*
X724554Y-120791D01*
X724679Y-120839D01*
X724803Y-120896D01*
X724823Y-120906D01*
X724861Y-120925D01*
X724919Y-120964D01*
X724996Y-121021D01*
X725073Y-121079D01*
X725169Y-121156D01*
X725255Y-121252D01*
X725332Y-121348D01*
Y-119080D01*
X726111D01*
Y-125394D01*
D02*
G37*
G36*
X712878Y-125394D02*
X712157D01*
Y-124827D01*
X712147Y-124836D01*
X712138Y-124855D01*
X712109Y-124884D01*
X712070Y-124932D01*
X712032Y-124980D01*
X711974Y-125038D01*
X711907Y-125096D01*
X711830Y-125163D01*
X711744Y-125221D01*
X711648Y-125288D01*
X711542Y-125346D01*
X711436Y-125394D01*
X711311Y-125442D01*
X711177Y-125471D01*
X711032Y-125490D01*
X710879Y-125499D01*
X710821D01*
X710783Y-125490D01*
X710677Y-125480D01*
X710552Y-125461D01*
X710389Y-125423D01*
X710225Y-125374D01*
X710043Y-125298D01*
X709870Y-125201D01*
X709860D01*
X709850Y-125192D01*
X709793Y-125144D01*
X709716Y-125077D01*
X709610Y-124980D01*
X709504Y-124865D01*
X709379Y-124721D01*
X709274Y-124558D01*
X709168Y-124365D01*
Y-124356D01*
X709159Y-124337D01*
X709149Y-124308D01*
X709130Y-124269D01*
X709110Y-124221D01*
X709091Y-124154D01*
X709043Y-124000D01*
X708995Y-123818D01*
X708957Y-123606D01*
X708928Y-123376D01*
X708918Y-123116D01*
Y-123107D01*
Y-123087D01*
Y-123049D01*
Y-123001D01*
X708928Y-122943D01*
Y-122866D01*
X708947Y-122703D01*
X708976Y-122511D01*
X709014Y-122309D01*
X709062Y-122088D01*
X709139Y-121876D01*
Y-121867D01*
X709149Y-121848D01*
X709168Y-121819D01*
X709187Y-121780D01*
X709235Y-121684D01*
X709312Y-121559D01*
X709408Y-121415D01*
X709524Y-121271D01*
X709658Y-121136D01*
X709822Y-121011D01*
X709831D01*
X709841Y-121002D01*
X709898Y-120964D01*
X709995Y-120915D01*
X710119Y-120858D01*
X710273Y-120810D01*
X710446Y-120762D01*
X710638Y-120723D01*
X710840Y-120714D01*
X710908D01*
X710984Y-120723D01*
X711090Y-120733D01*
X711196Y-120762D01*
X711321Y-120791D01*
X711446Y-120839D01*
X711571Y-120896D01*
X711590Y-120906D01*
X711628Y-120925D01*
X711686Y-120964D01*
X711763Y-121021D01*
X711840Y-121079D01*
X711936Y-121156D01*
X712022Y-121252D01*
X712099Y-121348D01*
Y-119080D01*
X712878D01*
Y-125394D01*
D02*
G37*
G36*
X708092Y-120723D02*
X708197Y-120742D01*
X708313Y-120781D01*
X708447Y-120819D01*
X708592Y-120887D01*
X708745Y-120973D01*
X708467Y-121684D01*
X708457Y-121675D01*
X708419Y-121655D01*
X708361Y-121627D01*
X708294Y-121598D01*
X708207Y-121569D01*
X708111Y-121540D01*
X708005Y-121521D01*
X707900Y-121511D01*
X707861D01*
X707813Y-121521D01*
X707746Y-121530D01*
X707679Y-121550D01*
X707602Y-121579D01*
X707525Y-121617D01*
X707448Y-121665D01*
X707438Y-121675D01*
X707419Y-121694D01*
X707381Y-121732D01*
X707342Y-121780D01*
X707294Y-121838D01*
X707246Y-121915D01*
X707208Y-122001D01*
X707169Y-122098D01*
X707160Y-122117D01*
X707150Y-122165D01*
X707131Y-122251D01*
X707112Y-122367D01*
X707083Y-122501D01*
X707063Y-122655D01*
X707054Y-122818D01*
X707044Y-123001D01*
Y-125394D01*
X706266D01*
Y-120819D01*
X706967D01*
Y-121502D01*
X706977Y-121492D01*
X707015Y-121434D01*
X707063Y-121348D01*
X707121Y-121252D01*
X707198Y-121146D01*
X707284Y-121040D01*
X707361Y-120944D01*
X707448Y-120877D01*
X707457Y-120867D01*
X707486Y-120848D01*
X707534Y-120829D01*
X707602Y-120791D01*
X707669Y-120762D01*
X707755Y-120742D01*
X707852Y-120723D01*
X707948Y-120714D01*
X708015D01*
X708092Y-120723D01*
D02*
G37*
G36*
X668873Y-124953D02*
X668094D01*
Y-118639D01*
X668873D01*
Y-124953D01*
D02*
G37*
G36*
X629558Y-118649D02*
X629626D01*
X629789Y-118658D01*
X629972Y-118687D01*
X630164Y-118716D01*
X630356Y-118764D01*
X630529Y-118831D01*
X630539D01*
X630548Y-118841D01*
X630606Y-118870D01*
X630683Y-118918D01*
X630779Y-118975D01*
X630894Y-119062D01*
X631010Y-119168D01*
X631115Y-119283D01*
X631221Y-119427D01*
X631231Y-119446D01*
X631259Y-119494D01*
X631298Y-119581D01*
X631346Y-119686D01*
X631394Y-119811D01*
X631432Y-119946D01*
X631461Y-120100D01*
X631471Y-120263D01*
Y-120282D01*
Y-120330D01*
X631461Y-120407D01*
X631442Y-120513D01*
X631413Y-120628D01*
X631375Y-120753D01*
X631327Y-120897D01*
X631250Y-121032D01*
X631240Y-121051D01*
X631211Y-121090D01*
X631154Y-121157D01*
X631086Y-121234D01*
X630990Y-121330D01*
X630875Y-121416D01*
X630740Y-121512D01*
X630577Y-121599D01*
X630587D01*
X630606Y-121608D01*
X630635Y-121618D01*
X630673Y-121628D01*
X630779Y-121676D01*
X630904Y-121733D01*
X631048Y-121820D01*
X631192Y-121916D01*
X631336Y-122031D01*
X631461Y-122176D01*
X631471Y-122195D01*
X631509Y-122243D01*
X631557Y-122329D01*
X631625Y-122445D01*
X631682Y-122589D01*
X631730Y-122742D01*
X631769Y-122925D01*
X631778Y-123127D01*
Y-123146D01*
Y-123204D01*
X631769Y-123290D01*
X631759Y-123396D01*
X631730Y-123521D01*
X631702Y-123665D01*
X631653Y-123809D01*
X631586Y-123953D01*
X631577Y-123973D01*
X631557Y-124021D01*
X631509Y-124088D01*
X631461Y-124174D01*
X631394Y-124270D01*
X631317Y-124367D01*
X631221Y-124463D01*
X631125Y-124549D01*
X631115Y-124559D01*
X631077Y-124578D01*
X631019Y-124616D01*
X630933Y-124664D01*
X630837Y-124713D01*
X630712Y-124761D01*
X630577Y-124809D01*
X630433Y-124857D01*
X630414D01*
X630356Y-124876D01*
X630270Y-124885D01*
X630154Y-124905D01*
X630000Y-124924D01*
X629827Y-124934D01*
X629635Y-124953D01*
X627012D01*
Y-118639D01*
X629491D01*
X629558Y-118649D01*
D02*
G37*
G36*
X641090Y-120378D02*
X641869D01*
Y-120984D01*
X641090D01*
Y-123665D01*
Y-123675D01*
Y-123713D01*
Y-123771D01*
X641100Y-123838D01*
X641110Y-123982D01*
X641119Y-124040D01*
X641129Y-124088D01*
X641139Y-124107D01*
X641158Y-124145D01*
X641196Y-124194D01*
X641254Y-124242D01*
X641273Y-124251D01*
X641321Y-124261D01*
X641408Y-124280D01*
X641523Y-124290D01*
X641619D01*
X641667Y-124280D01*
X641725D01*
X641869Y-124261D01*
X641975Y-124943D01*
X641955D01*
X641917Y-124953D01*
X641859Y-124962D01*
X641773Y-124972D01*
X641686Y-124991D01*
X641590Y-125001D01*
X641388Y-125010D01*
X641321D01*
X641244Y-125001D01*
X641148Y-124991D01*
X641042Y-124982D01*
X640927Y-124953D01*
X640821Y-124924D01*
X640725Y-124885D01*
X640716Y-124876D01*
X640687Y-124857D01*
X640648Y-124828D01*
X640600Y-124789D01*
X640543Y-124741D01*
X640495Y-124684D01*
X640437Y-124616D01*
X640399Y-124539D01*
Y-124530D01*
X640389Y-124492D01*
X640370Y-124434D01*
X640360Y-124338D01*
X640341Y-124213D01*
X640331Y-124145D01*
X640322Y-124059D01*
Y-123963D01*
X640312Y-123857D01*
Y-123742D01*
Y-123617D01*
Y-120984D01*
X639735D01*
Y-120378D01*
X640312D01*
Y-119254D01*
X641090Y-118783D01*
Y-120378D01*
D02*
G37*
G36*
X638640D02*
X639418D01*
Y-120984D01*
X638640D01*
Y-123665D01*
Y-123675D01*
Y-123713D01*
Y-123771D01*
X638650Y-123838D01*
X638659Y-123982D01*
X638669Y-124040D01*
X638678Y-124088D01*
X638688Y-124107D01*
X638707Y-124145D01*
X638746Y-124194D01*
X638803Y-124242D01*
X638823Y-124251D01*
X638870Y-124261D01*
X638957Y-124280D01*
X639072Y-124290D01*
X639169D01*
X639217Y-124280D01*
X639274D01*
X639418Y-124261D01*
X639524Y-124943D01*
X639505D01*
X639466Y-124953D01*
X639409Y-124962D01*
X639322Y-124972D01*
X639236Y-124991D01*
X639140Y-125001D01*
X638938Y-125010D01*
X638870D01*
X638794Y-125001D01*
X638698Y-124991D01*
X638592Y-124982D01*
X638477Y-124953D01*
X638371Y-124924D01*
X638275Y-124885D01*
X638265Y-124876D01*
X638236Y-124857D01*
X638198Y-124828D01*
X638150Y-124789D01*
X638092Y-124741D01*
X638044Y-124684D01*
X637986Y-124616D01*
X637948Y-124539D01*
Y-124530D01*
X637938Y-124492D01*
X637919Y-124434D01*
X637910Y-124338D01*
X637890Y-124213D01*
X637881Y-124145D01*
X637871Y-124059D01*
Y-123963D01*
X637861Y-123857D01*
Y-123742D01*
Y-123617D01*
Y-120984D01*
X637285D01*
Y-120378D01*
X637861D01*
Y-119254D01*
X638640Y-118783D01*
Y-120378D01*
D02*
G37*
G36*
X676993Y-120282D02*
X677070Y-120292D01*
X677166Y-120301D01*
X677262Y-120321D01*
X677378Y-120350D01*
X677608Y-120426D01*
X677733Y-120475D01*
X677858Y-120542D01*
X677983Y-120609D01*
X678108Y-120695D01*
X678224Y-120792D01*
X678339Y-120907D01*
X678348Y-120917D01*
X678368Y-120936D01*
X678397Y-120974D01*
X678435Y-121022D01*
X678473Y-121090D01*
X678521Y-121166D01*
X678579Y-121253D01*
X678637Y-121359D01*
X678685Y-121484D01*
X678742Y-121608D01*
X678791Y-121753D01*
X678838Y-121916D01*
X678867Y-122079D01*
X678896Y-122262D01*
X678915Y-122454D01*
X678925Y-122666D01*
Y-122675D01*
Y-122714D01*
Y-122781D01*
X678915Y-122867D01*
X675514D01*
Y-122877D01*
Y-122896D01*
X675523Y-122944D01*
Y-122992D01*
X675533Y-123060D01*
X675542Y-123127D01*
X675581Y-123300D01*
X675638Y-123482D01*
X675706Y-123675D01*
X675811Y-123867D01*
X675936Y-124030D01*
X675955Y-124049D01*
X676004Y-124088D01*
X676090Y-124155D01*
X676196Y-124222D01*
X676340Y-124299D01*
X676503Y-124367D01*
X676686Y-124405D01*
X676888Y-124424D01*
X676965D01*
X677041Y-124415D01*
X677138Y-124395D01*
X677253Y-124367D01*
X677378Y-124328D01*
X677503Y-124280D01*
X677618Y-124203D01*
X677628Y-124194D01*
X677666Y-124155D01*
X677724Y-124107D01*
X677791Y-124021D01*
X677868Y-123925D01*
X677945Y-123800D01*
X678022Y-123646D01*
X678099Y-123473D01*
X678896Y-123579D01*
Y-123588D01*
X678887Y-123607D01*
X678877Y-123646D01*
X678858Y-123694D01*
X678838Y-123751D01*
X678810Y-123819D01*
X678733Y-123982D01*
X678637Y-124155D01*
X678521Y-124338D01*
X678368Y-124520D01*
X678195Y-124674D01*
X678185D01*
X678175Y-124693D01*
X678147Y-124713D01*
X678099Y-124732D01*
X678051Y-124761D01*
X677993Y-124799D01*
X677926Y-124828D01*
X677839Y-124866D01*
X677657Y-124934D01*
X677426Y-125001D01*
X677176Y-125039D01*
X676888Y-125058D01*
X676792D01*
X676724Y-125049D01*
X676638Y-125039D01*
X676542Y-125030D01*
X676436Y-125010D01*
X676311Y-124982D01*
X676061Y-124905D01*
X675927Y-124857D01*
X675802Y-124799D01*
X675667Y-124732D01*
X675542Y-124645D01*
X675417Y-124549D01*
X675302Y-124443D01*
X675292Y-124434D01*
X675273Y-124415D01*
X675244Y-124376D01*
X675216Y-124328D01*
X675168Y-124270D01*
X675119Y-124194D01*
X675062Y-124098D01*
X675014Y-123992D01*
X674956Y-123876D01*
X674898Y-123751D01*
X674850Y-123607D01*
X674812Y-123454D01*
X674774Y-123290D01*
X674745Y-123108D01*
X674725Y-122915D01*
X674716Y-122714D01*
Y-122704D01*
Y-122666D01*
Y-122598D01*
X674725Y-122521D01*
X674735Y-122425D01*
X674745Y-122310D01*
X674764Y-122185D01*
X674793Y-122050D01*
X674860Y-121762D01*
X674908Y-121618D01*
X674966Y-121464D01*
X675033Y-121320D01*
X675110Y-121176D01*
X675196Y-121042D01*
X675302Y-120917D01*
X675312Y-120907D01*
X675331Y-120888D01*
X675360Y-120859D01*
X675408Y-120811D01*
X675465Y-120763D01*
X675542Y-120715D01*
X675619Y-120657D01*
X675715Y-120590D01*
X675821Y-120532D01*
X675936Y-120475D01*
X676061Y-120426D01*
X676205Y-120369D01*
X676349Y-120330D01*
X676503Y-120301D01*
X676667Y-120282D01*
X676840Y-120273D01*
X676926D01*
X676993Y-120282D01*
D02*
G37*
G36*
X665211D02*
X665298Y-120292D01*
X665384Y-120301D01*
X665490Y-120321D01*
X665606Y-120350D01*
X665846Y-120426D01*
X665971Y-120475D01*
X666105Y-120532D01*
X666230Y-120609D01*
X666355Y-120695D01*
X666480Y-120792D01*
X666595Y-120897D01*
X666605Y-120907D01*
X666624Y-120926D01*
X666653Y-120965D01*
X666691Y-121013D01*
X666740Y-121070D01*
X666788Y-121147D01*
X666845Y-121243D01*
X666903Y-121339D01*
X666951Y-121455D01*
X667009Y-121589D01*
X667057Y-121724D01*
X667105Y-121878D01*
X667143Y-122041D01*
X667172Y-122223D01*
X667191Y-122406D01*
X667201Y-122608D01*
Y-122617D01*
Y-122646D01*
Y-122694D01*
Y-122752D01*
X667191Y-122829D01*
Y-122915D01*
X667182Y-123012D01*
X667172Y-123117D01*
X667134Y-123338D01*
X667086Y-123569D01*
X667018Y-123800D01*
X666932Y-124001D01*
Y-124011D01*
X666922Y-124021D01*
X666884Y-124088D01*
X666816Y-124174D01*
X666730Y-124290D01*
X666624Y-124415D01*
X666490Y-124539D01*
X666336Y-124664D01*
X666153Y-124780D01*
X666144D01*
X666134Y-124789D01*
X666105Y-124809D01*
X666067Y-124818D01*
X665961Y-124866D01*
X665827Y-124914D01*
X665663Y-124972D01*
X665481Y-125010D01*
X665279Y-125049D01*
X665058Y-125058D01*
X664962D01*
X664894Y-125049D01*
X664817Y-125039D01*
X664721Y-125030D01*
X664616Y-125010D01*
X664500Y-124982D01*
X664260Y-124905D01*
X664126Y-124857D01*
X664001Y-124799D01*
X663866Y-124732D01*
X663741Y-124645D01*
X663616Y-124549D01*
X663501Y-124443D01*
X663491Y-124434D01*
X663472Y-124415D01*
X663443Y-124376D01*
X663414Y-124328D01*
X663366Y-124261D01*
X663318Y-124184D01*
X663261Y-124098D01*
X663213Y-123992D01*
X663155Y-123867D01*
X663097Y-123742D01*
X663049Y-123588D01*
X663011Y-123434D01*
X662972Y-123261D01*
X662944Y-123079D01*
X662924Y-122877D01*
X662915Y-122666D01*
Y-122646D01*
Y-122608D01*
X662924Y-122541D01*
Y-122454D01*
X662934Y-122348D01*
X662953Y-122233D01*
X662972Y-122099D01*
X663001Y-121954D01*
X663040Y-121801D01*
X663088Y-121647D01*
X663145Y-121493D01*
X663213Y-121339D01*
X663289Y-121186D01*
X663386Y-121042D01*
X663491Y-120907D01*
X663616Y-120782D01*
X663626Y-120772D01*
X663645Y-120763D01*
X663674Y-120734D01*
X663722Y-120705D01*
X663780Y-120667D01*
X663847Y-120619D01*
X663924Y-120571D01*
X664020Y-120523D01*
X664116Y-120484D01*
X664222Y-120436D01*
X664472Y-120350D01*
X664750Y-120292D01*
X664904Y-120282D01*
X665058Y-120273D01*
X665144D01*
X665211Y-120282D01*
D02*
G37*
G36*
X644636D02*
X644723Y-120292D01*
X644809Y-120301D01*
X644915Y-120321D01*
X645031Y-120350D01*
X645271Y-120426D01*
X645396Y-120475D01*
X645530Y-120532D01*
X645655Y-120609D01*
X645780Y-120695D01*
X645905Y-120792D01*
X646020Y-120897D01*
X646030Y-120907D01*
X646049Y-120926D01*
X646078Y-120965D01*
X646116Y-121013D01*
X646165Y-121070D01*
X646213Y-121147D01*
X646270Y-121243D01*
X646328Y-121339D01*
X646376Y-121455D01*
X646434Y-121589D01*
X646482Y-121724D01*
X646530Y-121878D01*
X646568Y-122041D01*
X646597Y-122223D01*
X646616Y-122406D01*
X646626Y-122608D01*
Y-122617D01*
Y-122646D01*
Y-122694D01*
Y-122752D01*
X646616Y-122829D01*
Y-122915D01*
X646607Y-123012D01*
X646597Y-123117D01*
X646559Y-123338D01*
X646511Y-123569D01*
X646443Y-123800D01*
X646357Y-124001D01*
Y-124011D01*
X646347Y-124021D01*
X646309Y-124088D01*
X646241Y-124174D01*
X646155Y-124290D01*
X646049Y-124415D01*
X645915Y-124539D01*
X645761Y-124664D01*
X645578Y-124780D01*
X645569D01*
X645559Y-124789D01*
X645530Y-124809D01*
X645492Y-124818D01*
X645386Y-124866D01*
X645252Y-124914D01*
X645088Y-124972D01*
X644906Y-125010D01*
X644704Y-125049D01*
X644483Y-125058D01*
X644387D01*
X644319Y-125049D01*
X644242Y-125039D01*
X644146Y-125030D01*
X644041Y-125010D01*
X643925Y-124982D01*
X643685Y-124905D01*
X643551Y-124857D01*
X643426Y-124799D01*
X643291Y-124732D01*
X643166Y-124645D01*
X643041Y-124549D01*
X642926Y-124443D01*
X642916Y-124434D01*
X642897Y-124415D01*
X642868Y-124376D01*
X642839Y-124328D01*
X642791Y-124261D01*
X642743Y-124184D01*
X642686Y-124098D01*
X642638Y-123992D01*
X642580Y-123867D01*
X642522Y-123742D01*
X642474Y-123588D01*
X642436Y-123434D01*
X642397Y-123261D01*
X642369Y-123079D01*
X642349Y-122877D01*
X642340Y-122666D01*
Y-122646D01*
Y-122608D01*
X642349Y-122541D01*
Y-122454D01*
X642359Y-122348D01*
X642378Y-122233D01*
X642397Y-122099D01*
X642426Y-121954D01*
X642465Y-121801D01*
X642513Y-121647D01*
X642570Y-121493D01*
X642638Y-121339D01*
X642715Y-121186D01*
X642811Y-121042D01*
X642916Y-120907D01*
X643041Y-120782D01*
X643051Y-120772D01*
X643070Y-120763D01*
X643099Y-120734D01*
X643147Y-120705D01*
X643205Y-120667D01*
X643272Y-120619D01*
X643349Y-120571D01*
X643445Y-120523D01*
X643541Y-120484D01*
X643647Y-120436D01*
X643897Y-120350D01*
X644175Y-120292D01*
X644329Y-120282D01*
X644483Y-120273D01*
X644569D01*
X644636Y-120282D01*
D02*
G37*
G36*
X634834D02*
X634921Y-120292D01*
X635007Y-120301D01*
X635113Y-120321D01*
X635228Y-120350D01*
X635469Y-120426D01*
X635594Y-120475D01*
X635728Y-120532D01*
X635853Y-120609D01*
X635978Y-120695D01*
X636103Y-120792D01*
X636218Y-120897D01*
X636228Y-120907D01*
X636247Y-120926D01*
X636276Y-120965D01*
X636314Y-121013D01*
X636362Y-121070D01*
X636410Y-121147D01*
X636468Y-121243D01*
X636526Y-121339D01*
X636574Y-121455D01*
X636631Y-121589D01*
X636680Y-121724D01*
X636728Y-121878D01*
X636766Y-122041D01*
X636795Y-122223D01*
X636814Y-122406D01*
X636824Y-122608D01*
Y-122617D01*
Y-122646D01*
Y-122694D01*
Y-122752D01*
X636814Y-122829D01*
Y-122915D01*
X636804Y-123012D01*
X636795Y-123117D01*
X636756Y-123338D01*
X636708Y-123569D01*
X636641Y-123800D01*
X636554Y-124001D01*
Y-124011D01*
X636545Y-124021D01*
X636507Y-124088D01*
X636439Y-124174D01*
X636353Y-124290D01*
X636247Y-124415D01*
X636112Y-124539D01*
X635959Y-124664D01*
X635776Y-124780D01*
X635767D01*
X635757Y-124789D01*
X635728Y-124809D01*
X635690Y-124818D01*
X635584Y-124866D01*
X635449Y-124914D01*
X635286Y-124972D01*
X635103Y-125010D01*
X634902Y-125049D01*
X634681Y-125058D01*
X634585D01*
X634517Y-125049D01*
X634440Y-125039D01*
X634344Y-125030D01*
X634238Y-125010D01*
X634123Y-124982D01*
X633883Y-124905D01*
X633748Y-124857D01*
X633624Y-124799D01*
X633489Y-124732D01*
X633364Y-124645D01*
X633239Y-124549D01*
X633124Y-124443D01*
X633114Y-124434D01*
X633095Y-124415D01*
X633066Y-124376D01*
X633037Y-124328D01*
X632989Y-124261D01*
X632941Y-124184D01*
X632884Y-124098D01*
X632835Y-123992D01*
X632778Y-123867D01*
X632720Y-123742D01*
X632672Y-123588D01*
X632634Y-123434D01*
X632595Y-123261D01*
X632566Y-123079D01*
X632547Y-122877D01*
X632538Y-122666D01*
Y-122646D01*
Y-122608D01*
X632547Y-122541D01*
Y-122454D01*
X632557Y-122348D01*
X632576Y-122233D01*
X632595Y-122099D01*
X632624Y-121954D01*
X632662Y-121801D01*
X632711Y-121647D01*
X632768Y-121493D01*
X632835Y-121339D01*
X632912Y-121186D01*
X633008Y-121042D01*
X633114Y-120907D01*
X633239Y-120782D01*
X633249Y-120772D01*
X633268Y-120763D01*
X633297Y-120734D01*
X633345Y-120705D01*
X633402Y-120667D01*
X633470Y-120619D01*
X633547Y-120571D01*
X633643Y-120523D01*
X633739Y-120484D01*
X633845Y-120436D01*
X634094Y-120350D01*
X634373Y-120292D01*
X634527Y-120282D01*
X634681Y-120273D01*
X634767D01*
X634834Y-120282D01*
D02*
G37*
G36*
X721238Y-119820D02*
X717510Y-119820D01*
Y-121761D01*
X720998Y-121761D01*
Y-122501D01*
X717510Y-122501D01*
Y-124654D01*
X721382Y-124654D01*
Y-125394D01*
X716674Y-125394D01*
Y-119080D01*
X721238Y-119080D01*
Y-119820D01*
D02*
G37*
G36*
X703498Y-120723D02*
X703633Y-120733D01*
X703787Y-120752D01*
X703950Y-120771D01*
X704104Y-120810D01*
X704248Y-120858D01*
X704267Y-120867D01*
X704305Y-120877D01*
X704373Y-120915D01*
X704450Y-120954D01*
X704536Y-121002D01*
X704632Y-121060D01*
X704709Y-121127D01*
X704786Y-121204D01*
X704796Y-121213D01*
X704815Y-121242D01*
X704844Y-121281D01*
X704882Y-121348D01*
X704920Y-121425D01*
X704959Y-121511D01*
X704997Y-121617D01*
X705026Y-121732D01*
Y-121742D01*
X705036Y-121771D01*
X705045Y-121819D01*
X705055Y-121896D01*
Y-121992D01*
X705065Y-122117D01*
X705074Y-122261D01*
Y-122443D01*
Y-123481D01*
Y-123491D01*
Y-123529D01*
Y-123587D01*
Y-123654D01*
Y-123741D01*
Y-123837D01*
X705084Y-124058D01*
Y-124298D01*
X705093Y-124519D01*
X705103Y-124625D01*
Y-124711D01*
X705113Y-124788D01*
X705122Y-124855D01*
Y-124865D01*
X705132Y-124904D01*
X705141Y-124961D01*
X705161Y-125029D01*
X705190Y-125105D01*
X705228Y-125201D01*
X705314Y-125394D01*
X704507D01*
X704498Y-125384D01*
X704488Y-125355D01*
X704469Y-125298D01*
X704440Y-125230D01*
X704411Y-125144D01*
X704392Y-125048D01*
X704373Y-124942D01*
X704354Y-124817D01*
X704334Y-124836D01*
X704277Y-124875D01*
X704200Y-124942D01*
X704084Y-125019D01*
X703960Y-125115D01*
X703815Y-125201D01*
X703671Y-125278D01*
X703517Y-125346D01*
X703498Y-125355D01*
X703450Y-125365D01*
X703373Y-125394D01*
X703267Y-125423D01*
X703133Y-125451D01*
X702989Y-125471D01*
X702835Y-125490D01*
X702662Y-125499D01*
X702595D01*
X702537Y-125490D01*
X702480D01*
X702403Y-125480D01*
X702239Y-125451D01*
X702047Y-125413D01*
X701864Y-125346D01*
X701672Y-125259D01*
X701509Y-125134D01*
X701490Y-125115D01*
X701442Y-125067D01*
X701384Y-124990D01*
X701307Y-124875D01*
X701230Y-124740D01*
X701173Y-124586D01*
X701124Y-124394D01*
X701105Y-124193D01*
Y-124173D01*
Y-124135D01*
X701115Y-124067D01*
X701124Y-123991D01*
X701144Y-123895D01*
X701163Y-123789D01*
X701201Y-123683D01*
X701249Y-123577D01*
X701259Y-123568D01*
X701278Y-123529D01*
X701307Y-123481D01*
X701355Y-123414D01*
X701413Y-123347D01*
X701490Y-123270D01*
X701567Y-123203D01*
X701653Y-123135D01*
X701663Y-123126D01*
X701701Y-123107D01*
X701749Y-123078D01*
X701816Y-123039D01*
X701903Y-122991D01*
X701989Y-122953D01*
X702095Y-122914D01*
X702210Y-122876D01*
X702220D01*
X702258Y-122866D01*
X702307Y-122857D01*
X702383Y-122837D01*
X702480Y-122818D01*
X702604Y-122799D01*
X702739Y-122780D01*
X702902Y-122761D01*
X702912D01*
X702941Y-122751D01*
X702989D01*
X703056Y-122741D01*
X703133Y-122732D01*
X703220Y-122722D01*
X703431Y-122684D01*
X703652Y-122645D01*
X703883Y-122607D01*
X704104Y-122549D01*
X704200Y-122520D01*
X704286Y-122492D01*
Y-122482D01*
Y-122463D01*
X704296Y-122405D01*
Y-122338D01*
Y-122309D01*
Y-122290D01*
Y-122280D01*
Y-122271D01*
Y-122213D01*
X704286Y-122126D01*
X704267Y-122030D01*
X704238Y-121924D01*
X704200Y-121809D01*
X704152Y-121713D01*
X704075Y-121627D01*
X704065Y-121617D01*
X704017Y-121588D01*
X703950Y-121540D01*
X703854Y-121492D01*
X703729Y-121444D01*
X703575Y-121396D01*
X703393Y-121367D01*
X703191Y-121358D01*
X703104D01*
X703008Y-121367D01*
X702883Y-121377D01*
X702749Y-121405D01*
X702624Y-121434D01*
X702489Y-121482D01*
X702383Y-121550D01*
X702374Y-121559D01*
X702345Y-121588D01*
X702297Y-121636D01*
X702239Y-121704D01*
X702172Y-121800D01*
X702114Y-121915D01*
X702047Y-122059D01*
X701999Y-122222D01*
X701240Y-122117D01*
Y-122107D01*
X701249Y-122098D01*
X701259Y-122040D01*
X701288Y-121953D01*
X701317Y-121838D01*
X701365Y-121713D01*
X701422Y-121588D01*
X701490Y-121454D01*
X701576Y-121338D01*
X701586Y-121329D01*
X701624Y-121290D01*
X701672Y-121233D01*
X701749Y-121165D01*
X701845Y-121098D01*
X701970Y-121021D01*
X702105Y-120944D01*
X702258Y-120877D01*
X702268D01*
X702278Y-120867D01*
X702307Y-120858D01*
X702335Y-120848D01*
X702431Y-120829D01*
X702556Y-120791D01*
X702710Y-120762D01*
X702883Y-120742D01*
X703085Y-120723D01*
X703296Y-120714D01*
X703393D01*
X703498Y-120723D01*
D02*
G37*
G36*
X693196Y-119089D02*
X693263D01*
X693427Y-119099D01*
X693610Y-119128D01*
X693802Y-119157D01*
X693994Y-119205D01*
X694167Y-119272D01*
X694176D01*
X694186Y-119282D01*
X694244Y-119311D01*
X694321Y-119359D01*
X694417Y-119416D01*
X694532Y-119503D01*
X694647Y-119608D01*
X694753Y-119724D01*
X694859Y-119868D01*
X694868Y-119887D01*
X694897Y-119935D01*
X694936Y-120022D01*
X694984Y-120127D01*
X695032Y-120252D01*
X695070Y-120387D01*
X695099Y-120541D01*
X695109Y-120704D01*
Y-120723D01*
Y-120771D01*
X695099Y-120848D01*
X695080Y-120954D01*
X695051Y-121069D01*
X695013Y-121194D01*
X694965Y-121338D01*
X694888Y-121473D01*
X694878Y-121492D01*
X694849Y-121530D01*
X694792Y-121598D01*
X694724Y-121675D01*
X694628Y-121771D01*
X694513Y-121857D01*
X694378Y-121953D01*
X694215Y-122040D01*
X694225D01*
X694244Y-122049D01*
X694273Y-122059D01*
X694311Y-122069D01*
X694417Y-122117D01*
X694542Y-122174D01*
X694686Y-122261D01*
X694830Y-122357D01*
X694974Y-122472D01*
X695099Y-122616D01*
X695109Y-122636D01*
X695147Y-122684D01*
X695195Y-122770D01*
X695262Y-122886D01*
X695320Y-123030D01*
X695368Y-123183D01*
X695407Y-123366D01*
X695416Y-123568D01*
Y-123587D01*
Y-123645D01*
X695407Y-123731D01*
X695397Y-123837D01*
X695368Y-123962D01*
X695339Y-124106D01*
X695291Y-124250D01*
X695224Y-124394D01*
X695214Y-124414D01*
X695195Y-124461D01*
X695147Y-124529D01*
X695099Y-124615D01*
X695032Y-124711D01*
X694955Y-124808D01*
X694859Y-124904D01*
X694763Y-124990D01*
X694753Y-125000D01*
X694715Y-125019D01*
X694657Y-125057D01*
X694570Y-125105D01*
X694474Y-125153D01*
X694349Y-125201D01*
X694215Y-125250D01*
X694071Y-125298D01*
X694052D01*
X693994Y-125317D01*
X693907Y-125326D01*
X693792Y-125346D01*
X693638Y-125365D01*
X693465Y-125374D01*
X693273Y-125394D01*
X690650D01*
Y-119080D01*
X693129D01*
X693196Y-119089D01*
D02*
G37*
G36*
X734260Y-120723D02*
X734337Y-120733D01*
X734433Y-120742D01*
X734529Y-120762D01*
X734644Y-120791D01*
X734875Y-120867D01*
X735000Y-120915D01*
X735125Y-120983D01*
X735250Y-121050D01*
X735374Y-121136D01*
X735490Y-121233D01*
X735605Y-121348D01*
X735615Y-121358D01*
X735634Y-121377D01*
X735663Y-121415D01*
X735701Y-121463D01*
X735740Y-121530D01*
X735788Y-121607D01*
X735845Y-121694D01*
X735903Y-121800D01*
X735951Y-121924D01*
X736009Y-122049D01*
X736057Y-122194D01*
X736105Y-122357D01*
X736134Y-122520D01*
X736163Y-122703D01*
X736182Y-122895D01*
X736191Y-123107D01*
Y-123116D01*
Y-123155D01*
Y-123222D01*
X736182Y-123308D01*
X732780D01*
Y-123318D01*
Y-123337D01*
X732790Y-123385D01*
Y-123433D01*
X732799Y-123501D01*
X732809Y-123568D01*
X732847Y-123741D01*
X732905Y-123923D01*
X732972Y-124116D01*
X733078Y-124308D01*
X733203Y-124471D01*
X733222Y-124490D01*
X733270Y-124529D01*
X733357Y-124596D01*
X733462Y-124663D01*
X733606Y-124740D01*
X733770Y-124808D01*
X733952Y-124846D01*
X734154Y-124865D01*
X734231D01*
X734308Y-124855D01*
X734404Y-124836D01*
X734519Y-124808D01*
X734644Y-124769D01*
X734769Y-124721D01*
X734884Y-124644D01*
X734894Y-124635D01*
X734933Y-124596D01*
X734990Y-124548D01*
X735057Y-124461D01*
X735134Y-124365D01*
X735211Y-124241D01*
X735288Y-124087D01*
X735365Y-123914D01*
X736163Y-124020D01*
Y-124029D01*
X736153Y-124048D01*
X736143Y-124087D01*
X736124Y-124135D01*
X736105Y-124192D01*
X736076Y-124260D01*
X735999Y-124423D01*
X735903Y-124596D01*
X735788Y-124779D01*
X735634Y-124961D01*
X735461Y-125115D01*
X735451D01*
X735442Y-125134D01*
X735413Y-125153D01*
X735365Y-125173D01*
X735317Y-125201D01*
X735259Y-125240D01*
X735192Y-125269D01*
X735106Y-125307D01*
X734923Y-125374D01*
X734692Y-125442D01*
X734442Y-125480D01*
X734154Y-125499D01*
X734058D01*
X733991Y-125490D01*
X733904Y-125480D01*
X733808Y-125471D01*
X733702Y-125451D01*
X733577Y-125423D01*
X733328Y-125346D01*
X733193Y-125298D01*
X733068Y-125240D01*
X732934Y-125173D01*
X732809Y-125086D01*
X732684Y-124990D01*
X732568Y-124884D01*
X732559Y-124875D01*
X732540Y-124855D01*
X732511Y-124817D01*
X732482Y-124769D01*
X732434Y-124711D01*
X732386Y-124635D01*
X732328Y-124538D01*
X732280Y-124433D01*
X732223Y-124317D01*
X732165Y-124192D01*
X732117Y-124048D01*
X732078Y-123895D01*
X732040Y-123731D01*
X732011Y-123549D01*
X731992Y-123356D01*
X731982Y-123155D01*
Y-123145D01*
Y-123107D01*
Y-123039D01*
X731992Y-122962D01*
X732001Y-122866D01*
X732011Y-122751D01*
X732030Y-122626D01*
X732059Y-122492D01*
X732126Y-122203D01*
X732174Y-122059D01*
X732232Y-121905D01*
X732299Y-121761D01*
X732376Y-121617D01*
X732463Y-121482D01*
X732568Y-121358D01*
X732578Y-121348D01*
X732597Y-121329D01*
X732626Y-121300D01*
X732674Y-121252D01*
X732732Y-121204D01*
X732809Y-121156D01*
X732886Y-121098D01*
X732982Y-121031D01*
X733087Y-120973D01*
X733203Y-120915D01*
X733328Y-120867D01*
X733472Y-120810D01*
X733616Y-120771D01*
X733770Y-120742D01*
X733933Y-120723D01*
X734106Y-120714D01*
X734193D01*
X734260Y-120723D01*
D02*
G37*
G36*
X698472Y-120723D02*
X698559Y-120733D01*
X698645Y-120742D01*
X698751Y-120762D01*
X698866Y-120791D01*
X699106Y-120867D01*
X699231Y-120915D01*
X699366Y-120973D01*
X699491Y-121050D01*
X699616Y-121136D01*
X699741Y-121233D01*
X699856Y-121338D01*
X699866Y-121348D01*
X699885Y-121367D01*
X699914Y-121405D01*
X699952Y-121454D01*
X700000Y-121511D01*
X700048Y-121588D01*
X700106Y-121684D01*
X700164Y-121780D01*
X700212Y-121896D01*
X700269Y-122030D01*
X700317Y-122165D01*
X700365Y-122318D01*
X700404Y-122482D01*
X700433Y-122664D01*
X700452Y-122847D01*
X700461Y-123049D01*
Y-123058D01*
Y-123087D01*
Y-123135D01*
Y-123193D01*
X700452Y-123270D01*
Y-123356D01*
X700442Y-123452D01*
X700433Y-123558D01*
X700394Y-123779D01*
X700346Y-124010D01*
X700279Y-124241D01*
X700192Y-124442D01*
Y-124452D01*
X700183Y-124461D01*
X700144Y-124529D01*
X700077Y-124615D01*
X699991Y-124731D01*
X699885Y-124855D01*
X699750Y-124980D01*
X699597Y-125105D01*
X699414Y-125221D01*
X699404D01*
X699395Y-125230D01*
X699366Y-125250D01*
X699327Y-125259D01*
X699222Y-125307D01*
X699087Y-125355D01*
X698924Y-125413D01*
X698741Y-125451D01*
X698539Y-125490D01*
X698318Y-125499D01*
X698222D01*
X698155Y-125490D01*
X698078Y-125480D01*
X697982Y-125471D01*
X697876Y-125451D01*
X697761Y-125423D01*
X697521Y-125346D01*
X697386Y-125298D01*
X697261Y-125240D01*
X697127Y-125173D01*
X697002Y-125086D01*
X696877Y-124990D01*
X696762Y-124884D01*
X696752Y-124875D01*
X696733Y-124855D01*
X696704Y-124817D01*
X696675Y-124769D01*
X696627Y-124702D01*
X696579Y-124625D01*
X696521Y-124538D01*
X696473Y-124433D01*
X696416Y-124308D01*
X696358Y-124183D01*
X696310Y-124029D01*
X696272Y-123875D01*
X696233Y-123702D01*
X696204Y-123520D01*
X696185Y-123318D01*
X696175Y-123107D01*
Y-123087D01*
Y-123049D01*
X696185Y-122982D01*
Y-122895D01*
X696195Y-122789D01*
X696214Y-122674D01*
X696233Y-122539D01*
X696262Y-122395D01*
X696300Y-122242D01*
X696348Y-122088D01*
X696406Y-121934D01*
X696473Y-121780D01*
X696550Y-121627D01*
X696646Y-121482D01*
X696752Y-121348D01*
X696877Y-121223D01*
X696886Y-121213D01*
X696906Y-121204D01*
X696935Y-121175D01*
X696983Y-121146D01*
X697040Y-121108D01*
X697108Y-121060D01*
X697184Y-121011D01*
X697281Y-120964D01*
X697377Y-120925D01*
X697482Y-120877D01*
X697732Y-120791D01*
X698011Y-120733D01*
X698165Y-120723D01*
X698318Y-120714D01*
X698405D01*
X698472Y-120723D01*
D02*
G37*
G36*
X729147Y-120723D02*
X729214Y-120733D01*
X729301Y-120752D01*
X729484Y-120800D01*
X729589Y-120829D01*
X729695Y-120877D01*
X729810Y-120925D01*
X729926Y-120992D01*
X730031Y-121069D01*
X730147Y-121156D01*
X730252Y-121261D01*
X730348Y-121377D01*
Y-120819D01*
X731060D01*
Y-124779D01*
Y-124788D01*
Y-124827D01*
Y-124875D01*
Y-124952D01*
X731050Y-125038D01*
Y-125134D01*
X731040Y-125250D01*
X731031Y-125365D01*
X731002Y-125605D01*
X730964Y-125855D01*
X730915Y-126086D01*
X730877Y-126191D01*
X730839Y-126278D01*
Y-126287D01*
X730829Y-126297D01*
X730800Y-126355D01*
X730743Y-126432D01*
X730675Y-126537D01*
X730579Y-126653D01*
X730464Y-126768D01*
X730320Y-126883D01*
X730156Y-126989D01*
X730147D01*
X730137Y-126999D01*
X730108Y-127008D01*
X730070Y-127027D01*
X729974Y-127075D01*
X729839Y-127114D01*
X729666Y-127162D01*
X729464Y-127210D01*
X729243Y-127239D01*
X728994Y-127248D01*
X728917D01*
X728859Y-127239D01*
X728792D01*
X728705Y-127229D01*
X728523Y-127200D01*
X728311Y-127152D01*
X728090Y-127095D01*
X727869Y-126999D01*
X727667Y-126874D01*
X727658D01*
X727648Y-126854D01*
X727590Y-126806D01*
X727514Y-126720D01*
X727418Y-126595D01*
X727331Y-126441D01*
X727254Y-126249D01*
X727206Y-126028D01*
X727187Y-125903D01*
Y-125768D01*
X727936Y-125874D01*
Y-125893D01*
X727946Y-125932D01*
X727965Y-125989D01*
X727985Y-126066D01*
X728023Y-126153D01*
X728071Y-126239D01*
X728129Y-126316D01*
X728205Y-126383D01*
X728215Y-126393D01*
X728263Y-126422D01*
X728321Y-126451D01*
X728417Y-126489D01*
X728523Y-126537D01*
X728657Y-126566D01*
X728821Y-126595D01*
X728994Y-126604D01*
X729080D01*
X729176Y-126595D01*
X729301Y-126576D01*
X729436Y-126547D01*
X729570Y-126508D01*
X729705Y-126460D01*
X729820Y-126383D01*
X729830Y-126374D01*
X729868Y-126345D01*
X729916Y-126297D01*
X729983Y-126230D01*
X730051Y-126143D01*
X730108Y-126047D01*
X730166Y-125922D01*
X730214Y-125788D01*
Y-125778D01*
X730224Y-125740D01*
X730233Y-125672D01*
X730243Y-125576D01*
X730262Y-125442D01*
Y-125355D01*
X730272Y-125269D01*
Y-125163D01*
Y-125057D01*
Y-124932D01*
Y-124798D01*
X730262Y-124808D01*
X730252Y-124827D01*
X730224Y-124855D01*
X730185Y-124894D01*
X730127Y-124932D01*
X730070Y-124990D01*
X729926Y-125096D01*
X729743Y-125201D01*
X729522Y-125298D01*
X729407Y-125336D01*
X729282Y-125365D01*
X729147Y-125384D01*
X729013Y-125394D01*
X728926D01*
X728859Y-125384D01*
X728782Y-125374D01*
X728686Y-125355D01*
X728590Y-125336D01*
X728475Y-125307D01*
X728359Y-125278D01*
X728244Y-125230D01*
X728119Y-125173D01*
X728004Y-125105D01*
X727879Y-125029D01*
X727763Y-124942D01*
X727658Y-124836D01*
X727552Y-124721D01*
X727542Y-124711D01*
X727533Y-124692D01*
X727504Y-124654D01*
X727475Y-124596D01*
X727437Y-124529D01*
X727389Y-124452D01*
X727341Y-124365D01*
X727292Y-124260D01*
X727245Y-124144D01*
X727196Y-124020D01*
X727158Y-123885D01*
X727110Y-123741D01*
X727052Y-123433D01*
X727043Y-123260D01*
X727033Y-123087D01*
Y-123078D01*
Y-123058D01*
Y-123020D01*
Y-122972D01*
X727043Y-122914D01*
Y-122847D01*
X727062Y-122693D01*
X727091Y-122501D01*
X727129Y-122299D01*
X727187Y-122088D01*
X727264Y-121876D01*
Y-121867D01*
X727273Y-121848D01*
X727292Y-121819D01*
X727312Y-121780D01*
X727360Y-121684D01*
X727437Y-121559D01*
X727542Y-121425D01*
X727658Y-121281D01*
X727792Y-121146D01*
X727956Y-121021D01*
X727965D01*
X727975Y-121011D01*
X728004Y-120992D01*
X728032Y-120973D01*
X728129Y-120925D01*
X728254Y-120867D01*
X728417Y-120810D01*
X728590Y-120762D01*
X728792Y-120723D01*
X729013Y-120714D01*
X729090D01*
X729147Y-120723D01*
D02*
G37*
%LPC*%
G36*
X671881Y-120917D02*
X671737D01*
X671698Y-120926D01*
X671602Y-120936D01*
X671487Y-120965D01*
X671352Y-121022D01*
X671208Y-121099D01*
X671064Y-121195D01*
X670997Y-121263D01*
X670929Y-121339D01*
X670910Y-121359D01*
X670901Y-121388D01*
X670872Y-121416D01*
X670853Y-121464D01*
X670824Y-121522D01*
X670785Y-121589D01*
X670756Y-121666D01*
X670728Y-121753D01*
X670689Y-121849D01*
X670660Y-121964D01*
X670641Y-122079D01*
X670612Y-122214D01*
X670603Y-122358D01*
X670583Y-122512D01*
Y-122675D01*
Y-122685D01*
Y-122714D01*
Y-122762D01*
X670593Y-122819D01*
Y-122896D01*
X670603Y-122973D01*
X670632Y-123175D01*
X670670Y-123386D01*
X670737Y-123607D01*
X670824Y-123809D01*
X670882Y-123905D01*
X670949Y-123992D01*
X670968Y-124011D01*
X671016Y-124059D01*
X671093Y-124126D01*
X671199Y-124203D01*
X671323Y-124290D01*
X671468Y-124357D01*
X671641Y-124405D01*
X671727Y-124415D01*
X671823Y-124424D01*
X671871D01*
X671910Y-124415D01*
X672006Y-124405D01*
X672121Y-124376D01*
X672256Y-124319D01*
X672400Y-124251D01*
X672554Y-124145D01*
X672621Y-124088D01*
X672688Y-124011D01*
Y-124001D01*
X672707Y-123992D01*
X672717Y-123963D01*
X672746Y-123934D01*
X672775Y-123886D01*
X672803Y-123838D01*
X672832Y-123771D01*
X672871Y-123694D01*
X672899Y-123617D01*
X672928Y-123521D01*
X672957Y-123415D01*
X672986Y-123300D01*
X673015Y-123175D01*
X673025Y-123040D01*
X673044Y-122896D01*
Y-122742D01*
Y-122733D01*
Y-122704D01*
Y-122656D01*
X673034Y-122589D01*
Y-122512D01*
X673025Y-122425D01*
X672996Y-122214D01*
X672957Y-121993D01*
X672890Y-121762D01*
X672803Y-121541D01*
X672746Y-121445D01*
X672679Y-121359D01*
Y-121349D01*
X672659Y-121339D01*
X672611Y-121291D01*
X672534Y-121214D01*
X672429Y-121138D01*
X672304Y-121061D01*
X672150Y-120984D01*
X671977Y-120936D01*
X671881Y-120917D01*
D02*
G37*
G36*
X724246Y-121358D02*
X724102D01*
X724064Y-121367D01*
X723968Y-121377D01*
X723852Y-121405D01*
X723718Y-121463D01*
X723573Y-121540D01*
X723429Y-121636D01*
X723362Y-121703D01*
X723295Y-121780D01*
X723276Y-121800D01*
X723266Y-121828D01*
X723237Y-121857D01*
X723218Y-121905D01*
X723189Y-121963D01*
X723151Y-122030D01*
X723122Y-122107D01*
X723093Y-122194D01*
X723055Y-122290D01*
X723026Y-122405D01*
X723006Y-122520D01*
X722978Y-122655D01*
X722968Y-122799D01*
X722949Y-122953D01*
Y-123116D01*
Y-123126D01*
Y-123155D01*
Y-123203D01*
X722958Y-123260D01*
Y-123337D01*
X722968Y-123414D01*
X722997Y-123616D01*
X723035Y-123827D01*
X723103Y-124048D01*
X723189Y-124250D01*
X723247Y-124346D01*
X723314Y-124433D01*
X723333Y-124452D01*
X723381Y-124500D01*
X723458Y-124567D01*
X723564Y-124644D01*
X723689Y-124731D01*
X723833Y-124798D01*
X724006Y-124846D01*
X724092Y-124855D01*
X724189Y-124865D01*
X724237D01*
X724275Y-124855D01*
X724371Y-124846D01*
X724486Y-124817D01*
X724621Y-124759D01*
X724765Y-124692D01*
X724919Y-124586D01*
X724986Y-124529D01*
X725053Y-124452D01*
Y-124442D01*
X725073Y-124433D01*
X725082Y-124404D01*
X725111Y-124375D01*
X725140Y-124327D01*
X725169Y-124279D01*
X725198Y-124212D01*
X725236Y-124135D01*
X725265Y-124058D01*
X725294Y-123962D01*
X725322Y-123856D01*
X725351Y-123741D01*
X725380Y-123616D01*
X725390Y-123481D01*
X725409Y-123337D01*
Y-123183D01*
Y-123174D01*
Y-123145D01*
Y-123097D01*
X725399Y-123030D01*
Y-122953D01*
X725390Y-122866D01*
X725361Y-122655D01*
X725322Y-122434D01*
X725255Y-122203D01*
X725169Y-121982D01*
X725111Y-121886D01*
X725044Y-121800D01*
Y-121790D01*
X725025Y-121780D01*
X724976Y-121732D01*
X724900Y-121655D01*
X724794Y-121579D01*
X724669Y-121502D01*
X724515Y-121425D01*
X724342Y-121377D01*
X724246Y-121358D01*
D02*
G37*
G36*
X711013Y-121358D02*
X710869D01*
X710831Y-121367D01*
X710735Y-121377D01*
X710619Y-121405D01*
X710485Y-121463D01*
X710340Y-121540D01*
X710196Y-121636D01*
X710129Y-121704D01*
X710062Y-121780D01*
X710043Y-121800D01*
X710033Y-121828D01*
X710004Y-121857D01*
X709985Y-121905D01*
X709956Y-121963D01*
X709918Y-122030D01*
X709889Y-122107D01*
X709860Y-122194D01*
X709822Y-122290D01*
X709793Y-122405D01*
X709773Y-122520D01*
X709745Y-122655D01*
X709735Y-122799D01*
X709716Y-122953D01*
Y-123116D01*
Y-123126D01*
Y-123155D01*
Y-123203D01*
X709726Y-123260D01*
Y-123337D01*
X709735Y-123414D01*
X709764Y-123616D01*
X709802Y-123827D01*
X709870Y-124048D01*
X709956Y-124250D01*
X710014Y-124346D01*
X710081Y-124433D01*
X710100Y-124452D01*
X710148Y-124500D01*
X710225Y-124567D01*
X710331Y-124644D01*
X710456Y-124731D01*
X710600Y-124798D01*
X710773Y-124846D01*
X710859Y-124855D01*
X710955Y-124865D01*
X711004D01*
X711042Y-124855D01*
X711138Y-124846D01*
X711253Y-124817D01*
X711388Y-124759D01*
X711532Y-124692D01*
X711686Y-124586D01*
X711753Y-124529D01*
X711820Y-124452D01*
Y-124442D01*
X711840Y-124433D01*
X711849Y-124404D01*
X711878Y-124375D01*
X711907Y-124327D01*
X711936Y-124279D01*
X711965Y-124212D01*
X712003Y-124135D01*
X712032Y-124058D01*
X712061Y-123962D01*
X712089Y-123856D01*
X712118Y-123741D01*
X712147Y-123616D01*
X712157Y-123481D01*
X712176Y-123337D01*
Y-123183D01*
Y-123174D01*
Y-123145D01*
Y-123097D01*
X712166Y-123030D01*
Y-122953D01*
X712157Y-122866D01*
X712128Y-122655D01*
X712089Y-122434D01*
X712022Y-122203D01*
X711936Y-121982D01*
X711878Y-121886D01*
X711811Y-121800D01*
Y-121790D01*
X711792Y-121780D01*
X711744Y-121732D01*
X711667Y-121655D01*
X711561Y-121579D01*
X711436Y-121502D01*
X711282Y-121425D01*
X711109Y-121377D01*
X711013Y-121358D01*
D02*
G37*
G36*
X629337Y-119379D02*
X627848D01*
Y-121301D01*
X629395D01*
X629510Y-121291D01*
X629645Y-121282D01*
X629779Y-121272D01*
X629895Y-121253D01*
X630000Y-121234D01*
X630010Y-121224D01*
X630049Y-121214D01*
X630106Y-121195D01*
X630183Y-121157D01*
X630260Y-121118D01*
X630337Y-121061D01*
X630414Y-120993D01*
X630481Y-120917D01*
X630491Y-120907D01*
X630510Y-120878D01*
X630529Y-120830D01*
X630568Y-120763D01*
X630596Y-120686D01*
X630616Y-120590D01*
X630635Y-120484D01*
X630644Y-120359D01*
Y-120350D01*
Y-120301D01*
X630635Y-120244D01*
X630625Y-120167D01*
X630606Y-120080D01*
X630577Y-119994D01*
X630539Y-119898D01*
X630491Y-119802D01*
X630481Y-119792D01*
X630462Y-119763D01*
X630423Y-119725D01*
X630375Y-119667D01*
X630318Y-119619D01*
X630241Y-119562D01*
X630154Y-119513D01*
X630058Y-119475D01*
X630049D01*
X630000Y-119456D01*
X629933Y-119446D01*
X629837Y-119427D01*
X629703Y-119408D01*
X629539Y-119398D01*
X629337Y-119379D01*
D02*
G37*
G36*
X629510Y-122041D02*
X627848D01*
Y-124213D01*
X629635D01*
X629827Y-124203D01*
X629914Y-124194D01*
X629981Y-124184D01*
X629991D01*
X630029Y-124174D01*
X630087Y-124165D01*
X630154Y-124145D01*
X630308Y-124098D01*
X630462Y-124021D01*
X630471Y-124011D01*
X630500Y-124001D01*
X630529Y-123973D01*
X630577Y-123925D01*
X630635Y-123876D01*
X630683Y-123819D01*
X630740Y-123742D01*
X630789Y-123665D01*
X630798Y-123655D01*
X630808Y-123627D01*
X630827Y-123579D01*
X630856Y-123511D01*
X630875Y-123434D01*
X630894Y-123338D01*
X630904Y-123242D01*
X630913Y-123127D01*
Y-123108D01*
Y-123069D01*
X630904Y-123002D01*
X630894Y-122925D01*
X630865Y-122829D01*
X630837Y-122723D01*
X630789Y-122617D01*
X630721Y-122521D01*
X630712Y-122512D01*
X630692Y-122473D01*
X630644Y-122435D01*
X630587Y-122377D01*
X630519Y-122310D01*
X630433Y-122252D01*
X630337Y-122195D01*
X630222Y-122147D01*
X630202Y-122137D01*
X630164Y-122127D01*
X630087Y-122108D01*
X629991Y-122089D01*
X629856Y-122070D01*
X629703Y-122060D01*
X629510Y-122041D01*
D02*
G37*
G36*
X676849Y-120907D02*
X676801D01*
X676763Y-120917D01*
X676657Y-120926D01*
X676532Y-120955D01*
X676388Y-120993D01*
X676244Y-121061D01*
X676090Y-121147D01*
X675946Y-121272D01*
X675927Y-121291D01*
X675888Y-121339D01*
X675831Y-121416D01*
X675763Y-121532D01*
X675696Y-121666D01*
X675629Y-121829D01*
X675581Y-122022D01*
X675552Y-122233D01*
X678108D01*
Y-122223D01*
Y-122204D01*
X678099Y-122176D01*
Y-122137D01*
X678079Y-122031D01*
X678051Y-121906D01*
X678012Y-121772D01*
X677954Y-121628D01*
X677897Y-121484D01*
X677810Y-121368D01*
Y-121359D01*
X677791Y-121349D01*
X677743Y-121291D01*
X677657Y-121224D01*
X677551Y-121138D01*
X677407Y-121051D01*
X677243Y-120974D01*
X677061Y-120926D01*
X676955Y-120917D01*
X676849Y-120907D01*
D02*
G37*
G36*
X665164Y-120917D02*
X665000D01*
X664962Y-120926D01*
X664856Y-120936D01*
X664721Y-120974D01*
X664568Y-121022D01*
X664404Y-121099D01*
X664241Y-121214D01*
X664164Y-121282D01*
X664087Y-121359D01*
X664068Y-121378D01*
X664049Y-121407D01*
X664030Y-121435D01*
X664001Y-121484D01*
X663972Y-121541D01*
X663933Y-121608D01*
X663905Y-121685D01*
X663866Y-121772D01*
X663828Y-121868D01*
X663799Y-121974D01*
X663770Y-122099D01*
X663751Y-122223D01*
X663732Y-122368D01*
X663712Y-122512D01*
Y-122675D01*
Y-122685D01*
Y-122714D01*
Y-122762D01*
X663722Y-122819D01*
Y-122887D01*
X663732Y-122973D01*
X663760Y-123165D01*
X663808Y-123377D01*
X663866Y-123598D01*
X663962Y-123809D01*
X664020Y-123905D01*
X664087Y-123992D01*
X664106Y-124011D01*
X664154Y-124059D01*
X664241Y-124126D01*
X664356Y-124203D01*
X664491Y-124290D01*
X664664Y-124357D01*
X664846Y-124405D01*
X664952Y-124415D01*
X665058Y-124424D01*
X665115D01*
X665154Y-124415D01*
X665260Y-124405D01*
X665394Y-124367D01*
X665548Y-124319D01*
X665711Y-124242D01*
X665865Y-124136D01*
X665942Y-124069D01*
X666019Y-123992D01*
Y-123982D01*
X666038Y-123973D01*
X666057Y-123944D01*
X666077Y-123905D01*
X666105Y-123857D01*
X666144Y-123800D01*
X666173Y-123732D01*
X666211Y-123655D01*
X666249Y-123569D01*
X666278Y-123473D01*
X666317Y-123357D01*
X666346Y-123233D01*
X666365Y-123108D01*
X666384Y-122964D01*
X666403Y-122810D01*
Y-122646D01*
Y-122637D01*
Y-122608D01*
Y-122570D01*
X666394Y-122502D01*
Y-122435D01*
X666384Y-122358D01*
X666355Y-122166D01*
X666307Y-121964D01*
X666240Y-121743D01*
X666144Y-121541D01*
X666009Y-121359D01*
Y-121349D01*
X665990Y-121339D01*
X665942Y-121291D01*
X665855Y-121214D01*
X665750Y-121138D01*
X665606Y-121061D01*
X665442Y-120984D01*
X665260Y-120936D01*
X665164Y-120917D01*
D02*
G37*
G36*
X644589D02*
X644425D01*
X644387Y-120926D01*
X644281Y-120936D01*
X644146Y-120974D01*
X643993Y-121022D01*
X643829Y-121099D01*
X643666Y-121214D01*
X643589Y-121282D01*
X643512Y-121359D01*
X643493Y-121378D01*
X643474Y-121407D01*
X643455Y-121435D01*
X643426Y-121484D01*
X643397Y-121541D01*
X643358Y-121608D01*
X643330Y-121685D01*
X643291Y-121772D01*
X643253Y-121868D01*
X643224Y-121974D01*
X643195Y-122099D01*
X643176Y-122223D01*
X643157Y-122368D01*
X643137Y-122512D01*
Y-122675D01*
Y-122685D01*
Y-122714D01*
Y-122762D01*
X643147Y-122819D01*
Y-122887D01*
X643157Y-122973D01*
X643185Y-123165D01*
X643233Y-123377D01*
X643291Y-123598D01*
X643387Y-123809D01*
X643445Y-123905D01*
X643512Y-123992D01*
X643531Y-124011D01*
X643579Y-124059D01*
X643666Y-124126D01*
X643781Y-124203D01*
X643916Y-124290D01*
X644089Y-124357D01*
X644271Y-124405D01*
X644377Y-124415D01*
X644483Y-124424D01*
X644540D01*
X644579Y-124415D01*
X644685Y-124405D01*
X644819Y-124367D01*
X644973Y-124319D01*
X645136Y-124242D01*
X645290Y-124136D01*
X645367Y-124069D01*
X645444Y-123992D01*
Y-123982D01*
X645463Y-123973D01*
X645482Y-123944D01*
X645501Y-123905D01*
X645530Y-123857D01*
X645569Y-123800D01*
X645598Y-123732D01*
X645636Y-123655D01*
X645674Y-123569D01*
X645703Y-123473D01*
X645742Y-123357D01*
X645771Y-123233D01*
X645790Y-123108D01*
X645809Y-122964D01*
X645828Y-122810D01*
Y-122646D01*
Y-122637D01*
Y-122608D01*
Y-122570D01*
X645819Y-122502D01*
Y-122435D01*
X645809Y-122358D01*
X645780Y-122166D01*
X645732Y-121964D01*
X645665Y-121743D01*
X645569Y-121541D01*
X645434Y-121359D01*
Y-121349D01*
X645415Y-121339D01*
X645367Y-121291D01*
X645280Y-121214D01*
X645175Y-121138D01*
X645031Y-121061D01*
X644867Y-120984D01*
X644685Y-120936D01*
X644589Y-120917D01*
D02*
G37*
G36*
X634786D02*
X634623D01*
X634585Y-120926D01*
X634479Y-120936D01*
X634344Y-120974D01*
X634191Y-121022D01*
X634027Y-121099D01*
X633864Y-121214D01*
X633787Y-121282D01*
X633710Y-121359D01*
X633691Y-121378D01*
X633672Y-121407D01*
X633652Y-121435D01*
X633624Y-121484D01*
X633595Y-121541D01*
X633556Y-121608D01*
X633527Y-121685D01*
X633489Y-121772D01*
X633451Y-121868D01*
X633422Y-121974D01*
X633393Y-122099D01*
X633374Y-122223D01*
X633354Y-122368D01*
X633335Y-122512D01*
Y-122675D01*
Y-122685D01*
Y-122714D01*
Y-122762D01*
X633345Y-122819D01*
Y-122887D01*
X633354Y-122973D01*
X633383Y-123165D01*
X633431Y-123377D01*
X633489Y-123598D01*
X633585Y-123809D01*
X633643Y-123905D01*
X633710Y-123992D01*
X633729Y-124011D01*
X633777Y-124059D01*
X633864Y-124126D01*
X633979Y-124203D01*
X634114Y-124290D01*
X634287Y-124357D01*
X634469Y-124405D01*
X634575Y-124415D01*
X634681Y-124424D01*
X634738D01*
X634777Y-124415D01*
X634882Y-124405D01*
X635017Y-124367D01*
X635171Y-124319D01*
X635334Y-124242D01*
X635488Y-124136D01*
X635565Y-124069D01*
X635642Y-123992D01*
Y-123982D01*
X635661Y-123973D01*
X635680Y-123944D01*
X635699Y-123905D01*
X635728Y-123857D01*
X635767Y-123800D01*
X635795Y-123732D01*
X635834Y-123655D01*
X635872Y-123569D01*
X635901Y-123473D01*
X635940Y-123357D01*
X635968Y-123233D01*
X635988Y-123108D01*
X636007Y-122964D01*
X636026Y-122810D01*
Y-122646D01*
Y-122637D01*
Y-122608D01*
Y-122570D01*
X636016Y-122502D01*
Y-122435D01*
X636007Y-122358D01*
X635978Y-122166D01*
X635930Y-121964D01*
X635863Y-121743D01*
X635767Y-121541D01*
X635632Y-121359D01*
Y-121349D01*
X635613Y-121339D01*
X635565Y-121291D01*
X635478Y-121214D01*
X635372Y-121138D01*
X635228Y-121061D01*
X635065Y-120984D01*
X634882Y-120936D01*
X634786Y-120917D01*
D02*
G37*
G36*
X704286Y-123097D02*
X704267Y-123107D01*
X704238Y-123116D01*
X704209Y-123126D01*
X704161Y-123145D01*
X704104Y-123155D01*
X704046Y-123174D01*
X703969Y-123203D01*
X703883Y-123222D01*
X703787Y-123241D01*
X703690Y-123270D01*
X703575Y-123299D01*
X703450Y-123318D01*
X703316Y-123347D01*
X703171Y-123366D01*
X703018Y-123395D01*
X702998D01*
X702941Y-123404D01*
X702854Y-123424D01*
X702749Y-123443D01*
X702528Y-123491D01*
X702422Y-123520D01*
X702335Y-123549D01*
X702326D01*
X702307Y-123568D01*
X702268Y-123587D01*
X702230Y-123616D01*
X702134Y-123693D01*
X702037Y-123808D01*
Y-123818D01*
X702018Y-123837D01*
X702009Y-123866D01*
X701989Y-123914D01*
X701951Y-124029D01*
X701941Y-124096D01*
X701932Y-124173D01*
Y-124183D01*
Y-124221D01*
X701941Y-124279D01*
X701961Y-124356D01*
X701989Y-124433D01*
X702028Y-124519D01*
X702085Y-124606D01*
X702162Y-124692D01*
X702172Y-124702D01*
X702210Y-124721D01*
X702258Y-124759D01*
X702335Y-124788D01*
X702431Y-124827D01*
X702556Y-124865D01*
X702691Y-124884D01*
X702854Y-124894D01*
X702931D01*
X703008Y-124884D01*
X703123Y-124865D01*
X703239Y-124846D01*
X703373Y-124817D01*
X703508Y-124769D01*
X703642Y-124702D01*
X703661Y-124692D01*
X703700Y-124663D01*
X703767Y-124625D01*
X703844Y-124558D01*
X703921Y-124490D01*
X704007Y-124394D01*
X704094Y-124289D01*
X704161Y-124164D01*
X704171Y-124154D01*
X704180Y-124116D01*
X704200Y-124058D01*
X704228Y-123971D01*
X704248Y-123856D01*
X704267Y-123722D01*
X704277Y-123568D01*
X704286Y-123385D01*
Y-123097D01*
D02*
G37*
G36*
X692975Y-119820D02*
X691486D01*
Y-121742D01*
X693033D01*
X693148Y-121732D01*
X693283Y-121723D01*
X693417Y-121713D01*
X693533Y-121694D01*
X693638Y-121675D01*
X693648Y-121665D01*
X693686Y-121655D01*
X693744Y-121636D01*
X693821Y-121598D01*
X693898Y-121559D01*
X693975Y-121502D01*
X694052Y-121434D01*
X694119Y-121358D01*
X694128Y-121348D01*
X694148Y-121319D01*
X694167Y-121271D01*
X694205Y-121204D01*
X694234Y-121127D01*
X694253Y-121031D01*
X694273Y-120925D01*
X694282Y-120800D01*
Y-120791D01*
Y-120742D01*
X694273Y-120685D01*
X694263Y-120608D01*
X694244Y-120521D01*
X694215Y-120435D01*
X694176Y-120339D01*
X694128Y-120243D01*
X694119Y-120233D01*
X694100Y-120204D01*
X694061Y-120166D01*
X694013Y-120108D01*
X693956Y-120060D01*
X693879Y-120002D01*
X693792Y-119954D01*
X693696Y-119916D01*
X693686D01*
X693638Y-119897D01*
X693571Y-119887D01*
X693475Y-119868D01*
X693340Y-119849D01*
X693177Y-119839D01*
X692975Y-119820D01*
D02*
G37*
G36*
X693148Y-122482D02*
X691486D01*
Y-124654D01*
X693273D01*
X693465Y-124644D01*
X693552Y-124635D01*
X693619Y-124625D01*
X693629D01*
X693667Y-124615D01*
X693725Y-124606D01*
X693792Y-124586D01*
X693946Y-124538D01*
X694100Y-124461D01*
X694109Y-124452D01*
X694138Y-124442D01*
X694167Y-124414D01*
X694215Y-124365D01*
X694273Y-124317D01*
X694321Y-124260D01*
X694378Y-124183D01*
X694426Y-124106D01*
X694436Y-124096D01*
X694446Y-124067D01*
X694465Y-124020D01*
X694494Y-123952D01*
X694513Y-123875D01*
X694532Y-123779D01*
X694542Y-123683D01*
X694551Y-123568D01*
Y-123549D01*
Y-123510D01*
X694542Y-123443D01*
X694532Y-123366D01*
X694503Y-123270D01*
X694474Y-123164D01*
X694426Y-123058D01*
X694359Y-122962D01*
X694349Y-122953D01*
X694330Y-122914D01*
X694282Y-122876D01*
X694225Y-122818D01*
X694157Y-122751D01*
X694071Y-122693D01*
X693975Y-122636D01*
X693859Y-122588D01*
X693840Y-122578D01*
X693802Y-122568D01*
X693725Y-122549D01*
X693629Y-122530D01*
X693494Y-122511D01*
X693340Y-122501D01*
X693148Y-122482D01*
D02*
G37*
G36*
X734116Y-121348D02*
X734068D01*
X734029Y-121358D01*
X733923Y-121367D01*
X733799Y-121396D01*
X733654Y-121434D01*
X733510Y-121502D01*
X733357Y-121588D01*
X733212Y-121713D01*
X733193Y-121732D01*
X733155Y-121780D01*
X733097Y-121857D01*
X733030Y-121973D01*
X732962Y-122107D01*
X732895Y-122270D01*
X732847Y-122463D01*
X732818Y-122674D01*
X735374D01*
Y-122664D01*
Y-122645D01*
X735365Y-122616D01*
Y-122578D01*
X735346Y-122472D01*
X735317Y-122347D01*
X735278Y-122213D01*
X735221Y-122069D01*
X735163Y-121924D01*
X735077Y-121809D01*
Y-121800D01*
X735057Y-121790D01*
X735009Y-121732D01*
X734923Y-121665D01*
X734817Y-121579D01*
X734673Y-121492D01*
X734510Y-121415D01*
X734327Y-121367D01*
X734221Y-121358D01*
X734116Y-121348D01*
D02*
G37*
G36*
X698424Y-121358D02*
X698261D01*
X698222Y-121367D01*
X698117Y-121377D01*
X697982Y-121415D01*
X697828Y-121463D01*
X697665Y-121540D01*
X697502Y-121655D01*
X697425Y-121723D01*
X697348Y-121800D01*
X697329Y-121819D01*
X697309Y-121848D01*
X697290Y-121876D01*
X697261Y-121924D01*
X697232Y-121982D01*
X697194Y-122049D01*
X697165Y-122126D01*
X697127Y-122213D01*
X697088Y-122309D01*
X697059Y-122415D01*
X697031Y-122539D01*
X697011Y-122664D01*
X696992Y-122809D01*
X696973Y-122953D01*
Y-123116D01*
Y-123126D01*
Y-123155D01*
Y-123203D01*
X696983Y-123260D01*
Y-123328D01*
X696992Y-123414D01*
X697021Y-123606D01*
X697069Y-123818D01*
X697127Y-124039D01*
X697223Y-124250D01*
X697281Y-124346D01*
X697348Y-124433D01*
X697367Y-124452D01*
X697415Y-124500D01*
X697502Y-124567D01*
X697617Y-124644D01*
X697751Y-124731D01*
X697924Y-124798D01*
X698107Y-124846D01*
X698213Y-124855D01*
X698318Y-124865D01*
X698376D01*
X698415Y-124855D01*
X698520Y-124846D01*
X698655Y-124808D01*
X698808Y-124759D01*
X698972Y-124683D01*
X699126Y-124577D01*
X699202Y-124510D01*
X699279Y-124433D01*
Y-124423D01*
X699299Y-124414D01*
X699318Y-124385D01*
X699337Y-124346D01*
X699366Y-124298D01*
X699404Y-124241D01*
X699433Y-124173D01*
X699472Y-124096D01*
X699510Y-124010D01*
X699539Y-123914D01*
X699577Y-123798D01*
X699606Y-123673D01*
X699625Y-123549D01*
X699645Y-123404D01*
X699664Y-123251D01*
Y-123087D01*
Y-123078D01*
Y-123049D01*
Y-123010D01*
X699654Y-122943D01*
Y-122876D01*
X699645Y-122799D01*
X699616Y-122607D01*
X699568Y-122405D01*
X699500Y-122184D01*
X699404Y-121982D01*
X699270Y-121800D01*
Y-121790D01*
X699251Y-121780D01*
X699202Y-121732D01*
X699116Y-121655D01*
X699010Y-121579D01*
X698866Y-121502D01*
X698703Y-121425D01*
X698520Y-121377D01*
X698424Y-121358D01*
D02*
G37*
G36*
X729167Y-121358D02*
X729022D01*
X728984Y-121367D01*
X728888Y-121377D01*
X728763Y-121405D01*
X728628Y-121463D01*
X728475Y-121540D01*
X728330Y-121636D01*
X728254Y-121703D01*
X728186Y-121780D01*
X728167Y-121800D01*
X728157Y-121828D01*
X728129Y-121857D01*
X728100Y-121905D01*
X728071Y-121953D01*
X728042Y-122021D01*
X728013Y-122098D01*
X727975Y-122174D01*
X727946Y-122270D01*
X727917Y-122376D01*
X727888Y-122482D01*
X727850Y-122741D01*
X727831Y-123030D01*
Y-123039D01*
Y-123068D01*
Y-123116D01*
X727840Y-123174D01*
Y-123251D01*
X727850Y-123337D01*
X727879Y-123529D01*
X727917Y-123741D01*
X727985Y-123962D01*
X728071Y-124164D01*
X728129Y-124250D01*
X728186Y-124337D01*
X728205Y-124356D01*
X728254Y-124404D01*
X728330Y-124471D01*
X728436Y-124538D01*
X728561Y-124615D01*
X728715Y-124682D01*
X728888Y-124731D01*
X728984Y-124740D01*
X729080Y-124750D01*
X729128D01*
X729167Y-124740D01*
X729272Y-124731D01*
X729397Y-124702D01*
X729532Y-124654D01*
X729685Y-124577D01*
X729830Y-124481D01*
X729974Y-124346D01*
Y-124337D01*
X729993Y-124327D01*
X730012Y-124298D01*
X730031Y-124269D01*
X730060Y-124221D01*
X730089Y-124173D01*
X730118Y-124106D01*
X730156Y-124029D01*
X730195Y-123943D01*
X730224Y-123846D01*
X730252Y-123741D01*
X730281Y-123626D01*
X730310Y-123501D01*
X730320Y-123366D01*
X730339Y-123212D01*
Y-123058D01*
Y-123049D01*
Y-123020D01*
Y-122982D01*
X730329Y-122924D01*
Y-122847D01*
X730320Y-122770D01*
X730291Y-122578D01*
X730252Y-122376D01*
X730185Y-122165D01*
X730089Y-121963D01*
X730031Y-121876D01*
X729964Y-121790D01*
Y-121780D01*
X729945Y-121771D01*
X729897Y-121723D01*
X729820Y-121655D01*
X729714Y-121569D01*
X729589Y-121492D01*
X729436Y-121425D01*
X729263Y-121377D01*
X729167Y-121358D01*
D02*
G37*
%LPD*%
D11*
X348727Y15143D02*
G03*
X362231Y28721I28J13476D01*
G01*
X313897Y453D02*
G03*
X327865Y8398I-430J17007D01*
G01*
X340101Y15143D02*
G03*
X327800Y8303I31J-14537D01*
G01*
X327073Y341609D02*
G03*
X340443Y332359I13542J5287D01*
G01*
X326634Y342790D02*
G03*
X315457Y350371I-11018J-4215D01*
G01*
X429Y19709D02*
G03*
X13080Y7370I12282J-63D01*
G01*
X29169Y3404D02*
G03*
X20591Y7370I-8805J-7785D01*
G01*
X29072Y3478D02*
G03*
X35354Y453I6097J4625D01*
G01*
X362262Y319425D02*
G03*
X349823Y332359I-12687J247D01*
G01*
X15524Y350371D02*
G03*
X429Y333981I435J-15546D01*
G01*
X340101Y15143D02*
X348756D01*
X340443Y332359D02*
X349823D01*
X326634Y342790D02*
X327141Y341464D01*
X429Y333981D02*
X429Y19709D01*
X13080Y7370D02*
X20591D01*
X35354Y453D02*
X313467D01*
X362262Y28721D02*
X362262Y319425D01*
X15524Y350371D02*
X315457D01*
D15*
X4429Y318307D02*
G03*
X3642Y317520I-0J-787D01*
G01*
X18209D02*
G03*
X17421Y318307I-787J-0D01*
G01*
Y310433D02*
G03*
X18209Y311221I0J787D01*
G01*
X3642D02*
G03*
X4429Y310433I787J0D01*
G01*
X18209Y311221D02*
Y317520D01*
X4429Y318307D02*
X17421D01*
X4429Y310433D02*
X17421D01*
X3642Y311221D02*
Y317520D01*
D52*
X10925Y314370D02*
D03*
D62*
X328051Y325295D02*
D03*
X57185Y191339D02*
D03*
X326476Y23622D02*
D03*
D63*
X124409Y194193D02*
D03*
X117126D02*
D03*
X183661Y299606D02*
D03*
X190945D02*
D03*
X294526Y194882D02*
D03*
X287242D02*
D03*
D68*
X65141Y227575D02*
D03*
X70292Y222425D02*
D03*
X272457Y257169D02*
D03*
X267307Y262319D02*
D03*
D69*
X131693Y293406D02*
D03*
Y300689D02*
D03*
X240650Y218996D02*
D03*
Y211713D02*
D03*
X214173Y209252D02*
D03*
Y216535D02*
D03*
X205315Y253150D02*
D03*
Y260433D02*
D03*
D71*
X62982Y264688D02*
D03*
X68132Y269838D02*
D03*
X120555Y267799D02*
D03*
X125705Y272949D02*
D03*
X57300Y259071D02*
D03*
X52149Y253921D02*
D03*
D72*
X221752Y209232D02*
D03*
Y216555D02*
D03*
X199508Y260354D02*
D03*
Y253031D02*
D03*
D74*
X125659Y262667D02*
D03*
X130837Y267845D02*
D03*
X57746Y269754D02*
D03*
X62924Y274932D02*
D03*
X46820Y259222D02*
D03*
X51999Y264400D02*
D03*
D79*
X305575Y263976D02*
D03*
X297575D02*
D03*
X305575Y243110D02*
D03*
X297575D02*
D03*
X305575Y233760D02*
D03*
X297575D02*
D03*
X305575Y252461D02*
D03*
X297575D02*
D03*
X305575Y224409D02*
D03*
X297575D02*
D03*
X131890Y311221D02*
D03*
X123890D02*
D03*
X190650Y310039D02*
D03*
X182650D02*
D03*
X157516Y277658D02*
D03*
X165516D02*
D03*
X157516Y286221D02*
D03*
X165516D02*
D03*
X28114Y241732D02*
D03*
X20114D02*
D03*
X52693D02*
D03*
X60693D02*
D03*
X20114Y257677D02*
D03*
X28114D02*
D03*
X37339Y282283D02*
D03*
X45339D02*
D03*
X28114Y267126D02*
D03*
X20114D02*
D03*
X37339Y290551D02*
D03*
X45339D02*
D03*
X28114Y276673D02*
D03*
X20114D02*
D03*
X174276Y242913D02*
D03*
X166276D02*
D03*
X199740D02*
D03*
X207740D02*
D03*
X28114Y204624D02*
D03*
X20114D02*
D03*
X37402D02*
D03*
X45402D02*
D03*
X28114Y214173D02*
D03*
X20114D02*
D03*
X37402Y223718D02*
D03*
X45402D02*
D03*
X28114D02*
D03*
X20114D02*
D03*
X149964Y311221D02*
D03*
X141964D02*
D03*
X209020Y310039D02*
D03*
X201020D02*
D03*
X107232Y231693D02*
D03*
X99232D02*
D03*
D80*
X121286Y182651D02*
D03*
X126943Y176994D02*
D03*
X278410Y188163D02*
D03*
X284067Y182506D02*
D03*
D81*
X167421Y256138D02*
D03*
Y264138D02*
D03*
X158153Y256138D02*
D03*
Y264138D02*
D03*
X106595Y212957D02*
D03*
Y204957D02*
D03*
X272933Y212957D02*
D03*
Y204957D02*
D03*
D82*
X65089Y217490D02*
D03*
X59911Y222668D02*
D03*
X277491Y262076D02*
D03*
X272313Y267254D02*
D03*
D83*
X124114Y288583D02*
D03*
X225000Y273031D02*
D03*
X215551Y302658D02*
D03*
X280512Y288583D02*
D03*
X271850D02*
D03*
X48917Y73032D02*
D03*
Y57579D02*
D03*
X56299Y24902D02*
D03*
X165551Y56890D02*
D03*
X149114Y163681D02*
D03*
X191240Y73327D02*
D03*
Y56398D02*
D03*
Y41772D02*
D03*
X264824Y18110D02*
D03*
X294783Y163681D02*
D03*
X71949Y274016D02*
D03*
X101969Y296358D02*
D03*
X128347Y280512D02*
D03*
X166312Y34213D02*
D03*
D84*
X350079Y59291D02*
D03*
X340079D02*
D03*
X350079Y69291D02*
D03*
X340079D02*
D03*
X350079Y79291D02*
D03*
X340079D02*
D03*
X350079Y89291D02*
D03*
X340079D02*
D03*
X350079Y99291D02*
D03*
X340079D02*
D03*
X350079Y109291D02*
D03*
X340079D02*
D03*
X350079Y119291D02*
D03*
X340079D02*
D03*
X350079Y129291D02*
D03*
X340079D02*
D03*
X350079Y139291D02*
D03*
X340079D02*
D03*
X350079Y149291D02*
D03*
X340079D02*
D03*
X350079Y159291D02*
D03*
X340079D02*
D03*
X350079Y169291D02*
D03*
X340079D02*
D03*
X350079Y179291D02*
D03*
X340079D02*
D03*
X350079Y189291D02*
D03*
X340079D02*
D03*
X350079Y199291D02*
D03*
X340079D02*
D03*
X350079Y209291D02*
D03*
X340079D02*
D03*
X350079Y219291D02*
D03*
X340079Y219193D02*
D03*
X350079Y229291D02*
D03*
X340079D02*
D03*
X350079Y239291D02*
D03*
X340079D02*
D03*
X350079Y249291D02*
D03*
X340059D02*
D03*
X350079Y259291D02*
D03*
X340059D02*
D03*
X350079Y269291D02*
D03*
X340079D02*
D03*
X350079Y279291D02*
D03*
X340079D02*
D03*
X350079Y289291D02*
D03*
X340079D02*
D03*
X350079Y299291D02*
D03*
X340079Y49291D02*
D03*
X350079D02*
D03*
X330079D02*
D03*
X320079D02*
D03*
X330079Y299291D02*
D03*
X320079Y289291D02*
D03*
X330079D02*
D03*
X320079Y279291D02*
D03*
X330079D02*
D03*
X320079Y269291D02*
D03*
X330079D02*
D03*
X320079Y259291D02*
D03*
X330079D02*
D03*
X320079Y249291D02*
D03*
X330079D02*
D03*
X320079Y239291D02*
D03*
X330079D02*
D03*
X320079Y229291D02*
D03*
X330079D02*
D03*
X320079Y219193D02*
D03*
X330079Y219291D02*
D03*
X320079Y209291D02*
D03*
X330079D02*
D03*
X320079Y199291D02*
D03*
X330079D02*
D03*
X320079Y189291D02*
D03*
X330079D02*
D03*
X320079Y179291D02*
D03*
X330079D02*
D03*
X320079Y169291D02*
D03*
X330079D02*
D03*
X320079Y159291D02*
D03*
X330079D02*
D03*
X320079Y149291D02*
D03*
X330079D02*
D03*
X320079Y139291D02*
D03*
X330079D02*
D03*
X320079Y129291D02*
D03*
X330079D02*
D03*
X320079Y119291D02*
D03*
X330079D02*
D03*
X320079Y109291D02*
D03*
X330079D02*
D03*
X320079Y99291D02*
D03*
X330079D02*
D03*
X320079Y89291D02*
D03*
X330079D02*
D03*
X320079Y79291D02*
D03*
X330079D02*
D03*
X320079Y69291D02*
D03*
X330079D02*
D03*
X320079Y59291D02*
D03*
X330079D02*
D03*
X76831Y318110D02*
D03*
X86831D02*
D03*
X312697Y341595D02*
D03*
X245492Y331594D02*
D03*
X255492D02*
D03*
X265492D02*
D03*
X275492D02*
D03*
X285492D02*
D03*
X295492D02*
D03*
Y341595D02*
D03*
X285492D02*
D03*
X275492D02*
D03*
X265492D02*
D03*
X255492D02*
D03*
X245492D02*
D03*
X235492D02*
D03*
X46831Y331594D02*
D03*
X56831D02*
D03*
X66831D02*
D03*
X76831D02*
D03*
X86831D02*
D03*
X96831D02*
D03*
Y341595D02*
D03*
X86831D02*
D03*
X76831D02*
D03*
X66831D02*
D03*
X56831D02*
D03*
X46831D02*
D03*
X36831D02*
D03*
X275551Y318110D02*
D03*
X285551D02*
D03*
D85*
X340059Y299291D02*
D03*
X320079D02*
D03*
X312697Y331594D02*
D03*
D86*
X350098Y319416D02*
D03*
X12831Y19500D02*
D03*
X350134Y29342D02*
D03*
X12831Y334559D02*
D03*
D87*
X96831Y318110D02*
D03*
X235492Y331594D02*
D03*
X36831D02*
D03*
X295551Y318110D02*
D03*
D88*
X180551Y152047D02*
D03*
X33583D02*
D03*
D89*
X190551Y162047D02*
D03*
Y142047D02*
D03*
X170551D02*
D03*
Y162047D02*
D03*
X23583D02*
D03*
Y142047D02*
D03*
X43583D02*
D03*
Y162047D02*
D03*
D90*
X316240Y32185D02*
D03*
X66240Y299114D02*
D03*
X250689Y243996D02*
D03*
X75689Y198130D02*
D03*
X31352Y11673D02*
D03*
X302362Y11319D02*
D03*
D106*
X299146Y210195D02*
D03*
Y208227D02*
D03*
Y206259D02*
D03*
Y204290D02*
D03*
Y202322D02*
D03*
X281718D02*
D03*
Y204290D02*
D03*
Y206259D02*
D03*
Y208227D02*
D03*
Y210195D02*
D03*
X132828Y210039D02*
D03*
Y208071D02*
D03*
Y206102D02*
D03*
Y204134D02*
D03*
Y202165D02*
D03*
X115400D02*
D03*
Y204134D02*
D03*
Y206102D02*
D03*
Y208071D02*
D03*
Y210039D02*
D03*
D109*
X146752Y283707D02*
D03*
X144783D02*
D03*
X142815D02*
D03*
X140846D02*
D03*
X138878D02*
D03*
Y301135D02*
D03*
X140846D02*
D03*
X142815D02*
D03*
X144783D02*
D03*
X146752D02*
D03*
X205709Y282526D02*
D03*
X203740D02*
D03*
X201772D02*
D03*
X199803D02*
D03*
X197835D02*
D03*
Y299954D02*
D03*
X199803D02*
D03*
X201772D02*
D03*
X203740D02*
D03*
X205709D02*
D03*
D111*
X190650Y252854D02*
D03*
X183169D02*
D03*
Y242028D02*
D03*
X186909D02*
D03*
X190650D02*
D03*
X43799Y251673D02*
D03*
X36319D02*
D03*
Y240846D02*
D03*
X40059D02*
D03*
X43799D02*
D03*
D112*
X260210Y216214D02*
D03*
X254554Y210557D02*
D03*
X191608Y268084D02*
D03*
X185951Y262427D02*
D03*
X185112Y274383D02*
D03*
X179455Y268727D02*
D03*
M02*
