G04*
G04 #@! TF.GenerationSoftware,Altium Limited,Altium Designer,18.1.7 (191)*
G04*
G04 Layer_Color=16776960*
%FSLAX25Y25*%
%MOIN*%
G70*
G01*
G75*
%ADD11C,0.01000*%
%ADD15C,0.00787*%
G36*
X657572Y-119523D02*
X656793D01*
Y-118639D01*
X657572D01*
Y-119523D01*
D02*
G37*
G36*
X634056D02*
X633278D01*
Y-118639D01*
X634056D01*
Y-119523D01*
D02*
G37*
G36*
X665951Y-120282D02*
X666048Y-120292D01*
X666163Y-120311D01*
X666297Y-120340D01*
X666422Y-120378D01*
X666557Y-120426D01*
X666576Y-120436D01*
X666615Y-120455D01*
X666672Y-120484D01*
X666749Y-120532D01*
X666836Y-120590D01*
X666922Y-120657D01*
X667009Y-120734D01*
X667076Y-120820D01*
X667086Y-120830D01*
X667105Y-120859D01*
X667134Y-120917D01*
X667172Y-120984D01*
X667210Y-121061D01*
X667249Y-121157D01*
X667287Y-121272D01*
X667316Y-121388D01*
Y-121397D01*
X667326Y-121426D01*
X667335Y-121484D01*
X667345Y-121560D01*
Y-121666D01*
X667355Y-121801D01*
X667364Y-121954D01*
Y-122147D01*
Y-124953D01*
X666586D01*
Y-122176D01*
Y-122166D01*
Y-122156D01*
Y-122099D01*
Y-122012D01*
X666576Y-121906D01*
X666567Y-121801D01*
X666547Y-121676D01*
X666518Y-121570D01*
X666490Y-121474D01*
Y-121464D01*
X666470Y-121435D01*
X666451Y-121388D01*
X666422Y-121339D01*
X666374Y-121272D01*
X666317Y-121214D01*
X666249Y-121147D01*
X666173Y-121090D01*
X666163Y-121080D01*
X666134Y-121070D01*
X666086Y-121042D01*
X666019Y-121013D01*
X665942Y-120993D01*
X665846Y-120965D01*
X665750Y-120955D01*
X665634Y-120945D01*
X665548D01*
X665461Y-120965D01*
X665337Y-120984D01*
X665202Y-121022D01*
X665067Y-121080D01*
X664914Y-121157D01*
X664779Y-121263D01*
X664760Y-121282D01*
X664721Y-121330D01*
X664664Y-121407D01*
X664635Y-121464D01*
X664606Y-121532D01*
X664568Y-121608D01*
X664539Y-121695D01*
X664510Y-121791D01*
X664481Y-121897D01*
X664452Y-122022D01*
X664443Y-122156D01*
X664424Y-122300D01*
Y-122454D01*
Y-124953D01*
X663645D01*
Y-120378D01*
X664347D01*
Y-121032D01*
X664356Y-121022D01*
X664366Y-121003D01*
X664395Y-120965D01*
X664443Y-120917D01*
X664491Y-120859D01*
X664558Y-120792D01*
X664625Y-120724D01*
X664712Y-120648D01*
X664817Y-120580D01*
X664923Y-120513D01*
X665039Y-120446D01*
X665173Y-120388D01*
X665308Y-120340D01*
X665461Y-120301D01*
X665625Y-120282D01*
X665798Y-120273D01*
X665865D01*
X665951Y-120282D01*
D02*
G37*
G36*
X649778D02*
X649874Y-120292D01*
X649989Y-120311D01*
X650124Y-120340D01*
X650249Y-120378D01*
X650383Y-120426D01*
X650402Y-120436D01*
X650441Y-120455D01*
X650499Y-120484D01*
X650575Y-120532D01*
X650662Y-120590D01*
X650748Y-120657D01*
X650835Y-120734D01*
X650902Y-120820D01*
X650912Y-120830D01*
X650931Y-120859D01*
X650960Y-120917D01*
X650998Y-120984D01*
X651037Y-121061D01*
X651075Y-121157D01*
X651114Y-121272D01*
X651143Y-121388D01*
Y-121397D01*
X651152Y-121426D01*
X651162Y-121484D01*
X651171Y-121560D01*
Y-121666D01*
X651181Y-121801D01*
X651191Y-121954D01*
Y-122147D01*
Y-124953D01*
X650412D01*
Y-122176D01*
Y-122166D01*
Y-122156D01*
Y-122099D01*
Y-122012D01*
X650402Y-121906D01*
X650393Y-121801D01*
X650374Y-121676D01*
X650345Y-121570D01*
X650316Y-121474D01*
Y-121464D01*
X650297Y-121435D01*
X650278Y-121388D01*
X650249Y-121339D01*
X650201Y-121272D01*
X650143Y-121214D01*
X650076Y-121147D01*
X649999Y-121090D01*
X649989Y-121080D01*
X649961Y-121070D01*
X649912Y-121042D01*
X649845Y-121013D01*
X649768Y-120993D01*
X649672Y-120965D01*
X649576Y-120955D01*
X649461Y-120945D01*
X649374D01*
X649288Y-120965D01*
X649163Y-120984D01*
X649028Y-121022D01*
X648894Y-121080D01*
X648740Y-121157D01*
X648605Y-121263D01*
X648586Y-121282D01*
X648548Y-121330D01*
X648490Y-121407D01*
X648461Y-121464D01*
X648432Y-121532D01*
X648394Y-121608D01*
X648365Y-121695D01*
X648336Y-121791D01*
X648308Y-121897D01*
X648279Y-122022D01*
X648269Y-122156D01*
X648250Y-122300D01*
Y-122454D01*
Y-124953D01*
X647472D01*
Y-120378D01*
X648173D01*
Y-121032D01*
X648183Y-121022D01*
X648192Y-121003D01*
X648221Y-120965D01*
X648269Y-120917D01*
X648317Y-120859D01*
X648384Y-120792D01*
X648452Y-120724D01*
X648538Y-120648D01*
X648644Y-120580D01*
X648750Y-120513D01*
X648865Y-120446D01*
X649000Y-120388D01*
X649134Y-120340D01*
X649288Y-120301D01*
X649451Y-120282D01*
X649624Y-120273D01*
X649691D01*
X649778Y-120282D01*
D02*
G37*
G36*
X640139D02*
X640197D01*
X640264Y-120292D01*
X640408Y-120321D01*
X640581Y-120369D01*
X640754Y-120436D01*
X640917Y-120532D01*
X641071Y-120657D01*
X641090Y-120676D01*
X641129Y-120724D01*
X641187Y-120820D01*
X641263Y-120945D01*
X641331Y-121109D01*
X641388Y-121301D01*
X641427Y-121541D01*
X641446Y-121676D01*
Y-121820D01*
Y-124953D01*
X640668D01*
Y-122079D01*
Y-122070D01*
Y-122060D01*
Y-122002D01*
Y-121916D01*
X640658Y-121820D01*
X640639Y-121599D01*
X640620Y-121493D01*
X640591Y-121407D01*
Y-121397D01*
X640571Y-121368D01*
X640552Y-121330D01*
X640523Y-121282D01*
X640485Y-121234D01*
X640437Y-121176D01*
X640379Y-121118D01*
X640312Y-121070D01*
X640302Y-121061D01*
X640274Y-121051D01*
X640235Y-121032D01*
X640187Y-121003D01*
X640120Y-120984D01*
X640033Y-120965D01*
X639947Y-120955D01*
X639851Y-120945D01*
X639774D01*
X639678Y-120965D01*
X639572Y-120984D01*
X639447Y-121022D01*
X639313Y-121080D01*
X639169Y-121166D01*
X639044Y-121272D01*
X639034Y-121291D01*
X638996Y-121330D01*
X638947Y-121407D01*
X638890Y-121522D01*
X638823Y-121666D01*
X638774Y-121839D01*
X638736Y-122050D01*
X638726Y-122300D01*
Y-124953D01*
X637948D01*
Y-121983D01*
Y-121974D01*
Y-121964D01*
Y-121935D01*
Y-121897D01*
X637938Y-121801D01*
X637929Y-121695D01*
X637900Y-121560D01*
X637871Y-121435D01*
X637823Y-121311D01*
X637756Y-121205D01*
X637746Y-121195D01*
X637717Y-121166D01*
X637679Y-121118D01*
X637612Y-121070D01*
X637525Y-121032D01*
X637419Y-120984D01*
X637294Y-120955D01*
X637141Y-120945D01*
X637083D01*
X637025Y-120955D01*
X636939Y-120965D01*
X636852Y-120984D01*
X636747Y-121022D01*
X636641Y-121061D01*
X636535Y-121118D01*
X636526Y-121128D01*
X636487Y-121147D01*
X636439Y-121195D01*
X636381Y-121243D01*
X636314Y-121320D01*
X636247Y-121407D01*
X636189Y-121512D01*
X636132Y-121628D01*
X636122Y-121647D01*
X636112Y-121685D01*
X636093Y-121762D01*
X636074Y-121868D01*
X636045Y-122002D01*
X636026Y-122166D01*
X636016Y-122358D01*
X636007Y-122579D01*
Y-124953D01*
X635228D01*
Y-120378D01*
X635920D01*
Y-121022D01*
X635930Y-121003D01*
X635959Y-120965D01*
X636007Y-120907D01*
X636074Y-120830D01*
X636151Y-120744D01*
X636247Y-120657D01*
X636362Y-120561D01*
X636487Y-120484D01*
X636507Y-120475D01*
X636554Y-120455D01*
X636631Y-120417D01*
X636728Y-120378D01*
X636852Y-120340D01*
X636987Y-120301D01*
X637150Y-120282D01*
X637314Y-120273D01*
X637400D01*
X637496Y-120282D01*
X637612Y-120301D01*
X637737Y-120321D01*
X637881Y-120359D01*
X638015Y-120417D01*
X638140Y-120484D01*
X638159Y-120494D01*
X638198Y-120523D01*
X638256Y-120571D01*
X638323Y-120638D01*
X638400Y-120724D01*
X638477Y-120820D01*
X638544Y-120945D01*
X638601Y-121080D01*
X638611Y-121070D01*
X638630Y-121042D01*
X638659Y-121003D01*
X638698Y-120955D01*
X638755Y-120888D01*
X638823Y-120820D01*
X638899Y-120753D01*
X638986Y-120676D01*
X639082Y-120599D01*
X639188Y-120532D01*
X639437Y-120398D01*
X639572Y-120350D01*
X639716Y-120311D01*
X639860Y-120282D01*
X640024Y-120273D01*
X640091D01*
X640139Y-120282D01*
D02*
G37*
G36*
X726111Y-125394D02*
X725390D01*
Y-124827D01*
X725380Y-124836D01*
X725371Y-124855D01*
X725342Y-124884D01*
X725303Y-124932D01*
X725265Y-124980D01*
X725207Y-125038D01*
X725140Y-125096D01*
X725063Y-125163D01*
X724976Y-125221D01*
X724880Y-125288D01*
X724775Y-125346D01*
X724669Y-125394D01*
X724544Y-125442D01*
X724409Y-125471D01*
X724265Y-125490D01*
X724112Y-125499D01*
X724054D01*
X724016Y-125490D01*
X723910Y-125480D01*
X723785Y-125461D01*
X723622Y-125423D01*
X723458Y-125374D01*
X723276Y-125298D01*
X723103Y-125201D01*
X723093D01*
X723083Y-125192D01*
X723026Y-125144D01*
X722949Y-125077D01*
X722843Y-124980D01*
X722737Y-124865D01*
X722612Y-124721D01*
X722507Y-124558D01*
X722401Y-124365D01*
Y-124356D01*
X722391Y-124337D01*
X722382Y-124308D01*
X722363Y-124269D01*
X722343Y-124221D01*
X722324Y-124154D01*
X722276Y-124000D01*
X722228Y-123818D01*
X722190Y-123606D01*
X722161Y-123376D01*
X722151Y-123116D01*
Y-123107D01*
Y-123087D01*
Y-123049D01*
Y-123001D01*
X722161Y-122943D01*
Y-122866D01*
X722180Y-122703D01*
X722209Y-122511D01*
X722247Y-122309D01*
X722295Y-122088D01*
X722372Y-121876D01*
Y-121867D01*
X722382Y-121848D01*
X722401Y-121819D01*
X722420Y-121780D01*
X722468Y-121684D01*
X722545Y-121559D01*
X722641Y-121415D01*
X722757Y-121271D01*
X722891Y-121136D01*
X723055Y-121011D01*
X723064D01*
X723074Y-121002D01*
X723131Y-120964D01*
X723228Y-120915D01*
X723352Y-120858D01*
X723506Y-120810D01*
X723679Y-120762D01*
X723871Y-120723D01*
X724073Y-120714D01*
X724141D01*
X724217Y-120723D01*
X724323Y-120733D01*
X724429Y-120762D01*
X724554Y-120791D01*
X724679Y-120839D01*
X724803Y-120896D01*
X724823Y-120906D01*
X724861Y-120925D01*
X724919Y-120964D01*
X724996Y-121021D01*
X725073Y-121079D01*
X725169Y-121156D01*
X725255Y-121252D01*
X725332Y-121348D01*
Y-119080D01*
X726111D01*
Y-125394D01*
D02*
G37*
G36*
X712878Y-125394D02*
X712157D01*
Y-124827D01*
X712147Y-124836D01*
X712138Y-124855D01*
X712109Y-124884D01*
X712070Y-124932D01*
X712032Y-124980D01*
X711974Y-125038D01*
X711907Y-125096D01*
X711830Y-125163D01*
X711744Y-125221D01*
X711648Y-125288D01*
X711542Y-125346D01*
X711436Y-125394D01*
X711311Y-125442D01*
X711177Y-125471D01*
X711032Y-125490D01*
X710879Y-125499D01*
X710821D01*
X710783Y-125490D01*
X710677Y-125480D01*
X710552Y-125461D01*
X710389Y-125423D01*
X710225Y-125374D01*
X710043Y-125298D01*
X709870Y-125201D01*
X709860D01*
X709850Y-125192D01*
X709793Y-125144D01*
X709716Y-125077D01*
X709610Y-124980D01*
X709504Y-124865D01*
X709379Y-124721D01*
X709274Y-124558D01*
X709168Y-124365D01*
Y-124356D01*
X709159Y-124337D01*
X709149Y-124308D01*
X709130Y-124269D01*
X709110Y-124221D01*
X709091Y-124154D01*
X709043Y-124000D01*
X708995Y-123818D01*
X708957Y-123606D01*
X708928Y-123376D01*
X708918Y-123116D01*
Y-123107D01*
Y-123087D01*
Y-123049D01*
Y-123001D01*
X708928Y-122943D01*
Y-122866D01*
X708947Y-122703D01*
X708976Y-122511D01*
X709014Y-122309D01*
X709062Y-122088D01*
X709139Y-121876D01*
Y-121867D01*
X709149Y-121848D01*
X709168Y-121819D01*
X709187Y-121780D01*
X709235Y-121684D01*
X709312Y-121559D01*
X709408Y-121415D01*
X709524Y-121271D01*
X709658Y-121136D01*
X709822Y-121011D01*
X709831D01*
X709841Y-121002D01*
X709898Y-120964D01*
X709995Y-120915D01*
X710119Y-120858D01*
X710273Y-120810D01*
X710446Y-120762D01*
X710638Y-120723D01*
X710840Y-120714D01*
X710908D01*
X710984Y-120723D01*
X711090Y-120733D01*
X711196Y-120762D01*
X711321Y-120791D01*
X711446Y-120839D01*
X711571Y-120896D01*
X711590Y-120906D01*
X711628Y-120925D01*
X711686Y-120964D01*
X711763Y-121021D01*
X711840Y-121079D01*
X711936Y-121156D01*
X712022Y-121252D01*
X712099Y-121348D01*
Y-119080D01*
X712878D01*
Y-125394D01*
D02*
G37*
G36*
X708092Y-120723D02*
X708197Y-120742D01*
X708313Y-120781D01*
X708447Y-120819D01*
X708592Y-120887D01*
X708745Y-120973D01*
X708467Y-121684D01*
X708457Y-121675D01*
X708419Y-121655D01*
X708361Y-121627D01*
X708294Y-121598D01*
X708207Y-121569D01*
X708111Y-121540D01*
X708005Y-121521D01*
X707900Y-121511D01*
X707861D01*
X707813Y-121521D01*
X707746Y-121530D01*
X707679Y-121550D01*
X707602Y-121579D01*
X707525Y-121617D01*
X707448Y-121665D01*
X707438Y-121675D01*
X707419Y-121694D01*
X707381Y-121732D01*
X707342Y-121780D01*
X707294Y-121838D01*
X707246Y-121915D01*
X707208Y-122001D01*
X707169Y-122098D01*
X707160Y-122117D01*
X707150Y-122165D01*
X707131Y-122251D01*
X707112Y-122367D01*
X707083Y-122501D01*
X707063Y-122655D01*
X707054Y-122818D01*
X707044Y-123001D01*
Y-125394D01*
X706266D01*
Y-120819D01*
X706967D01*
Y-121502D01*
X706977Y-121492D01*
X707015Y-121434D01*
X707063Y-121348D01*
X707121Y-121252D01*
X707198Y-121146D01*
X707284Y-121040D01*
X707361Y-120944D01*
X707448Y-120877D01*
X707457Y-120867D01*
X707486Y-120848D01*
X707534Y-120829D01*
X707602Y-120791D01*
X707669Y-120762D01*
X707755Y-120742D01*
X707852Y-120723D01*
X707948Y-120714D01*
X708015D01*
X708092Y-120723D01*
D02*
G37*
G36*
X654064Y-120282D02*
X654189Y-120292D01*
X654343Y-120311D01*
X654496Y-120340D01*
X654660Y-120378D01*
X654813Y-120436D01*
X654823D01*
X654833Y-120446D01*
X654881Y-120465D01*
X654958Y-120503D01*
X655044Y-120542D01*
X655140Y-120609D01*
X655246Y-120676D01*
X655342Y-120763D01*
X655419Y-120859D01*
X655429Y-120869D01*
X655448Y-120907D01*
X655486Y-120965D01*
X655534Y-121042D01*
X655573Y-121138D01*
X655621Y-121263D01*
X655659Y-121397D01*
X655698Y-121551D01*
X654939Y-121657D01*
Y-121637D01*
X654929Y-121599D01*
X654910Y-121532D01*
X654881Y-121455D01*
X654842Y-121368D01*
X654785Y-121282D01*
X654717Y-121186D01*
X654631Y-121109D01*
X654621Y-121099D01*
X654583Y-121080D01*
X654525Y-121042D01*
X654448Y-121003D01*
X654352Y-120974D01*
X654227Y-120936D01*
X654093Y-120917D01*
X653929Y-120907D01*
X653843D01*
X653747Y-120917D01*
X653631Y-120926D01*
X653507Y-120955D01*
X653382Y-120984D01*
X653257Y-121032D01*
X653161Y-121090D01*
X653151Y-121099D01*
X653122Y-121118D01*
X653093Y-121157D01*
X653055Y-121205D01*
X653007Y-121263D01*
X652978Y-121339D01*
X652949Y-121416D01*
X652940Y-121503D01*
Y-121512D01*
Y-121532D01*
X652949Y-121560D01*
Y-121599D01*
X652978Y-121685D01*
X653026Y-121782D01*
X653036Y-121791D01*
X653045Y-121801D01*
X653103Y-121849D01*
X653141Y-121887D01*
X653189Y-121916D01*
X653257Y-121954D01*
X653324Y-121983D01*
X653334D01*
X653353Y-121993D01*
X653391Y-122002D01*
X653458Y-122022D01*
X653545Y-122050D01*
X653670Y-122089D01*
X653824Y-122127D01*
X653910Y-122156D01*
X654016Y-122185D01*
X654026D01*
X654054Y-122195D01*
X654093Y-122204D01*
X654150Y-122223D01*
X654218Y-122243D01*
X654295Y-122262D01*
X654468Y-122310D01*
X654660Y-122368D01*
X654852Y-122435D01*
X655025Y-122493D01*
X655102Y-122521D01*
X655169Y-122550D01*
X655188Y-122560D01*
X655227Y-122579D01*
X655284Y-122608D01*
X655352Y-122646D01*
X655438Y-122704D01*
X655525Y-122781D01*
X655602Y-122858D01*
X655678Y-122954D01*
X655688Y-122964D01*
X655707Y-123002D01*
X655736Y-123060D01*
X655774Y-123136D01*
X655813Y-123233D01*
X655842Y-123348D01*
X655861Y-123473D01*
X655871Y-123617D01*
Y-123636D01*
Y-123684D01*
X655861Y-123761D01*
X655842Y-123848D01*
X655813Y-123963D01*
X655774Y-124088D01*
X655717Y-124213D01*
X655640Y-124347D01*
X655630Y-124367D01*
X655602Y-124405D01*
X655544Y-124463D01*
X655467Y-124539D01*
X655380Y-124626D01*
X655265Y-124713D01*
X655131Y-124799D01*
X654977Y-124876D01*
X654958Y-124885D01*
X654900Y-124905D01*
X654813Y-124934D01*
X654698Y-124962D01*
X654554Y-125001D01*
X654391Y-125030D01*
X654208Y-125049D01*
X654016Y-125058D01*
X653929D01*
X653872Y-125049D01*
X653795D01*
X653708Y-125039D01*
X653507Y-125010D01*
X653286Y-124972D01*
X653064Y-124905D01*
X652844Y-124818D01*
X652747Y-124761D01*
X652651Y-124693D01*
X652642D01*
X652632Y-124674D01*
X652574Y-124626D01*
X652497Y-124539D01*
X652401Y-124415D01*
X652305Y-124261D01*
X652209Y-124069D01*
X652123Y-123848D01*
X652065Y-123588D01*
X652834Y-123463D01*
Y-123473D01*
Y-123482D01*
X652844Y-123540D01*
X652872Y-123627D01*
X652901Y-123732D01*
X652949Y-123848D01*
X653007Y-123963D01*
X653093Y-124078D01*
X653189Y-124184D01*
X653199Y-124194D01*
X653247Y-124222D01*
X653314Y-124261D01*
X653401Y-124299D01*
X653526Y-124347D01*
X653660Y-124386D01*
X653833Y-124415D01*
X654016Y-124424D01*
X654102D01*
X654199Y-124415D01*
X654314Y-124395D01*
X654448Y-124376D01*
X654583Y-124338D01*
X654708Y-124280D01*
X654813Y-124213D01*
X654823Y-124203D01*
X654852Y-124174D01*
X654900Y-124126D01*
X654948Y-124069D01*
X654986Y-123992D01*
X655035Y-123896D01*
X655063Y-123800D01*
X655073Y-123694D01*
Y-123684D01*
Y-123646D01*
X655063Y-123607D01*
X655044Y-123540D01*
X655015Y-123482D01*
X654977Y-123406D01*
X654919Y-123338D01*
X654842Y-123281D01*
X654833Y-123271D01*
X654804Y-123261D01*
X654756Y-123242D01*
X654679Y-123204D01*
X654573Y-123175D01*
X654439Y-123127D01*
X654352Y-123098D01*
X654266Y-123079D01*
X654160Y-123050D01*
X654045Y-123021D01*
X654035D01*
X654006Y-123012D01*
X653968Y-123002D01*
X653910Y-122983D01*
X653833Y-122964D01*
X653756Y-122944D01*
X653574Y-122887D01*
X653382Y-122829D01*
X653180Y-122771D01*
X652997Y-122704D01*
X652920Y-122675D01*
X652853Y-122646D01*
X652844Y-122637D01*
X652795Y-122617D01*
X652738Y-122579D01*
X652670Y-122531D01*
X652584Y-122473D01*
X652507Y-122397D01*
X652421Y-122310D01*
X652353Y-122214D01*
X652344Y-122204D01*
X652324Y-122166D01*
X652305Y-122108D01*
X652277Y-122031D01*
X652238Y-121945D01*
X652219Y-121839D01*
X652200Y-121724D01*
X652190Y-121599D01*
Y-121589D01*
Y-121551D01*
X652200Y-121484D01*
X652209Y-121416D01*
X652219Y-121330D01*
X652248Y-121234D01*
X652277Y-121128D01*
X652324Y-121032D01*
X652334Y-121022D01*
X652353Y-120984D01*
X652382Y-120936D01*
X652430Y-120878D01*
X652478Y-120811D01*
X652546Y-120744D01*
X652623Y-120667D01*
X652709Y-120599D01*
X652718Y-120590D01*
X652747Y-120580D01*
X652786Y-120551D01*
X652844Y-120523D01*
X652911Y-120484D01*
X652997Y-120446D01*
X653093Y-120407D01*
X653199Y-120369D01*
X653218D01*
X653257Y-120350D01*
X653314Y-120340D01*
X653401Y-120321D01*
X653507Y-120301D01*
X653612Y-120292D01*
X653737Y-120273D01*
X653958D01*
X654064Y-120282D01*
D02*
G37*
G36*
X657572Y-124953D02*
X656793D01*
Y-120378D01*
X657572D01*
Y-124953D01*
D02*
G37*
G36*
X634056D02*
X633278D01*
Y-120378D01*
X634056D01*
Y-124953D01*
D02*
G37*
G36*
X629597Y-118649D02*
X629770Y-118658D01*
X629962Y-118677D01*
X630145Y-118706D01*
X630298Y-118735D01*
X630308D01*
X630327Y-118745D01*
X630346D01*
X630385Y-118764D01*
X630491Y-118793D01*
X630616Y-118841D01*
X630760Y-118898D01*
X630913Y-118975D01*
X631067Y-119071D01*
X631221Y-119187D01*
X631231D01*
X631240Y-119206D01*
X631308Y-119264D01*
X631394Y-119360D01*
X631500Y-119485D01*
X631625Y-119638D01*
X631749Y-119821D01*
X631865Y-120032D01*
X631971Y-120273D01*
Y-120282D01*
X631980Y-120301D01*
X631990Y-120340D01*
X632009Y-120388D01*
X632028Y-120446D01*
X632047Y-120523D01*
X632076Y-120609D01*
X632095Y-120705D01*
X632115Y-120811D01*
X632143Y-120926D01*
X632182Y-121176D01*
X632211Y-121455D01*
X632220Y-121762D01*
Y-121772D01*
Y-121791D01*
Y-121829D01*
Y-121887D01*
X632211Y-121945D01*
Y-122022D01*
X632201Y-122195D01*
X632182Y-122387D01*
X632143Y-122608D01*
X632105Y-122829D01*
X632047Y-123040D01*
Y-123050D01*
X632038Y-123069D01*
X632028Y-123098D01*
X632019Y-123136D01*
X631980Y-123233D01*
X631932Y-123367D01*
X631875Y-123511D01*
X631798Y-123665D01*
X631711Y-123819D01*
X631615Y-123963D01*
X631605Y-123982D01*
X631567Y-124021D01*
X631519Y-124088D01*
X631442Y-124174D01*
X631365Y-124261D01*
X631259Y-124357D01*
X631154Y-124453D01*
X631038Y-124539D01*
X631029Y-124549D01*
X630981Y-124568D01*
X630913Y-124607D01*
X630827Y-124655D01*
X630721Y-124703D01*
X630596Y-124751D01*
X630452Y-124799D01*
X630289Y-124847D01*
X630270D01*
X630212Y-124866D01*
X630125Y-124876D01*
X630000Y-124895D01*
X629856Y-124914D01*
X629683Y-124934D01*
X629491Y-124943D01*
X629280Y-124953D01*
X627012D01*
Y-118639D01*
X629433D01*
X629597Y-118649D01*
D02*
G37*
G36*
X660752Y-120282D02*
X660839Y-120292D01*
X660925Y-120301D01*
X661031Y-120321D01*
X661146Y-120350D01*
X661387Y-120426D01*
X661512Y-120475D01*
X661646Y-120532D01*
X661771Y-120609D01*
X661896Y-120695D01*
X662021Y-120792D01*
X662136Y-120897D01*
X662146Y-120907D01*
X662165Y-120926D01*
X662194Y-120965D01*
X662232Y-121013D01*
X662281Y-121070D01*
X662328Y-121147D01*
X662386Y-121243D01*
X662444Y-121339D01*
X662492Y-121455D01*
X662550Y-121589D01*
X662598Y-121724D01*
X662646Y-121878D01*
X662684Y-122041D01*
X662713Y-122223D01*
X662732Y-122406D01*
X662742Y-122608D01*
Y-122617D01*
Y-122646D01*
Y-122694D01*
Y-122752D01*
X662732Y-122829D01*
Y-122915D01*
X662723Y-123012D01*
X662713Y-123117D01*
X662675Y-123338D01*
X662627Y-123569D01*
X662559Y-123800D01*
X662473Y-124001D01*
Y-124011D01*
X662463Y-124021D01*
X662425Y-124088D01*
X662357Y-124174D01*
X662271Y-124290D01*
X662165Y-124415D01*
X662031Y-124539D01*
X661877Y-124664D01*
X661694Y-124780D01*
X661685D01*
X661675Y-124789D01*
X661646Y-124809D01*
X661608Y-124818D01*
X661502Y-124866D01*
X661368Y-124914D01*
X661204Y-124972D01*
X661022Y-125010D01*
X660820Y-125049D01*
X660599Y-125058D01*
X660503D01*
X660435Y-125049D01*
X660358Y-125039D01*
X660262Y-125030D01*
X660157Y-125010D01*
X660041Y-124982D01*
X659801Y-124905D01*
X659667Y-124857D01*
X659542Y-124799D01*
X659407Y-124732D01*
X659282Y-124645D01*
X659157Y-124549D01*
X659042Y-124443D01*
X659032Y-124434D01*
X659013Y-124415D01*
X658984Y-124376D01*
X658955Y-124328D01*
X658907Y-124261D01*
X658859Y-124184D01*
X658802Y-124098D01*
X658754Y-123992D01*
X658696Y-123867D01*
X658638Y-123742D01*
X658590Y-123588D01*
X658552Y-123434D01*
X658513Y-123261D01*
X658485Y-123079D01*
X658465Y-122877D01*
X658456Y-122666D01*
Y-122646D01*
Y-122608D01*
X658465Y-122541D01*
Y-122454D01*
X658475Y-122348D01*
X658494Y-122233D01*
X658513Y-122099D01*
X658542Y-121954D01*
X658581Y-121801D01*
X658629Y-121647D01*
X658686Y-121493D01*
X658754Y-121339D01*
X658830Y-121186D01*
X658927Y-121042D01*
X659032Y-120907D01*
X659157Y-120782D01*
X659167Y-120772D01*
X659186Y-120763D01*
X659215Y-120734D01*
X659263Y-120705D01*
X659321Y-120667D01*
X659388Y-120619D01*
X659465Y-120571D01*
X659561Y-120523D01*
X659657Y-120484D01*
X659763Y-120436D01*
X660012Y-120350D01*
X660291Y-120292D01*
X660445Y-120282D01*
X660599Y-120273D01*
X660685D01*
X660752Y-120282D01*
D02*
G37*
G36*
X644598D02*
X644675Y-120292D01*
X644771Y-120301D01*
X644867Y-120321D01*
X644982Y-120350D01*
X645213Y-120426D01*
X645338Y-120475D01*
X645463Y-120542D01*
X645588Y-120609D01*
X645713Y-120695D01*
X645828Y-120792D01*
X645943Y-120907D01*
X645953Y-120917D01*
X645972Y-120936D01*
X646001Y-120974D01*
X646040Y-121022D01*
X646078Y-121090D01*
X646126Y-121166D01*
X646184Y-121253D01*
X646241Y-121359D01*
X646289Y-121484D01*
X646347Y-121608D01*
X646395Y-121753D01*
X646443Y-121916D01*
X646472Y-122079D01*
X646501Y-122262D01*
X646520Y-122454D01*
X646530Y-122666D01*
Y-122675D01*
Y-122714D01*
Y-122781D01*
X646520Y-122867D01*
X643118D01*
Y-122877D01*
Y-122896D01*
X643128Y-122944D01*
Y-122992D01*
X643137Y-123060D01*
X643147Y-123127D01*
X643185Y-123300D01*
X643243Y-123482D01*
X643310Y-123675D01*
X643416Y-123867D01*
X643541Y-124030D01*
X643560Y-124049D01*
X643608Y-124088D01*
X643695Y-124155D01*
X643800Y-124222D01*
X643945Y-124299D01*
X644108Y-124367D01*
X644291Y-124405D01*
X644492Y-124424D01*
X644569D01*
X644646Y-124415D01*
X644742Y-124395D01*
X644858Y-124367D01*
X644982Y-124328D01*
X645107Y-124280D01*
X645223Y-124203D01*
X645232Y-124194D01*
X645271Y-124155D01*
X645329Y-124107D01*
X645396Y-124021D01*
X645473Y-123925D01*
X645549Y-123800D01*
X645626Y-123646D01*
X645703Y-123473D01*
X646501Y-123579D01*
Y-123588D01*
X646491Y-123607D01*
X646482Y-123646D01*
X646462Y-123694D01*
X646443Y-123751D01*
X646414Y-123819D01*
X646338Y-123982D01*
X646241Y-124155D01*
X646126Y-124338D01*
X645972Y-124520D01*
X645799Y-124674D01*
X645790D01*
X645780Y-124693D01*
X645751Y-124713D01*
X645703Y-124732D01*
X645655Y-124761D01*
X645598Y-124799D01*
X645530Y-124828D01*
X645444Y-124866D01*
X645261Y-124934D01*
X645031Y-125001D01*
X644781Y-125039D01*
X644492Y-125058D01*
X644396D01*
X644329Y-125049D01*
X644242Y-125039D01*
X644146Y-125030D01*
X644041Y-125010D01*
X643916Y-124982D01*
X643666Y-124905D01*
X643531Y-124857D01*
X643406Y-124799D01*
X643272Y-124732D01*
X643147Y-124645D01*
X643022Y-124549D01*
X642907Y-124443D01*
X642897Y-124434D01*
X642878Y-124415D01*
X642849Y-124376D01*
X642820Y-124328D01*
X642772Y-124270D01*
X642724Y-124194D01*
X642666Y-124098D01*
X642618Y-123992D01*
X642561Y-123876D01*
X642503Y-123751D01*
X642455Y-123607D01*
X642417Y-123454D01*
X642378Y-123290D01*
X642349Y-123108D01*
X642330Y-122915D01*
X642320Y-122714D01*
Y-122704D01*
Y-122666D01*
Y-122598D01*
X642330Y-122521D01*
X642340Y-122425D01*
X642349Y-122310D01*
X642369Y-122185D01*
X642397Y-122050D01*
X642465Y-121762D01*
X642513Y-121618D01*
X642570Y-121464D01*
X642638Y-121320D01*
X642715Y-121176D01*
X642801Y-121042D01*
X642907Y-120917D01*
X642916Y-120907D01*
X642936Y-120888D01*
X642964Y-120859D01*
X643012Y-120811D01*
X643070Y-120763D01*
X643147Y-120715D01*
X643224Y-120657D01*
X643320Y-120590D01*
X643426Y-120532D01*
X643541Y-120475D01*
X643666Y-120426D01*
X643810Y-120369D01*
X643954Y-120330D01*
X644108Y-120301D01*
X644271Y-120282D01*
X644444Y-120273D01*
X644531D01*
X644598Y-120282D01*
D02*
G37*
G36*
X721238Y-119820D02*
X717510Y-119820D01*
Y-121761D01*
X720998Y-121761D01*
Y-122501D01*
X717510Y-122501D01*
Y-124654D01*
X721382Y-124654D01*
Y-125394D01*
X716674Y-125394D01*
Y-119080D01*
X721238Y-119080D01*
Y-119820D01*
D02*
G37*
G36*
X703498Y-120723D02*
X703633Y-120733D01*
X703787Y-120752D01*
X703950Y-120771D01*
X704104Y-120810D01*
X704248Y-120858D01*
X704267Y-120867D01*
X704305Y-120877D01*
X704373Y-120915D01*
X704450Y-120954D01*
X704536Y-121002D01*
X704632Y-121060D01*
X704709Y-121127D01*
X704786Y-121204D01*
X704796Y-121213D01*
X704815Y-121242D01*
X704844Y-121281D01*
X704882Y-121348D01*
X704920Y-121425D01*
X704959Y-121511D01*
X704997Y-121617D01*
X705026Y-121732D01*
Y-121742D01*
X705036Y-121771D01*
X705045Y-121819D01*
X705055Y-121896D01*
Y-121992D01*
X705065Y-122117D01*
X705074Y-122261D01*
Y-122443D01*
Y-123481D01*
Y-123491D01*
Y-123529D01*
Y-123587D01*
Y-123654D01*
Y-123741D01*
Y-123837D01*
X705084Y-124058D01*
Y-124298D01*
X705093Y-124519D01*
X705103Y-124625D01*
Y-124711D01*
X705113Y-124788D01*
X705122Y-124855D01*
Y-124865D01*
X705132Y-124904D01*
X705141Y-124961D01*
X705161Y-125029D01*
X705190Y-125105D01*
X705228Y-125201D01*
X705314Y-125394D01*
X704507D01*
X704498Y-125384D01*
X704488Y-125355D01*
X704469Y-125298D01*
X704440Y-125230D01*
X704411Y-125144D01*
X704392Y-125048D01*
X704373Y-124942D01*
X704354Y-124817D01*
X704334Y-124836D01*
X704277Y-124875D01*
X704200Y-124942D01*
X704084Y-125019D01*
X703960Y-125115D01*
X703815Y-125201D01*
X703671Y-125278D01*
X703517Y-125346D01*
X703498Y-125355D01*
X703450Y-125365D01*
X703373Y-125394D01*
X703267Y-125423D01*
X703133Y-125451D01*
X702989Y-125471D01*
X702835Y-125490D01*
X702662Y-125499D01*
X702595D01*
X702537Y-125490D01*
X702480D01*
X702403Y-125480D01*
X702239Y-125451D01*
X702047Y-125413D01*
X701864Y-125346D01*
X701672Y-125259D01*
X701509Y-125134D01*
X701490Y-125115D01*
X701442Y-125067D01*
X701384Y-124990D01*
X701307Y-124875D01*
X701230Y-124740D01*
X701173Y-124586D01*
X701124Y-124394D01*
X701105Y-124193D01*
Y-124173D01*
Y-124135D01*
X701115Y-124067D01*
X701124Y-123991D01*
X701144Y-123895D01*
X701163Y-123789D01*
X701201Y-123683D01*
X701249Y-123577D01*
X701259Y-123568D01*
X701278Y-123529D01*
X701307Y-123481D01*
X701355Y-123414D01*
X701413Y-123347D01*
X701490Y-123270D01*
X701567Y-123203D01*
X701653Y-123135D01*
X701663Y-123126D01*
X701701Y-123107D01*
X701749Y-123078D01*
X701816Y-123039D01*
X701903Y-122991D01*
X701989Y-122953D01*
X702095Y-122914D01*
X702210Y-122876D01*
X702220D01*
X702258Y-122866D01*
X702307Y-122857D01*
X702383Y-122837D01*
X702480Y-122818D01*
X702604Y-122799D01*
X702739Y-122780D01*
X702902Y-122761D01*
X702912D01*
X702941Y-122751D01*
X702989D01*
X703056Y-122741D01*
X703133Y-122732D01*
X703220Y-122722D01*
X703431Y-122684D01*
X703652Y-122645D01*
X703883Y-122607D01*
X704104Y-122549D01*
X704200Y-122520D01*
X704286Y-122492D01*
Y-122482D01*
Y-122463D01*
X704296Y-122405D01*
Y-122338D01*
Y-122309D01*
Y-122290D01*
Y-122280D01*
Y-122271D01*
Y-122213D01*
X704286Y-122126D01*
X704267Y-122030D01*
X704238Y-121924D01*
X704200Y-121809D01*
X704152Y-121713D01*
X704075Y-121627D01*
X704065Y-121617D01*
X704017Y-121588D01*
X703950Y-121540D01*
X703854Y-121492D01*
X703729Y-121444D01*
X703575Y-121396D01*
X703393Y-121367D01*
X703191Y-121358D01*
X703104D01*
X703008Y-121367D01*
X702883Y-121377D01*
X702749Y-121405D01*
X702624Y-121434D01*
X702489Y-121482D01*
X702383Y-121550D01*
X702374Y-121559D01*
X702345Y-121588D01*
X702297Y-121636D01*
X702239Y-121704D01*
X702172Y-121800D01*
X702114Y-121915D01*
X702047Y-122059D01*
X701999Y-122222D01*
X701240Y-122117D01*
Y-122107D01*
X701249Y-122098D01*
X701259Y-122040D01*
X701288Y-121953D01*
X701317Y-121838D01*
X701365Y-121713D01*
X701422Y-121588D01*
X701490Y-121454D01*
X701576Y-121338D01*
X701586Y-121329D01*
X701624Y-121290D01*
X701672Y-121233D01*
X701749Y-121165D01*
X701845Y-121098D01*
X701970Y-121021D01*
X702105Y-120944D01*
X702258Y-120877D01*
X702268D01*
X702278Y-120867D01*
X702307Y-120858D01*
X702335Y-120848D01*
X702431Y-120829D01*
X702556Y-120791D01*
X702710Y-120762D01*
X702883Y-120742D01*
X703085Y-120723D01*
X703296Y-120714D01*
X703393D01*
X703498Y-120723D01*
D02*
G37*
G36*
X693196Y-119089D02*
X693263D01*
X693427Y-119099D01*
X693610Y-119128D01*
X693802Y-119157D01*
X693994Y-119205D01*
X694167Y-119272D01*
X694176D01*
X694186Y-119282D01*
X694244Y-119311D01*
X694321Y-119359D01*
X694417Y-119416D01*
X694532Y-119503D01*
X694647Y-119608D01*
X694753Y-119724D01*
X694859Y-119868D01*
X694868Y-119887D01*
X694897Y-119935D01*
X694936Y-120022D01*
X694984Y-120127D01*
X695032Y-120252D01*
X695070Y-120387D01*
X695099Y-120541D01*
X695109Y-120704D01*
Y-120723D01*
Y-120771D01*
X695099Y-120848D01*
X695080Y-120954D01*
X695051Y-121069D01*
X695013Y-121194D01*
X694965Y-121338D01*
X694888Y-121473D01*
X694878Y-121492D01*
X694849Y-121530D01*
X694792Y-121598D01*
X694724Y-121675D01*
X694628Y-121771D01*
X694513Y-121857D01*
X694378Y-121953D01*
X694215Y-122040D01*
X694225D01*
X694244Y-122049D01*
X694273Y-122059D01*
X694311Y-122069D01*
X694417Y-122117D01*
X694542Y-122174D01*
X694686Y-122261D01*
X694830Y-122357D01*
X694974Y-122472D01*
X695099Y-122616D01*
X695109Y-122636D01*
X695147Y-122684D01*
X695195Y-122770D01*
X695262Y-122886D01*
X695320Y-123030D01*
X695368Y-123183D01*
X695407Y-123366D01*
X695416Y-123568D01*
Y-123587D01*
Y-123645D01*
X695407Y-123731D01*
X695397Y-123837D01*
X695368Y-123962D01*
X695339Y-124106D01*
X695291Y-124250D01*
X695224Y-124394D01*
X695214Y-124414D01*
X695195Y-124461D01*
X695147Y-124529D01*
X695099Y-124615D01*
X695032Y-124711D01*
X694955Y-124808D01*
X694859Y-124904D01*
X694763Y-124990D01*
X694753Y-125000D01*
X694715Y-125019D01*
X694657Y-125057D01*
X694570Y-125105D01*
X694474Y-125153D01*
X694349Y-125201D01*
X694215Y-125250D01*
X694071Y-125298D01*
X694052D01*
X693994Y-125317D01*
X693907Y-125326D01*
X693792Y-125346D01*
X693638Y-125365D01*
X693465Y-125374D01*
X693273Y-125394D01*
X690650D01*
Y-119080D01*
X693129D01*
X693196Y-119089D01*
D02*
G37*
G36*
X734260Y-120723D02*
X734337Y-120733D01*
X734433Y-120742D01*
X734529Y-120762D01*
X734644Y-120791D01*
X734875Y-120867D01*
X735000Y-120915D01*
X735125Y-120983D01*
X735250Y-121050D01*
X735374Y-121136D01*
X735490Y-121233D01*
X735605Y-121348D01*
X735615Y-121358D01*
X735634Y-121377D01*
X735663Y-121415D01*
X735701Y-121463D01*
X735740Y-121530D01*
X735788Y-121607D01*
X735845Y-121694D01*
X735903Y-121800D01*
X735951Y-121924D01*
X736009Y-122049D01*
X736057Y-122194D01*
X736105Y-122357D01*
X736134Y-122520D01*
X736163Y-122703D01*
X736182Y-122895D01*
X736191Y-123107D01*
Y-123116D01*
Y-123155D01*
Y-123222D01*
X736182Y-123308D01*
X732780D01*
Y-123318D01*
Y-123337D01*
X732790Y-123385D01*
Y-123433D01*
X732799Y-123501D01*
X732809Y-123568D01*
X732847Y-123741D01*
X732905Y-123923D01*
X732972Y-124116D01*
X733078Y-124308D01*
X733203Y-124471D01*
X733222Y-124490D01*
X733270Y-124529D01*
X733357Y-124596D01*
X733462Y-124663D01*
X733606Y-124740D01*
X733770Y-124808D01*
X733952Y-124846D01*
X734154Y-124865D01*
X734231D01*
X734308Y-124855D01*
X734404Y-124836D01*
X734519Y-124808D01*
X734644Y-124769D01*
X734769Y-124721D01*
X734884Y-124644D01*
X734894Y-124635D01*
X734933Y-124596D01*
X734990Y-124548D01*
X735057Y-124461D01*
X735134Y-124365D01*
X735211Y-124241D01*
X735288Y-124087D01*
X735365Y-123914D01*
X736163Y-124020D01*
Y-124029D01*
X736153Y-124048D01*
X736143Y-124087D01*
X736124Y-124135D01*
X736105Y-124192D01*
X736076Y-124260D01*
X735999Y-124423D01*
X735903Y-124596D01*
X735788Y-124779D01*
X735634Y-124961D01*
X735461Y-125115D01*
X735451D01*
X735442Y-125134D01*
X735413Y-125153D01*
X735365Y-125173D01*
X735317Y-125201D01*
X735259Y-125240D01*
X735192Y-125269D01*
X735106Y-125307D01*
X734923Y-125374D01*
X734692Y-125442D01*
X734442Y-125480D01*
X734154Y-125499D01*
X734058D01*
X733991Y-125490D01*
X733904Y-125480D01*
X733808Y-125471D01*
X733702Y-125451D01*
X733577Y-125423D01*
X733328Y-125346D01*
X733193Y-125298D01*
X733068Y-125240D01*
X732934Y-125173D01*
X732809Y-125086D01*
X732684Y-124990D01*
X732568Y-124884D01*
X732559Y-124875D01*
X732540Y-124855D01*
X732511Y-124817D01*
X732482Y-124769D01*
X732434Y-124711D01*
X732386Y-124635D01*
X732328Y-124538D01*
X732280Y-124433D01*
X732223Y-124317D01*
X732165Y-124192D01*
X732117Y-124048D01*
X732078Y-123895D01*
X732040Y-123731D01*
X732011Y-123549D01*
X731992Y-123356D01*
X731982Y-123155D01*
Y-123145D01*
Y-123107D01*
Y-123039D01*
X731992Y-122962D01*
X732001Y-122866D01*
X732011Y-122751D01*
X732030Y-122626D01*
X732059Y-122492D01*
X732126Y-122203D01*
X732174Y-122059D01*
X732232Y-121905D01*
X732299Y-121761D01*
X732376Y-121617D01*
X732463Y-121482D01*
X732568Y-121358D01*
X732578Y-121348D01*
X732597Y-121329D01*
X732626Y-121300D01*
X732674Y-121252D01*
X732732Y-121204D01*
X732809Y-121156D01*
X732886Y-121098D01*
X732982Y-121031D01*
X733087Y-120973D01*
X733203Y-120915D01*
X733328Y-120867D01*
X733472Y-120810D01*
X733616Y-120771D01*
X733770Y-120742D01*
X733933Y-120723D01*
X734106Y-120714D01*
X734193D01*
X734260Y-120723D01*
D02*
G37*
G36*
X698472Y-120723D02*
X698559Y-120733D01*
X698645Y-120742D01*
X698751Y-120762D01*
X698866Y-120791D01*
X699106Y-120867D01*
X699231Y-120915D01*
X699366Y-120973D01*
X699491Y-121050D01*
X699616Y-121136D01*
X699741Y-121233D01*
X699856Y-121338D01*
X699866Y-121348D01*
X699885Y-121367D01*
X699914Y-121405D01*
X699952Y-121454D01*
X700000Y-121511D01*
X700048Y-121588D01*
X700106Y-121684D01*
X700164Y-121780D01*
X700212Y-121896D01*
X700269Y-122030D01*
X700317Y-122165D01*
X700365Y-122318D01*
X700404Y-122482D01*
X700433Y-122664D01*
X700452Y-122847D01*
X700461Y-123049D01*
Y-123058D01*
Y-123087D01*
Y-123135D01*
Y-123193D01*
X700452Y-123270D01*
Y-123356D01*
X700442Y-123452D01*
X700433Y-123558D01*
X700394Y-123779D01*
X700346Y-124010D01*
X700279Y-124241D01*
X700192Y-124442D01*
Y-124452D01*
X700183Y-124461D01*
X700144Y-124529D01*
X700077Y-124615D01*
X699991Y-124731D01*
X699885Y-124855D01*
X699750Y-124980D01*
X699597Y-125105D01*
X699414Y-125221D01*
X699404D01*
X699395Y-125230D01*
X699366Y-125250D01*
X699327Y-125259D01*
X699222Y-125307D01*
X699087Y-125355D01*
X698924Y-125413D01*
X698741Y-125451D01*
X698539Y-125490D01*
X698318Y-125499D01*
X698222D01*
X698155Y-125490D01*
X698078Y-125480D01*
X697982Y-125471D01*
X697876Y-125451D01*
X697761Y-125423D01*
X697521Y-125346D01*
X697386Y-125298D01*
X697261Y-125240D01*
X697127Y-125173D01*
X697002Y-125086D01*
X696877Y-124990D01*
X696762Y-124884D01*
X696752Y-124875D01*
X696733Y-124855D01*
X696704Y-124817D01*
X696675Y-124769D01*
X696627Y-124702D01*
X696579Y-124625D01*
X696521Y-124538D01*
X696473Y-124433D01*
X696416Y-124308D01*
X696358Y-124183D01*
X696310Y-124029D01*
X696272Y-123875D01*
X696233Y-123702D01*
X696204Y-123520D01*
X696185Y-123318D01*
X696175Y-123107D01*
Y-123087D01*
Y-123049D01*
X696185Y-122982D01*
Y-122895D01*
X696195Y-122789D01*
X696214Y-122674D01*
X696233Y-122539D01*
X696262Y-122395D01*
X696300Y-122242D01*
X696348Y-122088D01*
X696406Y-121934D01*
X696473Y-121780D01*
X696550Y-121627D01*
X696646Y-121482D01*
X696752Y-121348D01*
X696877Y-121223D01*
X696886Y-121213D01*
X696906Y-121204D01*
X696935Y-121175D01*
X696983Y-121146D01*
X697040Y-121108D01*
X697108Y-121060D01*
X697184Y-121011D01*
X697281Y-120964D01*
X697377Y-120925D01*
X697482Y-120877D01*
X697732Y-120791D01*
X698011Y-120733D01*
X698165Y-120723D01*
X698318Y-120714D01*
X698405D01*
X698472Y-120723D01*
D02*
G37*
G36*
X729147Y-120723D02*
X729214Y-120733D01*
X729301Y-120752D01*
X729484Y-120800D01*
X729589Y-120829D01*
X729695Y-120877D01*
X729810Y-120925D01*
X729926Y-120992D01*
X730031Y-121069D01*
X730147Y-121156D01*
X730252Y-121261D01*
X730348Y-121377D01*
Y-120819D01*
X731060D01*
Y-124779D01*
Y-124788D01*
Y-124827D01*
Y-124875D01*
Y-124952D01*
X731050Y-125038D01*
Y-125134D01*
X731040Y-125250D01*
X731031Y-125365D01*
X731002Y-125605D01*
X730964Y-125855D01*
X730915Y-126086D01*
X730877Y-126191D01*
X730839Y-126278D01*
Y-126287D01*
X730829Y-126297D01*
X730800Y-126355D01*
X730743Y-126432D01*
X730675Y-126537D01*
X730579Y-126653D01*
X730464Y-126768D01*
X730320Y-126883D01*
X730156Y-126989D01*
X730147D01*
X730137Y-126999D01*
X730108Y-127008D01*
X730070Y-127027D01*
X729974Y-127075D01*
X729839Y-127114D01*
X729666Y-127162D01*
X729464Y-127210D01*
X729243Y-127239D01*
X728994Y-127248D01*
X728917D01*
X728859Y-127239D01*
X728792D01*
X728705Y-127229D01*
X728523Y-127200D01*
X728311Y-127152D01*
X728090Y-127095D01*
X727869Y-126999D01*
X727667Y-126874D01*
X727658D01*
X727648Y-126854D01*
X727590Y-126806D01*
X727514Y-126720D01*
X727418Y-126595D01*
X727331Y-126441D01*
X727254Y-126249D01*
X727206Y-126028D01*
X727187Y-125903D01*
Y-125768D01*
X727936Y-125874D01*
Y-125893D01*
X727946Y-125932D01*
X727965Y-125989D01*
X727985Y-126066D01*
X728023Y-126153D01*
X728071Y-126239D01*
X728129Y-126316D01*
X728205Y-126383D01*
X728215Y-126393D01*
X728263Y-126422D01*
X728321Y-126451D01*
X728417Y-126489D01*
X728523Y-126537D01*
X728657Y-126566D01*
X728821Y-126595D01*
X728994Y-126604D01*
X729080D01*
X729176Y-126595D01*
X729301Y-126576D01*
X729436Y-126547D01*
X729570Y-126508D01*
X729705Y-126460D01*
X729820Y-126383D01*
X729830Y-126374D01*
X729868Y-126345D01*
X729916Y-126297D01*
X729983Y-126230D01*
X730051Y-126143D01*
X730108Y-126047D01*
X730166Y-125922D01*
X730214Y-125788D01*
Y-125778D01*
X730224Y-125740D01*
X730233Y-125672D01*
X730243Y-125576D01*
X730262Y-125442D01*
Y-125355D01*
X730272Y-125269D01*
Y-125163D01*
Y-125057D01*
Y-124932D01*
Y-124798D01*
X730262Y-124808D01*
X730252Y-124827D01*
X730224Y-124855D01*
X730185Y-124894D01*
X730127Y-124932D01*
X730070Y-124990D01*
X729926Y-125096D01*
X729743Y-125201D01*
X729522Y-125298D01*
X729407Y-125336D01*
X729282Y-125365D01*
X729147Y-125384D01*
X729013Y-125394D01*
X728926D01*
X728859Y-125384D01*
X728782Y-125374D01*
X728686Y-125355D01*
X728590Y-125336D01*
X728475Y-125307D01*
X728359Y-125278D01*
X728244Y-125230D01*
X728119Y-125173D01*
X728004Y-125105D01*
X727879Y-125029D01*
X727763Y-124942D01*
X727658Y-124836D01*
X727552Y-124721D01*
X727542Y-124711D01*
X727533Y-124692D01*
X727504Y-124654D01*
X727475Y-124596D01*
X727437Y-124529D01*
X727389Y-124452D01*
X727341Y-124365D01*
X727292Y-124260D01*
X727245Y-124144D01*
X727196Y-124020D01*
X727158Y-123885D01*
X727110Y-123741D01*
X727052Y-123433D01*
X727043Y-123260D01*
X727033Y-123087D01*
Y-123078D01*
Y-123058D01*
Y-123020D01*
Y-122972D01*
X727043Y-122914D01*
Y-122847D01*
X727062Y-122693D01*
X727091Y-122501D01*
X727129Y-122299D01*
X727187Y-122088D01*
X727264Y-121876D01*
Y-121867D01*
X727273Y-121848D01*
X727292Y-121819D01*
X727312Y-121780D01*
X727360Y-121684D01*
X727437Y-121559D01*
X727542Y-121425D01*
X727658Y-121281D01*
X727792Y-121146D01*
X727956Y-121021D01*
X727965D01*
X727975Y-121011D01*
X728004Y-120992D01*
X728032Y-120973D01*
X728129Y-120925D01*
X728254Y-120867D01*
X728417Y-120810D01*
X728590Y-120762D01*
X728792Y-120723D01*
X729013Y-120714D01*
X729090D01*
X729147Y-120723D01*
D02*
G37*
%LPC*%
G36*
X724246Y-121358D02*
X724102D01*
X724064Y-121367D01*
X723968Y-121377D01*
X723852Y-121405D01*
X723718Y-121463D01*
X723573Y-121540D01*
X723429Y-121636D01*
X723362Y-121703D01*
X723295Y-121780D01*
X723276Y-121800D01*
X723266Y-121828D01*
X723237Y-121857D01*
X723218Y-121905D01*
X723189Y-121963D01*
X723151Y-122030D01*
X723122Y-122107D01*
X723093Y-122194D01*
X723055Y-122290D01*
X723026Y-122405D01*
X723006Y-122520D01*
X722978Y-122655D01*
X722968Y-122799D01*
X722949Y-122953D01*
Y-123116D01*
Y-123126D01*
Y-123155D01*
Y-123203D01*
X722958Y-123260D01*
Y-123337D01*
X722968Y-123414D01*
X722997Y-123616D01*
X723035Y-123827D01*
X723103Y-124048D01*
X723189Y-124250D01*
X723247Y-124346D01*
X723314Y-124433D01*
X723333Y-124452D01*
X723381Y-124500D01*
X723458Y-124567D01*
X723564Y-124644D01*
X723689Y-124731D01*
X723833Y-124798D01*
X724006Y-124846D01*
X724092Y-124855D01*
X724189Y-124865D01*
X724237D01*
X724275Y-124855D01*
X724371Y-124846D01*
X724486Y-124817D01*
X724621Y-124759D01*
X724765Y-124692D01*
X724919Y-124586D01*
X724986Y-124529D01*
X725053Y-124452D01*
Y-124442D01*
X725073Y-124433D01*
X725082Y-124404D01*
X725111Y-124375D01*
X725140Y-124327D01*
X725169Y-124279D01*
X725198Y-124212D01*
X725236Y-124135D01*
X725265Y-124058D01*
X725294Y-123962D01*
X725322Y-123856D01*
X725351Y-123741D01*
X725380Y-123616D01*
X725390Y-123481D01*
X725409Y-123337D01*
Y-123183D01*
Y-123174D01*
Y-123145D01*
Y-123097D01*
X725399Y-123030D01*
Y-122953D01*
X725390Y-122866D01*
X725361Y-122655D01*
X725322Y-122434D01*
X725255Y-122203D01*
X725169Y-121982D01*
X725111Y-121886D01*
X725044Y-121800D01*
Y-121790D01*
X725025Y-121780D01*
X724976Y-121732D01*
X724900Y-121655D01*
X724794Y-121579D01*
X724669Y-121502D01*
X724515Y-121425D01*
X724342Y-121377D01*
X724246Y-121358D01*
D02*
G37*
G36*
X711013Y-121358D02*
X710869D01*
X710831Y-121367D01*
X710735Y-121377D01*
X710619Y-121405D01*
X710485Y-121463D01*
X710340Y-121540D01*
X710196Y-121636D01*
X710129Y-121704D01*
X710062Y-121780D01*
X710043Y-121800D01*
X710033Y-121828D01*
X710004Y-121857D01*
X709985Y-121905D01*
X709956Y-121963D01*
X709918Y-122030D01*
X709889Y-122107D01*
X709860Y-122194D01*
X709822Y-122290D01*
X709793Y-122405D01*
X709773Y-122520D01*
X709745Y-122655D01*
X709735Y-122799D01*
X709716Y-122953D01*
Y-123116D01*
Y-123126D01*
Y-123155D01*
Y-123203D01*
X709726Y-123260D01*
Y-123337D01*
X709735Y-123414D01*
X709764Y-123616D01*
X709802Y-123827D01*
X709870Y-124048D01*
X709956Y-124250D01*
X710014Y-124346D01*
X710081Y-124433D01*
X710100Y-124452D01*
X710148Y-124500D01*
X710225Y-124567D01*
X710331Y-124644D01*
X710456Y-124731D01*
X710600Y-124798D01*
X710773Y-124846D01*
X710859Y-124855D01*
X710955Y-124865D01*
X711004D01*
X711042Y-124855D01*
X711138Y-124846D01*
X711253Y-124817D01*
X711388Y-124759D01*
X711532Y-124692D01*
X711686Y-124586D01*
X711753Y-124529D01*
X711820Y-124452D01*
Y-124442D01*
X711840Y-124433D01*
X711849Y-124404D01*
X711878Y-124375D01*
X711907Y-124327D01*
X711936Y-124279D01*
X711965Y-124212D01*
X712003Y-124135D01*
X712032Y-124058D01*
X712061Y-123962D01*
X712089Y-123856D01*
X712118Y-123741D01*
X712147Y-123616D01*
X712157Y-123481D01*
X712176Y-123337D01*
Y-123183D01*
Y-123174D01*
Y-123145D01*
Y-123097D01*
X712166Y-123030D01*
Y-122953D01*
X712157Y-122866D01*
X712128Y-122655D01*
X712089Y-122434D01*
X712022Y-122203D01*
X711936Y-121982D01*
X711878Y-121886D01*
X711811Y-121800D01*
Y-121790D01*
X711792Y-121780D01*
X711744Y-121732D01*
X711667Y-121655D01*
X711561Y-121579D01*
X711436Y-121502D01*
X711282Y-121425D01*
X711109Y-121377D01*
X711013Y-121358D01*
D02*
G37*
G36*
X629164Y-119379D02*
X627848D01*
Y-124213D01*
X629289D01*
X629395Y-124203D01*
X629539Y-124194D01*
X629693Y-124184D01*
X629856Y-124165D01*
X630010Y-124136D01*
X630154Y-124098D01*
X630173Y-124088D01*
X630212Y-124078D01*
X630279Y-124049D01*
X630356Y-124011D01*
X630452Y-123963D01*
X630548Y-123915D01*
X630635Y-123848D01*
X630721Y-123771D01*
X630731Y-123761D01*
X630769Y-123713D01*
X630827Y-123646D01*
X630894Y-123559D01*
X630962Y-123444D01*
X631038Y-123310D01*
X631115Y-123146D01*
X631182Y-122973D01*
Y-122964D01*
X631192Y-122954D01*
X631202Y-122925D01*
X631211Y-122887D01*
X631221Y-122839D01*
X631240Y-122781D01*
X631269Y-122637D01*
X631298Y-122454D01*
X631327Y-122243D01*
X631346Y-122012D01*
X631355Y-121753D01*
Y-121743D01*
Y-121705D01*
Y-121657D01*
Y-121589D01*
X631346Y-121503D01*
X631336Y-121407D01*
X631327Y-121301D01*
X631317Y-121195D01*
X631279Y-120945D01*
X631221Y-120695D01*
X631135Y-120455D01*
X631086Y-120340D01*
X631029Y-120234D01*
Y-120225D01*
X631010Y-120215D01*
X631000Y-120186D01*
X630971Y-120148D01*
X630904Y-120052D01*
X630808Y-119946D01*
X630692Y-119821D01*
X630558Y-119706D01*
X630404Y-119600D01*
X630241Y-119513D01*
X630222Y-119504D01*
X630173Y-119494D01*
X630097Y-119475D01*
X629981Y-119446D01*
X629827Y-119417D01*
X629645Y-119398D01*
X629424Y-119389D01*
X629164Y-119379D01*
D02*
G37*
G36*
X660705Y-120917D02*
X660541D01*
X660503Y-120926D01*
X660397Y-120936D01*
X660262Y-120974D01*
X660109Y-121022D01*
X659945Y-121099D01*
X659782Y-121214D01*
X659705Y-121282D01*
X659628Y-121359D01*
X659609Y-121378D01*
X659590Y-121407D01*
X659571Y-121435D01*
X659542Y-121484D01*
X659513Y-121541D01*
X659474Y-121608D01*
X659446Y-121685D01*
X659407Y-121772D01*
X659369Y-121868D01*
X659340Y-121974D01*
X659311Y-122099D01*
X659292Y-122223D01*
X659273Y-122368D01*
X659253Y-122512D01*
Y-122675D01*
Y-122685D01*
Y-122714D01*
Y-122762D01*
X659263Y-122819D01*
Y-122887D01*
X659273Y-122973D01*
X659301Y-123165D01*
X659349Y-123377D01*
X659407Y-123598D01*
X659503Y-123809D01*
X659561Y-123905D01*
X659628Y-123992D01*
X659647Y-124011D01*
X659695Y-124059D01*
X659782Y-124126D01*
X659897Y-124203D01*
X660032Y-124290D01*
X660205Y-124357D01*
X660387Y-124405D01*
X660493Y-124415D01*
X660599Y-124424D01*
X660656D01*
X660695Y-124415D01*
X660801Y-124405D01*
X660935Y-124367D01*
X661089Y-124319D01*
X661252Y-124242D01*
X661406Y-124136D01*
X661483Y-124069D01*
X661560Y-123992D01*
Y-123982D01*
X661579Y-123973D01*
X661598Y-123944D01*
X661617Y-123905D01*
X661646Y-123857D01*
X661685Y-123800D01*
X661714Y-123732D01*
X661752Y-123655D01*
X661790Y-123569D01*
X661819Y-123473D01*
X661858Y-123357D01*
X661887Y-123233D01*
X661906Y-123108D01*
X661925Y-122964D01*
X661944Y-122810D01*
Y-122646D01*
Y-122637D01*
Y-122608D01*
Y-122570D01*
X661935Y-122502D01*
Y-122435D01*
X661925Y-122358D01*
X661896Y-122166D01*
X661848Y-121964D01*
X661781Y-121743D01*
X661685Y-121541D01*
X661550Y-121359D01*
Y-121349D01*
X661531Y-121339D01*
X661483Y-121291D01*
X661396Y-121214D01*
X661291Y-121138D01*
X661146Y-121061D01*
X660983Y-120984D01*
X660801Y-120936D01*
X660705Y-120917D01*
D02*
G37*
G36*
X644454Y-120907D02*
X644406D01*
X644368Y-120917D01*
X644262Y-120926D01*
X644137Y-120955D01*
X643993Y-120993D01*
X643849Y-121061D01*
X643695Y-121147D01*
X643551Y-121272D01*
X643531Y-121291D01*
X643493Y-121339D01*
X643435Y-121416D01*
X643368Y-121532D01*
X643301Y-121666D01*
X643233Y-121829D01*
X643185Y-122022D01*
X643157Y-122233D01*
X645713D01*
Y-122223D01*
Y-122204D01*
X645703Y-122176D01*
Y-122137D01*
X645684Y-122031D01*
X645655Y-121906D01*
X645617Y-121772D01*
X645559Y-121628D01*
X645501Y-121484D01*
X645415Y-121368D01*
Y-121359D01*
X645396Y-121349D01*
X645348Y-121291D01*
X645261Y-121224D01*
X645155Y-121138D01*
X645011Y-121051D01*
X644848Y-120974D01*
X644665Y-120926D01*
X644560Y-120917D01*
X644454Y-120907D01*
D02*
G37*
G36*
X704286Y-123097D02*
X704267Y-123107D01*
X704238Y-123116D01*
X704209Y-123126D01*
X704161Y-123145D01*
X704104Y-123155D01*
X704046Y-123174D01*
X703969Y-123203D01*
X703883Y-123222D01*
X703787Y-123241D01*
X703690Y-123270D01*
X703575Y-123299D01*
X703450Y-123318D01*
X703316Y-123347D01*
X703171Y-123366D01*
X703018Y-123395D01*
X702998D01*
X702941Y-123404D01*
X702854Y-123424D01*
X702749Y-123443D01*
X702528Y-123491D01*
X702422Y-123520D01*
X702335Y-123549D01*
X702326D01*
X702307Y-123568D01*
X702268Y-123587D01*
X702230Y-123616D01*
X702134Y-123693D01*
X702037Y-123808D01*
Y-123818D01*
X702018Y-123837D01*
X702009Y-123866D01*
X701989Y-123914D01*
X701951Y-124029D01*
X701941Y-124096D01*
X701932Y-124173D01*
Y-124183D01*
Y-124221D01*
X701941Y-124279D01*
X701961Y-124356D01*
X701989Y-124433D01*
X702028Y-124519D01*
X702085Y-124606D01*
X702162Y-124692D01*
X702172Y-124702D01*
X702210Y-124721D01*
X702258Y-124759D01*
X702335Y-124788D01*
X702431Y-124827D01*
X702556Y-124865D01*
X702691Y-124884D01*
X702854Y-124894D01*
X702931D01*
X703008Y-124884D01*
X703123Y-124865D01*
X703239Y-124846D01*
X703373Y-124817D01*
X703508Y-124769D01*
X703642Y-124702D01*
X703661Y-124692D01*
X703700Y-124663D01*
X703767Y-124625D01*
X703844Y-124558D01*
X703921Y-124490D01*
X704007Y-124394D01*
X704094Y-124289D01*
X704161Y-124164D01*
X704171Y-124154D01*
X704180Y-124116D01*
X704200Y-124058D01*
X704228Y-123971D01*
X704248Y-123856D01*
X704267Y-123722D01*
X704277Y-123568D01*
X704286Y-123385D01*
Y-123097D01*
D02*
G37*
G36*
X692975Y-119820D02*
X691486D01*
Y-121742D01*
X693033D01*
X693148Y-121732D01*
X693283Y-121723D01*
X693417Y-121713D01*
X693533Y-121694D01*
X693638Y-121675D01*
X693648Y-121665D01*
X693686Y-121655D01*
X693744Y-121636D01*
X693821Y-121598D01*
X693898Y-121559D01*
X693975Y-121502D01*
X694052Y-121434D01*
X694119Y-121358D01*
X694128Y-121348D01*
X694148Y-121319D01*
X694167Y-121271D01*
X694205Y-121204D01*
X694234Y-121127D01*
X694253Y-121031D01*
X694273Y-120925D01*
X694282Y-120800D01*
Y-120791D01*
Y-120742D01*
X694273Y-120685D01*
X694263Y-120608D01*
X694244Y-120521D01*
X694215Y-120435D01*
X694176Y-120339D01*
X694128Y-120243D01*
X694119Y-120233D01*
X694100Y-120204D01*
X694061Y-120166D01*
X694013Y-120108D01*
X693956Y-120060D01*
X693879Y-120002D01*
X693792Y-119954D01*
X693696Y-119916D01*
X693686D01*
X693638Y-119897D01*
X693571Y-119887D01*
X693475Y-119868D01*
X693340Y-119849D01*
X693177Y-119839D01*
X692975Y-119820D01*
D02*
G37*
G36*
X693148Y-122482D02*
X691486D01*
Y-124654D01*
X693273D01*
X693465Y-124644D01*
X693552Y-124635D01*
X693619Y-124625D01*
X693629D01*
X693667Y-124615D01*
X693725Y-124606D01*
X693792Y-124586D01*
X693946Y-124538D01*
X694100Y-124461D01*
X694109Y-124452D01*
X694138Y-124442D01*
X694167Y-124414D01*
X694215Y-124365D01*
X694273Y-124317D01*
X694321Y-124260D01*
X694378Y-124183D01*
X694426Y-124106D01*
X694436Y-124096D01*
X694446Y-124067D01*
X694465Y-124020D01*
X694494Y-123952D01*
X694513Y-123875D01*
X694532Y-123779D01*
X694542Y-123683D01*
X694551Y-123568D01*
Y-123549D01*
Y-123510D01*
X694542Y-123443D01*
X694532Y-123366D01*
X694503Y-123270D01*
X694474Y-123164D01*
X694426Y-123058D01*
X694359Y-122962D01*
X694349Y-122953D01*
X694330Y-122914D01*
X694282Y-122876D01*
X694225Y-122818D01*
X694157Y-122751D01*
X694071Y-122693D01*
X693975Y-122636D01*
X693859Y-122588D01*
X693840Y-122578D01*
X693802Y-122568D01*
X693725Y-122549D01*
X693629Y-122530D01*
X693494Y-122511D01*
X693340Y-122501D01*
X693148Y-122482D01*
D02*
G37*
G36*
X734116Y-121348D02*
X734068D01*
X734029Y-121358D01*
X733923Y-121367D01*
X733799Y-121396D01*
X733654Y-121434D01*
X733510Y-121502D01*
X733357Y-121588D01*
X733212Y-121713D01*
X733193Y-121732D01*
X733155Y-121780D01*
X733097Y-121857D01*
X733030Y-121973D01*
X732962Y-122107D01*
X732895Y-122270D01*
X732847Y-122463D01*
X732818Y-122674D01*
X735374D01*
Y-122664D01*
Y-122645D01*
X735365Y-122616D01*
Y-122578D01*
X735346Y-122472D01*
X735317Y-122347D01*
X735278Y-122213D01*
X735221Y-122069D01*
X735163Y-121924D01*
X735077Y-121809D01*
Y-121800D01*
X735057Y-121790D01*
X735009Y-121732D01*
X734923Y-121665D01*
X734817Y-121579D01*
X734673Y-121492D01*
X734510Y-121415D01*
X734327Y-121367D01*
X734221Y-121358D01*
X734116Y-121348D01*
D02*
G37*
G36*
X698424Y-121358D02*
X698261D01*
X698222Y-121367D01*
X698117Y-121377D01*
X697982Y-121415D01*
X697828Y-121463D01*
X697665Y-121540D01*
X697502Y-121655D01*
X697425Y-121723D01*
X697348Y-121800D01*
X697329Y-121819D01*
X697309Y-121848D01*
X697290Y-121876D01*
X697261Y-121924D01*
X697232Y-121982D01*
X697194Y-122049D01*
X697165Y-122126D01*
X697127Y-122213D01*
X697088Y-122309D01*
X697059Y-122415D01*
X697031Y-122539D01*
X697011Y-122664D01*
X696992Y-122809D01*
X696973Y-122953D01*
Y-123116D01*
Y-123126D01*
Y-123155D01*
Y-123203D01*
X696983Y-123260D01*
Y-123328D01*
X696992Y-123414D01*
X697021Y-123606D01*
X697069Y-123818D01*
X697127Y-124039D01*
X697223Y-124250D01*
X697281Y-124346D01*
X697348Y-124433D01*
X697367Y-124452D01*
X697415Y-124500D01*
X697502Y-124567D01*
X697617Y-124644D01*
X697751Y-124731D01*
X697924Y-124798D01*
X698107Y-124846D01*
X698213Y-124855D01*
X698318Y-124865D01*
X698376D01*
X698415Y-124855D01*
X698520Y-124846D01*
X698655Y-124808D01*
X698808Y-124759D01*
X698972Y-124683D01*
X699126Y-124577D01*
X699202Y-124510D01*
X699279Y-124433D01*
Y-124423D01*
X699299Y-124414D01*
X699318Y-124385D01*
X699337Y-124346D01*
X699366Y-124298D01*
X699404Y-124241D01*
X699433Y-124173D01*
X699472Y-124096D01*
X699510Y-124010D01*
X699539Y-123914D01*
X699577Y-123798D01*
X699606Y-123673D01*
X699625Y-123549D01*
X699645Y-123404D01*
X699664Y-123251D01*
Y-123087D01*
Y-123078D01*
Y-123049D01*
Y-123010D01*
X699654Y-122943D01*
Y-122876D01*
X699645Y-122799D01*
X699616Y-122607D01*
X699568Y-122405D01*
X699500Y-122184D01*
X699404Y-121982D01*
X699270Y-121800D01*
Y-121790D01*
X699251Y-121780D01*
X699202Y-121732D01*
X699116Y-121655D01*
X699010Y-121579D01*
X698866Y-121502D01*
X698703Y-121425D01*
X698520Y-121377D01*
X698424Y-121358D01*
D02*
G37*
G36*
X729167Y-121358D02*
X729022D01*
X728984Y-121367D01*
X728888Y-121377D01*
X728763Y-121405D01*
X728628Y-121463D01*
X728475Y-121540D01*
X728330Y-121636D01*
X728254Y-121703D01*
X728186Y-121780D01*
X728167Y-121800D01*
X728157Y-121828D01*
X728129Y-121857D01*
X728100Y-121905D01*
X728071Y-121953D01*
X728042Y-122021D01*
X728013Y-122098D01*
X727975Y-122174D01*
X727946Y-122270D01*
X727917Y-122376D01*
X727888Y-122482D01*
X727850Y-122741D01*
X727831Y-123030D01*
Y-123039D01*
Y-123068D01*
Y-123116D01*
X727840Y-123174D01*
Y-123251D01*
X727850Y-123337D01*
X727879Y-123529D01*
X727917Y-123741D01*
X727985Y-123962D01*
X728071Y-124164D01*
X728129Y-124250D01*
X728186Y-124337D01*
X728205Y-124356D01*
X728254Y-124404D01*
X728330Y-124471D01*
X728436Y-124538D01*
X728561Y-124615D01*
X728715Y-124682D01*
X728888Y-124731D01*
X728984Y-124740D01*
X729080Y-124750D01*
X729128D01*
X729167Y-124740D01*
X729272Y-124731D01*
X729397Y-124702D01*
X729532Y-124654D01*
X729685Y-124577D01*
X729830Y-124481D01*
X729974Y-124346D01*
Y-124337D01*
X729993Y-124327D01*
X730012Y-124298D01*
X730031Y-124269D01*
X730060Y-124221D01*
X730089Y-124173D01*
X730118Y-124106D01*
X730156Y-124029D01*
X730195Y-123943D01*
X730224Y-123846D01*
X730252Y-123741D01*
X730281Y-123626D01*
X730310Y-123501D01*
X730320Y-123366D01*
X730339Y-123212D01*
Y-123058D01*
Y-123049D01*
Y-123020D01*
Y-122982D01*
X730329Y-122924D01*
Y-122847D01*
X730320Y-122770D01*
X730291Y-122578D01*
X730252Y-122376D01*
X730185Y-122165D01*
X730089Y-121963D01*
X730031Y-121876D01*
X729964Y-121790D01*
Y-121780D01*
X729945Y-121771D01*
X729897Y-121723D01*
X729820Y-121655D01*
X729714Y-121569D01*
X729589Y-121492D01*
X729436Y-121425D01*
X729263Y-121377D01*
X729167Y-121358D01*
D02*
G37*
%LPD*%
D11*
X348727Y15143D02*
G03*
X362231Y28721I28J13476D01*
G01*
X313897Y453D02*
G03*
X327865Y8398I-430J17007D01*
G01*
X340101Y15143D02*
G03*
X327800Y8303I31J-14537D01*
G01*
X327073Y341609D02*
G03*
X340443Y332359I13542J5287D01*
G01*
X326634Y342790D02*
G03*
X315457Y350371I-11018J-4215D01*
G01*
X429Y19709D02*
G03*
X13080Y7370I12282J-63D01*
G01*
X29169Y3404D02*
G03*
X20591Y7370I-8805J-7785D01*
G01*
X29072Y3478D02*
G03*
X35354Y453I6097J4625D01*
G01*
X362262Y319425D02*
G03*
X349823Y332359I-12687J247D01*
G01*
X15524Y350371D02*
G03*
X429Y333981I435J-15546D01*
G01*
X340101Y15143D02*
X348756D01*
X340443Y332359D02*
X349823D01*
X326634Y342790D02*
X327141Y341464D01*
X429Y333981D02*
X429Y19709D01*
X13080Y7370D02*
X20591D01*
X35354Y453D02*
X313467D01*
X362262Y28721D02*
X362262Y319425D01*
X15524Y350371D02*
X315457D01*
D15*
X379055Y20475D02*
X381024Y14569D01*
X382992Y20475D01*
X381024Y319416D02*
X382992Y313511D01*
X379055D02*
X381024Y319416D01*
Y14569D02*
Y144231D01*
Y186180D02*
Y319416D01*
X349465Y14569D02*
X381811D01*
X363396Y319416D02*
X381811D01*
X379153Y20562D02*
X381122Y14657D01*
X383090Y20562D01*
X381122Y-211D02*
X383090Y-6116D01*
X379153D02*
X381122Y-211D01*
Y14657D02*
Y24499D01*
Y-10053D02*
Y-211D01*
X292165D02*
X381909D01*
X349748Y14657D02*
X381909D01*
X312926Y-17854D02*
X318832Y-15886D01*
X312926Y-17854D02*
X318832Y-19823D01*
X356818D02*
X362723Y-17854D01*
X356818Y-15886D02*
X362723Y-17854D01*
X312926D02*
X315555D01*
X356519D02*
X362723D01*
X312926Y-18642D02*
Y-904D01*
X362723Y-18642D02*
Y29700D01*
X20Y370433D02*
X5925Y372402D01*
X20Y370433D02*
X5925Y368465D01*
X356818D02*
X362723Y370433D01*
X356818Y372402D02*
X362723Y370433D01*
X20D02*
X159102D01*
X200066D02*
X362723D01*
X20Y18563D02*
Y371220D01*
X362723Y21910D02*
Y371220D01*
X34370Y-17854D02*
X40276Y-15886D01*
X34370Y-17854D02*
X40276Y-19823D01*
X307021D02*
X312926Y-17854D01*
X307021Y-15886D02*
X312926Y-17854D01*
X34370D02*
X150887D01*
X192835D02*
X312926D01*
X34370Y-18642D02*
Y-335D01*
X312926Y-18642D02*
Y-904D01*
X20Y-17854D02*
X5925Y-15886D01*
X20Y-17854D02*
X5925Y-19823D01*
X28465D02*
X34370Y-17854D01*
X28465Y-15886D02*
X34370Y-17854D01*
X20D02*
X17195D01*
X34370D01*
X20Y-18642D02*
Y18563D01*
X34370Y-18642D02*
Y-335D01*
X379055Y356653D02*
X381024Y350748D01*
X382992Y356653D01*
X381024Y319416D02*
X382992Y313511D01*
X379055D02*
X381024Y319416D01*
Y350748D02*
Y360591D01*
Y309574D02*
Y319416D01*
X363396D02*
X381811D01*
X289291Y350748D02*
X381811D01*
X-22913Y5669D02*
X-20945Y-236D01*
X-18976Y5669D01*
X-20945Y350748D02*
X-18976Y344843D01*
X-22913D02*
X-20945Y350748D01*
Y-236D02*
Y152986D01*
Y193951D02*
Y350748D01*
X-21732Y-236D02*
X300217D01*
X-21732Y350748D02*
X289291D01*
X360755Y338604D02*
X362723Y332698D01*
X364692Y338604D01*
X362723Y350748D02*
X364692Y344843D01*
X360755D02*
X362723Y350748D01*
Y332698D02*
Y341723D01*
Y350748D01*
X350047Y332698D02*
X363511D01*
X361936Y350748D02*
X363209D01*
X378859Y146019D02*
Y149955D01*
X379843D01*
X383779Y146019D01*
X384763D01*
X378859Y151923D02*
Y155858D01*
X379843D01*
X383779Y151923D01*
X384763D01*
Y157826D02*
X383779D01*
Y158810D01*
X384763D01*
Y157826D01*
Y165698D02*
X378859D01*
X381811Y162746D01*
Y166682D01*
X379843Y168649D02*
X378859Y169633D01*
Y171601D01*
X379843Y172585D01*
X380827D01*
X381811Y171601D01*
Y170617D01*
Y171601D01*
X382795Y172585D01*
X383779D01*
X384763Y171601D01*
Y169633D01*
X383779Y168649D01*
X384763Y174553D02*
X380827D01*
Y175537D01*
X381811Y176521D01*
X384763D01*
X381811D01*
X380827Y177505D01*
X381811Y178489D01*
X384763D01*
Y180456D02*
X380827D01*
Y181440D01*
X381811Y182424D01*
X384763D01*
X381811D01*
X380827Y183408D01*
X381811Y184392D01*
X384763D01*
X391159Y-10799D02*
X390175Y-9815D01*
Y-7847D01*
X391159Y-6864D01*
X392143D01*
X393127Y-7847D01*
Y-8831D01*
Y-7847D01*
X394111Y-6864D01*
X395095D01*
X396079Y-7847D01*
Y-9815D01*
X395095Y-10799D01*
X396079Y-4896D02*
X395095D01*
Y-3912D01*
X396079D01*
Y-4896D01*
X390175Y24D02*
Y3960D01*
X391159D01*
X395095Y24D01*
X396079D01*
X391159Y5928D02*
X390175Y6911D01*
Y8879D01*
X391159Y9863D01*
X392143D01*
X393127Y8879D01*
X394111Y9863D01*
X395095D01*
X396079Y8879D01*
Y6911D01*
X395095Y5928D01*
X394111D01*
X393127Y6911D01*
X392143Y5928D01*
X391159D01*
X393127Y6911D02*
Y8879D01*
X396079Y11831D02*
X392143D01*
Y12815D01*
X393127Y13799D01*
X396079D01*
X393127D01*
X392143Y14783D01*
X393127Y15767D01*
X396079D01*
Y17735D02*
X392143D01*
Y18719D01*
X393127Y19703D01*
X396079D01*
X393127D01*
X392143Y20687D01*
X393127Y21671D01*
X396079D01*
X317342Y-21594D02*
X319310D01*
X318326D01*
Y-15690D01*
X317342Y-16674D01*
X326198Y-21594D02*
X322262D01*
X326198Y-17658D01*
Y-16674D01*
X325214Y-15690D01*
X323246D01*
X322262Y-16674D01*
X328166Y-21594D02*
Y-20610D01*
X329150D01*
Y-21594D01*
X328166D01*
X337021Y-15690D02*
X335053Y-16674D01*
X333085Y-18642D01*
Y-20610D01*
X334069Y-21594D01*
X336037D01*
X337021Y-20610D01*
Y-19626D01*
X336037Y-18642D01*
X333085D01*
X342925Y-15690D02*
X338989D01*
Y-18642D01*
X340957Y-17658D01*
X341941D01*
X342925Y-18642D01*
Y-20610D01*
X341941Y-21594D01*
X339973D01*
X338989Y-20610D01*
X344893Y-21594D02*
Y-17658D01*
X345877D01*
X346861Y-18642D01*
Y-21594D01*
Y-18642D01*
X347844Y-17658D01*
X348828Y-18642D01*
Y-21594D01*
X350796D02*
Y-17658D01*
X351780D01*
X352764Y-18642D01*
Y-21594D01*
Y-18642D01*
X353748Y-17658D01*
X354732Y-18642D01*
Y-21594D01*
X160889Y367678D02*
X161873Y366694D01*
X163841D01*
X164825Y367678D01*
Y371614D01*
X163841Y372598D01*
X161873D01*
X160889Y371614D01*
Y370630D01*
X161873Y369646D01*
X164825D01*
X170729Y366694D02*
X166793D01*
X170729Y370630D01*
Y371614D01*
X169745Y372598D01*
X167777D01*
X166793Y371614D01*
X172696Y366694D02*
Y367678D01*
X173680D01*
Y366694D01*
X172696D01*
X177616D02*
X179584D01*
X178600D01*
Y372598D01*
X177616Y371614D01*
X182536D02*
X183520Y372598D01*
X185488D01*
X186472Y371614D01*
Y370630D01*
X185488Y369646D01*
X184504D01*
X185488D01*
X186472Y368662D01*
Y367678D01*
X185488Y366694D01*
X183520D01*
X182536Y367678D01*
X188439Y366694D02*
Y370630D01*
X189423D01*
X190407Y369646D01*
Y366694D01*
Y369646D01*
X191391Y370630D01*
X192375Y369646D01*
Y366694D01*
X194343D02*
Y370630D01*
X195327D01*
X196311Y369646D01*
Y366694D01*
Y369646D01*
X197295Y370630D01*
X198279Y369646D01*
Y366694D01*
X152674Y-15690D02*
X156610D01*
Y-16674D01*
X152674Y-20610D01*
Y-21594D01*
X158578Y-16674D02*
X159562Y-15690D01*
X161529D01*
X162513Y-16674D01*
Y-20610D01*
X161529Y-21594D01*
X159562D01*
X158578Y-20610D01*
Y-16674D01*
X164481Y-21594D02*
Y-20610D01*
X165465D01*
Y-21594D01*
X164481D01*
X169401Y-15690D02*
X173337D01*
Y-16674D01*
X169401Y-20610D01*
Y-21594D01*
X179240Y-15690D02*
X175304D01*
Y-18642D01*
X177272Y-17658D01*
X178256D01*
X179240Y-18642D01*
Y-20610D01*
X178256Y-21594D01*
X176288D01*
X175304Y-20610D01*
X181208Y-21594D02*
Y-17658D01*
X182192D01*
X183176Y-18642D01*
Y-21594D01*
Y-18642D01*
X184160Y-17658D01*
X185144Y-18642D01*
Y-21594D01*
X187112D02*
Y-17658D01*
X188096D01*
X189079Y-18642D01*
Y-21594D01*
Y-18642D01*
X190063Y-17658D01*
X191047Y-18642D01*
Y-21594D01*
X5236Y-23761D02*
X6220Y-22777D01*
X8188D01*
X9172Y-23761D01*
Y-24745D01*
X8188Y-25729D01*
X9172Y-26713D01*
Y-27697D01*
X8188Y-28681D01*
X6220D01*
X5236Y-27697D01*
Y-26713D01*
X6220Y-25729D01*
X5236Y-24745D01*
Y-23761D01*
X6220Y-25729D02*
X8188D01*
X11140Y-28681D02*
Y-27697D01*
X12124D01*
Y-28681D01*
X11140D01*
X16059Y-22777D02*
X19995D01*
Y-23761D01*
X16059Y-27697D01*
Y-28681D01*
X21963Y-23761D02*
X22947Y-22777D01*
X24915D01*
X25899Y-23761D01*
Y-24745D01*
X24915Y-25729D01*
X23931D01*
X24915D01*
X25899Y-26713D01*
Y-27697D01*
X24915Y-28681D01*
X22947D01*
X21963Y-27697D01*
X27867Y-28681D02*
Y-24745D01*
X28851D01*
X29835Y-25729D01*
Y-28681D01*
Y-25729D01*
X30819Y-24745D01*
X31802Y-25729D01*
Y-28681D01*
X33770D02*
Y-24745D01*
X34754D01*
X35738Y-25729D01*
Y-28681D01*
Y-25729D01*
X36722Y-24745D01*
X37706Y-25729D01*
Y-28681D01*
X390077Y317060D02*
Y320996D01*
X391061D01*
X394997Y317060D01*
X395980D01*
Y322964D02*
X394997D01*
Y323948D01*
X395980D01*
Y322964D01*
X394997Y327883D02*
X395980Y328867D01*
Y330835D01*
X394997Y331819D01*
X391061D01*
X390077Y330835D01*
Y328867D01*
X391061Y327883D01*
X392045D01*
X393029Y328867D01*
Y331819D01*
X390077Y337723D02*
X391061Y335755D01*
X393029Y333787D01*
X394997D01*
X395980Y334771D01*
Y336739D01*
X394997Y337723D01*
X394013D01*
X393029Y336739D01*
Y333787D01*
X395980Y339690D02*
X392045D01*
Y340674D01*
X393029Y341658D01*
X395980D01*
X393029D01*
X392045Y342642D01*
X393029Y343626D01*
X395980D01*
Y345594D02*
X392045D01*
Y346578D01*
X393029Y347562D01*
X395980D01*
X393029D01*
X392045Y348546D01*
X393029Y349530D01*
X395980D01*
X-22125Y154774D02*
X-23109Y155758D01*
Y157726D01*
X-22125Y158710D01*
X-21141D01*
X-20157Y157726D01*
X-19174Y158710D01*
X-18190D01*
X-17206Y157726D01*
Y155758D01*
X-18190Y154774D01*
X-19174D01*
X-20157Y155758D01*
X-21141Y154774D01*
X-22125D01*
X-20157Y155758D02*
Y157726D01*
X-18190Y160677D02*
X-17206Y161661D01*
Y163629D01*
X-18190Y164613D01*
X-22125D01*
X-23109Y163629D01*
Y161661D01*
X-22125Y160677D01*
X-21141D01*
X-20157Y161661D01*
Y164613D01*
X-17206Y166581D02*
X-18190D01*
Y167565D01*
X-17206D01*
Y166581D01*
Y171501D02*
Y173468D01*
Y172485D01*
X-23109D01*
X-22125Y171501D01*
X-23109Y180356D02*
Y176420D01*
X-20157D01*
X-21141Y178388D01*
Y179372D01*
X-20157Y180356D01*
X-18190D01*
X-17206Y179372D01*
Y177404D01*
X-18190Y176420D01*
X-17206Y182324D02*
X-21141D01*
Y183308D01*
X-20157Y184292D01*
X-17206D01*
X-20157D01*
X-21141Y185276D01*
X-20157Y186260D01*
X-17206D01*
Y188227D02*
X-21141D01*
Y189211D01*
X-20157Y190195D01*
X-17206D01*
X-20157D01*
X-21141Y191179D01*
X-20157Y192163D01*
X-17206D01*
X324237Y338968D02*
Y344872D01*
X321285Y341920D01*
X325221D01*
X327188Y338968D02*
Y339952D01*
X328172D01*
Y338968D01*
X327188D01*
X336044Y344872D02*
X332108D01*
Y341920D01*
X334076Y342904D01*
X335060D01*
X336044Y341920D01*
Y339952D01*
X335060Y338968D01*
X333092D01*
X332108Y339952D01*
X338012D02*
X338996Y338968D01*
X340964D01*
X341948Y339952D01*
Y343888D01*
X340964Y344872D01*
X338996D01*
X338012Y343888D01*
Y342904D01*
X338996Y341920D01*
X341948D01*
X343915Y338968D02*
Y342904D01*
X344899D01*
X345883Y341920D01*
Y338968D01*
Y341920D01*
X346867Y342904D01*
X347851Y341920D01*
Y338968D01*
X349819D02*
Y342904D01*
X350803D01*
X351787Y341920D01*
Y338968D01*
Y341920D01*
X352771Y342904D01*
X353755Y341920D01*
Y338968D01*
M02*
