G04*
G04 #@! TF.GenerationSoftware,Altium Limited,Altium Designer,18.1.7 (191)*
G04*
G04 Layer_Color=65535*
%FSLAX25Y25*%
%MOIN*%
G70*
G01*
G75*
%ADD10C,0.00591*%
%ADD11C,0.01000*%
%ADD12C,0.00984*%
%ADD13C,0.02362*%
%ADD14C,0.00394*%
%ADD15C,0.00787*%
%ADD16C,0.00800*%
%ADD17C,0.00047*%
%ADD18C,0.00700*%
%ADD19R,0.02000X0.06000*%
G04:AMPARAMS|DCode=20|XSize=20mil|YSize=60mil|CornerRadius=0mil|HoleSize=0mil|Usage=FLASHONLY|Rotation=135.000|XOffset=0mil|YOffset=0mil|HoleType=Round|Shape=Rectangle|*
%AMROTATEDRECTD20*
4,1,4,0.02828,0.01414,-0.01414,-0.02828,-0.02828,-0.01414,0.01414,0.02828,0.02828,0.01414,0.0*
%
%ADD20ROTATEDRECTD20*%

%ADD21R,0.06000X0.02000*%
G36*
X28620Y85751D02*
X28872D01*
Y85667D01*
X29040D01*
Y85583D01*
X29124D01*
Y85499D01*
X29208D01*
Y85415D01*
X29292D01*
Y85247D01*
X29376D01*
Y84996D01*
X29460D01*
Y81135D01*
X26355D01*
Y81219D01*
X26187D01*
Y81303D01*
X26103D01*
Y81387D01*
X26019D01*
Y81471D01*
X25935D01*
Y81555D01*
X25851D01*
Y81807D01*
X25767D01*
Y85079D01*
X25851D01*
Y85247D01*
X25935D01*
Y85415D01*
X26019D01*
Y85499D01*
X26187D01*
Y85583D01*
X26271D01*
Y85667D01*
X27194D01*
Y85583D01*
X27362D01*
Y85499D01*
X27446D01*
Y85331D01*
X27697D01*
Y85499D01*
X27781D01*
Y85583D01*
X27865D01*
Y85667D01*
X28033D01*
Y85751D01*
X28285D01*
Y85835D01*
X28620D01*
Y85751D01*
D02*
G37*
G36*
X29460Y79205D02*
X28285D01*
Y76771D01*
X28033D01*
Y76855D01*
X27781D01*
Y76939D01*
X27613D01*
Y77023D01*
X27530D01*
Y77191D01*
X27446D01*
Y79205D01*
X26607D01*
Y79121D01*
X26523D01*
Y76352D01*
X26607D01*
Y76268D01*
X29460D01*
Y75429D01*
X26607D01*
Y75513D01*
X26355D01*
Y75597D01*
X26187D01*
Y75681D01*
X26103D01*
Y75765D01*
X26019D01*
Y75848D01*
X25935D01*
Y75932D01*
X25851D01*
Y76100D01*
X25767D01*
Y79373D01*
X25851D01*
Y79541D01*
X25935D01*
Y79625D01*
X26019D01*
Y79709D01*
X26103D01*
Y79793D01*
X26187D01*
Y79877D01*
X26355D01*
Y79960D01*
X26607D01*
Y80044D01*
X29460D01*
Y79205D01*
D02*
G37*
G36*
Y71401D02*
X29376D01*
Y71149D01*
X29292D01*
Y71065D01*
X29208D01*
Y70981D01*
X29124D01*
Y70897D01*
X29040D01*
Y70813D01*
X28872D01*
Y70729D01*
X28620D01*
Y70645D01*
X26439D01*
Y70729D01*
X26187D01*
Y70813D01*
X26019D01*
Y70897D01*
X25935D01*
Y71065D01*
X25851D01*
Y71149D01*
X25767D01*
Y71485D01*
X28537D01*
Y71569D01*
X28620D01*
Y71737D01*
X28705D01*
Y74254D01*
X29124D01*
Y74338D01*
X29460D01*
Y71401D01*
D02*
G37*
G36*
Y65610D02*
X25767D01*
Y69555D01*
X26019D01*
Y69471D01*
X26523D01*
Y66450D01*
X27194D01*
Y69387D01*
X28033D01*
Y66450D01*
X28705D01*
Y69471D01*
X29208D01*
Y69555D01*
X29460D01*
Y65610D01*
D02*
G37*
G36*
Y61331D02*
X29376D01*
Y61079D01*
X29292D01*
Y60911D01*
X29208D01*
Y60827D01*
X29124D01*
Y60743D01*
X29040D01*
Y60659D01*
X28872D01*
Y60575D01*
X28705D01*
Y60492D01*
X26439D01*
Y60575D01*
X26271D01*
Y60659D01*
X26187D01*
Y60743D01*
X26103D01*
Y60827D01*
X26019D01*
Y60911D01*
X25935D01*
Y61079D01*
X25851D01*
Y61247D01*
X25767D01*
Y64520D01*
X26019D01*
Y64436D01*
X26523D01*
Y61498D01*
X26607D01*
Y61331D01*
X26690D01*
Y61247D01*
X28537D01*
Y61331D01*
X28620D01*
Y61498D01*
X28705D01*
Y64436D01*
X29208D01*
Y64520D01*
X29460D01*
Y61331D01*
D02*
G37*
G36*
Y58561D02*
X28285D01*
Y56128D01*
X28117D01*
Y56212D01*
X27781D01*
Y56296D01*
X27613D01*
Y56379D01*
X27530D01*
Y56547D01*
X27446D01*
Y58561D01*
X26607D01*
Y58477D01*
X26523D01*
Y55708D01*
X26607D01*
Y55624D01*
X26858D01*
Y55540D01*
X29376D01*
Y55624D01*
X29460D01*
Y54785D01*
X26607D01*
Y54869D01*
X26355D01*
Y54953D01*
X26187D01*
Y55037D01*
X26103D01*
Y55121D01*
X26019D01*
Y55205D01*
X25935D01*
Y55289D01*
X25851D01*
Y55456D01*
X25767D01*
Y58729D01*
X25851D01*
Y58897D01*
X25935D01*
Y58981D01*
X26019D01*
Y59065D01*
X26103D01*
Y59149D01*
X26187D01*
Y59233D01*
X26355D01*
Y59317D01*
X26690D01*
Y59400D01*
X29460D01*
Y58561D01*
D02*
G37*
G36*
X27110Y53694D02*
X27446D01*
Y53610D01*
X27697D01*
Y53526D01*
X27781D01*
Y53442D01*
X27949D01*
Y53359D01*
X28033D01*
Y53191D01*
X28117D01*
Y53023D01*
X28201D01*
Y49834D01*
X29460D01*
Y49079D01*
X27613D01*
Y49163D01*
X27530D01*
Y49330D01*
X27446D01*
Y52771D01*
X27362D01*
Y52855D01*
X27278D01*
Y52939D01*
X26690D01*
Y52855D01*
X26607D01*
Y52771D01*
X26523D01*
Y49079D01*
X25767D01*
Y53023D01*
X25851D01*
Y53191D01*
X25935D01*
Y53275D01*
X26019D01*
Y53359D01*
X26103D01*
Y53442D01*
X26187D01*
Y53526D01*
X26271D01*
Y53610D01*
X26523D01*
Y53694D01*
X26858D01*
Y53778D01*
X26942D01*
Y53694D01*
X27026D01*
Y53778D01*
X27110D01*
Y53694D01*
D02*
G37*
G36*
X22746Y45470D02*
X22662D01*
Y45806D01*
X22746D01*
Y45470D01*
D02*
G37*
G36*
X28453Y47904D02*
X28872D01*
Y47820D01*
X28956D01*
Y47736D01*
X29124D01*
Y47652D01*
X29208D01*
Y47568D01*
X29292D01*
Y47400D01*
X29376D01*
Y47149D01*
X29460D01*
Y43540D01*
X29124D01*
Y43624D01*
X28788D01*
Y43708D01*
X28705D01*
Y46981D01*
X28620D01*
Y47149D01*
X28033D01*
Y44379D01*
X27949D01*
Y44128D01*
X27865D01*
Y43960D01*
X27781D01*
Y43876D01*
X27697D01*
Y43792D01*
X27613D01*
Y43708D01*
X27446D01*
Y43624D01*
X27278D01*
Y43540D01*
X26439D01*
Y43624D01*
X26271D01*
Y43708D01*
X26103D01*
Y43792D01*
X26019D01*
Y43876D01*
X25935D01*
Y44044D01*
X25851D01*
Y44211D01*
X25767D01*
Y47988D01*
X25851D01*
Y47904D01*
X26187D01*
Y47820D01*
X26523D01*
Y44463D01*
X26607D01*
Y44379D01*
X26690D01*
Y44295D01*
X27110D01*
Y44379D01*
X27194D01*
Y47149D01*
X27278D01*
Y47400D01*
X27362D01*
Y47568D01*
X27446D01*
Y47652D01*
X27530D01*
Y47736D01*
X27697D01*
Y47820D01*
X27781D01*
Y47904D01*
X28201D01*
Y47988D01*
X28453D01*
Y47904D01*
D02*
G37*
G36*
X34495Y53023D02*
X34411D01*
Y52184D01*
X34327D01*
Y51428D01*
X34243D01*
Y50673D01*
X34159D01*
Y50170D01*
X34075D01*
Y49582D01*
X33991D01*
Y48995D01*
X33907D01*
Y48575D01*
X33823D01*
Y47988D01*
X33740D01*
Y47568D01*
X33656D01*
Y47149D01*
X33572D01*
Y46645D01*
X33488D01*
Y46309D01*
X33404D01*
Y45890D01*
X33320D01*
Y45554D01*
X33236D01*
Y45218D01*
X33152D01*
Y44799D01*
X33068D01*
Y44547D01*
X32984D01*
Y44211D01*
X32900D01*
Y43876D01*
X32816D01*
Y43540D01*
X32732D01*
Y43204D01*
X32649D01*
Y42953D01*
X32565D01*
Y42701D01*
X32481D01*
Y42449D01*
X32397D01*
Y42114D01*
X32313D01*
Y41862D01*
X32229D01*
Y41610D01*
X32145D01*
Y41358D01*
X32061D01*
Y41107D01*
X31977D01*
Y40855D01*
X31893D01*
Y40603D01*
X31809D01*
Y40435D01*
X31725D01*
Y40183D01*
X31642D01*
Y40016D01*
X31558D01*
Y39764D01*
X31474D01*
Y39596D01*
X31390D01*
Y39344D01*
X31306D01*
Y39260D01*
X31558D01*
Y39344D01*
X31725D01*
Y39428D01*
X31977D01*
Y39512D01*
X32061D01*
Y39596D01*
X32229D01*
Y39680D01*
X32397D01*
Y39764D01*
X32565D01*
Y39848D01*
X32649D01*
Y39932D01*
X32816D01*
Y40016D01*
X32900D01*
Y40099D01*
X32984D01*
Y40183D01*
X33152D01*
Y40267D01*
X33236D01*
Y40351D01*
X33320D01*
Y40435D01*
X33404D01*
Y40519D01*
X33488D01*
Y40603D01*
X33572D01*
Y40687D01*
X33656D01*
Y40771D01*
X33740D01*
Y40855D01*
X33823D01*
Y40939D01*
X33907D01*
Y41023D01*
X33991D01*
Y41107D01*
X34075D01*
Y41274D01*
X34159D01*
Y41358D01*
X34243D01*
Y41442D01*
X34327D01*
Y41610D01*
X34411D01*
Y41694D01*
X34495D01*
Y41862D01*
X34579D01*
Y41946D01*
X34663D01*
Y42114D01*
X34747D01*
Y42281D01*
X34830D01*
Y42449D01*
X34914D01*
Y42617D01*
X34998D01*
Y42869D01*
X35082D01*
Y43037D01*
X35166D01*
Y43288D01*
X35250D01*
Y43540D01*
X35334D01*
Y43960D01*
X35418D01*
Y44463D01*
X35502D01*
Y44715D01*
X35586D01*
Y43372D01*
X35502D01*
Y42701D01*
X35418D01*
Y42365D01*
X35334D01*
Y42030D01*
X35250D01*
Y41862D01*
X35166D01*
Y41610D01*
X35082D01*
Y41358D01*
X34998D01*
Y41190D01*
X34914D01*
Y41023D01*
X34830D01*
Y40855D01*
X34747D01*
Y40687D01*
X34663D01*
Y40603D01*
X34579D01*
Y40435D01*
X34495D01*
Y40351D01*
X34411D01*
Y40183D01*
X34327D01*
Y40099D01*
X34243D01*
Y39932D01*
X34159D01*
Y39848D01*
X34075D01*
Y39764D01*
X33991D01*
Y39680D01*
X33907D01*
Y39596D01*
X33823D01*
Y39512D01*
X33740D01*
Y39344D01*
X33656D01*
Y39260D01*
X33488D01*
Y39176D01*
X33404D01*
Y39092D01*
X33320D01*
Y39009D01*
X33236D01*
Y38925D01*
X33152D01*
Y38841D01*
X33068D01*
Y38757D01*
X32900D01*
Y38673D01*
X32816D01*
Y38589D01*
X32732D01*
Y38505D01*
X32565D01*
Y38421D01*
X32397D01*
Y38337D01*
X32313D01*
Y38253D01*
X32145D01*
Y38169D01*
X31977D01*
Y38085D01*
X31809D01*
Y38001D01*
X31642D01*
Y37918D01*
X31390D01*
Y37834D01*
X31138D01*
Y37750D01*
X30970D01*
Y37666D01*
X30635D01*
Y37582D01*
X30467D01*
Y37414D01*
X30383D01*
Y37246D01*
X30299D01*
Y37078D01*
X30215D01*
Y36911D01*
X30131D01*
Y36827D01*
X30047D01*
Y36659D01*
X29963D01*
Y36491D01*
X29879D01*
Y36323D01*
X29795D01*
Y36239D01*
X29711D01*
Y36071D01*
X29627D01*
Y35987D01*
X29544D01*
Y35820D01*
X29460D01*
Y35652D01*
X29376D01*
Y35568D01*
X29292D01*
Y35400D01*
X29208D01*
Y35316D01*
X29124D01*
Y35232D01*
X29040D01*
Y35064D01*
X28956D01*
Y34980D01*
X28872D01*
Y34897D01*
X28788D01*
Y34813D01*
X28705D01*
Y34645D01*
X28620D01*
Y34561D01*
X28537D01*
Y34477D01*
X28453D01*
Y34393D01*
X28369D01*
Y34309D01*
X28285D01*
Y34225D01*
X28201D01*
Y34141D01*
X28117D01*
Y34057D01*
X27949D01*
Y33974D01*
X27865D01*
Y33889D01*
X27781D01*
Y33806D01*
X27613D01*
Y33722D01*
X27446D01*
Y33638D01*
X27278D01*
Y33554D01*
X26942D01*
Y33470D01*
X26690D01*
Y33554D01*
X26439D01*
Y33638D01*
X26271D01*
Y33722D01*
X26103D01*
Y33806D01*
X26019D01*
Y33889D01*
X25935D01*
Y33974D01*
X25851D01*
Y34141D01*
X25767D01*
Y34225D01*
X25683D01*
Y34393D01*
X25600D01*
Y34561D01*
X25516D01*
Y34729D01*
X25432D01*
Y34897D01*
X25348D01*
Y35148D01*
X25264D01*
Y35484D01*
X25180D01*
Y35736D01*
X25096D01*
Y36155D01*
X25012D01*
Y36575D01*
X24928D01*
Y37246D01*
X24844D01*
Y38337D01*
X24760D01*
Y39009D01*
X24676D01*
Y39092D01*
X24592D01*
Y39176D01*
X24509D01*
Y39260D01*
X24425D01*
Y39344D01*
X24341D01*
Y39428D01*
X24257D01*
Y39512D01*
X24173D01*
Y39596D01*
X24089D01*
Y39680D01*
X24005D01*
Y39764D01*
X23921D01*
Y39932D01*
X23837D01*
Y40016D01*
X23753D01*
Y40099D01*
X23669D01*
Y40267D01*
X23585D01*
Y40351D01*
X23502D01*
Y40519D01*
X23418D01*
Y40603D01*
X23334D01*
Y40771D01*
X23250D01*
Y40939D01*
X23166D01*
Y41107D01*
X23082D01*
Y41274D01*
X22998D01*
Y41442D01*
X22914D01*
Y41694D01*
X22830D01*
Y41946D01*
X22746D01*
Y42197D01*
X22662D01*
Y42533D01*
X22579D01*
Y43037D01*
X22494D01*
Y43624D01*
X22411D01*
Y44379D01*
X22494D01*
Y44967D01*
X22579D01*
Y45470D01*
X22662D01*
Y44799D01*
X22746D01*
Y44128D01*
X22830D01*
Y43708D01*
X22914D01*
Y43372D01*
X22998D01*
Y43121D01*
X23082D01*
Y42953D01*
X23166D01*
Y42701D01*
X23250D01*
Y42533D01*
X23334D01*
Y42365D01*
X23418D01*
Y42197D01*
X23502D01*
Y42030D01*
X23585D01*
Y41862D01*
X23669D01*
Y41778D01*
X23753D01*
Y41610D01*
X23837D01*
Y41526D01*
X23921D01*
Y41358D01*
X24005D01*
Y41274D01*
X24089D01*
Y41190D01*
X24173D01*
Y41107D01*
X24257D01*
Y41023D01*
X24341D01*
Y40855D01*
X24425D01*
Y40771D01*
X24509D01*
Y40687D01*
X24592D01*
Y40603D01*
X24676D01*
Y40519D01*
X24760D01*
Y40435D01*
X24928D01*
Y40351D01*
X25012D01*
Y40267D01*
X25096D01*
Y40183D01*
X25180D01*
Y40099D01*
X25264D01*
Y40016D01*
X25432D01*
Y39932D01*
X25516D01*
Y39848D01*
X25683D01*
Y39764D01*
X25767D01*
Y39680D01*
X25935D01*
Y39596D01*
X26103D01*
Y39512D01*
X26271D01*
Y39428D01*
X26439D01*
Y39344D01*
X26607D01*
Y39260D01*
X26858D01*
Y39176D01*
X27026D01*
Y39092D01*
X27278D01*
Y39009D01*
X27697D01*
Y38925D01*
X28033D01*
Y38841D01*
X28369D01*
Y38757D01*
X28285D01*
Y38589D01*
X28201D01*
Y38505D01*
X28117D01*
Y38337D01*
X28033D01*
Y38169D01*
X27949D01*
Y38085D01*
X27865D01*
Y37918D01*
X27781D01*
Y37834D01*
X27697D01*
Y37666D01*
X27613D01*
Y37582D01*
X27446D01*
Y37666D01*
X27110D01*
Y37750D01*
X26858D01*
Y37834D01*
X26607D01*
Y37918D01*
X26439D01*
Y38001D01*
X26271D01*
Y38085D01*
X26019D01*
Y38169D01*
X25935D01*
Y38253D01*
X25767D01*
Y38337D01*
X25600D01*
Y38421D01*
X25432D01*
Y38589D01*
X25264D01*
Y38001D01*
X25348D01*
Y37750D01*
X25432D01*
Y37498D01*
X25516D01*
Y37246D01*
X25600D01*
Y37078D01*
X25683D01*
Y36911D01*
X25767D01*
Y36743D01*
X25851D01*
Y36659D01*
X25935D01*
Y36575D01*
X26019D01*
Y36407D01*
X26103D01*
Y36323D01*
X26187D01*
Y36239D01*
X26271D01*
Y36155D01*
X26439D01*
Y36071D01*
X26523D01*
Y35987D01*
X26690D01*
Y35904D01*
X27194D01*
Y35987D01*
X27362D01*
Y36071D01*
X27446D01*
Y36155D01*
X27613D01*
Y36239D01*
X27697D01*
Y36323D01*
X27781D01*
Y36407D01*
X27865D01*
Y36491D01*
X27949D01*
Y36575D01*
X28033D01*
Y36659D01*
X28117D01*
Y36743D01*
X28201D01*
Y36911D01*
X28285D01*
Y36994D01*
X28369D01*
Y37078D01*
X28453D01*
Y37246D01*
X28537D01*
Y37330D01*
X28620D01*
Y37414D01*
X28705D01*
Y37582D01*
X28788D01*
Y37750D01*
X28872D01*
Y37834D01*
X28956D01*
Y38001D01*
X29040D01*
Y38169D01*
X29124D01*
Y38253D01*
X29208D01*
Y38421D01*
X29292D01*
Y38589D01*
X29376D01*
Y38757D01*
X29460D01*
Y38925D01*
X29544D01*
Y39092D01*
X29627D01*
Y39260D01*
X29711D01*
Y39428D01*
X29795D01*
Y39596D01*
X29879D01*
Y39764D01*
X29963D01*
Y39932D01*
X30047D01*
Y40183D01*
X30131D01*
Y40351D01*
X30215D01*
Y40519D01*
X30299D01*
Y40687D01*
X30383D01*
Y40939D01*
X30467D01*
Y41107D01*
X30551D01*
Y41274D01*
X30635D01*
Y41526D01*
X30718D01*
Y41778D01*
X30802D01*
Y41946D01*
X30886D01*
Y42197D01*
X30970D01*
Y42365D01*
X31054D01*
Y42617D01*
X31138D01*
Y42869D01*
X31222D01*
Y43037D01*
X31306D01*
Y43288D01*
X31390D01*
Y43540D01*
X31474D01*
Y43792D01*
X31558D01*
Y44044D01*
X31642D01*
Y44211D01*
X31725D01*
Y44547D01*
X31809D01*
Y44715D01*
X31893D01*
Y44967D01*
X31977D01*
Y45302D01*
X32061D01*
Y45470D01*
X32145D01*
Y45806D01*
X32229D01*
Y46058D01*
X32313D01*
Y46309D01*
X32397D01*
Y46561D01*
X32481D01*
Y46813D01*
X32565D01*
Y47065D01*
X32649D01*
Y47316D01*
X32732D01*
Y47652D01*
X32816D01*
Y47904D01*
X32900D01*
Y48156D01*
X32984D01*
Y48491D01*
X33068D01*
Y48743D01*
X33152D01*
Y48995D01*
X33236D01*
Y49330D01*
X33320D01*
Y49582D01*
X33404D01*
Y49834D01*
X33488D01*
Y50170D01*
X33572D01*
Y50421D01*
X33656D01*
Y50757D01*
X33740D01*
Y51009D01*
X33823D01*
Y51344D01*
X33907D01*
Y51596D01*
X33991D01*
Y51932D01*
X34075D01*
Y52267D01*
X34159D01*
Y52519D01*
X34243D01*
Y52855D01*
X34327D01*
Y53107D01*
X34411D01*
Y53442D01*
X34495D01*
Y53023D01*
D02*
G37*
G36*
X639899Y-120292D02*
X640033Y-120311D01*
X640197Y-120350D01*
X640370Y-120398D01*
X640543Y-120475D01*
X640716Y-120580D01*
X640725D01*
X640735Y-120590D01*
X640793Y-120638D01*
X640869Y-120705D01*
X640975Y-120801D01*
X641081Y-120917D01*
X641196Y-121070D01*
X641302Y-121234D01*
X641398Y-121435D01*
Y-121445D01*
X641408Y-121464D01*
X641417Y-121493D01*
X641436Y-121532D01*
X641456Y-121580D01*
X641475Y-121647D01*
X641513Y-121791D01*
X641552Y-121974D01*
X641590Y-122176D01*
X641619Y-122397D01*
X641629Y-122637D01*
Y-122646D01*
Y-122666D01*
Y-122704D01*
Y-122752D01*
X641619Y-122819D01*
Y-122887D01*
X641600Y-123060D01*
X641561Y-123252D01*
X641523Y-123463D01*
X641456Y-123684D01*
X641369Y-123905D01*
Y-123915D01*
X641360Y-123934D01*
X641340Y-123963D01*
X641321Y-124001D01*
X641263Y-124098D01*
X641187Y-124222D01*
X641081Y-124357D01*
X640956Y-124501D01*
X640812Y-124636D01*
X640639Y-124761D01*
X640629D01*
X640620Y-124770D01*
X640591Y-124789D01*
X640552Y-124809D01*
X640456Y-124857D01*
X640331Y-124905D01*
X640177Y-124962D01*
X640014Y-125010D01*
X639822Y-125049D01*
X639630Y-125058D01*
X639563D01*
X639495Y-125049D01*
X639399Y-125039D01*
X639293Y-125020D01*
X639178Y-124991D01*
X639053Y-124953D01*
X638938Y-124905D01*
X638928Y-124895D01*
X638890Y-124876D01*
X638832Y-124837D01*
X638765Y-124789D01*
X638678Y-124732D01*
X638601Y-124664D01*
X638515Y-124578D01*
X638438Y-124492D01*
Y-126702D01*
X637660D01*
Y-120378D01*
X638371D01*
Y-120974D01*
X638380Y-120955D01*
X638409Y-120917D01*
X638467Y-120859D01*
X638534Y-120782D01*
X638611Y-120695D01*
X638707Y-120609D01*
X638813Y-120523D01*
X638928Y-120455D01*
X638947Y-120446D01*
X638986Y-120426D01*
X639053Y-120398D01*
X639140Y-120359D01*
X639255Y-120330D01*
X639380Y-120301D01*
X639524Y-120282D01*
X639687Y-120273D01*
X639783D01*
X639899Y-120292D01*
D02*
G37*
G36*
X663001Y-120282D02*
X663107Y-120301D01*
X663222Y-120340D01*
X663357Y-120378D01*
X663501Y-120446D01*
X663655Y-120532D01*
X663376Y-121243D01*
X663366Y-121234D01*
X663328Y-121214D01*
X663270Y-121186D01*
X663203Y-121157D01*
X663117Y-121128D01*
X663021Y-121099D01*
X662915Y-121080D01*
X662809Y-121070D01*
X662771D01*
X662723Y-121080D01*
X662655Y-121090D01*
X662588Y-121109D01*
X662511Y-121138D01*
X662434Y-121176D01*
X662357Y-121224D01*
X662348Y-121234D01*
X662328Y-121253D01*
X662290Y-121291D01*
X662252Y-121339D01*
X662204Y-121397D01*
X662156Y-121474D01*
X662117Y-121560D01*
X662079Y-121657D01*
X662069Y-121676D01*
X662059Y-121724D01*
X662040Y-121810D01*
X662021Y-121926D01*
X661992Y-122060D01*
X661973Y-122214D01*
X661963Y-122377D01*
X661954Y-122560D01*
Y-124953D01*
X661175D01*
Y-120378D01*
X661877D01*
Y-121061D01*
X661887Y-121051D01*
X661925Y-120993D01*
X661973Y-120907D01*
X662031Y-120811D01*
X662108Y-120705D01*
X662194Y-120599D01*
X662271Y-120503D01*
X662357Y-120436D01*
X662367Y-120426D01*
X662396Y-120407D01*
X662444Y-120388D01*
X662511Y-120350D01*
X662578Y-120321D01*
X662665Y-120301D01*
X662761Y-120282D01*
X662857Y-120273D01*
X662924D01*
X663001Y-120282D01*
D02*
G37*
G36*
X726111Y-125394D02*
X725390D01*
Y-124827D01*
X725380Y-124836D01*
X725371Y-124855D01*
X725342Y-124884D01*
X725303Y-124932D01*
X725265Y-124980D01*
X725207Y-125038D01*
X725140Y-125096D01*
X725063Y-125163D01*
X724976Y-125221D01*
X724880Y-125288D01*
X724775Y-125346D01*
X724669Y-125394D01*
X724544Y-125442D01*
X724409Y-125471D01*
X724265Y-125490D01*
X724112Y-125499D01*
X724054D01*
X724016Y-125490D01*
X723910Y-125480D01*
X723785Y-125461D01*
X723622Y-125423D01*
X723458Y-125374D01*
X723276Y-125298D01*
X723103Y-125201D01*
X723093D01*
X723083Y-125192D01*
X723026Y-125144D01*
X722949Y-125077D01*
X722843Y-124980D01*
X722737Y-124865D01*
X722612Y-124721D01*
X722507Y-124558D01*
X722401Y-124365D01*
Y-124356D01*
X722391Y-124337D01*
X722382Y-124308D01*
X722363Y-124269D01*
X722343Y-124221D01*
X722324Y-124154D01*
X722276Y-124000D01*
X722228Y-123818D01*
X722190Y-123606D01*
X722161Y-123376D01*
X722151Y-123116D01*
Y-123107D01*
Y-123087D01*
Y-123049D01*
Y-123001D01*
X722161Y-122943D01*
Y-122866D01*
X722180Y-122703D01*
X722209Y-122511D01*
X722247Y-122309D01*
X722295Y-122088D01*
X722372Y-121876D01*
Y-121867D01*
X722382Y-121848D01*
X722401Y-121819D01*
X722420Y-121780D01*
X722468Y-121684D01*
X722545Y-121559D01*
X722641Y-121415D01*
X722757Y-121271D01*
X722891Y-121136D01*
X723055Y-121011D01*
X723064D01*
X723074Y-121002D01*
X723131Y-120964D01*
X723228Y-120915D01*
X723352Y-120858D01*
X723506Y-120810D01*
X723679Y-120762D01*
X723871Y-120723D01*
X724073Y-120714D01*
X724141D01*
X724217Y-120723D01*
X724323Y-120733D01*
X724429Y-120762D01*
X724554Y-120791D01*
X724679Y-120839D01*
X724803Y-120896D01*
X724823Y-120906D01*
X724861Y-120925D01*
X724919Y-120964D01*
X724996Y-121021D01*
X725073Y-121079D01*
X725169Y-121156D01*
X725255Y-121252D01*
X725332Y-121348D01*
Y-119080D01*
X726111D01*
Y-125394D01*
D02*
G37*
G36*
X712878Y-125394D02*
X712157D01*
Y-124827D01*
X712147Y-124836D01*
X712138Y-124855D01*
X712109Y-124884D01*
X712070Y-124932D01*
X712032Y-124980D01*
X711974Y-125038D01*
X711907Y-125096D01*
X711830Y-125163D01*
X711744Y-125221D01*
X711648Y-125288D01*
X711542Y-125346D01*
X711436Y-125394D01*
X711311Y-125442D01*
X711177Y-125471D01*
X711032Y-125490D01*
X710879Y-125499D01*
X710821D01*
X710783Y-125490D01*
X710677Y-125480D01*
X710552Y-125461D01*
X710389Y-125423D01*
X710225Y-125374D01*
X710043Y-125298D01*
X709870Y-125201D01*
X709860D01*
X709850Y-125192D01*
X709793Y-125144D01*
X709716Y-125077D01*
X709610Y-124980D01*
X709504Y-124865D01*
X709379Y-124721D01*
X709274Y-124558D01*
X709168Y-124365D01*
Y-124356D01*
X709159Y-124337D01*
X709149Y-124308D01*
X709130Y-124269D01*
X709110Y-124221D01*
X709091Y-124154D01*
X709043Y-124000D01*
X708995Y-123818D01*
X708957Y-123606D01*
X708928Y-123376D01*
X708918Y-123116D01*
Y-123107D01*
Y-123087D01*
Y-123049D01*
Y-123001D01*
X708928Y-122943D01*
Y-122866D01*
X708947Y-122703D01*
X708976Y-122511D01*
X709014Y-122309D01*
X709062Y-122088D01*
X709139Y-121876D01*
Y-121867D01*
X709149Y-121848D01*
X709168Y-121819D01*
X709187Y-121780D01*
X709235Y-121684D01*
X709312Y-121559D01*
X709408Y-121415D01*
X709524Y-121271D01*
X709658Y-121136D01*
X709822Y-121011D01*
X709831D01*
X709841Y-121002D01*
X709898Y-120964D01*
X709995Y-120915D01*
X710119Y-120858D01*
X710273Y-120810D01*
X710446Y-120762D01*
X710638Y-120723D01*
X710840Y-120714D01*
X710908D01*
X710984Y-120723D01*
X711090Y-120733D01*
X711196Y-120762D01*
X711321Y-120791D01*
X711446Y-120839D01*
X711571Y-120896D01*
X711590Y-120906D01*
X711628Y-120925D01*
X711686Y-120964D01*
X711763Y-121021D01*
X711840Y-121079D01*
X711936Y-121156D01*
X712022Y-121252D01*
X712099Y-121348D01*
Y-119080D01*
X712878D01*
Y-125394D01*
D02*
G37*
G36*
X708092Y-120723D02*
X708197Y-120742D01*
X708313Y-120781D01*
X708447Y-120819D01*
X708592Y-120887D01*
X708745Y-120973D01*
X708467Y-121684D01*
X708457Y-121675D01*
X708419Y-121655D01*
X708361Y-121627D01*
X708294Y-121598D01*
X708207Y-121569D01*
X708111Y-121540D01*
X708005Y-121521D01*
X707900Y-121511D01*
X707861D01*
X707813Y-121521D01*
X707746Y-121530D01*
X707679Y-121550D01*
X707602Y-121579D01*
X707525Y-121617D01*
X707448Y-121665D01*
X707438Y-121675D01*
X707419Y-121694D01*
X707381Y-121732D01*
X707342Y-121780D01*
X707294Y-121838D01*
X707246Y-121915D01*
X707208Y-122001D01*
X707169Y-122098D01*
X707160Y-122117D01*
X707150Y-122165D01*
X707131Y-122251D01*
X707112Y-122367D01*
X707083Y-122501D01*
X707063Y-122655D01*
X707054Y-122818D01*
X707044Y-123001D01*
Y-125394D01*
X706266D01*
Y-120819D01*
X706967D01*
Y-121502D01*
X706977Y-121492D01*
X707015Y-121434D01*
X707063Y-121348D01*
X707121Y-121252D01*
X707198Y-121146D01*
X707284Y-121040D01*
X707361Y-120944D01*
X707448Y-120877D01*
X707457Y-120867D01*
X707486Y-120848D01*
X707534Y-120829D01*
X707602Y-120791D01*
X707669Y-120762D01*
X707755Y-120742D01*
X707852Y-120723D01*
X707948Y-120714D01*
X708015D01*
X708092Y-120723D01*
D02*
G37*
G36*
X653862Y-124953D02*
X653132D01*
X651392Y-120378D01*
X652209D01*
X653189Y-123127D01*
X653199Y-123146D01*
X653218Y-123204D01*
X653247Y-123290D01*
X653286Y-123406D01*
X653334Y-123540D01*
X653382Y-123694D01*
X653439Y-123867D01*
X653487Y-124040D01*
X653497Y-124021D01*
X653507Y-123973D01*
X653535Y-123896D01*
X653564Y-123800D01*
X653603Y-123675D01*
X653651Y-123521D01*
X653708Y-123357D01*
X653776Y-123175D01*
X654794Y-120378D01*
X655592D01*
X653862Y-124953D01*
D02*
G37*
G36*
X672986Y-125030D02*
Y-125039D01*
X672976Y-125058D01*
X672957Y-125097D01*
X672938Y-125155D01*
X672919Y-125212D01*
X672890Y-125279D01*
X672832Y-125443D01*
X672755Y-125616D01*
X672688Y-125779D01*
X672621Y-125943D01*
X672582Y-126010D01*
X672554Y-126067D01*
X672544Y-126087D01*
X672515Y-126125D01*
X672477Y-126192D01*
X672419Y-126279D01*
X672342Y-126365D01*
X672265Y-126462D01*
X672169Y-126548D01*
X672073Y-126625D01*
X672063Y-126635D01*
X672025Y-126654D01*
X671967Y-126683D01*
X671890Y-126711D01*
X671804Y-126750D01*
X671689Y-126779D01*
X671573Y-126798D01*
X671439Y-126807D01*
X671400D01*
X671352Y-126798D01*
X671295D01*
X671218Y-126788D01*
X671131Y-126769D01*
X670939Y-126711D01*
X670853Y-125991D01*
X670862D01*
X670891Y-126000D01*
X670939Y-126010D01*
X671006Y-126029D01*
X671141Y-126058D01*
X671295Y-126067D01*
X671343D01*
X671381Y-126058D01*
X671448D01*
X671583Y-126029D01*
X671650Y-126010D01*
X671708Y-125981D01*
X671718D01*
X671737Y-125962D01*
X671766Y-125943D01*
X671794Y-125914D01*
X671881Y-125837D01*
X671967Y-125731D01*
Y-125722D01*
X671977Y-125702D01*
X671996Y-125673D01*
X672025Y-125616D01*
X672054Y-125539D01*
X672092Y-125443D01*
X672140Y-125308D01*
X672198Y-125155D01*
X672208Y-125145D01*
X672217Y-125107D01*
X672246Y-125049D01*
X672275Y-124962D01*
X670536Y-120378D01*
X671362D01*
X672313Y-123012D01*
Y-123021D01*
X672323Y-123031D01*
X672333Y-123060D01*
X672342Y-123098D01*
X672381Y-123204D01*
X672429Y-123338D01*
X672477Y-123492D01*
X672534Y-123675D01*
X672592Y-123867D01*
X672650Y-124069D01*
Y-124059D01*
X672659Y-124049D01*
Y-124021D01*
X672679Y-123982D01*
X672698Y-123876D01*
X672736Y-123751D01*
X672784Y-123598D01*
X672842Y-123425D01*
X672899Y-123242D01*
X672967Y-123050D01*
X673947Y-120378D01*
X674716D01*
X672986Y-125030D01*
D02*
G37*
G36*
X668200Y-120282D02*
X668335Y-120292D01*
X668489Y-120311D01*
X668652Y-120330D01*
X668806Y-120369D01*
X668950Y-120417D01*
X668969Y-120426D01*
X669007Y-120436D01*
X669075Y-120475D01*
X669152Y-120513D01*
X669238Y-120561D01*
X669334Y-120619D01*
X669411Y-120686D01*
X669488Y-120763D01*
X669498Y-120772D01*
X669517Y-120801D01*
X669546Y-120840D01*
X669584Y-120907D01*
X669623Y-120984D01*
X669661Y-121070D01*
X669699Y-121176D01*
X669728Y-121291D01*
Y-121301D01*
X669738Y-121330D01*
X669747Y-121378D01*
X669757Y-121455D01*
Y-121551D01*
X669767Y-121676D01*
X669776Y-121820D01*
Y-122002D01*
Y-123040D01*
Y-123050D01*
Y-123088D01*
Y-123146D01*
Y-123213D01*
Y-123300D01*
Y-123396D01*
X669786Y-123617D01*
Y-123857D01*
X669796Y-124078D01*
X669805Y-124184D01*
Y-124270D01*
X669815Y-124347D01*
X669824Y-124415D01*
Y-124424D01*
X669834Y-124463D01*
X669844Y-124520D01*
X669863Y-124588D01*
X669892Y-124664D01*
X669930Y-124761D01*
X670017Y-124953D01*
X669209D01*
X669200Y-124943D01*
X669190Y-124914D01*
X669171Y-124857D01*
X669142Y-124789D01*
X669113Y-124703D01*
X669094Y-124607D01*
X669075Y-124501D01*
X669056Y-124376D01*
X669036Y-124395D01*
X668979Y-124434D01*
X668902Y-124501D01*
X668786Y-124578D01*
X668661Y-124674D01*
X668517Y-124761D01*
X668373Y-124837D01*
X668220Y-124905D01*
X668200Y-124914D01*
X668152Y-124924D01*
X668075Y-124953D01*
X667970Y-124982D01*
X667835Y-125010D01*
X667691Y-125030D01*
X667537Y-125049D01*
X667364Y-125058D01*
X667297D01*
X667239Y-125049D01*
X667182D01*
X667105Y-125039D01*
X666941Y-125010D01*
X666749Y-124972D01*
X666567Y-124905D01*
X666374Y-124818D01*
X666211Y-124693D01*
X666192Y-124674D01*
X666144Y-124626D01*
X666086Y-124549D01*
X666009Y-124434D01*
X665932Y-124299D01*
X665875Y-124145D01*
X665827Y-123953D01*
X665807Y-123751D01*
Y-123732D01*
Y-123694D01*
X665817Y-123627D01*
X665827Y-123550D01*
X665846Y-123454D01*
X665865Y-123348D01*
X665904Y-123242D01*
X665951Y-123136D01*
X665961Y-123127D01*
X665980Y-123088D01*
X666009Y-123040D01*
X666057Y-122973D01*
X666115Y-122906D01*
X666192Y-122829D01*
X666269Y-122762D01*
X666355Y-122694D01*
X666365Y-122685D01*
X666403Y-122666D01*
X666451Y-122637D01*
X666518Y-122598D01*
X666605Y-122550D01*
X666691Y-122512D01*
X666797Y-122473D01*
X666913Y-122435D01*
X666922D01*
X666961Y-122425D01*
X667009Y-122416D01*
X667086Y-122397D01*
X667182Y-122377D01*
X667307Y-122358D01*
X667441Y-122339D01*
X667604Y-122320D01*
X667614D01*
X667643Y-122310D01*
X667691D01*
X667758Y-122300D01*
X667835Y-122291D01*
X667922Y-122281D01*
X668133Y-122243D01*
X668354Y-122204D01*
X668585Y-122166D01*
X668806Y-122108D01*
X668902Y-122079D01*
X668988Y-122050D01*
Y-122041D01*
Y-122022D01*
X668998Y-121964D01*
Y-121897D01*
Y-121868D01*
Y-121849D01*
Y-121839D01*
Y-121829D01*
Y-121772D01*
X668988Y-121685D01*
X668969Y-121589D01*
X668940Y-121484D01*
X668902Y-121368D01*
X668854Y-121272D01*
X668777Y-121186D01*
X668767Y-121176D01*
X668719Y-121147D01*
X668652Y-121099D01*
X668556Y-121051D01*
X668431Y-121003D01*
X668277Y-120955D01*
X668094Y-120926D01*
X667893Y-120917D01*
X667806D01*
X667710Y-120926D01*
X667585Y-120936D01*
X667451Y-120965D01*
X667326Y-120993D01*
X667191Y-121042D01*
X667086Y-121109D01*
X667076Y-121118D01*
X667047Y-121147D01*
X666999Y-121195D01*
X666941Y-121263D01*
X666874Y-121359D01*
X666816Y-121474D01*
X666749Y-121618D01*
X666701Y-121782D01*
X665942Y-121676D01*
Y-121666D01*
X665951Y-121657D01*
X665961Y-121599D01*
X665990Y-121512D01*
X666019Y-121397D01*
X666067Y-121272D01*
X666124Y-121147D01*
X666192Y-121013D01*
X666278Y-120897D01*
X666288Y-120888D01*
X666326Y-120849D01*
X666374Y-120792D01*
X666451Y-120724D01*
X666547Y-120657D01*
X666672Y-120580D01*
X666807Y-120503D01*
X666961Y-120436D01*
X666970D01*
X666980Y-120426D01*
X667009Y-120417D01*
X667037Y-120407D01*
X667134Y-120388D01*
X667259Y-120350D01*
X667412Y-120321D01*
X667585Y-120301D01*
X667787Y-120282D01*
X667998Y-120273D01*
X668094D01*
X668200Y-120282D01*
D02*
G37*
G36*
X664875Y-124953D02*
X664097D01*
Y-118639D01*
X664875D01*
Y-124953D01*
D02*
G37*
G36*
X631999Y-119379D02*
X629924D01*
Y-124953D01*
X629088D01*
Y-119379D01*
X627012D01*
Y-118639D01*
X631999D01*
Y-119379D01*
D02*
G37*
G36*
X658302Y-120282D02*
X658379Y-120292D01*
X658475Y-120301D01*
X658571Y-120321D01*
X658686Y-120350D01*
X658917Y-120426D01*
X659042Y-120475D01*
X659167Y-120542D01*
X659292Y-120609D01*
X659417Y-120695D01*
X659532Y-120792D01*
X659647Y-120907D01*
X659657Y-120917D01*
X659676Y-120936D01*
X659705Y-120974D01*
X659743Y-121022D01*
X659782Y-121090D01*
X659830Y-121166D01*
X659888Y-121253D01*
X659945Y-121359D01*
X659993Y-121484D01*
X660051Y-121608D01*
X660099Y-121753D01*
X660147Y-121916D01*
X660176Y-122079D01*
X660205Y-122262D01*
X660224Y-122454D01*
X660234Y-122666D01*
Y-122675D01*
Y-122714D01*
Y-122781D01*
X660224Y-122867D01*
X656822D01*
Y-122877D01*
Y-122896D01*
X656832Y-122944D01*
Y-122992D01*
X656841Y-123060D01*
X656851Y-123127D01*
X656889Y-123300D01*
X656947Y-123482D01*
X657014Y-123675D01*
X657120Y-123867D01*
X657245Y-124030D01*
X657264Y-124049D01*
X657312Y-124088D01*
X657399Y-124155D01*
X657504Y-124222D01*
X657649Y-124299D01*
X657812Y-124367D01*
X657994Y-124405D01*
X658196Y-124424D01*
X658273D01*
X658350Y-124415D01*
X658446Y-124395D01*
X658561Y-124367D01*
X658686Y-124328D01*
X658811Y-124280D01*
X658927Y-124203D01*
X658936Y-124194D01*
X658975Y-124155D01*
X659032Y-124107D01*
X659100Y-124021D01*
X659176Y-123925D01*
X659253Y-123800D01*
X659330Y-123646D01*
X659407Y-123473D01*
X660205Y-123579D01*
Y-123588D01*
X660195Y-123607D01*
X660185Y-123646D01*
X660166Y-123694D01*
X660147Y-123751D01*
X660118Y-123819D01*
X660041Y-123982D01*
X659945Y-124155D01*
X659830Y-124338D01*
X659676Y-124520D01*
X659503Y-124674D01*
X659494D01*
X659484Y-124693D01*
X659455Y-124713D01*
X659407Y-124732D01*
X659359Y-124761D01*
X659301Y-124799D01*
X659234Y-124828D01*
X659148Y-124866D01*
X658965Y-124934D01*
X658734Y-125001D01*
X658485Y-125039D01*
X658196Y-125058D01*
X658100D01*
X658033Y-125049D01*
X657946Y-125039D01*
X657850Y-125030D01*
X657745Y-125010D01*
X657620Y-124982D01*
X657370Y-124905D01*
X657235Y-124857D01*
X657110Y-124799D01*
X656976Y-124732D01*
X656851Y-124645D01*
X656726Y-124549D01*
X656611Y-124443D01*
X656601Y-124434D01*
X656582Y-124415D01*
X656553Y-124376D01*
X656524Y-124328D01*
X656476Y-124270D01*
X656428Y-124194D01*
X656370Y-124098D01*
X656322Y-123992D01*
X656265Y-123876D01*
X656207Y-123751D01*
X656159Y-123607D01*
X656120Y-123454D01*
X656082Y-123290D01*
X656053Y-123108D01*
X656034Y-122915D01*
X656024Y-122714D01*
Y-122704D01*
Y-122666D01*
Y-122598D01*
X656034Y-122521D01*
X656044Y-122425D01*
X656053Y-122310D01*
X656072Y-122185D01*
X656101Y-122050D01*
X656169Y-121762D01*
X656217Y-121618D01*
X656274Y-121464D01*
X656342Y-121320D01*
X656418Y-121176D01*
X656505Y-121042D01*
X656611Y-120917D01*
X656620Y-120907D01*
X656639Y-120888D01*
X656668Y-120859D01*
X656716Y-120811D01*
X656774Y-120763D01*
X656851Y-120715D01*
X656928Y-120657D01*
X657024Y-120590D01*
X657129Y-120532D01*
X657245Y-120475D01*
X657370Y-120426D01*
X657514Y-120369D01*
X657658Y-120330D01*
X657812Y-120301D01*
X657975Y-120282D01*
X658148Y-120273D01*
X658235D01*
X658302Y-120282D01*
D02*
G37*
G36*
X648019Y-118543D02*
X648096D01*
X648192Y-118552D01*
X648288Y-118572D01*
X648404Y-118581D01*
X648644Y-118639D01*
X648913Y-118716D01*
X649182Y-118812D01*
X649317Y-118879D01*
X649451Y-118956D01*
X649461D01*
X649480Y-118975D01*
X649518Y-118995D01*
X649567Y-119033D01*
X649624Y-119071D01*
X649691Y-119129D01*
X649845Y-119254D01*
X650018Y-119417D01*
X650201Y-119619D01*
X650364Y-119850D01*
X650518Y-120119D01*
Y-120129D01*
X650537Y-120157D01*
X650556Y-120196D01*
X650575Y-120254D01*
X650604Y-120321D01*
X650633Y-120407D01*
X650672Y-120503D01*
X650710Y-120609D01*
X650739Y-120734D01*
X650777Y-120859D01*
X650835Y-121147D01*
X650873Y-121464D01*
X650893Y-121810D01*
Y-121820D01*
Y-121849D01*
Y-121906D01*
X650883Y-121974D01*
Y-122060D01*
X650873Y-122156D01*
X650864Y-122262D01*
X650845Y-122387D01*
X650797Y-122656D01*
X650729Y-122944D01*
X650633Y-123242D01*
X650499Y-123530D01*
Y-123540D01*
X650479Y-123559D01*
X650460Y-123598D01*
X650431Y-123655D01*
X650383Y-123713D01*
X650335Y-123790D01*
X650220Y-123953D01*
X650066Y-124136D01*
X649874Y-124328D01*
X649653Y-124511D01*
X649403Y-124674D01*
X649394D01*
X649374Y-124693D01*
X649336Y-124713D01*
X649278Y-124732D01*
X649211Y-124761D01*
X649134Y-124799D01*
X649048Y-124828D01*
X648942Y-124866D01*
X648721Y-124934D01*
X648461Y-125001D01*
X648173Y-125039D01*
X647875Y-125058D01*
X647789D01*
X647721Y-125049D01*
X647645D01*
X647558Y-125039D01*
X647452Y-125020D01*
X647337Y-125001D01*
X647097Y-124953D01*
X646828Y-124876D01*
X646549Y-124770D01*
X646414Y-124713D01*
X646280Y-124636D01*
X646270Y-124626D01*
X646251Y-124616D01*
X646213Y-124588D01*
X646165Y-124559D01*
X646107Y-124511D01*
X646040Y-124463D01*
X645886Y-124328D01*
X645713Y-124155D01*
X645530Y-123963D01*
X645367Y-123723D01*
X645213Y-123463D01*
Y-123454D01*
X645194Y-123425D01*
X645184Y-123386D01*
X645155Y-123329D01*
X645127Y-123261D01*
X645098Y-123185D01*
X645069Y-123088D01*
X645040Y-122983D01*
X645002Y-122867D01*
X644973Y-122752D01*
X644915Y-122483D01*
X644877Y-122195D01*
X644858Y-121887D01*
Y-121868D01*
Y-121820D01*
X644867Y-121733D01*
Y-121628D01*
X644886Y-121493D01*
X644906Y-121339D01*
X644925Y-121176D01*
X644963Y-120984D01*
X645011Y-120792D01*
X645059Y-120590D01*
X645127Y-120388D01*
X645213Y-120186D01*
X645309Y-119984D01*
X645415Y-119783D01*
X645549Y-119600D01*
X645694Y-119427D01*
X645703Y-119417D01*
X645732Y-119389D01*
X645780Y-119341D01*
X645847Y-119283D01*
X645934Y-119216D01*
X646030Y-119148D01*
X646145Y-119062D01*
X646280Y-118975D01*
X646434Y-118898D01*
X646597Y-118812D01*
X646780Y-118745D01*
X646972Y-118668D01*
X647174Y-118620D01*
X647395Y-118572D01*
X647635Y-118543D01*
X647875Y-118533D01*
X647962D01*
X648019Y-118543D01*
D02*
G37*
G36*
X634767Y-120282D02*
X634854Y-120292D01*
X634940Y-120301D01*
X635046Y-120321D01*
X635161Y-120350D01*
X635401Y-120426D01*
X635526Y-120475D01*
X635661Y-120532D01*
X635786Y-120609D01*
X635911Y-120695D01*
X636036Y-120792D01*
X636151Y-120897D01*
X636161Y-120907D01*
X636180Y-120926D01*
X636209Y-120965D01*
X636247Y-121013D01*
X636295Y-121070D01*
X636343Y-121147D01*
X636401Y-121243D01*
X636458Y-121339D01*
X636507Y-121455D01*
X636564Y-121589D01*
X636612Y-121724D01*
X636660Y-121878D01*
X636699Y-122041D01*
X636728Y-122223D01*
X636747Y-122406D01*
X636756Y-122608D01*
Y-122617D01*
Y-122646D01*
Y-122694D01*
Y-122752D01*
X636747Y-122829D01*
Y-122915D01*
X636737Y-123012D01*
X636728Y-123117D01*
X636689Y-123338D01*
X636641Y-123569D01*
X636574Y-123800D01*
X636487Y-124001D01*
Y-124011D01*
X636478Y-124021D01*
X636439Y-124088D01*
X636372Y-124174D01*
X636285Y-124290D01*
X636180Y-124415D01*
X636045Y-124539D01*
X635891Y-124664D01*
X635709Y-124780D01*
X635699D01*
X635690Y-124789D01*
X635661Y-124809D01*
X635622Y-124818D01*
X635517Y-124866D01*
X635382Y-124914D01*
X635219Y-124972D01*
X635036Y-125010D01*
X634834Y-125049D01*
X634613Y-125058D01*
X634517D01*
X634450Y-125049D01*
X634373Y-125039D01*
X634277Y-125030D01*
X634171Y-125010D01*
X634056Y-124982D01*
X633816Y-124905D01*
X633681Y-124857D01*
X633556Y-124799D01*
X633422Y-124732D01*
X633297Y-124645D01*
X633172Y-124549D01*
X633056Y-124443D01*
X633047Y-124434D01*
X633028Y-124415D01*
X632999Y-124376D01*
X632970Y-124328D01*
X632922Y-124261D01*
X632874Y-124184D01*
X632816Y-124098D01*
X632768Y-123992D01*
X632711Y-123867D01*
X632653Y-123742D01*
X632605Y-123588D01*
X632566Y-123434D01*
X632528Y-123261D01*
X632499Y-123079D01*
X632480Y-122877D01*
X632470Y-122666D01*
Y-122646D01*
Y-122608D01*
X632480Y-122541D01*
Y-122454D01*
X632489Y-122348D01*
X632509Y-122233D01*
X632528Y-122099D01*
X632557Y-121954D01*
X632595Y-121801D01*
X632643Y-121647D01*
X632701Y-121493D01*
X632768Y-121339D01*
X632845Y-121186D01*
X632941Y-121042D01*
X633047Y-120907D01*
X633172Y-120782D01*
X633181Y-120772D01*
X633201Y-120763D01*
X633229Y-120734D01*
X633278Y-120705D01*
X633335Y-120667D01*
X633402Y-120619D01*
X633479Y-120571D01*
X633575Y-120523D01*
X633672Y-120484D01*
X633777Y-120436D01*
X634027Y-120350D01*
X634306Y-120292D01*
X634460Y-120282D01*
X634613Y-120273D01*
X634700D01*
X634767Y-120282D01*
D02*
G37*
G36*
X721238Y-119820D02*
X717510Y-119820D01*
Y-121761D01*
X720998Y-121761D01*
Y-122501D01*
X717510Y-122501D01*
Y-124654D01*
X721382Y-124654D01*
Y-125394D01*
X716674Y-125394D01*
Y-119080D01*
X721238Y-119080D01*
Y-119820D01*
D02*
G37*
G36*
X703498Y-120723D02*
X703633Y-120733D01*
X703787Y-120752D01*
X703950Y-120771D01*
X704104Y-120810D01*
X704248Y-120858D01*
X704267Y-120867D01*
X704305Y-120877D01*
X704373Y-120915D01*
X704450Y-120954D01*
X704536Y-121002D01*
X704632Y-121060D01*
X704709Y-121127D01*
X704786Y-121204D01*
X704796Y-121213D01*
X704815Y-121242D01*
X704844Y-121281D01*
X704882Y-121348D01*
X704920Y-121425D01*
X704959Y-121511D01*
X704997Y-121617D01*
X705026Y-121732D01*
Y-121742D01*
X705036Y-121771D01*
X705045Y-121819D01*
X705055Y-121896D01*
Y-121992D01*
X705065Y-122117D01*
X705074Y-122261D01*
Y-122443D01*
Y-123481D01*
Y-123491D01*
Y-123529D01*
Y-123587D01*
Y-123654D01*
Y-123741D01*
Y-123837D01*
X705084Y-124058D01*
Y-124298D01*
X705093Y-124519D01*
X705103Y-124625D01*
Y-124711D01*
X705113Y-124788D01*
X705122Y-124855D01*
Y-124865D01*
X705132Y-124904D01*
X705141Y-124961D01*
X705161Y-125029D01*
X705190Y-125105D01*
X705228Y-125201D01*
X705314Y-125394D01*
X704507D01*
X704498Y-125384D01*
X704488Y-125355D01*
X704469Y-125298D01*
X704440Y-125230D01*
X704411Y-125144D01*
X704392Y-125048D01*
X704373Y-124942D01*
X704354Y-124817D01*
X704334Y-124836D01*
X704277Y-124875D01*
X704200Y-124942D01*
X704084Y-125019D01*
X703960Y-125115D01*
X703815Y-125201D01*
X703671Y-125278D01*
X703517Y-125346D01*
X703498Y-125355D01*
X703450Y-125365D01*
X703373Y-125394D01*
X703267Y-125423D01*
X703133Y-125451D01*
X702989Y-125471D01*
X702835Y-125490D01*
X702662Y-125499D01*
X702595D01*
X702537Y-125490D01*
X702480D01*
X702403Y-125480D01*
X702239Y-125451D01*
X702047Y-125413D01*
X701864Y-125346D01*
X701672Y-125259D01*
X701509Y-125134D01*
X701490Y-125115D01*
X701442Y-125067D01*
X701384Y-124990D01*
X701307Y-124875D01*
X701230Y-124740D01*
X701173Y-124586D01*
X701124Y-124394D01*
X701105Y-124193D01*
Y-124173D01*
Y-124135D01*
X701115Y-124067D01*
X701124Y-123991D01*
X701144Y-123895D01*
X701163Y-123789D01*
X701201Y-123683D01*
X701249Y-123577D01*
X701259Y-123568D01*
X701278Y-123529D01*
X701307Y-123481D01*
X701355Y-123414D01*
X701413Y-123347D01*
X701490Y-123270D01*
X701567Y-123203D01*
X701653Y-123135D01*
X701663Y-123126D01*
X701701Y-123107D01*
X701749Y-123078D01*
X701816Y-123039D01*
X701903Y-122991D01*
X701989Y-122953D01*
X702095Y-122914D01*
X702210Y-122876D01*
X702220D01*
X702258Y-122866D01*
X702307Y-122857D01*
X702383Y-122837D01*
X702480Y-122818D01*
X702604Y-122799D01*
X702739Y-122780D01*
X702902Y-122761D01*
X702912D01*
X702941Y-122751D01*
X702989D01*
X703056Y-122741D01*
X703133Y-122732D01*
X703220Y-122722D01*
X703431Y-122684D01*
X703652Y-122645D01*
X703883Y-122607D01*
X704104Y-122549D01*
X704200Y-122520D01*
X704286Y-122492D01*
Y-122482D01*
Y-122463D01*
X704296Y-122405D01*
Y-122338D01*
Y-122309D01*
Y-122290D01*
Y-122280D01*
Y-122271D01*
Y-122213D01*
X704286Y-122126D01*
X704267Y-122030D01*
X704238Y-121924D01*
X704200Y-121809D01*
X704152Y-121713D01*
X704075Y-121627D01*
X704065Y-121617D01*
X704017Y-121588D01*
X703950Y-121540D01*
X703854Y-121492D01*
X703729Y-121444D01*
X703575Y-121396D01*
X703393Y-121367D01*
X703191Y-121358D01*
X703104D01*
X703008Y-121367D01*
X702883Y-121377D01*
X702749Y-121405D01*
X702624Y-121434D01*
X702489Y-121482D01*
X702383Y-121550D01*
X702374Y-121559D01*
X702345Y-121588D01*
X702297Y-121636D01*
X702239Y-121704D01*
X702172Y-121800D01*
X702114Y-121915D01*
X702047Y-122059D01*
X701999Y-122222D01*
X701240Y-122117D01*
Y-122107D01*
X701249Y-122098D01*
X701259Y-122040D01*
X701288Y-121953D01*
X701317Y-121838D01*
X701365Y-121713D01*
X701422Y-121588D01*
X701490Y-121454D01*
X701576Y-121338D01*
X701586Y-121329D01*
X701624Y-121290D01*
X701672Y-121233D01*
X701749Y-121165D01*
X701845Y-121098D01*
X701970Y-121021D01*
X702105Y-120944D01*
X702258Y-120877D01*
X702268D01*
X702278Y-120867D01*
X702307Y-120858D01*
X702335Y-120848D01*
X702431Y-120829D01*
X702556Y-120791D01*
X702710Y-120762D01*
X702883Y-120742D01*
X703085Y-120723D01*
X703296Y-120714D01*
X703393D01*
X703498Y-120723D01*
D02*
G37*
G36*
X693196Y-119089D02*
X693263D01*
X693427Y-119099D01*
X693610Y-119128D01*
X693802Y-119157D01*
X693994Y-119205D01*
X694167Y-119272D01*
X694176D01*
X694186Y-119282D01*
X694244Y-119311D01*
X694321Y-119359D01*
X694417Y-119416D01*
X694532Y-119503D01*
X694647Y-119608D01*
X694753Y-119724D01*
X694859Y-119868D01*
X694868Y-119887D01*
X694897Y-119935D01*
X694936Y-120022D01*
X694984Y-120127D01*
X695032Y-120252D01*
X695070Y-120387D01*
X695099Y-120541D01*
X695109Y-120704D01*
Y-120723D01*
Y-120771D01*
X695099Y-120848D01*
X695080Y-120954D01*
X695051Y-121069D01*
X695013Y-121194D01*
X694965Y-121338D01*
X694888Y-121473D01*
X694878Y-121492D01*
X694849Y-121530D01*
X694792Y-121598D01*
X694724Y-121675D01*
X694628Y-121771D01*
X694513Y-121857D01*
X694378Y-121953D01*
X694215Y-122040D01*
X694225D01*
X694244Y-122049D01*
X694273Y-122059D01*
X694311Y-122069D01*
X694417Y-122117D01*
X694542Y-122174D01*
X694686Y-122261D01*
X694830Y-122357D01*
X694974Y-122472D01*
X695099Y-122616D01*
X695109Y-122636D01*
X695147Y-122684D01*
X695195Y-122770D01*
X695262Y-122886D01*
X695320Y-123030D01*
X695368Y-123183D01*
X695407Y-123366D01*
X695416Y-123568D01*
Y-123587D01*
Y-123645D01*
X695407Y-123731D01*
X695397Y-123837D01*
X695368Y-123962D01*
X695339Y-124106D01*
X695291Y-124250D01*
X695224Y-124394D01*
X695214Y-124414D01*
X695195Y-124461D01*
X695147Y-124529D01*
X695099Y-124615D01*
X695032Y-124711D01*
X694955Y-124808D01*
X694859Y-124904D01*
X694763Y-124990D01*
X694753Y-125000D01*
X694715Y-125019D01*
X694657Y-125057D01*
X694570Y-125105D01*
X694474Y-125153D01*
X694349Y-125201D01*
X694215Y-125250D01*
X694071Y-125298D01*
X694052D01*
X693994Y-125317D01*
X693907Y-125326D01*
X693792Y-125346D01*
X693638Y-125365D01*
X693465Y-125374D01*
X693273Y-125394D01*
X690650D01*
Y-119080D01*
X693129D01*
X693196Y-119089D01*
D02*
G37*
G36*
X734260Y-120723D02*
X734337Y-120733D01*
X734433Y-120742D01*
X734529Y-120762D01*
X734644Y-120791D01*
X734875Y-120867D01*
X735000Y-120915D01*
X735125Y-120983D01*
X735250Y-121050D01*
X735374Y-121136D01*
X735490Y-121233D01*
X735605Y-121348D01*
X735615Y-121358D01*
X735634Y-121377D01*
X735663Y-121415D01*
X735701Y-121463D01*
X735740Y-121530D01*
X735788Y-121607D01*
X735845Y-121694D01*
X735903Y-121800D01*
X735951Y-121924D01*
X736009Y-122049D01*
X736057Y-122194D01*
X736105Y-122357D01*
X736134Y-122520D01*
X736163Y-122703D01*
X736182Y-122895D01*
X736191Y-123107D01*
Y-123116D01*
Y-123155D01*
Y-123222D01*
X736182Y-123308D01*
X732780D01*
Y-123318D01*
Y-123337D01*
X732790Y-123385D01*
Y-123433D01*
X732799Y-123501D01*
X732809Y-123568D01*
X732847Y-123741D01*
X732905Y-123923D01*
X732972Y-124116D01*
X733078Y-124308D01*
X733203Y-124471D01*
X733222Y-124490D01*
X733270Y-124529D01*
X733357Y-124596D01*
X733462Y-124663D01*
X733606Y-124740D01*
X733770Y-124808D01*
X733952Y-124846D01*
X734154Y-124865D01*
X734231D01*
X734308Y-124855D01*
X734404Y-124836D01*
X734519Y-124808D01*
X734644Y-124769D01*
X734769Y-124721D01*
X734884Y-124644D01*
X734894Y-124635D01*
X734933Y-124596D01*
X734990Y-124548D01*
X735057Y-124461D01*
X735134Y-124365D01*
X735211Y-124241D01*
X735288Y-124087D01*
X735365Y-123914D01*
X736163Y-124020D01*
Y-124029D01*
X736153Y-124048D01*
X736143Y-124087D01*
X736124Y-124135D01*
X736105Y-124192D01*
X736076Y-124260D01*
X735999Y-124423D01*
X735903Y-124596D01*
X735788Y-124779D01*
X735634Y-124961D01*
X735461Y-125115D01*
X735451D01*
X735442Y-125134D01*
X735413Y-125153D01*
X735365Y-125173D01*
X735317Y-125201D01*
X735259Y-125240D01*
X735192Y-125269D01*
X735106Y-125307D01*
X734923Y-125374D01*
X734692Y-125442D01*
X734442Y-125480D01*
X734154Y-125499D01*
X734058D01*
X733991Y-125490D01*
X733904Y-125480D01*
X733808Y-125471D01*
X733702Y-125451D01*
X733577Y-125423D01*
X733328Y-125346D01*
X733193Y-125298D01*
X733068Y-125240D01*
X732934Y-125173D01*
X732809Y-125086D01*
X732684Y-124990D01*
X732568Y-124884D01*
X732559Y-124875D01*
X732540Y-124855D01*
X732511Y-124817D01*
X732482Y-124769D01*
X732434Y-124711D01*
X732386Y-124635D01*
X732328Y-124538D01*
X732280Y-124433D01*
X732223Y-124317D01*
X732165Y-124192D01*
X732117Y-124048D01*
X732078Y-123895D01*
X732040Y-123731D01*
X732011Y-123549D01*
X731992Y-123356D01*
X731982Y-123155D01*
Y-123145D01*
Y-123107D01*
Y-123039D01*
X731992Y-122962D01*
X732001Y-122866D01*
X732011Y-122751D01*
X732030Y-122626D01*
X732059Y-122492D01*
X732126Y-122203D01*
X732174Y-122059D01*
X732232Y-121905D01*
X732299Y-121761D01*
X732376Y-121617D01*
X732463Y-121482D01*
X732568Y-121358D01*
X732578Y-121348D01*
X732597Y-121329D01*
X732626Y-121300D01*
X732674Y-121252D01*
X732732Y-121204D01*
X732809Y-121156D01*
X732886Y-121098D01*
X732982Y-121031D01*
X733087Y-120973D01*
X733203Y-120915D01*
X733328Y-120867D01*
X733472Y-120810D01*
X733616Y-120771D01*
X733770Y-120742D01*
X733933Y-120723D01*
X734106Y-120714D01*
X734193D01*
X734260Y-120723D01*
D02*
G37*
G36*
X698472Y-120723D02*
X698559Y-120733D01*
X698645Y-120742D01*
X698751Y-120762D01*
X698866Y-120791D01*
X699106Y-120867D01*
X699231Y-120915D01*
X699366Y-120973D01*
X699491Y-121050D01*
X699616Y-121136D01*
X699741Y-121233D01*
X699856Y-121338D01*
X699866Y-121348D01*
X699885Y-121367D01*
X699914Y-121405D01*
X699952Y-121454D01*
X700000Y-121511D01*
X700048Y-121588D01*
X700106Y-121684D01*
X700164Y-121780D01*
X700212Y-121896D01*
X700269Y-122030D01*
X700317Y-122165D01*
X700365Y-122318D01*
X700404Y-122482D01*
X700433Y-122664D01*
X700452Y-122847D01*
X700461Y-123049D01*
Y-123058D01*
Y-123087D01*
Y-123135D01*
Y-123193D01*
X700452Y-123270D01*
Y-123356D01*
X700442Y-123452D01*
X700433Y-123558D01*
X700394Y-123779D01*
X700346Y-124010D01*
X700279Y-124241D01*
X700192Y-124442D01*
Y-124452D01*
X700183Y-124461D01*
X700144Y-124529D01*
X700077Y-124615D01*
X699991Y-124731D01*
X699885Y-124855D01*
X699750Y-124980D01*
X699597Y-125105D01*
X699414Y-125221D01*
X699404D01*
X699395Y-125230D01*
X699366Y-125250D01*
X699327Y-125259D01*
X699222Y-125307D01*
X699087Y-125355D01*
X698924Y-125413D01*
X698741Y-125451D01*
X698539Y-125490D01*
X698318Y-125499D01*
X698222D01*
X698155Y-125490D01*
X698078Y-125480D01*
X697982Y-125471D01*
X697876Y-125451D01*
X697761Y-125423D01*
X697521Y-125346D01*
X697386Y-125298D01*
X697261Y-125240D01*
X697127Y-125173D01*
X697002Y-125086D01*
X696877Y-124990D01*
X696762Y-124884D01*
X696752Y-124875D01*
X696733Y-124855D01*
X696704Y-124817D01*
X696675Y-124769D01*
X696627Y-124702D01*
X696579Y-124625D01*
X696521Y-124538D01*
X696473Y-124433D01*
X696416Y-124308D01*
X696358Y-124183D01*
X696310Y-124029D01*
X696272Y-123875D01*
X696233Y-123702D01*
X696204Y-123520D01*
X696185Y-123318D01*
X696175Y-123107D01*
Y-123087D01*
Y-123049D01*
X696185Y-122982D01*
Y-122895D01*
X696195Y-122789D01*
X696214Y-122674D01*
X696233Y-122539D01*
X696262Y-122395D01*
X696300Y-122242D01*
X696348Y-122088D01*
X696406Y-121934D01*
X696473Y-121780D01*
X696550Y-121627D01*
X696646Y-121482D01*
X696752Y-121348D01*
X696877Y-121223D01*
X696886Y-121213D01*
X696906Y-121204D01*
X696935Y-121175D01*
X696983Y-121146D01*
X697040Y-121108D01*
X697108Y-121060D01*
X697184Y-121011D01*
X697281Y-120964D01*
X697377Y-120925D01*
X697482Y-120877D01*
X697732Y-120791D01*
X698011Y-120733D01*
X698165Y-120723D01*
X698318Y-120714D01*
X698405D01*
X698472Y-120723D01*
D02*
G37*
G36*
X729147Y-120723D02*
X729214Y-120733D01*
X729301Y-120752D01*
X729484Y-120800D01*
X729589Y-120829D01*
X729695Y-120877D01*
X729810Y-120925D01*
X729926Y-120992D01*
X730031Y-121069D01*
X730147Y-121156D01*
X730252Y-121261D01*
X730348Y-121377D01*
Y-120819D01*
X731060D01*
Y-124779D01*
Y-124788D01*
Y-124827D01*
Y-124875D01*
Y-124952D01*
X731050Y-125038D01*
Y-125134D01*
X731040Y-125250D01*
X731031Y-125365D01*
X731002Y-125605D01*
X730964Y-125855D01*
X730915Y-126086D01*
X730877Y-126191D01*
X730839Y-126278D01*
Y-126287D01*
X730829Y-126297D01*
X730800Y-126355D01*
X730743Y-126432D01*
X730675Y-126537D01*
X730579Y-126653D01*
X730464Y-126768D01*
X730320Y-126883D01*
X730156Y-126989D01*
X730147D01*
X730137Y-126999D01*
X730108Y-127008D01*
X730070Y-127027D01*
X729974Y-127075D01*
X729839Y-127114D01*
X729666Y-127162D01*
X729464Y-127210D01*
X729243Y-127239D01*
X728994Y-127248D01*
X728917D01*
X728859Y-127239D01*
X728792D01*
X728705Y-127229D01*
X728523Y-127200D01*
X728311Y-127152D01*
X728090Y-127095D01*
X727869Y-126999D01*
X727667Y-126874D01*
X727658D01*
X727648Y-126854D01*
X727590Y-126806D01*
X727514Y-126720D01*
X727418Y-126595D01*
X727331Y-126441D01*
X727254Y-126249D01*
X727206Y-126028D01*
X727187Y-125903D01*
Y-125768D01*
X727936Y-125874D01*
Y-125893D01*
X727946Y-125932D01*
X727965Y-125989D01*
X727985Y-126066D01*
X728023Y-126153D01*
X728071Y-126239D01*
X728129Y-126316D01*
X728205Y-126383D01*
X728215Y-126393D01*
X728263Y-126422D01*
X728321Y-126451D01*
X728417Y-126489D01*
X728523Y-126537D01*
X728657Y-126566D01*
X728821Y-126595D01*
X728994Y-126604D01*
X729080D01*
X729176Y-126595D01*
X729301Y-126576D01*
X729436Y-126547D01*
X729570Y-126508D01*
X729705Y-126460D01*
X729820Y-126383D01*
X729830Y-126374D01*
X729868Y-126345D01*
X729916Y-126297D01*
X729983Y-126230D01*
X730051Y-126143D01*
X730108Y-126047D01*
X730166Y-125922D01*
X730214Y-125788D01*
Y-125778D01*
X730224Y-125740D01*
X730233Y-125672D01*
X730243Y-125576D01*
X730262Y-125442D01*
Y-125355D01*
X730272Y-125269D01*
Y-125163D01*
Y-125057D01*
Y-124932D01*
Y-124798D01*
X730262Y-124808D01*
X730252Y-124827D01*
X730224Y-124855D01*
X730185Y-124894D01*
X730127Y-124932D01*
X730070Y-124990D01*
X729926Y-125096D01*
X729743Y-125201D01*
X729522Y-125298D01*
X729407Y-125336D01*
X729282Y-125365D01*
X729147Y-125384D01*
X729013Y-125394D01*
X728926D01*
X728859Y-125384D01*
X728782Y-125374D01*
X728686Y-125355D01*
X728590Y-125336D01*
X728475Y-125307D01*
X728359Y-125278D01*
X728244Y-125230D01*
X728119Y-125173D01*
X728004Y-125105D01*
X727879Y-125029D01*
X727763Y-124942D01*
X727658Y-124836D01*
X727552Y-124721D01*
X727542Y-124711D01*
X727533Y-124692D01*
X727504Y-124654D01*
X727475Y-124596D01*
X727437Y-124529D01*
X727389Y-124452D01*
X727341Y-124365D01*
X727292Y-124260D01*
X727245Y-124144D01*
X727196Y-124020D01*
X727158Y-123885D01*
X727110Y-123741D01*
X727052Y-123433D01*
X727043Y-123260D01*
X727033Y-123087D01*
Y-123078D01*
Y-123058D01*
Y-123020D01*
Y-122972D01*
X727043Y-122914D01*
Y-122847D01*
X727062Y-122693D01*
X727091Y-122501D01*
X727129Y-122299D01*
X727187Y-122088D01*
X727264Y-121876D01*
Y-121867D01*
X727273Y-121848D01*
X727292Y-121819D01*
X727312Y-121780D01*
X727360Y-121684D01*
X727437Y-121559D01*
X727542Y-121425D01*
X727658Y-121281D01*
X727792Y-121146D01*
X727956Y-121021D01*
X727965D01*
X727975Y-121011D01*
X728004Y-120992D01*
X728032Y-120973D01*
X728129Y-120925D01*
X728254Y-120867D01*
X728417Y-120810D01*
X728590Y-120762D01*
X728792Y-120723D01*
X729013Y-120714D01*
X729090D01*
X729147Y-120723D01*
D02*
G37*
%LPC*%
G36*
X28537Y84996D02*
X28117D01*
Y84912D01*
X28033D01*
Y81890D01*
X28705D01*
Y84828D01*
X28620D01*
Y84912D01*
X28537D01*
Y84996D01*
D02*
G37*
G36*
X27110Y84912D02*
X26607D01*
Y84828D01*
X26523D01*
Y81890D01*
X27194D01*
Y84828D01*
X27110D01*
Y84912D01*
D02*
G37*
G36*
X639707Y-120878D02*
X639572D01*
X639534Y-120888D01*
X639447Y-120907D01*
X639322Y-120936D01*
X639188Y-120993D01*
X639044Y-121080D01*
X638967Y-121128D01*
X638890Y-121195D01*
X638813Y-121263D01*
X638746Y-121349D01*
Y-121359D01*
X638726Y-121368D01*
X638707Y-121397D01*
X638688Y-121435D01*
X638659Y-121484D01*
X638630Y-121541D01*
X638592Y-121608D01*
X638563Y-121685D01*
X638525Y-121782D01*
X638486Y-121878D01*
X638457Y-121993D01*
X638428Y-122108D01*
X638409Y-122243D01*
X638390Y-122387D01*
X638371Y-122531D01*
Y-122694D01*
Y-122704D01*
Y-122733D01*
Y-122781D01*
X638380Y-122839D01*
Y-122915D01*
X638390Y-122992D01*
X638419Y-123185D01*
X638457Y-123406D01*
X638515Y-123617D01*
X638601Y-123819D01*
X638659Y-123915D01*
X638717Y-124001D01*
X638736Y-124021D01*
X638784Y-124069D01*
X638861Y-124136D01*
X638957Y-124213D01*
X639082Y-124290D01*
X639236Y-124357D01*
X639399Y-124405D01*
X639486Y-124415D01*
X639582Y-124424D01*
X639630D01*
X639668Y-124415D01*
X639764Y-124405D01*
X639880Y-124367D01*
X640024Y-124319D01*
X640168Y-124242D01*
X640312Y-124136D01*
X640389Y-124069D01*
X640456Y-123992D01*
Y-123982D01*
X640475Y-123973D01*
X640495Y-123944D01*
X640514Y-123905D01*
X640543Y-123857D01*
X640571Y-123800D01*
X640610Y-123732D01*
X640648Y-123655D01*
X640677Y-123569D01*
X640716Y-123463D01*
X640744Y-123357D01*
X640773Y-123233D01*
X640793Y-123098D01*
X640812Y-122954D01*
X640831Y-122800D01*
Y-122637D01*
Y-122627D01*
Y-122598D01*
Y-122550D01*
X640821Y-122493D01*
Y-122416D01*
X640812Y-122329D01*
X640783Y-122137D01*
X640744Y-121926D01*
X640677Y-121705D01*
X640591Y-121503D01*
X640533Y-121407D01*
X640466Y-121320D01*
Y-121311D01*
X640447Y-121301D01*
X640399Y-121253D01*
X640331Y-121176D01*
X640226Y-121099D01*
X640101Y-121022D01*
X639957Y-120945D01*
X639793Y-120897D01*
X639707Y-120878D01*
D02*
G37*
G36*
X724246Y-121358D02*
X724102D01*
X724064Y-121367D01*
X723968Y-121377D01*
X723852Y-121405D01*
X723718Y-121463D01*
X723573Y-121540D01*
X723429Y-121636D01*
X723362Y-121703D01*
X723295Y-121780D01*
X723276Y-121800D01*
X723266Y-121828D01*
X723237Y-121857D01*
X723218Y-121905D01*
X723189Y-121963D01*
X723151Y-122030D01*
X723122Y-122107D01*
X723093Y-122194D01*
X723055Y-122290D01*
X723026Y-122405D01*
X723006Y-122520D01*
X722978Y-122655D01*
X722968Y-122799D01*
X722949Y-122953D01*
Y-123116D01*
Y-123126D01*
Y-123155D01*
Y-123203D01*
X722958Y-123260D01*
Y-123337D01*
X722968Y-123414D01*
X722997Y-123616D01*
X723035Y-123827D01*
X723103Y-124048D01*
X723189Y-124250D01*
X723247Y-124346D01*
X723314Y-124433D01*
X723333Y-124452D01*
X723381Y-124500D01*
X723458Y-124567D01*
X723564Y-124644D01*
X723689Y-124731D01*
X723833Y-124798D01*
X724006Y-124846D01*
X724092Y-124855D01*
X724189Y-124865D01*
X724237D01*
X724275Y-124855D01*
X724371Y-124846D01*
X724486Y-124817D01*
X724621Y-124759D01*
X724765Y-124692D01*
X724919Y-124586D01*
X724986Y-124529D01*
X725053Y-124452D01*
Y-124442D01*
X725073Y-124433D01*
X725082Y-124404D01*
X725111Y-124375D01*
X725140Y-124327D01*
X725169Y-124279D01*
X725198Y-124212D01*
X725236Y-124135D01*
X725265Y-124058D01*
X725294Y-123962D01*
X725322Y-123856D01*
X725351Y-123741D01*
X725380Y-123616D01*
X725390Y-123481D01*
X725409Y-123337D01*
Y-123183D01*
Y-123174D01*
Y-123145D01*
Y-123097D01*
X725399Y-123030D01*
Y-122953D01*
X725390Y-122866D01*
X725361Y-122655D01*
X725322Y-122434D01*
X725255Y-122203D01*
X725169Y-121982D01*
X725111Y-121886D01*
X725044Y-121800D01*
Y-121790D01*
X725025Y-121780D01*
X724976Y-121732D01*
X724900Y-121655D01*
X724794Y-121579D01*
X724669Y-121502D01*
X724515Y-121425D01*
X724342Y-121377D01*
X724246Y-121358D01*
D02*
G37*
G36*
X711013Y-121358D02*
X710869D01*
X710831Y-121367D01*
X710735Y-121377D01*
X710619Y-121405D01*
X710485Y-121463D01*
X710340Y-121540D01*
X710196Y-121636D01*
X710129Y-121704D01*
X710062Y-121780D01*
X710043Y-121800D01*
X710033Y-121828D01*
X710004Y-121857D01*
X709985Y-121905D01*
X709956Y-121963D01*
X709918Y-122030D01*
X709889Y-122107D01*
X709860Y-122194D01*
X709822Y-122290D01*
X709793Y-122405D01*
X709773Y-122520D01*
X709745Y-122655D01*
X709735Y-122799D01*
X709716Y-122953D01*
Y-123116D01*
Y-123126D01*
Y-123155D01*
Y-123203D01*
X709726Y-123260D01*
Y-123337D01*
X709735Y-123414D01*
X709764Y-123616D01*
X709802Y-123827D01*
X709870Y-124048D01*
X709956Y-124250D01*
X710014Y-124346D01*
X710081Y-124433D01*
X710100Y-124452D01*
X710148Y-124500D01*
X710225Y-124567D01*
X710331Y-124644D01*
X710456Y-124731D01*
X710600Y-124798D01*
X710773Y-124846D01*
X710859Y-124855D01*
X710955Y-124865D01*
X711004D01*
X711042Y-124855D01*
X711138Y-124846D01*
X711253Y-124817D01*
X711388Y-124759D01*
X711532Y-124692D01*
X711686Y-124586D01*
X711753Y-124529D01*
X711820Y-124452D01*
Y-124442D01*
X711840Y-124433D01*
X711849Y-124404D01*
X711878Y-124375D01*
X711907Y-124327D01*
X711936Y-124279D01*
X711965Y-124212D01*
X712003Y-124135D01*
X712032Y-124058D01*
X712061Y-123962D01*
X712089Y-123856D01*
X712118Y-123741D01*
X712147Y-123616D01*
X712157Y-123481D01*
X712176Y-123337D01*
Y-123183D01*
Y-123174D01*
Y-123145D01*
Y-123097D01*
X712166Y-123030D01*
Y-122953D01*
X712157Y-122866D01*
X712128Y-122655D01*
X712089Y-122434D01*
X712022Y-122203D01*
X711936Y-121982D01*
X711878Y-121886D01*
X711811Y-121800D01*
Y-121790D01*
X711792Y-121780D01*
X711744Y-121732D01*
X711667Y-121655D01*
X711561Y-121579D01*
X711436Y-121502D01*
X711282Y-121425D01*
X711109Y-121377D01*
X711013Y-121358D01*
D02*
G37*
G36*
X668988Y-122656D02*
X668969Y-122666D01*
X668940Y-122675D01*
X668911Y-122685D01*
X668863Y-122704D01*
X668806Y-122714D01*
X668748Y-122733D01*
X668671Y-122762D01*
X668585Y-122781D01*
X668489Y-122800D01*
X668393Y-122829D01*
X668277Y-122858D01*
X668152Y-122877D01*
X668018Y-122906D01*
X667873Y-122925D01*
X667720Y-122954D01*
X667700D01*
X667643Y-122964D01*
X667556Y-122983D01*
X667451Y-123002D01*
X667230Y-123050D01*
X667124Y-123079D01*
X667037Y-123108D01*
X667028D01*
X667009Y-123127D01*
X666970Y-123146D01*
X666932Y-123175D01*
X666836Y-123252D01*
X666740Y-123367D01*
Y-123377D01*
X666720Y-123396D01*
X666711Y-123425D01*
X666691Y-123473D01*
X666653Y-123588D01*
X666643Y-123655D01*
X666634Y-123732D01*
Y-123742D01*
Y-123780D01*
X666643Y-123838D01*
X666663Y-123915D01*
X666691Y-123992D01*
X666730Y-124078D01*
X666788Y-124165D01*
X666864Y-124251D01*
X666874Y-124261D01*
X666913Y-124280D01*
X666961Y-124319D01*
X667037Y-124347D01*
X667134Y-124386D01*
X667259Y-124424D01*
X667393Y-124443D01*
X667556Y-124453D01*
X667633D01*
X667710Y-124443D01*
X667826Y-124424D01*
X667941Y-124405D01*
X668075Y-124376D01*
X668210Y-124328D01*
X668344Y-124261D01*
X668364Y-124251D01*
X668402Y-124222D01*
X668469Y-124184D01*
X668546Y-124117D01*
X668623Y-124049D01*
X668710Y-123953D01*
X668796Y-123848D01*
X668863Y-123723D01*
X668873Y-123713D01*
X668883Y-123675D01*
X668902Y-123617D01*
X668931Y-123530D01*
X668950Y-123415D01*
X668969Y-123281D01*
X668979Y-123127D01*
X668988Y-122944D01*
Y-122656D01*
D02*
G37*
G36*
X658158Y-120907D02*
X658110D01*
X658071Y-120917D01*
X657966Y-120926D01*
X657841Y-120955D01*
X657696Y-120993D01*
X657552Y-121061D01*
X657399Y-121147D01*
X657255Y-121272D01*
X657235Y-121291D01*
X657197Y-121339D01*
X657139Y-121416D01*
X657072Y-121532D01*
X657005Y-121666D01*
X656937Y-121829D01*
X656889Y-122022D01*
X656860Y-122233D01*
X659417D01*
Y-122223D01*
Y-122204D01*
X659407Y-122176D01*
Y-122137D01*
X659388Y-122031D01*
X659359Y-121906D01*
X659321Y-121772D01*
X659263Y-121628D01*
X659205Y-121484D01*
X659119Y-121368D01*
Y-121359D01*
X659100Y-121349D01*
X659052Y-121291D01*
X658965Y-121224D01*
X658859Y-121138D01*
X658715Y-121051D01*
X658552Y-120974D01*
X658369Y-120926D01*
X658263Y-120917D01*
X658158Y-120907D01*
D02*
G37*
G36*
X647875Y-119254D02*
X647789D01*
X647731Y-119264D01*
X647654Y-119273D01*
X647558Y-119283D01*
X647462Y-119302D01*
X647356Y-119331D01*
X647116Y-119408D01*
X646991Y-119456D01*
X646866Y-119513D01*
X646732Y-119581D01*
X646607Y-119667D01*
X646482Y-119763D01*
X646357Y-119869D01*
X646347Y-119879D01*
X646328Y-119898D01*
X646299Y-119936D01*
X646261Y-119984D01*
X646213Y-120052D01*
X646155Y-120138D01*
X646097Y-120234D01*
X646040Y-120350D01*
X645982Y-120484D01*
X645924Y-120628D01*
X645867Y-120792D01*
X645819Y-120984D01*
X645780Y-121186D01*
X645751Y-121397D01*
X645732Y-121637D01*
X645722Y-121897D01*
Y-121906D01*
Y-121945D01*
Y-122002D01*
X645732Y-122089D01*
X645742Y-122185D01*
X645751Y-122291D01*
X645771Y-122416D01*
X645799Y-122550D01*
X645867Y-122839D01*
X645924Y-122983D01*
X645982Y-123136D01*
X646049Y-123281D01*
X646126Y-123425D01*
X646222Y-123569D01*
X646328Y-123694D01*
X646338Y-123704D01*
X646357Y-123723D01*
X646395Y-123751D01*
X646443Y-123800D01*
X646501Y-123848D01*
X646568Y-123896D01*
X646655Y-123963D01*
X646751Y-124021D01*
X646856Y-124078D01*
X646972Y-124136D01*
X647097Y-124194D01*
X647241Y-124242D01*
X647385Y-124290D01*
X647539Y-124319D01*
X647692Y-124338D01*
X647865Y-124347D01*
X647952D01*
X648019Y-124338D01*
X648106Y-124328D01*
X648192Y-124309D01*
X648298Y-124290D01*
X648413Y-124261D01*
X648654Y-124184D01*
X648788Y-124136D01*
X648913Y-124069D01*
X649048Y-123992D01*
X649172Y-123905D01*
X649297Y-123809D01*
X649413Y-123694D01*
X649422Y-123684D01*
X649441Y-123665D01*
X649470Y-123627D01*
X649509Y-123569D01*
X649557Y-123502D01*
X649605Y-123415D01*
X649663Y-123319D01*
X649720Y-123213D01*
X649778Y-123079D01*
X649835Y-122944D01*
X649884Y-122791D01*
X649932Y-122617D01*
X649970Y-122435D01*
X649999Y-122243D01*
X650018Y-122031D01*
X650028Y-121810D01*
Y-121801D01*
Y-121772D01*
Y-121733D01*
Y-121685D01*
X650018Y-121618D01*
Y-121532D01*
X649999Y-121349D01*
X649961Y-121147D01*
X649912Y-120917D01*
X649845Y-120686D01*
X649759Y-120465D01*
Y-120455D01*
X649749Y-120436D01*
X649730Y-120407D01*
X649711Y-120369D01*
X649653Y-120263D01*
X649567Y-120138D01*
X649461Y-119994D01*
X649326Y-119840D01*
X649172Y-119696D01*
X649000Y-119571D01*
X648990D01*
X648980Y-119562D01*
X648951Y-119542D01*
X648913Y-119523D01*
X648807Y-119475D01*
X648673Y-119408D01*
X648509Y-119350D01*
X648317Y-119302D01*
X648106Y-119264D01*
X647875Y-119254D01*
D02*
G37*
G36*
X634719Y-120917D02*
X634556D01*
X634517Y-120926D01*
X634411Y-120936D01*
X634277Y-120974D01*
X634123Y-121022D01*
X633960Y-121099D01*
X633797Y-121214D01*
X633720Y-121282D01*
X633643Y-121359D01*
X633624Y-121378D01*
X633604Y-121407D01*
X633585Y-121435D01*
X633556Y-121484D01*
X633527Y-121541D01*
X633489Y-121608D01*
X633460Y-121685D01*
X633422Y-121772D01*
X633383Y-121868D01*
X633354Y-121974D01*
X633326Y-122099D01*
X633306Y-122223D01*
X633287Y-122368D01*
X633268Y-122512D01*
Y-122675D01*
Y-122685D01*
Y-122714D01*
Y-122762D01*
X633278Y-122819D01*
Y-122887D01*
X633287Y-122973D01*
X633316Y-123165D01*
X633364Y-123377D01*
X633422Y-123598D01*
X633518Y-123809D01*
X633575Y-123905D01*
X633643Y-123992D01*
X633662Y-124011D01*
X633710Y-124059D01*
X633797Y-124126D01*
X633912Y-124203D01*
X634046Y-124290D01*
X634219Y-124357D01*
X634402Y-124405D01*
X634508Y-124415D01*
X634613Y-124424D01*
X634671D01*
X634709Y-124415D01*
X634815Y-124405D01*
X634950Y-124367D01*
X635103Y-124319D01*
X635267Y-124242D01*
X635421Y-124136D01*
X635497Y-124069D01*
X635574Y-123992D01*
Y-123982D01*
X635594Y-123973D01*
X635613Y-123944D01*
X635632Y-123905D01*
X635661Y-123857D01*
X635699Y-123800D01*
X635728Y-123732D01*
X635767Y-123655D01*
X635805Y-123569D01*
X635834Y-123473D01*
X635872Y-123357D01*
X635901Y-123233D01*
X635920Y-123108D01*
X635940Y-122964D01*
X635959Y-122810D01*
Y-122646D01*
Y-122637D01*
Y-122608D01*
Y-122570D01*
X635949Y-122502D01*
Y-122435D01*
X635940Y-122358D01*
X635911Y-122166D01*
X635863Y-121964D01*
X635795Y-121743D01*
X635699Y-121541D01*
X635565Y-121359D01*
Y-121349D01*
X635545Y-121339D01*
X635497Y-121291D01*
X635411Y-121214D01*
X635305Y-121138D01*
X635161Y-121061D01*
X634998Y-120984D01*
X634815Y-120936D01*
X634719Y-120917D01*
D02*
G37*
G36*
X704286Y-123097D02*
X704267Y-123107D01*
X704238Y-123116D01*
X704209Y-123126D01*
X704161Y-123145D01*
X704104Y-123155D01*
X704046Y-123174D01*
X703969Y-123203D01*
X703883Y-123222D01*
X703787Y-123241D01*
X703690Y-123270D01*
X703575Y-123299D01*
X703450Y-123318D01*
X703316Y-123347D01*
X703171Y-123366D01*
X703018Y-123395D01*
X702998D01*
X702941Y-123404D01*
X702854Y-123424D01*
X702749Y-123443D01*
X702528Y-123491D01*
X702422Y-123520D01*
X702335Y-123549D01*
X702326D01*
X702307Y-123568D01*
X702268Y-123587D01*
X702230Y-123616D01*
X702134Y-123693D01*
X702037Y-123808D01*
Y-123818D01*
X702018Y-123837D01*
X702009Y-123866D01*
X701989Y-123914D01*
X701951Y-124029D01*
X701941Y-124096D01*
X701932Y-124173D01*
Y-124183D01*
Y-124221D01*
X701941Y-124279D01*
X701961Y-124356D01*
X701989Y-124433D01*
X702028Y-124519D01*
X702085Y-124606D01*
X702162Y-124692D01*
X702172Y-124702D01*
X702210Y-124721D01*
X702258Y-124759D01*
X702335Y-124788D01*
X702431Y-124827D01*
X702556Y-124865D01*
X702691Y-124884D01*
X702854Y-124894D01*
X702931D01*
X703008Y-124884D01*
X703123Y-124865D01*
X703239Y-124846D01*
X703373Y-124817D01*
X703508Y-124769D01*
X703642Y-124702D01*
X703661Y-124692D01*
X703700Y-124663D01*
X703767Y-124625D01*
X703844Y-124558D01*
X703921Y-124490D01*
X704007Y-124394D01*
X704094Y-124289D01*
X704161Y-124164D01*
X704171Y-124154D01*
X704180Y-124116D01*
X704200Y-124058D01*
X704228Y-123971D01*
X704248Y-123856D01*
X704267Y-123722D01*
X704277Y-123568D01*
X704286Y-123385D01*
Y-123097D01*
D02*
G37*
G36*
X692975Y-119820D02*
X691486D01*
Y-121742D01*
X693033D01*
X693148Y-121732D01*
X693283Y-121723D01*
X693417Y-121713D01*
X693533Y-121694D01*
X693638Y-121675D01*
X693648Y-121665D01*
X693686Y-121655D01*
X693744Y-121636D01*
X693821Y-121598D01*
X693898Y-121559D01*
X693975Y-121502D01*
X694052Y-121434D01*
X694119Y-121358D01*
X694128Y-121348D01*
X694148Y-121319D01*
X694167Y-121271D01*
X694205Y-121204D01*
X694234Y-121127D01*
X694253Y-121031D01*
X694273Y-120925D01*
X694282Y-120800D01*
Y-120791D01*
Y-120742D01*
X694273Y-120685D01*
X694263Y-120608D01*
X694244Y-120521D01*
X694215Y-120435D01*
X694176Y-120339D01*
X694128Y-120243D01*
X694119Y-120233D01*
X694100Y-120204D01*
X694061Y-120166D01*
X694013Y-120108D01*
X693956Y-120060D01*
X693879Y-120002D01*
X693792Y-119954D01*
X693696Y-119916D01*
X693686D01*
X693638Y-119897D01*
X693571Y-119887D01*
X693475Y-119868D01*
X693340Y-119849D01*
X693177Y-119839D01*
X692975Y-119820D01*
D02*
G37*
G36*
X693148Y-122482D02*
X691486D01*
Y-124654D01*
X693273D01*
X693465Y-124644D01*
X693552Y-124635D01*
X693619Y-124625D01*
X693629D01*
X693667Y-124615D01*
X693725Y-124606D01*
X693792Y-124586D01*
X693946Y-124538D01*
X694100Y-124461D01*
X694109Y-124452D01*
X694138Y-124442D01*
X694167Y-124414D01*
X694215Y-124365D01*
X694273Y-124317D01*
X694321Y-124260D01*
X694378Y-124183D01*
X694426Y-124106D01*
X694436Y-124096D01*
X694446Y-124067D01*
X694465Y-124020D01*
X694494Y-123952D01*
X694513Y-123875D01*
X694532Y-123779D01*
X694542Y-123683D01*
X694551Y-123568D01*
Y-123549D01*
Y-123510D01*
X694542Y-123443D01*
X694532Y-123366D01*
X694503Y-123270D01*
X694474Y-123164D01*
X694426Y-123058D01*
X694359Y-122962D01*
X694349Y-122953D01*
X694330Y-122914D01*
X694282Y-122876D01*
X694225Y-122818D01*
X694157Y-122751D01*
X694071Y-122693D01*
X693975Y-122636D01*
X693859Y-122588D01*
X693840Y-122578D01*
X693802Y-122568D01*
X693725Y-122549D01*
X693629Y-122530D01*
X693494Y-122511D01*
X693340Y-122501D01*
X693148Y-122482D01*
D02*
G37*
G36*
X734116Y-121348D02*
X734068D01*
X734029Y-121358D01*
X733923Y-121367D01*
X733799Y-121396D01*
X733654Y-121434D01*
X733510Y-121502D01*
X733357Y-121588D01*
X733212Y-121713D01*
X733193Y-121732D01*
X733155Y-121780D01*
X733097Y-121857D01*
X733030Y-121973D01*
X732962Y-122107D01*
X732895Y-122270D01*
X732847Y-122463D01*
X732818Y-122674D01*
X735374D01*
Y-122664D01*
Y-122645D01*
X735365Y-122616D01*
Y-122578D01*
X735346Y-122472D01*
X735317Y-122347D01*
X735278Y-122213D01*
X735221Y-122069D01*
X735163Y-121924D01*
X735077Y-121809D01*
Y-121800D01*
X735057Y-121790D01*
X735009Y-121732D01*
X734923Y-121665D01*
X734817Y-121579D01*
X734673Y-121492D01*
X734510Y-121415D01*
X734327Y-121367D01*
X734221Y-121358D01*
X734116Y-121348D01*
D02*
G37*
G36*
X698424Y-121358D02*
X698261D01*
X698222Y-121367D01*
X698117Y-121377D01*
X697982Y-121415D01*
X697828Y-121463D01*
X697665Y-121540D01*
X697502Y-121655D01*
X697425Y-121723D01*
X697348Y-121800D01*
X697329Y-121819D01*
X697309Y-121848D01*
X697290Y-121876D01*
X697261Y-121924D01*
X697232Y-121982D01*
X697194Y-122049D01*
X697165Y-122126D01*
X697127Y-122213D01*
X697088Y-122309D01*
X697059Y-122415D01*
X697031Y-122539D01*
X697011Y-122664D01*
X696992Y-122809D01*
X696973Y-122953D01*
Y-123116D01*
Y-123126D01*
Y-123155D01*
Y-123203D01*
X696983Y-123260D01*
Y-123328D01*
X696992Y-123414D01*
X697021Y-123606D01*
X697069Y-123818D01*
X697127Y-124039D01*
X697223Y-124250D01*
X697281Y-124346D01*
X697348Y-124433D01*
X697367Y-124452D01*
X697415Y-124500D01*
X697502Y-124567D01*
X697617Y-124644D01*
X697751Y-124731D01*
X697924Y-124798D01*
X698107Y-124846D01*
X698213Y-124855D01*
X698318Y-124865D01*
X698376D01*
X698415Y-124855D01*
X698520Y-124846D01*
X698655Y-124808D01*
X698808Y-124759D01*
X698972Y-124683D01*
X699126Y-124577D01*
X699202Y-124510D01*
X699279Y-124433D01*
Y-124423D01*
X699299Y-124414D01*
X699318Y-124385D01*
X699337Y-124346D01*
X699366Y-124298D01*
X699404Y-124241D01*
X699433Y-124173D01*
X699472Y-124096D01*
X699510Y-124010D01*
X699539Y-123914D01*
X699577Y-123798D01*
X699606Y-123673D01*
X699625Y-123549D01*
X699645Y-123404D01*
X699664Y-123251D01*
Y-123087D01*
Y-123078D01*
Y-123049D01*
Y-123010D01*
X699654Y-122943D01*
Y-122876D01*
X699645Y-122799D01*
X699616Y-122607D01*
X699568Y-122405D01*
X699500Y-122184D01*
X699404Y-121982D01*
X699270Y-121800D01*
Y-121790D01*
X699251Y-121780D01*
X699202Y-121732D01*
X699116Y-121655D01*
X699010Y-121579D01*
X698866Y-121502D01*
X698703Y-121425D01*
X698520Y-121377D01*
X698424Y-121358D01*
D02*
G37*
G36*
X729167Y-121358D02*
X729022D01*
X728984Y-121367D01*
X728888Y-121377D01*
X728763Y-121405D01*
X728628Y-121463D01*
X728475Y-121540D01*
X728330Y-121636D01*
X728254Y-121703D01*
X728186Y-121780D01*
X728167Y-121800D01*
X728157Y-121828D01*
X728129Y-121857D01*
X728100Y-121905D01*
X728071Y-121953D01*
X728042Y-122021D01*
X728013Y-122098D01*
X727975Y-122174D01*
X727946Y-122270D01*
X727917Y-122376D01*
X727888Y-122482D01*
X727850Y-122741D01*
X727831Y-123030D01*
Y-123039D01*
Y-123068D01*
Y-123116D01*
X727840Y-123174D01*
Y-123251D01*
X727850Y-123337D01*
X727879Y-123529D01*
X727917Y-123741D01*
X727985Y-123962D01*
X728071Y-124164D01*
X728129Y-124250D01*
X728186Y-124337D01*
X728205Y-124356D01*
X728254Y-124404D01*
X728330Y-124471D01*
X728436Y-124538D01*
X728561Y-124615D01*
X728715Y-124682D01*
X728888Y-124731D01*
X728984Y-124740D01*
X729080Y-124750D01*
X729128D01*
X729167Y-124740D01*
X729272Y-124731D01*
X729397Y-124702D01*
X729532Y-124654D01*
X729685Y-124577D01*
X729830Y-124481D01*
X729974Y-124346D01*
Y-124337D01*
X729993Y-124327D01*
X730012Y-124298D01*
X730031Y-124269D01*
X730060Y-124221D01*
X730089Y-124173D01*
X730118Y-124106D01*
X730156Y-124029D01*
X730195Y-123943D01*
X730224Y-123846D01*
X730252Y-123741D01*
X730281Y-123626D01*
X730310Y-123501D01*
X730320Y-123366D01*
X730339Y-123212D01*
Y-123058D01*
Y-123049D01*
Y-123020D01*
Y-122982D01*
X730329Y-122924D01*
Y-122847D01*
X730320Y-122770D01*
X730291Y-122578D01*
X730252Y-122376D01*
X730185Y-122165D01*
X730089Y-121963D01*
X730031Y-121876D01*
X729964Y-121790D01*
Y-121780D01*
X729945Y-121771D01*
X729897Y-121723D01*
X729820Y-121655D01*
X729714Y-121569D01*
X729589Y-121492D01*
X729436Y-121425D01*
X729263Y-121377D01*
X729167Y-121358D01*
D02*
G37*
%LPD*%
D10*
X230980Y289961D02*
G03*
X230980Y289961I-315J0D01*
G01*
X85102D02*
G03*
X85102Y289961I-315J0D01*
G01*
X213929Y222453D02*
X223394Y212988D01*
X218661Y208255D02*
X223394Y212988D01*
X209196Y217721D02*
X218661Y208255D01*
X209196Y217721D02*
X213929Y222453D01*
X74055Y222355D02*
X83520Y212890D01*
X78787Y208157D02*
X83520Y212890D01*
X69322Y217622D02*
X78787Y208157D01*
X69322Y217622D02*
X74055Y222355D01*
D11*
X31791Y216444D02*
G03*
X31791Y218944I0J1250D01*
G01*
X31791Y270797D02*
G03*
X31791Y273297I0J1250D01*
G01*
X31791Y211184D02*
Y216444D01*
Y218944D02*
Y224253D01*
X51791D01*
Y211184D02*
Y224253D01*
X31791Y211184D02*
X51791D01*
X165295Y136890D02*
X175630D01*
X185768Y136791D02*
X195807D01*
X165295Y136890D02*
Y167303D01*
X195807D01*
Y136791D02*
Y167303D01*
X191851Y126947D02*
Y136791D01*
X168551Y126947D02*
X191851D01*
X168451Y126847D02*
Y136890D01*
X21483Y126847D02*
Y136890D01*
X21583Y126947D02*
X44883D01*
Y136791D01*
X48839D02*
Y167303D01*
X18327D02*
X48839D01*
X18327Y136890D02*
Y167303D01*
X38799Y136791D02*
X48839D01*
X18327Y136890D02*
X28661D01*
X31791Y265538D02*
X51791D01*
Y278606D01*
X31791D02*
X51791D01*
X31791Y273297D02*
Y278606D01*
Y265538D02*
Y270797D01*
X348727Y15143D02*
G03*
X362231Y28721I28J13476D01*
G01*
X313897Y453D02*
G03*
X327865Y8398I-430J17007D01*
G01*
X340101Y15143D02*
G03*
X327800Y8303I31J-14537D01*
G01*
X327073Y341609D02*
G03*
X340443Y332359I13542J5287D01*
G01*
X326634Y342790D02*
G03*
X315457Y350371I-11018J-4215D01*
G01*
X429Y19709D02*
G03*
X13080Y7370I12282J-63D01*
G01*
X29169Y3404D02*
G03*
X20591Y7370I-8805J-7785D01*
G01*
X29072Y3478D02*
G03*
X35354Y453I6097J4625D01*
G01*
X362262Y319425D02*
G03*
X349823Y332359I-12687J247D01*
G01*
X15524Y350371D02*
G03*
X429Y333981I435J-15546D01*
G01*
X340101Y15143D02*
X348756D01*
X340443Y332359D02*
X349823D01*
X326634Y342790D02*
X327141Y341464D01*
X429Y333981D02*
X429Y19709D01*
X13080Y7370D02*
X20591D01*
X35354Y453D02*
X313467D01*
X362262Y28721D02*
X362262Y319425D01*
X15524Y350371D02*
X315457D01*
D12*
X33996Y198983D02*
G03*
X33996Y198983I-492J0D01*
G01*
X65909Y244075D02*
G03*
X65909Y244075I-492J0D01*
G01*
X33996Y253337D02*
G03*
X33996Y253337I-492J0D01*
G01*
X211968Y244075D02*
G03*
X211968Y244075I-492J0D01*
G01*
D13*
X285435Y164787D02*
G03*
X285435Y164787I-3421J0D01*
G01*
X76829Y246511D02*
G03*
X76829Y246511I-1181J0D01*
G01*
X222888D02*
G03*
X222888Y246511I-1181J0D01*
G01*
X139254Y164787D02*
G03*
X139254Y164787I-3421J0D01*
G01*
D14*
X230271Y289075D02*
X230271Y277854D01*
X216492Y289075D02*
X230271D01*
X216492Y277854D02*
Y289075D01*
Y277854D02*
X230271Y277854D01*
X311516Y16732D02*
X313878D01*
X311516Y12795D02*
X313878D01*
X76224Y296063D02*
X78586D01*
X76224Y292126D02*
X78586D01*
X201673Y247342D02*
X203248D01*
X201673Y244980D02*
X203248D01*
X119750Y199963D02*
X121420Y198293D01*
X116966Y197179D02*
X118636Y195509D01*
X68252Y282283D02*
Y284646D01*
X64315Y282283D02*
Y284646D01*
X59826Y264679D02*
X60939Y263566D01*
X58155Y263009D02*
X59269Y261895D01*
X67397Y228946D02*
X69067Y227276D01*
X64613Y226163D02*
X66283Y224492D01*
X95768Y196161D02*
Y198524D01*
X99705Y196161D02*
Y198524D01*
X37402Y293602D02*
X39764D01*
X37402Y297539D02*
X39764D01*
X222397Y295866D02*
X224760D01*
X222397Y291929D02*
X224760D01*
X214129Y282283D02*
Y284646D01*
X210192Y282283D02*
Y284646D01*
X207009Y208403D02*
X208680Y210073D01*
X204225Y211187D02*
X205896Y212857D01*
X212368Y203285D02*
X214038Y204955D01*
X209584Y206069D02*
X211254Y207739D01*
X249748Y197253D02*
Y198630D01*
X253784Y197253D02*
Y198630D01*
X239961Y203650D02*
X242323D01*
X239961Y199713D02*
X242323D01*
X205512Y225098D02*
X206890D01*
X205512Y229134D02*
X206890D01*
X205022Y235449D02*
X207384D01*
X205022Y231512D02*
X207384D01*
X210978Y262849D02*
X211952Y263823D01*
X208124Y265702D02*
X209098Y266677D01*
X202855Y270376D02*
X204525Y272047D01*
X205639Y267593D02*
X207309Y269263D01*
X37402Y239075D02*
X39764D01*
X37402Y243012D02*
X39764D01*
X84393Y289075D02*
X84393Y277854D01*
X70614Y289075D02*
X84393D01*
X70614Y277854D02*
Y289075D01*
Y277854D02*
X84393Y277854D01*
X102559Y196457D02*
Y197835D01*
X106595Y196457D02*
Y197835D01*
X72171Y202793D02*
X73841Y204463D01*
X69387Y205576D02*
X71057Y207247D01*
X66757Y208009D02*
X68427Y209679D01*
X63973Y210793D02*
X65644Y212463D01*
X59665Y220876D02*
X60640Y219902D01*
X62519Y223729D02*
X63493Y222755D01*
D15*
X210314Y171693D02*
X289054D01*
X210314Y22087D02*
X289054D01*
Y156787D02*
Y171593D01*
Y22187D02*
Y36993D01*
X210255Y166287D02*
Y171593D01*
X210155Y22087D02*
Y36893D01*
X1575Y255773D02*
X2756D01*
X1575D02*
Y293656D01*
X2756D01*
X18898Y255718D02*
Y259655D01*
X17520Y255718D02*
X18898D01*
X2756Y293656D02*
Y299616D01*
X3543D01*
X2756Y249813D02*
X3543D01*
X2756D02*
Y255773D01*
X17520Y293711D02*
X18898D01*
Y289774D02*
Y293711D01*
X355217Y43878D02*
Y305886D01*
X335059Y43878D02*
X355217D01*
X335059Y305886D02*
X355217D01*
X315079Y43878D02*
X335079D01*
X315079Y305886D02*
X335079D01*
Y43878D02*
Y305886D01*
X315079Y43878D02*
Y305886D01*
X335059Y43878D02*
Y305886D01*
X105157Y211434D02*
X140234Y246511D01*
X70080D02*
X105157Y281588D01*
X140234Y246511D01*
X70080D02*
X105157Y211434D01*
X266319Y347421D02*
X301713D01*
Y325571D02*
Y347421D01*
X230059D02*
X266319D01*
X230059Y325571D02*
X301713D01*
X230059D02*
Y347421D01*
X200886Y289862D02*
Y295768D01*
X194587Y290846D02*
Y294783D01*
X192618Y290846D02*
Y294783D01*
X194587Y292815D01*
X192618Y290846D02*
X194587Y292815D01*
X137205Y289862D02*
Y295768D01*
X143110Y290846D02*
Y294783D01*
X145079Y290846D02*
Y294783D01*
X143110Y292815D02*
X145079Y290846D01*
X143110Y292815D02*
X145079Y294783D01*
X246161Y313878D02*
X250098D01*
X246161Y315846D02*
X250098D01*
X248130Y313878D02*
X250098Y315846D01*
X246161D02*
X248130Y313878D01*
X245177Y307972D02*
X251083D01*
X249355Y205127D02*
X254079D01*
X213386Y224803D02*
Y229528D01*
X213413Y271548D02*
X216754Y268208D01*
X67658Y347421D02*
X103051D01*
Y325571D02*
Y347421D01*
X31398D02*
X67658D01*
X31398Y325571D02*
X103051D01*
X31398D02*
Y347421D01*
X118756Y346063D02*
Y347244D01*
X156638D01*
Y346063D02*
Y347244D01*
X118701Y329921D02*
X122638D01*
X118701D02*
Y331299D01*
X156638Y346063D02*
X162598D01*
Y345276D02*
Y346063D01*
X112795Y345276D02*
Y346063D01*
X118756D01*
X156693Y329921D02*
Y331299D01*
X152756Y329921D02*
X156693D01*
X177811Y346063D02*
Y347244D01*
X215693D01*
Y346063D02*
Y347244D01*
X177756Y329921D02*
X181693D01*
X177756D02*
Y331299D01*
X215693Y346063D02*
X221654D01*
Y345276D02*
Y346063D01*
X171850Y345276D02*
Y346063D01*
X177811D01*
X215748Y329921D02*
Y331299D01*
X211811Y329921D02*
X215748D01*
X142253Y267689D02*
X146429Y263513D01*
X147125Y271168D02*
X149909Y268385D01*
X148517Y272560D02*
X151301Y269777D01*
X148517D02*
X151301D01*
X148517D02*
Y272560D01*
X148454Y261192D02*
X152629Y257017D01*
X153325Y264672D02*
X156109Y261889D01*
X154717Y266064D02*
X157501Y263280D01*
X154717D02*
X157501D01*
X154717D02*
Y266064D01*
X137205Y280807D02*
Y286713D01*
X143110Y281791D02*
Y285728D01*
X145079Y281791D02*
Y285728D01*
X143110Y283760D02*
X145079Y281791D01*
X143110Y283760D02*
X145079Y285728D01*
X48425Y308071D02*
X54331D01*
X49409Y315945D02*
X51378Y313976D01*
X53347Y315945D01*
X49409D02*
X53347D01*
X49409Y313976D02*
X53347D01*
X184905Y256687D02*
X189080Y260863D01*
X181146Y261838D02*
X183930Y264621D01*
X179754Y263229D02*
X182538Y266013D01*
Y263229D02*
Y266013D01*
X179754Y263229D02*
X182538D01*
X191350Y263037D02*
X195526Y267213D01*
X187591Y268188D02*
X190375Y270972D01*
X186199Y269580D02*
X188983Y272363D01*
Y269580D02*
Y272363D01*
X186199Y269580D02*
X188983D01*
X200886Y280807D02*
Y286713D01*
X194587Y281791D02*
Y285728D01*
X192618Y281791D02*
Y285728D01*
X194587Y283760D01*
X192618Y281791D02*
X194587Y283760D01*
X251216Y211434D02*
X286293Y246511D01*
X216139D02*
X251216Y281588D01*
X286293Y246511D01*
X216139D02*
X251216Y211434D01*
X63974Y22087D02*
Y36893D01*
X64074Y166287D02*
Y171593D01*
X142874Y22187D02*
Y36993D01*
Y156787D02*
Y171593D01*
X64134Y22087D02*
X142874D01*
X64134Y171693D02*
X142874D01*
X102165Y204331D02*
X106890D01*
X65024Y215100D02*
X68365Y218440D01*
X1575Y196315D02*
X2756D01*
X1575D02*
Y234197D01*
X2756D01*
X18898Y196260D02*
Y200197D01*
X17520Y196260D02*
X18898D01*
X2756Y234197D02*
Y240158D01*
X3543D01*
X2756Y190354D02*
X3543D01*
X2756D02*
Y196315D01*
X17520Y234252D02*
X18898D01*
Y230315D02*
Y234252D01*
X335098Y305898D02*
X355255D01*
X335098Y43891D02*
X355255D01*
X357776Y156023D02*
X357284Y155531D01*
Y154547D01*
X357776Y154055D01*
X359744D01*
X360236Y154547D01*
Y155531D01*
X359744Y156023D01*
X358760D01*
Y155039D01*
X360236Y157007D02*
X357284D01*
X360236Y158975D01*
X357284D01*
Y159959D02*
X360236D01*
Y161435D01*
X359744Y161927D01*
X357776D01*
X357284Y161435D01*
Y159959D01*
X310611Y155472D02*
X310119Y154980D01*
Y153996D01*
X310611Y153504D01*
X312579D01*
X313071Y153996D01*
Y154980D01*
X312579Y155472D01*
X311595D01*
Y154488D01*
X313071Y156456D02*
X310119D01*
X313071Y158424D01*
X310119D01*
Y159408D02*
X313071D01*
Y160883D01*
X312579Y161375D01*
X310611D01*
X310119Y160883D01*
Y159408D01*
D16*
X71831Y313110D02*
Y323110D01*
X101831D01*
X71831Y313110D02*
X101831D01*
Y323110D01*
X307697Y326594D02*
X317697D01*
X307697D02*
Y346595D01*
X317697Y326594D02*
Y346595D01*
X307697D02*
X317697D01*
X270551Y313110D02*
Y323110D01*
X300551D01*
X270551Y313110D02*
X300551D01*
Y323110D01*
X357682Y146791D02*
X357190Y147283D01*
Y148267D01*
X357682Y148759D01*
X358174D01*
X358666Y148267D01*
Y147775D01*
Y148267D01*
X359158Y148759D01*
X359650D01*
X360142Y148267D01*
Y147283D01*
X359650Y146791D01*
X360142Y151711D02*
Y149743D01*
X358174Y151711D01*
X357682D01*
X357190Y151219D01*
Y150235D01*
X357682Y149743D01*
X360142Y188759D02*
Y186791D01*
X358174Y188759D01*
X357682D01*
X357190Y188267D01*
Y187283D01*
X357682Y186791D01*
X360142Y191219D02*
X357190D01*
X358666Y189743D01*
Y191711D01*
X357682Y268291D02*
X357190Y268783D01*
Y269767D01*
X357682Y270259D01*
X358174D01*
X358666Y269767D01*
X359158Y270259D01*
X359650D01*
X360142Y269767D01*
Y268783D01*
X359650Y268291D01*
X359158D01*
X358666Y268783D01*
X358174Y268291D01*
X357682D01*
X358666Y268783D02*
Y269767D01*
X340354Y307283D02*
X341338D01*
X340846D01*
Y310235D01*
X340354Y309743D01*
X359866Y300090D02*
Y298122D01*
X357898Y300090D01*
X357406D01*
X356914Y299598D01*
Y298614D01*
X357406Y298122D01*
X332244Y309369D02*
Y307402D01*
X330276Y309369D01*
X329784D01*
X329292Y308877D01*
Y307894D01*
X329784Y307402D01*
X312992Y299291D02*
Y300275D01*
Y299783D01*
X310040D01*
X310532Y299291D01*
X338288Y40255D02*
Y38287D01*
X339764D01*
X339272Y39271D01*
Y39763D01*
X339764Y40255D01*
X340748D01*
X341240Y39763D01*
Y38779D01*
X340748Y38287D01*
X341240Y41239D02*
Y42223D01*
Y41731D01*
X338288D01*
X338780Y41239D01*
X328938Y39074D02*
Y37106D01*
X330414D01*
X329922Y38090D01*
Y38582D01*
X330414Y39074D01*
X331398D01*
X331890Y38582D01*
Y37598D01*
X331398Y37106D01*
X331890Y42026D02*
Y40058D01*
X329922Y42026D01*
X329430D01*
X328938Y41534D01*
Y40550D01*
X329430Y40058D01*
X335532Y307579D02*
X338484D01*
X337008D01*
Y309547D01*
X335532D01*
X338484D01*
Y312498D02*
Y310530D01*
X336516Y312498D01*
X336024D01*
X335532Y312006D01*
Y311022D01*
X336024Y310530D01*
X315355Y307283D02*
X318307D01*
X316831D01*
Y309251D01*
X315355D01*
X318307D01*
Y310235D02*
Y311219D01*
Y310727D01*
X315355D01*
X315847Y310235D01*
X312992Y78767D02*
X310040D01*
X311516Y77291D01*
Y79259D01*
X310040Y82211D02*
Y80243D01*
X311516D01*
X311024Y81227D01*
Y81719D01*
X311516Y82211D01*
X312500D01*
X312992Y81719D01*
Y80735D01*
X312500Y80243D01*
X310532Y107791D02*
X310040Y108283D01*
Y109267D01*
X310532Y109759D01*
X311024D01*
X311516Y109267D01*
Y108775D01*
Y109267D01*
X312008Y109759D01*
X312500D01*
X312992Y109267D01*
Y108283D01*
X312500Y107791D01*
Y110743D02*
X312992Y111235D01*
Y112219D01*
X312500Y112711D01*
X310532D01*
X310040Y112219D01*
Y111235D01*
X310532Y110743D01*
X311024D01*
X311516Y111235D01*
Y112711D01*
X310532Y147291D02*
X310040Y147783D01*
Y148767D01*
X310532Y149259D01*
X311024D01*
X311516Y148767D01*
Y148275D01*
Y148767D01*
X312008Y149259D01*
X312500D01*
X312992Y148767D01*
Y147783D01*
X312500Y147291D01*
X312992Y150243D02*
Y151227D01*
Y150735D01*
X310040D01*
X310532Y150243D01*
X312992Y189259D02*
Y187291D01*
X311024Y189259D01*
X310532D01*
X310040Y188767D01*
Y187783D01*
X310532Y187291D01*
Y190243D02*
X310040Y190735D01*
Y191719D01*
X310532Y192211D01*
X311024D01*
X311516Y191719D01*
Y191227D01*
Y191719D01*
X312008Y192211D01*
X312500D01*
X312992Y191719D01*
Y190735D01*
X312500Y190243D01*
X312992Y228248D02*
Y229232D01*
Y228740D01*
X310040D01*
X310532Y228248D01*
X310040Y232676D02*
Y230708D01*
X311516D01*
X311024Y231692D01*
Y232184D01*
X311516Y232676D01*
X312500D01*
X312992Y232184D01*
Y231200D01*
X312500Y230708D01*
X310040Y268791D02*
Y270759D01*
X310532D01*
X312500Y268791D01*
X312992D01*
X310040Y49259D02*
Y47291D01*
X311516D01*
X311024Y48275D01*
Y48767D01*
X311516Y49259D01*
X312500D01*
X312992Y48767D01*
Y47783D01*
X312500Y47291D01*
X312992Y50243D02*
Y51227D01*
Y50735D01*
X310040D01*
X310532Y50243D01*
X357190Y48759D02*
Y46791D01*
X358666D01*
X358174Y47775D01*
Y48267D01*
X358666Y48759D01*
X359650D01*
X360142Y48267D01*
Y47283D01*
X359650Y46791D01*
X360142Y51711D02*
Y49743D01*
X358174Y51711D01*
X357682D01*
X357190Y51219D01*
Y50235D01*
X357682Y49743D01*
X360142Y227291D02*
Y228275D01*
Y227783D01*
X357190D01*
X357682Y227291D01*
X357190Y231719D02*
X357682Y230735D01*
X358666Y229751D01*
X359650D01*
X360142Y230243D01*
Y231227D01*
X359650Y231719D01*
X359158D01*
X358666Y231227D01*
Y229751D01*
X360142Y108767D02*
X357190D01*
X358666Y107291D01*
Y109259D01*
X357682Y110243D02*
X357190Y110735D01*
Y111719D01*
X357682Y112211D01*
X359650D01*
X360142Y111719D01*
Y110735D01*
X359650Y110243D01*
X357682D01*
X360142Y78267D02*
X357190D01*
X358666Y76791D01*
Y78759D01*
X357190Y81711D02*
X357682Y80727D01*
X358666Y79743D01*
X359650D01*
X360142Y80235D01*
Y81219D01*
X359650Y81711D01*
X359158D01*
X358666Y81219D01*
Y79743D01*
D17*
X19400Y102671D02*
Y106376D01*
X19446Y102624D02*
Y106470D01*
X19493Y102577D02*
Y106470D01*
X19540Y102577D02*
Y106470D01*
X19587Y102577D02*
Y106517D01*
X19634Y102530D02*
Y106517D01*
X19681Y102530D02*
Y106517D01*
X19728Y102530D02*
Y106517D01*
X19775Y102530D02*
Y106517D01*
X19822Y102530D02*
Y106564D01*
X19869Y102483D02*
Y106564D01*
X19916Y102483D02*
Y106564D01*
X19962Y102483D02*
Y106564D01*
X20009Y102483D02*
Y106564D01*
X20056Y102483D02*
Y106564D01*
X20103Y102483D02*
Y106611D01*
X20150Y102436D02*
Y106611D01*
X20197Y102436D02*
Y106611D01*
X20244Y102436D02*
Y106611D01*
X20291Y102436D02*
Y106611D01*
X20338Y102436D02*
Y106658D01*
X20385Y102389D02*
Y106658D01*
X20432Y102389D02*
Y106658D01*
X20478Y102389D02*
Y106658D01*
X20525Y102389D02*
Y106658D01*
X20572Y102389D02*
Y106704D01*
X20619Y102389D02*
Y106704D01*
X20666Y102342D02*
Y106704D01*
X20713Y102342D02*
Y106704D01*
X20760Y102342D02*
Y106704D01*
X20807Y102342D02*
Y106704D01*
X20854Y102342D02*
Y106751D01*
X20900Y102295D02*
Y106751D01*
X20947Y102295D02*
Y106751D01*
X20994Y102295D02*
Y106751D01*
X21041Y102295D02*
Y106751D01*
X21088Y102295D02*
Y106798D01*
X21135Y102249D02*
Y106798D01*
X21182Y102249D02*
Y106798D01*
X21229Y102249D02*
Y106798D01*
X21276Y102249D02*
Y106798D01*
X21323Y102249D02*
Y106845D01*
X21370Y102249D02*
Y106845D01*
X21416Y102202D02*
Y106845D01*
X21463Y102202D02*
Y106845D01*
X21510Y102202D02*
Y106845D01*
X21557Y102202D02*
Y106845D01*
X21604Y102202D02*
Y106892D01*
X21651Y102155D02*
Y106892D01*
X21698Y102155D02*
Y106892D01*
X21745Y102155D02*
Y106892D01*
X21792Y102155D02*
Y106892D01*
X21839Y102155D02*
Y106939D01*
X21885Y102108D02*
Y106939D01*
X21932Y102108D02*
Y106939D01*
X21979Y102108D02*
Y106939D01*
X22026Y102108D02*
Y106939D01*
X22073Y102108D02*
Y106939D01*
X22120Y102108D02*
Y106986D01*
X22167Y95964D02*
Y96198D01*
Y102061D02*
Y106986D01*
Y112849D02*
Y113083D01*
X22214Y95917D02*
Y96245D01*
Y102061D02*
Y106986D01*
Y112802D02*
Y113130D01*
X22261Y95870D02*
Y96339D01*
Y102061D02*
Y106986D01*
Y112708D02*
Y113177D01*
X22308Y95823D02*
Y96386D01*
Y102061D02*
Y106986D01*
Y112661D02*
Y113224D01*
X22354Y95776D02*
Y96479D01*
Y102061D02*
Y107033D01*
Y112567D02*
Y113271D01*
X22401Y95729D02*
Y96526D01*
Y102014D02*
Y107033D01*
Y112520D02*
Y113318D01*
X22448Y95682D02*
Y96620D01*
Y102014D02*
Y107033D01*
Y112473D02*
Y113365D01*
X22495Y95635D02*
Y96667D01*
Y102014D02*
Y107033D01*
Y112380D02*
Y113412D01*
X22542Y95588D02*
Y96761D01*
Y102014D02*
Y107033D01*
Y112333D02*
Y113458D01*
X22589Y95542D02*
Y96808D01*
Y102014D02*
Y107080D01*
Y112239D02*
Y113505D01*
X22636Y95495D02*
Y96902D01*
Y102014D02*
Y107080D01*
Y112192D02*
Y113552D01*
X22683Y95448D02*
Y96949D01*
Y101967D02*
Y107080D01*
Y112098D02*
Y113599D01*
X22730Y95401D02*
Y96996D01*
Y101967D02*
Y107080D01*
Y112051D02*
Y113646D01*
X22777Y95354D02*
Y97089D01*
Y101967D02*
Y107080D01*
Y111958D02*
Y113693D01*
X22824Y95307D02*
Y97136D01*
Y101967D02*
Y107080D01*
Y111911D02*
Y113740D01*
X22870Y95260D02*
Y97230D01*
Y101967D02*
Y107126D01*
Y111817D02*
Y113787D01*
X22917Y95213D02*
Y97277D01*
Y101920D02*
Y107126D01*
Y111770D02*
Y113834D01*
X22964Y95166D02*
Y97371D01*
Y101920D02*
Y107126D01*
Y111676D02*
Y113881D01*
X23011Y95119D02*
Y97418D01*
Y101920D02*
Y107126D01*
Y111629D02*
Y113927D01*
X23058Y95072D02*
Y97511D01*
Y101920D02*
Y107126D01*
Y111582D02*
Y113974D01*
X23105Y95025D02*
Y97558D01*
Y101873D02*
Y107173D01*
Y111488D02*
Y114021D01*
X23152Y94979D02*
Y97652D01*
Y101873D02*
Y107173D01*
Y111442D02*
Y114068D01*
X23199Y94932D02*
Y97699D01*
Y101827D02*
Y107220D01*
Y111348D02*
Y114115D01*
X23246Y94885D02*
Y97793D01*
Y101733D02*
Y107314D01*
Y111301D02*
Y114162D01*
X23293Y94838D02*
Y97840D01*
Y101639D02*
Y107408D01*
Y111207D02*
Y114209D01*
X23339Y94791D02*
Y97887D01*
Y101545D02*
Y107549D01*
Y111160D02*
Y114256D01*
X23386Y94744D02*
Y97980D01*
Y101404D02*
Y107642D01*
Y111066D02*
Y114303D01*
X23433Y94697D02*
Y98027D01*
Y101311D02*
Y107783D01*
Y111020D02*
Y114350D01*
X23480Y94650D02*
Y98121D01*
Y101170D02*
Y107877D01*
Y110926D02*
Y114397D01*
X23527Y94603D02*
Y98168D01*
Y101076D02*
Y107971D01*
Y110879D02*
Y114443D01*
X23574Y94556D02*
Y98262D01*
Y100935D02*
Y108112D01*
Y110832D02*
Y114490D01*
X23621Y94510D02*
Y98309D01*
Y100841D02*
Y108205D01*
Y110738D02*
Y114537D01*
X23668Y94463D02*
Y98403D01*
Y100701D02*
Y108346D01*
Y110691D02*
Y114584D01*
X23715Y94416D02*
Y98449D01*
Y100607D02*
Y108440D01*
Y110597D02*
Y114631D01*
X23762Y94369D02*
Y98543D01*
Y100513D02*
Y108581D01*
Y110550D02*
Y114678D01*
X23809Y94322D02*
Y98590D01*
Y100373D02*
Y108674D01*
Y110457D02*
Y114725D01*
X23855Y94275D02*
Y98637D01*
Y100279D02*
Y108815D01*
Y110410D02*
Y114772D01*
X23902Y94228D02*
Y98731D01*
Y100138D02*
Y108909D01*
Y110316D02*
Y114819D01*
X23949Y94181D02*
Y98778D01*
Y100044D02*
Y109003D01*
Y110269D02*
Y114866D01*
X23996Y94134D02*
Y98872D01*
Y99904D02*
Y109143D01*
Y110175D02*
Y114912D01*
X24043Y94087D02*
Y98918D01*
Y99810D02*
Y109237D01*
Y110128D02*
Y114959D01*
X24090Y94041D02*
Y99012D01*
Y99669D02*
Y109378D01*
Y110081D02*
Y115006D01*
X24137Y93994D02*
Y99059D01*
Y99575D02*
Y109472D01*
Y109988D02*
Y115053D01*
X24184Y93947D02*
Y99153D01*
Y99481D02*
Y109612D01*
Y109941D02*
Y115100D01*
X24231Y93900D02*
Y99247D01*
Y99341D02*
Y109706D01*
Y109847D02*
Y115147D01*
X24277Y93853D02*
Y115194D01*
X24324Y93806D02*
Y115241D01*
X24371Y93759D02*
Y115288D01*
X24418Y93712D02*
Y115335D01*
X24465Y93665D02*
Y115382D01*
X24512Y93618D02*
Y115428D01*
X24559Y93572D02*
Y115475D01*
X24606Y93525D02*
Y115522D01*
X24653Y93478D02*
Y115569D01*
X24700Y93431D02*
Y115616D01*
X24747Y93431D02*
Y115663D01*
X24793Y93384D02*
Y115663D01*
X24840Y93384D02*
Y115663D01*
X24887Y93384D02*
Y115663D01*
X24934Y93431D02*
Y115663D01*
X24981Y93431D02*
Y115616D01*
X25028Y93478D02*
Y115569D01*
X25075Y93525D02*
Y115569D01*
X25122Y93525D02*
Y115522D01*
X25169Y93572D02*
Y115475D01*
X25216Y93618D02*
Y115475D01*
X25262Y93618D02*
Y115428D01*
X25309Y93665D02*
Y115382D01*
X25356Y93712D02*
Y115382D01*
X25403Y93712D02*
Y115335D01*
X25450Y93759D02*
Y115288D01*
X25497Y93806D02*
Y115241D01*
X25544Y93806D02*
Y115241D01*
X25591Y93853D02*
Y115194D01*
X25638Y93900D02*
Y115147D01*
X25685Y93947D02*
Y115147D01*
X25732Y93947D02*
Y115100D01*
X25778Y93994D02*
Y115053D01*
X25825Y94041D02*
Y115053D01*
X25872Y94041D02*
Y115006D01*
X25919Y94087D02*
Y114959D01*
X25966Y94134D02*
Y114959D01*
X26013Y94134D02*
Y114912D01*
X26060Y94181D02*
Y114866D01*
X26107Y94228D02*
Y114866D01*
X26154Y94228D02*
Y114819D01*
X26201Y94275D02*
Y114772D01*
X26247Y94322D02*
Y114725D01*
X26294Y94322D02*
Y114725D01*
X26341Y94369D02*
Y114678D01*
X26388Y94416D02*
Y114631D01*
X26435Y94463D02*
Y114631D01*
X26482Y94463D02*
Y114584D01*
X26529Y94510D02*
Y114537D01*
X26576Y94556D02*
Y114537D01*
X26623Y94556D02*
Y114490D01*
X26670Y94603D02*
Y114443D01*
X26717Y94650D02*
Y114443D01*
X26763Y94650D02*
Y114397D01*
X26810Y94697D02*
Y114350D01*
X26857Y94744D02*
Y114350D01*
X26904Y94744D02*
Y114303D01*
X26951Y94791D02*
Y114256D01*
X26998Y94838D02*
Y114209D01*
X27045Y94838D02*
Y114209D01*
X27092Y94885D02*
Y114162D01*
X27139Y94932D02*
Y114115D01*
X27185Y94979D02*
Y114115D01*
X27232Y94979D02*
Y114068D01*
X27279Y95025D02*
Y114021D01*
X27326Y95072D02*
Y114021D01*
X27373Y95072D02*
Y113974D01*
X27420Y95119D02*
Y113927D01*
X27467Y95166D02*
Y113927D01*
X27514Y95166D02*
Y113881D01*
X27561Y95213D02*
Y113834D01*
X27608Y95260D02*
Y113834D01*
X27655Y95260D02*
Y113787D01*
X27701Y95307D02*
Y113740D01*
X27748Y95354D02*
Y113740D01*
X27795Y95354D02*
Y113693D01*
X27842Y95401D02*
Y113646D01*
X27889Y95448D02*
Y113646D01*
X27936Y95448D02*
Y113599D01*
X27983Y95448D02*
Y113599D01*
X28030Y95448D02*
Y113599D01*
X28077Y95448D02*
Y113646D01*
X28124Y95401D02*
Y113646D01*
X28170Y95401D02*
Y113646D01*
X28217Y95354D02*
Y113693D01*
X28264Y95354D02*
Y113693D01*
X28311Y95354D02*
Y113740D01*
X28358Y95307D02*
Y113740D01*
X28405Y95307D02*
Y113787D01*
X28452Y95260D02*
Y113787D01*
X28499Y95260D02*
Y113787D01*
X28546Y95213D02*
Y113834D01*
X28593Y95213D02*
Y113834D01*
X28640Y95213D02*
Y113881D01*
X28686Y95166D02*
Y113881D01*
X28733Y95166D02*
Y113927D01*
X28780Y95119D02*
Y113927D01*
X28827Y95119D02*
Y113927D01*
X28874Y95072D02*
Y113974D01*
X28921Y95072D02*
Y113974D01*
X28968Y95072D02*
Y114021D01*
X29015Y95025D02*
Y114021D01*
X29062Y95025D02*
Y114068D01*
X29109Y94979D02*
Y114068D01*
X29155Y94979D02*
Y114068D01*
X29202Y94932D02*
Y114115D01*
X29249Y94932D02*
Y114115D01*
X29296Y94932D02*
Y114162D01*
X29343Y94885D02*
Y114162D01*
X29390Y94885D02*
Y114209D01*
X29437Y94838D02*
Y114209D01*
X29484Y94838D02*
Y103984D01*
Y105063D02*
Y114209D01*
X29531Y94791D02*
Y103703D01*
Y105344D02*
Y114256D01*
X29578Y94791D02*
Y103515D01*
Y105532D02*
Y114256D01*
X29625Y94791D02*
Y103374D01*
Y105673D02*
Y114303D01*
X29671Y94744D02*
Y103234D01*
Y105813D02*
Y114303D01*
X29718Y94744D02*
Y103093D01*
Y105954D02*
Y114350D01*
X29765Y94697D02*
Y102999D01*
Y106048D02*
Y114350D01*
X29812Y94697D02*
Y102905D01*
Y106142D02*
Y114350D01*
X29859Y94650D02*
Y102811D01*
Y106235D02*
Y114397D01*
X29906Y94650D02*
Y102718D01*
Y106329D02*
Y114397D01*
X29953Y94650D02*
Y102624D01*
Y106423D02*
Y114443D01*
X30000Y94603D02*
Y102530D01*
Y106517D02*
Y114443D01*
X30047Y94603D02*
Y102483D01*
Y106564D02*
Y114490D01*
X30094Y94556D02*
Y102389D01*
Y106658D02*
Y114490D01*
X30140Y94556D02*
Y102342D01*
Y106704D02*
Y114490D01*
X30187Y94510D02*
Y102249D01*
Y106798D02*
Y114537D01*
X30234Y94510D02*
Y102202D01*
Y106845D02*
Y114537D01*
X30281Y94510D02*
Y102155D01*
Y106939D02*
Y114584D01*
X30328Y94463D02*
Y102108D01*
Y106986D02*
Y114584D01*
X30375Y94463D02*
Y102014D01*
Y107033D02*
Y114631D01*
X30422Y94416D02*
Y101967D01*
Y107080D02*
Y114631D01*
X30469Y94416D02*
Y101920D01*
Y107126D02*
Y114631D01*
X30516Y94369D02*
Y101873D01*
Y107173D02*
Y114678D01*
X30562Y94369D02*
Y101827D01*
Y107220D02*
Y114678D01*
X30609Y94322D02*
Y101780D01*
Y107267D02*
Y114725D01*
X30656Y94275D02*
Y101733D01*
Y107314D02*
Y114819D01*
X30703Y94087D02*
Y101686D01*
Y107361D02*
Y114959D01*
X30750Y93853D02*
Y101639D01*
Y107408D02*
Y115241D01*
X30797Y93572D02*
Y101592D01*
Y107455D02*
Y115475D01*
X30844Y93337D02*
Y101545D01*
Y107502D02*
Y115710D01*
X30891Y93056D02*
Y101545D01*
Y107549D02*
Y115991D01*
X30938Y92821D02*
Y101498D01*
Y107549D02*
Y116226D01*
X30985Y92587D02*
Y101451D01*
Y107596D02*
Y116507D01*
X31032Y92305D02*
Y101404D01*
Y107642D02*
Y116742D01*
X31078Y92071D02*
Y101404D01*
Y107689D02*
Y116976D01*
X31125Y91836D02*
Y101357D01*
Y107689D02*
Y117258D01*
X31172Y91555D02*
Y101311D01*
Y107736D02*
Y117492D01*
X31219Y91320D02*
Y101311D01*
Y107783D02*
Y117727D01*
X31266Y91039D02*
Y101264D01*
Y107783D02*
Y118008D01*
X31313Y90804D02*
Y101217D01*
Y107830D02*
Y118243D01*
X31360Y90711D02*
Y101217D01*
Y107830D02*
Y118383D01*
X31407Y90663D02*
Y101170D01*
Y107877D02*
Y118383D01*
X31454Y90617D02*
Y101170D01*
Y107924D02*
Y118430D01*
X31501Y90617D02*
Y101123D01*
Y107924D02*
Y118430D01*
X31547Y90617D02*
Y101123D01*
Y107971D02*
Y118430D01*
X31594Y90617D02*
Y101076D01*
Y107971D02*
Y118430D01*
X31641Y90617D02*
Y101076D01*
Y108018D02*
Y118430D01*
X31688Y90617D02*
Y101029D01*
Y108018D02*
Y118430D01*
X31735Y90617D02*
Y101029D01*
Y108065D02*
Y118430D01*
X31782Y90617D02*
Y100982D01*
Y108065D02*
Y118430D01*
X31829Y90617D02*
Y100982D01*
Y108065D02*
Y118430D01*
X31876Y90617D02*
Y100935D01*
Y108112D02*
Y118430D01*
X31923Y90617D02*
Y100935D01*
Y108112D02*
Y118430D01*
X31970Y90617D02*
Y100935D01*
Y108158D02*
Y118430D01*
X32017Y90617D02*
Y100888D01*
Y108158D02*
Y118430D01*
X32063Y90617D02*
Y100888D01*
Y108158D02*
Y118430D01*
X32110Y90617D02*
Y100888D01*
Y108205D02*
Y118430D01*
X32157Y90617D02*
Y100841D01*
Y108205D02*
Y118430D01*
X32204Y90617D02*
Y100841D01*
Y108205D02*
Y118430D01*
X32251Y90617D02*
Y100841D01*
Y108252D02*
Y118430D01*
X32298Y90617D02*
Y100795D01*
Y108252D02*
Y118430D01*
X32345Y90617D02*
Y100795D01*
Y108252D02*
Y118430D01*
X32392Y90617D02*
Y100795D01*
Y108252D02*
Y118430D01*
X32439Y90617D02*
Y100795D01*
Y108299D02*
Y118430D01*
X32486Y90617D02*
Y100748D01*
Y108299D02*
Y118430D01*
X32533Y90617D02*
Y100748D01*
Y108299D02*
Y118430D01*
X32579Y90617D02*
Y100748D01*
Y108299D02*
Y118430D01*
X32626Y90617D02*
Y100748D01*
Y108299D02*
Y118430D01*
X32673Y90617D02*
Y100748D01*
Y108346D02*
Y118430D01*
X32720Y90617D02*
Y100701D01*
Y108346D02*
Y118430D01*
X32767Y90617D02*
Y100701D01*
Y108346D02*
Y118430D01*
X32814Y90617D02*
Y100701D01*
Y108346D02*
Y118430D01*
X32861Y90617D02*
Y100701D01*
Y108346D02*
Y118430D01*
X32908Y90617D02*
Y100701D01*
Y108346D02*
Y118430D01*
X32955Y90617D02*
Y100701D01*
Y108346D02*
Y118430D01*
X33002Y90617D02*
Y100701D01*
Y108393D02*
Y118430D01*
X33048Y90617D02*
Y100701D01*
Y108393D02*
Y118430D01*
X33095Y90617D02*
Y100701D01*
Y108393D02*
Y118430D01*
X33142Y90617D02*
Y100701D01*
Y108393D02*
Y118430D01*
X33189Y90617D02*
Y100654D01*
Y108393D02*
Y118430D01*
X33236Y90617D02*
Y100654D01*
Y108393D02*
Y118430D01*
X33283Y90617D02*
Y100654D01*
Y108393D02*
Y118430D01*
X33330Y90617D02*
Y100654D01*
Y108393D02*
Y118430D01*
X33377Y90617D02*
Y100654D01*
Y108393D02*
Y118430D01*
X33424Y90617D02*
Y100654D01*
Y108393D02*
Y118430D01*
X33470Y90617D02*
Y100701D01*
Y108393D02*
Y118430D01*
X33517Y90617D02*
Y100701D01*
Y108393D02*
Y118430D01*
X33564Y90617D02*
Y100701D01*
Y108393D02*
Y118430D01*
X33611Y90617D02*
Y100701D01*
Y108393D02*
Y118430D01*
X33658Y90617D02*
Y100701D01*
Y108346D02*
Y118430D01*
X33705Y90617D02*
Y100701D01*
Y108346D02*
Y118430D01*
X33752Y90617D02*
Y100701D01*
Y108346D02*
Y118430D01*
X33799Y90617D02*
Y100701D01*
Y108346D02*
Y118430D01*
X33846Y90617D02*
Y100701D01*
Y108346D02*
Y118430D01*
X33893Y90617D02*
Y100701D01*
Y108346D02*
Y118430D01*
X33940Y90617D02*
Y100748D01*
Y108346D02*
Y118430D01*
X33986Y90617D02*
Y100748D01*
Y108299D02*
Y118430D01*
X34033Y90617D02*
Y100748D01*
Y108299D02*
Y118430D01*
X34080Y90617D02*
Y100748D01*
Y108299D02*
Y118430D01*
X34127Y90617D02*
Y100748D01*
Y108299D02*
Y118430D01*
X34174Y90617D02*
Y100795D01*
Y108299D02*
Y118430D01*
X34221Y90617D02*
Y100795D01*
Y108252D02*
Y118430D01*
X34268Y90617D02*
Y100795D01*
Y108252D02*
Y118430D01*
X34315Y90617D02*
Y100795D01*
Y108252D02*
Y118430D01*
X34362Y90617D02*
Y100841D01*
Y108252D02*
Y118430D01*
X34409Y90617D02*
Y100841D01*
Y108205D02*
Y118430D01*
X34455Y90617D02*
Y100841D01*
Y108205D02*
Y118430D01*
X34502Y90617D02*
Y100888D01*
Y108205D02*
Y118430D01*
X34549Y90617D02*
Y100888D01*
Y108158D02*
Y118430D01*
X34596Y90617D02*
Y100888D01*
Y108158D02*
Y118430D01*
X34643Y90617D02*
Y100935D01*
Y108158D02*
Y118430D01*
X34690Y90617D02*
Y100935D01*
Y108112D02*
Y118430D01*
X34737Y90617D02*
Y100982D01*
Y108112D02*
Y118430D01*
X34784Y90617D02*
Y100982D01*
Y108065D02*
Y118430D01*
X34831Y90617D02*
Y100982D01*
Y108065D02*
Y118430D01*
X34878Y90617D02*
Y101029D01*
Y108018D02*
Y118430D01*
X34925Y90617D02*
Y101029D01*
Y108018D02*
Y118430D01*
X34971Y90617D02*
Y101076D01*
Y107971D02*
Y118430D01*
X35018Y90617D02*
Y101076D01*
Y107971D02*
Y118430D01*
X35065Y90617D02*
Y101123D01*
Y107924D02*
Y118430D01*
X35112Y90617D02*
Y101123D01*
Y107924D02*
Y118430D01*
X35159Y90663D02*
Y101170D01*
Y107877D02*
Y118383D01*
X35206Y90711D02*
Y101170D01*
Y107877D02*
Y118336D01*
X35253Y90851D02*
Y101217D01*
Y107830D02*
Y118196D01*
X35300Y91133D02*
Y101264D01*
Y107830D02*
Y117961D01*
X35347Y91367D02*
Y101264D01*
Y107783D02*
Y117680D01*
X35394Y91602D02*
Y101311D01*
Y107736D02*
Y117445D01*
X35440Y91883D02*
Y101357D01*
Y107736D02*
Y117164D01*
X35487Y92118D02*
Y101357D01*
Y107689D02*
Y116929D01*
X35534Y92399D02*
Y101404D01*
Y107642D02*
Y116695D01*
X35581Y92633D02*
Y101451D01*
Y107642D02*
Y116413D01*
X35628Y92868D02*
Y101451D01*
Y107596D02*
Y116179D01*
X35675Y93149D02*
Y101498D01*
Y107549D02*
Y115944D01*
X35722Y93384D02*
Y101545D01*
Y107502D02*
Y115663D01*
X35769Y93618D02*
Y101592D01*
Y107455D02*
Y115428D01*
X35816Y93900D02*
Y101639D01*
Y107455D02*
Y115147D01*
X35863Y94134D02*
Y101686D01*
Y107408D02*
Y114912D01*
X35910Y94228D02*
Y101686D01*
Y107361D02*
Y114866D01*
X35956Y94275D02*
Y101733D01*
Y107314D02*
Y114819D01*
X36003Y94275D02*
Y101780D01*
Y107267D02*
Y114772D01*
X36050Y94322D02*
Y101827D01*
Y107220D02*
Y114772D01*
X36097Y94322D02*
Y101873D01*
Y107173D02*
Y114725D01*
X36144Y94369D02*
Y101967D01*
Y107126D02*
Y114725D01*
X36191Y94369D02*
Y102014D01*
Y107080D02*
Y114678D01*
X36238Y94369D02*
Y102061D01*
Y106986D02*
Y114678D01*
X36285Y94416D02*
Y102108D01*
Y106939D02*
Y114678D01*
X36332Y94416D02*
Y102155D01*
Y106892D02*
Y114631D01*
X36378Y94463D02*
Y102249D01*
Y106845D02*
Y114631D01*
X36425Y94463D02*
Y102295D01*
Y106751D02*
Y114584D01*
X36472Y94463D02*
Y102342D01*
Y106704D02*
Y114584D01*
X36519Y94510D02*
Y102436D01*
Y106611D02*
Y114584D01*
X36566Y94510D02*
Y102483D01*
Y106564D02*
Y114537D01*
X36613Y94556D02*
Y102530D01*
Y106517D02*
Y114537D01*
X36660Y94556D02*
Y102624D01*
Y106423D02*
Y114490D01*
X36707Y94556D02*
Y102671D01*
Y106376D02*
Y114490D01*
X36754Y94603D02*
Y102764D01*
Y106282D02*
Y114490D01*
X36801Y94603D02*
Y102858D01*
Y106235D02*
Y114443D01*
X36848Y94650D02*
Y102905D01*
Y106142D02*
Y114443D01*
X36895Y94650D02*
Y102999D01*
Y106095D02*
Y114397D01*
X36941Y94650D02*
Y102999D01*
Y106048D02*
Y114397D01*
X36988Y94697D02*
Y103046D01*
Y106048D02*
Y114397D01*
X37035Y94697D02*
Y103046D01*
Y106001D02*
Y114350D01*
X37082Y94744D02*
Y103046D01*
Y106001D02*
Y114350D01*
X37129Y94744D02*
Y103046D01*
Y106048D02*
Y114303D01*
X37176Y94744D02*
Y102999D01*
Y106048D02*
Y114303D01*
X37223Y94791D02*
Y102999D01*
Y106048D02*
Y114303D01*
X37270Y94791D02*
Y102952D01*
Y106095D02*
Y114256D01*
X37317Y94838D02*
Y102952D01*
Y106095D02*
Y114256D01*
X37363Y94838D02*
Y102952D01*
Y106142D02*
Y114209D01*
X37410Y94838D02*
Y102905D01*
Y106142D02*
Y114209D01*
X37457Y94885D02*
Y102905D01*
Y106188D02*
Y114209D01*
X37504Y94885D02*
Y102858D01*
Y106188D02*
Y114162D01*
X37551Y94932D02*
Y102858D01*
Y106188D02*
Y114162D01*
X37598Y94932D02*
Y102811D01*
Y106235D02*
Y114115D01*
X37645Y94932D02*
Y102811D01*
Y106235D02*
Y114115D01*
X37692Y94979D02*
Y102811D01*
Y106282D02*
Y114115D01*
X37739Y94979D02*
Y102764D01*
Y106282D02*
Y114068D01*
X37786Y95025D02*
Y102764D01*
Y106282D02*
Y114068D01*
X37832Y95025D02*
Y102718D01*
Y106329D02*
Y114021D01*
X37879Y95025D02*
Y102718D01*
Y106329D02*
Y114021D01*
X37926Y95072D02*
Y102718D01*
Y106376D02*
Y114021D01*
X37973Y95072D02*
Y102671D01*
Y106376D02*
Y113974D01*
X38020Y95119D02*
Y102671D01*
Y106423D02*
Y113974D01*
X38067Y95119D02*
Y102624D01*
Y106423D02*
Y113927D01*
X38114Y95119D02*
Y102624D01*
Y106423D02*
Y113927D01*
X38161Y95166D02*
Y102577D01*
Y106470D02*
Y113927D01*
X38208Y95166D02*
Y102577D01*
Y106470D02*
Y113881D01*
X38255Y95213D02*
Y102577D01*
Y106517D02*
Y113881D01*
X38302Y95213D02*
Y102530D01*
Y106517D02*
Y113834D01*
X38348Y95213D02*
Y102530D01*
Y106517D02*
Y113834D01*
X38395Y95260D02*
Y102483D01*
Y106564D02*
Y113834D01*
X38442Y95260D02*
Y102483D01*
Y106564D02*
Y113787D01*
X38489Y95307D02*
Y102483D01*
Y106611D02*
Y113787D01*
X38536Y95307D02*
Y102436D01*
Y106611D02*
Y113740D01*
X38583Y95307D02*
Y102436D01*
Y106611D02*
Y113740D01*
X38630Y95354D02*
Y102389D01*
Y106658D02*
Y113740D01*
X38677Y95354D02*
Y102389D01*
Y106658D02*
Y113693D01*
X38724Y95354D02*
Y102389D01*
Y106704D02*
Y113693D01*
X38771Y95354D02*
Y102342D01*
Y106704D02*
Y113693D01*
X38818Y95354D02*
Y102342D01*
Y106751D02*
Y113740D01*
X38864Y95307D02*
Y102295D01*
Y106751D02*
Y113740D01*
X38911Y95260D02*
Y102295D01*
Y106751D02*
Y113787D01*
X38958Y95260D02*
Y102249D01*
Y106798D02*
Y113834D01*
X39005Y95213D02*
Y102249D01*
Y106798D02*
Y113834D01*
X39052Y95166D02*
Y102249D01*
Y106845D02*
Y113881D01*
X39099Y95119D02*
Y102202D01*
Y106845D02*
Y113927D01*
X39146Y95119D02*
Y102202D01*
Y106845D02*
Y113927D01*
X39193Y95072D02*
Y102155D01*
Y106892D02*
Y113974D01*
X39240Y95025D02*
Y102155D01*
Y106892D02*
Y114021D01*
X39287Y95025D02*
Y102155D01*
Y106939D02*
Y114068D01*
X39333Y94979D02*
Y102108D01*
Y106939D02*
Y114068D01*
X39380Y94932D02*
Y102108D01*
Y106986D02*
Y114115D01*
X39427Y94932D02*
Y102061D01*
Y106986D02*
Y114162D01*
X39474Y94885D02*
Y102061D01*
Y106986D02*
Y114162D01*
X39521Y94838D02*
Y102014D01*
Y107033D02*
Y114209D01*
X39568Y94838D02*
Y102014D01*
Y107033D02*
Y114256D01*
X39615Y94791D02*
Y102014D01*
Y107080D02*
Y114256D01*
X39662Y94744D02*
Y101967D01*
Y107080D02*
Y114303D01*
X39709Y94744D02*
Y101967D01*
Y107080D02*
Y114350D01*
X39755Y94697D02*
Y101920D01*
Y107126D02*
Y114350D01*
X39802Y94650D02*
Y101920D01*
Y107126D02*
Y114397D01*
X39849Y94603D02*
Y101920D01*
Y107173D02*
Y114443D01*
X39896Y94603D02*
Y101873D01*
Y107173D02*
Y114443D01*
X39943Y94556D02*
Y101873D01*
Y107173D02*
Y114490D01*
X39990Y94510D02*
Y101827D01*
Y107220D02*
Y114537D01*
X40037Y94510D02*
Y101827D01*
Y107220D02*
Y114584D01*
X40084Y94463D02*
Y101827D01*
Y107267D02*
Y114584D01*
X40131Y94416D02*
Y101780D01*
Y107267D02*
Y114631D01*
X40178Y94416D02*
Y101780D01*
Y107314D02*
Y114678D01*
X40225Y94369D02*
Y101733D01*
Y107314D02*
Y114678D01*
X40271Y94322D02*
Y101733D01*
Y107314D02*
Y114725D01*
X40318Y94322D02*
Y101686D01*
Y107361D02*
Y114772D01*
X40365Y94275D02*
Y101686D01*
Y107361D02*
Y114772D01*
X40412Y94228D02*
Y101686D01*
Y107408D02*
Y114819D01*
X40459Y94228D02*
Y101639D01*
Y107408D02*
Y114866D01*
X40506Y94181D02*
Y101639D01*
Y107408D02*
Y114866D01*
X40553Y94134D02*
Y101592D01*
Y107455D02*
Y114912D01*
X40600Y94134D02*
Y101592D01*
Y107455D02*
Y114959D01*
X40647Y94087D02*
Y101592D01*
Y107502D02*
Y114959D01*
X40694Y94041D02*
Y101545D01*
Y107502D02*
Y115006D01*
X40740Y93994D02*
Y101545D01*
Y107549D02*
Y115053D01*
X40787Y93994D02*
Y101498D01*
Y107549D02*
Y115053D01*
X40834Y93947D02*
Y101498D01*
Y107549D02*
Y115100D01*
X40881Y93900D02*
Y101451D01*
Y107596D02*
Y115147D01*
X40928Y93900D02*
Y101451D01*
Y107596D02*
Y115194D01*
X40975Y93853D02*
Y101451D01*
Y107642D02*
Y115194D01*
X41022Y93806D02*
Y101404D01*
Y107642D02*
Y115241D01*
X41069Y93806D02*
Y101404D01*
Y107642D02*
Y115288D01*
X41116Y93759D02*
Y101357D01*
Y107689D02*
Y115288D01*
X41163Y93712D02*
Y101357D01*
Y107689D02*
Y115335D01*
X41210Y93712D02*
Y101357D01*
Y107736D02*
Y115382D01*
X41256Y93665D02*
Y101311D01*
Y107736D02*
Y115382D01*
X41303Y93618D02*
Y101311D01*
Y107736D02*
Y115428D01*
X41350Y93618D02*
Y101264D01*
Y107783D02*
Y115475D01*
X41397Y93572D02*
Y101264D01*
Y107783D02*
Y115475D01*
X41444Y93525D02*
Y101264D01*
Y107830D02*
Y115522D01*
X41491Y93478D02*
Y101217D01*
Y107830D02*
Y115569D01*
X41538Y93478D02*
Y101217D01*
Y107877D02*
Y115569D01*
X41585Y93431D02*
Y101170D01*
Y107877D02*
Y115616D01*
X41632Y93431D02*
Y101170D01*
Y107877D02*
Y115663D01*
X41679Y93384D02*
Y101123D01*
Y107924D02*
Y115663D01*
X41726Y93384D02*
Y101123D01*
Y107924D02*
Y115663D01*
X41772Y93384D02*
Y101123D01*
Y107971D02*
Y115663D01*
X41819Y93431D02*
Y101076D01*
Y107971D02*
Y115663D01*
X41866Y93431D02*
Y101076D01*
Y107971D02*
Y115616D01*
X41913Y93478D02*
Y101029D01*
Y108018D02*
Y115569D01*
X41960Y93525D02*
Y101029D01*
Y108018D02*
Y115522D01*
X42007Y93572D02*
Y101029D01*
Y108065D02*
Y115475D01*
X42054Y93618D02*
Y100982D01*
Y108065D02*
Y115428D01*
X42101Y93665D02*
Y100982D01*
Y108112D02*
Y115382D01*
X42148Y93712D02*
Y100935D01*
Y108112D02*
Y115335D01*
X42195Y93759D02*
Y100935D01*
Y108112D02*
Y115288D01*
X42241Y93806D02*
Y100888D01*
Y108158D02*
Y115241D01*
X42288Y93853D02*
Y100888D01*
Y108158D02*
Y115194D01*
X42335Y93900D02*
Y100888D01*
Y108205D02*
Y115147D01*
X42382Y93947D02*
Y100841D01*
Y108205D02*
Y115100D01*
X42429Y93994D02*
Y100841D01*
Y108205D02*
Y115053D01*
X42476Y94041D02*
Y100795D01*
Y108252D02*
Y115006D01*
X42523Y94087D02*
Y98918D01*
Y99153D02*
Y100795D01*
Y108252D02*
Y109894D01*
Y110128D02*
Y114959D01*
X42570Y94134D02*
Y98825D01*
Y99247D02*
Y100795D01*
Y108299D02*
Y109800D01*
Y110222D02*
Y114912D01*
X42617Y94181D02*
Y98778D01*
Y99341D02*
Y100748D01*
Y108299D02*
Y109753D01*
Y110269D02*
Y114866D01*
X42663Y94228D02*
Y98731D01*
Y99434D02*
Y100748D01*
Y108299D02*
Y109659D01*
Y110363D02*
Y114819D01*
X42710Y94275D02*
Y98637D01*
Y99481D02*
Y100701D01*
Y108346D02*
Y109565D01*
Y110410D02*
Y114772D01*
X42757Y94322D02*
Y98590D01*
Y99575D02*
Y100701D01*
Y108346D02*
Y109472D01*
Y110503D02*
Y114725D01*
X42804Y94369D02*
Y98496D01*
Y99669D02*
Y100701D01*
Y108393D02*
Y109378D01*
Y110550D02*
Y114678D01*
X42851Y94416D02*
Y98449D01*
Y99763D02*
Y100654D01*
Y108393D02*
Y109284D01*
Y110644D02*
Y114631D01*
X42898Y94463D02*
Y98356D01*
Y99857D02*
Y100654D01*
Y108440D02*
Y109190D01*
Y110691D02*
Y114584D01*
X42945Y94510D02*
Y98309D01*
Y99950D02*
Y100607D01*
Y108440D02*
Y109097D01*
Y110738D02*
Y114537D01*
X42992Y94556D02*
Y98215D01*
Y100044D02*
Y100607D01*
Y108440D02*
Y109050D01*
Y110832D02*
Y114490D01*
X43039Y94603D02*
Y98168D01*
Y100138D02*
Y100560D01*
Y108487D02*
Y108956D01*
Y110879D02*
Y114443D01*
X43086Y94650D02*
Y98074D01*
Y100185D02*
Y100560D01*
Y108487D02*
Y108862D01*
Y110973D02*
Y114397D01*
X43133Y94697D02*
Y98027D01*
Y100279D02*
Y100513D01*
Y108534D02*
Y108768D01*
Y111020D02*
Y114350D01*
X43180Y94744D02*
Y97980D01*
Y111113D02*
Y114303D01*
X43226Y94791D02*
Y97887D01*
Y111160D02*
Y114256D01*
X43273Y94838D02*
Y97840D01*
Y111254D02*
Y114209D01*
X43320Y94885D02*
Y97746D01*
Y111301D02*
Y114162D01*
X43367Y94932D02*
Y97699D01*
Y111395D02*
Y114115D01*
X43414Y94979D02*
Y97605D01*
Y111442D02*
Y114068D01*
X43461Y95025D02*
Y97558D01*
Y111488D02*
Y114021D01*
X43508Y95072D02*
Y97465D01*
Y111582D02*
Y113974D01*
X43555Y95119D02*
Y97418D01*
Y111629D02*
Y113927D01*
X43602Y95166D02*
Y97324D01*
Y111723D02*
Y113881D01*
X43648Y95213D02*
Y97277D01*
Y111770D02*
Y113834D01*
X43695Y95260D02*
Y97230D01*
Y111864D02*
Y113787D01*
X43742Y95307D02*
Y97136D01*
Y111911D02*
Y113740D01*
X43789Y95354D02*
Y97089D01*
Y112004D02*
Y113693D01*
X43836Y95401D02*
Y96996D01*
Y112051D02*
Y113646D01*
X43883Y95448D02*
Y96949D01*
Y112145D02*
Y113599D01*
X43930Y95495D02*
Y96855D01*
Y112192D02*
Y113552D01*
X43977Y95542D02*
Y96808D01*
Y112239D02*
Y113505D01*
X44024Y95588D02*
Y96714D01*
Y112333D02*
Y113458D01*
X44071Y95635D02*
Y96667D01*
Y112380D02*
Y113412D01*
X44118Y95682D02*
Y96573D01*
Y112473D02*
Y113365D01*
X44164Y95729D02*
Y96526D01*
Y112520D02*
Y113318D01*
X44211Y95776D02*
Y96433D01*
Y112614D02*
Y113271D01*
X44258Y95823D02*
Y96386D01*
Y112661D02*
Y113224D01*
X44305Y95870D02*
Y96339D01*
Y112755D02*
Y113177D01*
X44352Y95917D02*
Y96245D01*
Y112802D02*
Y113130D01*
X44399Y96011D02*
Y96151D01*
Y112896D02*
Y113036D01*
D18*
X37037Y54366D02*
X40236D01*
X37037Y53299D02*
Y55432D01*
Y56879D02*
X40236D01*
X37037Y55813D02*
Y57946D01*
X37798Y60612D02*
X37494Y60460D01*
X37189Y60155D01*
X37037Y59850D01*
Y59241D01*
X37189Y58936D01*
X37494Y58631D01*
X37798Y58479D01*
X38255Y58327D01*
X39017D01*
X39474Y58479D01*
X39779Y58631D01*
X40084Y58936D01*
X40236Y59241D01*
Y59850D01*
X40084Y60155D01*
X39779Y60460D01*
X39474Y60612D01*
X37798Y61663D02*
X37646D01*
X37341Y61816D01*
X37189Y61968D01*
X37037Y62273D01*
Y62882D01*
X37189Y63187D01*
X37341Y63339D01*
X37646Y63491D01*
X37951D01*
X38255Y63339D01*
X38712Y63034D01*
X40236Y61511D01*
Y63644D01*
X38103Y66874D02*
X40236Y67787D01*
X38103Y68702D02*
X40236Y67787D01*
X37037Y70134D02*
X37189Y69677D01*
X37646Y69372D01*
X38408Y69220D01*
X38865D01*
X39627Y69372D01*
X40084Y69677D01*
X40236Y70134D01*
Y70438D01*
X40084Y70895D01*
X39627Y71200D01*
X38865Y71352D01*
X38408D01*
X37646Y71200D01*
X37189Y70895D01*
X37037Y70438D01*
Y70134D01*
X39931Y72221D02*
X40084Y72069D01*
X40236Y72221D01*
X40084Y72373D01*
X39931Y72221D01*
X37646Y73074D02*
X37494Y73379D01*
X37037Y73836D01*
X40236D01*
X231594Y288238D02*
Y287705D01*
X232661Y286639D01*
X233727Y287705D01*
Y288238D01*
X232661Y286639D02*
Y285039D01*
X236393D02*
Y288238D01*
X234793Y286639D01*
X236926D01*
X124608Y292124D02*
X126116Y293632D01*
X125362Y292878D01*
X127624Y290616D01*
X129132Y292124D02*
X126870Y294386D01*
X128001Y295517D01*
X128755Y295517D01*
X129509Y294763D01*
Y294009D01*
X128378Y292878D01*
X132525Y295517D02*
X130263Y297779D01*
Y295517D01*
X131771Y297025D01*
X44488Y198770D02*
Y196104D01*
X45021Y195571D01*
X46088D01*
X46621Y196104D01*
Y198770D01*
X47687Y195571D02*
X48753D01*
X48220D01*
Y198770D01*
X47687Y198237D01*
X50353Y195571D02*
X51419D01*
X50886D01*
Y198770D01*
X50353Y198237D01*
X210236Y178297D02*
Y175632D01*
X210769Y175098D01*
X211836D01*
X212369Y175632D01*
Y178297D01*
X213435Y175098D02*
X214502D01*
X213968D01*
Y178297D01*
X213435Y177764D01*
X216101D02*
X216634Y178297D01*
X217701D01*
X218234Y177764D01*
Y177231D01*
X217701Y176698D01*
X217167D01*
X217701D01*
X218234Y176165D01*
Y175632D01*
X217701Y175098D01*
X216634D01*
X216101Y175632D01*
X6365Y306012D02*
X5832Y306545D01*
X4765D01*
X4232Y306012D01*
Y303880D01*
X4765Y303346D01*
X5832D01*
X6365Y303880D01*
X7431Y303346D02*
Y306545D01*
X9564Y303346D01*
Y306545D01*
X10630Y303346D02*
X11697D01*
X11163D01*
Y306545D01*
X10630Y306012D01*
X102264Y288829D02*
Y286163D01*
X102797Y285630D01*
X103863D01*
X104396Y286163D01*
Y288829D01*
X107595Y285630D02*
X105463D01*
X107595Y287763D01*
Y288296D01*
X107062Y288829D01*
X105996D01*
X105463Y288296D01*
X311089Y22982D02*
X308957D01*
Y21383D01*
X310023D01*
X308957D01*
Y19783D01*
X312156Y22982D02*
Y19783D01*
X313755D01*
X314288Y20317D01*
Y20850D01*
X313755Y21383D01*
X312156D01*
X313755D01*
X314288Y21916D01*
Y22449D01*
X313755Y22982D01*
X312156D01*
X315355Y19783D02*
X316421D01*
X315888D01*
Y22982D01*
X315355Y22449D01*
X106406Y319324D02*
X106939Y319857D01*
Y320923D01*
X106406Y321457D01*
X104273D01*
X103740Y320923D01*
Y319857D01*
X104273Y319324D01*
X103740Y318258D02*
X106939D01*
X103740Y316125D01*
X106939D01*
X106406Y315059D02*
X106939Y314526D01*
Y313459D01*
X106406Y312926D01*
X105873D01*
X105340Y313459D01*
X104806Y312926D01*
X104273D01*
X103740Y313459D01*
Y314526D01*
X104273Y315059D01*
X104806D01*
X105340Y314526D01*
X105873Y315059D01*
X106406D01*
X105340Y314526D02*
Y313459D01*
X321760Y344029D02*
X322293Y344562D01*
Y345628D01*
X321760Y346161D01*
X319628D01*
X319094Y345628D01*
Y344562D01*
X319628Y344029D01*
X319094Y342962D02*
X322293D01*
X319094Y340830D01*
X322293D01*
X319628Y339763D02*
X319094Y339230D01*
Y338164D01*
X319628Y337631D01*
X321760D01*
X322293Y338164D01*
Y339230D01*
X321760Y339763D01*
X321227D01*
X320694Y339230D01*
Y337631D01*
X166261Y172912D02*
Y172379D01*
X167328Y171313D01*
X168394Y172379D01*
Y172912D01*
X167328Y171313D02*
Y169713D01*
X169460D02*
X170527D01*
X169994D01*
Y172912D01*
X169460Y172379D01*
X19333Y172912D02*
Y172379D01*
X20399Y171313D01*
X21465Y172379D01*
Y172912D01*
X20399Y171313D02*
Y169713D01*
X22532Y172379D02*
X23065Y172912D01*
X24131D01*
X24664Y172379D01*
Y170246D01*
X24131Y169713D01*
X23065D01*
X22532Y170246D01*
Y172379D01*
X228158Y345013D02*
X228691Y345546D01*
Y346613D01*
X228158Y347146D01*
X226025D01*
X225492Y346613D01*
Y345546D01*
X226025Y345013D01*
X225492Y343947D02*
X228691D01*
X225492Y341814D01*
X228691D01*
X225492Y339148D02*
X228691D01*
X227092Y340748D01*
Y338615D01*
X73688Y301583D02*
X73155Y302116D01*
X72088D01*
X71555Y301583D01*
Y299450D01*
X72088Y298917D01*
X73155D01*
X73688Y299450D01*
X76887Y298917D02*
X74754D01*
X76887Y301050D01*
Y301583D01*
X76354Y302116D01*
X75287D01*
X74754Y301583D01*
X200066Y252567D02*
X199532Y253100D01*
X198466D01*
X197933Y252567D01*
Y250435D01*
X198466Y249902D01*
X199532D01*
X200066Y250435D01*
X201132Y252567D02*
X201665Y253100D01*
X202731D01*
X203265Y252567D01*
Y252034D01*
X202731Y251501D01*
X202198D01*
X202731D01*
X203265Y250968D01*
Y250435D01*
X202731Y249902D01*
X201665D01*
X201132Y250435D01*
X206464Y253100D02*
X204331D01*
Y251501D01*
X205397Y252034D01*
X205930D01*
X206464Y251501D01*
Y250435D01*
X205930Y249902D01*
X204864D01*
X204331Y250435D01*
X220474Y207577D02*
X220851Y207200D01*
X222359D01*
Y208708D01*
X221982Y209085D01*
X222359Y207200D02*
X223490Y206069D01*
X224244Y211347D02*
X222736Y209839D01*
X223867Y208708D01*
X224244Y209839D01*
X224621Y210216D01*
X225375D01*
X226129Y209462D01*
Y208708D01*
X225375Y207954D01*
X224621D01*
X202264Y294341D02*
Y291142D01*
X203863D01*
X204396Y291675D01*
Y293808D01*
X203863Y294341D01*
X202264D01*
X205463Y291675D02*
X205996Y291142D01*
X207062D01*
X207595Y291675D01*
Y293808D01*
X207062Y294341D01*
X205996D01*
X205463Y293808D01*
Y293274D01*
X205996Y292741D01*
X207595D01*
X137106Y300935D02*
Y297736D01*
X138706D01*
X139239Y298269D01*
Y300402D01*
X138706Y300935D01*
X137106D01*
X141905Y297736D02*
Y300935D01*
X140305Y299336D01*
X142438D01*
X253051Y310975D02*
Y307776D01*
X254651D01*
X255184Y308309D01*
Y310441D01*
X254651Y310975D01*
X253051D01*
X256250Y307776D02*
X257316D01*
X256783D01*
Y310975D01*
X256250Y310441D01*
X258916D02*
X259449Y310975D01*
X260515D01*
X261049Y310441D01*
Y308309D01*
X260515Y307776D01*
X259449D01*
X258916Y308309D01*
Y310441D01*
X125115Y191976D02*
X124361Y191976D01*
X123607Y191222D01*
Y190468D01*
X125115Y188960D01*
X125869D01*
X126623Y189714D01*
Y190468D01*
X127754Y190845D02*
X128508Y191599D01*
X128131Y191222D01*
X125869Y193484D01*
X125869Y192730D01*
X65518Y293709D02*
X64985Y294242D01*
X63919D01*
X63386Y293709D01*
Y291577D01*
X63919Y291043D01*
X64985D01*
X65518Y291577D01*
X66585Y293709D02*
X67118Y294242D01*
X68184D01*
X68717Y293709D01*
Y293176D01*
X68184Y292643D01*
X67651D01*
X68184D01*
X68717Y292110D01*
Y291577D01*
X68184Y291043D01*
X67118D01*
X66585Y291577D01*
X57724Y259137D02*
X57724Y259891D01*
X56970Y260645D01*
X56216D01*
X54708Y259137D01*
Y258383D01*
X55462Y257629D01*
X56216D01*
X60363Y257252D02*
X59232Y257629D01*
X57724D01*
X56970Y256875D01*
Y256121D01*
X57724Y255367D01*
X58478D01*
X58855Y255744D01*
Y256498D01*
X57724Y257629D01*
X58216Y236696D02*
X58216Y237450D01*
X57462Y238204D01*
X56708D01*
X55200Y236696D01*
Y235942D01*
X55954Y235188D01*
X56708D01*
X57085Y234057D02*
X57839Y233303D01*
X57462Y233680D01*
X59724Y235942D01*
X58970Y235942D01*
X60855Y234057D02*
X61609D01*
X62363Y233303D01*
X62363Y232549D01*
X60855Y231041D01*
X60101D01*
X59347Y231795D01*
Y232549D01*
X60855Y234057D01*
X87467Y201583D02*
X86934Y202116D01*
X85868D01*
X85335Y201583D01*
Y199451D01*
X85868Y198917D01*
X86934D01*
X87467Y199451D01*
X88534Y198917D02*
X89600D01*
X89067D01*
Y202116D01*
X88534Y201583D01*
X93332Y198917D02*
X91199D01*
X93332Y201050D01*
Y201583D01*
X92799Y202116D01*
X91733D01*
X91199Y201583D01*
X48491Y296662D02*
X47958Y297195D01*
X46891D01*
X46358Y296662D01*
Y294529D01*
X46891Y293996D01*
X47958D01*
X48491Y294529D01*
X51690Y293996D02*
X49557D01*
X51690Y296129D01*
Y296662D01*
X51157Y297195D01*
X50090D01*
X49557Y296662D01*
X52756Y293996D02*
X53822D01*
X53289D01*
Y297195D01*
X52756Y296662D01*
X221916Y300894D02*
X221383Y301427D01*
X220317D01*
X219783Y300894D01*
Y298762D01*
X220317Y298228D01*
X221383D01*
X221916Y298762D01*
X222982Y300894D02*
X223516Y301427D01*
X224582D01*
X225115Y300894D01*
Y300361D01*
X224582Y299828D01*
X224049D01*
X224582D01*
X225115Y299295D01*
Y298762D01*
X224582Y298228D01*
X223516D01*
X222982Y298762D01*
X226181Y298228D02*
X227248D01*
X226715D01*
Y301427D01*
X226181Y300894D01*
X213296Y297572D02*
X213829Y298105D01*
Y299172D01*
X213296Y299705D01*
X211163D01*
X210630Y299172D01*
Y298105D01*
X211163Y297572D01*
X213296Y296506D02*
X213829Y295973D01*
Y294906D01*
X213296Y294373D01*
X212763D01*
X212229Y294906D01*
Y295439D01*
Y294906D01*
X211696Y294373D01*
X211163D01*
X210630Y294906D01*
Y295973D01*
X211163Y296506D01*
X210630Y291174D02*
Y293307D01*
X212763Y291174D01*
X213296D01*
X213829Y291707D01*
Y292774D01*
X213296Y293307D01*
X196503Y215731D02*
X196503Y216485D01*
X195749Y217239D01*
X194995D01*
X193487Y215731D01*
Y214977D01*
X194241Y214223D01*
X194995D01*
X197257Y214977D02*
X198011Y214977D01*
X198765Y214223D01*
X198765Y213469D01*
X198388Y213092D01*
X197634D01*
X197257Y213469D01*
X197634Y213092D01*
Y212338D01*
X197257Y211961D01*
X196503D01*
X195749Y212715D01*
Y213469D01*
X199519Y212715D02*
X200273Y212715D01*
X201027Y211961D01*
Y211207D01*
X200650Y210830D01*
X199896D01*
X199519Y211207D01*
X199896Y210830D01*
Y210076D01*
X199519Y209699D01*
X198765D01*
X198011Y210453D01*
Y211207D01*
X213403Y200243D02*
X212649Y200243D01*
X211894Y199489D01*
Y198735D01*
X213403Y197227D01*
X214157D01*
X214911Y197981D01*
Y198735D01*
X214157Y200997D02*
X214157Y201751D01*
X214911Y202505D01*
X215665Y202505D01*
X216042Y202128D01*
Y201374D01*
X215665Y200997D01*
X216042Y201374D01*
X216796D01*
X217173Y200997D01*
Y200243D01*
X216419Y199489D01*
X215665D01*
X219435Y202505D02*
X217173Y204767D01*
Y202505D01*
X218681Y204013D01*
X258768Y200230D02*
X259301Y200763D01*
Y201829D01*
X258768Y202362D01*
X256635D01*
X256102Y201829D01*
Y200763D01*
X256635Y200230D01*
X258768Y199163D02*
X259301Y198630D01*
Y197564D01*
X258768Y197031D01*
X258235D01*
X257702Y197564D01*
Y198097D01*
Y197564D01*
X257169Y197031D01*
X256635D01*
X256102Y197564D01*
Y198630D01*
X256635Y199163D01*
X259301Y193832D02*
X258768Y194898D01*
X257702Y195964D01*
X256635D01*
X256102Y195431D01*
Y194365D01*
X256635Y193832D01*
X257169D01*
X257702Y194365D01*
Y195964D01*
X236877Y196957D02*
X236344Y197490D01*
X235277D01*
X234744Y196957D01*
Y194825D01*
X235277Y194291D01*
X236344D01*
X236877Y194825D01*
X237943Y196957D02*
X238476Y197490D01*
X239543D01*
X240076Y196957D01*
Y196424D01*
X239543Y195891D01*
X239009D01*
X239543D01*
X240076Y195358D01*
Y194825D01*
X239543Y194291D01*
X238476D01*
X237943Y194825D01*
X241142Y197490D02*
X243275D01*
Y196957D01*
X241142Y194825D01*
Y194291D01*
X192048Y227047D02*
X191515Y227580D01*
X190448D01*
X189915Y227047D01*
Y224915D01*
X190448Y224381D01*
X191515D01*
X192048Y224915D01*
X193114Y227047D02*
X193647Y227580D01*
X194713D01*
X195247Y227047D01*
Y226514D01*
X194713Y225981D01*
X194180D01*
X194713D01*
X195247Y225448D01*
Y224915D01*
X194713Y224381D01*
X193647D01*
X193114Y224915D01*
X196313Y227047D02*
X196846Y227580D01*
X197913D01*
X198446Y227047D01*
Y226514D01*
X197913Y225981D01*
X198446Y225448D01*
Y224915D01*
X197913Y224381D01*
X196846D01*
X196313Y224915D01*
Y225448D01*
X196846Y225981D01*
X196313Y226514D01*
Y227047D01*
X196846Y225981D02*
X197913D01*
X192151Y233185D02*
X191618Y233718D01*
X190551D01*
X190018Y233185D01*
Y231052D01*
X190551Y230519D01*
X191618D01*
X192151Y231052D01*
X193217Y233185D02*
X193750Y233718D01*
X194816D01*
X195350Y233185D01*
Y232651D01*
X194816Y232118D01*
X194283D01*
X194816D01*
X195350Y231585D01*
Y231052D01*
X194816Y230519D01*
X193750D01*
X193217Y231052D01*
X196416D02*
X196949Y230519D01*
X198015D01*
X198549Y231052D01*
Y233185D01*
X198015Y233718D01*
X196949D01*
X196416Y233185D01*
Y232651D01*
X196949Y232118D01*
X198549D01*
X212221Y260283D02*
X211467Y260283D01*
X210713Y259529D01*
Y258775D01*
X212221Y257267D01*
X212975D01*
X213729Y258021D01*
Y258775D01*
X215991Y260283D02*
X213729Y262545D01*
X213729Y260283D01*
X215237Y261791D01*
X218631Y262922D02*
X217123Y261414D01*
Y264430D01*
X216745Y264807D01*
X215991D01*
X215237Y264053D01*
X215237Y263299D01*
X198344Y272980D02*
X197590Y272980D01*
X196835Y272226D01*
Y271472D01*
X198344Y269964D01*
X199098D01*
X199852Y270718D01*
Y271472D01*
X202114Y272980D02*
X199852Y275242D01*
X199852Y272980D01*
X201360Y274488D01*
X201360Y275996D02*
X201360Y276750D01*
X202114Y277504D01*
X202868D01*
X203244Y277127D01*
Y276373D01*
X202868Y275996D01*
X203244Y276373D01*
X203998D01*
X204376Y275996D01*
Y275242D01*
X203622Y274488D01*
X202868D01*
X34613Y247843D02*
X34080Y248376D01*
X33013D01*
X32480Y247843D01*
Y245710D01*
X33013Y245177D01*
X34080D01*
X34613Y245710D01*
X37812Y248376D02*
X35679D01*
Y246777D01*
X36746Y247310D01*
X37279D01*
X37812Y246777D01*
Y245710D01*
X37279Y245177D01*
X36212D01*
X35679Y245710D01*
X38878Y247843D02*
X39411Y248376D01*
X40478D01*
X41011Y247843D01*
Y245710D01*
X40478Y245177D01*
X39411D01*
X38878Y245710D01*
Y247843D01*
X60400Y322744D02*
X59867Y323278D01*
X58801D01*
X58268Y322744D01*
Y320612D01*
X58801Y320079D01*
X59867D01*
X60400Y320612D01*
X61467Y320079D02*
Y323278D01*
X63599Y320079D01*
Y323278D01*
X64666Y322744D02*
X65199Y323278D01*
X66265D01*
X66798Y322744D01*
Y322211D01*
X66265Y321678D01*
X65732D01*
X66265D01*
X66798Y321145D01*
Y320612D01*
X66265Y320079D01*
X65199D01*
X64666Y320612D01*
X156168Y327567D02*
X155635Y328100D01*
X154569D01*
X154035Y327567D01*
Y325435D01*
X154569Y324902D01*
X155635D01*
X156168Y325435D01*
X157234Y324902D02*
Y328100D01*
X159367Y324902D01*
Y328100D01*
X162566D02*
X160433D01*
Y326501D01*
X161500Y327034D01*
X162033D01*
X162566Y326501D01*
Y325435D01*
X162033Y324902D01*
X160967D01*
X160433Y325435D01*
X173097Y327567D02*
X172564Y328100D01*
X171498D01*
X170965Y327567D01*
Y325435D01*
X171498Y324902D01*
X172564D01*
X173097Y325435D01*
X174163Y324902D02*
Y328100D01*
X176296Y324902D01*
Y328100D01*
X179495D02*
X178429Y327567D01*
X177363Y326501D01*
Y325435D01*
X177896Y324902D01*
X178962D01*
X179495Y325435D01*
Y325968D01*
X178962Y326501D01*
X177363D01*
X304930Y320407D02*
X305463Y320940D01*
Y322006D01*
X304930Y322539D01*
X302797D01*
X302264Y322006D01*
Y320940D01*
X302797Y320407D01*
X302264Y319340D02*
X305463D01*
X302264Y317208D01*
X305463D01*
Y316141D02*
Y314009D01*
X304930D01*
X302797Y316141D01*
X302264D01*
X141140Y265648D02*
X138878Y263386D01*
X140009Y262255D01*
X140763D01*
X142271Y263763D01*
X142271Y264517D01*
X141140Y265648D01*
Y261124D02*
X141894Y260370D01*
X141517Y260747D01*
X143779Y263009D01*
X143025Y263009D01*
X147144Y259545D02*
X144882Y257283D01*
X146013Y256153D01*
X146767D01*
X148275Y257661D01*
X148275Y258415D01*
X147144Y259545D01*
X148652Y253513D02*
X147144Y255022D01*
X150160D01*
X150537Y255399D01*
X150537Y256153D01*
X149783Y256907D01*
X149029Y256906D01*
X130118Y287254D02*
Y284055D01*
X131718D01*
X132251Y284588D01*
Y286721D01*
X131718Y287254D01*
X130118D01*
X133317Y286721D02*
X133850Y287254D01*
X134917D01*
X135450Y286721D01*
Y286188D01*
X134917Y285655D01*
X134383D01*
X134917D01*
X135450Y285121D01*
Y284588D01*
X134917Y284055D01*
X133850D01*
X133317Y284588D01*
X56791Y311270D02*
Y308071D01*
X58391D01*
X58924Y308604D01*
Y310737D01*
X58391Y311270D01*
X56791D01*
X62123D02*
X59990D01*
Y309670D01*
X61057Y310204D01*
X61590D01*
X62123Y309670D01*
Y308604D01*
X61590Y308071D01*
X60523D01*
X59990Y308604D01*
X189467Y259250D02*
X187205Y256988D01*
X188336Y255857D01*
X189090D01*
X190598Y257365D01*
X190598Y258119D01*
X189467Y259250D01*
X193237Y255480D02*
X192106Y255857D01*
X190598D01*
X189844Y255103D01*
Y254349D01*
X190598Y253595D01*
X191352D01*
X191729Y253972D01*
Y254726D01*
X190598Y255857D01*
X195864Y265254D02*
X193602Y262992D01*
X194733Y261861D01*
X195487D01*
X196995Y263369D01*
X196995Y264123D01*
X195864Y265254D01*
X198126Y262992D02*
X199634Y261484D01*
X199257Y261107D01*
X196241D01*
X195864Y260730D01*
X202362Y285286D02*
Y282087D01*
X203962D01*
X204495Y282620D01*
Y284752D01*
X203962Y285286D01*
X202362D01*
X205561Y284752D02*
X206094Y285286D01*
X207161D01*
X207694Y284752D01*
Y284219D01*
X207161Y283686D01*
X207694Y283153D01*
Y282620D01*
X207161Y282087D01*
X206094D01*
X205561Y282620D01*
Y283153D01*
X206094Y283686D01*
X205561Y284219D01*
Y284752D01*
X206094Y283686D02*
X207161D01*
X317274Y320013D02*
Y322146D01*
X314075D01*
Y320013D01*
X315674Y322146D02*
Y321079D01*
X316741Y316814D02*
X317274Y317347D01*
Y318413D01*
X316741Y318947D01*
X316207D01*
X315674Y318413D01*
Y317347D01*
X315141Y316814D01*
X314608D01*
X314075Y317347D01*
Y318413D01*
X314608Y318947D01*
X317274Y315748D02*
X314075D01*
Y314148D01*
X314608Y313615D01*
X316741D01*
X317274Y314148D01*
Y315748D01*
X287369Y224164D02*
X286302D01*
X286836D01*
Y221498D01*
X286302Y220965D01*
X285769D01*
X285236Y221498D01*
X288435Y220431D02*
X290568D01*
X291634Y220965D02*
Y224164D01*
X293234D01*
X293767Y223630D01*
Y222564D01*
X293234Y222031D01*
X291634D01*
X296433Y220965D02*
Y224164D01*
X294833Y222564D01*
X296966D01*
X287172Y214223D02*
X286106D01*
X286639D01*
Y211557D01*
X286106Y211024D01*
X285573D01*
X285039Y211557D01*
X288238Y210490D02*
X290371D01*
X291437Y211024D02*
Y214223D01*
X293037D01*
X293570Y213689D01*
Y212623D01*
X293037Y212090D01*
X291437D01*
X296769Y214223D02*
X294636D01*
Y212623D01*
X295703Y213156D01*
X296236D01*
X296769Y212623D01*
Y211557D01*
X296236Y211024D01*
X295169D01*
X294636Y211557D01*
X297014Y262845D02*
X295948D01*
X296481D01*
Y260179D01*
X295948Y259646D01*
X295415D01*
X294882Y260179D01*
X298081Y259113D02*
X300214D01*
X301280Y259646D02*
Y262845D01*
X302879D01*
X303413Y262312D01*
Y261245D01*
X302879Y260712D01*
X301280D01*
X304479Y259646D02*
X305545D01*
X305012D01*
Y262845D01*
X304479Y262312D01*
X307145Y259646D02*
X308211D01*
X307678D01*
Y262845D01*
X307145Y262312D01*
X313238Y254265D02*
Y255331D01*
Y254798D01*
X310573D01*
X310039Y255331D01*
Y255865D01*
X310573Y256398D01*
X309506Y253199D02*
Y251066D01*
X310039Y250000D02*
X313238D01*
Y248400D01*
X312705Y247867D01*
X311639D01*
X311106Y248400D01*
Y250000D01*
X310039Y246801D02*
Y245734D01*
Y246268D01*
X313238D01*
X312705Y246801D01*
X310039Y242002D02*
Y244135D01*
X312172Y242002D01*
X312705D01*
X313238Y242535D01*
Y243602D01*
X312705Y244135D01*
X293471Y231742D02*
X292405D01*
X292938D01*
Y229077D01*
X292405Y228543D01*
X291872D01*
X291339Y229077D01*
X294538Y228010D02*
X296670D01*
X297737Y228543D02*
Y231742D01*
X299336D01*
X299869Y231209D01*
Y230143D01*
X299336Y229610D01*
X297737D01*
X300936Y228543D02*
X302002D01*
X301469D01*
Y231742D01*
X300936Y231209D01*
X303601D02*
X304134Y231742D01*
X305201D01*
X305734Y231209D01*
Y230676D01*
X305201Y230143D01*
X304668D01*
X305201D01*
X305734Y229610D01*
Y229077D01*
X305201Y228543D01*
X304134D01*
X303601Y229077D01*
X135630Y305512D02*
Y308711D01*
X137229D01*
X137763Y308178D01*
Y307111D01*
X137229Y306578D01*
X135630D01*
X136696D02*
X137763Y305512D01*
X138829D02*
X139895D01*
X139362D01*
Y308711D01*
X138829Y308178D01*
X25394Y316929D02*
Y320128D01*
X26993D01*
X27526Y319595D01*
Y318529D01*
X26993Y317995D01*
X25394D01*
X26460D02*
X27526Y316929D01*
X30725Y320128D02*
X29659Y319595D01*
X28593Y318529D01*
Y317462D01*
X29126Y316929D01*
X30192D01*
X30725Y317462D01*
Y317995D01*
X30192Y318529D01*
X28593D01*
X111909Y311122D02*
X114172Y313384D01*
X115303Y312253D01*
X115303Y311499D01*
X114549Y310745D01*
X113795D01*
X112663Y311876D01*
X113417Y311122D02*
Y309614D01*
X114549Y309237D02*
Y308483D01*
X115303Y307729D01*
X116057D01*
X117564Y309237D01*
X117564Y309991D01*
X116811Y310745D01*
X116057Y310745D01*
X115680Y310368D01*
Y309614D01*
X116811Y308483D01*
X104134Y306398D02*
X106396Y308660D01*
X107527Y307529D01*
X107527Y306775D01*
X106773Y306021D01*
X106019D01*
X104888Y307152D01*
X105642Y306398D02*
Y304890D01*
X106396Y304136D02*
X107150Y303382D01*
X106773Y303759D01*
X109035Y306021D01*
X108281Y306021D01*
X110166Y304136D02*
X110920D01*
X111674Y303382D01*
X111674Y302628D01*
X110166Y301120D01*
X109412D01*
X108658Y301874D01*
Y302628D01*
X110166Y304136D01*
X230906Y302953D02*
Y306152D01*
X232505D01*
X233038Y305619D01*
Y304552D01*
X232505Y304019D01*
X230906D01*
X231972D02*
X233038Y302953D01*
X234104D02*
X235171D01*
X234638D01*
Y306152D01*
X234104Y305619D01*
X236770D02*
X237303Y306152D01*
X238370D01*
X238903Y305619D01*
Y305085D01*
X238370Y304552D01*
X238903Y304019D01*
Y303486D01*
X238370Y302953D01*
X237303D01*
X236770Y303486D01*
Y304019D01*
X237303Y304552D01*
X236770Y305085D01*
Y305619D01*
X237303Y304552D02*
X238370D01*
X165059Y309350D02*
X168258D01*
Y307751D01*
X167725Y307218D01*
X166658D01*
X166125Y307751D01*
Y309350D01*
Y308284D02*
X165059Y307218D01*
Y304019D02*
Y306151D01*
X167192Y304019D01*
X167725D01*
X168258Y304552D01*
Y305618D01*
X167725Y306151D01*
X165059Y302952D02*
Y301886D01*
Y302419D01*
X168258D01*
X167725Y302952D01*
X189469Y310531D02*
X192667D01*
Y308932D01*
X192134Y308399D01*
X191068D01*
X190535Y308932D01*
Y310531D01*
Y309465D02*
X189469Y308399D01*
Y305200D02*
Y307332D01*
X191601Y305200D01*
X192134D01*
X192667Y305733D01*
Y306799D01*
X192134Y307332D01*
X189469Y302001D02*
Y304134D01*
X191601Y302001D01*
X192134D01*
X192667Y302534D01*
Y303600D01*
X192134Y304134D01*
X258268Y312402D02*
Y315600D01*
X259867D01*
X260400Y315067D01*
Y314001D01*
X259867Y313468D01*
X258268D01*
X259334D02*
X260400Y312402D01*
X263599D02*
X261467D01*
X263599Y314534D01*
Y315067D01*
X263066Y315600D01*
X262000D01*
X261467Y315067D01*
X264666D02*
X265199Y315600D01*
X266265D01*
X266798Y315067D01*
Y314534D01*
X266265Y314001D01*
X265732D01*
X266265D01*
X266798Y313468D01*
Y312935D01*
X266265Y312402D01*
X265199D01*
X264666Y312935D01*
X286516Y301476D02*
X289715D01*
Y299877D01*
X289182Y299344D01*
X288115D01*
X287582Y299877D01*
Y301476D01*
Y300410D02*
X286516Y299344D01*
Y296145D02*
Y298277D01*
X288648Y296145D01*
X289182D01*
X289715Y296678D01*
Y297744D01*
X289182Y298277D01*
X289715Y292946D02*
X289182Y294012D01*
X288115Y295078D01*
X287049D01*
X286516Y294545D01*
Y293479D01*
X287049Y292946D01*
X287582D01*
X288115Y293479D01*
Y295078D01*
X264961Y301673D02*
X268160D01*
Y300074D01*
X267626Y299541D01*
X266560D01*
X266027Y300074D01*
Y301673D01*
Y300607D02*
X264961Y299541D01*
Y296342D02*
Y298474D01*
X267093Y296342D01*
X267626D01*
X268160Y296875D01*
Y297941D01*
X267626Y298474D01*
X268160Y295275D02*
Y293143D01*
X267626D01*
X265494Y295275D01*
X264961D01*
X45768Y253297D02*
Y250632D01*
X46301Y250098D01*
X47367D01*
X47900Y250632D01*
Y253297D01*
X51099D02*
X50033Y252764D01*
X48967Y251698D01*
Y250632D01*
X49500Y250098D01*
X50566D01*
X51099Y250632D01*
Y251165D01*
X50566Y251698D01*
X48967D01*
X248031Y290207D02*
Y287541D01*
X248565Y287008D01*
X249631D01*
X250164Y287541D01*
Y290207D01*
X251231D02*
X253363D01*
Y289674D01*
X251231Y287541D01*
Y287008D01*
X63976Y178297D02*
Y175632D01*
X64509Y175098D01*
X65576D01*
X66109Y175632D01*
Y178297D01*
X67175Y175098D02*
X68242D01*
X67708D01*
Y178297D01*
X67175Y177764D01*
X71974Y175098D02*
X69841D01*
X71974Y177231D01*
Y177764D01*
X71441Y178297D01*
X70374D01*
X69841Y177764D01*
X178445Y203494D02*
Y201362D01*
X179511Y200295D01*
X180578Y201362D01*
Y203494D01*
X181644Y200295D02*
X182710D01*
X182177D01*
Y203494D01*
X181644Y202961D01*
X183071Y229183D02*
Y227051D01*
X184137Y225984D01*
X185204Y227051D01*
Y229183D01*
X188402Y225984D02*
X186270D01*
X188402Y228117D01*
Y228650D01*
X187869Y229183D01*
X186803D01*
X186270Y228650D01*
X155020Y222392D02*
Y220259D01*
X156086Y219193D01*
X157152Y220259D01*
Y222392D01*
X158219Y221859D02*
X158752Y222392D01*
X159818D01*
X160351Y221859D01*
Y221326D01*
X159818Y220792D01*
X159285D01*
X159818D01*
X160351Y220259D01*
Y219726D01*
X159818Y219193D01*
X158752D01*
X158219Y219726D01*
X172736Y228986D02*
Y226854D01*
X173802Y225787D01*
X174869Y226854D01*
Y228986D01*
X177535Y225787D02*
Y228986D01*
X175935Y227387D01*
X178068D01*
X85827Y288140D02*
Y287607D01*
X86893Y286540D01*
X87959Y287607D01*
Y288140D01*
X86893Y286540D02*
Y284941D01*
X91158D02*
X89026D01*
X91158Y287074D01*
Y287607D01*
X90625Y288140D01*
X89559D01*
X89026Y287607D01*
X80120Y207675D02*
X80497Y207298D01*
X82005D01*
Y208806D01*
X81628Y209183D01*
X82005Y207298D02*
X83136Y206167D01*
X82759Y209560D02*
X82759Y210314D01*
X83513Y211068D01*
X84267Y211068D01*
X84644Y210691D01*
Y209937D01*
X84267Y209560D01*
X84644Y209937D01*
X85398D01*
X85775Y209560D01*
Y208806D01*
X85021Y208052D01*
X84267D01*
X103117Y188591D02*
X102584Y189124D01*
X101517D01*
X100984Y188591D01*
Y186458D01*
X101517Y185925D01*
X102584D01*
X103117Y186458D01*
X104183Y185925D02*
X105250D01*
X104716D01*
Y189124D01*
X104183Y188591D01*
X106849Y185925D02*
X107915D01*
X107382D01*
Y189124D01*
X106849Y188591D01*
X63402Y198177D02*
X62648Y198177D01*
X61895Y197423D01*
Y196669D01*
X63402Y195160D01*
X64157D01*
X64911Y195914D01*
Y196669D01*
X65288Y200816D02*
X63779Y199308D01*
X64911Y198177D01*
X65288Y199308D01*
X65664Y199685D01*
X66418D01*
X67173Y198931D01*
Y198177D01*
X66418Y197423D01*
X65664D01*
X57792Y203688D02*
X57038Y203688D01*
X56284Y202934D01*
Y202180D01*
X57792Y200672D01*
X58546D01*
X59300Y201426D01*
Y202180D01*
X61562Y203688D02*
X59300Y205950D01*
X59300Y203688D01*
X60808Y205196D01*
X54574Y230200D02*
X54574Y230954D01*
X53820Y231708D01*
X53066D01*
X51558Y230200D01*
Y229446D01*
X52312Y228692D01*
X53066D01*
X55705Y229823D02*
X57213Y228315D01*
X56836Y227938D01*
X53820D01*
X53443Y227561D01*
X6365Y186032D02*
X5832Y186565D01*
X4765D01*
X4232Y186032D01*
Y183899D01*
X4765Y183366D01*
X5832D01*
X6365Y183899D01*
X7431Y183366D02*
Y186565D01*
X9564Y183366D01*
Y186565D01*
X12763Y183366D02*
X10630D01*
X12763Y185499D01*
Y186032D01*
X12230Y186565D01*
X11163D01*
X10630Y186032D01*
X210827Y276231D02*
X212959D01*
X211893D01*
Y273031D01*
X214026D02*
Y276231D01*
X215625D01*
X216158Y275697D01*
Y274631D01*
X215625Y274098D01*
X214026D01*
X219357Y276231D02*
X217225D01*
Y274631D01*
X218291Y275164D01*
X218824D01*
X219357Y274631D01*
Y273565D01*
X218824Y273031D01*
X217758D01*
X217225Y273565D01*
X211910Y309892D02*
X214042D01*
X212976D01*
Y306693D01*
X215108D02*
Y309892D01*
X216708D01*
X217241Y309359D01*
Y308292D01*
X216708Y307759D01*
X215108D01*
X220440Y309892D02*
X219374Y309359D01*
X218307Y308292D01*
Y307226D01*
X218841Y306693D01*
X219907D01*
X220440Y307226D01*
Y307759D01*
X219907Y308292D01*
X218307D01*
X278740Y284400D02*
X280873D01*
X279806D01*
Y281201D01*
X281939D02*
Y284400D01*
X283539D01*
X284072Y283867D01*
Y282800D01*
X283539Y282267D01*
X281939D01*
X285138Y284400D02*
X287271D01*
Y283867D01*
X285138Y281734D01*
Y281201D01*
X265453Y284301D02*
X267585D01*
X266519D01*
Y281102D01*
X268652D02*
Y284301D01*
X270251D01*
X270784Y283768D01*
Y282702D01*
X270251Y282169D01*
X268652D01*
X271851Y283768D02*
X272384Y284301D01*
X273450D01*
X273983Y283768D01*
Y283235D01*
X273450Y282702D01*
X273983Y282169D01*
Y281635D01*
X273450Y281102D01*
X272384D01*
X271851Y281635D01*
Y282169D01*
X272384Y282702D01*
X271851Y283235D01*
Y283768D01*
X272384Y282702D02*
X273450D01*
X46457Y81545D02*
X48589D01*
X47523D01*
Y78347D01*
X49656D02*
Y81545D01*
X51255D01*
X51788Y81012D01*
Y79946D01*
X51255Y79413D01*
X49656D01*
X52855Y78880D02*
X53388Y78347D01*
X54454D01*
X54987Y78880D01*
Y81012D01*
X54454Y81545D01*
X53388D01*
X52855Y81012D01*
Y80479D01*
X53388Y79946D01*
X54987D01*
X46555Y52412D02*
X48688D01*
X47621D01*
Y49213D01*
X49754D02*
Y52412D01*
X51354D01*
X51887Y51878D01*
Y50812D01*
X51354Y50279D01*
X49754D01*
X52953Y49213D02*
X54019D01*
X53486D01*
Y52412D01*
X52953Y51878D01*
X55619D02*
X56152Y52412D01*
X57218D01*
X57752Y51878D01*
Y49746D01*
X57218Y49213D01*
X56152D01*
X55619Y49746D01*
Y51878D01*
X50295Y32923D02*
X52428D01*
X51362D01*
Y29724D01*
X53494D02*
Y32923D01*
X55094D01*
X55627Y32390D01*
Y31324D01*
X55094Y30791D01*
X53494D01*
X56693Y29724D02*
X57759D01*
X57226D01*
Y32923D01*
X56693Y32390D01*
X59359Y29724D02*
X60425D01*
X59892D01*
Y32923D01*
X59359Y32390D01*
X159941Y64223D02*
X162074D01*
X161007D01*
Y61024D01*
X163140D02*
Y64223D01*
X164739D01*
X165273Y63689D01*
Y62623D01*
X164739Y62090D01*
X163140D01*
X166339Y61024D02*
X167405D01*
X166872D01*
Y64223D01*
X166339Y63689D01*
X171137Y61024D02*
X169005D01*
X171137Y63156D01*
Y63689D01*
X170604Y64223D01*
X169538D01*
X169005Y63689D01*
X146260Y171605D02*
X148392D01*
X147326D01*
Y168405D01*
X149459D02*
Y171605D01*
X151058D01*
X151592Y171071D01*
Y170005D01*
X151058Y169472D01*
X149459D01*
X152658Y168405D02*
X153724D01*
X153191D01*
Y171605D01*
X152658Y171071D01*
X155324D02*
X155857Y171605D01*
X156923D01*
X157456Y171071D01*
Y170538D01*
X156923Y170005D01*
X156390D01*
X156923D01*
X157456Y169472D01*
Y168939D01*
X156923Y168405D01*
X155857D01*
X155324Y168939D01*
X175098Y74754D02*
X177231D01*
X176165D01*
Y71555D01*
X178297D02*
Y74754D01*
X179897D01*
X180430Y74221D01*
Y73155D01*
X179897Y72621D01*
X178297D01*
X181496Y71555D02*
X182563D01*
X182029D01*
Y74754D01*
X181496Y74221D01*
X185762Y71555D02*
Y74754D01*
X184162Y73155D01*
X186295D01*
X175098Y57727D02*
X177231D01*
X176165D01*
Y54528D01*
X178297D02*
Y57727D01*
X179897D01*
X180430Y57193D01*
Y56127D01*
X179897Y55594D01*
X178297D01*
X181496Y54528D02*
X182563D01*
X182029D01*
Y57727D01*
X181496Y57193D01*
X186295Y57727D02*
X184162D01*
Y56127D01*
X185229Y56660D01*
X185762D01*
X186295Y56127D01*
Y55061D01*
X185762Y54528D01*
X184695D01*
X184162Y55061D01*
X175098Y43258D02*
X177231D01*
X176165D01*
Y40059D01*
X178297D02*
Y43258D01*
X179897D01*
X180430Y42725D01*
Y41658D01*
X179897Y41125D01*
X178297D01*
X181496Y40059D02*
X182563D01*
X182029D01*
Y43258D01*
X181496Y42725D01*
X186295Y43258D02*
X185229Y42725D01*
X184162Y41658D01*
Y40592D01*
X184695Y40059D01*
X185762D01*
X186295Y40592D01*
Y41125D01*
X185762Y41658D01*
X184162D01*
X249016Y19734D02*
X251148D01*
X250082D01*
Y16535D01*
X252215D02*
Y19734D01*
X253814D01*
X254347Y19201D01*
Y18135D01*
X253814Y17602D01*
X252215D01*
X255414Y16535D02*
X256480D01*
X255947D01*
Y19734D01*
X255414Y19201D01*
X258080Y19734D02*
X260212D01*
Y19201D01*
X258080Y17069D01*
Y16535D01*
X291634Y171408D02*
X293766D01*
X292700D01*
Y168209D01*
X294833D02*
Y171408D01*
X296432D01*
X296966Y170875D01*
Y169808D01*
X296432Y169275D01*
X294833D01*
X298032Y168209D02*
X299098D01*
X298565D01*
Y171408D01*
X298032Y170875D01*
X300698D02*
X301231Y171408D01*
X302297D01*
X302830Y170875D01*
Y170341D01*
X302297Y169808D01*
X302830Y169275D01*
Y168742D01*
X302297Y168209D01*
X301231D01*
X300698Y168742D01*
Y169275D01*
X301231Y169808D01*
X300698Y170341D01*
Y170875D01*
X301231Y169808D02*
X302297D01*
X68110Y270128D02*
X70243D01*
X69177D01*
Y266929D01*
X71309D02*
Y270128D01*
X72909D01*
X73442Y269595D01*
Y268529D01*
X72909Y267995D01*
X71309D01*
X74508Y266929D02*
X75574D01*
X75041D01*
Y270128D01*
X74508Y269595D01*
X89468Y297884D02*
X91601D01*
X90535D01*
Y294685D01*
X92668D02*
Y297884D01*
X94267D01*
X94800Y297351D01*
Y296285D01*
X94267Y295751D01*
X92668D01*
X97999Y294685D02*
X95866D01*
X97999Y296818D01*
Y297351D01*
X97466Y297884D01*
X96400D01*
X95866Y297351D01*
X131986Y279132D02*
X133494Y277624D01*
X132740Y278378D01*
X130478Y276116D01*
X131986Y274608D02*
X134248Y276870D01*
X135379Y275739D01*
X135379Y274985D01*
X134625Y274231D01*
X133871D01*
X132740Y275362D01*
X136133Y274231D02*
X136887Y274231D01*
X137642Y273477D01*
Y272723D01*
X137265Y272346D01*
X136510D01*
X136133Y272723D01*
X136510Y272346D01*
Y271592D01*
X136133Y271215D01*
X135379D01*
X134625Y271969D01*
Y272723D01*
X280709Y9646D02*
Y12845D01*
X282308D01*
X282841Y12312D01*
Y11245D01*
X282308Y10712D01*
X280709D01*
X281775D02*
X282841Y9646D01*
X286040Y12845D02*
X283908D01*
Y11245D01*
X284974D01*
X283908D01*
Y9646D01*
X287107Y9112D02*
X289239D01*
X292438Y12312D02*
X291905Y12845D01*
X290839D01*
X290306Y12312D01*
Y10179D01*
X290839Y9646D01*
X291905D01*
X292438Y10179D01*
Y11245D01*
X291372D01*
X293505Y9646D02*
Y12845D01*
X295637Y9646D01*
Y12845D01*
X296704D02*
Y9646D01*
X298303D01*
X298836Y10179D01*
Y12312D01*
X298303Y12845D01*
X296704D01*
X35630Y10039D02*
Y13238D01*
X37229D01*
X37763Y12705D01*
Y11639D01*
X37229Y11106D01*
X35630D01*
X36696D02*
X37763Y10039D01*
X40962Y13238D02*
X38829D01*
Y11639D01*
X39895D01*
X38829D01*
Y10039D01*
X42028Y9506D02*
X44161D01*
X47359Y12705D02*
X46826Y13238D01*
X45760D01*
X45227Y12705D01*
Y10572D01*
X45760Y10039D01*
X46826D01*
X47359Y10572D01*
Y11639D01*
X46293D01*
X48426Y10039D02*
Y13238D01*
X50558Y10039D01*
Y13238D01*
X51625D02*
Y10039D01*
X53224D01*
X53757Y10572D01*
Y12705D01*
X53224Y13238D01*
X51625D01*
X57054Y302863D02*
X56521Y303396D01*
X55454D01*
X54921Y302863D01*
Y300730D01*
X55454Y300197D01*
X56521D01*
X57054Y300730D01*
Y301796D01*
X55988D01*
X58120Y300197D02*
Y303396D01*
X60253Y300197D01*
Y303396D01*
X61319D02*
Y300197D01*
X62919D01*
X63452Y300730D01*
Y302863D01*
X62919Y303396D01*
X61319D01*
X76050Y194201D02*
X75517Y194734D01*
X74450D01*
X73917Y194201D01*
Y192069D01*
X74450Y191535D01*
X75517D01*
X76050Y192069D01*
Y193135D01*
X74984D01*
X77116Y191535D02*
Y194734D01*
X79249Y191535D01*
Y194734D01*
X80315D02*
Y191535D01*
X81915D01*
X82448Y192069D01*
Y194201D01*
X81915Y194734D01*
X80315D01*
X170276Y32677D02*
Y35876D01*
X171875D01*
X172408Y35343D01*
Y34277D01*
X171875Y33744D01*
X170276D01*
X171342D02*
X172408Y32677D01*
X175607Y35876D02*
X173475D01*
Y34277D01*
X174541D01*
X173475D01*
Y32677D01*
X176673Y32144D02*
X178806D01*
X182005Y35343D02*
X181472Y35876D01*
X180406D01*
X179873Y35343D01*
Y33210D01*
X180406Y32677D01*
X181472D01*
X182005Y33210D01*
Y34277D01*
X180939D01*
X183071Y32677D02*
Y35876D01*
X185204Y32677D01*
Y35876D01*
X186270D02*
Y32677D01*
X187870D01*
X188403Y33210D01*
Y35343D01*
X187870Y35876D01*
X186270D01*
X321818Y33473D02*
X321285Y34006D01*
X320218D01*
X319685Y33473D01*
Y31340D01*
X320218Y30807D01*
X321285D01*
X321818Y31340D01*
Y32407D01*
X320751D01*
X322884Y30807D02*
Y34006D01*
X325017Y30807D01*
Y34006D01*
X326083D02*
Y30807D01*
X327682D01*
X328216Y31340D01*
Y33473D01*
X327682Y34006D01*
X326083D01*
X262402Y203839D02*
X260140Y206101D01*
X261648D01*
X261648Y207609D01*
X263910Y205347D01*
X264287Y209494D02*
X263533Y209494D01*
X262779Y208740D01*
X262779Y207986D01*
X264287Y206478D01*
X265041D01*
X265795Y207232D01*
Y207986D01*
X264664Y210625D02*
X266549Y208740D01*
X267303D01*
X268057Y209494D01*
Y210248D01*
X266172Y212133D01*
X269565Y210248D02*
X271073Y211756D01*
X271450Y212887D02*
X269188Y215149D01*
X270319Y216280D01*
X271073Y216280D01*
X271827Y215526D01*
Y214772D01*
X270696Y213641D01*
X271450Y214395D02*
X272958D01*
X273712Y215149D02*
X272204Y216657D01*
Y218165D01*
X273712D01*
X275220Y216657D01*
X274089Y217788D01*
X272581Y216280D01*
X275974Y217411D02*
X276728Y218165D01*
X276351Y217788D01*
X274089Y220050D01*
X274089Y219296D01*
X93996Y311467D02*
X96129D01*
X95062D01*
Y308268D01*
X97195Y311467D02*
X99328Y308268D01*
Y311467D02*
X97195Y308268D01*
X84153D02*
Y311467D01*
X85753D01*
X86286Y310933D01*
Y309867D01*
X85753Y309334D01*
X84153D01*
X85220D02*
X86286Y308268D01*
X87353Y311467D02*
X89485Y308268D01*
Y311467D02*
X87353Y308268D01*
X74278Y310933D02*
X73745Y311467D01*
X72679D01*
X72146Y310933D01*
Y308801D01*
X72679Y308268D01*
X73745D01*
X74278Y308801D01*
Y309867D01*
X73212D01*
X75345Y308268D02*
Y311467D01*
X77477Y308268D01*
Y311467D01*
X78544D02*
Y308268D01*
X80143D01*
X80676Y308801D01*
Y310933D01*
X80143Y311467D01*
X78544D01*
X273983Y311032D02*
X273450Y311565D01*
X272384D01*
X271850Y311032D01*
Y308899D01*
X272384Y308366D01*
X273450D01*
X273983Y308899D01*
Y309966D01*
X272917D01*
X275049Y308366D02*
Y311565D01*
X277182Y308366D01*
Y311565D01*
X278248D02*
Y308366D01*
X279848D01*
X280381Y308899D01*
Y311032D01*
X279848Y311565D01*
X278248D01*
X283858Y308366D02*
Y311565D01*
X285458D01*
X285991Y311032D01*
Y309966D01*
X285458Y309433D01*
X283858D01*
X284925D02*
X285991Y308366D01*
X287057Y311565D02*
X289190Y308366D01*
Y311565D02*
X287057Y308366D01*
X293701Y311565D02*
X295833D01*
X294767D01*
Y308366D01*
X296900Y311565D02*
X299032Y308366D01*
Y311565D02*
X296900Y308366D01*
X109022Y327510D02*
X107956D01*
X108489D01*
Y324844D01*
X107956Y324311D01*
X107423D01*
X106890Y324844D01*
X110089Y327510D02*
X112221D01*
X111155D01*
Y324311D01*
X113288D02*
Y326444D01*
X114354Y327510D01*
X115420Y326444D01*
Y324311D01*
Y325910D01*
X113288D01*
X118619Y326977D02*
X118086Y327510D01*
X117020D01*
X116487Y326977D01*
Y324844D01*
X117020Y324311D01*
X118086D01*
X118619Y324844D01*
Y325910D01*
X117553D01*
X119686Y326977D02*
X120219Y327510D01*
X121285D01*
X121818Y326977D01*
Y324844D01*
X121285Y324311D01*
X120219D01*
X119686Y324844D01*
Y326977D01*
X214534Y327510D02*
X213468D01*
X214001D01*
Y324844D01*
X213468Y324311D01*
X212935D01*
X212402Y324844D01*
X215600Y327510D02*
X217733D01*
X216667D01*
Y324311D01*
X218799D02*
Y326444D01*
X219866Y327510D01*
X220932Y326444D01*
Y324311D01*
Y325910D01*
X218799D01*
X224131Y326977D02*
X223598Y327510D01*
X222532D01*
X221999Y326977D01*
Y324844D01*
X222532Y324311D01*
X223598D01*
X224131Y324844D01*
Y325910D01*
X223065D01*
X225197Y324311D02*
X226264D01*
X225731D01*
Y327510D01*
X225197Y326977D01*
X177310Y279905D02*
X177310Y280659D01*
X176556Y281413D01*
X175802D01*
X175425Y281036D01*
Y280282D01*
X176179Y279528D01*
Y278774D01*
X175802Y278397D01*
X175048D01*
X174294Y279151D01*
Y279905D01*
X178441Y279528D02*
X178064Y279151D01*
Y277642D01*
X179572D01*
X179949Y278020D01*
X178064Y277642D02*
X176933Y276512D01*
X181834Y275380D02*
Y276134D01*
X181080Y276888D01*
X180326Y276888D01*
X179949Y276512D01*
Y275758D01*
X180703Y275004D01*
Y274250D01*
X180326Y273872D01*
X179572D01*
X178818Y274626D01*
Y275380D01*
X174439Y264533D02*
X172931Y266041D01*
X171800Y264911D01*
X172554Y264157D01*
X171800Y264911D01*
X170669Y263779D01*
X172931Y261518D02*
X174439Y263025D01*
X175947Y263025D01*
X175947Y261518D01*
X174439Y260010D01*
X175570Y261140D01*
X174062Y262649D01*
X177455Y261518D02*
X175570Y259632D01*
Y258878D01*
X176324Y258124D01*
X177078D01*
X178963Y260010D01*
X179717Y259256D02*
X177455Y256994D01*
X178963Y255486D01*
X181979Y256994D02*
X183487Y255486D01*
X182733Y256240D01*
X180471Y253977D01*
X155348Y257117D02*
X153840Y255609D01*
X154971Y254478D01*
X155725Y255231D01*
X154971Y254478D01*
X156102Y253346D01*
X158364Y255609D02*
X156856Y257117D01*
X156856Y258625D01*
X158364Y258625D01*
X159872Y257117D01*
X158741Y258247D01*
X157233Y256739D01*
X158364Y260133D02*
X160249Y258247D01*
X161003D01*
X161757Y259001D01*
Y259755D01*
X159872Y261641D01*
X160626Y262394D02*
X162888Y260133D01*
X164396Y261641D01*
X162888Y264656D02*
X164396Y266164D01*
X163642Y265410D01*
X165904Y263148D01*
X157202Y276917D02*
X156448Y276917D01*
X155694Y276163D01*
Y275409D01*
X156071Y275032D01*
X156825D01*
X157579Y275786D01*
X158333D01*
X158710Y275409D01*
Y274655D01*
X157956Y273901D01*
X157202D01*
X157579Y278048D02*
X157956Y277671D01*
X159464D01*
Y279179D01*
X159087Y279556D01*
X159464Y277671D02*
X160595Y276540D01*
X161726Y281441D02*
X160972D01*
X160218Y280687D01*
X160218Y279933D01*
X160595Y279556D01*
X161349D01*
X162103Y280310D01*
X162857D01*
X163234Y279933D01*
Y279179D01*
X162480Y278425D01*
X161726D01*
X180315Y287549D02*
Y284884D01*
X180848Y284350D01*
X181914D01*
X182448Y284884D01*
Y287549D01*
X183514Y284350D02*
Y287549D01*
X185113D01*
X185647Y287016D01*
Y285950D01*
X185113Y285417D01*
X183514D01*
X173917Y296309D02*
Y293110D01*
X175517D01*
X176050Y293643D01*
Y295776D01*
X175517Y296309D01*
X173917D01*
X178716D02*
X177649D01*
X177116Y295776D01*
Y293643D01*
X177649Y293110D01*
X178716D01*
X179249Y293643D01*
Y295776D01*
X178716Y296309D01*
X180315D02*
Y293110D01*
X181382Y294177D01*
X182448Y293110D01*
Y296309D01*
X183514Y293110D02*
Y296309D01*
X185647Y293110D01*
Y296309D01*
X151969Y287549D02*
Y284884D01*
X152502Y284350D01*
X153568D01*
X154101Y284884D01*
Y287549D01*
X155167Y284350D02*
Y287549D01*
X156767D01*
X157300Y287016D01*
Y285950D01*
X156767Y285417D01*
X155167D01*
X151969Y296309D02*
Y293110D01*
X153568D01*
X154101Y293643D01*
Y295776D01*
X153568Y296309D01*
X151969D01*
X156767D02*
X155701D01*
X155167Y295776D01*
Y293643D01*
X155701Y293110D01*
X156767D01*
X157300Y293643D01*
Y295776D01*
X156767Y296309D01*
X158366D02*
Y293110D01*
X159433Y294177D01*
X160499Y293110D01*
Y296309D01*
X161565Y293110D02*
Y296309D01*
X163698Y293110D01*
Y296309D01*
X244980Y305520D02*
X245514Y306053D01*
X246580D01*
X247113Y305520D01*
Y304987D01*
X246580Y304454D01*
X246047D01*
X246580D01*
X247113Y303921D01*
Y303387D01*
X246580Y302854D01*
X245514D01*
X244980Y303387D01*
X248179Y306053D02*
Y303921D01*
X249246Y302854D01*
X250312Y303921D01*
Y306053D01*
X251378Y305520D02*
X251911Y306053D01*
X252978D01*
X253511Y305520D01*
Y304987D01*
X252978Y304454D01*
X252445D01*
X252978D01*
X253511Y303921D01*
Y303387D01*
X252978Y302854D01*
X251911D01*
X251378Y303387D01*
X254577Y302854D02*
Y306053D01*
X256177D01*
X256710Y305520D01*
Y304454D01*
X256177Y303921D01*
X254577D01*
X255644D02*
X256710Y302854D01*
X257776D02*
X258842D01*
X258309D01*
Y306053D01*
X257776Y305520D01*
X31201Y310737D02*
X31734Y311270D01*
X32800D01*
X33333Y310737D01*
Y310204D01*
X32800Y309670D01*
X32267D01*
X32800D01*
X33333Y309137D01*
Y308604D01*
X32800Y308071D01*
X31734D01*
X31201Y308604D01*
X34400Y311270D02*
Y309137D01*
X35466Y308071D01*
X36532Y309137D01*
Y311270D01*
X37599Y310737D02*
X38132Y311270D01*
X39198D01*
X39731Y310737D01*
Y310204D01*
X39198Y309670D01*
X38665D01*
X39198D01*
X39731Y309137D01*
Y308604D01*
X39198Y308071D01*
X38132D01*
X37599Y308604D01*
X40798Y308071D02*
Y311270D01*
X42397D01*
X42930Y310737D01*
Y309670D01*
X42397Y309137D01*
X40798D01*
X41864D02*
X42930Y308071D01*
X43997Y310737D02*
X44530Y311270D01*
X45596D01*
X46129Y310737D01*
Y308604D01*
X45596Y308071D01*
X44530D01*
X43997Y308604D01*
Y310737D01*
X18241Y298238D02*
Y300371D01*
X19308Y301437D01*
X20374Y300371D01*
Y298238D01*
Y299838D01*
X18241D01*
X21440Y298238D02*
Y301437D01*
X23573Y298238D01*
Y301437D01*
X24639D02*
X26772D01*
X25706D01*
Y298238D01*
X27838Y300904D02*
X28371Y301437D01*
X29438D01*
X29971Y300904D01*
Y298771D01*
X29438Y298238D01*
X28371D01*
X27838Y298771D01*
Y300904D01*
X18241Y238779D02*
Y240912D01*
X19308Y241979D01*
X20374Y240912D01*
Y238779D01*
Y240379D01*
X18241D01*
X21440Y238779D02*
Y241979D01*
X23573Y238779D01*
Y241979D01*
X24639D02*
X26772D01*
X25706D01*
Y238779D01*
X27838D02*
X28905D01*
X28371D01*
Y241979D01*
X27838Y241445D01*
X20374Y293684D02*
Y291551D01*
X21440Y290485D01*
X22507Y291551D01*
Y293684D01*
X25706Y293151D02*
X25172Y293684D01*
X24106D01*
X23573Y293151D01*
Y291018D01*
X24106Y290485D01*
X25172D01*
X25706Y291018D01*
X28905Y293151D02*
X28371Y293684D01*
X27305D01*
X26772Y293151D01*
Y291018D01*
X27305Y290485D01*
X28371D01*
X28905Y291018D01*
X29339Y282447D02*
X29872Y282980D01*
Y284046D01*
X29339Y284580D01*
X28806D01*
X28273Y284046D01*
Y282980D01*
X27740Y282447D01*
X27206D01*
X26673Y282980D01*
Y284046D01*
X27206Y284580D01*
X29872Y281381D02*
X26673D01*
Y279781D01*
X27206Y279248D01*
X29339D01*
X29872Y279781D01*
Y281381D01*
X26673Y278182D02*
X28806D01*
X29872Y277115D01*
X28806Y276049D01*
X26673D01*
X28273D01*
Y278182D01*
X29339Y270833D02*
X29872Y271366D01*
Y272432D01*
X29339Y272965D01*
X28806D01*
X28273Y272432D01*
Y271366D01*
X27740Y270833D01*
X27206D01*
X26673Y271366D01*
Y272432D01*
X27206Y272965D01*
X29339Y267634D02*
X29872Y268167D01*
Y269233D01*
X29339Y269766D01*
X27206D01*
X26673Y269233D01*
Y268167D01*
X27206Y267634D01*
X29872Y266567D02*
X26673D01*
Y264435D01*
X22507Y258505D02*
X21973Y259038D01*
X20907D01*
X20374Y258505D01*
Y256373D01*
X20907Y255839D01*
X21973D01*
X22507Y256373D01*
Y257439D01*
X21440D01*
X23573Y255839D02*
Y259038D01*
X25706Y255839D01*
Y259038D01*
X26772D02*
Y255839D01*
X28371D01*
X28905Y256373D01*
Y258505D01*
X28371Y259038D01*
X26772D01*
X210581Y322130D02*
X208448D01*
X207382Y321064D01*
X208448Y319997D01*
X210581D01*
X210048Y316798D02*
X210581Y317332D01*
Y318398D01*
X210048Y318931D01*
X207915D01*
X207382Y318398D01*
Y317332D01*
X207915Y316798D01*
X210048Y313599D02*
X210581Y314132D01*
Y315199D01*
X210048Y315732D01*
X207915D01*
X207382Y315199D01*
Y314132D01*
X207915Y313599D01*
X205655Y322130D02*
Y319997D01*
Y321064D01*
X202456D01*
X205655Y318931D02*
X202456D01*
Y317332D01*
X202989Y316798D01*
X205122D01*
X205655Y317332D01*
Y318931D01*
Y314132D02*
Y315199D01*
X205122Y315732D01*
X202989D01*
X202456Y315199D01*
Y314132D01*
X202989Y313599D01*
X205122D01*
X205655Y314132D01*
X200729Y322130D02*
Y319997D01*
Y321064D01*
X197530D01*
X200196Y316798D02*
X200729Y317332D01*
Y318398D01*
X200196Y318931D01*
X198063D01*
X197530Y318398D01*
Y317332D01*
X198063Y316798D01*
X200729Y315732D02*
X197530D01*
X198596D01*
X200729Y313599D01*
X199129Y315199D01*
X197530Y313599D01*
X116339Y203937D02*
X114077Y206199D01*
X115585D01*
X115585Y207707D01*
X117847Y205445D01*
X118224Y209592D02*
X117470Y209592D01*
X116716Y208838D01*
X116716Y208084D01*
X118224Y206576D01*
X118978D01*
X119732Y207330D01*
Y208084D01*
X118601Y210723D02*
X120486Y208838D01*
X121240D01*
X121994Y209592D01*
Y210346D01*
X120109Y212231D01*
X123502Y210346D02*
X125010Y211854D01*
X125387Y212985D02*
X123125Y215247D01*
X124256Y216378D01*
X125010Y216378D01*
X125764Y215624D01*
Y214870D01*
X124633Y213739D01*
X125387Y214493D02*
X126895D01*
X127649Y215247D02*
X126141Y216755D01*
Y218263D01*
X127649D01*
X129157Y216755D01*
X128026Y217886D01*
X126518Y216378D01*
X128026Y219394D02*
X128026Y220148D01*
X128780Y220902D01*
X129534Y220902D01*
X131042Y219394D01*
Y218640D01*
X130288Y217886D01*
X129534D01*
X128026Y219394D01*
X22507Y199024D02*
X21973Y199557D01*
X20907D01*
X20374Y199024D01*
Y196891D01*
X20907Y196358D01*
X21973D01*
X22507Y196891D01*
Y197958D01*
X21440D01*
X23573Y196358D02*
Y199557D01*
X25706Y196358D01*
Y199557D01*
X26772D02*
Y196358D01*
X28371D01*
X28905Y196891D01*
Y199024D01*
X28371Y199557D01*
X26772D01*
X29339Y211352D02*
X29872Y211885D01*
Y212951D01*
X29339Y213484D01*
X28806D01*
X28273Y212951D01*
Y211885D01*
X27740Y211352D01*
X27206D01*
X26673Y211885D01*
Y212951D01*
X27206Y213484D01*
X29339Y208153D02*
X29872Y208686D01*
Y209752D01*
X29339Y210285D01*
X27206D01*
X26673Y209752D01*
Y208686D01*
X27206Y208153D01*
X29872Y207086D02*
X26673D01*
Y204954D01*
X29339Y222966D02*
X29872Y223499D01*
Y224565D01*
X29339Y225098D01*
X28806D01*
X28273Y224565D01*
Y223499D01*
X27740Y222966D01*
X27206D01*
X26673Y223499D01*
Y224565D01*
X27206Y225098D01*
X29872Y221900D02*
X26673D01*
Y220300D01*
X27206Y219767D01*
X29339D01*
X29872Y220300D01*
Y221900D01*
X26673Y218701D02*
X28806D01*
X29872Y217634D01*
X28806Y216568D01*
X26673D01*
X28273D01*
Y218701D01*
X20374Y234203D02*
Y232070D01*
X21440Y231004D01*
X22507Y232070D01*
Y234203D01*
X25706Y233670D02*
X25172Y234203D01*
X24106D01*
X23573Y233670D01*
Y231537D01*
X24106Y231004D01*
X25172D01*
X25706Y231537D01*
X28905Y233670D02*
X28371Y234203D01*
X27305D01*
X26772Y233670D01*
Y231537D01*
X27305Y231004D01*
X28371D01*
X28905Y231537D01*
X179200Y321597D02*
X178666Y322130D01*
X177600D01*
X177067Y321597D01*
Y319464D01*
X177600Y318931D01*
X178666D01*
X179200Y319464D01*
Y320530D01*
X178133D01*
X180266Y318931D02*
Y322130D01*
X182398Y318931D01*
Y322130D01*
X183465D02*
Y318931D01*
X185064D01*
X185598Y319464D01*
Y321597D01*
X185064Y322130D01*
X183465D01*
X187678D02*
X190877D01*
Y320531D01*
X190344Y319997D01*
X189278D01*
X188744Y320531D01*
Y322130D01*
Y321064D02*
X187678Y319997D01*
X190877Y318931D02*
X187678Y316798D01*
X190877D02*
X187678Y318931D01*
X195803Y322130D02*
Y319997D01*
Y321064D01*
X192604D01*
X195803Y318931D02*
X192604Y316798D01*
X195803D02*
X192604Y318931D01*
X151723Y322130D02*
X149590D01*
X148524Y321064D01*
X149590Y319997D01*
X151723D01*
X151189Y316798D02*
X151723Y317332D01*
Y318398D01*
X151189Y318931D01*
X149057D01*
X148524Y318398D01*
Y317332D01*
X149057Y316798D01*
X151189Y313599D02*
X151723Y314132D01*
Y315199D01*
X151189Y315732D01*
X149057D01*
X148524Y315199D01*
Y314132D01*
X149057Y313599D01*
X146797Y322130D02*
Y319997D01*
Y321064D01*
X143598D01*
X146797Y318931D02*
X143598D01*
Y317332D01*
X144131Y316798D01*
X146264D01*
X146797Y317332D01*
Y318931D01*
Y314132D02*
Y315199D01*
X146264Y315732D01*
X144131D01*
X143598Y315199D01*
Y314132D01*
X144131Y313599D01*
X146264D01*
X146797Y314132D01*
X141871Y322130D02*
Y319997D01*
Y321064D01*
X138672D01*
X141338Y316798D02*
X141871Y317332D01*
Y318398D01*
X141338Y318931D01*
X139205D01*
X138672Y318398D01*
Y317332D01*
X139205Y316798D01*
X141871Y315732D02*
X138672D01*
X139738D01*
X141871Y313599D01*
X140271Y315199D01*
X138672Y313599D01*
X136945Y322130D02*
Y319997D01*
Y321064D01*
X133746D01*
X136945Y318931D02*
X133746Y316798D01*
X136945D02*
X133746Y318931D01*
X128820Y322130D02*
X132019D01*
Y320531D01*
X131486Y319997D01*
X130419D01*
X129886Y320531D01*
Y322130D01*
Y321064D02*
X128820Y319997D01*
X132019Y318931D02*
X128820Y316798D01*
X132019D02*
X128820Y318931D01*
X126288Y319997D02*
X126821Y320531D01*
Y321597D01*
X126288Y322130D01*
X124155D01*
X123622Y321597D01*
Y320531D01*
X124155Y319997D01*
X125222D01*
Y321064D01*
X123622Y318931D02*
X126821D01*
X123622Y316798D01*
X126821D01*
Y315732D02*
X123622D01*
Y314132D01*
X124155Y313599D01*
X126288D01*
X126821Y314132D01*
Y315732D01*
X240158Y175492D02*
Y178691D01*
X241757D01*
X242290Y178158D01*
Y177092D01*
X241757Y176558D01*
X240158D01*
X241224D02*
X242290Y175492D01*
X243356D02*
Y177625D01*
X244423Y178691D01*
X245489Y177625D01*
Y175492D01*
Y177092D01*
X243356D01*
X246555Y178691D02*
Y175492D01*
X248155D01*
X248688Y176025D01*
Y178158D01*
X248155Y178691D01*
X246555D01*
X249754D02*
X250821D01*
X250288D01*
Y175492D01*
X249754D01*
X250821D01*
X254020Y178691D02*
X252953D01*
X252420Y178158D01*
Y176025D01*
X252953Y175492D01*
X254020D01*
X254553Y176025D01*
Y178158D01*
X254020Y178691D01*
X258818Y175492D02*
X259885D01*
X259351D01*
Y178691D01*
X258818Y178158D01*
X90945Y175492D02*
Y178691D01*
X92544D01*
X93077Y178158D01*
Y177092D01*
X92544Y176558D01*
X90945D01*
X92011D02*
X93077Y175492D01*
X94144D02*
Y177625D01*
X95210Y178691D01*
X96276Y177625D01*
Y175492D01*
Y177092D01*
X94144D01*
X97343Y178691D02*
Y175492D01*
X98942D01*
X99476Y176025D01*
Y178158D01*
X98942Y178691D01*
X97343D01*
X100542D02*
X101608D01*
X101075D01*
Y175492D01*
X100542D01*
X101608D01*
X104807Y178691D02*
X103741D01*
X103208Y178158D01*
Y176025D01*
X103741Y175492D01*
X104807D01*
X105340Y176025D01*
Y178158D01*
X104807Y178691D01*
X109606Y178158D02*
X110139Y178691D01*
X111205D01*
X111738Y178158D01*
Y176025D01*
X111205Y175492D01*
X110139D01*
X109606Y176025D01*
Y178158D01*
D19*
X325787Y318110D02*
D03*
X305020Y223819D02*
D03*
Y213976D02*
D03*
X301673Y254725D02*
D03*
Y245374D02*
D03*
Y236024D02*
D03*
X148327Y305398D02*
D03*
X39272Y319980D02*
D03*
X259941Y319980D02*
D03*
X190957Y204035D02*
D03*
X161909Y214059D02*
D03*
D20*
X123099Y302574D02*
D03*
X116406Y296078D02*
D03*
D21*
X235540Y314744D02*
D03*
X173622Y308759D02*
D03*
X184252Y308957D02*
D03*
X281791Y297835D02*
D03*
X272933Y297736D02*
D03*
X186319Y217421D02*
D03*
X175394Y217421D02*
D03*
M02*
