G04*
G04 #@! TF.GenerationSoftware,Altium Limited,Altium Designer,18.1.7 (191)*
G04*
G04 Layer_Color=32896*
%FSLAX25Y25*%
%MOIN*%
G70*
G01*
G75*
%ADD11C,0.01000*%
%ADD12C,0.00984*%
%ADD14C,0.00394*%
%ADD15C,0.00787*%
%ADD18C,0.00700*%
%ADD19R,0.02000X0.06000*%
G04:AMPARAMS|DCode=20|XSize=20mil|YSize=60mil|CornerRadius=0mil|HoleSize=0mil|Usage=FLASHONLY|Rotation=135.000|XOffset=0mil|YOffset=0mil|HoleType=Round|Shape=Rectangle|*
%AMROTATEDRECTD20*
4,1,4,0.02828,0.01414,-0.01414,-0.02828,-0.02828,-0.01414,0.01414,0.02828,0.02828,0.01414,0.0*
%
%ADD20ROTATEDRECTD20*%

%ADD21R,0.06000X0.02000*%
%ADD113C,0.00600*%
G04:AMPARAMS|DCode=114|XSize=20mil|YSize=60mil|CornerRadius=0mil|HoleSize=0mil|Usage=FLASHONLY|Rotation=225.000|XOffset=0mil|YOffset=0mil|HoleType=Round|Shape=Rectangle|*
%AMROTATEDRECTD114*
4,1,4,-0.01414,0.02828,0.02828,-0.01414,0.01414,-0.02828,-0.02828,0.01414,-0.01414,0.02828,0.0*
%
%ADD114ROTATEDRECTD114*%

G36*
X47244Y22795D02*
X43307D01*
X45276Y24764D01*
X47244Y22795D01*
D02*
G37*
G36*
X55216Y14823D02*
X53248Y12854D01*
Y16791D01*
X55216Y14823D01*
D02*
G37*
G36*
X675312Y-120282D02*
X675417Y-120301D01*
X675533Y-120340D01*
X675667Y-120378D01*
X675811Y-120446D01*
X675965Y-120532D01*
X675686Y-121243D01*
X675677Y-121234D01*
X675638Y-121214D01*
X675581Y-121186D01*
X675514Y-121157D01*
X675427Y-121128D01*
X675331Y-121099D01*
X675225Y-121080D01*
X675119Y-121070D01*
X675081D01*
X675033Y-121080D01*
X674966Y-121090D01*
X674898Y-121109D01*
X674822Y-121138D01*
X674745Y-121176D01*
X674668Y-121224D01*
X674658Y-121234D01*
X674639Y-121253D01*
X674601Y-121291D01*
X674562Y-121339D01*
X674514Y-121397D01*
X674466Y-121474D01*
X674428Y-121560D01*
X674389Y-121657D01*
X674379Y-121676D01*
X674370Y-121724D01*
X674351Y-121810D01*
X674331Y-121926D01*
X674303Y-122060D01*
X674283Y-122214D01*
X674274Y-122377D01*
X674264Y-122560D01*
Y-124953D01*
X673486D01*
Y-120378D01*
X674187D01*
Y-121061D01*
X674197Y-121051D01*
X674235Y-120993D01*
X674283Y-120907D01*
X674341Y-120811D01*
X674418Y-120705D01*
X674504Y-120599D01*
X674581Y-120503D01*
X674668Y-120436D01*
X674677Y-120426D01*
X674706Y-120407D01*
X674754Y-120388D01*
X674822Y-120350D01*
X674889Y-120321D01*
X674975Y-120301D01*
X675071Y-120282D01*
X675168Y-120273D01*
X675235D01*
X675312Y-120282D01*
D02*
G37*
G36*
X652440D02*
X652497D01*
X652565Y-120292D01*
X652709Y-120321D01*
X652882Y-120369D01*
X653055Y-120436D01*
X653218Y-120532D01*
X653372Y-120657D01*
X653391Y-120676D01*
X653430Y-120724D01*
X653487Y-120820D01*
X653564Y-120945D01*
X653631Y-121109D01*
X653689Y-121301D01*
X653728Y-121541D01*
X653747Y-121676D01*
Y-121820D01*
Y-124953D01*
X652968D01*
Y-122079D01*
Y-122070D01*
Y-122060D01*
Y-122002D01*
Y-121916D01*
X652959Y-121820D01*
X652940Y-121599D01*
X652920Y-121493D01*
X652891Y-121407D01*
Y-121397D01*
X652872Y-121368D01*
X652853Y-121330D01*
X652824Y-121282D01*
X652786Y-121234D01*
X652738Y-121176D01*
X652680Y-121118D01*
X652613Y-121070D01*
X652603Y-121061D01*
X652574Y-121051D01*
X652536Y-121032D01*
X652488Y-121003D01*
X652421Y-120984D01*
X652334Y-120965D01*
X652248Y-120955D01*
X652152Y-120945D01*
X652075D01*
X651979Y-120965D01*
X651873Y-120984D01*
X651748Y-121022D01*
X651613Y-121080D01*
X651469Y-121166D01*
X651344Y-121272D01*
X651335Y-121291D01*
X651296Y-121330D01*
X651248Y-121407D01*
X651191Y-121522D01*
X651123Y-121666D01*
X651075Y-121839D01*
X651037Y-122050D01*
X651027Y-122300D01*
Y-124953D01*
X650249D01*
Y-121983D01*
Y-121974D01*
Y-121964D01*
Y-121935D01*
Y-121897D01*
X650239Y-121801D01*
X650230Y-121695D01*
X650201Y-121560D01*
X650172Y-121435D01*
X650124Y-121311D01*
X650057Y-121205D01*
X650047Y-121195D01*
X650018Y-121166D01*
X649980Y-121118D01*
X649912Y-121070D01*
X649826Y-121032D01*
X649720Y-120984D01*
X649595Y-120955D01*
X649441Y-120945D01*
X649384D01*
X649326Y-120955D01*
X649240Y-120965D01*
X649153Y-120984D01*
X649048Y-121022D01*
X648942Y-121061D01*
X648836Y-121118D01*
X648827Y-121128D01*
X648788Y-121147D01*
X648740Y-121195D01*
X648682Y-121243D01*
X648615Y-121320D01*
X648548Y-121407D01*
X648490Y-121512D01*
X648432Y-121628D01*
X648423Y-121647D01*
X648413Y-121685D01*
X648394Y-121762D01*
X648375Y-121868D01*
X648346Y-122002D01*
X648327Y-122166D01*
X648317Y-122358D01*
X648308Y-122579D01*
Y-124953D01*
X647529D01*
Y-120378D01*
X648221D01*
Y-121022D01*
X648231Y-121003D01*
X648259Y-120965D01*
X648308Y-120907D01*
X648375Y-120830D01*
X648452Y-120744D01*
X648548Y-120657D01*
X648663Y-120561D01*
X648788Y-120484D01*
X648807Y-120475D01*
X648855Y-120455D01*
X648932Y-120417D01*
X649028Y-120378D01*
X649153Y-120340D01*
X649288Y-120301D01*
X649451Y-120282D01*
X649614Y-120273D01*
X649701D01*
X649797Y-120282D01*
X649912Y-120301D01*
X650037Y-120321D01*
X650181Y-120359D01*
X650316Y-120417D01*
X650441Y-120484D01*
X650460Y-120494D01*
X650499Y-120523D01*
X650556Y-120571D01*
X650624Y-120638D01*
X650701Y-120724D01*
X650777Y-120820D01*
X650845Y-120945D01*
X650902Y-121080D01*
X650912Y-121070D01*
X650931Y-121042D01*
X650960Y-121003D01*
X650998Y-120955D01*
X651056Y-120888D01*
X651123Y-120820D01*
X651200Y-120753D01*
X651287Y-120676D01*
X651383Y-120599D01*
X651488Y-120532D01*
X651738Y-120398D01*
X651873Y-120350D01*
X652017Y-120311D01*
X652161Y-120282D01*
X652324Y-120273D01*
X652392D01*
X652440Y-120282D01*
D02*
G37*
G36*
X726111Y-125394D02*
X725390D01*
Y-124827D01*
X725380Y-124836D01*
X725371Y-124855D01*
X725342Y-124884D01*
X725303Y-124932D01*
X725265Y-124980D01*
X725207Y-125038D01*
X725140Y-125096D01*
X725063Y-125163D01*
X724976Y-125221D01*
X724880Y-125288D01*
X724775Y-125346D01*
X724669Y-125394D01*
X724544Y-125442D01*
X724409Y-125471D01*
X724265Y-125490D01*
X724112Y-125499D01*
X724054D01*
X724016Y-125490D01*
X723910Y-125480D01*
X723785Y-125461D01*
X723622Y-125423D01*
X723458Y-125374D01*
X723276Y-125298D01*
X723103Y-125201D01*
X723093D01*
X723083Y-125192D01*
X723026Y-125144D01*
X722949Y-125077D01*
X722843Y-124980D01*
X722737Y-124865D01*
X722612Y-124721D01*
X722507Y-124558D01*
X722401Y-124365D01*
Y-124356D01*
X722391Y-124337D01*
X722382Y-124308D01*
X722363Y-124269D01*
X722343Y-124221D01*
X722324Y-124154D01*
X722276Y-124000D01*
X722228Y-123818D01*
X722190Y-123606D01*
X722161Y-123376D01*
X722151Y-123116D01*
Y-123107D01*
Y-123087D01*
Y-123049D01*
Y-123001D01*
X722161Y-122943D01*
Y-122866D01*
X722180Y-122703D01*
X722209Y-122511D01*
X722247Y-122309D01*
X722295Y-122088D01*
X722372Y-121876D01*
Y-121867D01*
X722382Y-121848D01*
X722401Y-121819D01*
X722420Y-121780D01*
X722468Y-121684D01*
X722545Y-121559D01*
X722641Y-121415D01*
X722757Y-121271D01*
X722891Y-121136D01*
X723055Y-121011D01*
X723064D01*
X723074Y-121002D01*
X723131Y-120964D01*
X723228Y-120915D01*
X723352Y-120858D01*
X723506Y-120810D01*
X723679Y-120762D01*
X723871Y-120723D01*
X724073Y-120714D01*
X724141D01*
X724217Y-120723D01*
X724323Y-120733D01*
X724429Y-120762D01*
X724554Y-120791D01*
X724679Y-120839D01*
X724803Y-120896D01*
X724823Y-120906D01*
X724861Y-120925D01*
X724919Y-120964D01*
X724996Y-121021D01*
X725073Y-121079D01*
X725169Y-121156D01*
X725255Y-121252D01*
X725332Y-121348D01*
Y-119080D01*
X726111D01*
Y-125394D01*
D02*
G37*
G36*
X712878Y-125394D02*
X712157D01*
Y-124827D01*
X712147Y-124836D01*
X712138Y-124855D01*
X712109Y-124884D01*
X712070Y-124932D01*
X712032Y-124980D01*
X711974Y-125038D01*
X711907Y-125096D01*
X711830Y-125163D01*
X711744Y-125221D01*
X711648Y-125288D01*
X711542Y-125346D01*
X711436Y-125394D01*
X711311Y-125442D01*
X711177Y-125471D01*
X711032Y-125490D01*
X710879Y-125499D01*
X710821D01*
X710783Y-125490D01*
X710677Y-125480D01*
X710552Y-125461D01*
X710389Y-125423D01*
X710225Y-125374D01*
X710043Y-125298D01*
X709870Y-125201D01*
X709860D01*
X709850Y-125192D01*
X709793Y-125144D01*
X709716Y-125077D01*
X709610Y-124980D01*
X709504Y-124865D01*
X709379Y-124721D01*
X709274Y-124558D01*
X709168Y-124365D01*
Y-124356D01*
X709159Y-124337D01*
X709149Y-124308D01*
X709130Y-124269D01*
X709110Y-124221D01*
X709091Y-124154D01*
X709043Y-124000D01*
X708995Y-123818D01*
X708957Y-123606D01*
X708928Y-123376D01*
X708918Y-123116D01*
Y-123107D01*
Y-123087D01*
Y-123049D01*
Y-123001D01*
X708928Y-122943D01*
Y-122866D01*
X708947Y-122703D01*
X708976Y-122511D01*
X709014Y-122309D01*
X709062Y-122088D01*
X709139Y-121876D01*
Y-121867D01*
X709149Y-121848D01*
X709168Y-121819D01*
X709187Y-121780D01*
X709235Y-121684D01*
X709312Y-121559D01*
X709408Y-121415D01*
X709524Y-121271D01*
X709658Y-121136D01*
X709822Y-121011D01*
X709831D01*
X709841Y-121002D01*
X709898Y-120964D01*
X709995Y-120915D01*
X710119Y-120858D01*
X710273Y-120810D01*
X710446Y-120762D01*
X710638Y-120723D01*
X710840Y-120714D01*
X710908D01*
X710984Y-120723D01*
X711090Y-120733D01*
X711196Y-120762D01*
X711321Y-120791D01*
X711446Y-120839D01*
X711571Y-120896D01*
X711590Y-120906D01*
X711628Y-120925D01*
X711686Y-120964D01*
X711763Y-121021D01*
X711840Y-121079D01*
X711936Y-121156D01*
X712022Y-121252D01*
X712099Y-121348D01*
Y-119080D01*
X712878D01*
Y-125394D01*
D02*
G37*
G36*
X708092Y-120723D02*
X708197Y-120742D01*
X708313Y-120781D01*
X708447Y-120819D01*
X708592Y-120887D01*
X708745Y-120973D01*
X708467Y-121684D01*
X708457Y-121675D01*
X708419Y-121655D01*
X708361Y-121627D01*
X708294Y-121598D01*
X708207Y-121569D01*
X708111Y-121540D01*
X708005Y-121521D01*
X707900Y-121511D01*
X707861D01*
X707813Y-121521D01*
X707746Y-121530D01*
X707679Y-121550D01*
X707602Y-121579D01*
X707525Y-121617D01*
X707448Y-121665D01*
X707438Y-121675D01*
X707419Y-121694D01*
X707381Y-121732D01*
X707342Y-121780D01*
X707294Y-121838D01*
X707246Y-121915D01*
X707208Y-122001D01*
X707169Y-122098D01*
X707160Y-122117D01*
X707150Y-122165D01*
X707131Y-122251D01*
X707112Y-122367D01*
X707083Y-122501D01*
X707063Y-122655D01*
X707054Y-122818D01*
X707044Y-123001D01*
Y-125394D01*
X706266D01*
Y-120819D01*
X706967D01*
Y-121502D01*
X706977Y-121492D01*
X707015Y-121434D01*
X707063Y-121348D01*
X707121Y-121252D01*
X707198Y-121146D01*
X707284Y-121040D01*
X707361Y-120944D01*
X707448Y-120877D01*
X707457Y-120867D01*
X707486Y-120848D01*
X707534Y-120829D01*
X707602Y-120791D01*
X707669Y-120762D01*
X707755Y-120742D01*
X707852Y-120723D01*
X707948Y-120714D01*
X708015D01*
X708092Y-120723D01*
D02*
G37*
G36*
X666173Y-124953D02*
X665442D01*
X663703Y-120378D01*
X664520D01*
X665500Y-123127D01*
X665510Y-123146D01*
X665529Y-123204D01*
X665557Y-123290D01*
X665596Y-123406D01*
X665644Y-123540D01*
X665692Y-123694D01*
X665750Y-123867D01*
X665798Y-124040D01*
X665807Y-124021D01*
X665817Y-123973D01*
X665846Y-123896D01*
X665875Y-123800D01*
X665913Y-123675D01*
X665961Y-123521D01*
X666019Y-123357D01*
X666086Y-123175D01*
X667105Y-120378D01*
X667902D01*
X666173Y-124953D01*
D02*
G37*
G36*
X685296Y-125030D02*
Y-125039D01*
X685287Y-125058D01*
X685268Y-125097D01*
X685248Y-125155D01*
X685229Y-125212D01*
X685200Y-125279D01*
X685143Y-125443D01*
X685066Y-125616D01*
X684999Y-125779D01*
X684931Y-125943D01*
X684893Y-126010D01*
X684864Y-126067D01*
X684854Y-126087D01*
X684826Y-126125D01*
X684787Y-126192D01*
X684729Y-126279D01*
X684653Y-126365D01*
X684576Y-126462D01*
X684480Y-126548D01*
X684383Y-126625D01*
X684374Y-126635D01*
X684336Y-126654D01*
X684278Y-126683D01*
X684201Y-126711D01*
X684114Y-126750D01*
X683999Y-126779D01*
X683884Y-126798D01*
X683749Y-126807D01*
X683711D01*
X683663Y-126798D01*
X683605D01*
X683528Y-126788D01*
X683442Y-126769D01*
X683250Y-126711D01*
X683163Y-125991D01*
X683173D01*
X683202Y-126000D01*
X683250Y-126010D01*
X683317Y-126029D01*
X683451Y-126058D01*
X683605Y-126067D01*
X683653D01*
X683692Y-126058D01*
X683759D01*
X683893Y-126029D01*
X683961Y-126010D01*
X684018Y-125981D01*
X684028D01*
X684047Y-125962D01*
X684076Y-125943D01*
X684105Y-125914D01*
X684191Y-125837D01*
X684278Y-125731D01*
Y-125722D01*
X684287Y-125702D01*
X684307Y-125673D01*
X684336Y-125616D01*
X684364Y-125539D01*
X684403Y-125443D01*
X684451Y-125308D01*
X684508Y-125155D01*
X684518Y-125145D01*
X684528Y-125107D01*
X684556Y-125049D01*
X684585Y-124962D01*
X682846Y-120378D01*
X683672D01*
X684624Y-123012D01*
Y-123021D01*
X684633Y-123031D01*
X684643Y-123060D01*
X684653Y-123098D01*
X684691Y-123204D01*
X684739Y-123338D01*
X684787Y-123492D01*
X684845Y-123675D01*
X684902Y-123867D01*
X684960Y-124069D01*
Y-124059D01*
X684970Y-124049D01*
Y-124021D01*
X684989Y-123982D01*
X685008Y-123876D01*
X685047Y-123751D01*
X685095Y-123598D01*
X685152Y-123425D01*
X685210Y-123242D01*
X685277Y-123050D01*
X686257Y-120378D01*
X687026D01*
X685296Y-125030D01*
D02*
G37*
G36*
X680511Y-120282D02*
X680645Y-120292D01*
X680799Y-120311D01*
X680962Y-120330D01*
X681116Y-120369D01*
X681260Y-120417D01*
X681280Y-120426D01*
X681318Y-120436D01*
X681385Y-120475D01*
X681462Y-120513D01*
X681549Y-120561D01*
X681645Y-120619D01*
X681721Y-120686D01*
X681798Y-120763D01*
X681808Y-120772D01*
X681827Y-120801D01*
X681856Y-120840D01*
X681894Y-120907D01*
X681933Y-120984D01*
X681971Y-121070D01*
X682010Y-121176D01*
X682039Y-121291D01*
Y-121301D01*
X682048Y-121330D01*
X682058Y-121378D01*
X682067Y-121455D01*
Y-121551D01*
X682077Y-121676D01*
X682087Y-121820D01*
Y-122002D01*
Y-123040D01*
Y-123050D01*
Y-123088D01*
Y-123146D01*
Y-123213D01*
Y-123300D01*
Y-123396D01*
X682096Y-123617D01*
Y-123857D01*
X682106Y-124078D01*
X682116Y-124184D01*
Y-124270D01*
X682125Y-124347D01*
X682135Y-124415D01*
Y-124424D01*
X682144Y-124463D01*
X682154Y-124520D01*
X682173Y-124588D01*
X682202Y-124664D01*
X682240Y-124761D01*
X682327Y-124953D01*
X681520D01*
X681510Y-124943D01*
X681500Y-124914D01*
X681481Y-124857D01*
X681453Y-124789D01*
X681424Y-124703D01*
X681404Y-124607D01*
X681385Y-124501D01*
X681366Y-124376D01*
X681347Y-124395D01*
X681289Y-124434D01*
X681212Y-124501D01*
X681097Y-124578D01*
X680972Y-124674D01*
X680828Y-124761D01*
X680684Y-124837D01*
X680530Y-124905D01*
X680511Y-124914D01*
X680463Y-124924D01*
X680386Y-124953D01*
X680280Y-124982D01*
X680146Y-125010D01*
X680001Y-125030D01*
X679848Y-125049D01*
X679675Y-125058D01*
X679607D01*
X679550Y-125049D01*
X679492D01*
X679415Y-125039D01*
X679252Y-125010D01*
X679060Y-124972D01*
X678877Y-124905D01*
X678685Y-124818D01*
X678521Y-124693D01*
X678502Y-124674D01*
X678454Y-124626D01*
X678397Y-124549D01*
X678320Y-124434D01*
X678243Y-124299D01*
X678185Y-124145D01*
X678137Y-123953D01*
X678118Y-123751D01*
Y-123732D01*
Y-123694D01*
X678127Y-123627D01*
X678137Y-123550D01*
X678156Y-123454D01*
X678175Y-123348D01*
X678214Y-123242D01*
X678262Y-123136D01*
X678271Y-123127D01*
X678291Y-123088D01*
X678320Y-123040D01*
X678368Y-122973D01*
X678425Y-122906D01*
X678502Y-122829D01*
X678579Y-122762D01*
X678665Y-122694D01*
X678675Y-122685D01*
X678714Y-122666D01*
X678762Y-122637D01*
X678829Y-122598D01*
X678915Y-122550D01*
X679002Y-122512D01*
X679108Y-122473D01*
X679223Y-122435D01*
X679233D01*
X679271Y-122425D01*
X679319Y-122416D01*
X679396Y-122397D01*
X679492Y-122377D01*
X679617Y-122358D01*
X679751Y-122339D01*
X679915Y-122320D01*
X679924D01*
X679953Y-122310D01*
X680001D01*
X680069Y-122300D01*
X680146Y-122291D01*
X680232Y-122281D01*
X680443Y-122243D01*
X680664Y-122204D01*
X680895Y-122166D01*
X681116Y-122108D01*
X681212Y-122079D01*
X681299Y-122050D01*
Y-122041D01*
Y-122022D01*
X681308Y-121964D01*
Y-121897D01*
Y-121868D01*
Y-121849D01*
Y-121839D01*
Y-121829D01*
Y-121772D01*
X681299Y-121685D01*
X681280Y-121589D01*
X681251Y-121484D01*
X681212Y-121368D01*
X681164Y-121272D01*
X681087Y-121186D01*
X681078Y-121176D01*
X681030Y-121147D01*
X680962Y-121099D01*
X680866Y-121051D01*
X680741Y-121003D01*
X680588Y-120955D01*
X680405Y-120926D01*
X680203Y-120917D01*
X680117D01*
X680021Y-120926D01*
X679896Y-120936D01*
X679761Y-120965D01*
X679636Y-120993D01*
X679502Y-121042D01*
X679396Y-121109D01*
X679386Y-121118D01*
X679357Y-121147D01*
X679309Y-121195D01*
X679252Y-121263D01*
X679184Y-121359D01*
X679127Y-121474D01*
X679060Y-121618D01*
X679011Y-121782D01*
X678252Y-121676D01*
Y-121666D01*
X678262Y-121657D01*
X678271Y-121599D01*
X678300Y-121512D01*
X678329Y-121397D01*
X678377Y-121272D01*
X678435Y-121147D01*
X678502Y-121013D01*
X678589Y-120897D01*
X678598Y-120888D01*
X678637Y-120849D01*
X678685Y-120792D01*
X678762Y-120724D01*
X678858Y-120657D01*
X678983Y-120580D01*
X679117Y-120503D01*
X679271Y-120436D01*
X679281D01*
X679290Y-120426D01*
X679319Y-120417D01*
X679348Y-120407D01*
X679444Y-120388D01*
X679569Y-120350D01*
X679723Y-120321D01*
X679896Y-120301D01*
X680097Y-120282D01*
X680309Y-120273D01*
X680405D01*
X680511Y-120282D01*
D02*
G37*
G36*
X677186Y-124953D02*
X676407D01*
Y-118639D01*
X677186D01*
Y-124953D01*
D02*
G37*
G36*
X629558Y-118649D02*
X629626D01*
X629789Y-118658D01*
X629972Y-118687D01*
X630164Y-118716D01*
X630356Y-118764D01*
X630529Y-118831D01*
X630539D01*
X630548Y-118841D01*
X630606Y-118870D01*
X630683Y-118918D01*
X630779Y-118975D01*
X630894Y-119062D01*
X631010Y-119168D01*
X631115Y-119283D01*
X631221Y-119427D01*
X631231Y-119446D01*
X631259Y-119494D01*
X631298Y-119581D01*
X631346Y-119686D01*
X631394Y-119811D01*
X631432Y-119946D01*
X631461Y-120100D01*
X631471Y-120263D01*
Y-120282D01*
Y-120330D01*
X631461Y-120407D01*
X631442Y-120513D01*
X631413Y-120628D01*
X631375Y-120753D01*
X631327Y-120897D01*
X631250Y-121032D01*
X631240Y-121051D01*
X631211Y-121090D01*
X631154Y-121157D01*
X631086Y-121234D01*
X630990Y-121330D01*
X630875Y-121416D01*
X630740Y-121512D01*
X630577Y-121599D01*
X630587D01*
X630606Y-121608D01*
X630635Y-121618D01*
X630673Y-121628D01*
X630779Y-121676D01*
X630904Y-121733D01*
X631048Y-121820D01*
X631192Y-121916D01*
X631336Y-122031D01*
X631461Y-122176D01*
X631471Y-122195D01*
X631509Y-122243D01*
X631557Y-122329D01*
X631625Y-122445D01*
X631682Y-122589D01*
X631730Y-122742D01*
X631769Y-122925D01*
X631778Y-123127D01*
Y-123146D01*
Y-123204D01*
X631769Y-123290D01*
X631759Y-123396D01*
X631730Y-123521D01*
X631702Y-123665D01*
X631653Y-123809D01*
X631586Y-123953D01*
X631577Y-123973D01*
X631557Y-124021D01*
X631509Y-124088D01*
X631461Y-124174D01*
X631394Y-124270D01*
X631317Y-124367D01*
X631221Y-124463D01*
X631125Y-124549D01*
X631115Y-124559D01*
X631077Y-124578D01*
X631019Y-124616D01*
X630933Y-124664D01*
X630837Y-124713D01*
X630712Y-124761D01*
X630577Y-124809D01*
X630433Y-124857D01*
X630414D01*
X630356Y-124876D01*
X630270Y-124885D01*
X630154Y-124905D01*
X630000Y-124924D01*
X629827Y-124934D01*
X629635Y-124953D01*
X627012D01*
Y-118639D01*
X629491D01*
X629558Y-118649D01*
D02*
G37*
G36*
X641090Y-120378D02*
X641869D01*
Y-120984D01*
X641090D01*
Y-123665D01*
Y-123675D01*
Y-123713D01*
Y-123771D01*
X641100Y-123838D01*
X641110Y-123982D01*
X641119Y-124040D01*
X641129Y-124088D01*
X641139Y-124107D01*
X641158Y-124145D01*
X641196Y-124194D01*
X641254Y-124242D01*
X641273Y-124251D01*
X641321Y-124261D01*
X641408Y-124280D01*
X641523Y-124290D01*
X641619D01*
X641667Y-124280D01*
X641725D01*
X641869Y-124261D01*
X641975Y-124943D01*
X641955D01*
X641917Y-124953D01*
X641859Y-124962D01*
X641773Y-124972D01*
X641686Y-124991D01*
X641590Y-125001D01*
X641388Y-125010D01*
X641321D01*
X641244Y-125001D01*
X641148Y-124991D01*
X641042Y-124982D01*
X640927Y-124953D01*
X640821Y-124924D01*
X640725Y-124885D01*
X640716Y-124876D01*
X640687Y-124857D01*
X640648Y-124828D01*
X640600Y-124789D01*
X640543Y-124741D01*
X640495Y-124684D01*
X640437Y-124616D01*
X640399Y-124539D01*
Y-124530D01*
X640389Y-124492D01*
X640370Y-124434D01*
X640360Y-124338D01*
X640341Y-124213D01*
X640331Y-124145D01*
X640322Y-124059D01*
Y-123963D01*
X640312Y-123857D01*
Y-123742D01*
Y-123617D01*
Y-120984D01*
X639735D01*
Y-120378D01*
X640312D01*
Y-119254D01*
X641090Y-118783D01*
Y-120378D01*
D02*
G37*
G36*
X638640D02*
X639418D01*
Y-120984D01*
X638640D01*
Y-123665D01*
Y-123675D01*
Y-123713D01*
Y-123771D01*
X638650Y-123838D01*
X638659Y-123982D01*
X638669Y-124040D01*
X638678Y-124088D01*
X638688Y-124107D01*
X638707Y-124145D01*
X638746Y-124194D01*
X638803Y-124242D01*
X638823Y-124251D01*
X638870Y-124261D01*
X638957Y-124280D01*
X639072Y-124290D01*
X639169D01*
X639217Y-124280D01*
X639274D01*
X639418Y-124261D01*
X639524Y-124943D01*
X639505D01*
X639466Y-124953D01*
X639409Y-124962D01*
X639322Y-124972D01*
X639236Y-124991D01*
X639140Y-125001D01*
X638938Y-125010D01*
X638870D01*
X638794Y-125001D01*
X638698Y-124991D01*
X638592Y-124982D01*
X638477Y-124953D01*
X638371Y-124924D01*
X638275Y-124885D01*
X638265Y-124876D01*
X638236Y-124857D01*
X638198Y-124828D01*
X638150Y-124789D01*
X638092Y-124741D01*
X638044Y-124684D01*
X637986Y-124616D01*
X637948Y-124539D01*
Y-124530D01*
X637938Y-124492D01*
X637919Y-124434D01*
X637910Y-124338D01*
X637890Y-124213D01*
X637881Y-124145D01*
X637871Y-124059D01*
Y-123963D01*
X637861Y-123857D01*
Y-123742D01*
Y-123617D01*
Y-120984D01*
X637285D01*
Y-120378D01*
X637861D01*
Y-119254D01*
X638640Y-118783D01*
Y-120378D01*
D02*
G37*
G36*
X670612Y-120282D02*
X670689Y-120292D01*
X670785Y-120301D01*
X670882Y-120321D01*
X670997Y-120350D01*
X671227Y-120426D01*
X671352Y-120475D01*
X671477Y-120542D01*
X671602Y-120609D01*
X671727Y-120695D01*
X671842Y-120792D01*
X671958Y-120907D01*
X671967Y-120917D01*
X671987Y-120936D01*
X672015Y-120974D01*
X672054Y-121022D01*
X672092Y-121090D01*
X672140Y-121166D01*
X672198Y-121253D01*
X672256Y-121359D01*
X672304Y-121484D01*
X672361Y-121608D01*
X672409Y-121753D01*
X672458Y-121916D01*
X672486Y-122079D01*
X672515Y-122262D01*
X672534Y-122454D01*
X672544Y-122666D01*
Y-122675D01*
Y-122714D01*
Y-122781D01*
X672534Y-122867D01*
X669132D01*
Y-122877D01*
Y-122896D01*
X669142Y-122944D01*
Y-122992D01*
X669152Y-123060D01*
X669161Y-123127D01*
X669200Y-123300D01*
X669257Y-123482D01*
X669325Y-123675D01*
X669430Y-123867D01*
X669555Y-124030D01*
X669574Y-124049D01*
X669623Y-124088D01*
X669709Y-124155D01*
X669815Y-124222D01*
X669959Y-124299D01*
X670122Y-124367D01*
X670305Y-124405D01*
X670507Y-124424D01*
X670583D01*
X670660Y-124415D01*
X670756Y-124395D01*
X670872Y-124367D01*
X670997Y-124328D01*
X671122Y-124280D01*
X671237Y-124203D01*
X671247Y-124194D01*
X671285Y-124155D01*
X671343Y-124107D01*
X671410Y-124021D01*
X671487Y-123925D01*
X671564Y-123800D01*
X671641Y-123646D01*
X671718Y-123473D01*
X672515Y-123579D01*
Y-123588D01*
X672506Y-123607D01*
X672496Y-123646D01*
X672477Y-123694D01*
X672458Y-123751D01*
X672429Y-123819D01*
X672352Y-123982D01*
X672256Y-124155D01*
X672140Y-124338D01*
X671987Y-124520D01*
X671814Y-124674D01*
X671804D01*
X671794Y-124693D01*
X671766Y-124713D01*
X671718Y-124732D01*
X671669Y-124761D01*
X671612Y-124799D01*
X671545Y-124828D01*
X671458Y-124866D01*
X671276Y-124934D01*
X671045Y-125001D01*
X670795Y-125039D01*
X670507Y-125058D01*
X670411D01*
X670343Y-125049D01*
X670257Y-125039D01*
X670161Y-125030D01*
X670055Y-125010D01*
X669930Y-124982D01*
X669680Y-124905D01*
X669546Y-124857D01*
X669421Y-124799D01*
X669286Y-124732D01*
X669161Y-124645D01*
X669036Y-124549D01*
X668921Y-124443D01*
X668911Y-124434D01*
X668892Y-124415D01*
X668863Y-124376D01*
X668834Y-124328D01*
X668786Y-124270D01*
X668738Y-124194D01*
X668681Y-124098D01*
X668633Y-123992D01*
X668575Y-123876D01*
X668517Y-123751D01*
X668469Y-123607D01*
X668431Y-123454D01*
X668393Y-123290D01*
X668364Y-123108D01*
X668344Y-122915D01*
X668335Y-122714D01*
Y-122704D01*
Y-122666D01*
Y-122598D01*
X668344Y-122521D01*
X668354Y-122425D01*
X668364Y-122310D01*
X668383Y-122185D01*
X668412Y-122050D01*
X668479Y-121762D01*
X668527Y-121618D01*
X668585Y-121464D01*
X668652Y-121320D01*
X668729Y-121176D01*
X668815Y-121042D01*
X668921Y-120917D01*
X668931Y-120907D01*
X668950Y-120888D01*
X668979Y-120859D01*
X669027Y-120811D01*
X669084Y-120763D01*
X669161Y-120715D01*
X669238Y-120657D01*
X669334Y-120590D01*
X669440Y-120532D01*
X669555Y-120475D01*
X669680Y-120426D01*
X669824Y-120369D01*
X669969Y-120330D01*
X670122Y-120301D01*
X670286Y-120282D01*
X670459Y-120273D01*
X670545D01*
X670612Y-120282D01*
D02*
G37*
G36*
X660330Y-118543D02*
X660406D01*
X660503Y-118552D01*
X660599Y-118572D01*
X660714Y-118581D01*
X660954Y-118639D01*
X661223Y-118716D01*
X661492Y-118812D01*
X661627Y-118879D01*
X661762Y-118956D01*
X661771D01*
X661790Y-118975D01*
X661829Y-118995D01*
X661877Y-119033D01*
X661935Y-119071D01*
X662002Y-119129D01*
X662156Y-119254D01*
X662328Y-119417D01*
X662511Y-119619D01*
X662675Y-119850D01*
X662828Y-120119D01*
Y-120129D01*
X662848Y-120157D01*
X662867Y-120196D01*
X662886Y-120254D01*
X662915Y-120321D01*
X662944Y-120407D01*
X662982Y-120503D01*
X663021Y-120609D01*
X663049Y-120734D01*
X663088Y-120859D01*
X663145Y-121147D01*
X663184Y-121464D01*
X663203Y-121810D01*
Y-121820D01*
Y-121849D01*
Y-121906D01*
X663194Y-121974D01*
Y-122060D01*
X663184Y-122156D01*
X663174Y-122262D01*
X663155Y-122387D01*
X663107Y-122656D01*
X663040Y-122944D01*
X662944Y-123242D01*
X662809Y-123530D01*
Y-123540D01*
X662790Y-123559D01*
X662771Y-123598D01*
X662742Y-123655D01*
X662694Y-123713D01*
X662646Y-123790D01*
X662530Y-123953D01*
X662377Y-124136D01*
X662184Y-124328D01*
X661963Y-124511D01*
X661714Y-124674D01*
X661704D01*
X661685Y-124693D01*
X661646Y-124713D01*
X661589Y-124732D01*
X661521Y-124761D01*
X661444Y-124799D01*
X661358Y-124828D01*
X661252Y-124866D01*
X661031Y-124934D01*
X660772Y-125001D01*
X660483Y-125039D01*
X660185Y-125058D01*
X660099D01*
X660032Y-125049D01*
X659955D01*
X659868Y-125039D01*
X659763Y-125020D01*
X659647Y-125001D01*
X659407Y-124953D01*
X659138Y-124876D01*
X658859Y-124770D01*
X658725Y-124713D01*
X658590Y-124636D01*
X658581Y-124626D01*
X658561Y-124616D01*
X658523Y-124588D01*
X658475Y-124559D01*
X658417Y-124511D01*
X658350Y-124463D01*
X658196Y-124328D01*
X658023Y-124155D01*
X657841Y-123963D01*
X657677Y-123723D01*
X657523Y-123463D01*
Y-123454D01*
X657504Y-123425D01*
X657495Y-123386D01*
X657466Y-123329D01*
X657437Y-123261D01*
X657408Y-123185D01*
X657379Y-123088D01*
X657351Y-122983D01*
X657312Y-122867D01*
X657283Y-122752D01*
X657226Y-122483D01*
X657187Y-122195D01*
X657168Y-121887D01*
Y-121868D01*
Y-121820D01*
X657178Y-121733D01*
Y-121628D01*
X657197Y-121493D01*
X657216Y-121339D01*
X657235Y-121176D01*
X657274Y-120984D01*
X657322Y-120792D01*
X657370Y-120590D01*
X657437Y-120388D01*
X657523Y-120186D01*
X657620Y-119984D01*
X657725Y-119783D01*
X657860Y-119600D01*
X658004Y-119427D01*
X658014Y-119417D01*
X658042Y-119389D01*
X658090Y-119341D01*
X658158Y-119283D01*
X658244Y-119216D01*
X658340Y-119148D01*
X658456Y-119062D01*
X658590Y-118975D01*
X658744Y-118898D01*
X658907Y-118812D01*
X659090Y-118745D01*
X659282Y-118668D01*
X659484Y-118620D01*
X659705Y-118572D01*
X659945Y-118543D01*
X660185Y-118533D01*
X660272D01*
X660330Y-118543D01*
D02*
G37*
G36*
X644636Y-120282D02*
X644723Y-120292D01*
X644809Y-120301D01*
X644915Y-120321D01*
X645031Y-120350D01*
X645271Y-120426D01*
X645396Y-120475D01*
X645530Y-120532D01*
X645655Y-120609D01*
X645780Y-120695D01*
X645905Y-120792D01*
X646020Y-120897D01*
X646030Y-120907D01*
X646049Y-120926D01*
X646078Y-120965D01*
X646116Y-121013D01*
X646165Y-121070D01*
X646213Y-121147D01*
X646270Y-121243D01*
X646328Y-121339D01*
X646376Y-121455D01*
X646434Y-121589D01*
X646482Y-121724D01*
X646530Y-121878D01*
X646568Y-122041D01*
X646597Y-122223D01*
X646616Y-122406D01*
X646626Y-122608D01*
Y-122617D01*
Y-122646D01*
Y-122694D01*
Y-122752D01*
X646616Y-122829D01*
Y-122915D01*
X646607Y-123012D01*
X646597Y-123117D01*
X646559Y-123338D01*
X646511Y-123569D01*
X646443Y-123800D01*
X646357Y-124001D01*
Y-124011D01*
X646347Y-124021D01*
X646309Y-124088D01*
X646241Y-124174D01*
X646155Y-124290D01*
X646049Y-124415D01*
X645915Y-124539D01*
X645761Y-124664D01*
X645578Y-124780D01*
X645569D01*
X645559Y-124789D01*
X645530Y-124809D01*
X645492Y-124818D01*
X645386Y-124866D01*
X645252Y-124914D01*
X645088Y-124972D01*
X644906Y-125010D01*
X644704Y-125049D01*
X644483Y-125058D01*
X644387D01*
X644319Y-125049D01*
X644242Y-125039D01*
X644146Y-125030D01*
X644041Y-125010D01*
X643925Y-124982D01*
X643685Y-124905D01*
X643551Y-124857D01*
X643426Y-124799D01*
X643291Y-124732D01*
X643166Y-124645D01*
X643041Y-124549D01*
X642926Y-124443D01*
X642916Y-124434D01*
X642897Y-124415D01*
X642868Y-124376D01*
X642839Y-124328D01*
X642791Y-124261D01*
X642743Y-124184D01*
X642686Y-124098D01*
X642638Y-123992D01*
X642580Y-123867D01*
X642522Y-123742D01*
X642474Y-123588D01*
X642436Y-123434D01*
X642397Y-123261D01*
X642369Y-123079D01*
X642349Y-122877D01*
X642340Y-122666D01*
Y-122646D01*
Y-122608D01*
X642349Y-122541D01*
Y-122454D01*
X642359Y-122348D01*
X642378Y-122233D01*
X642397Y-122099D01*
X642426Y-121954D01*
X642465Y-121801D01*
X642513Y-121647D01*
X642570Y-121493D01*
X642638Y-121339D01*
X642715Y-121186D01*
X642811Y-121042D01*
X642916Y-120907D01*
X643041Y-120782D01*
X643051Y-120772D01*
X643070Y-120763D01*
X643099Y-120734D01*
X643147Y-120705D01*
X643205Y-120667D01*
X643272Y-120619D01*
X643349Y-120571D01*
X643445Y-120523D01*
X643541Y-120484D01*
X643647Y-120436D01*
X643897Y-120350D01*
X644175Y-120292D01*
X644329Y-120282D01*
X644483Y-120273D01*
X644569D01*
X644636Y-120282D01*
D02*
G37*
G36*
X634834D02*
X634921Y-120292D01*
X635007Y-120301D01*
X635113Y-120321D01*
X635228Y-120350D01*
X635469Y-120426D01*
X635594Y-120475D01*
X635728Y-120532D01*
X635853Y-120609D01*
X635978Y-120695D01*
X636103Y-120792D01*
X636218Y-120897D01*
X636228Y-120907D01*
X636247Y-120926D01*
X636276Y-120965D01*
X636314Y-121013D01*
X636362Y-121070D01*
X636410Y-121147D01*
X636468Y-121243D01*
X636526Y-121339D01*
X636574Y-121455D01*
X636631Y-121589D01*
X636680Y-121724D01*
X636728Y-121878D01*
X636766Y-122041D01*
X636795Y-122223D01*
X636814Y-122406D01*
X636824Y-122608D01*
Y-122617D01*
Y-122646D01*
Y-122694D01*
Y-122752D01*
X636814Y-122829D01*
Y-122915D01*
X636804Y-123012D01*
X636795Y-123117D01*
X636756Y-123338D01*
X636708Y-123569D01*
X636641Y-123800D01*
X636554Y-124001D01*
Y-124011D01*
X636545Y-124021D01*
X636507Y-124088D01*
X636439Y-124174D01*
X636353Y-124290D01*
X636247Y-124415D01*
X636112Y-124539D01*
X635959Y-124664D01*
X635776Y-124780D01*
X635767D01*
X635757Y-124789D01*
X635728Y-124809D01*
X635690Y-124818D01*
X635584Y-124866D01*
X635449Y-124914D01*
X635286Y-124972D01*
X635103Y-125010D01*
X634902Y-125049D01*
X634681Y-125058D01*
X634585D01*
X634517Y-125049D01*
X634440Y-125039D01*
X634344Y-125030D01*
X634238Y-125010D01*
X634123Y-124982D01*
X633883Y-124905D01*
X633748Y-124857D01*
X633624Y-124799D01*
X633489Y-124732D01*
X633364Y-124645D01*
X633239Y-124549D01*
X633124Y-124443D01*
X633114Y-124434D01*
X633095Y-124415D01*
X633066Y-124376D01*
X633037Y-124328D01*
X632989Y-124261D01*
X632941Y-124184D01*
X632884Y-124098D01*
X632835Y-123992D01*
X632778Y-123867D01*
X632720Y-123742D01*
X632672Y-123588D01*
X632634Y-123434D01*
X632595Y-123261D01*
X632566Y-123079D01*
X632547Y-122877D01*
X632538Y-122666D01*
Y-122646D01*
Y-122608D01*
X632547Y-122541D01*
Y-122454D01*
X632557Y-122348D01*
X632576Y-122233D01*
X632595Y-122099D01*
X632624Y-121954D01*
X632662Y-121801D01*
X632711Y-121647D01*
X632768Y-121493D01*
X632835Y-121339D01*
X632912Y-121186D01*
X633008Y-121042D01*
X633114Y-120907D01*
X633239Y-120782D01*
X633249Y-120772D01*
X633268Y-120763D01*
X633297Y-120734D01*
X633345Y-120705D01*
X633402Y-120667D01*
X633470Y-120619D01*
X633547Y-120571D01*
X633643Y-120523D01*
X633739Y-120484D01*
X633845Y-120436D01*
X634094Y-120350D01*
X634373Y-120292D01*
X634527Y-120282D01*
X634681Y-120273D01*
X634767D01*
X634834Y-120282D01*
D02*
G37*
G36*
X721238Y-119820D02*
X717510Y-119820D01*
Y-121761D01*
X720998Y-121761D01*
Y-122501D01*
X717510Y-122501D01*
Y-124654D01*
X721382Y-124654D01*
Y-125394D01*
X716674Y-125394D01*
Y-119080D01*
X721238Y-119080D01*
Y-119820D01*
D02*
G37*
G36*
X703498Y-120723D02*
X703633Y-120733D01*
X703787Y-120752D01*
X703950Y-120771D01*
X704104Y-120810D01*
X704248Y-120858D01*
X704267Y-120867D01*
X704305Y-120877D01*
X704373Y-120915D01*
X704450Y-120954D01*
X704536Y-121002D01*
X704632Y-121060D01*
X704709Y-121127D01*
X704786Y-121204D01*
X704796Y-121213D01*
X704815Y-121242D01*
X704844Y-121281D01*
X704882Y-121348D01*
X704920Y-121425D01*
X704959Y-121511D01*
X704997Y-121617D01*
X705026Y-121732D01*
Y-121742D01*
X705036Y-121771D01*
X705045Y-121819D01*
X705055Y-121896D01*
Y-121992D01*
X705065Y-122117D01*
X705074Y-122261D01*
Y-122443D01*
Y-123481D01*
Y-123491D01*
Y-123529D01*
Y-123587D01*
Y-123654D01*
Y-123741D01*
Y-123837D01*
X705084Y-124058D01*
Y-124298D01*
X705093Y-124519D01*
X705103Y-124625D01*
Y-124711D01*
X705113Y-124788D01*
X705122Y-124855D01*
Y-124865D01*
X705132Y-124904D01*
X705141Y-124961D01*
X705161Y-125029D01*
X705190Y-125105D01*
X705228Y-125201D01*
X705314Y-125394D01*
X704507D01*
X704498Y-125384D01*
X704488Y-125355D01*
X704469Y-125298D01*
X704440Y-125230D01*
X704411Y-125144D01*
X704392Y-125048D01*
X704373Y-124942D01*
X704354Y-124817D01*
X704334Y-124836D01*
X704277Y-124875D01*
X704200Y-124942D01*
X704084Y-125019D01*
X703960Y-125115D01*
X703815Y-125201D01*
X703671Y-125278D01*
X703517Y-125346D01*
X703498Y-125355D01*
X703450Y-125365D01*
X703373Y-125394D01*
X703267Y-125423D01*
X703133Y-125451D01*
X702989Y-125471D01*
X702835Y-125490D01*
X702662Y-125499D01*
X702595D01*
X702537Y-125490D01*
X702480D01*
X702403Y-125480D01*
X702239Y-125451D01*
X702047Y-125413D01*
X701864Y-125346D01*
X701672Y-125259D01*
X701509Y-125134D01*
X701490Y-125115D01*
X701442Y-125067D01*
X701384Y-124990D01*
X701307Y-124875D01*
X701230Y-124740D01*
X701173Y-124586D01*
X701124Y-124394D01*
X701105Y-124193D01*
Y-124173D01*
Y-124135D01*
X701115Y-124067D01*
X701124Y-123991D01*
X701144Y-123895D01*
X701163Y-123789D01*
X701201Y-123683D01*
X701249Y-123577D01*
X701259Y-123568D01*
X701278Y-123529D01*
X701307Y-123481D01*
X701355Y-123414D01*
X701413Y-123347D01*
X701490Y-123270D01*
X701567Y-123203D01*
X701653Y-123135D01*
X701663Y-123126D01*
X701701Y-123107D01*
X701749Y-123078D01*
X701816Y-123039D01*
X701903Y-122991D01*
X701989Y-122953D01*
X702095Y-122914D01*
X702210Y-122876D01*
X702220D01*
X702258Y-122866D01*
X702307Y-122857D01*
X702383Y-122837D01*
X702480Y-122818D01*
X702604Y-122799D01*
X702739Y-122780D01*
X702902Y-122761D01*
X702912D01*
X702941Y-122751D01*
X702989D01*
X703056Y-122741D01*
X703133Y-122732D01*
X703220Y-122722D01*
X703431Y-122684D01*
X703652Y-122645D01*
X703883Y-122607D01*
X704104Y-122549D01*
X704200Y-122520D01*
X704286Y-122492D01*
Y-122482D01*
Y-122463D01*
X704296Y-122405D01*
Y-122338D01*
Y-122309D01*
Y-122290D01*
Y-122280D01*
Y-122271D01*
Y-122213D01*
X704286Y-122126D01*
X704267Y-122030D01*
X704238Y-121924D01*
X704200Y-121809D01*
X704152Y-121713D01*
X704075Y-121627D01*
X704065Y-121617D01*
X704017Y-121588D01*
X703950Y-121540D01*
X703854Y-121492D01*
X703729Y-121444D01*
X703575Y-121396D01*
X703393Y-121367D01*
X703191Y-121358D01*
X703104D01*
X703008Y-121367D01*
X702883Y-121377D01*
X702749Y-121405D01*
X702624Y-121434D01*
X702489Y-121482D01*
X702383Y-121550D01*
X702374Y-121559D01*
X702345Y-121588D01*
X702297Y-121636D01*
X702239Y-121704D01*
X702172Y-121800D01*
X702114Y-121915D01*
X702047Y-122059D01*
X701999Y-122222D01*
X701240Y-122117D01*
Y-122107D01*
X701249Y-122098D01*
X701259Y-122040D01*
X701288Y-121953D01*
X701317Y-121838D01*
X701365Y-121713D01*
X701422Y-121588D01*
X701490Y-121454D01*
X701576Y-121338D01*
X701586Y-121329D01*
X701624Y-121290D01*
X701672Y-121233D01*
X701749Y-121165D01*
X701845Y-121098D01*
X701970Y-121021D01*
X702105Y-120944D01*
X702258Y-120877D01*
X702268D01*
X702278Y-120867D01*
X702307Y-120858D01*
X702335Y-120848D01*
X702431Y-120829D01*
X702556Y-120791D01*
X702710Y-120762D01*
X702883Y-120742D01*
X703085Y-120723D01*
X703296Y-120714D01*
X703393D01*
X703498Y-120723D01*
D02*
G37*
G36*
X693196Y-119089D02*
X693263D01*
X693427Y-119099D01*
X693610Y-119128D01*
X693802Y-119157D01*
X693994Y-119205D01*
X694167Y-119272D01*
X694176D01*
X694186Y-119282D01*
X694244Y-119311D01*
X694321Y-119359D01*
X694417Y-119416D01*
X694532Y-119503D01*
X694647Y-119608D01*
X694753Y-119724D01*
X694859Y-119868D01*
X694868Y-119887D01*
X694897Y-119935D01*
X694936Y-120022D01*
X694984Y-120127D01*
X695032Y-120252D01*
X695070Y-120387D01*
X695099Y-120541D01*
X695109Y-120704D01*
Y-120723D01*
Y-120771D01*
X695099Y-120848D01*
X695080Y-120954D01*
X695051Y-121069D01*
X695013Y-121194D01*
X694965Y-121338D01*
X694888Y-121473D01*
X694878Y-121492D01*
X694849Y-121530D01*
X694792Y-121598D01*
X694724Y-121675D01*
X694628Y-121771D01*
X694513Y-121857D01*
X694378Y-121953D01*
X694215Y-122040D01*
X694225D01*
X694244Y-122049D01*
X694273Y-122059D01*
X694311Y-122069D01*
X694417Y-122117D01*
X694542Y-122174D01*
X694686Y-122261D01*
X694830Y-122357D01*
X694974Y-122472D01*
X695099Y-122616D01*
X695109Y-122636D01*
X695147Y-122684D01*
X695195Y-122770D01*
X695262Y-122886D01*
X695320Y-123030D01*
X695368Y-123183D01*
X695407Y-123366D01*
X695416Y-123568D01*
Y-123587D01*
Y-123645D01*
X695407Y-123731D01*
X695397Y-123837D01*
X695368Y-123962D01*
X695339Y-124106D01*
X695291Y-124250D01*
X695224Y-124394D01*
X695214Y-124414D01*
X695195Y-124461D01*
X695147Y-124529D01*
X695099Y-124615D01*
X695032Y-124711D01*
X694955Y-124808D01*
X694859Y-124904D01*
X694763Y-124990D01*
X694753Y-125000D01*
X694715Y-125019D01*
X694657Y-125057D01*
X694570Y-125105D01*
X694474Y-125153D01*
X694349Y-125201D01*
X694215Y-125250D01*
X694071Y-125298D01*
X694052D01*
X693994Y-125317D01*
X693907Y-125326D01*
X693792Y-125346D01*
X693638Y-125365D01*
X693465Y-125374D01*
X693273Y-125394D01*
X690650D01*
Y-119080D01*
X693129D01*
X693196Y-119089D01*
D02*
G37*
G36*
X734260Y-120723D02*
X734337Y-120733D01*
X734433Y-120742D01*
X734529Y-120762D01*
X734644Y-120791D01*
X734875Y-120867D01*
X735000Y-120915D01*
X735125Y-120983D01*
X735250Y-121050D01*
X735374Y-121136D01*
X735490Y-121233D01*
X735605Y-121348D01*
X735615Y-121358D01*
X735634Y-121377D01*
X735663Y-121415D01*
X735701Y-121463D01*
X735740Y-121530D01*
X735788Y-121607D01*
X735845Y-121694D01*
X735903Y-121800D01*
X735951Y-121924D01*
X736009Y-122049D01*
X736057Y-122194D01*
X736105Y-122357D01*
X736134Y-122520D01*
X736163Y-122703D01*
X736182Y-122895D01*
X736191Y-123107D01*
Y-123116D01*
Y-123155D01*
Y-123222D01*
X736182Y-123308D01*
X732780D01*
Y-123318D01*
Y-123337D01*
X732790Y-123385D01*
Y-123433D01*
X732799Y-123501D01*
X732809Y-123568D01*
X732847Y-123741D01*
X732905Y-123923D01*
X732972Y-124116D01*
X733078Y-124308D01*
X733203Y-124471D01*
X733222Y-124490D01*
X733270Y-124529D01*
X733357Y-124596D01*
X733462Y-124663D01*
X733606Y-124740D01*
X733770Y-124808D01*
X733952Y-124846D01*
X734154Y-124865D01*
X734231D01*
X734308Y-124855D01*
X734404Y-124836D01*
X734519Y-124808D01*
X734644Y-124769D01*
X734769Y-124721D01*
X734884Y-124644D01*
X734894Y-124635D01*
X734933Y-124596D01*
X734990Y-124548D01*
X735057Y-124461D01*
X735134Y-124365D01*
X735211Y-124241D01*
X735288Y-124087D01*
X735365Y-123914D01*
X736163Y-124020D01*
Y-124029D01*
X736153Y-124048D01*
X736143Y-124087D01*
X736124Y-124135D01*
X736105Y-124192D01*
X736076Y-124260D01*
X735999Y-124423D01*
X735903Y-124596D01*
X735788Y-124779D01*
X735634Y-124961D01*
X735461Y-125115D01*
X735451D01*
X735442Y-125134D01*
X735413Y-125153D01*
X735365Y-125173D01*
X735317Y-125201D01*
X735259Y-125240D01*
X735192Y-125269D01*
X735106Y-125307D01*
X734923Y-125374D01*
X734692Y-125442D01*
X734442Y-125480D01*
X734154Y-125499D01*
X734058D01*
X733991Y-125490D01*
X733904Y-125480D01*
X733808Y-125471D01*
X733702Y-125451D01*
X733577Y-125423D01*
X733328Y-125346D01*
X733193Y-125298D01*
X733068Y-125240D01*
X732934Y-125173D01*
X732809Y-125086D01*
X732684Y-124990D01*
X732568Y-124884D01*
X732559Y-124875D01*
X732540Y-124855D01*
X732511Y-124817D01*
X732482Y-124769D01*
X732434Y-124711D01*
X732386Y-124635D01*
X732328Y-124538D01*
X732280Y-124433D01*
X732223Y-124317D01*
X732165Y-124192D01*
X732117Y-124048D01*
X732078Y-123895D01*
X732040Y-123731D01*
X732011Y-123549D01*
X731992Y-123356D01*
X731982Y-123155D01*
Y-123145D01*
Y-123107D01*
Y-123039D01*
X731992Y-122962D01*
X732001Y-122866D01*
X732011Y-122751D01*
X732030Y-122626D01*
X732059Y-122492D01*
X732126Y-122203D01*
X732174Y-122059D01*
X732232Y-121905D01*
X732299Y-121761D01*
X732376Y-121617D01*
X732463Y-121482D01*
X732568Y-121358D01*
X732578Y-121348D01*
X732597Y-121329D01*
X732626Y-121300D01*
X732674Y-121252D01*
X732732Y-121204D01*
X732809Y-121156D01*
X732886Y-121098D01*
X732982Y-121031D01*
X733087Y-120973D01*
X733203Y-120915D01*
X733328Y-120867D01*
X733472Y-120810D01*
X733616Y-120771D01*
X733770Y-120742D01*
X733933Y-120723D01*
X734106Y-120714D01*
X734193D01*
X734260Y-120723D01*
D02*
G37*
G36*
X698472Y-120723D02*
X698559Y-120733D01*
X698645Y-120742D01*
X698751Y-120762D01*
X698866Y-120791D01*
X699106Y-120867D01*
X699231Y-120915D01*
X699366Y-120973D01*
X699491Y-121050D01*
X699616Y-121136D01*
X699741Y-121233D01*
X699856Y-121338D01*
X699866Y-121348D01*
X699885Y-121367D01*
X699914Y-121405D01*
X699952Y-121454D01*
X700000Y-121511D01*
X700048Y-121588D01*
X700106Y-121684D01*
X700164Y-121780D01*
X700212Y-121896D01*
X700269Y-122030D01*
X700317Y-122165D01*
X700365Y-122318D01*
X700404Y-122482D01*
X700433Y-122664D01*
X700452Y-122847D01*
X700461Y-123049D01*
Y-123058D01*
Y-123087D01*
Y-123135D01*
Y-123193D01*
X700452Y-123270D01*
Y-123356D01*
X700442Y-123452D01*
X700433Y-123558D01*
X700394Y-123779D01*
X700346Y-124010D01*
X700279Y-124241D01*
X700192Y-124442D01*
Y-124452D01*
X700183Y-124461D01*
X700144Y-124529D01*
X700077Y-124615D01*
X699991Y-124731D01*
X699885Y-124855D01*
X699750Y-124980D01*
X699597Y-125105D01*
X699414Y-125221D01*
X699404D01*
X699395Y-125230D01*
X699366Y-125250D01*
X699327Y-125259D01*
X699222Y-125307D01*
X699087Y-125355D01*
X698924Y-125413D01*
X698741Y-125451D01*
X698539Y-125490D01*
X698318Y-125499D01*
X698222D01*
X698155Y-125490D01*
X698078Y-125480D01*
X697982Y-125471D01*
X697876Y-125451D01*
X697761Y-125423D01*
X697521Y-125346D01*
X697386Y-125298D01*
X697261Y-125240D01*
X697127Y-125173D01*
X697002Y-125086D01*
X696877Y-124990D01*
X696762Y-124884D01*
X696752Y-124875D01*
X696733Y-124855D01*
X696704Y-124817D01*
X696675Y-124769D01*
X696627Y-124702D01*
X696579Y-124625D01*
X696521Y-124538D01*
X696473Y-124433D01*
X696416Y-124308D01*
X696358Y-124183D01*
X696310Y-124029D01*
X696272Y-123875D01*
X696233Y-123702D01*
X696204Y-123520D01*
X696185Y-123318D01*
X696175Y-123107D01*
Y-123087D01*
Y-123049D01*
X696185Y-122982D01*
Y-122895D01*
X696195Y-122789D01*
X696214Y-122674D01*
X696233Y-122539D01*
X696262Y-122395D01*
X696300Y-122242D01*
X696348Y-122088D01*
X696406Y-121934D01*
X696473Y-121780D01*
X696550Y-121627D01*
X696646Y-121482D01*
X696752Y-121348D01*
X696877Y-121223D01*
X696886Y-121213D01*
X696906Y-121204D01*
X696935Y-121175D01*
X696983Y-121146D01*
X697040Y-121108D01*
X697108Y-121060D01*
X697184Y-121011D01*
X697281Y-120964D01*
X697377Y-120925D01*
X697482Y-120877D01*
X697732Y-120791D01*
X698011Y-120733D01*
X698165Y-120723D01*
X698318Y-120714D01*
X698405D01*
X698472Y-120723D01*
D02*
G37*
G36*
X729147Y-120723D02*
X729214Y-120733D01*
X729301Y-120752D01*
X729484Y-120800D01*
X729589Y-120829D01*
X729695Y-120877D01*
X729810Y-120925D01*
X729926Y-120992D01*
X730031Y-121069D01*
X730147Y-121156D01*
X730252Y-121261D01*
X730348Y-121377D01*
Y-120819D01*
X731060D01*
Y-124779D01*
Y-124788D01*
Y-124827D01*
Y-124875D01*
Y-124952D01*
X731050Y-125038D01*
Y-125134D01*
X731040Y-125250D01*
X731031Y-125365D01*
X731002Y-125605D01*
X730964Y-125855D01*
X730915Y-126086D01*
X730877Y-126191D01*
X730839Y-126278D01*
Y-126287D01*
X730829Y-126297D01*
X730800Y-126355D01*
X730743Y-126432D01*
X730675Y-126537D01*
X730579Y-126653D01*
X730464Y-126768D01*
X730320Y-126883D01*
X730156Y-126989D01*
X730147D01*
X730137Y-126999D01*
X730108Y-127008D01*
X730070Y-127027D01*
X729974Y-127075D01*
X729839Y-127114D01*
X729666Y-127162D01*
X729464Y-127210D01*
X729243Y-127239D01*
X728994Y-127248D01*
X728917D01*
X728859Y-127239D01*
X728792D01*
X728705Y-127229D01*
X728523Y-127200D01*
X728311Y-127152D01*
X728090Y-127095D01*
X727869Y-126999D01*
X727667Y-126874D01*
X727658D01*
X727648Y-126854D01*
X727590Y-126806D01*
X727514Y-126720D01*
X727418Y-126595D01*
X727331Y-126441D01*
X727254Y-126249D01*
X727206Y-126028D01*
X727187Y-125903D01*
Y-125768D01*
X727936Y-125874D01*
Y-125893D01*
X727946Y-125932D01*
X727965Y-125989D01*
X727985Y-126066D01*
X728023Y-126153D01*
X728071Y-126239D01*
X728129Y-126316D01*
X728205Y-126383D01*
X728215Y-126393D01*
X728263Y-126422D01*
X728321Y-126451D01*
X728417Y-126489D01*
X728523Y-126537D01*
X728657Y-126566D01*
X728821Y-126595D01*
X728994Y-126604D01*
X729080D01*
X729176Y-126595D01*
X729301Y-126576D01*
X729436Y-126547D01*
X729570Y-126508D01*
X729705Y-126460D01*
X729820Y-126383D01*
X729830Y-126374D01*
X729868Y-126345D01*
X729916Y-126297D01*
X729983Y-126230D01*
X730051Y-126143D01*
X730108Y-126047D01*
X730166Y-125922D01*
X730214Y-125788D01*
Y-125778D01*
X730224Y-125740D01*
X730233Y-125672D01*
X730243Y-125576D01*
X730262Y-125442D01*
Y-125355D01*
X730272Y-125269D01*
Y-125163D01*
Y-125057D01*
Y-124932D01*
Y-124798D01*
X730262Y-124808D01*
X730252Y-124827D01*
X730224Y-124855D01*
X730185Y-124894D01*
X730127Y-124932D01*
X730070Y-124990D01*
X729926Y-125096D01*
X729743Y-125201D01*
X729522Y-125298D01*
X729407Y-125336D01*
X729282Y-125365D01*
X729147Y-125384D01*
X729013Y-125394D01*
X728926D01*
X728859Y-125384D01*
X728782Y-125374D01*
X728686Y-125355D01*
X728590Y-125336D01*
X728475Y-125307D01*
X728359Y-125278D01*
X728244Y-125230D01*
X728119Y-125173D01*
X728004Y-125105D01*
X727879Y-125029D01*
X727763Y-124942D01*
X727658Y-124836D01*
X727552Y-124721D01*
X727542Y-124711D01*
X727533Y-124692D01*
X727504Y-124654D01*
X727475Y-124596D01*
X727437Y-124529D01*
X727389Y-124452D01*
X727341Y-124365D01*
X727292Y-124260D01*
X727245Y-124144D01*
X727196Y-124020D01*
X727158Y-123885D01*
X727110Y-123741D01*
X727052Y-123433D01*
X727043Y-123260D01*
X727033Y-123087D01*
Y-123078D01*
Y-123058D01*
Y-123020D01*
Y-122972D01*
X727043Y-122914D01*
Y-122847D01*
X727062Y-122693D01*
X727091Y-122501D01*
X727129Y-122299D01*
X727187Y-122088D01*
X727264Y-121876D01*
Y-121867D01*
X727273Y-121848D01*
X727292Y-121819D01*
X727312Y-121780D01*
X727360Y-121684D01*
X727437Y-121559D01*
X727542Y-121425D01*
X727658Y-121281D01*
X727792Y-121146D01*
X727956Y-121021D01*
X727965D01*
X727975Y-121011D01*
X728004Y-120992D01*
X728032Y-120973D01*
X728129Y-120925D01*
X728254Y-120867D01*
X728417Y-120810D01*
X728590Y-120762D01*
X728792Y-120723D01*
X729013Y-120714D01*
X729090D01*
X729147Y-120723D01*
D02*
G37*
%LPC*%
G36*
X724246Y-121358D02*
X724102D01*
X724064Y-121367D01*
X723968Y-121377D01*
X723852Y-121405D01*
X723718Y-121463D01*
X723573Y-121540D01*
X723429Y-121636D01*
X723362Y-121703D01*
X723295Y-121780D01*
X723276Y-121800D01*
X723266Y-121828D01*
X723237Y-121857D01*
X723218Y-121905D01*
X723189Y-121963D01*
X723151Y-122030D01*
X723122Y-122107D01*
X723093Y-122194D01*
X723055Y-122290D01*
X723026Y-122405D01*
X723006Y-122520D01*
X722978Y-122655D01*
X722968Y-122799D01*
X722949Y-122953D01*
Y-123116D01*
Y-123126D01*
Y-123155D01*
Y-123203D01*
X722958Y-123260D01*
Y-123337D01*
X722968Y-123414D01*
X722997Y-123616D01*
X723035Y-123827D01*
X723103Y-124048D01*
X723189Y-124250D01*
X723247Y-124346D01*
X723314Y-124433D01*
X723333Y-124452D01*
X723381Y-124500D01*
X723458Y-124567D01*
X723564Y-124644D01*
X723689Y-124731D01*
X723833Y-124798D01*
X724006Y-124846D01*
X724092Y-124855D01*
X724189Y-124865D01*
X724237D01*
X724275Y-124855D01*
X724371Y-124846D01*
X724486Y-124817D01*
X724621Y-124759D01*
X724765Y-124692D01*
X724919Y-124586D01*
X724986Y-124529D01*
X725053Y-124452D01*
Y-124442D01*
X725073Y-124433D01*
X725082Y-124404D01*
X725111Y-124375D01*
X725140Y-124327D01*
X725169Y-124279D01*
X725198Y-124212D01*
X725236Y-124135D01*
X725265Y-124058D01*
X725294Y-123962D01*
X725322Y-123856D01*
X725351Y-123741D01*
X725380Y-123616D01*
X725390Y-123481D01*
X725409Y-123337D01*
Y-123183D01*
Y-123174D01*
Y-123145D01*
Y-123097D01*
X725399Y-123030D01*
Y-122953D01*
X725390Y-122866D01*
X725361Y-122655D01*
X725322Y-122434D01*
X725255Y-122203D01*
X725169Y-121982D01*
X725111Y-121886D01*
X725044Y-121800D01*
Y-121790D01*
X725025Y-121780D01*
X724976Y-121732D01*
X724900Y-121655D01*
X724794Y-121579D01*
X724669Y-121502D01*
X724515Y-121425D01*
X724342Y-121377D01*
X724246Y-121358D01*
D02*
G37*
G36*
X711013Y-121358D02*
X710869D01*
X710831Y-121367D01*
X710735Y-121377D01*
X710619Y-121405D01*
X710485Y-121463D01*
X710340Y-121540D01*
X710196Y-121636D01*
X710129Y-121704D01*
X710062Y-121780D01*
X710043Y-121800D01*
X710033Y-121828D01*
X710004Y-121857D01*
X709985Y-121905D01*
X709956Y-121963D01*
X709918Y-122030D01*
X709889Y-122107D01*
X709860Y-122194D01*
X709822Y-122290D01*
X709793Y-122405D01*
X709773Y-122520D01*
X709745Y-122655D01*
X709735Y-122799D01*
X709716Y-122953D01*
Y-123116D01*
Y-123126D01*
Y-123155D01*
Y-123203D01*
X709726Y-123260D01*
Y-123337D01*
X709735Y-123414D01*
X709764Y-123616D01*
X709802Y-123827D01*
X709870Y-124048D01*
X709956Y-124250D01*
X710014Y-124346D01*
X710081Y-124433D01*
X710100Y-124452D01*
X710148Y-124500D01*
X710225Y-124567D01*
X710331Y-124644D01*
X710456Y-124731D01*
X710600Y-124798D01*
X710773Y-124846D01*
X710859Y-124855D01*
X710955Y-124865D01*
X711004D01*
X711042Y-124855D01*
X711138Y-124846D01*
X711253Y-124817D01*
X711388Y-124759D01*
X711532Y-124692D01*
X711686Y-124586D01*
X711753Y-124529D01*
X711820Y-124452D01*
Y-124442D01*
X711840Y-124433D01*
X711849Y-124404D01*
X711878Y-124375D01*
X711907Y-124327D01*
X711936Y-124279D01*
X711965Y-124212D01*
X712003Y-124135D01*
X712032Y-124058D01*
X712061Y-123962D01*
X712089Y-123856D01*
X712118Y-123741D01*
X712147Y-123616D01*
X712157Y-123481D01*
X712176Y-123337D01*
Y-123183D01*
Y-123174D01*
Y-123145D01*
Y-123097D01*
X712166Y-123030D01*
Y-122953D01*
X712157Y-122866D01*
X712128Y-122655D01*
X712089Y-122434D01*
X712022Y-122203D01*
X711936Y-121982D01*
X711878Y-121886D01*
X711811Y-121800D01*
Y-121790D01*
X711792Y-121780D01*
X711744Y-121732D01*
X711667Y-121655D01*
X711561Y-121579D01*
X711436Y-121502D01*
X711282Y-121425D01*
X711109Y-121377D01*
X711013Y-121358D01*
D02*
G37*
G36*
X681299Y-122656D02*
X681280Y-122666D01*
X681251Y-122675D01*
X681222Y-122685D01*
X681174Y-122704D01*
X681116Y-122714D01*
X681058Y-122733D01*
X680982Y-122762D01*
X680895Y-122781D01*
X680799Y-122800D01*
X680703Y-122829D01*
X680588Y-122858D01*
X680463Y-122877D01*
X680328Y-122906D01*
X680184Y-122925D01*
X680030Y-122954D01*
X680011D01*
X679953Y-122964D01*
X679867Y-122983D01*
X679761Y-123002D01*
X679540Y-123050D01*
X679434Y-123079D01*
X679348Y-123108D01*
X679338D01*
X679319Y-123127D01*
X679281Y-123146D01*
X679242Y-123175D01*
X679146Y-123252D01*
X679050Y-123367D01*
Y-123377D01*
X679031Y-123396D01*
X679021Y-123425D01*
X679002Y-123473D01*
X678964Y-123588D01*
X678954Y-123655D01*
X678944Y-123732D01*
Y-123742D01*
Y-123780D01*
X678954Y-123838D01*
X678973Y-123915D01*
X679002Y-123992D01*
X679040Y-124078D01*
X679098Y-124165D01*
X679175Y-124251D01*
X679184Y-124261D01*
X679223Y-124280D01*
X679271Y-124319D01*
X679348Y-124347D01*
X679444Y-124386D01*
X679569Y-124424D01*
X679703Y-124443D01*
X679867Y-124453D01*
X679944D01*
X680021Y-124443D01*
X680136Y-124424D01*
X680251Y-124405D01*
X680386Y-124376D01*
X680520Y-124328D01*
X680655Y-124261D01*
X680674Y-124251D01*
X680713Y-124222D01*
X680780Y-124184D01*
X680857Y-124117D01*
X680934Y-124049D01*
X681020Y-123953D01*
X681107Y-123848D01*
X681174Y-123723D01*
X681183Y-123713D01*
X681193Y-123675D01*
X681212Y-123617D01*
X681241Y-123530D01*
X681260Y-123415D01*
X681280Y-123281D01*
X681289Y-123127D01*
X681299Y-122944D01*
Y-122656D01*
D02*
G37*
G36*
X629337Y-119379D02*
X627848D01*
Y-121301D01*
X629395D01*
X629510Y-121291D01*
X629645Y-121282D01*
X629779Y-121272D01*
X629895Y-121253D01*
X630000Y-121234D01*
X630010Y-121224D01*
X630049Y-121214D01*
X630106Y-121195D01*
X630183Y-121157D01*
X630260Y-121118D01*
X630337Y-121061D01*
X630414Y-120993D01*
X630481Y-120917D01*
X630491Y-120907D01*
X630510Y-120878D01*
X630529Y-120830D01*
X630568Y-120763D01*
X630596Y-120686D01*
X630616Y-120590D01*
X630635Y-120484D01*
X630644Y-120359D01*
Y-120350D01*
Y-120301D01*
X630635Y-120244D01*
X630625Y-120167D01*
X630606Y-120080D01*
X630577Y-119994D01*
X630539Y-119898D01*
X630491Y-119802D01*
X630481Y-119792D01*
X630462Y-119763D01*
X630423Y-119725D01*
X630375Y-119667D01*
X630318Y-119619D01*
X630241Y-119562D01*
X630154Y-119513D01*
X630058Y-119475D01*
X630049D01*
X630000Y-119456D01*
X629933Y-119446D01*
X629837Y-119427D01*
X629703Y-119408D01*
X629539Y-119398D01*
X629337Y-119379D01*
D02*
G37*
G36*
X629510Y-122041D02*
X627848D01*
Y-124213D01*
X629635D01*
X629827Y-124203D01*
X629914Y-124194D01*
X629981Y-124184D01*
X629991D01*
X630029Y-124174D01*
X630087Y-124165D01*
X630154Y-124145D01*
X630308Y-124098D01*
X630462Y-124021D01*
X630471Y-124011D01*
X630500Y-124001D01*
X630529Y-123973D01*
X630577Y-123925D01*
X630635Y-123876D01*
X630683Y-123819D01*
X630740Y-123742D01*
X630789Y-123665D01*
X630798Y-123655D01*
X630808Y-123627D01*
X630827Y-123579D01*
X630856Y-123511D01*
X630875Y-123434D01*
X630894Y-123338D01*
X630904Y-123242D01*
X630913Y-123127D01*
Y-123108D01*
Y-123069D01*
X630904Y-123002D01*
X630894Y-122925D01*
X630865Y-122829D01*
X630837Y-122723D01*
X630789Y-122617D01*
X630721Y-122521D01*
X630712Y-122512D01*
X630692Y-122473D01*
X630644Y-122435D01*
X630587Y-122377D01*
X630519Y-122310D01*
X630433Y-122252D01*
X630337Y-122195D01*
X630222Y-122147D01*
X630202Y-122137D01*
X630164Y-122127D01*
X630087Y-122108D01*
X629991Y-122089D01*
X629856Y-122070D01*
X629703Y-122060D01*
X629510Y-122041D01*
D02*
G37*
G36*
X670468Y-120907D02*
X670420D01*
X670382Y-120917D01*
X670276Y-120926D01*
X670151Y-120955D01*
X670007Y-120993D01*
X669863Y-121061D01*
X669709Y-121147D01*
X669565Y-121272D01*
X669546Y-121291D01*
X669507Y-121339D01*
X669450Y-121416D01*
X669382Y-121532D01*
X669315Y-121666D01*
X669248Y-121829D01*
X669200Y-122022D01*
X669171Y-122233D01*
X671727D01*
Y-122223D01*
Y-122204D01*
X671718Y-122176D01*
Y-122137D01*
X671698Y-122031D01*
X671669Y-121906D01*
X671631Y-121772D01*
X671573Y-121628D01*
X671516Y-121484D01*
X671429Y-121368D01*
Y-121359D01*
X671410Y-121349D01*
X671362Y-121291D01*
X671276Y-121224D01*
X671170Y-121138D01*
X671026Y-121051D01*
X670862Y-120974D01*
X670680Y-120926D01*
X670574Y-120917D01*
X670468Y-120907D01*
D02*
G37*
G36*
X660185Y-119254D02*
X660099D01*
X660041Y-119264D01*
X659965Y-119273D01*
X659868Y-119283D01*
X659772Y-119302D01*
X659667Y-119331D01*
X659426Y-119408D01*
X659301Y-119456D01*
X659176Y-119513D01*
X659042Y-119581D01*
X658917Y-119667D01*
X658792Y-119763D01*
X658667Y-119869D01*
X658658Y-119879D01*
X658638Y-119898D01*
X658609Y-119936D01*
X658571Y-119984D01*
X658523Y-120052D01*
X658465Y-120138D01*
X658408Y-120234D01*
X658350Y-120350D01*
X658292Y-120484D01*
X658235Y-120628D01*
X658177Y-120792D01*
X658129Y-120984D01*
X658090Y-121186D01*
X658062Y-121397D01*
X658042Y-121637D01*
X658033Y-121897D01*
Y-121906D01*
Y-121945D01*
Y-122002D01*
X658042Y-122089D01*
X658052Y-122185D01*
X658062Y-122291D01*
X658081Y-122416D01*
X658110Y-122550D01*
X658177Y-122839D01*
X658235Y-122983D01*
X658292Y-123136D01*
X658360Y-123281D01*
X658436Y-123425D01*
X658533Y-123569D01*
X658638Y-123694D01*
X658648Y-123704D01*
X658667Y-123723D01*
X658706Y-123751D01*
X658754Y-123800D01*
X658811Y-123848D01*
X658879Y-123896D01*
X658965Y-123963D01*
X659061Y-124021D01*
X659167Y-124078D01*
X659282Y-124136D01*
X659407Y-124194D01*
X659551Y-124242D01*
X659695Y-124290D01*
X659849Y-124319D01*
X660003Y-124338D01*
X660176Y-124347D01*
X660262D01*
X660330Y-124338D01*
X660416Y-124328D01*
X660503Y-124309D01*
X660608Y-124290D01*
X660724Y-124261D01*
X660964Y-124184D01*
X661098Y-124136D01*
X661223Y-124069D01*
X661358Y-123992D01*
X661483Y-123905D01*
X661608Y-123809D01*
X661723Y-123694D01*
X661733Y-123684D01*
X661752Y-123665D01*
X661781Y-123627D01*
X661819Y-123569D01*
X661867Y-123502D01*
X661915Y-123415D01*
X661973Y-123319D01*
X662031Y-123213D01*
X662088Y-123079D01*
X662146Y-122944D01*
X662194Y-122791D01*
X662242Y-122617D01*
X662281Y-122435D01*
X662309Y-122243D01*
X662328Y-122031D01*
X662338Y-121810D01*
Y-121801D01*
Y-121772D01*
Y-121733D01*
Y-121685D01*
X662328Y-121618D01*
Y-121532D01*
X662309Y-121349D01*
X662271Y-121147D01*
X662223Y-120917D01*
X662156Y-120686D01*
X662069Y-120465D01*
Y-120455D01*
X662059Y-120436D01*
X662040Y-120407D01*
X662021Y-120369D01*
X661963Y-120263D01*
X661877Y-120138D01*
X661771Y-119994D01*
X661637Y-119840D01*
X661483Y-119696D01*
X661310Y-119571D01*
X661300D01*
X661291Y-119562D01*
X661262Y-119542D01*
X661223Y-119523D01*
X661118Y-119475D01*
X660983Y-119408D01*
X660820Y-119350D01*
X660628Y-119302D01*
X660416Y-119264D01*
X660185Y-119254D01*
D02*
G37*
G36*
X644589Y-120917D02*
X644425D01*
X644387Y-120926D01*
X644281Y-120936D01*
X644146Y-120974D01*
X643993Y-121022D01*
X643829Y-121099D01*
X643666Y-121214D01*
X643589Y-121282D01*
X643512Y-121359D01*
X643493Y-121378D01*
X643474Y-121407D01*
X643455Y-121435D01*
X643426Y-121484D01*
X643397Y-121541D01*
X643358Y-121608D01*
X643330Y-121685D01*
X643291Y-121772D01*
X643253Y-121868D01*
X643224Y-121974D01*
X643195Y-122099D01*
X643176Y-122223D01*
X643157Y-122368D01*
X643137Y-122512D01*
Y-122675D01*
Y-122685D01*
Y-122714D01*
Y-122762D01*
X643147Y-122819D01*
Y-122887D01*
X643157Y-122973D01*
X643185Y-123165D01*
X643233Y-123377D01*
X643291Y-123598D01*
X643387Y-123809D01*
X643445Y-123905D01*
X643512Y-123992D01*
X643531Y-124011D01*
X643579Y-124059D01*
X643666Y-124126D01*
X643781Y-124203D01*
X643916Y-124290D01*
X644089Y-124357D01*
X644271Y-124405D01*
X644377Y-124415D01*
X644483Y-124424D01*
X644540D01*
X644579Y-124415D01*
X644685Y-124405D01*
X644819Y-124367D01*
X644973Y-124319D01*
X645136Y-124242D01*
X645290Y-124136D01*
X645367Y-124069D01*
X645444Y-123992D01*
Y-123982D01*
X645463Y-123973D01*
X645482Y-123944D01*
X645501Y-123905D01*
X645530Y-123857D01*
X645569Y-123800D01*
X645598Y-123732D01*
X645636Y-123655D01*
X645674Y-123569D01*
X645703Y-123473D01*
X645742Y-123357D01*
X645771Y-123233D01*
X645790Y-123108D01*
X645809Y-122964D01*
X645828Y-122810D01*
Y-122646D01*
Y-122637D01*
Y-122608D01*
Y-122570D01*
X645819Y-122502D01*
Y-122435D01*
X645809Y-122358D01*
X645780Y-122166D01*
X645732Y-121964D01*
X645665Y-121743D01*
X645569Y-121541D01*
X645434Y-121359D01*
Y-121349D01*
X645415Y-121339D01*
X645367Y-121291D01*
X645280Y-121214D01*
X645175Y-121138D01*
X645031Y-121061D01*
X644867Y-120984D01*
X644685Y-120936D01*
X644589Y-120917D01*
D02*
G37*
G36*
X634786D02*
X634623D01*
X634585Y-120926D01*
X634479Y-120936D01*
X634344Y-120974D01*
X634191Y-121022D01*
X634027Y-121099D01*
X633864Y-121214D01*
X633787Y-121282D01*
X633710Y-121359D01*
X633691Y-121378D01*
X633672Y-121407D01*
X633652Y-121435D01*
X633624Y-121484D01*
X633595Y-121541D01*
X633556Y-121608D01*
X633527Y-121685D01*
X633489Y-121772D01*
X633451Y-121868D01*
X633422Y-121974D01*
X633393Y-122099D01*
X633374Y-122223D01*
X633354Y-122368D01*
X633335Y-122512D01*
Y-122675D01*
Y-122685D01*
Y-122714D01*
Y-122762D01*
X633345Y-122819D01*
Y-122887D01*
X633354Y-122973D01*
X633383Y-123165D01*
X633431Y-123377D01*
X633489Y-123598D01*
X633585Y-123809D01*
X633643Y-123905D01*
X633710Y-123992D01*
X633729Y-124011D01*
X633777Y-124059D01*
X633864Y-124126D01*
X633979Y-124203D01*
X634114Y-124290D01*
X634287Y-124357D01*
X634469Y-124405D01*
X634575Y-124415D01*
X634681Y-124424D01*
X634738D01*
X634777Y-124415D01*
X634882Y-124405D01*
X635017Y-124367D01*
X635171Y-124319D01*
X635334Y-124242D01*
X635488Y-124136D01*
X635565Y-124069D01*
X635642Y-123992D01*
Y-123982D01*
X635661Y-123973D01*
X635680Y-123944D01*
X635699Y-123905D01*
X635728Y-123857D01*
X635767Y-123800D01*
X635795Y-123732D01*
X635834Y-123655D01*
X635872Y-123569D01*
X635901Y-123473D01*
X635940Y-123357D01*
X635968Y-123233D01*
X635988Y-123108D01*
X636007Y-122964D01*
X636026Y-122810D01*
Y-122646D01*
Y-122637D01*
Y-122608D01*
Y-122570D01*
X636016Y-122502D01*
Y-122435D01*
X636007Y-122358D01*
X635978Y-122166D01*
X635930Y-121964D01*
X635863Y-121743D01*
X635767Y-121541D01*
X635632Y-121359D01*
Y-121349D01*
X635613Y-121339D01*
X635565Y-121291D01*
X635478Y-121214D01*
X635372Y-121138D01*
X635228Y-121061D01*
X635065Y-120984D01*
X634882Y-120936D01*
X634786Y-120917D01*
D02*
G37*
G36*
X704286Y-123097D02*
X704267Y-123107D01*
X704238Y-123116D01*
X704209Y-123126D01*
X704161Y-123145D01*
X704104Y-123155D01*
X704046Y-123174D01*
X703969Y-123203D01*
X703883Y-123222D01*
X703787Y-123241D01*
X703690Y-123270D01*
X703575Y-123299D01*
X703450Y-123318D01*
X703316Y-123347D01*
X703171Y-123366D01*
X703018Y-123395D01*
X702998D01*
X702941Y-123404D01*
X702854Y-123424D01*
X702749Y-123443D01*
X702528Y-123491D01*
X702422Y-123520D01*
X702335Y-123549D01*
X702326D01*
X702307Y-123568D01*
X702268Y-123587D01*
X702230Y-123616D01*
X702134Y-123693D01*
X702037Y-123808D01*
Y-123818D01*
X702018Y-123837D01*
X702009Y-123866D01*
X701989Y-123914D01*
X701951Y-124029D01*
X701941Y-124096D01*
X701932Y-124173D01*
Y-124183D01*
Y-124221D01*
X701941Y-124279D01*
X701961Y-124356D01*
X701989Y-124433D01*
X702028Y-124519D01*
X702085Y-124606D01*
X702162Y-124692D01*
X702172Y-124702D01*
X702210Y-124721D01*
X702258Y-124759D01*
X702335Y-124788D01*
X702431Y-124827D01*
X702556Y-124865D01*
X702691Y-124884D01*
X702854Y-124894D01*
X702931D01*
X703008Y-124884D01*
X703123Y-124865D01*
X703239Y-124846D01*
X703373Y-124817D01*
X703508Y-124769D01*
X703642Y-124702D01*
X703661Y-124692D01*
X703700Y-124663D01*
X703767Y-124625D01*
X703844Y-124558D01*
X703921Y-124490D01*
X704007Y-124394D01*
X704094Y-124289D01*
X704161Y-124164D01*
X704171Y-124154D01*
X704180Y-124116D01*
X704200Y-124058D01*
X704228Y-123971D01*
X704248Y-123856D01*
X704267Y-123722D01*
X704277Y-123568D01*
X704286Y-123385D01*
Y-123097D01*
D02*
G37*
G36*
X692975Y-119820D02*
X691486D01*
Y-121742D01*
X693033D01*
X693148Y-121732D01*
X693283Y-121723D01*
X693417Y-121713D01*
X693533Y-121694D01*
X693638Y-121675D01*
X693648Y-121665D01*
X693686Y-121655D01*
X693744Y-121636D01*
X693821Y-121598D01*
X693898Y-121559D01*
X693975Y-121502D01*
X694052Y-121434D01*
X694119Y-121358D01*
X694128Y-121348D01*
X694148Y-121319D01*
X694167Y-121271D01*
X694205Y-121204D01*
X694234Y-121127D01*
X694253Y-121031D01*
X694273Y-120925D01*
X694282Y-120800D01*
Y-120791D01*
Y-120742D01*
X694273Y-120685D01*
X694263Y-120608D01*
X694244Y-120521D01*
X694215Y-120435D01*
X694176Y-120339D01*
X694128Y-120243D01*
X694119Y-120233D01*
X694100Y-120204D01*
X694061Y-120166D01*
X694013Y-120108D01*
X693956Y-120060D01*
X693879Y-120002D01*
X693792Y-119954D01*
X693696Y-119916D01*
X693686D01*
X693638Y-119897D01*
X693571Y-119887D01*
X693475Y-119868D01*
X693340Y-119849D01*
X693177Y-119839D01*
X692975Y-119820D01*
D02*
G37*
G36*
X693148Y-122482D02*
X691486D01*
Y-124654D01*
X693273D01*
X693465Y-124644D01*
X693552Y-124635D01*
X693619Y-124625D01*
X693629D01*
X693667Y-124615D01*
X693725Y-124606D01*
X693792Y-124586D01*
X693946Y-124538D01*
X694100Y-124461D01*
X694109Y-124452D01*
X694138Y-124442D01*
X694167Y-124414D01*
X694215Y-124365D01*
X694273Y-124317D01*
X694321Y-124260D01*
X694378Y-124183D01*
X694426Y-124106D01*
X694436Y-124096D01*
X694446Y-124067D01*
X694465Y-124020D01*
X694494Y-123952D01*
X694513Y-123875D01*
X694532Y-123779D01*
X694542Y-123683D01*
X694551Y-123568D01*
Y-123549D01*
Y-123510D01*
X694542Y-123443D01*
X694532Y-123366D01*
X694503Y-123270D01*
X694474Y-123164D01*
X694426Y-123058D01*
X694359Y-122962D01*
X694349Y-122953D01*
X694330Y-122914D01*
X694282Y-122876D01*
X694225Y-122818D01*
X694157Y-122751D01*
X694071Y-122693D01*
X693975Y-122636D01*
X693859Y-122588D01*
X693840Y-122578D01*
X693802Y-122568D01*
X693725Y-122549D01*
X693629Y-122530D01*
X693494Y-122511D01*
X693340Y-122501D01*
X693148Y-122482D01*
D02*
G37*
G36*
X734116Y-121348D02*
X734068D01*
X734029Y-121358D01*
X733923Y-121367D01*
X733799Y-121396D01*
X733654Y-121434D01*
X733510Y-121502D01*
X733357Y-121588D01*
X733212Y-121713D01*
X733193Y-121732D01*
X733155Y-121780D01*
X733097Y-121857D01*
X733030Y-121973D01*
X732962Y-122107D01*
X732895Y-122270D01*
X732847Y-122463D01*
X732818Y-122674D01*
X735374D01*
Y-122664D01*
Y-122645D01*
X735365Y-122616D01*
Y-122578D01*
X735346Y-122472D01*
X735317Y-122347D01*
X735278Y-122213D01*
X735221Y-122069D01*
X735163Y-121924D01*
X735077Y-121809D01*
Y-121800D01*
X735057Y-121790D01*
X735009Y-121732D01*
X734923Y-121665D01*
X734817Y-121579D01*
X734673Y-121492D01*
X734510Y-121415D01*
X734327Y-121367D01*
X734221Y-121358D01*
X734116Y-121348D01*
D02*
G37*
G36*
X698424Y-121358D02*
X698261D01*
X698222Y-121367D01*
X698117Y-121377D01*
X697982Y-121415D01*
X697828Y-121463D01*
X697665Y-121540D01*
X697502Y-121655D01*
X697425Y-121723D01*
X697348Y-121800D01*
X697329Y-121819D01*
X697309Y-121848D01*
X697290Y-121876D01*
X697261Y-121924D01*
X697232Y-121982D01*
X697194Y-122049D01*
X697165Y-122126D01*
X697127Y-122213D01*
X697088Y-122309D01*
X697059Y-122415D01*
X697031Y-122539D01*
X697011Y-122664D01*
X696992Y-122809D01*
X696973Y-122953D01*
Y-123116D01*
Y-123126D01*
Y-123155D01*
Y-123203D01*
X696983Y-123260D01*
Y-123328D01*
X696992Y-123414D01*
X697021Y-123606D01*
X697069Y-123818D01*
X697127Y-124039D01*
X697223Y-124250D01*
X697281Y-124346D01*
X697348Y-124433D01*
X697367Y-124452D01*
X697415Y-124500D01*
X697502Y-124567D01*
X697617Y-124644D01*
X697751Y-124731D01*
X697924Y-124798D01*
X698107Y-124846D01*
X698213Y-124855D01*
X698318Y-124865D01*
X698376D01*
X698415Y-124855D01*
X698520Y-124846D01*
X698655Y-124808D01*
X698808Y-124759D01*
X698972Y-124683D01*
X699126Y-124577D01*
X699202Y-124510D01*
X699279Y-124433D01*
Y-124423D01*
X699299Y-124414D01*
X699318Y-124385D01*
X699337Y-124346D01*
X699366Y-124298D01*
X699404Y-124241D01*
X699433Y-124173D01*
X699472Y-124096D01*
X699510Y-124010D01*
X699539Y-123914D01*
X699577Y-123798D01*
X699606Y-123673D01*
X699625Y-123549D01*
X699645Y-123404D01*
X699664Y-123251D01*
Y-123087D01*
Y-123078D01*
Y-123049D01*
Y-123010D01*
X699654Y-122943D01*
Y-122876D01*
X699645Y-122799D01*
X699616Y-122607D01*
X699568Y-122405D01*
X699500Y-122184D01*
X699404Y-121982D01*
X699270Y-121800D01*
Y-121790D01*
X699251Y-121780D01*
X699202Y-121732D01*
X699116Y-121655D01*
X699010Y-121579D01*
X698866Y-121502D01*
X698703Y-121425D01*
X698520Y-121377D01*
X698424Y-121358D01*
D02*
G37*
G36*
X729167Y-121358D02*
X729022D01*
X728984Y-121367D01*
X728888Y-121377D01*
X728763Y-121405D01*
X728628Y-121463D01*
X728475Y-121540D01*
X728330Y-121636D01*
X728254Y-121703D01*
X728186Y-121780D01*
X728167Y-121800D01*
X728157Y-121828D01*
X728129Y-121857D01*
X728100Y-121905D01*
X728071Y-121953D01*
X728042Y-122021D01*
X728013Y-122098D01*
X727975Y-122174D01*
X727946Y-122270D01*
X727917Y-122376D01*
X727888Y-122482D01*
X727850Y-122741D01*
X727831Y-123030D01*
Y-123039D01*
Y-123068D01*
Y-123116D01*
X727840Y-123174D01*
Y-123251D01*
X727850Y-123337D01*
X727879Y-123529D01*
X727917Y-123741D01*
X727985Y-123962D01*
X728071Y-124164D01*
X728129Y-124250D01*
X728186Y-124337D01*
X728205Y-124356D01*
X728254Y-124404D01*
X728330Y-124471D01*
X728436Y-124538D01*
X728561Y-124615D01*
X728715Y-124682D01*
X728888Y-124731D01*
X728984Y-124740D01*
X729080Y-124750D01*
X729128D01*
X729167Y-124740D01*
X729272Y-124731D01*
X729397Y-124702D01*
X729532Y-124654D01*
X729685Y-124577D01*
X729830Y-124481D01*
X729974Y-124346D01*
Y-124337D01*
X729993Y-124327D01*
X730012Y-124298D01*
X730031Y-124269D01*
X730060Y-124221D01*
X730089Y-124173D01*
X730118Y-124106D01*
X730156Y-124029D01*
X730195Y-123943D01*
X730224Y-123846D01*
X730252Y-123741D01*
X730281Y-123626D01*
X730310Y-123501D01*
X730320Y-123366D01*
X730339Y-123212D01*
Y-123058D01*
Y-123049D01*
Y-123020D01*
Y-122982D01*
X730329Y-122924D01*
Y-122847D01*
X730320Y-122770D01*
X730291Y-122578D01*
X730252Y-122376D01*
X730185Y-122165D01*
X730089Y-121963D01*
X730031Y-121876D01*
X729964Y-121790D01*
Y-121780D01*
X729945Y-121771D01*
X729897Y-121723D01*
X729820Y-121655D01*
X729714Y-121569D01*
X729589Y-121492D01*
X729436Y-121425D01*
X729263Y-121377D01*
X729167Y-121358D01*
D02*
G37*
%LPD*%
D11*
X339874Y327530D02*
G03*
X351210Y306412I10224J-8113D01*
G01*
X48366Y14823D02*
G03*
X48366Y14823I-3091J0D01*
G01*
X45415D02*
G03*
X45415Y14823I-139J0D01*
G01*
X335945Y164902D02*
Y173661D01*
X354055D01*
Y164902D02*
Y173661D01*
X335945Y164902D02*
X354055D01*
X310551Y203543D02*
X326004D01*
X310531Y263583D02*
X325590D01*
X275984Y283760D02*
X335866Y283760D01*
Y265000D02*
X344331D01*
X335866Y283760D02*
X344331D01*
Y265000D02*
Y283760D01*
X335866Y265000D02*
Y283760D01*
X345866Y265000D02*
Y273622D01*
X354331Y265000D02*
Y273622D01*
X345866D02*
X354331D01*
X324311Y113661D02*
Y133563D01*
Y113661D02*
X334055D01*
X315945Y133563D02*
X324311D01*
X315945Y104902D02*
Y133563D01*
X334055Y104902D02*
Y113661D01*
X315945Y104902D02*
X334055D01*
X316063Y55059D02*
Y63524D01*
X334075D01*
Y55059D02*
Y63524D01*
X316063Y55059D02*
X334075D01*
X316063Y45059D02*
Y53524D01*
X334075D01*
Y45059D02*
Y53524D01*
X316063Y45059D02*
X334075D01*
X316063Y163445D02*
X354055D01*
X316063Y143957D02*
Y163445D01*
Y143957D02*
X354055D01*
Y163445D01*
X335945Y124902D02*
X354055D01*
Y133661D01*
X335945D02*
X354055D01*
X335945Y124902D02*
Y133661D01*
X334370Y212756D02*
Y213681D01*
X326004D02*
X334370D01*
X335945Y235098D02*
X354055D01*
Y253504D01*
X335945D02*
X354055D01*
X335945Y235098D02*
Y253504D01*
X325590Y245138D02*
Y263583D01*
X334350D01*
Y245138D02*
Y263583D01*
X325590Y245138D02*
X334350D01*
X345768Y95039D02*
Y103642D01*
X354153D01*
Y95039D02*
Y103642D01*
X345768Y95039D02*
X354153D01*
X345886Y194783D02*
X354449D01*
X345886D02*
Y223583D01*
X354449D01*
Y194783D02*
Y223583D01*
X315669Y205315D02*
Y223681D01*
X324232D01*
Y205315D02*
Y223681D01*
X315669Y205315D02*
X324232D01*
X326004Y203799D02*
Y213681D01*
Y203543D02*
X334370D01*
Y212756D01*
X345866Y265000D02*
X354331D01*
X163602Y135138D02*
X197756D01*
Y168898D01*
X163602D02*
X197756D01*
X163602Y135138D02*
Y168898D01*
X16634Y135138D02*
Y168898D01*
X50787D01*
Y135138D02*
Y168898D01*
X16634Y135138D02*
X50787D01*
X45276Y25256D02*
X47244Y23287D01*
X43307Y23287D02*
X45276Y25256D01*
Y17913D02*
Y25256D01*
X53740Y12854D02*
X55709Y14823D01*
X53740Y16791D02*
X55709Y14823D01*
X48366D02*
X55709D01*
X348727Y15143D02*
G03*
X362231Y28721I28J13476D01*
G01*
X313897Y453D02*
G03*
X327865Y8398I-430J17007D01*
G01*
X340101Y15143D02*
G03*
X327800Y8303I31J-14537D01*
G01*
X327073Y341609D02*
G03*
X340443Y332359I13542J5287D01*
G01*
X326634Y342790D02*
G03*
X315457Y350371I-11018J-4215D01*
G01*
X429Y19709D02*
G03*
X13080Y7370I12282J-63D01*
G01*
X29169Y3404D02*
G03*
X20591Y7370I-8805J-7785D01*
G01*
X29072Y3478D02*
G03*
X35354Y453I6097J4625D01*
G01*
X362262Y319425D02*
G03*
X349823Y332359I-12687J247D01*
G01*
X15524Y350371D02*
G03*
X429Y333981I435J-15546D01*
G01*
X340101Y15143D02*
X348756D01*
X340443Y332359D02*
X349823D01*
X326634Y342790D02*
X327141Y341464D01*
X429Y333981D02*
X429Y19709D01*
X13080Y7370D02*
X20591D01*
X35354Y453D02*
X313467D01*
X362262Y28721D02*
X362262Y319425D01*
X15524Y350371D02*
X315457D01*
D12*
X300373Y212859D02*
G03*
X300373Y212859I-492J0D01*
G01*
X194488Y242028D02*
G03*
X194488Y242028I-492J0D01*
G01*
X47638Y240846D02*
G03*
X47638Y240846I-492J0D01*
G01*
X149907Y282972D02*
G03*
X149907Y282972I-492J0D01*
G01*
X134055Y212702D02*
G03*
X134055Y212702I-492J0D01*
G01*
X208864Y281791D02*
G03*
X208864Y281791I-492J0D01*
G01*
D14*
X129153Y263377D02*
X130127Y264351D01*
X126299Y266230D02*
X127274Y267205D01*
X65489Y224443D02*
X67160Y222773D01*
X68273Y227227D02*
X69944Y225557D01*
X63474Y222027D02*
X64449Y221053D01*
X60621Y219174D02*
X61595Y218200D01*
X61239Y270463D02*
X62214Y271438D01*
X58386Y273317D02*
X59360Y274291D01*
X66114Y265036D02*
X67784Y266706D01*
X63330Y267820D02*
X65000Y269490D01*
X123687Y268147D02*
X125357Y269817D01*
X120903Y270931D02*
X122573Y272601D01*
X52497Y257053D02*
X54168Y258723D01*
X55281Y254269D02*
X56951Y255939D01*
X50384Y259862D02*
X51358Y260837D01*
X47530Y262716D02*
X48505Y263690D01*
X133661Y295866D02*
Y298228D01*
X129724Y295866D02*
Y298228D01*
X119587Y196161D02*
X121949D01*
X119587Y192224D02*
X121949D01*
X238681Y214173D02*
Y216535D01*
X242618Y214173D02*
Y216535D01*
X223721Y212205D02*
Y213583D01*
X219685Y212205D02*
Y213583D01*
X216142Y211713D02*
Y214075D01*
X212205Y211713D02*
Y214075D01*
X275806Y266545D02*
X276781Y265570D01*
X272953Y263691D02*
X273927Y262717D01*
X270439Y261971D02*
X272109Y260301D01*
X267655Y259187D02*
X269325Y257517D01*
X207283Y255610D02*
Y257972D01*
X203346Y255610D02*
Y257972D01*
X197441Y256004D02*
Y257382D01*
X201476Y256004D02*
Y257382D01*
X186122Y297638D02*
X188484D01*
X186122Y301575D02*
X188484D01*
X289703Y196850D02*
X292065D01*
X289703Y192913D02*
X292065D01*
D15*
X180807Y249410D02*
X193012D01*
X180807Y245472D02*
X193012D01*
X180807D02*
Y249410D01*
X193012Y245472D02*
Y249410D01*
X131658Y272007D02*
X134999Y268666D01*
X33957Y248228D02*
X46161D01*
X33957Y244291D02*
X46161D01*
X33957D02*
Y248228D01*
X46161Y244291D02*
Y248228D01*
X65910Y213328D02*
X69251Y216669D01*
X63745Y279093D02*
X67086Y275753D01*
X42658Y258401D02*
X45999Y255060D01*
X219390Y220079D02*
X224114D01*
X268151Y268076D02*
X271491Y271416D01*
X197146Y263878D02*
X201870D01*
X31457Y325590D02*
Y347342D01*
X93661D01*
X71457Y313189D02*
X102953D01*
X93661Y347342D02*
X103051D01*
Y325590D02*
Y347342D01*
X69449Y325590D02*
X103051D01*
X71457Y313189D02*
Y323130D01*
X31457Y325590D02*
X69449D01*
X102953Y313189D02*
Y323130D01*
X71457D02*
X102953D01*
X269980D02*
X301279D01*
Y313189D02*
Y323130D01*
X302953Y325590D02*
X317815D01*
X230118D02*
X268110D01*
X269980Y313189D02*
Y323130D01*
X268110Y325590D02*
X302953D01*
X317815D02*
Y347342D01*
X292323D02*
X317815D01*
X269980Y313189D02*
X301279D01*
X230118Y347342D02*
X317815D01*
X230118Y325590D02*
Y347342D01*
D18*
X296949Y218160D02*
Y215494D01*
X296416Y214961D01*
X295349D01*
X294816Y215494D01*
Y218160D01*
X293750Y214961D02*
X292684D01*
X293217D01*
Y218160D01*
X293750Y217626D01*
X291084D02*
X290551Y218160D01*
X289485D01*
X288951Y217626D01*
Y215494D01*
X289485Y214961D01*
X290551D01*
X291084Y215494D01*
Y217626D01*
X186122Y237549D02*
Y234884D01*
X185589Y234350D01*
X184523D01*
X183989Y234884D01*
Y237549D01*
X182923Y237016D02*
X182390Y237549D01*
X181324D01*
X180790Y237016D01*
Y236483D01*
X181324Y235950D01*
X180790Y235417D01*
Y234884D01*
X181324Y234350D01*
X182390D01*
X182923Y234884D01*
Y235417D01*
X182390Y235950D01*
X182923Y236483D01*
Y237016D01*
X182390Y235950D02*
X181324D01*
X120524Y259137D02*
X120524Y259891D01*
X121278Y260645D01*
X122032D01*
X123540Y259137D01*
Y258383D01*
X122786Y257629D01*
X122032D01*
X121655Y256498D02*
X120901Y255744D01*
X121278Y256121D01*
X119016Y258383D01*
X119770Y258383D01*
X116000Y255367D02*
X117508Y256875D01*
X118639Y255744D01*
X117508Y255367D01*
X117131Y254990D01*
Y254236D01*
X117885Y253482D01*
X118639D01*
X119393Y254236D01*
Y254990D01*
X256693Y220276D02*
X254431Y222538D01*
X253300Y221407D01*
X253300Y220653D01*
X254054Y219899D01*
X254808D01*
X255939Y221030D01*
X255185Y220276D02*
Y218768D01*
X252923Y216506D02*
X254431Y218014D01*
X251415D01*
X251038Y218391D01*
X251038Y219145D01*
X251792Y219899D01*
X252546Y219899D01*
X250284Y217637D02*
X249530Y217637D01*
X248776Y216883D01*
Y216129D01*
X249153Y215752D01*
X249907D01*
Y214998D01*
X250284Y214621D01*
X251038D01*
X251792Y215375D01*
Y216129D01*
X251415Y216506D01*
X250661D01*
Y217260D01*
X250284Y217637D01*
X250661Y216506D02*
X249907Y215752D01*
X31496Y251919D02*
Y249254D01*
X30963Y248721D01*
X29897D01*
X29363Y249254D01*
Y251919D01*
X28297Y251386D02*
X27764Y251919D01*
X26698D01*
X26164Y251386D01*
Y250853D01*
X26698Y250320D01*
X27231D01*
X26698D01*
X26164Y249787D01*
Y249254D01*
X26698Y248721D01*
X27764D01*
X28297Y249254D01*
X61204Y232724D02*
X61958Y232724D01*
X62712Y231970D01*
Y231216D01*
X61204Y229708D01*
X60450D01*
X59696Y230462D01*
Y231216D01*
X60450Y233478D02*
X60450Y234232D01*
X59696Y234986D01*
X58942Y234986D01*
X58565Y234609D01*
Y233855D01*
X57811D01*
X57434Y233478D01*
Y232724D01*
X58188Y231970D01*
X58942D01*
X59319Y232347D01*
Y233101D01*
X60073D01*
X60450Y233478D01*
X59319Y233101D02*
X58565Y233855D01*
X55889Y228196D02*
X56643Y228196D01*
X57397Y227442D01*
Y226688D01*
X55889Y225180D01*
X55135D01*
X54381Y225934D01*
Y226688D01*
X53627Y227442D02*
X52873D01*
X52119Y228196D01*
Y228950D01*
X53627Y230458D01*
X54381Y230458D01*
X55135Y229704D01*
X55135Y228950D01*
X54758Y228573D01*
X54004D01*
X52873Y229704D01*
X56646Y278724D02*
X56646Y279478D01*
X57400Y280231D01*
X58154D01*
X59662Y278724D01*
Y277970D01*
X58908Y277216D01*
X58154D01*
X57777Y276084D02*
X57023Y275330D01*
X57400Y275708D01*
X55138Y277970D01*
X55892Y277970D01*
X54007Y276084D02*
X53253D01*
X52499Y275330D01*
X52499Y274576D01*
X52876Y274199D01*
X53630D01*
X54007Y274576D01*
X53630Y274199D01*
Y273445D01*
X54007Y273068D01*
X54761D01*
X55515Y273822D01*
Y274576D01*
X70918Y264944D02*
X70918Y265698D01*
X71672Y266452D01*
X72426D01*
X73934Y264944D01*
Y264190D01*
X73180Y263436D01*
X72426D01*
X72049Y262305D02*
X71295Y261551D01*
X71672Y261928D01*
X69410Y264190D01*
X70164Y264190D01*
X69033Y259289D02*
X66771Y261551D01*
X69033Y261551D01*
X67525Y260043D01*
X115406Y264452D02*
X115406Y265206D01*
X116160Y265960D01*
X116914D01*
X118422Y264452D01*
Y263698D01*
X117668Y262944D01*
X116914D01*
X116537Y261813D02*
X115783Y261059D01*
X116160Y261436D01*
X113898Y263698D01*
X114652Y263698D01*
X110882Y260682D02*
X112013Y261059D01*
X113521D01*
X114275Y260305D01*
Y259551D01*
X113521Y258797D01*
X112767D01*
X112390Y259174D01*
Y259928D01*
X113521Y261059D01*
X59698Y254314D02*
X59698Y255068D01*
X60452Y255822D01*
X61206D01*
X62713Y254314D01*
Y253560D01*
X61960Y252806D01*
X61206D01*
X60829Y251675D02*
X60075Y250921D01*
X60452Y251298D01*
X58189Y253560D01*
X58943Y253560D01*
X56682Y252052D02*
X55173Y250544D01*
X55550Y250167D01*
X58566D01*
X58943Y249790D01*
X47296Y269964D02*
X47296Y270718D01*
X48050Y271472D01*
X48804D01*
X50312Y269964D01*
Y269210D01*
X49558Y268456D01*
X48804D01*
X48427Y267325D02*
X47673Y266571D01*
X48050Y266948D01*
X45788Y269210D01*
X46542Y269210D01*
X44657Y267325D02*
X43903D01*
X43149Y266571D01*
X43149Y265817D01*
X43526Y265440D01*
X44280D01*
Y264686D01*
X44657Y264309D01*
X45411D01*
X46165Y265063D01*
Y265817D01*
X45788Y266194D01*
X45034D01*
Y266948D01*
X44657Y267325D01*
X45034Y266194D02*
X44280Y265440D01*
X125230Y301485D02*
X125763Y302018D01*
X126829D01*
X127362Y301485D01*
Y299352D01*
X126829Y298819D01*
X125763D01*
X125230Y299352D01*
X124163Y298819D02*
X123097D01*
X123630D01*
Y302018D01*
X124163Y301485D01*
X121497Y299352D02*
X120964Y298819D01*
X119898D01*
X119365Y299352D01*
Y301485D01*
X119898Y302018D01*
X120964D01*
X121497Y301485D01*
Y300952D01*
X120964Y300418D01*
X119365D01*
X134974Y194103D02*
X135507Y194636D01*
X136573D01*
X137106Y194103D01*
Y191970D01*
X136573Y191437D01*
X135507D01*
X134974Y191970D01*
X131775Y191437D02*
X133907D01*
X131775Y193570D01*
Y194103D01*
X132308Y194636D01*
X133374D01*
X133907Y194103D01*
X130708D02*
X130175Y194636D01*
X129109D01*
X128576Y194103D01*
Y191970D01*
X129109Y191437D01*
X130175D01*
X130708Y191970D01*
Y194103D01*
X233653Y217159D02*
X233120Y217692D01*
Y218758D01*
X233653Y219291D01*
X235786D01*
X236319Y218758D01*
Y217692D01*
X235786Y217159D01*
X233653Y216092D02*
X233120Y215559D01*
Y214493D01*
X233653Y213960D01*
X234186D01*
X234719Y214493D01*
Y215026D01*
Y214493D01*
X235253Y213960D01*
X235786D01*
X236319Y214493D01*
Y215559D01*
X235786Y216092D01*
X233653Y212893D02*
X233120Y212360D01*
Y211294D01*
X233653Y210761D01*
X235786D01*
X236319Y211294D01*
Y212360D01*
X235786Y212893D01*
X233653D01*
X220339Y202688D02*
X219806Y203221D01*
Y204287D01*
X220339Y204820D01*
X222471D01*
X223005Y204287D01*
Y203221D01*
X222471Y202688D01*
X223005Y200022D02*
X219806D01*
X221405Y201622D01*
Y199489D01*
X220339Y198423D02*
X219806Y197889D01*
Y196823D01*
X220339Y196290D01*
X222471D01*
X223005Y196823D01*
Y197889D01*
X222471Y198423D01*
X220339D01*
X213900Y203077D02*
X213367Y203610D01*
Y204677D01*
X213900Y205210D01*
X216032D01*
X216565Y204677D01*
Y203610D01*
X216032Y203077D01*
X216565Y200411D02*
X213367D01*
X214966Y202011D01*
Y199878D01*
X216565Y198812D02*
Y197746D01*
Y198279D01*
X213367D01*
X213900Y198812D01*
X267798Y272980D02*
X268552Y272980D01*
X269306Y272226D01*
Y271472D01*
X267798Y269964D01*
X267044D01*
X266290Y270718D01*
Y271472D01*
X264028Y272980D02*
X266290Y275242D01*
X266290Y272980D01*
X264782Y274488D01*
X261766Y275242D02*
X264028Y277504D01*
Y275242D01*
X262520Y276750D01*
X263074Y267862D02*
X263828Y267862D01*
X264582Y267108D01*
Y266354D01*
X263074Y264845D01*
X262320D01*
X261566Y265599D01*
Y266354D01*
X259304Y267862D02*
X261566Y270124D01*
X261566Y267862D01*
X260058Y269370D01*
X258927Y272762D02*
X260435Y271254D01*
X259304Y270124D01*
X258927Y271254D01*
X258550Y271632D01*
X257796D01*
X257042Y270878D01*
Y270124D01*
X257796Y269370D01*
X258550D01*
X210228Y259186D02*
X209695Y259719D01*
Y260786D01*
X210228Y261319D01*
X212361D01*
X212894Y260786D01*
Y259719D01*
X212361Y259186D01*
X212894Y256520D02*
X209695D01*
X211294Y258120D01*
Y255987D01*
X209695Y252788D02*
X210228Y253855D01*
X211294Y254921D01*
X212361D01*
X212894Y254388D01*
Y253322D01*
X212361Y252788D01*
X211827D01*
X211294Y253322D01*
Y254921D01*
X204481Y271834D02*
X204481Y272588D01*
X205235Y273342D01*
X205989D01*
X207497Y271834D01*
Y271080D01*
X206743Y270326D01*
X205989D01*
X204481Y268064D02*
X202219Y270326D01*
X204481Y270326D01*
X202973Y268818D01*
X201088Y269195D02*
X199580Y267687D01*
X199957Y267310D01*
X202973D01*
X203350Y266933D01*
X177395Y300599D02*
X177928Y301132D01*
X178994D01*
X179528Y300599D01*
Y298466D01*
X178994Y297933D01*
X177928D01*
X177395Y298466D01*
X174729Y297933D02*
Y301132D01*
X176329Y299533D01*
X174196D01*
X173130Y300599D02*
X172597Y301132D01*
X171530D01*
X170997Y300599D01*
Y300066D01*
X171530Y299533D01*
X170997Y298999D01*
Y298466D01*
X171530Y297933D01*
X172597D01*
X173130Y298466D01*
Y298999D01*
X172597Y299533D01*
X173130Y300066D01*
Y300599D01*
X172597Y299533D02*
X171530D01*
X304757Y196170D02*
X305290Y196703D01*
X306357D01*
X306890Y196170D01*
Y194037D01*
X306357Y193504D01*
X305290D01*
X304757Y194037D01*
X302091Y193504D02*
Y196703D01*
X303691Y195103D01*
X301558D01*
X300492Y194037D02*
X299959Y193504D01*
X298892D01*
X298359Y194037D01*
Y196170D01*
X298892Y196703D01*
X299959D01*
X300492Y196170D01*
Y195637D01*
X299959Y195103D01*
X298359D01*
X290781Y266585D02*
X291847D01*
X291314D01*
Y263919D01*
X291847Y263386D01*
X292380D01*
X292913Y263919D01*
X289714Y262853D02*
X287582D01*
X286515Y263386D02*
Y266585D01*
X284916D01*
X284383Y266052D01*
Y264985D01*
X284916Y264452D01*
X286515D01*
X283316Y266585D02*
X281184D01*
Y266052D01*
X283316Y263919D01*
Y263386D01*
X290781Y244636D02*
X291847D01*
X291314D01*
Y241970D01*
X291847Y241437D01*
X292380D01*
X292913Y241970D01*
X289714Y240904D02*
X287582D01*
X286515Y241437D02*
Y244636D01*
X284916D01*
X284383Y244103D01*
Y243037D01*
X284916Y242503D01*
X286515D01*
X283316Y244103D02*
X282783Y244636D01*
X281717D01*
X281184Y244103D01*
Y243570D01*
X281717Y243037D01*
X281184Y242503D01*
Y241970D01*
X281717Y241437D01*
X282783D01*
X283316Y241970D01*
Y242503D01*
X282783Y243037D01*
X283316Y243570D01*
Y244103D01*
X282783Y243037D02*
X281717D01*
X290781Y235679D02*
X291847D01*
X291314D01*
Y233014D01*
X291847Y232480D01*
X292380D01*
X292913Y233014D01*
X289714Y231947D02*
X287582D01*
X286515Y232480D02*
Y235679D01*
X284916D01*
X284383Y235146D01*
Y234080D01*
X284916Y233547D01*
X286515D01*
X283316Y233014D02*
X282783Y232480D01*
X281717D01*
X281184Y233014D01*
Y235146D01*
X281717Y235679D01*
X282783D01*
X283316Y235146D01*
Y234613D01*
X282783Y234080D01*
X281184D01*
X290781Y254183D02*
X291847D01*
X291314D01*
Y251517D01*
X291847Y250984D01*
X292380D01*
X292913Y251517D01*
X289714Y250451D02*
X287582D01*
X286515Y250984D02*
Y254183D01*
X284916D01*
X284383Y253650D01*
Y252584D01*
X284916Y252051D01*
X286515D01*
X283316Y250984D02*
X282250D01*
X282783D01*
Y254183D01*
X283316Y253650D01*
X280651D02*
X280118Y254183D01*
X279051D01*
X278518Y253650D01*
Y251517D01*
X279051Y250984D01*
X280118D01*
X280651Y251517D01*
Y253650D01*
X290781Y225935D02*
X291847D01*
X291314D01*
Y223269D01*
X291847Y222736D01*
X292380D01*
X292913Y223269D01*
X289714Y222203D02*
X287582D01*
X286515Y222736D02*
Y225935D01*
X284916D01*
X284383Y225402D01*
Y224336D01*
X284916Y223802D01*
X286515D01*
X283316Y222736D02*
X282250D01*
X282783D01*
Y225935D01*
X283316Y225402D01*
X279051Y222736D02*
Y225935D01*
X280651Y224336D01*
X278518D01*
X131529Y319931D02*
X132595D01*
X132062D01*
Y317265D01*
X132595Y316732D01*
X133128D01*
X133661Y317265D01*
X130462Y316199D02*
X128330D01*
X127263Y319931D02*
Y317799D01*
X126197Y316732D01*
X125131Y317799D01*
Y319931D01*
X124065Y319398D02*
X123531Y319931D01*
X122465D01*
X121932Y319398D01*
Y317265D01*
X122465Y316732D01*
X123531D01*
X124065Y317265D01*
Y319398D01*
X189501Y319242D02*
X190568D01*
X190034D01*
Y316577D01*
X190568Y316043D01*
X191101D01*
X191634Y316577D01*
X188435Y315510D02*
X186302D01*
X185236Y319242D02*
Y317110D01*
X184170Y316043D01*
X183103Y317110D01*
Y319242D01*
X182037Y316043D02*
X180971D01*
X181504D01*
Y319242D01*
X182037Y318709D01*
X123293Y173750D02*
X124047Y172996D01*
X123670Y173373D01*
X121785Y171488D01*
Y170734D01*
X122162Y170357D01*
X122916D01*
X119900Y171865D02*
X118392Y173373D01*
X120277Y176766D02*
X118769Y175258D01*
X117261D01*
Y176766D01*
X118769Y178274D01*
X114245D02*
X115753Y176766D01*
Y179782D01*
X116130Y180159D01*
X116884Y180159D01*
X117638Y179405D01*
Y178651D01*
X170177Y248524D02*
Y251723D01*
X168578D01*
X168044Y251189D01*
Y250123D01*
X168578Y249590D01*
X170177D01*
X169111D02*
X168044Y248524D01*
X164846D02*
X166978D01*
X164846Y250656D01*
Y251189D01*
X165379Y251723D01*
X166445D01*
X166978Y251189D01*
X160728Y248721D02*
Y251919D01*
X159129D01*
X158596Y251386D01*
Y250320D01*
X159129Y249787D01*
X160728D01*
X159662D02*
X158596Y248721D01*
X157529Y251386D02*
X156996Y251919D01*
X155930D01*
X155397Y251386D01*
Y250853D01*
X155930Y250320D01*
X156463D01*
X155930D01*
X155397Y249787D01*
Y249254D01*
X155930Y248721D01*
X156996D01*
X157529Y249254D01*
X163878Y269193D02*
Y272392D01*
X162278D01*
X161745Y271859D01*
Y270792D01*
X162278Y270259D01*
X163878D01*
X162812D02*
X161745Y269193D01*
X159080D02*
Y272392D01*
X160679Y270792D01*
X158546D01*
X164764Y291339D02*
Y294538D01*
X163164D01*
X162631Y294004D01*
Y292938D01*
X163164Y292405D01*
X164764D01*
X163698D02*
X162631Y291339D01*
X159432Y294538D02*
X161565D01*
Y292938D01*
X160498Y293471D01*
X159965D01*
X159432Y292938D01*
Y291872D01*
X159965Y291339D01*
X161032D01*
X161565Y291872D01*
X15945Y240354D02*
Y243553D01*
X14345D01*
X13812Y243020D01*
Y241954D01*
X14345Y241421D01*
X15945D01*
X14879D02*
X13812Y240354D01*
X12746Y243553D02*
X10613D01*
Y243020D01*
X12746Y240887D01*
Y240354D01*
X70768Y240158D02*
Y243356D01*
X69168D01*
X68635Y242823D01*
Y241757D01*
X69168Y241224D01*
X70768D01*
X69701D02*
X68635Y240158D01*
X67569Y242823D02*
X67036Y243356D01*
X65969D01*
X65436Y242823D01*
Y242290D01*
X65969Y241757D01*
X65436Y241224D01*
Y240691D01*
X65969Y240158D01*
X67036D01*
X67569Y240691D01*
Y241224D01*
X67036Y241757D01*
X67569Y242290D01*
Y242823D01*
X67036Y241757D02*
X65969D01*
X15945Y255906D02*
Y259104D01*
X14345D01*
X13812Y258571D01*
Y257505D01*
X14345Y256972D01*
X15945D01*
X14879D02*
X13812Y255906D01*
X12746D02*
X11680D01*
X12213D01*
Y259104D01*
X12746Y258571D01*
X10080D02*
X9547Y259104D01*
X8481D01*
X7948Y258571D01*
Y258038D01*
X8481Y257505D01*
X9014D01*
X8481D01*
X7948Y256972D01*
Y256439D01*
X8481Y255906D01*
X9547D01*
X10080Y256439D01*
X32972Y282579D02*
Y285778D01*
X31373D01*
X30840Y285244D01*
Y284178D01*
X31373Y283645D01*
X32972D01*
X31906D02*
X30840Y282579D01*
X29774D02*
X28707D01*
X29240D01*
Y285778D01*
X29774Y285244D01*
X25508Y282579D02*
Y285778D01*
X27108Y284178D01*
X24975D01*
X15748Y265453D02*
Y268652D01*
X14149D01*
X13615Y268119D01*
Y267052D01*
X14149Y266519D01*
X15748D01*
X14682D02*
X13615Y265453D01*
X12549D02*
X11483D01*
X12016D01*
Y268652D01*
X12549Y268119D01*
X7751Y268652D02*
X9883D01*
Y267052D01*
X8817Y267585D01*
X8284D01*
X7751Y267052D01*
Y265986D01*
X8284Y265453D01*
X9350D01*
X9883Y265986D01*
X33169Y290650D02*
Y293849D01*
X31570D01*
X31037Y293315D01*
Y292249D01*
X31570Y291716D01*
X33169D01*
X32103D02*
X31037Y290650D01*
X29970D02*
X28904D01*
X29437D01*
Y293849D01*
X29970Y293315D01*
X25172Y293849D02*
X26238Y293315D01*
X27305Y292249D01*
Y291183D01*
X26771Y290650D01*
X25705D01*
X25172Y291183D01*
Y291716D01*
X25705Y292249D01*
X27305D01*
X15551Y274902D02*
Y278100D01*
X13952D01*
X13419Y277567D01*
Y276501D01*
X13952Y275968D01*
X15551D01*
X14485D02*
X13419Y274902D01*
X12352D02*
X11286D01*
X11819D01*
Y278100D01*
X12352Y277567D01*
X9686Y278100D02*
X7554D01*
Y277567D01*
X9686Y275435D01*
Y274902D01*
X203248Y275197D02*
X200986Y277459D01*
X199855Y276328D01*
X199855Y275574D01*
X200609Y274820D01*
X201363D01*
X202494Y275951D01*
X201740Y275197D02*
Y273689D01*
X200986Y272935D02*
X200232Y272181D01*
X200609Y272558D01*
X198347Y274820D01*
X199101Y274820D01*
X198724Y271427D02*
Y270673D01*
X197970Y269919D01*
X197216D01*
X195708Y271427D01*
X195708Y272181D01*
X196462Y272935D01*
X197216D01*
X197593Y272558D01*
Y271804D01*
X196462Y270673D01*
X181988Y278543D02*
X179726Y280805D01*
X178595Y279674D01*
X178595Y278920D01*
X179349Y278166D01*
X180103D01*
X181234Y279297D01*
X180480Y278543D02*
Y277035D01*
X178218Y274773D02*
X179726Y276281D01*
X176710D01*
X176333Y276658D01*
X176333Y277412D01*
X177087Y278166D01*
X177841Y278166D01*
X175579Y275904D02*
X174825Y275904D01*
X174071Y275150D01*
Y274396D01*
X175579Y272888D01*
X176333D01*
X177087Y273642D01*
Y274396D01*
X175579Y275904D01*
X162008Y241142D02*
Y244341D01*
X160408D01*
X159875Y243808D01*
Y242741D01*
X160408Y242208D01*
X162008D01*
X160942D02*
X159875Y241142D01*
X156676D02*
X158809D01*
X156676Y243274D01*
Y243808D01*
X157209Y244341D01*
X158276D01*
X158809Y243808D01*
X154010Y241142D02*
Y244341D01*
X155610Y242741D01*
X153477D01*
X208071Y234646D02*
Y237845D01*
X206471D01*
X205938Y237312D01*
Y236245D01*
X206471Y235712D01*
X208071D01*
X207005D02*
X205938Y234646D01*
X202739D02*
X204872D01*
X202739Y236778D01*
Y237312D01*
X203272Y237845D01*
X204339D01*
X204872Y237312D01*
X199540Y237845D02*
X201673D01*
Y236245D01*
X200607Y236778D01*
X200074D01*
X199540Y236245D01*
Y235179D01*
X200074Y234646D01*
X201140D01*
X201673Y235179D01*
X15945Y202854D02*
Y206053D01*
X14345D01*
X13812Y205520D01*
Y204454D01*
X14345Y203921D01*
X15945D01*
X14879D02*
X13812Y202854D01*
X12746Y205520D02*
X12213Y206053D01*
X11146D01*
X10613Y205520D01*
Y204987D01*
X11146Y204454D01*
X11680D01*
X11146D01*
X10613Y203921D01*
Y203387D01*
X11146Y202854D01*
X12213D01*
X12746Y203387D01*
X9547Y205520D02*
X9014Y206053D01*
X7948D01*
X7414Y205520D01*
Y203387D01*
X7948Y202854D01*
X9014D01*
X9547Y203387D01*
Y205520D01*
X42245Y211316D02*
Y214515D01*
X40645D01*
X40112Y213982D01*
Y212916D01*
X40645Y212383D01*
X42245D01*
X41179D02*
X40112Y211316D01*
X39046Y213982D02*
X38513Y214515D01*
X37446D01*
X36913Y213982D01*
Y213449D01*
X37446Y212916D01*
X37980D01*
X37446D01*
X36913Y212383D01*
Y211849D01*
X37446Y211316D01*
X38513D01*
X39046Y211849D01*
X35847Y211316D02*
X34781D01*
X35314D01*
Y214515D01*
X35847Y213982D01*
X16043Y212697D02*
Y215896D01*
X14444D01*
X13911Y215363D01*
Y214296D01*
X14444Y213763D01*
X16043D01*
X14977D02*
X13911Y212697D01*
X12844Y215363D02*
X12311Y215896D01*
X11245D01*
X10712Y215363D01*
Y214829D01*
X11245Y214296D01*
X11778D01*
X11245D01*
X10712Y213763D01*
Y213230D01*
X11245Y212697D01*
X12311D01*
X12844Y213230D01*
X7513Y212697D02*
X9645D01*
X7513Y214829D01*
Y215363D01*
X8046Y215896D01*
X9112D01*
X9645Y215363D01*
X43308Y230386D02*
Y233585D01*
X41709D01*
X41176Y233051D01*
Y231985D01*
X41709Y231452D01*
X43308D01*
X42242D02*
X41176Y230386D01*
X40109Y233051D02*
X39576Y233585D01*
X38510D01*
X37977Y233051D01*
Y232518D01*
X38510Y231985D01*
X39043D01*
X38510D01*
X37977Y231452D01*
Y230919D01*
X38510Y230386D01*
X39576D01*
X40109Y230919D01*
X36910Y233051D02*
X36377Y233585D01*
X35311D01*
X34778Y233051D01*
Y232518D01*
X35311Y231985D01*
X35844D01*
X35311D01*
X34778Y231452D01*
Y230919D01*
X35311Y230386D01*
X36377D01*
X36910Y230919D01*
X15846Y222244D02*
Y225443D01*
X14247D01*
X13714Y224910D01*
Y223844D01*
X14247Y223310D01*
X15846D01*
X14780D02*
X13714Y222244D01*
X12648Y224910D02*
X12114Y225443D01*
X11048D01*
X10515Y224910D01*
Y224377D01*
X11048Y223844D01*
X11581D01*
X11048D01*
X10515Y223310D01*
Y222777D01*
X11048Y222244D01*
X12114D01*
X12648Y222777D01*
X7849Y222244D02*
Y225443D01*
X9448Y223844D01*
X7316D01*
X110138Y197146D02*
Y200345D01*
X108538D01*
X108005Y199811D01*
Y198745D01*
X108538Y198212D01*
X110138D01*
X109072D02*
X108005Y197146D01*
X104806Y199811D02*
X105339Y200345D01*
X106406D01*
X106939Y199811D01*
Y199278D01*
X106406Y198745D01*
X105339D01*
X104806Y198212D01*
Y197679D01*
X105339Y197146D01*
X106406D01*
X106939Y197679D01*
X103740Y197146D02*
X102673D01*
X103207D01*
Y200345D01*
X103740Y199811D01*
X150295Y316339D02*
Y319538D01*
X148696D01*
X148163Y319004D01*
Y317938D01*
X148696Y317405D01*
X150295D01*
X149229D02*
X148163Y316339D01*
X144964Y319004D02*
X145497Y319538D01*
X146563D01*
X147096Y319004D01*
Y318471D01*
X146563Y317938D01*
X145497D01*
X144964Y317405D01*
Y316872D01*
X145497Y316339D01*
X146563D01*
X147096Y316872D01*
X141765Y316339D02*
X143897D01*
X141765Y318471D01*
Y319004D01*
X142298Y319538D01*
X143364D01*
X143897Y319004D01*
X276279Y197244D02*
Y200443D01*
X274680D01*
X274147Y199910D01*
Y198844D01*
X274680Y198310D01*
X276279D01*
X275213D02*
X274147Y197244D01*
X270948Y199910D02*
X271481Y200443D01*
X272547D01*
X273081Y199910D01*
Y199377D01*
X272547Y198844D01*
X271481D01*
X270948Y198310D01*
Y197777D01*
X271481Y197244D01*
X272547D01*
X273081Y197777D01*
X269882Y199910D02*
X269348Y200443D01*
X268282D01*
X267749Y199910D01*
Y199377D01*
X268282Y198844D01*
X268815D01*
X268282D01*
X267749Y198310D01*
Y197777D01*
X268282Y197244D01*
X269348D01*
X269882Y197777D01*
X209646Y315453D02*
Y318652D01*
X208046D01*
X207513Y318119D01*
Y317052D01*
X208046Y316519D01*
X209646D01*
X208579D02*
X207513Y315453D01*
X204314Y318119D02*
X204847Y318652D01*
X205913D01*
X206447Y318119D01*
Y317585D01*
X205913Y317052D01*
X204847D01*
X204314Y316519D01*
Y315986D01*
X204847Y315453D01*
X205913D01*
X206447Y315986D01*
X201648Y315453D02*
Y318652D01*
X203248Y317052D01*
X201115D01*
X134350Y288731D02*
Y286065D01*
X133817Y285531D01*
X132751D01*
X132218Y286065D01*
Y288731D01*
X129552Y285531D02*
Y288731D01*
X131151Y287131D01*
X129019D01*
X130807Y218553D02*
Y215887D01*
X130274Y215354D01*
X129208D01*
X128674Y215887D01*
Y218553D01*
X125476D02*
X127608D01*
Y216954D01*
X126542Y217487D01*
X126009D01*
X125476Y216954D01*
Y215887D01*
X126009Y215354D01*
X127075D01*
X127608Y215887D01*
X215650Y287648D02*
Y284982D01*
X215116Y284449D01*
X214050D01*
X213517Y284982D01*
Y287648D01*
X212451Y284982D02*
X211917Y284449D01*
X210851D01*
X210318Y284982D01*
Y287115D01*
X210851Y287648D01*
X211917D01*
X212451Y287115D01*
Y286581D01*
X211917Y286048D01*
X210318D01*
X280380Y179459D02*
X281134Y178705D01*
X280757Y179082D01*
X278872Y177197D01*
Y176443D01*
X279249Y176066D01*
X280003D01*
X276987Y177574D02*
X275479Y179082D01*
X277364Y182475D02*
X275856Y180967D01*
X274348D01*
Y182475D01*
X275856Y183983D01*
X274725Y184360D02*
Y185114D01*
X273971Y185868D01*
X273217Y185868D01*
X272840Y185491D01*
Y184737D01*
X273217Y184360D01*
X272840Y184737D01*
X272086D01*
X271709Y184360D01*
Y183606D01*
X272463Y182852D01*
X273217D01*
X106693Y236811D02*
Y240010D01*
X105093D01*
X104560Y239477D01*
Y238410D01*
X105093Y237877D01*
X106693D01*
X105627D02*
X104560Y236811D01*
X103494D02*
X102428D01*
X102961D01*
Y240010D01*
X103494Y239477D01*
X100828Y236811D02*
X99762D01*
X100295D01*
Y240010D01*
X100828Y239477D01*
X298721Y9547D02*
Y12746D01*
X297121D01*
X296588Y12213D01*
Y11147D01*
X297121Y10614D01*
X298721D01*
X297654D02*
X296588Y9547D01*
X293389Y12746D02*
X295521D01*
Y11147D01*
X294455D01*
X295521D01*
Y9547D01*
X292322Y9014D02*
X290190D01*
X286991Y12213D02*
X287524Y12746D01*
X288590D01*
X289124Y12213D01*
Y10080D01*
X288590Y9547D01*
X287524D01*
X286991Y10080D01*
Y11147D01*
X288057D01*
X285925Y9547D02*
Y12746D01*
X283792Y9547D01*
Y12746D01*
X282726D02*
Y9547D01*
X281126D01*
X280593Y10080D01*
Y12213D01*
X281126Y12746D01*
X282726D01*
X124902Y282038D02*
X122769D01*
X123835D01*
Y278839D01*
X121703D02*
Y282038D01*
X120103D01*
X119570Y281504D01*
Y280438D01*
X120103Y279905D01*
X121703D01*
X118504Y281504D02*
X117971Y282038D01*
X116904D01*
X116371Y281504D01*
Y280971D01*
X116904Y280438D01*
X117437D01*
X116904D01*
X116371Y279905D01*
Y279372D01*
X116904Y278839D01*
X117971D01*
X118504Y279372D01*
X120669Y290207D02*
X118537D01*
X119603D01*
Y287008D01*
X117470D02*
Y290207D01*
X115871D01*
X115338Y289674D01*
Y288607D01*
X115871Y288074D01*
X117470D01*
X112672Y287008D02*
Y290207D01*
X114271Y288607D01*
X112139D01*
X83169Y275738D02*
X81037D01*
X82103D01*
Y272539D01*
X79970D02*
Y275738D01*
X78371D01*
X77838Y275205D01*
Y274139D01*
X78371Y273606D01*
X79970D01*
X76771Y272539D02*
X75705D01*
X76238D01*
Y275738D01*
X76771Y275205D01*
X98524Y297786D02*
X96391D01*
X97457D01*
Y294587D01*
X95325D02*
Y297786D01*
X93725D01*
X93192Y297252D01*
Y296186D01*
X93725Y295653D01*
X95325D01*
X89993Y294587D02*
X92126D01*
X89993Y296719D01*
Y297252D01*
X90526Y297786D01*
X91593D01*
X92126Y297252D01*
X221457Y274656D02*
X219324D01*
X220390D01*
Y271457D01*
X218258D02*
Y274656D01*
X216658D01*
X216125Y274123D01*
Y273056D01*
X216658Y272523D01*
X218258D01*
X212926Y274656D02*
X215059D01*
Y273056D01*
X213992Y273589D01*
X213459D01*
X212926Y273056D01*
Y271990D01*
X213459Y271457D01*
X214526D01*
X215059Y271990D01*
X228346Y303986D02*
X226214D01*
X227280D01*
Y300787D01*
X225148D02*
Y303986D01*
X223548D01*
X223015Y303453D01*
Y302387D01*
X223548Y301854D01*
X225148D01*
X219816Y303986D02*
X220882Y303453D01*
X221949Y302387D01*
Y301321D01*
X221415Y300787D01*
X220349D01*
X219816Y301321D01*
Y301854D01*
X220349Y302387D01*
X221949D01*
X279281Y301378D02*
Y299245D01*
Y300312D01*
X282480D01*
Y298179D02*
X279281D01*
Y296580D01*
X279815Y296046D01*
X280881D01*
X281414Y296580D01*
Y298179D01*
X279281Y294980D02*
Y292847D01*
X279815D01*
X281947Y294980D01*
X282480D01*
X270423Y301378D02*
Y299245D01*
Y300312D01*
X273622D01*
Y298179D02*
X270423D01*
Y296580D01*
X270956Y296046D01*
X272023D01*
X272556Y296580D01*
Y298179D01*
X270956Y294980D02*
X270423Y294447D01*
Y293380D01*
X270956Y292847D01*
X271489D01*
X272023Y293380D01*
X272556Y292847D01*
X273089D01*
X273622Y293380D01*
Y294447D01*
X273089Y294980D01*
X272556D01*
X272023Y294447D01*
X271489Y294980D01*
X270956D01*
X272023Y294447D02*
Y293380D01*
X143799Y165010D02*
X141667D01*
X142733D01*
Y161811D01*
X140600D02*
Y165010D01*
X139001D01*
X138468Y164477D01*
Y163410D01*
X139001Y162877D01*
X140600D01*
X137401Y161811D02*
X136335D01*
X136868D01*
Y165010D01*
X137401Y164477D01*
X134736D02*
X134202Y165010D01*
X133136D01*
X132603Y164477D01*
Y163944D01*
X133136Y163410D01*
X133669D01*
X133136D01*
X132603Y162877D01*
Y162344D01*
X133136Y161811D01*
X134202D01*
X134736Y162344D01*
X289567Y164912D02*
X287434D01*
X288501D01*
Y161713D01*
X286368D02*
Y164912D01*
X284769D01*
X284235Y164378D01*
Y163312D01*
X284769Y162779D01*
X286368D01*
X283169Y161713D02*
X282103D01*
X282636D01*
Y164912D01*
X283169Y164378D01*
X280503D02*
X279970Y164912D01*
X278904D01*
X278371Y164378D01*
Y163845D01*
X278904Y163312D01*
X278371Y162779D01*
Y162246D01*
X278904Y161713D01*
X279970D01*
X280503Y162246D01*
Y162779D01*
X279970Y163312D01*
X280503Y163845D01*
Y164378D01*
X279970Y163312D02*
X278904D01*
X260827Y19833D02*
X258694D01*
X259760D01*
Y16634D01*
X257628D02*
Y19833D01*
X256028D01*
X255495Y19300D01*
Y18233D01*
X256028Y17700D01*
X257628D01*
X254429Y16634D02*
X253362D01*
X253896D01*
Y19833D01*
X254429Y19300D01*
X251763Y19833D02*
X249630D01*
Y19300D01*
X251763Y17167D01*
Y16634D01*
X159941Y58416D02*
X157808D01*
X158875D01*
Y55216D01*
X156742D02*
Y58416D01*
X155142D01*
X154609Y57882D01*
Y56816D01*
X155142Y56283D01*
X156742D01*
X153543Y55216D02*
X152477D01*
X153010D01*
Y58416D01*
X153543Y57882D01*
X148745Y55216D02*
X150877D01*
X148745Y57349D01*
Y57882D01*
X149278Y58416D01*
X150344D01*
X150877Y57882D01*
X207972Y75345D02*
X205840D01*
X206906D01*
Y72146D01*
X204773D02*
Y75345D01*
X203174D01*
X202641Y74812D01*
Y73745D01*
X203174Y73212D01*
X204773D01*
X201574Y72146D02*
X200508D01*
X201041D01*
Y75345D01*
X201574Y74812D01*
X197309Y72146D02*
Y75345D01*
X198909Y73745D01*
X196776D01*
X207972Y58120D02*
X205840D01*
X206906D01*
Y54921D01*
X204773D02*
Y58120D01*
X203174D01*
X202641Y57587D01*
Y56521D01*
X203174Y55988D01*
X204773D01*
X201574Y54921D02*
X200508D01*
X201041D01*
Y58120D01*
X201574Y57587D01*
X196776Y58120D02*
X198909D01*
Y56521D01*
X197842Y57054D01*
X197309D01*
X196776Y56521D01*
Y55454D01*
X197309Y54921D01*
X198375D01*
X198909Y55454D01*
X207972Y43455D02*
X205840D01*
X206906D01*
Y40256D01*
X204773D02*
Y43455D01*
X203174D01*
X202641Y42922D01*
Y41855D01*
X203174Y41322D01*
X204773D01*
X201574Y40256D02*
X200508D01*
X201041D01*
Y43455D01*
X201574Y42922D01*
X196776Y43455D02*
X197842Y42922D01*
X198909Y41855D01*
Y40789D01*
X198375Y40256D01*
X197309D01*
X196776Y40789D01*
Y41322D01*
X197309Y41855D01*
X198909D01*
X62492Y74557D02*
X60359D01*
X61425D01*
Y71358D01*
X59293D02*
Y74557D01*
X57693D01*
X57160Y74024D01*
Y72958D01*
X57693Y72425D01*
X59293D01*
X56094Y71891D02*
X55561Y71358D01*
X54494D01*
X53961Y71891D01*
Y74024D01*
X54494Y74557D01*
X55561D01*
X56094Y74024D01*
Y73491D01*
X55561Y72958D01*
X53961D01*
X65158Y59105D02*
X63025D01*
X64091D01*
Y55905D01*
X61958D02*
Y59105D01*
X60359D01*
X59826Y58571D01*
Y57505D01*
X60359Y56972D01*
X61958D01*
X58759Y55905D02*
X57693D01*
X58226D01*
Y59105D01*
X58759Y58571D01*
X56094D02*
X55561Y59105D01*
X54494D01*
X53961Y58571D01*
Y56439D01*
X54494Y55905D01*
X55561D01*
X56094Y56439D01*
Y58571D01*
X71358Y26427D02*
X69226D01*
X70292D01*
Y23228D01*
X68159D02*
Y26427D01*
X66560D01*
X66027Y25894D01*
Y24828D01*
X66560Y24295D01*
X68159D01*
X64960Y23228D02*
X63894D01*
X64427D01*
Y26427D01*
X64960Y25894D01*
X62295Y23228D02*
X61228D01*
X61761D01*
Y26427D01*
X62295Y25894D01*
X245308Y245284D02*
X245842Y245817D01*
X246908D01*
X247441Y245284D01*
Y243151D01*
X246908Y242618D01*
X245842D01*
X245308Y243151D01*
Y244218D01*
X246375D01*
X244242Y242618D02*
Y245817D01*
X242109Y242618D01*
Y245817D01*
X241043D02*
Y242618D01*
X239443D01*
X238910Y243151D01*
Y245284D01*
X239443Y245817D01*
X241043D01*
X60367Y300402D02*
X60900Y300935D01*
X61967D01*
X62500Y300402D01*
Y298269D01*
X61967Y297736D01*
X60900D01*
X60367Y298269D01*
Y299336D01*
X61434D01*
X59301Y297736D02*
Y300935D01*
X57168Y297736D01*
Y300935D01*
X56102D02*
Y297736D01*
X54503D01*
X53969Y298269D01*
Y300402D01*
X54503Y300935D01*
X56102D01*
X85761Y199123D02*
X86294Y199656D01*
X87361D01*
X87894Y199123D01*
Y196990D01*
X87361Y196457D01*
X86294D01*
X85761Y196990D01*
Y198056D01*
X86827D01*
X84695Y196457D02*
Y199656D01*
X82562Y196457D01*
Y199656D01*
X81496D02*
Y196457D01*
X79896D01*
X79363Y196990D01*
Y199123D01*
X79896Y199656D01*
X81496D01*
X161122Y33071D02*
Y36270D01*
X159523D01*
X158989Y35737D01*
Y34670D01*
X159523Y34137D01*
X161122D01*
X160056D02*
X158989Y33071D01*
X155790Y36270D02*
X157923D01*
Y34670D01*
X156857D01*
X157923D01*
Y33071D01*
X154724Y32538D02*
X152592D01*
X149392Y35737D02*
X149926Y36270D01*
X150992D01*
X151525Y35737D01*
Y33604D01*
X150992Y33071D01*
X149926D01*
X149392Y33604D01*
Y34670D01*
X150459D01*
X148326Y33071D02*
Y36270D01*
X146194Y33071D01*
Y36270D01*
X145127D02*
Y33071D01*
X143528D01*
X142995Y33604D01*
Y35737D01*
X143528Y36270D01*
X145127D01*
X326017Y33473D02*
X326550Y34006D01*
X327616D01*
X328150Y33473D01*
Y31340D01*
X327616Y30807D01*
X326550D01*
X326017Y31340D01*
Y32407D01*
X327083D01*
X324951Y30807D02*
Y34006D01*
X322818Y30807D01*
Y34006D01*
X321752D02*
Y30807D01*
X320152D01*
X319619Y31340D01*
Y33473D01*
X320152Y34006D01*
X321752D01*
X310781Y155702D02*
X310248Y156235D01*
Y157301D01*
X310781Y157835D01*
X312913D01*
X313447Y157301D01*
Y156235D01*
X312913Y155702D01*
X311847D01*
Y156768D01*
X313447Y154636D02*
X310248D01*
X313447Y152503D01*
X310248D01*
Y151437D02*
X313447D01*
Y149837D01*
X312913Y149304D01*
X310781D01*
X310248Y149837D01*
Y151437D01*
X356663Y185689D02*
X358796D01*
X359862Y184623D01*
X358796Y183556D01*
X356663D01*
X357196Y180357D02*
X356663Y180891D01*
Y181957D01*
X357196Y182490D01*
X359329D01*
X359862Y181957D01*
Y180891D01*
X359329Y180357D01*
X357196Y177158D02*
X356663Y177692D01*
Y178758D01*
X357196Y179291D01*
X359329D01*
X359862Y178758D01*
Y177692D01*
X359329Y177158D01*
X360395Y176092D02*
Y173959D01*
X356663Y172893D02*
Y170761D01*
Y171827D01*
X359862D01*
X356663Y169694D02*
Y167561D01*
Y168628D01*
X359862D01*
X357196Y164363D02*
X356663Y164896D01*
Y165962D01*
X357196Y166495D01*
X359329D01*
X359862Y165962D01*
Y164896D01*
X359329Y164363D01*
X303986Y339993D02*
Y341060D01*
Y340527D01*
X306652D01*
X307185Y341060D01*
Y341593D01*
X306652Y342126D01*
X303986Y338927D02*
Y336794D01*
Y337861D01*
X307185D01*
Y335728D02*
X305052D01*
X303986Y334662D01*
X305052Y333595D01*
X307185D01*
X305586D01*
Y335728D01*
X304519Y330396D02*
X303986Y330930D01*
Y331996D01*
X304519Y332529D01*
X306652D01*
X307185Y331996D01*
Y330930D01*
X306652Y330396D01*
X305586D01*
Y331463D01*
X246555Y320177D02*
Y323376D01*
X244956D01*
X244423Y322843D01*
Y321777D01*
X244956Y321244D01*
X246555D01*
X245489D02*
X244423Y320177D01*
X243356D02*
Y322310D01*
X242290Y323376D01*
X241224Y322310D01*
Y320177D01*
Y321777D01*
X243356D01*
X240157Y323376D02*
Y320177D01*
X238558D01*
X238024Y320710D01*
Y322843D01*
X238558Y323376D01*
X240157D01*
X236958D02*
X235892D01*
X236425D01*
Y320177D01*
X236958D01*
X235892D01*
X232693Y323376D02*
X233759D01*
X234292Y322843D01*
Y320710D01*
X233759Y320177D01*
X232693D01*
X232160Y320710D01*
Y322843D01*
X232693Y323376D01*
X231093Y320177D02*
X230027D01*
X230560D01*
Y323376D01*
X231093Y322843D01*
X108465Y345571D02*
X105266D01*
Y343971D01*
X105799Y343438D01*
X106865D01*
X107398Y343971D01*
Y345571D01*
Y344505D02*
X108465Y343438D01*
Y342372D02*
X106332D01*
X105266Y341306D01*
X106332Y340239D01*
X108465D01*
X106865D01*
Y342372D01*
X105266Y339173D02*
X108465D01*
Y337574D01*
X107931Y337040D01*
X105799D01*
X105266Y337574D01*
Y339173D01*
Y335974D02*
Y334908D01*
Y335441D01*
X108465D01*
Y335974D01*
Y334908D01*
X105266Y331709D02*
Y332775D01*
X105799Y333308D01*
X107931D01*
X108465Y332775D01*
Y331709D01*
X107931Y331175D01*
X105799D01*
X105266Y331709D01*
X105799Y330109D02*
X105266Y329576D01*
Y328510D01*
X105799Y327976D01*
X107931D01*
X108465Y328510D01*
Y329576D01*
X107931Y330109D01*
X105799D01*
X26230Y344980D02*
X28363D01*
X29429Y343914D01*
X28363Y342848D01*
X26230D01*
X26763Y339649D02*
X26230Y340182D01*
Y341248D01*
X26763Y341781D01*
X28896D01*
X29429Y341248D01*
Y340182D01*
X28896Y339649D01*
X26763Y336450D02*
X26230Y336983D01*
Y338049D01*
X26763Y338582D01*
X28896D01*
X29429Y338049D01*
Y336983D01*
X28896Y336450D01*
X29962Y335383D02*
Y333251D01*
X26230Y330052D02*
Y331118D01*
Y330585D01*
X28896D01*
X29429Y331118D01*
Y331651D01*
X28896Y332184D01*
X26230Y328986D02*
Y326853D01*
Y327919D01*
X29429D01*
Y325786D02*
X27297D01*
X26230Y324720D01*
X27297Y323654D01*
X29429D01*
X27830D01*
Y325786D01*
X26763Y320455D02*
X26230Y320988D01*
Y322054D01*
X26763Y322587D01*
X28896D01*
X29429Y322054D01*
Y320988D01*
X28896Y320455D01*
X27830D01*
Y321521D01*
X64321Y323425D02*
Y321293D01*
Y322359D01*
X67520D01*
X64854Y318094D02*
X64321Y318627D01*
Y319693D01*
X64854Y320226D01*
X66987D01*
X67520Y319693D01*
Y318627D01*
X66987Y318094D01*
X64321Y317027D02*
X67520D01*
X66453D01*
X64321Y314895D01*
X65920Y316494D01*
X67520Y314895D01*
X34892Y324213D02*
Y322080D01*
Y323146D01*
X38091D01*
X34892Y321014D02*
X38091D01*
Y319414D01*
X37557Y318881D01*
X35425D01*
X34892Y319414D01*
Y321014D01*
Y316215D02*
Y317282D01*
X35425Y317815D01*
X37557D01*
X38091Y317282D01*
Y316215D01*
X37557Y315682D01*
X35425D01*
X34892Y316215D01*
X38624Y314616D02*
Y312483D01*
X34892Y311417D02*
Y309284D01*
Y310350D01*
X38091D01*
X34892Y308218D02*
X38091D01*
Y306618D01*
X37557Y306085D01*
X35425D01*
X34892Y306618D01*
Y308218D01*
Y305019D02*
Y303953D01*
Y304486D01*
X38091D01*
Y305019D01*
Y303953D01*
X227854Y332727D02*
X225722D01*
X226788D01*
Y329528D01*
X224655Y332727D02*
Y329528D01*
X223056D01*
X222523Y330061D01*
Y332193D01*
X223056Y332727D01*
X224655D01*
X219857D02*
X220923D01*
X221456Y332193D01*
Y330061D01*
X220923Y329528D01*
X219857D01*
X219324Y330061D01*
Y332193D01*
X219857Y332727D01*
X218257Y328994D02*
X216125D01*
X215058Y332727D02*
X212926D01*
X213992D01*
Y329528D01*
X211859Y332727D02*
Y329528D01*
X210260D01*
X209727Y330061D01*
Y332193D01*
X210260Y332727D01*
X211859D01*
X208661D02*
X207594D01*
X208127D01*
Y329528D01*
X208661D01*
X207594D01*
X263041Y323721D02*
Y321588D01*
Y322654D01*
X266240D01*
X263574Y318389D02*
X263041Y318922D01*
Y319988D01*
X263574Y320521D01*
X265707D01*
X266240Y319988D01*
Y318922D01*
X265707Y318389D01*
X263041Y317322D02*
X266240D01*
X265174D01*
X263041Y315190D01*
X264641Y316789D01*
X266240Y315190D01*
X317618Y323967D02*
Y321834D01*
X316552Y320768D01*
X315486Y321834D01*
Y323967D01*
X312286Y323433D02*
X312820Y323967D01*
X313886D01*
X314419Y323433D01*
Y321301D01*
X313886Y320768D01*
X312820D01*
X312286Y321301D01*
X309087Y323433D02*
X309621Y323967D01*
X310687D01*
X311220Y323433D01*
Y321301D01*
X310687Y320768D01*
X309621D01*
X309087Y321301D01*
X319439Y342848D02*
Y343914D01*
Y343381D01*
X322105D01*
X322638Y343914D01*
Y344447D01*
X322105Y344980D01*
X319439Y341781D02*
X322105D01*
X322638Y341248D01*
Y340182D01*
X322105Y339649D01*
X319439D01*
X322638Y338582D02*
X319439D01*
X320505Y337516D01*
X319439Y336450D01*
X322638D01*
Y335383D02*
X319439D01*
Y333784D01*
X319972Y333251D01*
X321038D01*
X321571Y333784D01*
Y335383D01*
X319439Y330052D02*
Y332184D01*
X322638D01*
Y330052D01*
X321038Y332184D02*
Y331118D01*
X322638Y328986D02*
X319439D01*
Y327386D01*
X319972Y326853D01*
X321038D01*
X321571Y327386D01*
Y328986D01*
Y327919D02*
X322638Y326853D01*
X227854Y343455D02*
Y341322D01*
X226788Y340256D01*
X225722Y341322D01*
Y343455D01*
X222523Y342922D02*
X223056Y343455D01*
X224122D01*
X224655Y342922D01*
Y340789D01*
X224122Y340256D01*
X223056D01*
X222523Y340789D01*
X219324Y342922D02*
X219857Y343455D01*
X220923D01*
X221456Y342922D01*
Y340789D01*
X220923Y340256D01*
X219857D01*
X219324Y340789D01*
X218257Y339723D02*
X216125D01*
X212926Y343455D02*
X213992D01*
X213459D01*
Y340789D01*
X213992Y340256D01*
X214525D01*
X215058Y340789D01*
X211859Y343455D02*
X209727D01*
X210793D01*
Y340256D01*
X208661D02*
Y342389D01*
X207594Y343455D01*
X206528Y342389D01*
Y340256D01*
Y341855D01*
X208661D01*
X203329Y342922D02*
X203862Y343455D01*
X204928D01*
X205462Y342922D01*
Y340789D01*
X204928Y340256D01*
X203862D01*
X203329Y340789D01*
Y341855D01*
X204395D01*
X78576Y310933D02*
X79109Y311467D01*
X80176D01*
X80709Y310933D01*
Y308801D01*
X80176Y308268D01*
X79109D01*
X78576Y308801D01*
Y309867D01*
X79642D01*
X77510Y308268D02*
Y311467D01*
X75377Y308268D01*
Y311467D01*
X74311D02*
Y308268D01*
X72711D01*
X72178Y308801D01*
Y310933D01*
X72711Y311467D01*
X74311D01*
X89370Y308071D02*
Y311270D01*
X87771D01*
X87237Y310737D01*
Y309670D01*
X87771Y309137D01*
X89370D01*
X88304D02*
X87237Y308071D01*
X86171Y311270D02*
X84039Y308071D01*
Y311270D02*
X86171Y308071D01*
X100098Y311270D02*
X97966D01*
X99032D01*
Y308071D01*
X96899Y311270D02*
X94767Y308071D01*
Y311270D02*
X96899Y308071D01*
X276509Y310933D02*
X277042Y311467D01*
X278109D01*
X278642Y310933D01*
Y308801D01*
X278109Y308268D01*
X277042D01*
X276509Y308801D01*
Y309867D01*
X277575D01*
X275443Y308268D02*
Y311467D01*
X273310Y308268D01*
Y311467D01*
X272244D02*
Y308268D01*
X270644D01*
X270111Y308801D01*
Y310933D01*
X270644Y311467D01*
X272244D01*
X296260Y311368D02*
X294127D01*
X295194D01*
Y308169D01*
X293061Y311368D02*
X290928Y308169D01*
Y311368D02*
X293061Y308169D01*
X287106D02*
Y311368D01*
X285507D01*
X284974Y310835D01*
Y309769D01*
X285507Y309236D01*
X287106D01*
X286040D02*
X284974Y308169D01*
X283907Y311368D02*
X281775Y308169D01*
Y311368D02*
X283907Y308169D01*
X333989Y314419D02*
X336122D01*
Y311221D01*
X333989D01*
X336122Y312820D02*
X335056D01*
X332923Y311221D02*
Y313353D01*
X331857Y314419D01*
X330790Y313353D01*
Y311221D01*
Y312820D01*
X332923D01*
X329724Y311221D02*
Y314419D01*
X328125D01*
X327591Y313886D01*
Y312820D01*
X328125Y312287D01*
X329724D01*
X328658D02*
X327591Y311221D01*
X326525Y314419D02*
X324393D01*
X325459D01*
Y311221D01*
X323326Y314419D02*
Y311221D01*
Y312820D01*
X321194D01*
Y314419D01*
Y311221D01*
X320127D02*
X317995Y313353D01*
X314796Y313886D02*
X315329Y314419D01*
X316395D01*
X316928Y313886D01*
Y311754D01*
X316395Y311221D01*
X315329D01*
X314796Y311754D01*
Y312820D01*
X315862D01*
X313729Y311221D02*
Y314419D01*
X311597Y311221D01*
Y314419D01*
X310530D02*
Y311221D01*
X308931D01*
X308398Y311754D01*
Y313886D01*
X308931Y314419D01*
X310530D01*
X336844Y309498D02*
X338976D01*
Y306299D01*
X336844D01*
X338976Y307899D02*
X337910D01*
X333645Y308965D02*
X334178Y309498D01*
X335244D01*
X335777Y308965D01*
Y308432D01*
X335244Y307899D01*
X334178D01*
X333645Y307365D01*
Y306832D01*
X334178Y306299D01*
X335244D01*
X335777Y306832D01*
X332578Y309498D02*
Y306299D01*
X330979D01*
X330446Y306832D01*
Y308965D01*
X330979Y309498D01*
X332578D01*
X326181D02*
X325114D01*
X325647D01*
Y306299D01*
X326181D01*
X325114D01*
X323515D02*
Y309498D01*
X321382Y306299D01*
Y309498D01*
X320316D02*
X318183D01*
X319249D01*
Y306299D01*
X314984Y309498D02*
X317117D01*
Y306299D01*
X314984D01*
X317117Y307899D02*
X316050D01*
X313918Y306299D02*
Y309498D01*
X312318D01*
X311785Y308965D01*
Y307899D01*
X312318Y307365D01*
X313918D01*
X312852D02*
X311785Y306299D01*
X308586Y309498D02*
X310719D01*
Y307899D01*
X309652D01*
X310719D01*
Y306299D01*
X307520D02*
Y308432D01*
X306453Y309498D01*
X305387Y308432D01*
Y306299D01*
Y307899D01*
X307520D01*
X302188Y308965D02*
X302721Y309498D01*
X303788D01*
X304321Y308965D01*
Y306832D01*
X303788Y306299D01*
X302721D01*
X302188Y306832D01*
X298989Y309498D02*
X301122D01*
Y306299D01*
X298989D01*
X301122Y307899D02*
X300056D01*
X43799Y129528D02*
Y132727D01*
X42733Y131660D01*
X41667Y132727D01*
Y129528D01*
X38468Y132193D02*
X39001Y132727D01*
X40067D01*
X40600Y132193D01*
Y130061D01*
X40067Y129528D01*
X39001D01*
X38468Y130061D01*
X37401Y132727D02*
X35269Y129528D01*
Y132727D02*
X37401Y129528D01*
X34202Y128994D02*
X32070D01*
X31003Y129528D02*
Y132727D01*
X29404D01*
X28871Y132193D01*
Y131127D01*
X29404Y130594D01*
X31003D01*
X29937D02*
X28871Y129528D01*
X27804D02*
Y131660D01*
X26738Y132727D01*
X25672Y131660D01*
Y129528D01*
Y131127D01*
X27804D01*
X24605Y132193D02*
X24072Y132727D01*
X23006D01*
X22473Y132193D01*
Y130061D01*
X23006Y129528D01*
X24072D01*
X24605Y130061D01*
Y132193D01*
X190453Y129528D02*
Y132727D01*
X189386Y131660D01*
X188320Y132727D01*
Y129528D01*
X185121Y132193D02*
X185654Y132727D01*
X186721D01*
X187254Y132193D01*
Y130061D01*
X186721Y129528D01*
X185654D01*
X185121Y130061D01*
X184055Y132727D02*
X181922Y129528D01*
Y132727D02*
X184055Y129528D01*
X180856Y128994D02*
X178723D01*
X177657Y129528D02*
Y132727D01*
X176057D01*
X175524Y132193D01*
Y131127D01*
X176057Y130594D01*
X177657D01*
X176591D02*
X175524Y129528D01*
X174458D02*
Y131660D01*
X173392Y132727D01*
X172325Y131660D01*
Y129528D01*
Y131127D01*
X174458D01*
X171259Y129528D02*
X170193D01*
X170726D01*
Y132727D01*
X171259Y132193D01*
X313779Y201673D02*
X311647D01*
X310581Y200607D01*
X311647Y199541D01*
X313779D01*
X312180D01*
Y201673D01*
X310581Y198474D02*
X313779D01*
Y196875D01*
X313246Y196342D01*
X311114D01*
X310581Y196875D01*
Y198474D01*
Y195275D02*
X313779D01*
Y193676D01*
X313246Y193143D01*
X311114D01*
X310581Y193676D01*
Y195275D01*
X314313Y192076D02*
Y189944D01*
X311114Y186745D02*
X310581Y187278D01*
Y188344D01*
X311114Y188877D01*
X313246D01*
X313779Y188344D01*
Y187278D01*
X313246Y186745D01*
X312180D01*
Y187811D01*
X313779Y185678D02*
X310581D01*
Y184079D01*
X311114Y183546D01*
X312180D01*
X312713Y184079D01*
Y185678D01*
X310581Y182479D02*
Y181413D01*
Y181946D01*
X313779D01*
Y182479D01*
Y181413D01*
X310581Y178214D02*
Y179280D01*
X311114Y179814D01*
X313246D01*
X313779Y179280D01*
Y178214D01*
X313246Y177681D01*
X311114D01*
X310581Y178214D01*
X313779Y175015D02*
X310581D01*
X312180Y176615D01*
Y174482D01*
X312894Y278839D02*
Y282038D01*
X311294D01*
X310761Y281504D01*
Y280438D01*
X311294Y279905D01*
X312894D01*
X311827D02*
X310761Y278839D01*
X309695D02*
Y280971D01*
X308628Y282038D01*
X307562Y280971D01*
Y278839D01*
Y280438D01*
X309695D01*
X306496Y278839D02*
X305429D01*
X305963D01*
Y282038D01*
X306496Y281504D01*
X303830Y278305D02*
X301697D01*
X298498Y282038D02*
X300631D01*
Y278839D01*
X298498D01*
X300631Y280438D02*
X299565D01*
X297432Y278839D02*
Y282038D01*
X295832D01*
X295299Y281504D01*
Y280438D01*
X295832Y279905D01*
X297432D01*
X292100Y281504D02*
X292634Y282038D01*
X293700D01*
X294233Y281504D01*
Y280971D01*
X293700Y280438D01*
X292634D01*
X292100Y279905D01*
Y279372D01*
X292634Y278839D01*
X293700D01*
X294233Y279372D01*
X291034Y278305D02*
X288901D01*
X287835Y282038D02*
Y279372D01*
X287302Y278839D01*
X286236D01*
X285702Y279372D01*
Y282038D01*
X284636Y278839D02*
Y280971D01*
X283570Y282038D01*
X282504Y280971D01*
Y278839D01*
Y280438D01*
X284636D01*
X281437Y278839D02*
Y282038D01*
X279838D01*
X279305Y281504D01*
Y280438D01*
X279838Y279905D01*
X281437D01*
X280371D02*
X279305Y278839D01*
X278238Y282038D02*
X276106D01*
X277172D01*
Y278839D01*
X313779Y137008D02*
X310581D01*
Y135408D01*
X311114Y134875D01*
X312180D01*
X312713Y135408D01*
Y137008D01*
Y135942D02*
X313779Y134875D01*
Y133809D02*
X311647D01*
X310581Y132743D01*
X311647Y131676D01*
X313779D01*
X312180D01*
Y133809D01*
X311114Y130610D02*
X310581Y130077D01*
Y129010D01*
X311114Y128477D01*
X313246D01*
X313779Y129010D01*
Y130077D01*
X313246Y130610D01*
X311114D01*
X314313Y127411D02*
Y125278D01*
X310581Y122613D02*
Y123679D01*
X311114Y124212D01*
X313246D01*
X313779Y123679D01*
Y122613D01*
X313246Y122079D01*
X311114D01*
X310581Y122613D01*
Y121013D02*
X313779D01*
Y119413D01*
X313246Y118880D01*
X312713D01*
X312180Y119413D01*
Y121013D01*
Y119413D01*
X311647Y118880D01*
X311114D01*
X310581Y119413D01*
Y121013D01*
Y117814D02*
X313779D01*
Y116215D01*
X313246Y115681D01*
X311114D01*
X310581Y116215D01*
Y117814D01*
Y114615D02*
X313779D01*
X312180D01*
Y112482D01*
X310581D01*
X313779D01*
X314313Y111416D02*
Y109283D01*
X311114Y106085D02*
X310581Y106618D01*
Y107684D01*
X311114Y108217D01*
X311647D01*
X312180Y107684D01*
Y106618D01*
X312713Y106085D01*
X313246D01*
X313779Y106618D01*
Y107684D01*
X313246Y108217D01*
X313779Y105018D02*
X310581D01*
Y103419D01*
X311114Y102885D01*
X312180D01*
X312713Y103419D01*
Y105018D01*
X310581Y101819D02*
Y100753D01*
Y101286D01*
X313779D01*
Y101819D01*
Y100753D01*
X313681Y60778D02*
Y58645D01*
X312615Y57579D01*
X311548Y58645D01*
Y60778D01*
X308349Y60245D02*
X308883Y60778D01*
X309949D01*
X310482Y60245D01*
Y58112D01*
X309949Y57579D01*
X308883D01*
X308349Y58112D01*
X305151Y60245D02*
X305684Y60778D01*
X306750D01*
X307283Y60245D01*
Y58112D01*
X306750Y57579D01*
X305684D01*
X305151Y58112D01*
X304084Y57046D02*
X301952D01*
X300885Y57579D02*
Y60778D01*
X299286D01*
X298753Y60245D01*
Y59178D01*
X299286Y58645D01*
X300885D01*
X299819D02*
X298753Y57579D01*
X297686D02*
Y59711D01*
X296620Y60778D01*
X295554Y59711D01*
Y57579D01*
Y59178D01*
X297686D01*
X294487Y60245D02*
X293954Y60778D01*
X292888D01*
X292355Y60245D01*
Y58112D01*
X292888Y57579D01*
X293954D01*
X294487Y58112D01*
Y60245D01*
X313681Y50738D02*
Y48606D01*
X312615Y47539D01*
X311548Y48606D01*
Y50738D01*
X308349Y50205D02*
X308883Y50738D01*
X309949D01*
X310482Y50205D01*
Y48072D01*
X309949Y47539D01*
X308883D01*
X308349Y48072D01*
X305151Y50205D02*
X305684Y50738D01*
X306750D01*
X307283Y50205D01*
Y48072D01*
X306750Y47539D01*
X305684D01*
X305151Y48072D01*
X304084Y47006D02*
X301952D01*
X300885Y47539D02*
Y50738D01*
X299286D01*
X298753Y50205D01*
Y49139D01*
X299286Y48606D01*
X300885D01*
X299819D02*
X298753Y47539D01*
X297686D02*
Y49672D01*
X296620Y50738D01*
X295554Y49672D01*
Y47539D01*
Y49139D01*
X297686D01*
X294487Y47539D02*
X293421D01*
X293954D01*
Y50738D01*
X294487Y50205D01*
X357730Y155702D02*
X357196Y156235D01*
Y157301D01*
X357730Y157835D01*
X359862D01*
X360395Y157301D01*
Y156235D01*
X359862Y155702D01*
X358796D01*
Y156768D01*
X360395Y154636D02*
X357196D01*
X360395Y152503D01*
X357196D01*
Y151437D02*
X360395D01*
Y149837D01*
X359862Y149304D01*
X357730D01*
X357196Y149837D01*
Y151437D01*
X356663Y139626D02*
X358796D01*
X359862Y138560D01*
X358796Y137493D01*
X356663D01*
X357196Y134294D02*
X356663Y134827D01*
Y135894D01*
X357196Y136427D01*
X359329D01*
X359862Y135894D01*
Y134827D01*
X359329Y134294D01*
X357196Y131095D02*
X356663Y131629D01*
Y132695D01*
X357196Y133228D01*
X359329D01*
X359862Y132695D01*
Y131629D01*
X359329Y131095D01*
X360395Y130029D02*
Y127896D01*
X359862Y126830D02*
X357730D01*
X356663Y125764D01*
X357730Y124697D01*
X359862D01*
X358263D01*
Y126830D01*
X359862Y123631D02*
X356663D01*
X359862Y121499D01*
X356663D01*
Y120432D02*
Y118299D01*
Y119366D01*
X359862D01*
Y261221D02*
X356663D01*
Y259621D01*
X357196Y259088D01*
X358263D01*
X358796Y259621D01*
Y261221D01*
Y260154D02*
X359862Y259088D01*
Y258021D02*
X357730D01*
X356663Y256955D01*
X357730Y255889D01*
X359862D01*
X358263D01*
Y258021D01*
X359862Y254822D02*
Y253756D01*
Y254289D01*
X356663D01*
X357196Y254822D01*
X360395Y252157D02*
Y250024D01*
X356663Y247358D02*
Y248425D01*
X357196Y248958D01*
X359329D01*
X359862Y248425D01*
Y247358D01*
X359329Y246825D01*
X357196D01*
X356663Y247358D01*
Y245759D02*
X359862D01*
Y244159D01*
X359329Y243626D01*
X358796D01*
X358263Y244159D01*
Y245759D01*
Y244159D01*
X357730Y243626D01*
X357196D01*
X356663Y244159D01*
Y245759D01*
Y242560D02*
X359862D01*
Y240960D01*
X359329Y240427D01*
X357196D01*
X356663Y240960D01*
Y242560D01*
Y239361D02*
X359862D01*
X358263D01*
Y237228D01*
X356663D01*
X359862D01*
X360395Y236162D02*
Y234029D01*
X357196Y230830D02*
X356663Y231363D01*
Y232430D01*
X357196Y232963D01*
X357730D01*
X358263Y232430D01*
Y231363D01*
X358796Y230830D01*
X359329D01*
X359862Y231363D01*
Y232430D01*
X359329Y232963D01*
X359862Y229764D02*
X356663D01*
Y228165D01*
X357196Y227631D01*
X358263D01*
X358796Y228165D01*
Y229764D01*
X356663Y226565D02*
Y225499D01*
Y226032D01*
X359862D01*
Y226565D01*
Y225499D01*
X313779Y261811D02*
X310581D01*
Y260211D01*
X311114Y259678D01*
X312180D01*
X312713Y260211D01*
Y261811D01*
Y260745D02*
X313779Y259678D01*
Y258612D02*
X311647D01*
X310581Y257546D01*
X311647Y256479D01*
X313779D01*
X312180D01*
Y258612D01*
X310581Y255413D02*
X313779D01*
Y253814D01*
X313246Y253280D01*
X311114D01*
X310581Y253814D01*
Y255413D01*
Y252214D02*
Y251148D01*
Y251681D01*
X313779D01*
Y252214D01*
Y251148D01*
X310581Y247949D02*
Y249015D01*
X311114Y249548D01*
X313246D01*
X313779Y249015D01*
Y247949D01*
X313246Y247416D01*
X311114D01*
X310581Y247949D01*
X311114Y244217D02*
X310581Y244750D01*
Y245816D01*
X311114Y246349D01*
X311647D01*
X312180Y245816D01*
Y244750D01*
X312713Y244217D01*
X313246D01*
X313779Y244750D01*
Y245816D01*
X313246Y246349D01*
X314313Y243150D02*
Y241018D01*
X310581Y237819D02*
Y239951D01*
X313779D01*
Y237819D01*
X312180Y239951D02*
Y238885D01*
X313779Y236752D02*
X310581D01*
X313779Y234620D01*
X310581D01*
X359862Y113583D02*
X357730D01*
X356663Y112516D01*
X357730Y111450D01*
X359862D01*
X358263D01*
Y113583D01*
X356663Y110384D02*
X359862D01*
Y108784D01*
X359329Y108251D01*
X357196D01*
X356663Y108784D01*
Y110384D01*
Y107185D02*
X359862D01*
Y105585D01*
X359329Y105052D01*
X357196D01*
X356663Y105585D01*
Y107185D01*
X360395Y103986D02*
Y101853D01*
X357196Y98654D02*
X356663Y99187D01*
Y100254D01*
X357196Y100787D01*
X359329D01*
X359862Y100254D01*
Y99187D01*
X359329Y98654D01*
X358263D01*
Y99721D01*
X359862Y97588D02*
X356663D01*
Y95988D01*
X357196Y95455D01*
X358263D01*
X358796Y95988D01*
Y97588D01*
X356663Y94389D02*
Y93322D01*
Y93856D01*
X359862D01*
Y94389D01*
Y93322D01*
X356663Y90124D02*
Y91190D01*
X357196Y91723D01*
X359329D01*
X359862Y91190D01*
Y90124D01*
X359329Y89590D01*
X357196D01*
X356663Y90124D01*
X357196Y88524D02*
X356663Y87991D01*
Y86925D01*
X357196Y86391D01*
X357730D01*
X358263Y86925D01*
Y87458D01*
Y86925D01*
X358796Y86391D01*
X359329D01*
X359862Y86925D01*
Y87991D01*
X359329Y88524D01*
X313779Y230413D02*
X311647D01*
X310581Y229347D01*
X311647Y228281D01*
X313779D01*
X312180D01*
Y230413D01*
X310581Y227214D02*
X313779D01*
Y225615D01*
X313246Y225082D01*
X311114D01*
X310581Y225615D01*
Y227214D01*
Y224015D02*
X313779D01*
Y222416D01*
X313246Y221883D01*
X311114D01*
X310581Y222416D01*
Y224015D01*
X314313Y220816D02*
Y218684D01*
X310581Y217618D02*
X313246D01*
X313779Y217084D01*
Y216018D01*
X313246Y215485D01*
X310581D01*
X313779Y214419D02*
X311647D01*
X310581Y213352D01*
X311647Y212286D01*
X313779D01*
X312180D01*
Y214419D01*
X313779Y211220D02*
X310581D01*
Y209620D01*
X311114Y209087D01*
X312180D01*
X312713Y209620D01*
Y211220D01*
Y210153D02*
X313779Y209087D01*
X310581Y208021D02*
Y205888D01*
Y206954D01*
X313779D01*
X359862Y220433D02*
X357730D01*
X356663Y219367D01*
X357730Y218300D01*
X359862D01*
X358263D01*
Y220433D01*
X356663Y217234D02*
X359862D01*
Y215635D01*
X359329Y215102D01*
X357196D01*
X356663Y215635D01*
Y217234D01*
Y214035D02*
X359862D01*
Y212436D01*
X359329Y211902D01*
X357196D01*
X356663Y212436D01*
Y214035D01*
X360395Y210836D02*
Y208703D01*
X357196Y205505D02*
X356663Y206038D01*
Y207104D01*
X357196Y207637D01*
X359329D01*
X359862Y207104D01*
Y206038D01*
X359329Y205505D01*
X358263D01*
Y206571D01*
X359862Y204438D02*
X356663D01*
Y202839D01*
X357196Y202306D01*
X358263D01*
X358796Y202839D01*
Y204438D01*
X356663Y201239D02*
Y200173D01*
Y200706D01*
X359862D01*
Y201239D01*
Y200173D01*
X356663Y196974D02*
Y198040D01*
X357196Y198574D01*
X359329D01*
X359862Y198040D01*
Y196974D01*
X359329Y196441D01*
X357196D01*
X356663Y196974D01*
X359862Y293110D02*
X357730D01*
X356663Y292044D01*
X357730Y290978D01*
X359862D01*
X358263D01*
Y293110D01*
X356663Y289911D02*
X359862D01*
Y288312D01*
X359329Y287779D01*
X357196D01*
X356663Y288312D01*
Y289911D01*
Y286712D02*
X359862D01*
Y285113D01*
X359329Y284580D01*
X357196D01*
X356663Y285113D01*
Y286712D01*
X360395Y283513D02*
Y281381D01*
X357196Y278182D02*
X356663Y278715D01*
Y279781D01*
X357196Y280314D01*
X359329D01*
X359862Y279781D01*
Y278715D01*
X359329Y278182D01*
X358263D01*
Y279248D01*
X359862Y277115D02*
X356663D01*
Y275516D01*
X357196Y274983D01*
X358263D01*
X358796Y275516D01*
Y277115D01*
X356663Y273916D02*
Y272850D01*
Y273383D01*
X359862D01*
Y273916D01*
Y272850D01*
X356663Y269651D02*
Y270718D01*
X357196Y271251D01*
X359329D01*
X359862Y270718D01*
Y269651D01*
X359329Y269118D01*
X357196D01*
X356663Y269651D01*
Y265919D02*
Y268052D01*
X358263D01*
X357730Y266985D01*
Y266452D01*
X358263Y265919D01*
X359329D01*
X359862Y266452D01*
Y267518D01*
X359329Y268052D01*
X62598Y14848D02*
X60466D01*
X61532Y15914D02*
Y13781D01*
X59399Y16447D02*
X57267Y13248D01*
Y16447D02*
X59399Y13248D01*
X41339Y10221D02*
X39206D01*
X38140Y11821D02*
X36007D01*
Y11288D01*
X38140Y9155D01*
Y8622D01*
X36007D01*
X47638Y29611D02*
X45505D01*
X46571Y30678D02*
Y28545D01*
X44439Y31211D02*
Y30678D01*
X43372Y29611D01*
X42306Y30678D01*
Y31211D01*
X43372Y29611D02*
Y28012D01*
D19*
X301575Y263976D02*
D03*
Y243110D02*
D03*
Y233760D02*
D03*
Y252461D02*
D03*
Y224409D02*
D03*
X127890Y311220D02*
D03*
X186650Y310039D02*
D03*
X161516Y277658D02*
D03*
Y286221D02*
D03*
X24114Y241732D02*
D03*
X56693Y241732D02*
D03*
X24114Y257677D02*
D03*
X41338Y282284D02*
D03*
X24114Y267126D02*
D03*
X41338Y290551D02*
D03*
X24114Y276673D02*
D03*
X170276Y242913D02*
D03*
X203740Y242914D02*
D03*
X24114Y204623D02*
D03*
X41401Y204624D02*
D03*
X24114Y214173D02*
D03*
X41401Y223718D02*
D03*
X24114Y223718D02*
D03*
X145965Y311220D02*
D03*
X205020Y310039D02*
D03*
X103232Y231693D02*
D03*
D20*
X124114Y179823D02*
D03*
X281238Y185335D02*
D03*
D21*
X167421Y260138D02*
D03*
X158154Y260138D02*
D03*
X106595Y208956D02*
D03*
X272933Y208957D02*
D03*
D113*
X283832Y212055D02*
Y212859D01*
Y199659D02*
X297032D01*
X283832D02*
Y200462D01*
Y212859D02*
X297032D01*
Y212055D02*
Y212859D01*
Y199659D02*
Y200462D01*
X148612Y299021D02*
X149415D01*
X136215Y285821D02*
Y299021D01*
X137018D01*
X149415Y285821D02*
Y299021D01*
X148612Y285821D02*
X149415D01*
X136215D02*
X137018D01*
X117514Y211899D02*
Y212702D01*
Y199502D02*
X130714D01*
X117514D02*
Y200305D01*
Y212702D02*
X130714D01*
Y211899D02*
Y212702D01*
Y199502D02*
Y200305D01*
X207569Y297840D02*
X208372D01*
X195172Y284640D02*
Y297840D01*
X195975D01*
X208372Y284640D02*
Y297840D01*
X207569Y284640D02*
X208372D01*
X195172D02*
X195975D01*
D114*
X257382Y213386D02*
D03*
X188780Y265256D02*
D03*
X182284Y271555D02*
D03*
M02*
