G04*
G04 #@! TF.GenerationSoftware,Altium Limited,Altium Designer,18.1.7 (191)*
G04*
G04 Layer_Color=32896*
%FSLAX25Y25*%
%MOIN*%
G70*
G01*
G75*
%ADD11C,0.01000*%
%ADD12C,0.00984*%
%ADD14C,0.00787*%
%ADD16C,0.00394*%
%ADD18C,0.00700*%
%ADD19R,0.02000X0.06000*%
G04:AMPARAMS|DCode=20|XSize=20mil|YSize=60mil|CornerRadius=0mil|HoleSize=0mil|Usage=FLASHONLY|Rotation=135.000|XOffset=0mil|YOffset=0mil|HoleType=Round|Shape=Rectangle|*
%AMROTATEDRECTD20*
4,1,4,0.02828,0.01414,-0.01414,-0.02828,-0.02828,-0.01414,0.01414,0.02828,0.02828,0.01414,0.0*
%
%ADD20ROTATEDRECTD20*%

%ADD21R,0.06000X0.02000*%
%ADD113C,0.00600*%
G04:AMPARAMS|DCode=114|XSize=20mil|YSize=60mil|CornerRadius=0mil|HoleSize=0mil|Usage=FLASHONLY|Rotation=225.000|XOffset=0mil|YOffset=0mil|HoleType=Round|Shape=Rectangle|*
%AMROTATEDRECTD114*
4,1,4,-0.01414,0.02828,0.02828,-0.01414,0.01414,-0.02828,-0.02828,0.01414,-0.01414,0.02828,0.0*
%
%ADD114ROTATEDRECTD114*%

G36*
X53248Y16791D02*
X55216Y14823D01*
X53248Y12854D01*
Y16791D01*
D02*
G37*
G36*
X43307Y22795D02*
X45276Y24764D01*
X47244Y22795D01*
X43307D01*
D02*
G37*
G36*
X675304Y-120288D02*
X675404Y-120307D01*
X675523Y-120343D01*
X675650Y-120389D01*
X675796Y-120452D01*
X675951Y-120534D01*
X675668Y-121245D01*
X675659Y-121236D01*
X675623Y-121218D01*
X675568Y-121190D01*
X675495Y-121163D01*
X675413Y-121136D01*
X675313Y-121108D01*
X675213Y-121090D01*
X675113Y-121081D01*
X675067D01*
X675022Y-121090D01*
X674958Y-121099D01*
X674894Y-121117D01*
X674812Y-121145D01*
X674730Y-121181D01*
X674657Y-121236D01*
X674648Y-121245D01*
X674621Y-121263D01*
X674593Y-121300D01*
X674548Y-121345D01*
X674502Y-121409D01*
X674457Y-121482D01*
X674411Y-121564D01*
X674375Y-121664D01*
X674366Y-121682D01*
X674357Y-121737D01*
X674338Y-121819D01*
X674311Y-121928D01*
X674284Y-122065D01*
X674265Y-122220D01*
X674256Y-122384D01*
X674247Y-122566D01*
Y-124953D01*
X673473D01*
Y-120379D01*
X674174D01*
Y-121072D01*
X674183Y-121063D01*
X674220Y-120999D01*
X674265Y-120917D01*
X674338Y-120817D01*
X674411Y-120717D01*
X674493Y-120607D01*
X674575Y-120516D01*
X674657Y-120443D01*
X674666Y-120434D01*
X674693Y-120416D01*
X674748Y-120389D01*
X674803Y-120361D01*
X674876Y-120334D01*
X674967Y-120307D01*
X675058Y-120288D01*
X675158Y-120279D01*
X675222D01*
X675304Y-120288D01*
D02*
G37*
G36*
X652420D02*
X652483D01*
X652547Y-120298D01*
X652702Y-120325D01*
X652866Y-120370D01*
X653039Y-120443D01*
X653212Y-120534D01*
X653358Y-120662D01*
X653376Y-120680D01*
X653413Y-120735D01*
X653476Y-120817D01*
X653504Y-120881D01*
X653540Y-120944D01*
X653577Y-121026D01*
X653604Y-121108D01*
X653640Y-121200D01*
X653668Y-121309D01*
X653686Y-121418D01*
X653704Y-121546D01*
X653722Y-121673D01*
Y-121819D01*
Y-124953D01*
X652948D01*
Y-122083D01*
Y-122074D01*
Y-122065D01*
Y-122010D01*
Y-121928D01*
X652939Y-121828D01*
X652930Y-121719D01*
X652921Y-121609D01*
X652902Y-121500D01*
X652875Y-121418D01*
Y-121409D01*
X652857Y-121382D01*
X652839Y-121345D01*
X652811Y-121300D01*
X652775Y-121245D01*
X652729Y-121190D01*
X652675Y-121136D01*
X652602Y-121081D01*
X652593Y-121072D01*
X652565Y-121063D01*
X652529Y-121045D01*
X652465Y-121017D01*
X652401Y-120990D01*
X652319Y-120972D01*
X652237Y-120963D01*
X652137Y-120954D01*
X652092D01*
X652055Y-120963D01*
X651964Y-120972D01*
X651855Y-120990D01*
X651727Y-121036D01*
X651591Y-121090D01*
X651454Y-121172D01*
X651326Y-121281D01*
X651317Y-121300D01*
X651281Y-121345D01*
X651226Y-121418D01*
X651171Y-121527D01*
X651108Y-121673D01*
X651062Y-121846D01*
X651026Y-122056D01*
X651008Y-122302D01*
Y-124953D01*
X650233D01*
Y-121992D01*
Y-121983D01*
Y-121965D01*
Y-121947D01*
Y-121910D01*
X650224Y-121810D01*
X650206Y-121701D01*
X650188Y-121573D01*
X650151Y-121445D01*
X650106Y-121327D01*
X650042Y-121218D01*
X650033Y-121209D01*
X650005Y-121172D01*
X649960Y-121136D01*
X649896Y-121081D01*
X649814Y-121036D01*
X649705Y-120990D01*
X649577Y-120963D01*
X649422Y-120954D01*
X649368D01*
X649304Y-120963D01*
X649231Y-120972D01*
X649140Y-120999D01*
X649031Y-121026D01*
X648931Y-121072D01*
X648821Y-121127D01*
X648812Y-121136D01*
X648776Y-121163D01*
X648730Y-121200D01*
X648666Y-121254D01*
X648602Y-121327D01*
X648539Y-121418D01*
X648475Y-121518D01*
X648420Y-121637D01*
X648411Y-121655D01*
X648402Y-121701D01*
X648384Y-121773D01*
X648356Y-121874D01*
X648329Y-122010D01*
X648311Y-122174D01*
X648302Y-122365D01*
X648293Y-122584D01*
Y-124953D01*
X647518D01*
Y-120379D01*
X648211D01*
Y-121036D01*
X648220Y-121017D01*
X648247Y-120981D01*
X648302Y-120917D01*
X648366Y-120844D01*
X648448Y-120753D01*
X648548Y-120662D01*
X648657Y-120571D01*
X648785Y-120489D01*
X648803Y-120480D01*
X648848Y-120452D01*
X648921Y-120425D01*
X649022Y-120379D01*
X649140Y-120343D01*
X649277Y-120316D01*
X649432Y-120288D01*
X649595Y-120279D01*
X649678D01*
X649778Y-120288D01*
X649887Y-120307D01*
X650024Y-120334D01*
X650160Y-120370D01*
X650297Y-120425D01*
X650424Y-120498D01*
X650443Y-120507D01*
X650479Y-120534D01*
X650534Y-120580D01*
X650607Y-120653D01*
X650680Y-120735D01*
X650762Y-120835D01*
X650835Y-120954D01*
X650889Y-121090D01*
X650898Y-121081D01*
X650916Y-121054D01*
X650944Y-121017D01*
X650989Y-120963D01*
X651044Y-120899D01*
X651108Y-120835D01*
X651181Y-120762D01*
X651272Y-120680D01*
X651372Y-120607D01*
X651472Y-120534D01*
X651591Y-120471D01*
X651718Y-120407D01*
X651855Y-120352D01*
X652001Y-120316D01*
X652146Y-120288D01*
X652310Y-120279D01*
X652374D01*
X652420Y-120288D01*
D02*
G37*
G36*
X666148Y-124953D02*
X665411D01*
X663689Y-120379D01*
X664509D01*
X665492Y-123122D01*
Y-123131D01*
X665502Y-123140D01*
X665511Y-123167D01*
X665520Y-123195D01*
X665547Y-123286D01*
X665584Y-123404D01*
X665629Y-123541D01*
X665684Y-123696D01*
X665729Y-123869D01*
X665784Y-124042D01*
X665793Y-124024D01*
X665802Y-123978D01*
X665830Y-123905D01*
X665857Y-123796D01*
X665902Y-123677D01*
X665948Y-123522D01*
X666012Y-123359D01*
X666076Y-123176D01*
X667087Y-120379D01*
X667888D01*
X666148Y-124953D01*
D02*
G37*
G36*
X685279Y-125026D02*
Y-125035D01*
X685270Y-125062D01*
X685252Y-125099D01*
X685234Y-125144D01*
X685207Y-125208D01*
X685179Y-125281D01*
X685115Y-125436D01*
X685052Y-125609D01*
X684979Y-125782D01*
X684906Y-125937D01*
X684869Y-126000D01*
X684842Y-126064D01*
X684833Y-126082D01*
X684806Y-126128D01*
X684760Y-126192D01*
X684705Y-126274D01*
X684632Y-126365D01*
X684551Y-126456D01*
X684469Y-126547D01*
X684368Y-126620D01*
X684359Y-126629D01*
X684323Y-126647D01*
X684268Y-126675D01*
X684186Y-126711D01*
X684095Y-126747D01*
X683986Y-126775D01*
X683867Y-126793D01*
X683731Y-126802D01*
X683694D01*
X683649Y-126793D01*
X683585D01*
X683512Y-126775D01*
X683430Y-126757D01*
X683339Y-126738D01*
X683239Y-126702D01*
X683157Y-125982D01*
X683166D01*
X683202Y-125991D01*
X683248Y-126000D01*
X683302Y-126019D01*
X683448Y-126046D01*
X683594Y-126055D01*
X683640D01*
X683685Y-126046D01*
X683740D01*
X683876Y-126019D01*
X683940Y-125991D01*
X684004Y-125964D01*
X684013D01*
X684031Y-125946D01*
X684059Y-125927D01*
X684095Y-125900D01*
X684177Y-125827D01*
X684250Y-125727D01*
Y-125718D01*
X684268Y-125700D01*
X684286Y-125663D01*
X684305Y-125609D01*
X684341Y-125536D01*
X684377Y-125426D01*
X684432Y-125299D01*
X684487Y-125144D01*
Y-125135D01*
X684505Y-125099D01*
X684523Y-125035D01*
X684560Y-124953D01*
X682829Y-120379D01*
X683649D01*
X684605Y-123031D01*
Y-123040D01*
X684614Y-123049D01*
X684623Y-123076D01*
X684632Y-123122D01*
X684651Y-123167D01*
X684669Y-123222D01*
X684715Y-123349D01*
X684769Y-123504D01*
X684824Y-123687D01*
X684878Y-123878D01*
X684933Y-124087D01*
Y-124078D01*
X684942Y-124060D01*
X684951Y-124033D01*
X684961Y-123996D01*
X684970Y-123951D01*
X684988Y-123896D01*
X685024Y-123759D01*
X685070Y-123605D01*
X685134Y-123422D01*
X685188Y-123240D01*
X685261Y-123049D01*
X686245Y-120379D01*
X687019D01*
X685279Y-125026D01*
D02*
G37*
G36*
X680506Y-120288D02*
X680642Y-120298D01*
X680797Y-120316D01*
X680952Y-120343D01*
X681107Y-120379D01*
X681253Y-120425D01*
X681271Y-120434D01*
X681317Y-120452D01*
X681380Y-120480D01*
X681462Y-120516D01*
X681553Y-120571D01*
X681644Y-120625D01*
X681727Y-120698D01*
X681799Y-120771D01*
X681808Y-120780D01*
X681827Y-120808D01*
X681854Y-120853D01*
X681890Y-120908D01*
X681936Y-120990D01*
X681972Y-121072D01*
X682009Y-121172D01*
X682036Y-121291D01*
Y-121300D01*
X682045Y-121327D01*
X682054Y-121382D01*
X682063Y-121455D01*
Y-121555D01*
X682073Y-121673D01*
X682082Y-121828D01*
Y-122001D01*
Y-123040D01*
Y-123049D01*
Y-123085D01*
Y-123140D01*
Y-123213D01*
Y-123295D01*
Y-123395D01*
X682091Y-123614D01*
Y-123841D01*
X682100Y-124069D01*
X682109Y-124169D01*
Y-124260D01*
X682118Y-124342D01*
X682127Y-124406D01*
Y-124415D01*
X682136Y-124452D01*
X682146Y-124506D01*
X682173Y-124579D01*
X682191Y-124661D01*
X682228Y-124752D01*
X682273Y-124853D01*
X682319Y-124953D01*
X681508D01*
X681499Y-124944D01*
X681490Y-124907D01*
X681471Y-124862D01*
X681444Y-124789D01*
X681417Y-124707D01*
X681398Y-124607D01*
X681380Y-124497D01*
X681362Y-124379D01*
X681353D01*
X681344Y-124397D01*
X681289Y-124443D01*
X681207Y-124506D01*
X681098Y-124588D01*
X680961Y-124670D01*
X680825Y-124761D01*
X680679Y-124844D01*
X680524Y-124907D01*
X680506Y-124916D01*
X680451Y-124925D01*
X680369Y-124953D01*
X680269Y-124980D01*
X680141Y-125007D01*
X679996Y-125026D01*
X679832Y-125044D01*
X679668Y-125053D01*
X679595D01*
X679540Y-125044D01*
X679476D01*
X679403Y-125035D01*
X679239Y-125007D01*
X679057Y-124962D01*
X678857Y-124898D01*
X678675Y-124807D01*
X678511Y-124689D01*
X678492Y-124670D01*
X678447Y-124625D01*
X678383Y-124543D01*
X678310Y-124434D01*
X678237Y-124297D01*
X678174Y-124142D01*
X678128Y-123951D01*
X678119Y-123860D01*
X678110Y-123750D01*
Y-123732D01*
Y-123696D01*
X678119Y-123632D01*
X678128Y-123550D01*
X678146Y-123450D01*
X678174Y-123349D01*
X678210Y-123240D01*
X678256Y-123140D01*
X678265Y-123131D01*
X678283Y-123094D01*
X678319Y-123040D01*
X678365Y-122976D01*
X678419Y-122903D01*
X678492Y-122830D01*
X678565Y-122757D01*
X678656Y-122694D01*
X678665Y-122684D01*
X678702Y-122666D01*
X678748Y-122630D01*
X678820Y-122593D01*
X678902Y-122557D01*
X679003Y-122511D01*
X679103Y-122475D01*
X679221Y-122438D01*
X679230D01*
X679267Y-122429D01*
X679321Y-122411D01*
X679394Y-122402D01*
X679485Y-122384D01*
X679604Y-122365D01*
X679740Y-122338D01*
X679905Y-122320D01*
X679914D01*
X679950Y-122311D01*
X679996D01*
X680059Y-122302D01*
X680132Y-122293D01*
X680223Y-122274D01*
X680324Y-122265D01*
X680433Y-122247D01*
X680652Y-122202D01*
X680888Y-122156D01*
X681098Y-122101D01*
X681198Y-122074D01*
X681289Y-122047D01*
Y-122038D01*
Y-122019D01*
X681298Y-121965D01*
Y-121901D01*
Y-121864D01*
Y-121846D01*
Y-121837D01*
Y-121828D01*
Y-121773D01*
X681289Y-121682D01*
X681271Y-121582D01*
X681244Y-121473D01*
X681198Y-121363D01*
X681143Y-121263D01*
X681071Y-121181D01*
X681061Y-121172D01*
X681016Y-121136D01*
X680943Y-121099D01*
X680852Y-121045D01*
X680724Y-120999D01*
X680579Y-120954D01*
X680396Y-120926D01*
X680187Y-120917D01*
X680096D01*
X680005Y-120926D01*
X679877Y-120944D01*
X679750Y-120963D01*
X679613Y-120999D01*
X679485Y-121045D01*
X679376Y-121108D01*
X679367Y-121117D01*
X679330Y-121145D01*
X679285Y-121190D01*
X679230Y-121263D01*
X679176Y-121354D01*
X679112Y-121473D01*
X679057Y-121618D01*
X679003Y-121783D01*
X678246Y-121682D01*
Y-121673D01*
X678256Y-121664D01*
Y-121637D01*
X678265Y-121600D01*
X678292Y-121518D01*
X678328Y-121400D01*
X678374Y-121281D01*
X678429Y-121154D01*
X678502Y-121026D01*
X678583Y-120908D01*
X678593Y-120899D01*
X678629Y-120862D01*
X678684Y-120808D01*
X678757Y-120735D01*
X678857Y-120662D01*
X678975Y-120589D01*
X679112Y-120507D01*
X679267Y-120443D01*
X679276D01*
X679285Y-120434D01*
X679312Y-120425D01*
X679349Y-120416D01*
X679440Y-120389D01*
X679567Y-120361D01*
X679713Y-120334D01*
X679895Y-120307D01*
X680087Y-120288D01*
X680305Y-120279D01*
X680406D01*
X680506Y-120288D01*
D02*
G37*
G36*
X677172Y-124953D02*
X676397D01*
Y-118649D01*
X677172D01*
Y-124953D01*
D02*
G37*
G36*
X629554Y-118658D02*
X629626D01*
X629790Y-118676D01*
X629973Y-118694D01*
X630164Y-118731D01*
X630355Y-118776D01*
X630528Y-118840D01*
X630537D01*
X630547Y-118849D01*
X630601Y-118876D01*
X630683Y-118922D01*
X630774Y-118986D01*
X630884Y-119068D01*
X631002Y-119168D01*
X631111Y-119296D01*
X631212Y-119432D01*
X631221Y-119450D01*
X631248Y-119505D01*
X631293Y-119578D01*
X631339Y-119687D01*
X631385Y-119815D01*
X631430Y-119951D01*
X631458Y-120106D01*
X631467Y-120261D01*
Y-120279D01*
Y-120325D01*
X631458Y-120407D01*
X631439Y-120507D01*
X631412Y-120625D01*
X631366Y-120753D01*
X631312Y-120881D01*
X631239Y-121017D01*
X631230Y-121036D01*
X631202Y-121072D01*
X631148Y-121145D01*
X631075Y-121218D01*
X630984Y-121309D01*
X630874Y-121409D01*
X630738Y-121500D01*
X630583Y-121591D01*
X630592D01*
X630610Y-121600D01*
X630638Y-121609D01*
X630674Y-121628D01*
X630783Y-121664D01*
X630911Y-121728D01*
X631047Y-121810D01*
X631202Y-121910D01*
X631339Y-122029D01*
X631467Y-122174D01*
X631476Y-122192D01*
X631512Y-122247D01*
X631567Y-122329D01*
X631622Y-122438D01*
X631676Y-122584D01*
X631731Y-122739D01*
X631767Y-122921D01*
X631776Y-123122D01*
Y-123131D01*
Y-123140D01*
Y-123195D01*
X631767Y-123286D01*
X631749Y-123395D01*
X631731Y-123522D01*
X631694Y-123659D01*
X631649Y-123805D01*
X631585Y-123951D01*
X631576Y-123969D01*
X631549Y-124014D01*
X631512Y-124078D01*
X631458Y-124169D01*
X631385Y-124260D01*
X631312Y-124361D01*
X631221Y-124461D01*
X631120Y-124543D01*
X631111Y-124552D01*
X631075Y-124579D01*
X631011Y-124616D01*
X630929Y-124652D01*
X630829Y-124707D01*
X630711Y-124761D01*
X630583Y-124807D01*
X630428Y-124853D01*
X630410D01*
X630355Y-124871D01*
X630264Y-124880D01*
X630146Y-124898D01*
X630000Y-124916D01*
X629827Y-124934D01*
X629635Y-124944D01*
X629417Y-124953D01*
X627012D01*
Y-118649D01*
X629490D01*
X629554Y-118658D01*
D02*
G37*
G36*
X641078Y-120379D02*
X641861D01*
Y-120981D01*
X641078D01*
Y-123668D01*
Y-123687D01*
Y-123723D01*
Y-123778D01*
X641087Y-123841D01*
X641096Y-123987D01*
X641105Y-124051D01*
X641114Y-124096D01*
X641123Y-124115D01*
X641151Y-124151D01*
X641187Y-124197D01*
X641251Y-124242D01*
X641269Y-124251D01*
X641315Y-124269D01*
X641397Y-124288D01*
X641515Y-124297D01*
X641606D01*
X641652Y-124288D01*
X641715D01*
X641788Y-124279D01*
X641861Y-124269D01*
X641961Y-124953D01*
X641943D01*
X641907Y-124962D01*
X641843Y-124971D01*
X641761Y-124980D01*
X641670Y-124998D01*
X641570Y-125007D01*
X641369Y-125016D01*
X641296D01*
X641223Y-125007D01*
X641132Y-124998D01*
X641023Y-124989D01*
X640914Y-124962D01*
X640813Y-124934D01*
X640713Y-124889D01*
X640704Y-124880D01*
X640677Y-124862D01*
X640640Y-124834D01*
X640586Y-124789D01*
X640540Y-124743D01*
X640485Y-124680D01*
X640431Y-124616D01*
X640394Y-124534D01*
Y-124525D01*
X640376Y-124488D01*
X640367Y-124424D01*
X640349Y-124333D01*
X640331Y-124215D01*
X640321Y-124142D01*
Y-124060D01*
X640312Y-123960D01*
X640303Y-123860D01*
Y-123750D01*
Y-123623D01*
Y-120981D01*
X639729D01*
Y-120379D01*
X640303D01*
Y-119250D01*
X641078Y-118785D01*
Y-120379D01*
D02*
G37*
G36*
X638627D02*
X639410D01*
Y-120981D01*
X638627D01*
Y-123668D01*
Y-123687D01*
Y-123723D01*
Y-123778D01*
X638636Y-123841D01*
X638645Y-123987D01*
X638654Y-124051D01*
X638663Y-124096D01*
X638673Y-124115D01*
X638700Y-124151D01*
X638736Y-124197D01*
X638800Y-124242D01*
X638818Y-124251D01*
X638864Y-124269D01*
X638946Y-124288D01*
X639064Y-124297D01*
X639155D01*
X639201Y-124288D01*
X639265D01*
X639338Y-124279D01*
X639410Y-124269D01*
X639511Y-124953D01*
X639493D01*
X639456Y-124962D01*
X639392Y-124971D01*
X639310Y-124980D01*
X639219Y-124998D01*
X639119Y-125007D01*
X638919Y-125016D01*
X638846D01*
X638773Y-125007D01*
X638682Y-124998D01*
X638572Y-124989D01*
X638463Y-124962D01*
X638363Y-124934D01*
X638263Y-124889D01*
X638253Y-124880D01*
X638226Y-124862D01*
X638190Y-124834D01*
X638135Y-124789D01*
X638090Y-124743D01*
X638035Y-124680D01*
X637980Y-124616D01*
X637944Y-124534D01*
Y-124525D01*
X637926Y-124488D01*
X637917Y-124424D01*
X637898Y-124333D01*
X637880Y-124215D01*
X637871Y-124142D01*
Y-124060D01*
X637862Y-123960D01*
X637853Y-123860D01*
Y-123750D01*
Y-123623D01*
Y-120981D01*
X637279D01*
Y-120379D01*
X637853D01*
Y-119250D01*
X638627Y-118785D01*
Y-120379D01*
D02*
G37*
G36*
X670603Y-120288D02*
X670676Y-120298D01*
X670767Y-120316D01*
X670867Y-120334D01*
X670986Y-120361D01*
X671095Y-120389D01*
X671223Y-120434D01*
X671341Y-120480D01*
X671469Y-120544D01*
X671596Y-120616D01*
X671724Y-120698D01*
X671842Y-120799D01*
X671951Y-120908D01*
X671960Y-120917D01*
X671979Y-120935D01*
X672006Y-120972D01*
X672043Y-121026D01*
X672088Y-121090D01*
X672134Y-121163D01*
X672188Y-121254D01*
X672243Y-121363D01*
X672298Y-121482D01*
X672352Y-121609D01*
X672398Y-121755D01*
X672443Y-121910D01*
X672480Y-122083D01*
X672507Y-122265D01*
X672525Y-122457D01*
X672535Y-122666D01*
Y-122675D01*
Y-122712D01*
Y-122775D01*
X672525Y-122867D01*
X669109D01*
Y-122876D01*
Y-122903D01*
X669118Y-122940D01*
Y-122994D01*
X669127Y-123058D01*
X669146Y-123131D01*
X669173Y-123295D01*
X669228Y-123477D01*
X669300Y-123677D01*
X669401Y-123860D01*
X669528Y-124024D01*
X669537D01*
X669546Y-124042D01*
X669601Y-124087D01*
X669683Y-124151D01*
X669792Y-124215D01*
X669938Y-124288D01*
X670102Y-124352D01*
X670284Y-124397D01*
X670385Y-124406D01*
X670494Y-124415D01*
X670567D01*
X670649Y-124406D01*
X670749Y-124388D01*
X670858Y-124361D01*
X670986Y-124324D01*
X671104Y-124269D01*
X671223Y-124197D01*
X671232Y-124188D01*
X671277Y-124151D01*
X671332Y-124096D01*
X671396Y-124024D01*
X671469Y-123923D01*
X671551Y-123796D01*
X671633Y-123650D01*
X671705Y-123477D01*
X672507Y-123577D01*
Y-123586D01*
X672498Y-123605D01*
X672489Y-123641D01*
X672471Y-123696D01*
X672443Y-123750D01*
X672416Y-123823D01*
X672343Y-123978D01*
X672252Y-124151D01*
X672124Y-124333D01*
X671979Y-124506D01*
X671797Y-124670D01*
X671787D01*
X671769Y-124689D01*
X671742Y-124707D01*
X671705Y-124734D01*
X671651Y-124761D01*
X671596Y-124789D01*
X671523Y-124825D01*
X671441Y-124862D01*
X671350Y-124898D01*
X671259Y-124934D01*
X671031Y-124989D01*
X670776Y-125035D01*
X670494Y-125053D01*
X670394D01*
X670330Y-125044D01*
X670248Y-125035D01*
X670148Y-125016D01*
X670038Y-124998D01*
X669920Y-124980D01*
X669665Y-124907D01*
X669528Y-124853D01*
X669401Y-124798D01*
X669264Y-124725D01*
X669136Y-124643D01*
X669018Y-124552D01*
X668900Y-124443D01*
X668890Y-124434D01*
X668872Y-124415D01*
X668845Y-124379D01*
X668809Y-124324D01*
X668763Y-124260D01*
X668717Y-124188D01*
X668663Y-124096D01*
X668608Y-123996D01*
X668553Y-123878D01*
X668499Y-123750D01*
X668453Y-123605D01*
X668408Y-123450D01*
X668371Y-123286D01*
X668344Y-123103D01*
X668326Y-122912D01*
X668317Y-122712D01*
Y-122703D01*
Y-122657D01*
Y-122602D01*
X668326Y-122520D01*
X668335Y-122420D01*
X668344Y-122311D01*
X668362Y-122183D01*
X668389Y-122056D01*
X668462Y-121764D01*
X668508Y-121618D01*
X668563Y-121464D01*
X668635Y-121318D01*
X668717Y-121181D01*
X668809Y-121045D01*
X668909Y-120917D01*
X668918Y-120908D01*
X668936Y-120890D01*
X668972Y-120862D01*
X669018Y-120817D01*
X669073Y-120771D01*
X669146Y-120717D01*
X669228Y-120653D01*
X669328Y-120598D01*
X669428Y-120534D01*
X669546Y-120480D01*
X669674Y-120425D01*
X669811Y-120379D01*
X669956Y-120334D01*
X670111Y-120307D01*
X670275Y-120288D01*
X670448Y-120279D01*
X670539D01*
X670603Y-120288D01*
D02*
G37*
G36*
X644630D02*
X644712Y-120298D01*
X644804Y-120316D01*
X644904Y-120334D01*
X645022Y-120352D01*
X645268Y-120434D01*
X645396Y-120480D01*
X645523Y-120544D01*
X645651Y-120607D01*
X645778Y-120698D01*
X645897Y-120790D01*
X646015Y-120899D01*
X646024Y-120908D01*
X646043Y-120926D01*
X646070Y-120963D01*
X646106Y-121008D01*
X646152Y-121072D01*
X646207Y-121154D01*
X646261Y-121245D01*
X646316Y-121345D01*
X646371Y-121455D01*
X646425Y-121591D01*
X646480Y-121728D01*
X646525Y-121883D01*
X646562Y-122047D01*
X646589Y-122220D01*
X646607Y-122402D01*
X646617Y-122602D01*
Y-122611D01*
Y-122639D01*
Y-122684D01*
Y-122748D01*
X646607Y-122821D01*
X646598Y-122912D01*
Y-123003D01*
X646580Y-123103D01*
X646553Y-123331D01*
X646498Y-123559D01*
X646434Y-123787D01*
X646343Y-123996D01*
Y-124005D01*
X646334Y-124014D01*
X646316Y-124042D01*
X646298Y-124078D01*
X646234Y-124169D01*
X646152Y-124279D01*
X646043Y-124406D01*
X645906Y-124534D01*
X645751Y-124661D01*
X645569Y-124780D01*
X645560D01*
X645551Y-124789D01*
X645523Y-124807D01*
X645478Y-124825D01*
X645432Y-124844D01*
X645378Y-124862D01*
X645241Y-124916D01*
X645086Y-124962D01*
X644895Y-125007D01*
X644694Y-125044D01*
X644476Y-125053D01*
X644385D01*
X644312Y-125044D01*
X644230Y-125035D01*
X644139Y-125016D01*
X644029Y-124998D01*
X643920Y-124980D01*
X643674Y-124907D01*
X643537Y-124853D01*
X643410Y-124798D01*
X643282Y-124725D01*
X643155Y-124643D01*
X643036Y-124552D01*
X642918Y-124443D01*
X642909Y-124434D01*
X642891Y-124415D01*
X642863Y-124379D01*
X642827Y-124324D01*
X642781Y-124260D01*
X642736Y-124188D01*
X642681Y-124096D01*
X642626Y-123987D01*
X642572Y-123869D01*
X642517Y-123732D01*
X642472Y-123586D01*
X642426Y-123431D01*
X642389Y-123258D01*
X642362Y-123076D01*
X642344Y-122876D01*
X642335Y-122666D01*
Y-122648D01*
Y-122611D01*
X642344Y-122548D01*
Y-122457D01*
X642353Y-122356D01*
X642371Y-122229D01*
X642389Y-122101D01*
X642426Y-121956D01*
X642462Y-121810D01*
X642508Y-121655D01*
X642563Y-121491D01*
X642635Y-121336D01*
X642708Y-121190D01*
X642808Y-121045D01*
X642909Y-120908D01*
X643036Y-120790D01*
X643045Y-120780D01*
X643064Y-120771D01*
X643100Y-120744D01*
X643146Y-120707D01*
X643200Y-120671D01*
X643273Y-120625D01*
X643346Y-120580D01*
X643437Y-120534D01*
X643537Y-120489D01*
X643647Y-120443D01*
X643893Y-120361D01*
X644175Y-120298D01*
X644321Y-120288D01*
X644476Y-120279D01*
X644567D01*
X644630Y-120288D01*
D02*
G37*
G36*
X634828D02*
X634910Y-120298D01*
X635001Y-120316D01*
X635102Y-120334D01*
X635220Y-120352D01*
X635466Y-120434D01*
X635593Y-120480D01*
X635721Y-120544D01*
X635849Y-120607D01*
X635976Y-120698D01*
X636095Y-120790D01*
X636213Y-120899D01*
X636222Y-120908D01*
X636240Y-120926D01*
X636268Y-120963D01*
X636304Y-121008D01*
X636349Y-121072D01*
X636404Y-121154D01*
X636459Y-121245D01*
X636514Y-121345D01*
X636568Y-121455D01*
X636623Y-121591D01*
X636678Y-121728D01*
X636723Y-121883D01*
X636760Y-122047D01*
X636787Y-122220D01*
X636805Y-122402D01*
X636814Y-122602D01*
Y-122611D01*
Y-122639D01*
Y-122684D01*
Y-122748D01*
X636805Y-122821D01*
X636796Y-122912D01*
Y-123003D01*
X636778Y-123103D01*
X636750Y-123331D01*
X636696Y-123559D01*
X636632Y-123787D01*
X636541Y-123996D01*
Y-124005D01*
X636532Y-124014D01*
X636514Y-124042D01*
X636495Y-124078D01*
X636432Y-124169D01*
X636349Y-124279D01*
X636240Y-124406D01*
X636104Y-124534D01*
X635949Y-124661D01*
X635767Y-124780D01*
X635757D01*
X635748Y-124789D01*
X635721Y-124807D01*
X635675Y-124825D01*
X635630Y-124844D01*
X635575Y-124862D01*
X635439Y-124916D01*
X635284Y-124962D01*
X635092Y-125007D01*
X634892Y-125044D01*
X634673Y-125053D01*
X634582D01*
X634509Y-125044D01*
X634427Y-125035D01*
X634336Y-125016D01*
X634227Y-124998D01*
X634118Y-124980D01*
X633872Y-124907D01*
X633735Y-124853D01*
X633607Y-124798D01*
X633480Y-124725D01*
X633352Y-124643D01*
X633234Y-124552D01*
X633115Y-124443D01*
X633106Y-124434D01*
X633088Y-124415D01*
X633061Y-124379D01*
X633024Y-124324D01*
X632979Y-124260D01*
X632933Y-124188D01*
X632879Y-124096D01*
X632824Y-123987D01*
X632769Y-123869D01*
X632715Y-123732D01*
X632669Y-123586D01*
X632624Y-123431D01*
X632587Y-123258D01*
X632560Y-123076D01*
X632542Y-122876D01*
X632533Y-122666D01*
Y-122648D01*
Y-122611D01*
X632542Y-122548D01*
Y-122457D01*
X632551Y-122356D01*
X632569Y-122229D01*
X632587Y-122101D01*
X632624Y-121956D01*
X632660Y-121810D01*
X632706Y-121655D01*
X632760Y-121491D01*
X632833Y-121336D01*
X632906Y-121190D01*
X633006Y-121045D01*
X633106Y-120908D01*
X633234Y-120790D01*
X633243Y-120780D01*
X633261Y-120771D01*
X633298Y-120744D01*
X633343Y-120707D01*
X633398Y-120671D01*
X633471Y-120625D01*
X633544Y-120580D01*
X633635Y-120534D01*
X633735Y-120489D01*
X633844Y-120443D01*
X634090Y-120361D01*
X634373Y-120298D01*
X634518Y-120288D01*
X634673Y-120279D01*
X634764D01*
X634828Y-120288D01*
D02*
G37*
G36*
X660327Y-118548D02*
X660409D01*
X660491Y-118558D01*
X660600Y-118576D01*
X660710Y-118594D01*
X660947Y-118640D01*
X661220Y-118712D01*
X661484Y-118822D01*
X661621Y-118886D01*
X661757Y-118958D01*
X661766Y-118967D01*
X661785Y-118977D01*
X661821Y-119004D01*
X661876Y-119031D01*
X661930Y-119077D01*
X662003Y-119132D01*
X662158Y-119259D01*
X662322Y-119423D01*
X662504Y-119623D01*
X662677Y-119860D01*
X662823Y-120124D01*
Y-120134D01*
X662841Y-120161D01*
X662860Y-120197D01*
X662878Y-120252D01*
X662914Y-120325D01*
X662942Y-120407D01*
X662978Y-120507D01*
X663015Y-120616D01*
X663042Y-120735D01*
X663078Y-120862D01*
X663115Y-121008D01*
X663142Y-121154D01*
X663178Y-121473D01*
X663197Y-121819D01*
Y-121828D01*
Y-121864D01*
Y-121910D01*
X663188Y-121983D01*
Y-122065D01*
X663178Y-122165D01*
X663160Y-122274D01*
X663151Y-122393D01*
X663106Y-122657D01*
X663033Y-122949D01*
X662932Y-123240D01*
X662878Y-123386D01*
X662805Y-123532D01*
Y-123541D01*
X662787Y-123568D01*
X662769Y-123605D01*
X662732Y-123659D01*
X662696Y-123723D01*
X662650Y-123787D01*
X662523Y-123960D01*
X662368Y-124142D01*
X662185Y-124333D01*
X661967Y-124515D01*
X661712Y-124680D01*
X661703D01*
X661685Y-124698D01*
X661639Y-124716D01*
X661584Y-124743D01*
X661520Y-124771D01*
X661448Y-124798D01*
X661356Y-124834D01*
X661256Y-124871D01*
X661147Y-124907D01*
X661028Y-124944D01*
X660764Y-124998D01*
X660482Y-125044D01*
X660181Y-125062D01*
X660090D01*
X660036Y-125053D01*
X659954D01*
X659863Y-125035D01*
X659762Y-125026D01*
X659644Y-125007D01*
X659398Y-124953D01*
X659134Y-124880D01*
X658860Y-124771D01*
X658724Y-124707D01*
X658587Y-124634D01*
X658578Y-124625D01*
X658560Y-124616D01*
X658523Y-124588D01*
X658469Y-124552D01*
X658414Y-124515D01*
X658350Y-124461D01*
X658195Y-124324D01*
X658022Y-124160D01*
X657840Y-123960D01*
X657676Y-123732D01*
X657521Y-123468D01*
Y-123459D01*
X657503Y-123431D01*
X657485Y-123395D01*
X657467Y-123340D01*
X657439Y-123267D01*
X657412Y-123185D01*
X657375Y-123094D01*
X657348Y-122994D01*
X657312Y-122876D01*
X657275Y-122757D01*
X657221Y-122484D01*
X657184Y-122202D01*
X657166Y-121892D01*
Y-121883D01*
Y-121874D01*
Y-121819D01*
X657175Y-121737D01*
Y-121628D01*
X657193Y-121500D01*
X657211Y-121345D01*
X657239Y-121172D01*
X657275Y-120990D01*
X657312Y-120799D01*
X657366Y-120598D01*
X657439Y-120398D01*
X657521Y-120188D01*
X657612Y-119988D01*
X657731Y-119787D01*
X657858Y-119605D01*
X658004Y-119432D01*
X658013Y-119423D01*
X658041Y-119396D01*
X658095Y-119350D01*
X658159Y-119296D01*
X658241Y-119223D01*
X658341Y-119150D01*
X658460Y-119068D01*
X658596Y-118986D01*
X658742Y-118904D01*
X658906Y-118822D01*
X659088Y-118749D01*
X659279Y-118676D01*
X659489Y-118621D01*
X659708Y-118576D01*
X659935Y-118548D01*
X660181Y-118539D01*
X660263D01*
X660327Y-118548D01*
D02*
G37*
%LPC*%
G36*
X681298Y-122657D02*
X681289D01*
X681280Y-122666D01*
X681253Y-122675D01*
X681216Y-122684D01*
X681171Y-122703D01*
X681116Y-122721D01*
X681052Y-122739D01*
X680979Y-122757D01*
X680898Y-122785D01*
X680797Y-122803D01*
X680697Y-122830D01*
X680579Y-122857D01*
X680451Y-122885D01*
X680324Y-122912D01*
X680178Y-122930D01*
X680023Y-122958D01*
X680005D01*
X679950Y-122967D01*
X679859Y-122985D01*
X679759Y-123003D01*
X679649Y-123021D01*
X679540Y-123049D01*
X679440Y-123076D01*
X679349Y-123113D01*
X679340D01*
X679312Y-123131D01*
X679276Y-123149D01*
X679239Y-123176D01*
X679130Y-123249D01*
X679039Y-123359D01*
Y-123368D01*
X679021Y-123386D01*
X679012Y-123422D01*
X678994Y-123468D01*
X678975Y-123522D01*
X678957Y-123577D01*
X678948Y-123650D01*
X678939Y-123723D01*
Y-123732D01*
Y-123778D01*
X678948Y-123832D01*
X678966Y-123905D01*
X678994Y-123987D01*
X679039Y-124069D01*
X679094Y-124160D01*
X679167Y-124242D01*
X679176Y-124251D01*
X679212Y-124269D01*
X679267Y-124306D01*
X679340Y-124342D01*
X679440Y-124379D01*
X679558Y-124415D01*
X679695Y-124434D01*
X679859Y-124443D01*
X679932D01*
X680023Y-124434D01*
X680123Y-124415D01*
X680251Y-124397D01*
X680378Y-124361D01*
X680515Y-124315D01*
X680652Y-124251D01*
X680670Y-124242D01*
X680706Y-124215D01*
X680770Y-124169D01*
X680843Y-124106D01*
X680925Y-124033D01*
X681016Y-123942D01*
X681089Y-123832D01*
X681162Y-123714D01*
X681171Y-123705D01*
X681180Y-123668D01*
X681198Y-123605D01*
X681225Y-123522D01*
X681253Y-123413D01*
X681271Y-123286D01*
X681280Y-123131D01*
X681289Y-122949D01*
X681298Y-122657D01*
D02*
G37*
G36*
X629344Y-119396D02*
X627850D01*
Y-121291D01*
X629399D01*
X629517Y-121281D01*
X629645Y-121272D01*
X629772Y-121263D01*
X629900Y-121245D01*
X630000Y-121227D01*
X630018Y-121218D01*
X630055Y-121209D01*
X630109Y-121181D01*
X630182Y-121145D01*
X630255Y-121108D01*
X630337Y-121054D01*
X630419Y-120981D01*
X630483Y-120908D01*
X630492Y-120899D01*
X630510Y-120871D01*
X630537Y-120817D01*
X630565Y-120753D01*
X630592Y-120680D01*
X630619Y-120589D01*
X630638Y-120480D01*
X630647Y-120361D01*
Y-120343D01*
Y-120307D01*
X630638Y-120252D01*
X630628Y-120179D01*
X630610Y-120088D01*
X630583Y-119997D01*
X630547Y-119906D01*
X630492Y-119815D01*
X630483Y-119806D01*
X630465Y-119778D01*
X630428Y-119733D01*
X630382Y-119687D01*
X630319Y-119632D01*
X630246Y-119578D01*
X630155Y-119523D01*
X630055Y-119487D01*
X630045D01*
X630000Y-119469D01*
X629936Y-119459D01*
X629836Y-119441D01*
X629699Y-119423D01*
X629544Y-119414D01*
X629344Y-119396D01*
D02*
G37*
G36*
X629508Y-122038D02*
X627850D01*
Y-124206D01*
X629645D01*
X629836Y-124197D01*
X629918Y-124188D01*
X629991Y-124178D01*
X630000D01*
X630036Y-124169D01*
X630091Y-124160D01*
X630155Y-124142D01*
X630310Y-124087D01*
X630465Y-124014D01*
X630474Y-124005D01*
X630501Y-123987D01*
X630537Y-123960D01*
X630583Y-123923D01*
X630628Y-123869D01*
X630692Y-123814D01*
X630738Y-123741D01*
X630793Y-123659D01*
X630802Y-123650D01*
X630811Y-123623D01*
X630829Y-123568D01*
X630856Y-123504D01*
X630884Y-123431D01*
X630902Y-123340D01*
X630911Y-123231D01*
X630920Y-123122D01*
Y-123103D01*
Y-123067D01*
X630911Y-122994D01*
X630893Y-122912D01*
X630874Y-122821D01*
X630838Y-122721D01*
X630793Y-122621D01*
X630729Y-122520D01*
X630720Y-122511D01*
X630692Y-122475D01*
X630656Y-122429D01*
X630601Y-122375D01*
X630528Y-122311D01*
X630437Y-122247D01*
X630337Y-122192D01*
X630219Y-122147D01*
X630200Y-122138D01*
X630164Y-122129D01*
X630082Y-122110D01*
X629982Y-122092D01*
X629854Y-122074D01*
X629699Y-122056D01*
X629508Y-122038D01*
D02*
G37*
G36*
X670457Y-120917D02*
X670403D01*
X670366Y-120926D01*
X670266Y-120935D01*
X670148Y-120963D01*
X670002Y-121008D01*
X669847Y-121072D01*
X669701Y-121163D01*
X669556Y-121281D01*
X669537Y-121300D01*
X669501Y-121345D01*
X669437Y-121427D01*
X669373Y-121537D01*
X669300Y-121664D01*
X669237Y-121828D01*
X669182Y-122019D01*
X669155Y-122229D01*
X671715D01*
Y-122220D01*
Y-122202D01*
X671705Y-122174D01*
Y-122138D01*
X671687Y-122029D01*
X671660Y-121910D01*
X671614Y-121764D01*
X671569Y-121628D01*
X671496Y-121491D01*
X671414Y-121372D01*
Y-121363D01*
X671396Y-121354D01*
X671350Y-121300D01*
X671268Y-121227D01*
X671159Y-121145D01*
X671022Y-121063D01*
X670858Y-120990D01*
X670667Y-120935D01*
X670567Y-120926D01*
X670457Y-120917D01*
D02*
G37*
G36*
X644476D02*
X644421D01*
X644376Y-120926D01*
X644275Y-120935D01*
X644139Y-120972D01*
X643984Y-121026D01*
X643820Y-121099D01*
X643665Y-121209D01*
X643583Y-121281D01*
X643510Y-121354D01*
Y-121363D01*
X643492Y-121372D01*
X643474Y-121400D01*
X643446Y-121436D01*
X643419Y-121482D01*
X643392Y-121537D01*
X643355Y-121609D01*
X643319Y-121682D01*
X643282Y-121773D01*
X643246Y-121864D01*
X643219Y-121974D01*
X643191Y-122092D01*
X643164Y-122220D01*
X643146Y-122356D01*
X643137Y-122511D01*
X643127Y-122666D01*
Y-122675D01*
Y-122703D01*
Y-122748D01*
X643137Y-122812D01*
Y-122885D01*
X643146Y-122967D01*
X643173Y-123158D01*
X643219Y-123377D01*
X643291Y-123595D01*
X643383Y-123805D01*
X643446Y-123896D01*
X643510Y-123987D01*
X643519D01*
X643528Y-124005D01*
X643583Y-124051D01*
X643665Y-124124D01*
X643774Y-124197D01*
X643911Y-124279D01*
X644075Y-124352D01*
X644266Y-124397D01*
X644366Y-124406D01*
X644476Y-124415D01*
X644530D01*
X644576Y-124406D01*
X644676Y-124388D01*
X644813Y-124361D01*
X644958Y-124306D01*
X645122Y-124233D01*
X645277Y-124124D01*
X645359Y-124051D01*
X645432Y-123978D01*
X645441Y-123969D01*
X645450Y-123960D01*
X645469Y-123932D01*
X645496Y-123896D01*
X645523Y-123851D01*
X645560Y-123796D01*
X645596Y-123723D01*
X645633Y-123650D01*
X645669Y-123559D01*
X645696Y-123459D01*
X645733Y-123349D01*
X645760Y-123231D01*
X645787Y-123094D01*
X645806Y-122958D01*
X645824Y-122803D01*
Y-122639D01*
Y-122630D01*
Y-122602D01*
Y-122557D01*
X645815Y-122502D01*
Y-122429D01*
X645806Y-122347D01*
X645778Y-122156D01*
X645733Y-121956D01*
X645660Y-121737D01*
X645560Y-121537D01*
X645505Y-121436D01*
X645432Y-121354D01*
Y-121345D01*
X645414Y-121336D01*
X645359Y-121281D01*
X645277Y-121218D01*
X645168Y-121136D01*
X645031Y-121054D01*
X644867Y-120981D01*
X644685Y-120935D01*
X644585Y-120926D01*
X644476Y-120917D01*
D02*
G37*
G36*
X634673D02*
X634619D01*
X634573Y-120926D01*
X634473Y-120935D01*
X634336Y-120972D01*
X634181Y-121026D01*
X634017Y-121099D01*
X633862Y-121209D01*
X633780Y-121281D01*
X633708Y-121354D01*
Y-121363D01*
X633689Y-121372D01*
X633671Y-121400D01*
X633644Y-121436D01*
X633617Y-121482D01*
X633589Y-121537D01*
X633553Y-121609D01*
X633516Y-121682D01*
X633480Y-121773D01*
X633443Y-121864D01*
X633416Y-121974D01*
X633389Y-122092D01*
X633361Y-122220D01*
X633343Y-122356D01*
X633334Y-122511D01*
X633325Y-122666D01*
Y-122675D01*
Y-122703D01*
Y-122748D01*
X633334Y-122812D01*
Y-122885D01*
X633343Y-122967D01*
X633371Y-123158D01*
X633416Y-123377D01*
X633489Y-123595D01*
X633580Y-123805D01*
X633644Y-123896D01*
X633708Y-123987D01*
X633717D01*
X633726Y-124005D01*
X633780Y-124051D01*
X633862Y-124124D01*
X633972Y-124197D01*
X634108Y-124279D01*
X634272Y-124352D01*
X634464Y-124397D01*
X634564Y-124406D01*
X634673Y-124415D01*
X634728D01*
X634773Y-124406D01*
X634874Y-124388D01*
X635010Y-124361D01*
X635156Y-124306D01*
X635320Y-124233D01*
X635475Y-124124D01*
X635557Y-124051D01*
X635630Y-123978D01*
X635639Y-123969D01*
X635648Y-123960D01*
X635666Y-123932D01*
X635694Y-123896D01*
X635721Y-123851D01*
X635757Y-123796D01*
X635794Y-123723D01*
X635830Y-123650D01*
X635867Y-123559D01*
X635894Y-123459D01*
X635930Y-123349D01*
X635958Y-123231D01*
X635985Y-123094D01*
X636003Y-122958D01*
X636022Y-122803D01*
Y-122639D01*
Y-122630D01*
Y-122602D01*
Y-122557D01*
X636013Y-122502D01*
Y-122429D01*
X636003Y-122347D01*
X635976Y-122156D01*
X635930Y-121956D01*
X635858Y-121737D01*
X635757Y-121537D01*
X635703Y-121436D01*
X635630Y-121354D01*
Y-121345D01*
X635612Y-121336D01*
X635557Y-121281D01*
X635475Y-121218D01*
X635366Y-121136D01*
X635229Y-121054D01*
X635065Y-120981D01*
X634883Y-120935D01*
X634783Y-120926D01*
X634673Y-120917D01*
D02*
G37*
G36*
X660181Y-119259D02*
X660099D01*
X660036Y-119268D01*
X659954Y-119277D01*
X659872Y-119296D01*
X659771Y-119314D01*
X659662Y-119332D01*
X659425Y-119405D01*
X659298Y-119459D01*
X659170Y-119514D01*
X659033Y-119587D01*
X658906Y-119669D01*
X658778Y-119760D01*
X658660Y-119869D01*
X658651Y-119878D01*
X658633Y-119897D01*
X658605Y-119933D01*
X658560Y-119988D01*
X658514Y-120052D01*
X658460Y-120134D01*
X658405Y-120234D01*
X658341Y-120352D01*
X658286Y-120480D01*
X658223Y-120635D01*
X658168Y-120799D01*
X658122Y-120981D01*
X658077Y-121181D01*
X658050Y-121409D01*
X658031Y-121646D01*
X658022Y-121901D01*
Y-121910D01*
Y-121947D01*
Y-122010D01*
X658031Y-122092D01*
X658041Y-122183D01*
X658059Y-122293D01*
X658077Y-122420D01*
X658095Y-122548D01*
X658168Y-122839D01*
X658223Y-122985D01*
X658277Y-123140D01*
X658350Y-123286D01*
X658432Y-123431D01*
X658523Y-123568D01*
X658633Y-123696D01*
X658642Y-123705D01*
X658660Y-123723D01*
X658696Y-123759D01*
X658742Y-123796D01*
X658806Y-123851D01*
X658879Y-123905D01*
X658961Y-123960D01*
X659052Y-124024D01*
X659161Y-124087D01*
X659279Y-124142D01*
X659407Y-124197D01*
X659544Y-124251D01*
X659689Y-124288D01*
X659835Y-124324D01*
X659999Y-124342D01*
X660172Y-124352D01*
X660218D01*
X660263Y-124342D01*
X660327D01*
X660409Y-124333D01*
X660500Y-124315D01*
X660609Y-124297D01*
X660719Y-124269D01*
X660846Y-124233D01*
X660965Y-124188D01*
X661101Y-124142D01*
X661229Y-124078D01*
X661356Y-123996D01*
X661484Y-123914D01*
X661612Y-123814D01*
X661730Y-123696D01*
X661739Y-123687D01*
X661757Y-123668D01*
X661785Y-123623D01*
X661830Y-123568D01*
X661876Y-123504D01*
X661921Y-123422D01*
X661976Y-123322D01*
X662040Y-123213D01*
X662094Y-123085D01*
X662149Y-122940D01*
X662195Y-122785D01*
X662249Y-122621D01*
X662286Y-122438D01*
X662313Y-122238D01*
X662331Y-122029D01*
X662340Y-121810D01*
Y-121801D01*
Y-121773D01*
Y-121737D01*
Y-121682D01*
X662331Y-121618D01*
Y-121537D01*
X662322Y-121455D01*
X662304Y-121354D01*
X662277Y-121145D01*
X662231Y-120926D01*
X662167Y-120689D01*
X662076Y-120471D01*
Y-120461D01*
X662067Y-120443D01*
X662049Y-120416D01*
X662031Y-120379D01*
X661967Y-120270D01*
X661885Y-120143D01*
X661776Y-119997D01*
X661639Y-119851D01*
X661484Y-119705D01*
X661311Y-119578D01*
X661302D01*
X661293Y-119560D01*
X661265Y-119551D01*
X661220Y-119523D01*
X661174Y-119505D01*
X661120Y-119478D01*
X660983Y-119414D01*
X660819Y-119359D01*
X660628Y-119305D01*
X660409Y-119268D01*
X660181Y-119259D01*
D02*
G37*
%LPD*%
D11*
X339874Y327530D02*
G03*
X351210Y306412I10224J-8113D01*
G01*
X48366Y14823D02*
G03*
X48366Y14823I-3091J0D01*
G01*
X45415D02*
G03*
X45415Y14823I-139J0D01*
G01*
X335945Y164902D02*
Y173661D01*
X354055D01*
Y164902D02*
Y173661D01*
X335945Y164902D02*
X354055D01*
X310551Y203543D02*
X326004D01*
X310531Y263583D02*
X325590D01*
X275984Y283760D02*
X335866Y283760D01*
Y265000D02*
X344331D01*
X335866Y283760D02*
X344331D01*
Y265000D02*
Y283760D01*
X335866Y265000D02*
Y283760D01*
X345866Y265000D02*
Y273622D01*
X354331Y265000D02*
Y273622D01*
X345866D02*
X354331D01*
X324311Y113661D02*
Y133563D01*
Y113661D02*
X334055D01*
X315945Y133563D02*
X324311D01*
X315945Y104902D02*
Y133563D01*
X334055Y104902D02*
Y113661D01*
X315945Y104902D02*
X334055D01*
X316063Y55059D02*
Y63524D01*
X334075D01*
Y55059D02*
Y63524D01*
X316063Y55059D02*
X334075D01*
X316063Y45059D02*
Y53524D01*
X334075D01*
Y45059D02*
Y53524D01*
X316063Y45059D02*
X334075D01*
X316063Y163445D02*
X354055D01*
X316063Y143957D02*
Y163445D01*
Y143957D02*
X354055D01*
Y163445D01*
X335945Y124902D02*
X354055D01*
Y133661D01*
X335945D02*
X354055D01*
X335945Y124902D02*
Y133661D01*
X334370Y212756D02*
Y213681D01*
X326004D02*
X334370D01*
X335945Y235098D02*
X354055D01*
Y253504D01*
X335945D02*
X354055D01*
X335945Y235098D02*
Y253504D01*
X325590Y245138D02*
Y263583D01*
X334350D01*
Y245138D02*
Y263583D01*
X325590Y245138D02*
X334350D01*
X345768Y95039D02*
Y103642D01*
X354153D01*
Y95039D02*
Y103642D01*
X345768Y95039D02*
X354153D01*
X345886Y194783D02*
X354449D01*
X345886D02*
Y223583D01*
X354449D01*
Y194783D02*
Y223583D01*
X315669Y205315D02*
Y223681D01*
X324232D01*
Y205315D02*
Y223681D01*
X315669Y205315D02*
X324232D01*
X326004Y203799D02*
Y213681D01*
Y203543D02*
X334370D01*
Y212756D01*
X345866Y265000D02*
X354331D01*
X163602Y135138D02*
X197756D01*
Y168898D01*
X163602D02*
X197756D01*
X163602Y135138D02*
Y168898D01*
X16634Y135138D02*
Y168898D01*
X50787D01*
Y135138D02*
Y168898D01*
X16634Y135138D02*
X50787D01*
X45276Y25256D02*
X47244Y23287D01*
X43307Y23287D02*
X45276Y25256D01*
Y17913D02*
Y25256D01*
X53740Y12854D02*
X55709Y14823D01*
X53740Y16791D02*
X55709Y14823D01*
X48366D02*
X55709D01*
X348727Y15143D02*
G03*
X362231Y28721I28J13476D01*
G01*
X313897Y453D02*
G03*
X327865Y8398I-430J17007D01*
G01*
X340101Y15143D02*
G03*
X327800Y8303I31J-14537D01*
G01*
X327073Y341609D02*
G03*
X340443Y332359I13542J5287D01*
G01*
X326634Y342790D02*
G03*
X315457Y350371I-11018J-4215D01*
G01*
X429Y19709D02*
G03*
X13080Y7370I12282J-63D01*
G01*
X29169Y3404D02*
G03*
X20591Y7370I-8805J-7785D01*
G01*
X29072Y3478D02*
G03*
X35354Y453I6097J4625D01*
G01*
X362262Y319425D02*
G03*
X349823Y332359I-12687J247D01*
G01*
X15524Y350371D02*
G03*
X429Y333981I435J-15546D01*
G01*
X340101Y15143D02*
X348756D01*
X340443Y332359D02*
X349823D01*
X326634Y342790D02*
X327141Y341464D01*
X429Y333981D02*
X429Y19709D01*
X13080Y7370D02*
X20591D01*
X35354Y453D02*
X313467D01*
X362262Y28721D02*
X362262Y319425D01*
X15524Y350371D02*
X315457D01*
D12*
X47638Y240846D02*
G03*
X47638Y240846I-492J0D01*
G01*
X194488Y242028D02*
G03*
X194488Y242028I-492J0D01*
G01*
X149907Y282972D02*
G03*
X149907Y282972I-492J0D01*
G01*
X134055Y212702D02*
G03*
X134055Y212702I-492J0D01*
G01*
X208864Y281791D02*
G03*
X208864Y281791I-492J0D01*
G01*
X300373Y212859D02*
G03*
X300373Y212859I-492J0D01*
G01*
D14*
X65910Y213328D02*
X69251Y216669D01*
X63745Y279093D02*
X67086Y275753D01*
X42658Y258401D02*
X45999Y255060D01*
X219390Y220079D02*
X224114D01*
X268151Y268076D02*
X271491Y271416D01*
X197146Y263878D02*
X201870D01*
X131658Y272007D02*
X134999Y268666D01*
X31457Y325590D02*
Y347342D01*
X93661D01*
X71457Y313189D02*
X102953D01*
X93661Y347342D02*
X103051D01*
Y325590D02*
Y347342D01*
X69449Y325590D02*
X103051D01*
X71457Y313189D02*
Y323130D01*
X31457Y325590D02*
X69449D01*
X102953Y313189D02*
Y323130D01*
X71457D02*
X102953D01*
X269980D02*
X301279D01*
Y313189D02*
Y323130D01*
X302953Y325590D02*
X317815D01*
X230118D02*
X268110D01*
X269980Y313189D02*
Y323130D01*
X268110Y325590D02*
X302953D01*
X317815D02*
Y347342D01*
X292323D02*
X317815D01*
X269980Y313189D02*
X301279D01*
X230118Y347342D02*
X317815D01*
X230118Y325590D02*
Y347342D01*
X46161Y244291D02*
Y248228D01*
X33957Y244291D02*
Y248228D01*
Y244291D02*
X46161D01*
X33957Y248228D02*
X46161D01*
X193012Y245472D02*
Y249410D01*
X180807Y245472D02*
Y249410D01*
Y245472D02*
X193012D01*
X180807Y249410D02*
X193012D01*
D16*
X242618Y214173D02*
Y216535D01*
X238681Y214173D02*
Y216535D01*
X60621Y219174D02*
X61595Y218200D01*
X63474Y222027D02*
X64449Y221053D01*
X58386Y273317D02*
X59360Y274291D01*
X61239Y270463D02*
X62214Y271438D01*
X47530Y262716D02*
X48505Y263690D01*
X50384Y259862D02*
X51358Y260837D01*
X219685Y212205D02*
Y213583D01*
X223721Y212205D02*
Y213583D01*
X272953Y263691D02*
X273927Y262717D01*
X275806Y266545D02*
X276781Y265570D01*
X201476Y256004D02*
Y257382D01*
X197441Y256004D02*
Y257382D01*
X126299Y266230D02*
X127274Y267205D01*
X129153Y263377D02*
X130127Y264351D01*
X68273Y227227D02*
X69944Y225557D01*
X65489Y224443D02*
X67160Y222773D01*
X63330Y267820D02*
X65000Y269490D01*
X66114Y265036D02*
X67784Y266706D01*
X120903Y270931D02*
X122573Y272601D01*
X123687Y268147D02*
X125357Y269817D01*
X55281Y254269D02*
X56951Y255939D01*
X52497Y257053D02*
X54168Y258723D01*
X129724Y295866D02*
Y298228D01*
X133661Y295866D02*
Y298228D01*
X119587Y192224D02*
X121949D01*
X119587Y196161D02*
X121949D01*
X212205Y211713D02*
Y214075D01*
X216142Y211713D02*
Y214075D01*
X267655Y259187D02*
X269325Y257517D01*
X270439Y261971D02*
X272109Y260301D01*
X203346Y255610D02*
Y257972D01*
X207283Y255610D02*
Y257972D01*
X186122Y301575D02*
X188484D01*
X186122Y297638D02*
X188484D01*
X289703Y192913D02*
X292065D01*
X289703Y196850D02*
X292065D01*
D18*
X298721Y9547D02*
Y12746D01*
X297121D01*
X296588Y12213D01*
Y11147D01*
X297121Y10614D01*
X298721D01*
X297654D02*
X296588Y9547D01*
X293389Y12746D02*
X295521D01*
Y11147D01*
X294455D01*
X295521D01*
Y9547D01*
X292322Y9014D02*
X290190D01*
X286991Y12213D02*
X287524Y12746D01*
X288590D01*
X289124Y12213D01*
Y10080D01*
X288590Y9547D01*
X287524D01*
X286991Y10080D01*
Y11147D01*
X288057D01*
X285925Y9547D02*
Y12746D01*
X283792Y9547D01*
Y12746D01*
X282726D02*
Y9547D01*
X281126D01*
X280593Y10080D01*
Y12213D01*
X281126Y12746D01*
X282726D01*
X124902Y282038D02*
X122769D01*
X123835D01*
Y278839D01*
X121703D02*
Y282038D01*
X120103D01*
X119570Y281504D01*
Y280438D01*
X120103Y279905D01*
X121703D01*
X118504Y281504D02*
X117971Y282038D01*
X116904D01*
X116371Y281504D01*
Y280971D01*
X116904Y280438D01*
X117437D01*
X116904D01*
X116371Y279905D01*
Y279372D01*
X116904Y278839D01*
X117971D01*
X118504Y279372D01*
X120669Y290207D02*
X118537D01*
X119603D01*
Y287008D01*
X117470D02*
Y290207D01*
X115871D01*
X115338Y289674D01*
Y288607D01*
X115871Y288074D01*
X117470D01*
X112672Y287008D02*
Y290207D01*
X114271Y288607D01*
X112139D01*
X83169Y275738D02*
X81037D01*
X82103D01*
Y272539D01*
X79970D02*
Y275738D01*
X78371D01*
X77838Y275205D01*
Y274139D01*
X78371Y273606D01*
X79970D01*
X76771Y272539D02*
X75705D01*
X76238D01*
Y275738D01*
X76771Y275205D01*
X98524Y297786D02*
X96391D01*
X97457D01*
Y294587D01*
X95325D02*
Y297786D01*
X93725D01*
X93192Y297252D01*
Y296186D01*
X93725Y295653D01*
X95325D01*
X89993Y294587D02*
X92126D01*
X89993Y296719D01*
Y297252D01*
X90526Y297786D01*
X91593D01*
X92126Y297252D01*
X221457Y274656D02*
X219324D01*
X220390D01*
Y271457D01*
X218258D02*
Y274656D01*
X216658D01*
X216125Y274123D01*
Y273056D01*
X216658Y272523D01*
X218258D01*
X212926Y274656D02*
X215059D01*
Y273056D01*
X213992Y273589D01*
X213459D01*
X212926Y273056D01*
Y271990D01*
X213459Y271457D01*
X214526D01*
X215059Y271990D01*
X228346Y303986D02*
X226214D01*
X227280D01*
Y300787D01*
X225148D02*
Y303986D01*
X223548D01*
X223015Y303453D01*
Y302387D01*
X223548Y301854D01*
X225148D01*
X219816Y303986D02*
X220882Y303453D01*
X221949Y302387D01*
Y301321D01*
X221415Y300787D01*
X220349D01*
X219816Y301321D01*
Y301854D01*
X220349Y302387D01*
X221949D01*
X279281Y301378D02*
Y299245D01*
Y300312D01*
X282480D01*
Y298179D02*
X279281D01*
Y296580D01*
X279815Y296046D01*
X280881D01*
X281414Y296580D01*
Y298179D01*
X279281Y294980D02*
Y292847D01*
X279815D01*
X281947Y294980D01*
X282480D01*
X270423Y301378D02*
Y299245D01*
Y300312D01*
X273622D01*
Y298179D02*
X270423D01*
Y296580D01*
X270956Y296046D01*
X272023D01*
X272556Y296580D01*
Y298179D01*
X270956Y294980D02*
X270423Y294447D01*
Y293380D01*
X270956Y292847D01*
X271489D01*
X272023Y293380D01*
X272556Y292847D01*
X273089D01*
X273622Y293380D01*
Y294447D01*
X273089Y294980D01*
X272556D01*
X272023Y294447D01*
X271489Y294980D01*
X270956D01*
X272023Y294447D02*
Y293380D01*
X143799Y165010D02*
X141667D01*
X142733D01*
Y161811D01*
X140600D02*
Y165010D01*
X139001D01*
X138468Y164477D01*
Y163410D01*
X139001Y162877D01*
X140600D01*
X137401Y161811D02*
X136335D01*
X136868D01*
Y165010D01*
X137401Y164477D01*
X134736D02*
X134202Y165010D01*
X133136D01*
X132603Y164477D01*
Y163944D01*
X133136Y163410D01*
X133669D01*
X133136D01*
X132603Y162877D01*
Y162344D01*
X133136Y161811D01*
X134202D01*
X134736Y162344D01*
X289567Y164912D02*
X287434D01*
X288501D01*
Y161713D01*
X286368D02*
Y164912D01*
X284769D01*
X284235Y164378D01*
Y163312D01*
X284769Y162779D01*
X286368D01*
X283169Y161713D02*
X282103D01*
X282636D01*
Y164912D01*
X283169Y164378D01*
X280503D02*
X279970Y164912D01*
X278904D01*
X278371Y164378D01*
Y163845D01*
X278904Y163312D01*
X278371Y162779D01*
Y162246D01*
X278904Y161713D01*
X279970D01*
X280503Y162246D01*
Y162779D01*
X279970Y163312D01*
X280503Y163845D01*
Y164378D01*
X279970Y163312D02*
X278904D01*
X260827Y19833D02*
X258694D01*
X259760D01*
Y16634D01*
X257628D02*
Y19833D01*
X256028D01*
X255495Y19300D01*
Y18233D01*
X256028Y17700D01*
X257628D01*
X254429Y16634D02*
X253362D01*
X253896D01*
Y19833D01*
X254429Y19300D01*
X251763Y19833D02*
X249630D01*
Y19300D01*
X251763Y17167D01*
Y16634D01*
X159941Y58416D02*
X157808D01*
X158875D01*
Y55216D01*
X156742D02*
Y58416D01*
X155142D01*
X154609Y57882D01*
Y56816D01*
X155142Y56283D01*
X156742D01*
X153543Y55216D02*
X152477D01*
X153010D01*
Y58416D01*
X153543Y57882D01*
X148745Y55216D02*
X150877D01*
X148745Y57349D01*
Y57882D01*
X149278Y58416D01*
X150344D01*
X150877Y57882D01*
X207972Y75345D02*
X205840D01*
X206906D01*
Y72146D01*
X204773D02*
Y75345D01*
X203174D01*
X202641Y74812D01*
Y73745D01*
X203174Y73212D01*
X204773D01*
X201574Y72146D02*
X200508D01*
X201041D01*
Y75345D01*
X201574Y74812D01*
X197309Y72146D02*
Y75345D01*
X198909Y73745D01*
X196776D01*
X207972Y58120D02*
X205840D01*
X206906D01*
Y54921D01*
X204773D02*
Y58120D01*
X203174D01*
X202641Y57587D01*
Y56521D01*
X203174Y55988D01*
X204773D01*
X201574Y54921D02*
X200508D01*
X201041D01*
Y58120D01*
X201574Y57587D01*
X196776Y58120D02*
X198909D01*
Y56521D01*
X197842Y57054D01*
X197309D01*
X196776Y56521D01*
Y55454D01*
X197309Y54921D01*
X198375D01*
X198909Y55454D01*
X207972Y43455D02*
X205840D01*
X206906D01*
Y40256D01*
X204773D02*
Y43455D01*
X203174D01*
X202641Y42922D01*
Y41855D01*
X203174Y41322D01*
X204773D01*
X201574Y40256D02*
X200508D01*
X201041D01*
Y43455D01*
X201574Y42922D01*
X196776Y43455D02*
X197842Y42922D01*
X198909Y41855D01*
Y40789D01*
X198375Y40256D01*
X197309D01*
X196776Y40789D01*
Y41322D01*
X197309Y41855D01*
X198909D01*
X62492Y74557D02*
X60359D01*
X61425D01*
Y71358D01*
X59293D02*
Y74557D01*
X57693D01*
X57160Y74024D01*
Y72958D01*
X57693Y72425D01*
X59293D01*
X56094Y71891D02*
X55561Y71358D01*
X54494D01*
X53961Y71891D01*
Y74024D01*
X54494Y74557D01*
X55561D01*
X56094Y74024D01*
Y73491D01*
X55561Y72958D01*
X53961D01*
X65158Y59105D02*
X63025D01*
X64091D01*
Y55905D01*
X61958D02*
Y59105D01*
X60359D01*
X59826Y58571D01*
Y57505D01*
X60359Y56972D01*
X61958D01*
X58759Y55905D02*
X57693D01*
X58226D01*
Y59105D01*
X58759Y58571D01*
X56094D02*
X55561Y59105D01*
X54494D01*
X53961Y58571D01*
Y56439D01*
X54494Y55905D01*
X55561D01*
X56094Y56439D01*
Y58571D01*
X71358Y26427D02*
X69226D01*
X70292D01*
Y23228D01*
X68159D02*
Y26427D01*
X66560D01*
X66027Y25894D01*
Y24828D01*
X66560Y24295D01*
X68159D01*
X64960Y23228D02*
X63894D01*
X64427D01*
Y26427D01*
X64960Y25894D01*
X62295Y23228D02*
X61228D01*
X61761D01*
Y26427D01*
X62295Y25894D01*
X245308Y245284D02*
X245842Y245817D01*
X246908D01*
X247441Y245284D01*
Y243151D01*
X246908Y242618D01*
X245842D01*
X245308Y243151D01*
Y244218D01*
X246375D01*
X244242Y242618D02*
Y245817D01*
X242109Y242618D01*
Y245817D01*
X241043D02*
Y242618D01*
X239443D01*
X238910Y243151D01*
Y245284D01*
X239443Y245817D01*
X241043D01*
X60367Y300402D02*
X60900Y300935D01*
X61967D01*
X62500Y300402D01*
Y298269D01*
X61967Y297736D01*
X60900D01*
X60367Y298269D01*
Y299336D01*
X61434D01*
X59301Y297736D02*
Y300935D01*
X57168Y297736D01*
Y300935D01*
X56102D02*
Y297736D01*
X54503D01*
X53969Y298269D01*
Y300402D01*
X54503Y300935D01*
X56102D01*
X85761Y199123D02*
X86294Y199656D01*
X87361D01*
X87894Y199123D01*
Y196990D01*
X87361Y196457D01*
X86294D01*
X85761Y196990D01*
Y198056D01*
X86827D01*
X84695Y196457D02*
Y199656D01*
X82562Y196457D01*
Y199656D01*
X81496D02*
Y196457D01*
X79896D01*
X79363Y196990D01*
Y199123D01*
X79896Y199656D01*
X81496D01*
X161122Y33071D02*
Y36270D01*
X159523D01*
X158989Y35737D01*
Y34670D01*
X159523Y34137D01*
X161122D01*
X160056D02*
X158989Y33071D01*
X155790Y36270D02*
X157923D01*
Y34670D01*
X156857D01*
X157923D01*
Y33071D01*
X154724Y32538D02*
X152592D01*
X149392Y35737D02*
X149926Y36270D01*
X150992D01*
X151525Y35737D01*
Y33604D01*
X150992Y33071D01*
X149926D01*
X149392Y33604D01*
Y34670D01*
X150459D01*
X148326Y33071D02*
Y36270D01*
X146194Y33071D01*
Y36270D01*
X145127D02*
Y33071D01*
X143528D01*
X142995Y33604D01*
Y35737D01*
X143528Y36270D01*
X145127D01*
X326017Y33473D02*
X326550Y34006D01*
X327616D01*
X328150Y33473D01*
Y31340D01*
X327616Y30807D01*
X326550D01*
X326017Y31340D01*
Y32407D01*
X327083D01*
X324951Y30807D02*
Y34006D01*
X322818Y30807D01*
Y34006D01*
X321752D02*
Y30807D01*
X320152D01*
X319619Y31340D01*
Y33473D01*
X320152Y34006D01*
X321752D01*
X310781Y155702D02*
X310248Y156235D01*
Y157301D01*
X310781Y157835D01*
X312913D01*
X313447Y157301D01*
Y156235D01*
X312913Y155702D01*
X311847D01*
Y156768D01*
X313447Y154636D02*
X310248D01*
X313447Y152503D01*
X310248D01*
Y151437D02*
X313447D01*
Y149837D01*
X312913Y149304D01*
X310781D01*
X310248Y149837D01*
Y151437D01*
X356663Y185689D02*
X358796D01*
X359862Y184623D01*
X358796Y183556D01*
X356663D01*
X357196Y180357D02*
X356663Y180891D01*
Y181957D01*
X357196Y182490D01*
X359329D01*
X359862Y181957D01*
Y180891D01*
X359329Y180357D01*
X357196Y177158D02*
X356663Y177692D01*
Y178758D01*
X357196Y179291D01*
X359329D01*
X359862Y178758D01*
Y177692D01*
X359329Y177158D01*
X360395Y176092D02*
Y173959D01*
X356663Y172893D02*
Y170761D01*
Y171827D01*
X359862D01*
X356663Y169694D02*
Y167561D01*
Y168628D01*
X359862D01*
X357196Y164363D02*
X356663Y164896D01*
Y165962D01*
X357196Y166495D01*
X359329D01*
X359862Y165962D01*
Y164896D01*
X359329Y164363D01*
X303986Y339993D02*
Y341060D01*
Y340527D01*
X306652D01*
X307185Y341060D01*
Y341593D01*
X306652Y342126D01*
X303986Y338927D02*
Y336794D01*
Y337861D01*
X307185D01*
Y335728D02*
X305052D01*
X303986Y334662D01*
X305052Y333595D01*
X307185D01*
X305586D01*
Y335728D01*
X304519Y330396D02*
X303986Y330930D01*
Y331996D01*
X304519Y332529D01*
X306652D01*
X307185Y331996D01*
Y330930D01*
X306652Y330396D01*
X305586D01*
Y331463D01*
X246555Y320177D02*
Y323376D01*
X244956D01*
X244423Y322843D01*
Y321777D01*
X244956Y321244D01*
X246555D01*
X245489D02*
X244423Y320177D01*
X243356D02*
Y322310D01*
X242290Y323376D01*
X241224Y322310D01*
Y320177D01*
Y321777D01*
X243356D01*
X240157Y323376D02*
Y320177D01*
X238558D01*
X238024Y320710D01*
Y322843D01*
X238558Y323376D01*
X240157D01*
X236958D02*
X235892D01*
X236425D01*
Y320177D01*
X236958D01*
X235892D01*
X232693Y323376D02*
X233759D01*
X234292Y322843D01*
Y320710D01*
X233759Y320177D01*
X232693D01*
X232160Y320710D01*
Y322843D01*
X232693Y323376D01*
X231093Y320177D02*
X230027D01*
X230560D01*
Y323376D01*
X231093Y322843D01*
X108465Y345571D02*
X105266D01*
Y343971D01*
X105799Y343438D01*
X106865D01*
X107398Y343971D01*
Y345571D01*
Y344505D02*
X108465Y343438D01*
Y342372D02*
X106332D01*
X105266Y341306D01*
X106332Y340239D01*
X108465D01*
X106865D01*
Y342372D01*
X105266Y339173D02*
X108465D01*
Y337574D01*
X107931Y337040D01*
X105799D01*
X105266Y337574D01*
Y339173D01*
Y335974D02*
Y334908D01*
Y335441D01*
X108465D01*
Y335974D01*
Y334908D01*
X105266Y331709D02*
Y332775D01*
X105799Y333308D01*
X107931D01*
X108465Y332775D01*
Y331709D01*
X107931Y331175D01*
X105799D01*
X105266Y331709D01*
X105799Y330109D02*
X105266Y329576D01*
Y328510D01*
X105799Y327976D01*
X107931D01*
X108465Y328510D01*
Y329576D01*
X107931Y330109D01*
X105799D01*
X26230Y344980D02*
X28363D01*
X29429Y343914D01*
X28363Y342848D01*
X26230D01*
X26763Y339649D02*
X26230Y340182D01*
Y341248D01*
X26763Y341781D01*
X28896D01*
X29429Y341248D01*
Y340182D01*
X28896Y339649D01*
X26763Y336450D02*
X26230Y336983D01*
Y338049D01*
X26763Y338582D01*
X28896D01*
X29429Y338049D01*
Y336983D01*
X28896Y336450D01*
X29962Y335383D02*
Y333251D01*
X26230Y330052D02*
Y331118D01*
Y330585D01*
X28896D01*
X29429Y331118D01*
Y331651D01*
X28896Y332184D01*
X26230Y328986D02*
Y326853D01*
Y327919D01*
X29429D01*
Y325786D02*
X27297D01*
X26230Y324720D01*
X27297Y323654D01*
X29429D01*
X27830D01*
Y325786D01*
X26763Y320455D02*
X26230Y320988D01*
Y322054D01*
X26763Y322587D01*
X28896D01*
X29429Y322054D01*
Y320988D01*
X28896Y320455D01*
X27830D01*
Y321521D01*
X64321Y323425D02*
Y321293D01*
Y322359D01*
X67520D01*
X64854Y318094D02*
X64321Y318627D01*
Y319693D01*
X64854Y320226D01*
X66987D01*
X67520Y319693D01*
Y318627D01*
X66987Y318094D01*
X64321Y317027D02*
X67520D01*
X66453D01*
X64321Y314895D01*
X65920Y316494D01*
X67520Y314895D01*
X34892Y324213D02*
Y322080D01*
Y323146D01*
X38091D01*
X34892Y321014D02*
X38091D01*
Y319414D01*
X37557Y318881D01*
X35425D01*
X34892Y319414D01*
Y321014D01*
Y316215D02*
Y317282D01*
X35425Y317815D01*
X37557D01*
X38091Y317282D01*
Y316215D01*
X37557Y315682D01*
X35425D01*
X34892Y316215D01*
X38624Y314616D02*
Y312483D01*
X34892Y311417D02*
Y309284D01*
Y310350D01*
X38091D01*
X34892Y308218D02*
X38091D01*
Y306618D01*
X37557Y306085D01*
X35425D01*
X34892Y306618D01*
Y308218D01*
Y305019D02*
Y303953D01*
Y304486D01*
X38091D01*
Y305019D01*
Y303953D01*
X227854Y332727D02*
X225722D01*
X226788D01*
Y329528D01*
X224655Y332727D02*
Y329528D01*
X223056D01*
X222523Y330061D01*
Y332193D01*
X223056Y332727D01*
X224655D01*
X219857D02*
X220923D01*
X221456Y332193D01*
Y330061D01*
X220923Y329528D01*
X219857D01*
X219324Y330061D01*
Y332193D01*
X219857Y332727D01*
X218257Y328994D02*
X216125D01*
X215058Y332727D02*
X212926D01*
X213992D01*
Y329528D01*
X211859Y332727D02*
Y329528D01*
X210260D01*
X209727Y330061D01*
Y332193D01*
X210260Y332727D01*
X211859D01*
X208661D02*
X207594D01*
X208127D01*
Y329528D01*
X208661D01*
X207594D01*
X263041Y323721D02*
Y321588D01*
Y322654D01*
X266240D01*
X263574Y318389D02*
X263041Y318922D01*
Y319988D01*
X263574Y320521D01*
X265707D01*
X266240Y319988D01*
Y318922D01*
X265707Y318389D01*
X263041Y317322D02*
X266240D01*
X265174D01*
X263041Y315190D01*
X264641Y316789D01*
X266240Y315190D01*
X317618Y323967D02*
Y321834D01*
X316552Y320768D01*
X315486Y321834D01*
Y323967D01*
X312286Y323433D02*
X312820Y323967D01*
X313886D01*
X314419Y323433D01*
Y321301D01*
X313886Y320768D01*
X312820D01*
X312286Y321301D01*
X309087Y323433D02*
X309621Y323967D01*
X310687D01*
X311220Y323433D01*
Y321301D01*
X310687Y320768D01*
X309621D01*
X309087Y321301D01*
X319439Y342848D02*
Y343914D01*
Y343381D01*
X322105D01*
X322638Y343914D01*
Y344447D01*
X322105Y344980D01*
X319439Y341781D02*
X322105D01*
X322638Y341248D01*
Y340182D01*
X322105Y339649D01*
X319439D01*
X322638Y338582D02*
X319439D01*
X320505Y337516D01*
X319439Y336450D01*
X322638D01*
Y335383D02*
X319439D01*
Y333784D01*
X319972Y333251D01*
X321038D01*
X321571Y333784D01*
Y335383D01*
X319439Y330052D02*
Y332184D01*
X322638D01*
Y330052D01*
X321038Y332184D02*
Y331118D01*
X322638Y328986D02*
X319439D01*
Y327386D01*
X319972Y326853D01*
X321038D01*
X321571Y327386D01*
Y328986D01*
Y327919D02*
X322638Y326853D01*
X227854Y343455D02*
Y341322D01*
X226788Y340256D01*
X225722Y341322D01*
Y343455D01*
X222523Y342922D02*
X223056Y343455D01*
X224122D01*
X224655Y342922D01*
Y340789D01*
X224122Y340256D01*
X223056D01*
X222523Y340789D01*
X219324Y342922D02*
X219857Y343455D01*
X220923D01*
X221456Y342922D01*
Y340789D01*
X220923Y340256D01*
X219857D01*
X219324Y340789D01*
X218257Y339723D02*
X216125D01*
X212926Y343455D02*
X213992D01*
X213459D01*
Y340789D01*
X213992Y340256D01*
X214525D01*
X215058Y340789D01*
X211859Y343455D02*
X209727D01*
X210793D01*
Y340256D01*
X208661D02*
Y342389D01*
X207594Y343455D01*
X206528Y342389D01*
Y340256D01*
Y341855D01*
X208661D01*
X203329Y342922D02*
X203862Y343455D01*
X204928D01*
X205462Y342922D01*
Y340789D01*
X204928Y340256D01*
X203862D01*
X203329Y340789D01*
Y341855D01*
X204395D01*
X78576Y310933D02*
X79109Y311467D01*
X80176D01*
X80709Y310933D01*
Y308801D01*
X80176Y308268D01*
X79109D01*
X78576Y308801D01*
Y309867D01*
X79642D01*
X77510Y308268D02*
Y311467D01*
X75377Y308268D01*
Y311467D01*
X74311D02*
Y308268D01*
X72711D01*
X72178Y308801D01*
Y310933D01*
X72711Y311467D01*
X74311D01*
X89370Y308071D02*
Y311270D01*
X87771D01*
X87237Y310737D01*
Y309670D01*
X87771Y309137D01*
X89370D01*
X88304D02*
X87237Y308071D01*
X86171Y311270D02*
X84039Y308071D01*
Y311270D02*
X86171Y308071D01*
X100098Y311270D02*
X97966D01*
X99032D01*
Y308071D01*
X96899Y311270D02*
X94767Y308071D01*
Y311270D02*
X96899Y308071D01*
X276509Y310933D02*
X277042Y311467D01*
X278109D01*
X278642Y310933D01*
Y308801D01*
X278109Y308268D01*
X277042D01*
X276509Y308801D01*
Y309867D01*
X277575D01*
X275443Y308268D02*
Y311467D01*
X273310Y308268D01*
Y311467D01*
X272244D02*
Y308268D01*
X270644D01*
X270111Y308801D01*
Y310933D01*
X270644Y311467D01*
X272244D01*
X296260Y311368D02*
X294127D01*
X295194D01*
Y308169D01*
X293061Y311368D02*
X290928Y308169D01*
Y311368D02*
X293061Y308169D01*
X287106D02*
Y311368D01*
X285507D01*
X284974Y310835D01*
Y309769D01*
X285507Y309236D01*
X287106D01*
X286040D02*
X284974Y308169D01*
X283907Y311368D02*
X281775Y308169D01*
Y311368D02*
X283907Y308169D01*
X333989Y314419D02*
X336122D01*
Y311221D01*
X333989D01*
X336122Y312820D02*
X335056D01*
X332923Y311221D02*
Y313353D01*
X331857Y314419D01*
X330790Y313353D01*
Y311221D01*
Y312820D01*
X332923D01*
X329724Y311221D02*
Y314419D01*
X328125D01*
X327591Y313886D01*
Y312820D01*
X328125Y312287D01*
X329724D01*
X328658D02*
X327591Y311221D01*
X326525Y314419D02*
X324393D01*
X325459D01*
Y311221D01*
X323326Y314419D02*
Y311221D01*
Y312820D01*
X321194D01*
Y314419D01*
Y311221D01*
X320127D02*
X317995Y313353D01*
X314796Y313886D02*
X315329Y314419D01*
X316395D01*
X316928Y313886D01*
Y311754D01*
X316395Y311221D01*
X315329D01*
X314796Y311754D01*
Y312820D01*
X315862D01*
X313729Y311221D02*
Y314419D01*
X311597Y311221D01*
Y314419D01*
X310530D02*
Y311221D01*
X308931D01*
X308398Y311754D01*
Y313886D01*
X308931Y314419D01*
X310530D01*
X336844Y309498D02*
X338976D01*
Y306299D01*
X336844D01*
X338976Y307899D02*
X337910D01*
X333645Y308965D02*
X334178Y309498D01*
X335244D01*
X335777Y308965D01*
Y308432D01*
X335244Y307899D01*
X334178D01*
X333645Y307365D01*
Y306832D01*
X334178Y306299D01*
X335244D01*
X335777Y306832D01*
X332578Y309498D02*
Y306299D01*
X330979D01*
X330446Y306832D01*
Y308965D01*
X330979Y309498D01*
X332578D01*
X326181D02*
X325114D01*
X325647D01*
Y306299D01*
X326181D01*
X325114D01*
X323515D02*
Y309498D01*
X321382Y306299D01*
Y309498D01*
X320316D02*
X318183D01*
X319249D01*
Y306299D01*
X314984Y309498D02*
X317117D01*
Y306299D01*
X314984D01*
X317117Y307899D02*
X316050D01*
X313918Y306299D02*
Y309498D01*
X312318D01*
X311785Y308965D01*
Y307899D01*
X312318Y307365D01*
X313918D01*
X312852D02*
X311785Y306299D01*
X308586Y309498D02*
X310719D01*
Y307899D01*
X309652D01*
X310719D01*
Y306299D01*
X307520D02*
Y308432D01*
X306453Y309498D01*
X305387Y308432D01*
Y306299D01*
Y307899D01*
X307520D01*
X302188Y308965D02*
X302721Y309498D01*
X303788D01*
X304321Y308965D01*
Y306832D01*
X303788Y306299D01*
X302721D01*
X302188Y306832D01*
X298989Y309498D02*
X301122D01*
Y306299D01*
X298989D01*
X301122Y307899D02*
X300056D01*
X43799Y129528D02*
Y132727D01*
X42733Y131660D01*
X41667Y132727D01*
Y129528D01*
X38468Y132193D02*
X39001Y132727D01*
X40067D01*
X40600Y132193D01*
Y130061D01*
X40067Y129528D01*
X39001D01*
X38468Y130061D01*
X37401Y132727D02*
X35269Y129528D01*
Y132727D02*
X37401Y129528D01*
X34202Y128994D02*
X32070D01*
X31003Y129528D02*
Y132727D01*
X29404D01*
X28871Y132193D01*
Y131127D01*
X29404Y130594D01*
X31003D01*
X29937D02*
X28871Y129528D01*
X27804D02*
Y131660D01*
X26738Y132727D01*
X25672Y131660D01*
Y129528D01*
Y131127D01*
X27804D01*
X24605Y132193D02*
X24072Y132727D01*
X23006D01*
X22473Y132193D01*
Y130061D01*
X23006Y129528D01*
X24072D01*
X24605Y130061D01*
Y132193D01*
X190453Y129528D02*
Y132727D01*
X189386Y131660D01*
X188320Y132727D01*
Y129528D01*
X185121Y132193D02*
X185654Y132727D01*
X186721D01*
X187254Y132193D01*
Y130061D01*
X186721Y129528D01*
X185654D01*
X185121Y130061D01*
X184055Y132727D02*
X181922Y129528D01*
Y132727D02*
X184055Y129528D01*
X180856Y128994D02*
X178723D01*
X177657Y129528D02*
Y132727D01*
X176057D01*
X175524Y132193D01*
Y131127D01*
X176057Y130594D01*
X177657D01*
X176591D02*
X175524Y129528D01*
X174458D02*
Y131660D01*
X173392Y132727D01*
X172325Y131660D01*
Y129528D01*
Y131127D01*
X174458D01*
X171259Y129528D02*
X170193D01*
X170726D01*
Y132727D01*
X171259Y132193D01*
X313779Y201673D02*
X311647D01*
X310581Y200607D01*
X311647Y199541D01*
X313779D01*
X312180D01*
Y201673D01*
X310581Y198474D02*
X313779D01*
Y196875D01*
X313246Y196342D01*
X311114D01*
X310581Y196875D01*
Y198474D01*
Y195275D02*
X313779D01*
Y193676D01*
X313246Y193143D01*
X311114D01*
X310581Y193676D01*
Y195275D01*
X314313Y192076D02*
Y189944D01*
X311114Y186745D02*
X310581Y187278D01*
Y188344D01*
X311114Y188877D01*
X313246D01*
X313779Y188344D01*
Y187278D01*
X313246Y186745D01*
X312180D01*
Y187811D01*
X313779Y185678D02*
X310581D01*
Y184079D01*
X311114Y183546D01*
X312180D01*
X312713Y184079D01*
Y185678D01*
X310581Y182479D02*
Y181413D01*
Y181946D01*
X313779D01*
Y182479D01*
Y181413D01*
X310581Y178214D02*
Y179280D01*
X311114Y179814D01*
X313246D01*
X313779Y179280D01*
Y178214D01*
X313246Y177681D01*
X311114D01*
X310581Y178214D01*
X313779Y175015D02*
X310581D01*
X312180Y176615D01*
Y174482D01*
X312894Y278839D02*
Y282038D01*
X311294D01*
X310761Y281504D01*
Y280438D01*
X311294Y279905D01*
X312894D01*
X311827D02*
X310761Y278839D01*
X309695D02*
Y280971D01*
X308628Y282038D01*
X307562Y280971D01*
Y278839D01*
Y280438D01*
X309695D01*
X306496Y278839D02*
X305429D01*
X305963D01*
Y282038D01*
X306496Y281504D01*
X303830Y278305D02*
X301697D01*
X298498Y282038D02*
X300631D01*
Y278839D01*
X298498D01*
X300631Y280438D02*
X299565D01*
X297432Y278839D02*
Y282038D01*
X295832D01*
X295299Y281504D01*
Y280438D01*
X295832Y279905D01*
X297432D01*
X292100Y281504D02*
X292634Y282038D01*
X293700D01*
X294233Y281504D01*
Y280971D01*
X293700Y280438D01*
X292634D01*
X292100Y279905D01*
Y279372D01*
X292634Y278839D01*
X293700D01*
X294233Y279372D01*
X291034Y278305D02*
X288901D01*
X287835Y282038D02*
Y279372D01*
X287302Y278839D01*
X286236D01*
X285702Y279372D01*
Y282038D01*
X284636Y278839D02*
Y280971D01*
X283570Y282038D01*
X282504Y280971D01*
Y278839D01*
Y280438D01*
X284636D01*
X281437Y278839D02*
Y282038D01*
X279838D01*
X279305Y281504D01*
Y280438D01*
X279838Y279905D01*
X281437D01*
X280371D02*
X279305Y278839D01*
X278238Y282038D02*
X276106D01*
X277172D01*
Y278839D01*
X313779Y137008D02*
X310581D01*
Y135408D01*
X311114Y134875D01*
X312180D01*
X312713Y135408D01*
Y137008D01*
Y135942D02*
X313779Y134875D01*
Y133809D02*
X311647D01*
X310581Y132743D01*
X311647Y131676D01*
X313779D01*
X312180D01*
Y133809D01*
X311114Y130610D02*
X310581Y130077D01*
Y129010D01*
X311114Y128477D01*
X313246D01*
X313779Y129010D01*
Y130077D01*
X313246Y130610D01*
X311114D01*
X314313Y127411D02*
Y125278D01*
X310581Y122613D02*
Y123679D01*
X311114Y124212D01*
X313246D01*
X313779Y123679D01*
Y122613D01*
X313246Y122079D01*
X311114D01*
X310581Y122613D01*
Y121013D02*
X313779D01*
Y119413D01*
X313246Y118880D01*
X312713D01*
X312180Y119413D01*
Y121013D01*
Y119413D01*
X311647Y118880D01*
X311114D01*
X310581Y119413D01*
Y121013D01*
Y117814D02*
X313779D01*
Y116215D01*
X313246Y115681D01*
X311114D01*
X310581Y116215D01*
Y117814D01*
Y114615D02*
X313779D01*
X312180D01*
Y112482D01*
X310581D01*
X313779D01*
X314313Y111416D02*
Y109283D01*
X311114Y106085D02*
X310581Y106618D01*
Y107684D01*
X311114Y108217D01*
X311647D01*
X312180Y107684D01*
Y106618D01*
X312713Y106085D01*
X313246D01*
X313779Y106618D01*
Y107684D01*
X313246Y108217D01*
X313779Y105018D02*
X310581D01*
Y103419D01*
X311114Y102885D01*
X312180D01*
X312713Y103419D01*
Y105018D01*
X310581Y101819D02*
Y100753D01*
Y101286D01*
X313779D01*
Y101819D01*
Y100753D01*
X313681Y60778D02*
Y58645D01*
X312615Y57579D01*
X311548Y58645D01*
Y60778D01*
X308349Y60245D02*
X308883Y60778D01*
X309949D01*
X310482Y60245D01*
Y58112D01*
X309949Y57579D01*
X308883D01*
X308349Y58112D01*
X305151Y60245D02*
X305684Y60778D01*
X306750D01*
X307283Y60245D01*
Y58112D01*
X306750Y57579D01*
X305684D01*
X305151Y58112D01*
X304084Y57046D02*
X301952D01*
X300885Y57579D02*
Y60778D01*
X299286D01*
X298753Y60245D01*
Y59178D01*
X299286Y58645D01*
X300885D01*
X299819D02*
X298753Y57579D01*
X297686D02*
Y59711D01*
X296620Y60778D01*
X295554Y59711D01*
Y57579D01*
Y59178D01*
X297686D01*
X294487Y60245D02*
X293954Y60778D01*
X292888D01*
X292355Y60245D01*
Y58112D01*
X292888Y57579D01*
X293954D01*
X294487Y58112D01*
Y60245D01*
X313681Y50738D02*
Y48606D01*
X312615Y47539D01*
X311548Y48606D01*
Y50738D01*
X308349Y50205D02*
X308883Y50738D01*
X309949D01*
X310482Y50205D01*
Y48072D01*
X309949Y47539D01*
X308883D01*
X308349Y48072D01*
X305151Y50205D02*
X305684Y50738D01*
X306750D01*
X307283Y50205D01*
Y48072D01*
X306750Y47539D01*
X305684D01*
X305151Y48072D01*
X304084Y47006D02*
X301952D01*
X300885Y47539D02*
Y50738D01*
X299286D01*
X298753Y50205D01*
Y49139D01*
X299286Y48606D01*
X300885D01*
X299819D02*
X298753Y47539D01*
X297686D02*
Y49672D01*
X296620Y50738D01*
X295554Y49672D01*
Y47539D01*
Y49139D01*
X297686D01*
X294487Y47539D02*
X293421D01*
X293954D01*
Y50738D01*
X294487Y50205D01*
X357730Y155702D02*
X357196Y156235D01*
Y157301D01*
X357730Y157835D01*
X359862D01*
X360395Y157301D01*
Y156235D01*
X359862Y155702D01*
X358796D01*
Y156768D01*
X360395Y154636D02*
X357196D01*
X360395Y152503D01*
X357196D01*
Y151437D02*
X360395D01*
Y149837D01*
X359862Y149304D01*
X357730D01*
X357196Y149837D01*
Y151437D01*
X356663Y139626D02*
X358796D01*
X359862Y138560D01*
X358796Y137493D01*
X356663D01*
X357196Y134294D02*
X356663Y134827D01*
Y135894D01*
X357196Y136427D01*
X359329D01*
X359862Y135894D01*
Y134827D01*
X359329Y134294D01*
X357196Y131095D02*
X356663Y131629D01*
Y132695D01*
X357196Y133228D01*
X359329D01*
X359862Y132695D01*
Y131629D01*
X359329Y131095D01*
X360395Y130029D02*
Y127896D01*
X359862Y126830D02*
X357730D01*
X356663Y125764D01*
X357730Y124697D01*
X359862D01*
X358263D01*
Y126830D01*
X359862Y123631D02*
X356663D01*
X359862Y121499D01*
X356663D01*
Y120432D02*
Y118299D01*
Y119366D01*
X359862D01*
Y261221D02*
X356663D01*
Y259621D01*
X357196Y259088D01*
X358263D01*
X358796Y259621D01*
Y261221D01*
Y260154D02*
X359862Y259088D01*
Y258021D02*
X357730D01*
X356663Y256955D01*
X357730Y255889D01*
X359862D01*
X358263D01*
Y258021D01*
X359862Y254822D02*
Y253756D01*
Y254289D01*
X356663D01*
X357196Y254822D01*
X360395Y252157D02*
Y250024D01*
X356663Y247358D02*
Y248425D01*
X357196Y248958D01*
X359329D01*
X359862Y248425D01*
Y247358D01*
X359329Y246825D01*
X357196D01*
X356663Y247358D01*
Y245759D02*
X359862D01*
Y244159D01*
X359329Y243626D01*
X358796D01*
X358263Y244159D01*
Y245759D01*
Y244159D01*
X357730Y243626D01*
X357196D01*
X356663Y244159D01*
Y245759D01*
Y242560D02*
X359862D01*
Y240960D01*
X359329Y240427D01*
X357196D01*
X356663Y240960D01*
Y242560D01*
Y239361D02*
X359862D01*
X358263D01*
Y237228D01*
X356663D01*
X359862D01*
X360395Y236162D02*
Y234029D01*
X357196Y230830D02*
X356663Y231363D01*
Y232430D01*
X357196Y232963D01*
X357730D01*
X358263Y232430D01*
Y231363D01*
X358796Y230830D01*
X359329D01*
X359862Y231363D01*
Y232430D01*
X359329Y232963D01*
X359862Y229764D02*
X356663D01*
Y228165D01*
X357196Y227631D01*
X358263D01*
X358796Y228165D01*
Y229764D01*
X356663Y226565D02*
Y225499D01*
Y226032D01*
X359862D01*
Y226565D01*
Y225499D01*
X313779Y261811D02*
X310581D01*
Y260211D01*
X311114Y259678D01*
X312180D01*
X312713Y260211D01*
Y261811D01*
Y260745D02*
X313779Y259678D01*
Y258612D02*
X311647D01*
X310581Y257546D01*
X311647Y256479D01*
X313779D01*
X312180D01*
Y258612D01*
X310581Y255413D02*
X313779D01*
Y253814D01*
X313246Y253280D01*
X311114D01*
X310581Y253814D01*
Y255413D01*
Y252214D02*
Y251148D01*
Y251681D01*
X313779D01*
Y252214D01*
Y251148D01*
X310581Y247949D02*
Y249015D01*
X311114Y249548D01*
X313246D01*
X313779Y249015D01*
Y247949D01*
X313246Y247416D01*
X311114D01*
X310581Y247949D01*
X311114Y244217D02*
X310581Y244750D01*
Y245816D01*
X311114Y246349D01*
X311647D01*
X312180Y245816D01*
Y244750D01*
X312713Y244217D01*
X313246D01*
X313779Y244750D01*
Y245816D01*
X313246Y246349D01*
X314313Y243150D02*
Y241018D01*
X310581Y237819D02*
Y239951D01*
X313779D01*
Y237819D01*
X312180Y239951D02*
Y238885D01*
X313779Y236752D02*
X310581D01*
X313779Y234620D01*
X310581D01*
X359862Y113583D02*
X357730D01*
X356663Y112516D01*
X357730Y111450D01*
X359862D01*
X358263D01*
Y113583D01*
X356663Y110384D02*
X359862D01*
Y108784D01*
X359329Y108251D01*
X357196D01*
X356663Y108784D01*
Y110384D01*
Y107185D02*
X359862D01*
Y105585D01*
X359329Y105052D01*
X357196D01*
X356663Y105585D01*
Y107185D01*
X360395Y103986D02*
Y101853D01*
X357196Y98654D02*
X356663Y99187D01*
Y100254D01*
X357196Y100787D01*
X359329D01*
X359862Y100254D01*
Y99187D01*
X359329Y98654D01*
X358263D01*
Y99721D01*
X359862Y97588D02*
X356663D01*
Y95988D01*
X357196Y95455D01*
X358263D01*
X358796Y95988D01*
Y97588D01*
X356663Y94389D02*
Y93322D01*
Y93856D01*
X359862D01*
Y94389D01*
Y93322D01*
X356663Y90124D02*
Y91190D01*
X357196Y91723D01*
X359329D01*
X359862Y91190D01*
Y90124D01*
X359329Y89590D01*
X357196D01*
X356663Y90124D01*
X357196Y88524D02*
X356663Y87991D01*
Y86925D01*
X357196Y86391D01*
X357730D01*
X358263Y86925D01*
Y87458D01*
Y86925D01*
X358796Y86391D01*
X359329D01*
X359862Y86925D01*
Y87991D01*
X359329Y88524D01*
X313779Y230413D02*
X311647D01*
X310581Y229347D01*
X311647Y228281D01*
X313779D01*
X312180D01*
Y230413D01*
X310581Y227214D02*
X313779D01*
Y225615D01*
X313246Y225082D01*
X311114D01*
X310581Y225615D01*
Y227214D01*
Y224015D02*
X313779D01*
Y222416D01*
X313246Y221883D01*
X311114D01*
X310581Y222416D01*
Y224015D01*
X314313Y220816D02*
Y218684D01*
X310581Y217618D02*
X313246D01*
X313779Y217084D01*
Y216018D01*
X313246Y215485D01*
X310581D01*
X313779Y214419D02*
X311647D01*
X310581Y213352D01*
X311647Y212286D01*
X313779D01*
X312180D01*
Y214419D01*
X313779Y211220D02*
X310581D01*
Y209620D01*
X311114Y209087D01*
X312180D01*
X312713Y209620D01*
Y211220D01*
Y210153D02*
X313779Y209087D01*
X310581Y208021D02*
Y205888D01*
Y206954D01*
X313779D01*
X359862Y220433D02*
X357730D01*
X356663Y219367D01*
X357730Y218300D01*
X359862D01*
X358263D01*
Y220433D01*
X356663Y217234D02*
X359862D01*
Y215635D01*
X359329Y215102D01*
X357196D01*
X356663Y215635D01*
Y217234D01*
Y214035D02*
X359862D01*
Y212436D01*
X359329Y211902D01*
X357196D01*
X356663Y212436D01*
Y214035D01*
X360395Y210836D02*
Y208703D01*
X357196Y205505D02*
X356663Y206038D01*
Y207104D01*
X357196Y207637D01*
X359329D01*
X359862Y207104D01*
Y206038D01*
X359329Y205505D01*
X358263D01*
Y206571D01*
X359862Y204438D02*
X356663D01*
Y202839D01*
X357196Y202306D01*
X358263D01*
X358796Y202839D01*
Y204438D01*
X356663Y201239D02*
Y200173D01*
Y200706D01*
X359862D01*
Y201239D01*
Y200173D01*
X356663Y196974D02*
Y198040D01*
X357196Y198574D01*
X359329D01*
X359862Y198040D01*
Y196974D01*
X359329Y196441D01*
X357196D01*
X356663Y196974D01*
X359862Y293110D02*
X357730D01*
X356663Y292044D01*
X357730Y290978D01*
X359862D01*
X358263D01*
Y293110D01*
X356663Y289911D02*
X359862D01*
Y288312D01*
X359329Y287779D01*
X357196D01*
X356663Y288312D01*
Y289911D01*
Y286712D02*
X359862D01*
Y285113D01*
X359329Y284580D01*
X357196D01*
X356663Y285113D01*
Y286712D01*
X360395Y283513D02*
Y281381D01*
X357196Y278182D02*
X356663Y278715D01*
Y279781D01*
X357196Y280314D01*
X359329D01*
X359862Y279781D01*
Y278715D01*
X359329Y278182D01*
X358263D01*
Y279248D01*
X359862Y277115D02*
X356663D01*
Y275516D01*
X357196Y274983D01*
X358263D01*
X358796Y275516D01*
Y277115D01*
X356663Y273916D02*
Y272850D01*
Y273383D01*
X359862D01*
Y273916D01*
Y272850D01*
X356663Y269651D02*
Y270718D01*
X357196Y271251D01*
X359329D01*
X359862Y270718D01*
Y269651D01*
X359329Y269118D01*
X357196D01*
X356663Y269651D01*
Y265919D02*
Y268052D01*
X358263D01*
X357730Y266985D01*
Y266452D01*
X358263Y265919D01*
X359329D01*
X359862Y266452D01*
Y267518D01*
X359329Y268052D01*
X62598Y14848D02*
X60466D01*
X61532Y15914D02*
Y13781D01*
X59399Y16447D02*
X57267Y13248D01*
Y16447D02*
X59399Y13248D01*
X41339Y10221D02*
X39206D01*
X38140Y11821D02*
X36007D01*
Y11288D01*
X38140Y9155D01*
Y8622D01*
X36007D01*
X47638Y29611D02*
X45505D01*
X46571Y30678D02*
Y28545D01*
X44439Y31211D02*
Y30678D01*
X43372Y29611D01*
X42306Y30678D01*
Y31211D01*
X43372Y29611D02*
Y28012D01*
X256693Y220276D02*
X254431Y222538D01*
X253300Y221407D01*
X253300Y220653D01*
X254054Y219899D01*
X254808D01*
X255939Y221030D01*
X255185Y220276D02*
Y218768D01*
X252923Y216506D02*
X254431Y218014D01*
X251415D01*
X251038Y218391D01*
X251038Y219145D01*
X251792Y219899D01*
X252546Y219899D01*
X250284Y217637D02*
X249530Y217637D01*
X248776Y216883D01*
Y216129D01*
X249153Y215752D01*
X249907D01*
Y214998D01*
X250284Y214621D01*
X251038D01*
X251792Y215375D01*
Y216129D01*
X251415Y216506D01*
X250661D01*
Y217260D01*
X250284Y217637D01*
X250661Y216506D02*
X249907Y215752D01*
X106693Y236811D02*
Y240010D01*
X105093D01*
X104560Y239477D01*
Y238410D01*
X105093Y237877D01*
X106693D01*
X105627D02*
X104560Y236811D01*
X103494D02*
X102428D01*
X102961D01*
Y240010D01*
X103494Y239477D01*
X100828Y236811D02*
X99762D01*
X100295D01*
Y240010D01*
X100828Y239477D01*
X280380Y179459D02*
X281134Y178705D01*
X280757Y179082D01*
X278872Y177197D01*
Y176443D01*
X279249Y176066D01*
X280003D01*
X276987Y177574D02*
X275479Y179082D01*
X277364Y182475D02*
X275856Y180967D01*
X274348D01*
Y182475D01*
X275856Y183983D01*
X274725Y184360D02*
Y185114D01*
X273971Y185868D01*
X273217Y185868D01*
X272840Y185491D01*
Y184737D01*
X273217Y184360D01*
X272840Y184737D01*
X272086D01*
X271709Y184360D01*
Y183606D01*
X272463Y182852D01*
X273217D01*
X120524Y259137D02*
X120524Y259891D01*
X121278Y260645D01*
X122032D01*
X123540Y259137D01*
Y258383D01*
X122786Y257629D01*
X122032D01*
X121655Y256498D02*
X120901Y255744D01*
X121278Y256121D01*
X119016Y258383D01*
X119770Y258383D01*
X116000Y255367D02*
X117508Y256875D01*
X118639Y255744D01*
X117508Y255367D01*
X117131Y254990D01*
Y254236D01*
X117885Y253482D01*
X118639D01*
X119393Y254236D01*
Y254990D01*
X296949Y218160D02*
Y215494D01*
X296416Y214961D01*
X295349D01*
X294816Y215494D01*
Y218160D01*
X293750Y214961D02*
X292684D01*
X293217D01*
Y218160D01*
X293750Y217626D01*
X291084D02*
X290551Y218160D01*
X289485D01*
X288951Y217626D01*
Y215494D01*
X289485Y214961D01*
X290551D01*
X291084Y215494D01*
Y217626D01*
X215650Y287648D02*
Y284982D01*
X215116Y284449D01*
X214050D01*
X213517Y284982D01*
Y287648D01*
X212451Y284982D02*
X211917Y284449D01*
X210851D01*
X210318Y284982D01*
Y287115D01*
X210851Y287648D01*
X211917D01*
X212451Y287115D01*
Y286581D01*
X211917Y286048D01*
X210318D01*
X186122Y237549D02*
Y234884D01*
X185589Y234350D01*
X184523D01*
X183989Y234884D01*
Y237549D01*
X182923Y237016D02*
X182390Y237549D01*
X181324D01*
X180790Y237016D01*
Y236483D01*
X181324Y235950D01*
X180790Y235417D01*
Y234884D01*
X181324Y234350D01*
X182390D01*
X182923Y234884D01*
Y235417D01*
X182390Y235950D01*
X182923Y236483D01*
Y237016D01*
X182390Y235950D02*
X181324D01*
X130807Y218553D02*
Y215887D01*
X130274Y215354D01*
X129208D01*
X128674Y215887D01*
Y218553D01*
X125476D02*
X127608D01*
Y216954D01*
X126542Y217487D01*
X126009D01*
X125476Y216954D01*
Y215887D01*
X126009Y215354D01*
X127075D01*
X127608Y215887D01*
X134350Y288731D02*
Y286065D01*
X133817Y285531D01*
X132751D01*
X132218Y286065D01*
Y288731D01*
X129552Y285531D02*
Y288731D01*
X131151Y287131D01*
X129019D01*
X209646Y315453D02*
Y318652D01*
X208046D01*
X207513Y318119D01*
Y317052D01*
X208046Y316519D01*
X209646D01*
X208579D02*
X207513Y315453D01*
X204314Y318119D02*
X204847Y318652D01*
X205913D01*
X206447Y318119D01*
Y317585D01*
X205913Y317052D01*
X204847D01*
X204314Y316519D01*
Y315986D01*
X204847Y315453D01*
X205913D01*
X206447Y315986D01*
X201648Y315453D02*
Y318652D01*
X203248Y317052D01*
X201115D01*
X276279Y197244D02*
Y200443D01*
X274680D01*
X274147Y199910D01*
Y198844D01*
X274680Y198310D01*
X276279D01*
X275213D02*
X274147Y197244D01*
X270948Y199910D02*
X271481Y200443D01*
X272547D01*
X273081Y199910D01*
Y199377D01*
X272547Y198844D01*
X271481D01*
X270948Y198310D01*
Y197777D01*
X271481Y197244D01*
X272547D01*
X273081Y197777D01*
X269882Y199910D02*
X269348Y200443D01*
X268282D01*
X267749Y199910D01*
Y199377D01*
X268282Y198844D01*
X268815D01*
X268282D01*
X267749Y198310D01*
Y197777D01*
X268282Y197244D01*
X269348D01*
X269882Y197777D01*
X150295Y316339D02*
Y319538D01*
X148696D01*
X148163Y319004D01*
Y317938D01*
X148696Y317405D01*
X150295D01*
X149229D02*
X148163Y316339D01*
X144964Y319004D02*
X145497Y319538D01*
X146563D01*
X147096Y319004D01*
Y318471D01*
X146563Y317938D01*
X145497D01*
X144964Y317405D01*
Y316872D01*
X145497Y316339D01*
X146563D01*
X147096Y316872D01*
X141765Y316339D02*
X143897D01*
X141765Y318471D01*
Y319004D01*
X142298Y319538D01*
X143364D01*
X143897Y319004D01*
X110138Y197146D02*
Y200345D01*
X108538D01*
X108005Y199811D01*
Y198745D01*
X108538Y198212D01*
X110138D01*
X109072D02*
X108005Y197146D01*
X104806Y199811D02*
X105339Y200345D01*
X106406D01*
X106939Y199811D01*
Y199278D01*
X106406Y198745D01*
X105339D01*
X104806Y198212D01*
Y197679D01*
X105339Y197146D01*
X106406D01*
X106939Y197679D01*
X103740Y197146D02*
X102673D01*
X103207D01*
Y200345D01*
X103740Y199811D01*
X15846Y222244D02*
Y225443D01*
X14247D01*
X13714Y224910D01*
Y223844D01*
X14247Y223310D01*
X15846D01*
X14780D02*
X13714Y222244D01*
X12648Y224910D02*
X12114Y225443D01*
X11048D01*
X10515Y224910D01*
Y224377D01*
X11048Y223844D01*
X11581D01*
X11048D01*
X10515Y223310D01*
Y222777D01*
X11048Y222244D01*
X12114D01*
X12648Y222777D01*
X7849Y222244D02*
Y225443D01*
X9448Y223844D01*
X7316D01*
X43308Y230386D02*
Y233585D01*
X41709D01*
X41176Y233051D01*
Y231985D01*
X41709Y231452D01*
X43308D01*
X42242D02*
X41176Y230386D01*
X40109Y233051D02*
X39576Y233585D01*
X38510D01*
X37977Y233051D01*
Y232518D01*
X38510Y231985D01*
X39043D01*
X38510D01*
X37977Y231452D01*
Y230919D01*
X38510Y230386D01*
X39576D01*
X40109Y230919D01*
X36910Y233051D02*
X36377Y233585D01*
X35311D01*
X34778Y233051D01*
Y232518D01*
X35311Y231985D01*
X35844D01*
X35311D01*
X34778Y231452D01*
Y230919D01*
X35311Y230386D01*
X36377D01*
X36910Y230919D01*
X16043Y212697D02*
Y215896D01*
X14444D01*
X13911Y215363D01*
Y214296D01*
X14444Y213763D01*
X16043D01*
X14977D02*
X13911Y212697D01*
X12844Y215363D02*
X12311Y215896D01*
X11245D01*
X10712Y215363D01*
Y214829D01*
X11245Y214296D01*
X11778D01*
X11245D01*
X10712Y213763D01*
Y213230D01*
X11245Y212697D01*
X12311D01*
X12844Y213230D01*
X7513Y212697D02*
X9645D01*
X7513Y214829D01*
Y215363D01*
X8046Y215896D01*
X9112D01*
X9645Y215363D01*
X42245Y211316D02*
Y214515D01*
X40645D01*
X40112Y213982D01*
Y212916D01*
X40645Y212383D01*
X42245D01*
X41179D02*
X40112Y211316D01*
X39046Y213982D02*
X38513Y214515D01*
X37446D01*
X36913Y213982D01*
Y213449D01*
X37446Y212916D01*
X37980D01*
X37446D01*
X36913Y212383D01*
Y211849D01*
X37446Y211316D01*
X38513D01*
X39046Y211849D01*
X35847Y211316D02*
X34781D01*
X35314D01*
Y214515D01*
X35847Y213982D01*
X15945Y202854D02*
Y206053D01*
X14345D01*
X13812Y205520D01*
Y204454D01*
X14345Y203921D01*
X15945D01*
X14879D02*
X13812Y202854D01*
X12746Y205520D02*
X12213Y206053D01*
X11146D01*
X10613Y205520D01*
Y204987D01*
X11146Y204454D01*
X11680D01*
X11146D01*
X10613Y203921D01*
Y203387D01*
X11146Y202854D01*
X12213D01*
X12746Y203387D01*
X9547Y205520D02*
X9014Y206053D01*
X7948D01*
X7414Y205520D01*
Y203387D01*
X7948Y202854D01*
X9014D01*
X9547Y203387D01*
Y205520D01*
X208071Y234646D02*
Y237845D01*
X206471D01*
X205938Y237312D01*
Y236245D01*
X206471Y235712D01*
X208071D01*
X207005D02*
X205938Y234646D01*
X202739D02*
X204872D01*
X202739Y236778D01*
Y237312D01*
X203272Y237845D01*
X204339D01*
X204872Y237312D01*
X199540Y237845D02*
X201673D01*
Y236245D01*
X200607Y236778D01*
X200074D01*
X199540Y236245D01*
Y235179D01*
X200074Y234646D01*
X201140D01*
X201673Y235179D01*
X162008Y241142D02*
Y244341D01*
X160408D01*
X159875Y243808D01*
Y242741D01*
X160408Y242208D01*
X162008D01*
X160942D02*
X159875Y241142D01*
X156676D02*
X158809D01*
X156676Y243274D01*
Y243808D01*
X157209Y244341D01*
X158276D01*
X158809Y243808D01*
X154010Y241142D02*
Y244341D01*
X155610Y242741D01*
X153477D01*
X181988Y278543D02*
X179726Y280805D01*
X178595Y279674D01*
X178595Y278920D01*
X179349Y278166D01*
X180103D01*
X181234Y279297D01*
X180480Y278543D02*
Y277035D01*
X178218Y274773D02*
X179726Y276281D01*
X176710D01*
X176333Y276658D01*
X176333Y277412D01*
X177087Y278166D01*
X177841Y278166D01*
X175579Y275904D02*
X174825Y275904D01*
X174071Y275150D01*
Y274396D01*
X175579Y272888D01*
X176333D01*
X177087Y273642D01*
Y274396D01*
X175579Y275904D01*
X203248Y275197D02*
X200986Y277459D01*
X199855Y276328D01*
X199855Y275574D01*
X200609Y274820D01*
X201363D01*
X202494Y275951D01*
X201740Y275197D02*
Y273689D01*
X200986Y272935D02*
X200232Y272181D01*
X200609Y272558D01*
X198347Y274820D01*
X199101Y274820D01*
X198724Y271427D02*
Y270673D01*
X197970Y269919D01*
X197216D01*
X195708Y271427D01*
X195708Y272181D01*
X196462Y272935D01*
X197216D01*
X197593Y272558D01*
Y271804D01*
X196462Y270673D01*
X15551Y274902D02*
Y278100D01*
X13952D01*
X13419Y277567D01*
Y276501D01*
X13952Y275968D01*
X15551D01*
X14485D02*
X13419Y274902D01*
X12352D02*
X11286D01*
X11819D01*
Y278100D01*
X12352Y277567D01*
X9686Y278100D02*
X7554D01*
Y277567D01*
X9686Y275435D01*
Y274902D01*
X33169Y290650D02*
Y293849D01*
X31570D01*
X31037Y293315D01*
Y292249D01*
X31570Y291716D01*
X33169D01*
X32103D02*
X31037Y290650D01*
X29970D02*
X28904D01*
X29437D01*
Y293849D01*
X29970Y293315D01*
X25172Y293849D02*
X26238Y293315D01*
X27305Y292249D01*
Y291183D01*
X26771Y290650D01*
X25705D01*
X25172Y291183D01*
Y291716D01*
X25705Y292249D01*
X27305D01*
X15748Y265453D02*
Y268652D01*
X14149D01*
X13615Y268119D01*
Y267052D01*
X14149Y266519D01*
X15748D01*
X14682D02*
X13615Y265453D01*
X12549D02*
X11483D01*
X12016D01*
Y268652D01*
X12549Y268119D01*
X7751Y268652D02*
X9883D01*
Y267052D01*
X8817Y267585D01*
X8284D01*
X7751Y267052D01*
Y265986D01*
X8284Y265453D01*
X9350D01*
X9883Y265986D01*
X32972Y282579D02*
Y285778D01*
X31373D01*
X30840Y285244D01*
Y284178D01*
X31373Y283645D01*
X32972D01*
X31906D02*
X30840Y282579D01*
X29774D02*
X28707D01*
X29240D01*
Y285778D01*
X29774Y285244D01*
X25508Y282579D02*
Y285778D01*
X27108Y284178D01*
X24975D01*
X15945Y255906D02*
Y259104D01*
X14345D01*
X13812Y258571D01*
Y257505D01*
X14345Y256972D01*
X15945D01*
X14879D02*
X13812Y255906D01*
X12746D02*
X11680D01*
X12213D01*
Y259104D01*
X12746Y258571D01*
X10080D02*
X9547Y259104D01*
X8481D01*
X7948Y258571D01*
Y258038D01*
X8481Y257505D01*
X9014D01*
X8481D01*
X7948Y256972D01*
Y256439D01*
X8481Y255906D01*
X9547D01*
X10080Y256439D01*
X70768Y240158D02*
Y243356D01*
X69168D01*
X68635Y242823D01*
Y241757D01*
X69168Y241224D01*
X70768D01*
X69701D02*
X68635Y240158D01*
X67569Y242823D02*
X67036Y243356D01*
X65969D01*
X65436Y242823D01*
Y242290D01*
X65969Y241757D01*
X65436Y241224D01*
Y240691D01*
X65969Y240158D01*
X67036D01*
X67569Y240691D01*
Y241224D01*
X67036Y241757D01*
X67569Y242290D01*
Y242823D01*
X67036Y241757D02*
X65969D01*
X15945Y240354D02*
Y243553D01*
X14345D01*
X13812Y243020D01*
Y241954D01*
X14345Y241421D01*
X15945D01*
X14879D02*
X13812Y240354D01*
X12746Y243553D02*
X10613D01*
Y243020D01*
X12746Y240887D01*
Y240354D01*
X164764Y291339D02*
Y294538D01*
X163164D01*
X162631Y294004D01*
Y292938D01*
X163164Y292405D01*
X164764D01*
X163698D02*
X162631Y291339D01*
X159432Y294538D02*
X161565D01*
Y292938D01*
X160498Y293471D01*
X159965D01*
X159432Y292938D01*
Y291872D01*
X159965Y291339D01*
X161032D01*
X161565Y291872D01*
X163878Y269193D02*
Y272392D01*
X162278D01*
X161745Y271859D01*
Y270792D01*
X162278Y270259D01*
X163878D01*
X162812D02*
X161745Y269193D01*
X159080D02*
Y272392D01*
X160679Y270792D01*
X158546D01*
X160728Y248721D02*
Y251919D01*
X159129D01*
X158596Y251386D01*
Y250320D01*
X159129Y249787D01*
X160728D01*
X159662D02*
X158596Y248721D01*
X157529Y251386D02*
X156996Y251919D01*
X155930D01*
X155397Y251386D01*
Y250853D01*
X155930Y250320D01*
X156463D01*
X155930D01*
X155397Y249787D01*
Y249254D01*
X155930Y248721D01*
X156996D01*
X157529Y249254D01*
X170177Y248524D02*
Y251723D01*
X168578D01*
X168044Y251189D01*
Y250123D01*
X168578Y249590D01*
X170177D01*
X169111D02*
X168044Y248524D01*
X164846D02*
X166978D01*
X164846Y250656D01*
Y251189D01*
X165379Y251723D01*
X166445D01*
X166978Y251189D01*
X123293Y173750D02*
X124047Y172996D01*
X123670Y173373D01*
X121785Y171488D01*
Y170734D01*
X122162Y170357D01*
X122916D01*
X119900Y171865D02*
X118392Y173373D01*
X120277Y176766D02*
X118769Y175258D01*
X117261D01*
Y176766D01*
X118769Y178274D01*
X114245D02*
X115753Y176766D01*
Y179782D01*
X116130Y180159D01*
X116884Y180159D01*
X117638Y179405D01*
Y178651D01*
X189501Y319242D02*
X190568D01*
X190034D01*
Y316577D01*
X190568Y316043D01*
X191101D01*
X191634Y316577D01*
X188435Y315510D02*
X186302D01*
X185236Y319242D02*
Y317110D01*
X184170Y316043D01*
X183103Y317110D01*
Y319242D01*
X182037Y316043D02*
X180971D01*
X181504D01*
Y319242D01*
X182037Y318709D01*
X131529Y319931D02*
X132595D01*
X132062D01*
Y317265D01*
X132595Y316732D01*
X133128D01*
X133661Y317265D01*
X130462Y316199D02*
X128330D01*
X127263Y319931D02*
Y317799D01*
X126197Y316732D01*
X125131Y317799D01*
Y319931D01*
X124065Y319398D02*
X123531Y319931D01*
X122465D01*
X121932Y319398D01*
Y317265D01*
X122465Y316732D01*
X123531D01*
X124065Y317265D01*
Y319398D01*
X290781Y225935D02*
X291847D01*
X291314D01*
Y223269D01*
X291847Y222736D01*
X292380D01*
X292913Y223269D01*
X289714Y222203D02*
X287582D01*
X286515Y222736D02*
Y225935D01*
X284916D01*
X284383Y225402D01*
Y224336D01*
X284916Y223802D01*
X286515D01*
X283316Y222736D02*
X282250D01*
X282783D01*
Y225935D01*
X283316Y225402D01*
X279051Y222736D02*
Y225935D01*
X280651Y224336D01*
X278518D01*
X290781Y254183D02*
X291847D01*
X291314D01*
Y251517D01*
X291847Y250984D01*
X292380D01*
X292913Y251517D01*
X289714Y250451D02*
X287582D01*
X286515Y250984D02*
Y254183D01*
X284916D01*
X284383Y253650D01*
Y252584D01*
X284916Y252051D01*
X286515D01*
X283316Y250984D02*
X282250D01*
X282783D01*
Y254183D01*
X283316Y253650D01*
X280651D02*
X280118Y254183D01*
X279051D01*
X278518Y253650D01*
Y251517D01*
X279051Y250984D01*
X280118D01*
X280651Y251517D01*
Y253650D01*
X290781Y235679D02*
X291847D01*
X291314D01*
Y233014D01*
X291847Y232480D01*
X292380D01*
X292913Y233014D01*
X289714Y231947D02*
X287582D01*
X286515Y232480D02*
Y235679D01*
X284916D01*
X284383Y235146D01*
Y234080D01*
X284916Y233547D01*
X286515D01*
X283316Y233014D02*
X282783Y232480D01*
X281717D01*
X281184Y233014D01*
Y235146D01*
X281717Y235679D01*
X282783D01*
X283316Y235146D01*
Y234613D01*
X282783Y234080D01*
X281184D01*
X290781Y244636D02*
X291847D01*
X291314D01*
Y241970D01*
X291847Y241437D01*
X292380D01*
X292913Y241970D01*
X289714Y240904D02*
X287582D01*
X286515Y241437D02*
Y244636D01*
X284916D01*
X284383Y244103D01*
Y243037D01*
X284916Y242503D01*
X286515D01*
X283316Y244103D02*
X282783Y244636D01*
X281717D01*
X281184Y244103D01*
Y243570D01*
X281717Y243037D01*
X281184Y242503D01*
Y241970D01*
X281717Y241437D01*
X282783D01*
X283316Y241970D01*
Y242503D01*
X282783Y243037D01*
X283316Y243570D01*
Y244103D01*
X282783Y243037D02*
X281717D01*
X290781Y266585D02*
X291847D01*
X291314D01*
Y263919D01*
X291847Y263386D01*
X292380D01*
X292913Y263919D01*
X289714Y262853D02*
X287582D01*
X286515Y263386D02*
Y266585D01*
X284916D01*
X284383Y266052D01*
Y264985D01*
X284916Y264452D01*
X286515D01*
X283316Y266585D02*
X281184D01*
Y266052D01*
X283316Y263919D01*
Y263386D01*
X304757Y196170D02*
X305290Y196703D01*
X306357D01*
X306890Y196170D01*
Y194037D01*
X306357Y193504D01*
X305290D01*
X304757Y194037D01*
X302091Y193504D02*
Y196703D01*
X303691Y195103D01*
X301558D01*
X300492Y194037D02*
X299959Y193504D01*
X298892D01*
X298359Y194037D01*
Y196170D01*
X298892Y196703D01*
X299959D01*
X300492Y196170D01*
Y195637D01*
X299959Y195103D01*
X298359D01*
X177395Y300599D02*
X177928Y301132D01*
X178994D01*
X179528Y300599D01*
Y298466D01*
X178994Y297933D01*
X177928D01*
X177395Y298466D01*
X174729Y297933D02*
Y301132D01*
X176329Y299533D01*
X174196D01*
X173130Y300599D02*
X172597Y301132D01*
X171530D01*
X170997Y300599D01*
Y300066D01*
X171530Y299533D01*
X170997Y298999D01*
Y298466D01*
X171530Y297933D01*
X172597D01*
X173130Y298466D01*
Y298999D01*
X172597Y299533D01*
X173130Y300066D01*
Y300599D01*
X172597Y299533D02*
X171530D01*
X204481Y271834D02*
X204481Y272588D01*
X205235Y273342D01*
X205989D01*
X207497Y271834D01*
Y271080D01*
X206743Y270326D01*
X205989D01*
X204481Y268064D02*
X202219Y270326D01*
X204481Y270326D01*
X202973Y268818D01*
X201088Y269195D02*
X199580Y267687D01*
X199957Y267310D01*
X202973D01*
X203350Y266933D01*
X210228Y259186D02*
X209695Y259719D01*
Y260786D01*
X210228Y261319D01*
X212361D01*
X212894Y260786D01*
Y259719D01*
X212361Y259186D01*
X212894Y256520D02*
X209695D01*
X211294Y258120D01*
Y255987D01*
X209695Y252788D02*
X210228Y253855D01*
X211294Y254921D01*
X212361D01*
X212894Y254388D01*
Y253322D01*
X212361Y252788D01*
X211827D01*
X211294Y253322D01*
Y254921D01*
X263074Y267862D02*
X263828Y267862D01*
X264582Y267108D01*
Y266354D01*
X263074Y264845D01*
X262320D01*
X261566Y265599D01*
Y266354D01*
X259304Y267862D02*
X261566Y270124D01*
X261566Y267862D01*
X260058Y269370D01*
X258927Y272762D02*
X260435Y271254D01*
X259304Y270124D01*
X258927Y271254D01*
X258550Y271632D01*
X257796D01*
X257042Y270878D01*
Y270124D01*
X257796Y269370D01*
X258550D01*
X267798Y272980D02*
X268552Y272980D01*
X269306Y272226D01*
Y271472D01*
X267798Y269964D01*
X267044D01*
X266290Y270718D01*
Y271472D01*
X264028Y272980D02*
X266290Y275242D01*
X266290Y272980D01*
X264782Y274488D01*
X261766Y275242D02*
X264028Y277504D01*
Y275242D01*
X262520Y276750D01*
X213900Y203077D02*
X213367Y203610D01*
Y204677D01*
X213900Y205210D01*
X216032D01*
X216565Y204677D01*
Y203610D01*
X216032Y203077D01*
X216565Y200411D02*
X213367D01*
X214966Y202011D01*
Y199878D01*
X216565Y198812D02*
Y197746D01*
Y198279D01*
X213367D01*
X213900Y198812D01*
X220339Y202688D02*
X219806Y203221D01*
Y204287D01*
X220339Y204820D01*
X222471D01*
X223005Y204287D01*
Y203221D01*
X222471Y202688D01*
X223005Y200022D02*
X219806D01*
X221405Y201622D01*
Y199489D01*
X220339Y198423D02*
X219806Y197889D01*
Y196823D01*
X220339Y196290D01*
X222471D01*
X223005Y196823D01*
Y197889D01*
X222471Y198423D01*
X220339D01*
X233653Y217159D02*
X233120Y217692D01*
Y218758D01*
X233653Y219291D01*
X235786D01*
X236319Y218758D01*
Y217692D01*
X235786Y217159D01*
X233653Y216092D02*
X233120Y215559D01*
Y214493D01*
X233653Y213960D01*
X234186D01*
X234719Y214493D01*
Y215026D01*
Y214493D01*
X235253Y213960D01*
X235786D01*
X236319Y214493D01*
Y215559D01*
X235786Y216092D01*
X233653Y212893D02*
X233120Y212360D01*
Y211294D01*
X233653Y210761D01*
X235786D01*
X236319Y211294D01*
Y212360D01*
X235786Y212893D01*
X233653D01*
X134974Y194103D02*
X135507Y194636D01*
X136573D01*
X137106Y194103D01*
Y191970D01*
X136573Y191437D01*
X135507D01*
X134974Y191970D01*
X131775Y191437D02*
X133907D01*
X131775Y193570D01*
Y194103D01*
X132308Y194636D01*
X133374D01*
X133907Y194103D01*
X130708D02*
X130175Y194636D01*
X129109D01*
X128576Y194103D01*
Y191970D01*
X129109Y191437D01*
X130175D01*
X130708Y191970D01*
Y194103D01*
X125230Y301485D02*
X125763Y302018D01*
X126829D01*
X127362Y301485D01*
Y299352D01*
X126829Y298819D01*
X125763D01*
X125230Y299352D01*
X124163Y298819D02*
X123097D01*
X123630D01*
Y302018D01*
X124163Y301485D01*
X121497Y299352D02*
X120964Y298819D01*
X119898D01*
X119365Y299352D01*
Y301485D01*
X119898Y302018D01*
X120964D01*
X121497Y301485D01*
Y300952D01*
X120964Y300418D01*
X119365D01*
X47296Y269964D02*
X47296Y270718D01*
X48050Y271472D01*
X48804D01*
X50312Y269964D01*
Y269210D01*
X49558Y268456D01*
X48804D01*
X48427Y267325D02*
X47673Y266571D01*
X48050Y266948D01*
X45788Y269210D01*
X46542Y269210D01*
X44657Y267325D02*
X43903D01*
X43149Y266571D01*
X43149Y265817D01*
X43526Y265440D01*
X44280D01*
Y264686D01*
X44657Y264309D01*
X45411D01*
X46165Y265063D01*
Y265817D01*
X45788Y266194D01*
X45034D01*
Y266948D01*
X44657Y267325D01*
X45034Y266194D02*
X44280Y265440D01*
X59698Y254314D02*
X59698Y255068D01*
X60452Y255822D01*
X61206D01*
X62713Y254314D01*
Y253560D01*
X61960Y252806D01*
X61206D01*
X60829Y251675D02*
X60075Y250921D01*
X60452Y251298D01*
X58189Y253560D01*
X58943Y253560D01*
X56682Y252052D02*
X55173Y250544D01*
X55550Y250167D01*
X58566D01*
X58943Y249790D01*
X115406Y264452D02*
X115406Y265206D01*
X116160Y265960D01*
X116914D01*
X118422Y264452D01*
Y263698D01*
X117668Y262944D01*
X116914D01*
X116537Y261813D02*
X115783Y261059D01*
X116160Y261436D01*
X113898Y263698D01*
X114652Y263698D01*
X110882Y260682D02*
X112013Y261059D01*
X113521D01*
X114275Y260305D01*
Y259551D01*
X113521Y258797D01*
X112767D01*
X112390Y259174D01*
Y259928D01*
X113521Y261059D01*
X70918Y264944D02*
X70918Y265698D01*
X71672Y266452D01*
X72426D01*
X73934Y264944D01*
Y264190D01*
X73180Y263436D01*
X72426D01*
X72049Y262305D02*
X71295Y261551D01*
X71672Y261928D01*
X69410Y264190D01*
X70164Y264190D01*
X69033Y259289D02*
X66771Y261551D01*
X69033Y261551D01*
X67525Y260043D01*
X56646Y278724D02*
X56646Y279478D01*
X57400Y280231D01*
X58154D01*
X59662Y278724D01*
Y277970D01*
X58908Y277216D01*
X58154D01*
X57777Y276084D02*
X57023Y275330D01*
X57400Y275708D01*
X55138Y277970D01*
X55892Y277970D01*
X54007Y276084D02*
X53253D01*
X52499Y275330D01*
X52499Y274576D01*
X52876Y274199D01*
X53630D01*
X54007Y274576D01*
X53630Y274199D01*
Y273445D01*
X54007Y273068D01*
X54761D01*
X55515Y273822D01*
Y274576D01*
X55889Y228196D02*
X56643Y228196D01*
X57397Y227442D01*
Y226688D01*
X55889Y225180D01*
X55135D01*
X54381Y225934D01*
Y226688D01*
X53627Y227442D02*
X52873D01*
X52119Y228196D01*
Y228950D01*
X53627Y230458D01*
X54381Y230458D01*
X55135Y229704D01*
X55135Y228950D01*
X54758Y228573D01*
X54004D01*
X52873Y229704D01*
X61204Y232724D02*
X61958Y232724D01*
X62712Y231970D01*
Y231216D01*
X61204Y229708D01*
X60450D01*
X59696Y230462D01*
Y231216D01*
X60450Y233478D02*
X60450Y234232D01*
X59696Y234986D01*
X58942Y234986D01*
X58565Y234609D01*
Y233855D01*
X57811D01*
X57434Y233478D01*
Y232724D01*
X58188Y231970D01*
X58942D01*
X59319Y232347D01*
Y233101D01*
X60073D01*
X60450Y233478D01*
X59319Y233101D02*
X58565Y233855D01*
X31496Y251919D02*
Y249254D01*
X30963Y248721D01*
X29897D01*
X29363Y249254D01*
Y251919D01*
X28297Y251386D02*
X27764Y251919D01*
X26698D01*
X26164Y251386D01*
Y250853D01*
X26698Y250320D01*
X27231D01*
X26698D01*
X26164Y249787D01*
Y249254D01*
X26698Y248721D01*
X27764D01*
X28297Y249254D01*
D19*
X103232Y231693D02*
D03*
X301575Y263976D02*
D03*
Y243110D02*
D03*
Y233760D02*
D03*
Y252461D02*
D03*
Y224409D02*
D03*
X127890Y311220D02*
D03*
X186650Y310039D02*
D03*
X161516Y277658D02*
D03*
Y286221D02*
D03*
X24114Y241732D02*
D03*
X56693Y241732D02*
D03*
X24114Y257677D02*
D03*
X41338Y282284D02*
D03*
X24114Y267126D02*
D03*
X41338Y290551D02*
D03*
X24114Y276673D02*
D03*
X170276Y242913D02*
D03*
X203740Y242914D02*
D03*
X24114Y204623D02*
D03*
X41401Y204624D02*
D03*
X24114Y214173D02*
D03*
X41401Y223718D02*
D03*
X24114Y223718D02*
D03*
X145965Y311220D02*
D03*
X205020Y310039D02*
D03*
D20*
X124114Y179823D02*
D03*
X281238Y185335D02*
D03*
D21*
X167421Y260138D02*
D03*
X158154D02*
D03*
X106595Y208956D02*
D03*
X272933Y208957D02*
D03*
D113*
X136215Y285821D02*
X137018D01*
X148612D02*
X149415D01*
Y299021D01*
X136215D02*
X137018D01*
X136215Y285821D02*
Y299021D01*
X148612D02*
X149415D01*
X130714Y199502D02*
Y200305D01*
Y211899D02*
Y212702D01*
X117514D02*
X130714D01*
X117514Y199502D02*
Y200305D01*
Y199502D02*
X130714D01*
X117514Y211899D02*
Y212702D01*
X195172Y284640D02*
X195975D01*
X207569D02*
X208372D01*
Y297840D01*
X195172D02*
X195975D01*
X195172Y284640D02*
Y297840D01*
X207569D02*
X208372D01*
X297032Y199659D02*
Y200462D01*
Y212055D02*
Y212859D01*
X283832D02*
X297032D01*
X283832Y199659D02*
Y200462D01*
Y199659D02*
X297032D01*
X283832Y212055D02*
Y212859D01*
D114*
X257382Y213386D02*
D03*
X188780Y265256D02*
D03*
X182284Y271555D02*
D03*
M02*
