M48
;Layer_Color=9474304
;FILE_FORMAT=2:5
INCH,LZ
;TYPE=PLATED
T1F00S00C0.01181
T2F00S00C0.01575
T3F00S00C0.02000
T4F00S00C0.02362
T5F00S00C0.03543
T6F00S00C0.03937
T7F00S00C0.04724
T8F00S00C0.06693
T9F00S00C0.12598
%
T01
X0031181Y0144587
X0035709
X0051686Y0144114
X0058143
X00646
X0070846Y0145669
X0080905Y0103297
X0080807Y0089272
X0084449Y0086417
X0080807Y0073228
X0087795Y0071555
X0118126Y005748
Y0088878
X0126772
X0127165Y0104331
X0123622
X017815Y0144587
X0182677
X0198655Y0144114
X0205112
X0211568
X0217815Y0145669
X0224547Y0104764
X022706Y0088885
X0231102Y0083071
X0233957Y0073425
X0224547Y0072933
X0265989
Y005748
X0269783Y0089173
X0221752Y0149606
Y0155217
X0217815Y0159153
X0211568Y0160531
X0245768Y0191634
X0257361Y0191457
X0259166Y0194301
X0257283Y0198228
X0263484Y0201772
X0260925Y0204528
X0263976Y0207382
X0266831Y0209842
X0261614Y0225984
X0258268
X0254331
X0253162Y0222747
X0248769Y0224361
X0249028Y0218318
X0271654Y0238976
X0271667Y0242236
Y0245484
X0271604Y0248671
X0274114Y0251181
X0259842Y025689
X025689Y0259449
X0258379Y0269501
X0260741Y0271667
X0256791Y0275197
X0250603Y0275801
X0252867Y027836
X0265158Y0286614
X0296358Y0272835
X0304528
X030689Y0277658
X0311319Y0277854
Y0281398
X0311122Y0231102
X0325098Y0225689
X0325295Y0214469
X030502Y0206004
X0293307Y0204528
X028937Y0207579
X0293491Y0217293
X0296654Y0218504
X0291057Y0222255
X029065Y0226181
X0288267Y0224061
X0303839Y0188976
X0307972Y0189075
X0307776Y0192618
X0310728Y0194587
X0334941Y023435
X0224519Y0250504
X0219685Y0249213
X0211516Y0247441
X0228555Y0256115
X0230709Y0258666
X020187Y0274705
X0199016Y0277264
X0172047Y0277953
X0173818Y0272834
X016752Y0270472
X0162894Y0270374
X0165354Y0292224
X0178937Y0291831
X0181791Y0293996
X0177854Y0259449
X0145972Y0258674
X014439Y026191
X0141142Y0264764
X013937Y0269587
X0129921Y0252756
Y0246457
X0132726Y024311
X0148932Y0243588
X0150984Y0240566
X0147933Y0235138
X0148031Y0228248
X0132296Y022215
X0129823Y0220078
X0127362Y0217815
X0127067Y0210827
X012313Y0211024
X0123622Y0206594
X0132185Y019626
X0132087Y0192913
X0147343Y0197835
X0151378Y0194488
X016778Y0219783
X0160531Y0238976
X0160335Y0242815
X0116935Y0235937
X0113779Y0233071
X0116344Y0229736
X0107579Y023937
X0111909Y0245079
X0113681Y0248425
X0111909Y0251772
X0102067Y0257874
X0104134Y0261221
X0105217Y0286221
X0113681Y0288189
X0118799Y0284646
X0121856Y0281313
X0054432Y028809
Y0293125
X006565Y0258169
X0062402Y025
X005481Y0233747
X0051686Y0160531
X0058143
X00646
X0070846Y0159153
X0074783Y0155217
Y0149606
X017315Y0149291
Y0154488
X017815Y0159547
X0182677
X0198655Y0160531
X0205112
X0192913Y0215748
X0045276Y0217028
X0043799Y019498
X0034291Y0197244
X0015354Y0213878
X0015256Y0219587
X0028839Y0250787
X0047244Y0244685
X0037106Y0273622
X0030217Y0282185
X0015945Y0271654
X0031181Y0159547
X0035709
X0026181Y0154488
Y0149291
X002874Y0321457
X0057874Y0321358
X0106102Y0339677
X0130315Y0343012
X0135236Y0340748
X0140157Y0332677
X0145079
X0191732
X0196653
X0201575
X0206201
X0258661Y0313484
X0258772Y0308873
X0261319Y0306299
X0265072Y0302968
T02
X0036207Y0006398
X004561
X0050157Y0011673
X0040538
X0036627Y0016529
Y0026148
Y0035335
X0031352Y0030479
Y0021076
Y0011673
X0026673Y0035531
X002126Y0039961
X0013583
X000502
X000498Y0050085
X0005039Y0059101
Y0068504
Y0077907
X0005098Y0086923
Y0096325
Y0105728
Y0115131
Y0124534
Y0133937
X0005158Y0142953
X0010374Y0137926
Y012874
Y0119554
Y0110367
Y0101181
Y0091995
X0010315Y0081896
Y007336
Y0064173
X0010256Y0054075
Y0045472
X0018209
X0025886
X0031496Y0040846
X0040538Y0062684
Y0091155
Y0119626
X0077716
X0106187
Y0091155
Y0062684
Y0034213
Y0011614
X0115374
X0111043Y0006339
X010164
X0092237
X0082835
X0073432
X0064416Y0006398
X0055013
X0059344Y0011673
X0069442Y0011614
X0078628
X0087815
X0097001
X0125472Y0011555
X0134009
X0143195
X0138865Y0006279
X0129462
X0120446Y0006339
X0148268Y0006279
X0157283Y0006221
X0153294Y0011496
X016248
X0171667
X0180853
X0190039
X0199226
X0194895Y0006221
X0185492
X0176089
X0166686
X0204298
X0189665Y0034154
Y0062625
X0166312Y0062684
Y0091155
X0189665Y0091096
Y0119567
X0166312Y0119626
X0137841Y0034213
X0077716
X0217861
Y0011437
X0209324
X0213314Y0006161
X0222716
X0232119
X0241135Y0006102
X0237146Y0011378
X0246332
X0255518
X0264705
X0273891
X0283077
X0278747Y0006102
X0269344
X0259941
X0250538
X0227047Y0011437
X0246332Y0034213
X0274803
X0302382Y0036391
Y0045577
X0307658Y0041247
Y0031844
X031624Y0032185
Y0020571
X0307658Y0022441
X0302382Y0018018
X0302362Y0011319
X0306181Y0005984
X0297165Y0006043
X028815Y0006102
X0293176Y0011319
X0302382Y0027205
X0302441Y0055676
Y0064862
Y0074049
X0307716Y0078471
Y0087874
X0302362Y0084449
X0302441Y0092421
Y0101608
X0307716Y0097277
Y010668
X0307776Y0115696
X03025Y0111706
Y0120892
Y0130079
Y0139265
X0307776Y0143904
Y0134501
Y0125099
X0274803Y0119567
X0246332
X0224153
X0246332Y0091096
Y0062684
X0307716Y0059665
X0307658Y005065
X0307716Y0069068
X0323327Y004065
X0334941
X035748Y0048917
Y0078917
Y0108917
X031624Y0008957
X0307776Y0153307
Y016271
X03025Y0166824
X0302559Y0175689
X0296595Y0175787
X0289075
X0292618Y0181378
X0300532
X0307776Y0181299
Y0172113
X03025Y0157638
Y0148451
X0274803Y0148038
X0246332
X0249304Y0176083
X0258491
X0254501Y0181358
X0245315
X0235912
X0240118Y0176083
X0217808
X0208622
X0213819Y0181358
X0222835Y0181299
X0236024Y0207087
X0248917Y0206398
X024952Y0214282
X0250689Y0243996
X0263287
X022815Y0239272
X0233465Y0254823
X0241535Y0269193
X0217323Y0273721
X0212707Y0258576
X0212451Y0298671
X0219882Y0299902
X0289272Y0296063
X0276391Y0273045
X0283268Y026565
X0286993Y0199409
X0300984Y0198721
X0275098Y0181299
X0271555Y0176083
X0279134
X0219193Y0222244
X0195965Y0223917
X0196653Y0211122
X0195013Y0181358
X018561
X0176207
X0166804
X016269Y0176083
X0153504
X0157402Y0181358
X0148215
X0144318Y0176083
X0135131
X0139029Y0181358
X0143799Y0188189
X0125098Y0187008
X0125295Y0199311
X0110728Y0195669
X0108071Y0187106
X011147Y0181358
X0103839Y0181299
X0095866
X0097835Y0187598
X0099941Y0176024
X0107874Y0176083
X0116759
X0081437
X0072034
X0062631
X0053228
X0058209Y0181358
X0067395
X0076581
X0075689Y019813
X0073917Y022559
X0091831Y0227559
X0109252Y0222736
X0123524Y0257972
X0129731Y0275899
X0131496Y0287894
X0152559Y0299508
X0156299Y0246752
X0158169Y0220276
X0171877Y0176083
X0181063
X0190249
X0199436
X0204416Y0181358
X0194882Y0249705
X0096161Y0269882
X0086417Y0260138
X0077362Y0271522
X008937Y0282972
X005315Y0284154
X006624Y0299114
X0054331Y0219783
X0106187Y0148097
X0043826Y0176083
X003481Y0176142
X0025407
X0016004
X0008609Y0176181
X0005158Y0171161
Y0161758
X0010433Y0165748
Y0157211
Y0148025
X0005158Y0152356
Y018143
X0012014Y0181417
X0020551
X0029737
X0039836Y0181358
X0049022
X0049508Y0197638
X0029823Y0229823
X0029429Y028937
X0048031Y0299508
X002372Y0309646
X0116929Y0311221
X0125197Y0332579
X0184252Y0332677
X0196161Y0305118
X024813Y0304429
X0321555Y0311417
T03
X0048917Y0057579
Y0073032
X0056299Y0024902
X0166312Y0034213
X0165551Y005689
X019124Y0056398
Y0041772
Y0073327
X0264824Y001811
X0294783Y0163681
X0280512Y0288583
X027185
X0225Y0273031
X0215551Y0302658
X0124114Y0288583
X0128347Y0280512
X0101969Y0296358
X0071949Y0274016
X0149114Y0163681
T04
X0240158Y0186614
X0283957Y0162697
X0309252Y0202165
X0309055Y0299213
X0138287Y0163189
X0006594Y0225197
X0008268Y0287894
X015Y0340846
X0209055
X0303445Y0305118
T05
X0320079Y0049291
Y0059291
X0330079
Y0069291
X0320079
Y0079291
X0330079
Y0089291
X0320079
Y0099291
X0330079
Y0109291
X0320079
Y0119291
X0330079
Y0129291
X0320079
Y0139291
X0330079
X0340079
X0350079
Y0129291
X0340079
Y0119291
X0350079
Y0109291
X0340079
Y0099291
X0350079
Y0089291
X0340079
Y0079291
X0350079
Y0069291
X0340079
Y0059291
Y0049291
X0330079
X0350079
Y0059291
Y0149291
Y0159291
Y0169291
Y0179291
Y0189291
Y0199291
Y0209291
Y0219291
Y0229291
Y0239291
Y0249291
Y0259291
Y0269291
Y0279291
Y0289291
Y0299291
X0340059
X0330079
Y0289291
Y0279291
Y0269291
Y0259291
X0340059
Y0249291
X0330079
Y0239291
Y0229291
Y0219291
Y0209291
Y0199291
Y0189291
Y0179291
Y0169291
Y0159291
Y0149291
X0320079
Y0159291
Y0169291
Y0179291
Y0189291
Y0199291
Y0209291
Y0219193
Y0229291
Y0239291
Y0249291
Y0259291
Y0269291
Y0279291
Y0289291
Y0299291
X0340079Y0289291
Y0279291
Y0269291
Y0239291
Y0229291
Y0219193
Y0209291
Y0199291
Y0189291
Y0179291
Y0169291
Y0159291
Y0149291
T06
X0036831Y0331594
Y0341595
X0046831
Y0331594
X0056831
Y0341595
X0066831
X0076831
X0086831
X0096831
Y0331594
X0086831
X0076831
X0066831
X0076831Y031811
X0086831
X0096831
X0235492Y0331594
Y0341595
X0245492
X0255492
X0265492
X0275492
X0285492
X0295492
Y0331594
X0285492
X0275492
X0265492
X0255492
X0245492
X0275551Y031811
X0285551
X0295551
X0312697Y0331594
Y0341595
T07
X0180551Y0152047
X0033583
T08
X0023583Y0142047
X0043583
X0170551
X0190551
Y0162047
X0170551
X0043583
X0023583
T09
X0012831Y00195
X0350134Y0029342
X0012831Y0334559
X0350098Y0319416
M30
